<?xml version="1.0" encoding="UTF-8"?>
<!DOCTYPE svg PUBLIC "-//W3C//DTD SVG 1.1//EN" "http://www.w3.org/Graphics/SVG/1.1/DTD/svg11.dtd">
<svg xmlns="http://www.w3.org/2000/svg" xmlns:xlink="http://www.w3.org/1999/xlink" version="1.1" width="669px" height="856px" viewBox="-0.5 -0.5 669 856"><defs><style type="text/css">@font-face {&#xa;font-family: "Ink Free";&#xa;src: url("https://ull-esit-sistemas-operativos.github.io/ssoo-apuntes/fonts/InkFree.woff");&#xa;}&#xa;</style></defs><g><rect x="41" y="0.5" width="80" height="45" fill="none" stroke="none" pointer-events="all"/><rect x="71" y="45.5" width="20" height="10" fill="none" stroke="none" pointer-events="all"/><path d="M 56 54.5 L 106 54.5 L 116 65.5 L 46 65.5 Z M 70 63 L 88 63 M 57 60 L 96 60 M 59 57 L 95 57 M 98 57 L 105 57 M 100 60 L 107 60 M 102 63 L 109 63" fill="none" stroke="none" pointer-events="all"/><rect x="44" y="3.5" width="73" height="39" fill="none" stroke="none" pointer-events="all"/><path d="M 41.18 0.29 C 41.18 0.29 41.18 0.29 41.18 0.29 M 41.18 0.29 C 41.18 0.29 41.18 0.29 41.18 0.29 M 41.32 12.33 C 44.79 9.12 47.44 8.34 51.81 0.25 M 41.32 12.33 C 44.6 8.09 47.12 4.58 51.81 0.25 M 40.79 25.13 C 47.17 21.87 48.87 15.92 62.44 0.22 M 40.79 25.13 C 46.11 19.14 49.71 14.33 62.44 0.22 M 40.93 37.17 C 49.4 29.33 55.65 19.68 73.07 0.19 M 40.93 37.17 C 49.81 25.05 60.3 15.09 73.07 0.19 M 43.03 46.94 C 58.51 31.32 71.32 15.42 83.7 0.15 M 43.03 46.94 C 59.06 29.37 74.23 11.75 83.7 0.15 M 53.66 46.91 C 66.67 33.58 78.41 20.09 93.68 0.87 M 53.66 46.91 C 65.68 34.71 75.35 21.28 93.68 0.87 M 64.29 46.87 C 77.43 33.08 89.93 19.86 104.31 0.84 M 64.29 46.87 C 74.16 35.78 83.48 24.22 104.31 0.84 M 74.92 46.84 C 91.3 29.83 107.24 9.93 114.94 0.8 M 74.92 46.84 C 87.87 32.65 101.5 17.73 114.94 0.8 M 85.55 46.8 C 99.64 30.99 108.93 19.76 123.6 3.03 M 85.55 46.8 C 97.37 33.58 110.23 20.12 123.6 3.03 M 96.18 46.77 C 107.63 33.03 116.52 24.43 123.73 15.07 M 96.18 46.77 C 102.83 39.55 108.45 32.74 123.73 15.07 M 106.15 47.49 C 114.49 40.37 119.46 30.68 123.87 27.11 M 106.15 47.49 C 111.65 40.61 119.48 33.02 123.87 27.11 M 116.78 47.46 C 119.31 45.02 121.96 41.73 124 39.15 M 116.78 47.46 C 118.5 45.47 119.94 42.97 124 39.15" fill="none" stroke="#c2bee6" stroke-linejoin="round" stroke-linecap="round" stroke-miterlimit="10" pointer-events="all"/><path d="M 41 0.5 C 59.55 1.48 82.69 -0.87 121 0.5 M 41 0.5 C 69.86 -0.22 97.19 0.32 121 0.5 M 121 0.5 C 122.43 17.92 122.25 33.48 121 45.5 M 121 0.5 C 121.07 16.09 120.88 32.64 121 45.5 M 121 45.5 C 94.4 45.22 65.44 48.03 41 45.5 M 121 45.5 C 92.34 44.51 63.6 44.68 41 45.5 M 41 45.5 C 39.42 29.08 40.03 15.24 41 0.5 M 41 45.5 C 40.48 33.1 42.02 18.77 41 0.5" fill="none" stroke="#324ab2" stroke-width="2" stroke-linejoin="round" stroke-linecap="round" stroke-miterlimit="10" pointer-events="all"/><path d="M 70.71 45.83 C 70.71 45.83 70.71 45.83 70.71 45.83 M 70.71 45.83 C 70.71 45.83 70.71 45.83 70.71 45.83 M 72.16 56.36 C 75.19 53.55 77.51 52.87 81.34 45.8 M 72.16 56.36 C 75.03 52.66 77.24 49.58 81.34 45.8 M 82.79 56.33 C 85.92 55.49 85.83 52.81 91.97 45.76 M 82.79 56.33 C 85.27 53.61 86.5 51.72 91.97 45.76" fill="none" stroke="#c2bee6" stroke-linejoin="round" stroke-linecap="round" stroke-miterlimit="10" pointer-events="all"/><path d="M 71 45.5 C 74.55 46.58 82.7 44.23 91 45.5 M 71 45.5 C 78.81 45.21 85.09 45.74 91 45.5 M 91 45.5 C 91.6 49.4 91.51 52.37 91 55.5 M 91 45.5 C 91.16 48.76 91.07 52.5 91 55.5 M 91 55.5 C 85.8 54.79 78.25 57.59 71 55.5 M 91 55.5 C 83.75 54.92 76.41 55.1 71 55.5 M 71 55.5 C 70.23 51.48 70.54 48.75 71 45.5 M 71 55.5 C 70.72 53.01 71.49 49.55 71 45.5" fill="none" stroke="#324ab2" stroke-width="2" stroke-linejoin="round" stroke-linecap="round" stroke-miterlimit="10" pointer-events="all"/><path d="M 46.04 65.46 C 46.04 65.46 46.04 65.46 46.04 65.46 M 46.04 65.46 C 46.04 65.46 46.04 65.46 46.04 65.46 M 56.67 65.42 C 59.03 63.13 60.98 60.11 61.92 59.39 M 56.67 65.42 C 58.84 62.95 60.67 60.85 61.92 59.39 M 67.3 65.39 C 69.95 62.85 71.66 61.82 72.55 59.35 M 67.3 65.39 C 69.13 63.1 70.92 61.01 72.55 59.35 M 77.93 65.35 C 79.08 62.82 81.08 61.29 83.18 59.32 M 77.93 65.35 C 79.25 63.95 81.43 61.77 83.18 59.32 M 88.56 65.32 C 90.37 63.18 92.76 60.76 93.81 59.28 M 88.56 65.32 C 90.34 63.11 92.83 60.61 93.81 59.28 M 99.19 65.29 C 102 62.67 104.16 62.04 107.72 55.47 M 99.19 65.29 C 101.86 61.84 103.9 58.99 107.72 55.47 M 109.82 65.25 C 110.94 64.95 110.9 64 113.1 61.48 M 109.82 65.25 C 110.7 64.28 111.14 63.61 113.1 61.48" fill="none" stroke="#c2bee6" stroke-linejoin="round" stroke-linecap="round" stroke-miterlimit="10" pointer-events="all"/><path d="M 70.28 62.68 C 70.28 62.68 70.28 62.68 70.28 62.68 M 70.28 62.68 C 70.28 62.68 70.28 62.68 70.28 62.68 M 80.91 62.65 C 80.91 62.65 80.91 62.65 80.91 62.65 M 80.91 62.65 C 80.91 62.65 80.91 62.65 80.91 62.65" fill="none" stroke="#c2bee6" stroke-linejoin="round" stroke-linecap="round" stroke-miterlimit="10" pointer-events="all"/><path d="M 56.8 60.24 C 56.8 60.24 56.8 60.24 56.8 60.24 M 56.8 60.24 C 56.8 60.24 56.8 60.24 56.8 60.24 M 67.43 60.2 C 67.43 60.2 67.43 60.2 67.43 60.2 M 67.43 60.2 C 67.43 60.2 67.43 60.2 67.43 60.2 M 78.06 60.17 C 78.06 60.17 78.06 60.17 78.06 60.17 M 78.06 60.17 C 78.06 60.17 78.06 60.17 78.06 60.17 M 88.69 60.13 C 88.69 60.13 88.69 60.13 88.69 60.13 M 88.69 60.13 C 88.69 60.13 88.69 60.13 88.69 60.13" fill="none" stroke="#c2bee6" stroke-linejoin="round" stroke-linecap="round" stroke-miterlimit="10" pointer-events="all"/><path d="M 59.07 56.92 C 59.07 56.92 59.07 56.92 59.07 56.92 M 59.07 56.92 C 59.07 56.92 59.07 56.92 59.07 56.92 M 69.7 56.88 C 69.7 56.88 69.7 56.88 69.7 56.88 M 69.7 56.88 C 69.7 56.88 69.7 56.88 69.7 56.88 M 80.33 56.85 C 80.33 56.85 80.33 56.85 80.33 56.85 M 80.33 56.85 C 80.33 56.85 80.33 56.85 80.33 56.85 M 90.96 56.81 C 90.96 56.81 90.96 56.81 90.96 56.81 M 90.96 56.81 C 90.96 56.81 90.96 56.81 90.96 56.81" fill="none" stroke="#c2bee6" stroke-linejoin="round" stroke-linecap="round" stroke-miterlimit="10" pointer-events="all"/><path d="M 97.69 57.36 C 97.69 57.36 97.69 57.36 97.69 57.36 M 97.69 57.36 C 97.69 57.36 97.69 57.36 97.69 57.36" fill="none" stroke="#c2bee6" stroke-linejoin="round" stroke-linecap="round" stroke-miterlimit="10" pointer-events="all"/><path d="M 100.31 59.64 C 100.31 59.64 100.31 59.64 100.31 59.64 M 100.31 59.64 C 100.31 59.64 100.31 59.64 100.31 59.64" fill="none" stroke="#c2bee6" stroke-linejoin="round" stroke-linecap="round" stroke-miterlimit="10" pointer-events="all"/><path d="M 102.28 62.68 C 102.28 62.68 102.28 62.68 102.28 62.68 M 102.28 62.68 C 102.28 62.68 102.28 62.68 102.28 62.68" fill="none" stroke="#c2bee6" stroke-linejoin="round" stroke-linecap="round" stroke-miterlimit="10" pointer-events="all"/><path d="M 56 54.5 M 56 54.5 C 67.5 52.67 84.36 54.64 106 54.5 M 56 54.5 C 75.56 54.94 93.76 54.1 106 54.5 M 106 54.5 C 108.66 58.25 112.45 62.08 116 65.5 M 106 54.5 C 108.44 56.78 111.45 59.92 116 65.5 M 116 65.5 C 93.64 64.73 69 64.5 46 65.5 M 116 65.5 C 100.97 65.79 86.11 65.34 46 65.5 M 46 65.5 C 50.25 62.69 52.5 59.65 56 54.5 M 46 65.5 C 48.21 63.09 50.79 60.25 56 54.5 M 70 63 M 70 63 C 77.22 63.57 84.63 64.67 88 63 M 70 63 C 75.89 62.92 82.16 63.26 88 63 M 57 60 M 57 60 C 70.4 60.54 82.42 59.93 96 60 M 57 60 C 71.32 60.19 84.86 60.77 96 60 M 59 57 M 59 57 C 68.06 56.4 74.82 55.21 95 57 M 59 57 C 69.02 56.27 80.11 56.17 95 57 M 98 57 M 98 57 C 99.44 57.21 100.44 57.01 105 57 M 98 57 C 99.33 57.3 101.43 57.28 105 57 M 100 60 M 100 60 C 102.19 59.61 104.77 59.93 107 60 M 100 60 C 102.42 59.78 104.75 59.92 107 60 M 102 63 M 102 63 C 103.43 63.65 105.07 63.21 109 63 M 102 63 C 104.44 62.85 107.07 63.26 109 63" fill="none" stroke="#324ab2" stroke-width="2" stroke-linejoin="round" stroke-linecap="round" stroke-miterlimit="10" pointer-events="all"/><path d="M 45.04 3.89 L 116.59 3.44 L 116.93 43.8 L 43.18 44.03" fill="#ffffff" stroke="none" pointer-events="all"/><g fill="#324AB2" font-family="Ink Free" font-weight="bold" text-anchor="middle" font-size="17px"><text x="80.5" y="102.5">Terminal 6</text></g><rect x="161" y="155.5" width="80" height="90" fill="none" stroke="none" pointer-events="all"/><rect x="166" y="150.5" width="28" height="100" fill="none" stroke="none" pointer-events="all"/><rect x="208" y="150.5" width="28" height="100" fill="none" stroke="none" pointer-events="all"/><rect x="194" y="190.5" width="14" height="20" fill="none" stroke="none" pointer-events="all"/><path d="M 201 155.5 L 201 245.5" fill="none" stroke="none" pointer-events="all"/><rect x="178" y="180.5" width="4" height="65" fill="none" stroke="none" pointer-events="all"/><rect x="220" y="180.5" width="4" height="65" fill="none" stroke="none" pointer-events="all"/><rect x="203" y="193.5" width="3" height="5" fill="none" stroke="none" pointer-events="all"/><ellipse cx="197.5" cy="204.5" rx="1.5" ry="1.5" fill="none" stroke="none" pointer-events="all"/><ellipse cx="204.5" cy="204.5" rx="1.5" ry="1.5" fill="none" stroke="none" pointer-events="all"/><path d="M 160.69 155.85 C 160.69 155.85 160.69 155.85 160.69 155.85 M 160.69 155.85 C 160.69 155.85 160.69 155.85 160.69 155.85 M 160.83 167.89 C 163.02 165.36 167.43 159.24 171.32 155.82 M 160.83 167.89 C 163.15 164.06 166.1 161.26 171.32 155.82 M 160.96 179.93 C 168.68 171.17 173.22 166.27 181.95 155.78 M 160.96 179.93 C 165.62 174.08 169.66 169.02 181.95 155.78 M 161.09 191.98 C 169.7 181.33 177.82 175.13 192.58 155.75 M 161.09 191.98 C 170.28 181.69 177.32 172.19 192.58 155.75 M 161.23 204.02 C 178.23 186.48 194.72 166.25 203.21 155.71 M 161.23 204.02 C 172.79 190.62 186.41 176.54 203.21 155.71 M 160.7 216.81 C 171.66 200.98 183.72 190.07 213.84 155.68 M 160.7 216.81 C 177.68 198.46 193.56 180.66 213.84 155.68 M 160.84 228.85 C 179.28 205.5 198.09 186.26 224.47 155.65 M 160.84 228.85 C 175.42 209.66 192.77 192.34 224.47 155.65 M 160.97 240.89 C 186.22 212.17 210.9 182.42 235.1 155.61 M 160.97 240.89 C 183.52 213.46 206.32 186.55 235.1 155.61 M 165.04 248.41 C 192.36 216.35 222.24 182.6 243.77 157.84 M 165.04 248.41 C 195.43 213.02 225.74 178.69 243.77 157.84 M 175.01 249.13 C 192.98 228.99 209.52 209.04 243.9 169.88 M 175.01 249.13 C 193.06 229.29 209.95 208.92 243.9 169.88 M 185.64 249.09 C 198.9 234.15 210.46 222.18 244.03 181.92 M 185.64 249.09 C 197.86 235.38 211.4 219.15 244.03 181.92 M 196.27 249.06 C 207.71 238.66 218.88 222.88 243.51 194.72 M 196.27 249.06 C 212.58 230.06 230.06 211.37 243.51 194.72 M 206.9 249.02 C 215.61 239.06 224 227.54 243.64 206.76 M 206.9 249.02 C 214.75 238.82 224.37 230.12 243.64 206.76 M 217.53 248.99 C 227.08 239.49 232.14 230.3 243.78 218.8 M 217.53 248.99 C 223 242.41 229.93 233.99 243.78 218.8 M 228.16 248.95 C 235.12 241.88 238.71 237.06 243.91 230.84 M 228.16 248.95 C 232.54 243.71 239.44 237.09 243.91 230.84" fill="none" stroke="#c2bee6" stroke-linejoin="round" stroke-linecap="round" stroke-miterlimit="10" pointer-events="all"/><path d="M 161 155.5 C 182.4 156.08 200.37 157.93 241 155.5 M 161 155.5 C 178.82 156.11 197.49 155.86 241 155.5 M 241 155.5 C 241.82 173.56 240.51 194.25 241 245.5 M 241 155.5 C 240.01 184.96 240.72 215.39 241 245.5 M 241 245.5 C 216.87 246.5 188.97 246.8 161 245.5 M 241 245.5 C 208.31 244.81 177.32 245.87 161 245.5 M 161 245.5 C 162.45 219.31 159.59 197.53 161 155.5 M 161 245.5 C 160.37 224.04 160.08 200.56 161 155.5" fill="none" stroke="#324ab2" stroke-width="2" stroke-linejoin="round" stroke-linecap="round" stroke-miterlimit="10" pointer-events="all"/><path d="M 166.31 150.14 C 166.31 150.14 166.31 150.14 166.31 150.14 M 166.31 150.14 C 166.31 150.14 166.31 150.14 166.31 150.14 M 165.79 162.93 C 167.99 160.4 172.39 154.28 176.29 150.86 M 165.79 162.93 C 168.12 159.1 171.06 156.3 176.29 150.86 M 165.92 174.97 C 173.64 166.21 178.18 161.31 186.92 150.82 M 165.92 174.97 C 170.58 169.12 174.62 164.06 186.92 150.82 M 166.06 187.02 C 174.33 176.74 182.12 170.93 196.24 152.3 M 166.06 187.02 C 174.89 177.15 181.57 168.07 196.24 152.3 M 166.19 199.06 C 178.69 186.89 190.59 171.94 196.37 164.34 M 166.19 199.06 C 174.28 189.47 184.53 179.25 196.37 164.34 M 166.32 211.1 C 171.71 201.49 178.46 196.69 195.85 177.14 M 166.32 211.1 C 176.17 200.92 184.82 191.44 195.85 177.14 M 165.8 223.89 C 174.02 211.95 182.88 204.15 195.98 189.18 M 165.8 223.89 C 172.22 214.43 181.27 206.66 195.98 189.18 M 165.93 235.93 C 176.47 224.1 186.25 211.49 196.11 201.22 M 165.93 235.93 C 174.97 224.69 183.86 213.78 196.11 201.22 M 166.07 247.97 C 176.17 236.51 188.44 223.01 196.25 213.26 M 166.07 247.97 C 177.75 234.06 189.46 221.12 196.25 213.26 M 170.79 254.73 C 177.93 246.54 183.87 238.8 196.38 225.3 M 170.79 254.73 C 177.88 247.53 183.91 239.66 196.38 225.3 M 181.42 254.7 C 185.41 250.07 187.63 248.84 195.86 238.09 M 181.42 254.7 C 184.18 251.85 188.08 246.71 195.86 238.09" fill="none" stroke="#c2bee6" stroke-linejoin="round" stroke-linecap="round" stroke-miterlimit="10" pointer-events="all"/><path d="M 166 150.5 C 174.41 150.75 179.38 152.6 194 150.5 M 166 150.5 C 172.23 150.75 179.3 150.51 194 150.5 M 194 150.5 C 194.84 170.76 193.53 193.65 194 250.5 M 194 150.5 C 192.93 183.34 193.64 217.15 194 250.5 M 194 250.5 C 186.42 251.03 175.06 251.33 166 250.5 M 194 250.5 C 181.99 250.06 171.67 251.13 166 250.5 M 166 250.5 C 167.5 221.55 164.64 197.02 166 150.5 M 166 250.5 C 165.29 226.56 165 200.6 166 150.5" fill="none" stroke="#324ab2" stroke-width="2" stroke-linejoin="round" stroke-linecap="round" stroke-miterlimit="10" pointer-events="all"/><path d="M 207.95 150.56 C 207.95 150.56 207.95 150.56 207.95 150.56 M 207.95 150.56 C 207.95 150.56 207.95 150.56 207.95 150.56 M 208.08 162.6 C 210.28 160.07 214.68 153.94 218.58 150.52 M 208.08 162.6 C 210.41 158.76 213.36 155.97 218.58 150.52 M 208.22 174.64 C 215.94 165.87 220.47 160.98 229.21 150.49 M 208.22 174.64 C 212.87 168.79 216.91 163.72 229.21 150.49 M 207.69 187.43 C 215.97 177.16 223.75 171.35 237.87 152.72 M 207.69 187.43 C 216.53 177.57 223.21 168.48 237.87 152.72 M 207.83 199.48 C 220.33 187.31 232.22 172.36 238.01 164.76 M 207.83 199.48 C 215.92 189.89 226.17 179.67 238.01 164.76 M 207.96 211.52 C 213.5 201.73 220.4 196.76 238.14 176.8 M 207.96 211.52 C 218 201.11 226.85 191.4 238.14 176.8 M 208.09 223.56 C 216.31 211.61 225.18 203.81 238.27 188.84 M 208.09 223.56 C 214.51 214.09 223.56 206.33 238.27 188.84 M 208.23 235.6 C 218.77 223.77 228.55 211.16 238.41 200.88 M 208.23 235.6 C 217.26 224.35 226.15 213.44 238.41 200.88 M 207.7 248.39 C 217.8 236.93 230.07 223.43 237.88 213.68 M 207.7 248.39 C 219.39 234.48 231.1 221.54 237.88 213.68 M 213.09 254.4 C 220.06 246.39 225.83 238.83 238.02 225.72 M 213.09 254.4 C 220.01 247.38 225.87 239.7 238.02 225.72 M 223.72 254.36 C 227.7 249.74 229.92 248.51 238.15 237.76 M 223.72 254.36 C 226.48 251.51 230.37 246.37 238.15 237.76" fill="none" stroke="#c2bee6" stroke-linejoin="round" stroke-linecap="round" stroke-miterlimit="10" pointer-events="all"/><path d="M 208 150.5 C 216.41 150.75 221.38 152.6 236 150.5 M 208 150.5 C 214.23 150.75 221.3 150.51 236 150.5 M 236 150.5 C 236.84 170.76 235.53 193.65 236 250.5 M 236 150.5 C 234.93 183.34 235.64 217.15 236 250.5 M 236 250.5 C 228.42 251.03 217.06 251.33 208 250.5 M 236 250.5 C 223.99 250.06 213.67 251.13 208 250.5 M 208 250.5 C 209.5 221.55 206.64 197.02 208 150.5 M 208 250.5 C 207.29 226.56 207 200.6 208 150.5" fill="none" stroke="#324ab2" stroke-width="2" stroke-linejoin="round" stroke-linecap="round" stroke-miterlimit="10" pointer-events="all"/><path d="M 194.2 190.28 C 194.2 190.28 194.2 190.28 194.2 190.28 M 194.2 190.28 C 194.2 190.28 194.2 190.28 194.2 190.28 M 193.67 203.07 C 196.01 200.38 200.69 193.87 204.83 190.24 M 193.67 203.07 C 196.15 199 199.27 196.03 204.83 190.24 M 196.43 212.09 C 202.6 205.11 205.62 201.96 212.18 193.98 M 196.43 212.09 C 200 207.48 202.95 203.66 212.18 193.98" fill="none" stroke="" stroke-linejoin="round" stroke-linecap="round" stroke-miterlimit="10" pointer-events="all"/><path d="M 194 190.5 C 198.49 190.64 200.57 191.94 208 190.5 M 194 190.5 C 197.11 190.64 200.82 190.47 208 190.5 M 208 190.5 C 208.67 193.18 207.36 198.49 208 210.5 M 208 190.5 C 207.58 196.29 208.29 203.06 208 210.5 M 208 210.5 C 204.47 210.82 198.31 211.03 194 210.5 M 208 210.5 C 201.82 210.22 196.83 210.97 194 210.5 M 194 210.5 C 195.12 203.63 192.26 201.16 194 190.5 M 194 210.5 C 193.89 206.4 193.6 200.29 194 190.5" fill="none" stroke="#324ab2" stroke-width="2" stroke-linejoin="round" stroke-linecap="round" stroke-miterlimit="10" pointer-events="all"/><path d="M 201 155.5 M 201 155.5 C 201.78 178.06 199.76 202.4 201 245.5 M 201 155.5 C 201.2 175.62 202.03 195.43 201 245.5" fill="none" stroke="#324ab2" stroke-width="2" stroke-linejoin="round" stroke-linecap="round" stroke-miterlimit="10" pointer-events="all"/><path d="M 176.56 179.12 L 181.71 182.16 L 183.76 245.32 L 176.78 245.02" fill="#ffffff" stroke="none" pointer-events="all"/><path d="M 218.56 179.12 L 223.71 182.16 L 225.76 245.32 L 218.78 245.02" fill="#ffffff" stroke="none" pointer-events="all"/><path d="M 201.56 192.12 L 205.71 195.16 L 207.76 198.32 L 201.78 198.02" fill="#ffffff" stroke="none" pointer-events="all"/><path d="M 197.88 203.62 C 198.05 203.9 197.9 204.18 198.05 204.36 C 198.21 204.53 198.73 204.47 198.82 204.69 C 198.91 204.91 198.73 205.44 198.59 205.68 C 198.45 205.93 198.45 206.07 198 206.15 C 197.56 206.24 196.2 206.61 195.92 206.21 C 195.63 205.81 196.27 204.16 196.29 203.74 C 196.31 203.33 195.74 203.95 196.05 203.73 C 196.35 203.51 197.82 202.58 198.13 202.42 C 198.43 202.26 197.76 202.58 197.86 202.76 C 197.96 202.93 198.72 203.21 198.71 203.47 M 198.38 201.76 C 198.85 201.8 198.48 203.23 198.64 203.51 C 198.81 203.79 199.41 203.33 199.37 203.44 C 199.33 203.55 198.83 203.79 198.39 204.17 C 197.95 204.56 197.11 205.46 196.73 205.77 C 196.35 206.08 196.43 206.13 196.11 206.05 C 195.8 205.97 194.66 205.75 194.85 205.31 C 195.04 204.86 196.79 203.58 197.26 203.36 C 197.73 203.15 197.36 204.08 197.66 204.02 C 197.96 203.95 199.23 203.02 199.05 202.97 C 198.87 202.92 196.55 203.48 196.59 203.71" fill="#ffffff" stroke="none" pointer-events="all"/><path d="M 204.88 203.62 C 205.05 203.9 204.9 204.18 205.05 204.36 C 205.21 204.53 205.73 204.47 205.82 204.69 C 205.91 204.91 205.73 205.44 205.59 205.68 C 205.45 205.93 205.45 206.07 205 206.15 C 204.56 206.24 203.2 206.61 202.92 206.21 C 202.63 205.81 203.27 204.16 203.29 203.74 C 203.31 203.33 202.74 203.95 203.05 203.73 C 203.35 203.51 204.82 202.58 205.13 202.42 C 205.43 202.26 204.76 202.58 204.86 202.76 C 204.96 202.93 205.72 203.21 205.71 203.47 M 205.38 201.76 C 205.85 201.8 205.48 203.23 205.64 203.51 C 205.81 203.79 206.41 203.33 206.37 203.44 C 206.33 203.55 205.83 203.79 205.39 204.17 C 204.95 204.56 204.11 205.46 203.73 205.77 C 203.35 206.08 203.43 206.13 203.11 206.05 C 202.8 205.97 201.66 205.75 201.85 205.31 C 202.04 204.86 203.79 203.58 204.26 203.36 C 204.73 203.15 204.36 204.08 204.66 204.02 C 204.96 203.95 206.23 203.02 206.05 202.97 C 205.87 202.92 203.55 203.48 203.59 203.71" fill="#ffffff" stroke="none" pointer-events="all"/><rect x="1" y="165.5" width="80" height="45" fill="none" stroke="none" pointer-events="all"/><rect x="31" y="210.5" width="20" height="10" fill="none" stroke="none" pointer-events="all"/><path d="M 16 219.5 L 66 219.5 L 76 230.5 L 6 230.5 Z M 30 228 L 48 228 M 17 225 L 56 225 M 19 222 L 55 222 M 58 222 L 65 222 M 60 225 L 67 225 M 62 228 L 69 228" fill="none" stroke="none" pointer-events="all"/><rect x="4" y="168.5" width="73" height="39" fill="none" stroke="none" pointer-events="all"/><path d="M 1.03 165.46 C 1.03 165.46 1.03 165.46 1.03 165.46 M 1.03 165.46 C 1.03 165.46 1.03 165.46 1.03 165.46 M 1.17 177.5 C 5.62 173.93 10.5 167.92 11.66 165.43 M 1.17 177.5 C 4.22 173.69 7.3 170.58 11.66 165.43 M 1.3 189.54 C 8.58 181.47 13.06 174.63 22.29 165.39 M 1.3 189.54 C 9.98 179.79 17.28 169.84 22.29 165.39 M 0.78 202.34 C 6.24 193.22 15.15 186.79 32.92 165.36 M 0.78 202.34 C 13.38 187.1 26.51 173.48 32.92 165.36 M 2.88 212.12 C 17.24 192.94 34.12 175.05 43.55 165.32 M 2.88 212.12 C 14.86 199 27.09 183.08 43.55 165.32 M 13.51 212.08 C 26.41 199.54 38 185.7 54.18 165.29 M 13.51 212.08 C 23.13 200.52 35.33 186.46 54.18 165.29 M 24.14 212.05 C 39.91 196.42 52.42 177 64.81 165.26 M 24.14 212.05 C 37.23 196.38 52.64 179.26 64.81 165.26 M 34.77 212.01 C 48.28 194.46 63.46 179.58 75.44 165.22 M 34.77 212.01 C 50.27 194.8 64.63 178.14 75.44 165.22 M 45.4 211.98 C 56.01 197.51 69.54 186.27 83.45 168.21 M 45.4 211.98 C 59.02 196.44 71.86 181.15 83.45 168.21 M 56.03 211.94 C 65 203.55 70.1 197.23 83.58 180.25 M 56.03 211.94 C 67.61 199.13 77.34 188.09 83.58 180.25 M 66.66 211.91 C 72.54 204.77 77.16 198.05 83.72 192.29 M 66.66 211.91 C 73.95 204.46 80.18 197.49 83.72 192.29 M 77.29 211.88 C 78.66 209.76 81.09 206.35 83.85 204.33 M 77.29 211.88 C 79.92 208.71 82 205.9 83.85 204.33" fill="none" stroke="#c2bee6" stroke-linejoin="round" stroke-linecap="round" stroke-miterlimit="10" pointer-events="all"/><path d="M 1 165.5 C 21.27 166.92 41.35 165.16 81 165.5 M 1 165.5 C 17.84 165.79 33.88 164.35 81 165.5 M 81 165.5 C 81.45 181.26 79.07 202.51 81 210.5 M 81 165.5 C 81.33 183.18 79.78 200.11 81 210.5 M 81 210.5 C 59.2 212.33 38.54 209.61 1 210.5 M 81 210.5 C 57.64 211.22 33.16 209.8 1 210.5 M 1 210.5 C 1.84 191.97 2.65 178.11 1 165.5 M 1 210.5 C 0.65 192.4 0.03 176.58 1 165.5" fill="none" stroke="#324ab2" stroke-width="2" stroke-linejoin="round" stroke-linecap="round" stroke-miterlimit="10" pointer-events="all"/><path d="M 31.22 210.25 C 31.22 210.25 31.22 210.25 31.22 210.25 M 31.22 210.25 C 31.22 210.25 31.22 210.25 31.22 210.25 M 32.01 221.54 C 36.19 218.19 40.75 212.55 41.85 210.22 M 32.01 221.54 C 34.86 217.96 37.76 215.04 41.85 210.22 M 42.64 221.5 C 46.09 217.75 47.6 214.83 51.82 210.94 M 42.64 221.5 C 46.56 217.22 49.47 212.78 51.82 210.94" fill="none" stroke="#c2bee6" stroke-linejoin="round" stroke-linecap="round" stroke-miterlimit="10" pointer-events="all"/><path d="M 31 210.5 C 36.27 211.81 41.35 210.05 51 210.5 M 31 210.5 C 35.44 211.14 39.07 209.69 51 210.5 M 51 210.5 C 51.22 213.47 50.03 219.19 51 220.5 M 51 210.5 C 51.28 214.41 50.51 217.95 51 220.5 M 51 220.5 C 45.49 221.82 41.12 219.1 31 220.5 M 51 220.5 C 45.5 221.26 38.88 219.85 31 220.5 M 31 220.5 C 31.33 215.88 31.73 213.58 31 210.5 M 31 220.5 C 30.9 216.22 30.59 213.08 31 210.5" fill="none" stroke="#324ab2" stroke-width="2" stroke-linejoin="round" stroke-linecap="round" stroke-miterlimit="10" pointer-events="all"/><path d="M 5.89 230.63 C 5.89 230.63 5.89 230.63 5.89 230.63 M 5.89 230.63 C 5.89 230.63 5.89 230.63 5.89 230.63 M 16.52 230.6 C 18.75 227.49 19.86 226.55 21.76 224.56 M 16.52 230.6 C 18.95 228.18 20.4 225.48 21.76 224.56 M 27.15 230.56 C 28.57 229.34 30.42 226.61 32.39 224.53 M 27.15 230.56 C 28.91 229.08 30.2 226.72 32.39 224.53 M 37.78 230.53 C 39.97 227.6 42.24 226.49 43.02 224.49 M 37.78 230.53 C 39.71 227.88 41.47 226.12 43.02 224.49 M 48.41 230.49 C 49.76 229.45 51.41 227.56 53.65 224.46 M 48.41 230.49 C 49.65 228.87 51.35 227.49 53.65 224.46 M 59.04 230.46 C 62.66 227.56 66.62 222.67 67.56 220.65 M 59.04 230.46 C 61.51 227.36 64.02 224.83 67.56 220.65 M 69.67 230.43 C 70.9 229.09 71.44 228.04 72.95 226.65 M 69.67 230.43 C 71.07 228.9 72.11 227.31 72.95 226.65" fill="none" stroke="#c2bee6" stroke-linejoin="round" stroke-linecap="round" stroke-miterlimit="10" pointer-events="all"/><path d="M 30.13 227.85 C 30.13 227.85 30.13 227.85 30.13 227.85 M 30.13 227.85 C 30.13 227.85 30.13 227.85 30.13 227.85 M 40.76 227.82 C 40.76 227.82 40.76 227.82 40.76 227.82 M 40.76 227.82 C 40.76 227.82 40.76 227.82 40.76 227.82" fill="none" stroke="#c2bee6" stroke-linejoin="round" stroke-linecap="round" stroke-miterlimit="10" pointer-events="all"/><path d="M 17.3 224.65 C 17.3 224.65 17.3 224.65 17.3 224.65 M 17.3 224.65 C 17.3 224.65 17.3 224.65 17.3 224.65 M 27.27 225.37 C 27.27 225.37 27.27 225.37 27.27 225.37 M 27.27 225.37 C 27.27 225.37 27.27 225.37 27.27 225.37 M 37.9 225.34 C 37.9 225.34 37.9 225.34 37.9 225.34 M 37.9 225.34 C 37.9 225.34 37.9 225.34 37.9 225.34 M 48.53 225.31 C 48.53 225.31 48.53 225.31 48.53 225.31 M 48.53 225.31 C 48.53 225.31 48.53 225.31 48.53 225.31" fill="none" stroke="#c2bee6" stroke-linejoin="round" stroke-linecap="round" stroke-miterlimit="10" pointer-events="all"/><path d="M 18.92 222.09 C 18.92 222.09 18.92 222.09 18.92 222.09 M 18.92 222.09 C 18.92 222.09 18.92 222.09 18.92 222.09 M 29.55 222.06 C 29.55 222.06 29.55 222.06 29.55 222.06 M 29.55 222.06 C 29.55 222.06 29.55 222.06 29.55 222.06 M 40.18 222.02 C 40.18 222.02 40.18 222.02 40.18 222.02 M 40.18 222.02 C 40.18 222.02 40.18 222.02 40.18 222.02 M 50.81 221.99 C 50.81 221.99 50.81 221.99 50.81 221.99 M 50.81 221.99 C 50.81 221.99 50.81 221.99 50.81 221.99" fill="none" stroke="#c2bee6" stroke-linejoin="round" stroke-linecap="round" stroke-miterlimit="10" pointer-events="all"/><path d="M 58.19 221.78 C 58.19 221.78 58.19 221.78 58.19 221.78 M 58.19 221.78 C 58.19 221.78 58.19 221.78 58.19 221.78" fill="none" stroke="#c2bee6" stroke-linejoin="round" stroke-linecap="round" stroke-miterlimit="10" pointer-events="all"/><path d="M 60.16 224.81 C 60.16 224.81 60.16 224.81 60.16 224.81 M 60.16 224.81 C 60.16 224.81 60.16 224.81 60.16 224.81" fill="none" stroke="#c2bee6" stroke-linejoin="round" stroke-linecap="round" stroke-miterlimit="10" pointer-events="all"/><path d="M 62.13 227.85 C 62.13 227.85 62.13 227.85 62.13 227.85 M 62.13 227.85 C 62.13 227.85 62.13 227.85 62.13 227.85" fill="none" stroke="#c2bee6" stroke-linejoin="round" stroke-linecap="round" stroke-miterlimit="10" pointer-events="all"/><path d="M 16 219.5 M 16 219.5 C 32.96 221.43 47.43 217.93 66 219.5 M 16 219.5 C 33.81 218.8 50.63 219.65 66 219.5 M 66 219.5 C 70.06 222.83 74.39 226.89 76 230.5 M 66 219.5 C 70.11 224.31 73.54 228.29 76 230.5 M 76 230.5 C 60.78 229.47 44.24 230.58 6 230.5 M 76 230.5 C 51.35 230.03 26.42 230.44 6 230.5 M 6 230.5 C 9.45 228.4 11.45 224.68 16 219.5 M 6 230.5 C 9.78 226.01 12.7 223.07 16 219.5 M 30 228 M 30 228 C 37.13 228.41 43.58 226.63 48 228 M 30 228 C 35.65 228.43 40.68 228.16 48 228 M 17 225 M 17 225 C 27.65 224.51 35.72 223.28 56 225 M 17 225 C 28.28 224.35 39.33 224.38 56 225 M 19 222 M 19 222 C 27.81 223.36 38.47 222.75 55 222 M 19 222 C 32.13 221.39 46.46 222.64 55 222 M 58 222 M 58 222 C 60.17 221.87 63.25 221.83 65 222 M 58 222 C 59.81 222.11 61.88 222 65 222 M 60 225 M 60 225 C 62.72 225.18 64.93 225.32 67 225 M 60 225 C 61.93 224.65 63.49 224.69 67 225 M 62 228 M 62 228 C 63 227.56 65.38 228.73 69 228 M 62 228 C 63.88 228.34 65.24 227.85 69 228" fill="none" stroke="#324ab2" stroke-width="2" stroke-linejoin="round" stroke-linecap="round" stroke-miterlimit="10" pointer-events="all"/><path d="M 4.13 168.15 L 75.2 167.83 L 78.89 206.93 L 5.8 206.68" fill="#ffffff" stroke="none" pointer-events="all"/><g fill="#324AB2" font-family="Ink Free" font-weight="bold" text-anchor="middle" font-size="17px"><text x="40.5" y="267.5">Terminal 5</text></g><rect x="41" y="330.5" width="80" height="45" fill="none" stroke="none" pointer-events="all"/><rect x="71" y="375.5" width="20" height="10" fill="none" stroke="none" pointer-events="all"/><path d="M 56 384.5 L 106 384.5 L 116 395.5 L 46 395.5 Z M 70 393 L 88 393 M 57 390 L 96 390 M 59 387 L 95 387 M 98 387 L 105 387 M 100 390 L 107 390 M 102 393 L 109 393" fill="none" stroke="none" pointer-events="all"/><rect x="44" y="333.5" width="73" height="39" fill="none" stroke="none" pointer-events="all"/><path d="M 41.22 330.25 C 41.22 330.25 41.22 330.25 41.22 330.25 M 41.22 330.25 C 41.22 330.25 41.22 330.25 41.22 330.25 M 40.7 343.04 C 42.11 339.14 46.91 336.44 51.85 330.21 M 40.7 343.04 C 42.92 339.41 46.65 336.87 51.85 330.21 M 40.83 355.08 C 49.84 345.49 57.54 335.25 62.48 330.18 M 40.83 355.08 C 49.24 345 57.38 336.34 62.48 330.18 M 40.96 367.13 C 45.98 359 56.93 351.84 73.11 330.14 M 40.96 367.13 C 52.04 353.5 63.92 340.13 73.11 330.14 M 43.06 376.9 C 50.17 366.75 61.93 354.64 83.08 330.86 M 43.06 376.9 C 52.05 366.55 60.21 356.76 83.08 330.86 M 53.69 376.87 C 61.25 365.5 70.03 357.86 93.71 330.83 M 53.69 376.87 C 65.06 363.89 77.28 350.28 93.71 330.83 M 64.32 376.83 C 77.94 359.17 93.51 342.08 104.34 330.8 M 64.32 376.83 C 79.07 360.19 92.42 344.32 104.34 330.8 M 74.95 376.8 C 86.6 360.11 102.72 344.97 114.97 330.76 M 74.95 376.8 C 90.25 361.18 102.75 343.22 114.97 330.76 M 85.58 376.76 C 98.99 359.3 114.37 346.51 123.64 332.99 M 85.58 376.76 C 95.36 365.8 104.46 356.32 123.64 332.99 M 95.56 377.48 C 106.44 366.95 114.8 354.35 123.77 345.03 M 95.56 377.48 C 100.71 370.28 107.97 363.8 123.77 345.03 M 106.19 377.45 C 112.17 371.72 118.51 364.33 123.9 357.07 M 106.19 377.45 C 109.71 372.93 114.97 367.3 123.9 357.07 M 116.82 377.42 C 118.22 374.56 120.21 374.65 124.04 369.11 M 116.82 377.42 C 118.78 374.69 121.22 373.03 124.04 369.11" fill="none" stroke="#c2bee6" stroke-linejoin="round" stroke-linecap="round" stroke-miterlimit="10" pointer-events="all"/><path d="M 41 330.5 C 60.13 331.52 79.03 329.96 121 330.5 M 41 330.5 C 62.8 332.12 86.17 331.9 121 330.5 M 121 330.5 C 120.74 341.01 121.23 349.51 121 375.5 M 121 330.5 C 120.63 346.84 119.98 364.43 121 375.5 M 121 375.5 C 101.67 373.01 82.06 375.79 41 375.5 M 121 375.5 C 93.61 376.52 66.88 375.99 41 375.5 M 41 375.5 C 39.75 359.62 41.09 346.23 41 330.5 M 41 375.5 C 41.78 361.5 41.32 345.7 41 330.5" fill="none" stroke="#324ab2" stroke-width="2" stroke-linejoin="round" stroke-linecap="round" stroke-miterlimit="10" pointer-events="all"/><path d="M 70.75 375.79 C 70.75 375.79 70.75 375.79 70.75 375.79 M 70.75 375.79 C 70.75 375.79 70.75 375.79 70.75 375.79 M 72.19 386.32 C 73.36 383.11 77.31 380.88 81.38 375.76 M 72.19 386.32 C 74.02 383.33 77.09 381.24 81.38 375.76 M 82.82 386.29 C 86.92 382.1 90.11 377.46 92.01 375.72 M 82.82 386.29 C 86.37 381.93 89.75 378.54 92.01 375.72" fill="none" stroke="#c2bee6" stroke-linejoin="round" stroke-linecap="round" stroke-miterlimit="10" pointer-events="all"/><path d="M 71 375.5 C 75.13 375.94 79.03 374.37 91 375.5 M 71 375.5 C 76.07 376.63 82.72 376.41 91 375.5 M 91 375.5 C 90.96 377.91 91.2 379.31 91 385.5 M 91 375.5 C 90.92 379.05 90.59 383.23 91 385.5 M 91 385.5 C 85.65 383.58 80.03 386.36 71 385.5 M 91 385.5 C 83.92 386.44 77.51 385.92 71 385.5 M 71 385.5 C 70.46 381.46 71.12 378.66 71 375.5 M 71 385.5 C 71.33 382.66 71.1 378.93 71 375.5" fill="none" stroke="#324ab2" stroke-width="2" stroke-linejoin="round" stroke-linecap="round" stroke-miterlimit="10" pointer-events="all"/><path d="M 46.07 395.42 C 46.07 395.42 46.07 395.42 46.07 395.42 M 46.07 395.42 C 46.07 395.42 46.07 395.42 46.07 395.42 M 56.7 395.38 C 57.96 394.06 59.35 391.99 61.95 389.34 M 56.7 395.38 C 58.69 393 60.36 391.15 61.95 389.34 M 67.33 395.35 C 68.32 393.3 69.16 393.01 72.58 389.31 M 67.33 395.35 C 68.93 393.67 70.85 391.41 72.58 389.31 M 77.96 395.31 C 79.17 392.73 81.35 391.1 83.21 389.28 M 77.96 395.31 C 79.97 393.72 81.53 391.38 83.21 389.28 M 88.59 395.28 C 90.96 392.9 93.34 391.26 93.84 389.24 M 88.59 395.28 C 90.7 393 92.16 391.38 93.84 389.24 M 99.22 395.24 C 100.3 392.26 103.98 390.19 107.75 385.43 M 99.22 395.24 C 100.92 392.47 103.77 390.53 107.75 385.43 M 109.85 395.21 C 111.32 393.71 112.45 392.06 113.13 391.44 M 109.85 395.21 C 111.12 393.65 112.33 392.44 113.13 391.44" fill="none" stroke="#c2bee6" stroke-linejoin="round" stroke-linecap="round" stroke-miterlimit="10" pointer-events="all"/><path d="M 70.31 392.64 C 70.31 392.64 70.31 392.64 70.31 392.64 M 70.31 392.64 C 70.31 392.64 70.31 392.64 70.31 392.64 M 80.29 393.36 C 80.29 393.36 80.29 393.36 80.29 393.36 M 80.29 393.36 C 80.29 393.36 80.29 393.36 80.29 393.36" fill="none" stroke="#c2bee6" stroke-linejoin="round" stroke-linecap="round" stroke-miterlimit="10" pointer-events="all"/><path d="M 56.83 390.19 C 56.83 390.19 56.83 390.19 56.83 390.19 M 56.83 390.19 C 56.83 390.19 56.83 390.19 56.83 390.19 M 67.46 390.16 C 67.46 390.16 67.46 390.16 67.46 390.16 M 67.46 390.16 C 67.46 390.16 67.46 390.16 67.46 390.16 M 78.09 390.13 C 78.09 390.13 78.09 390.13 78.09 390.13 M 78.09 390.13 C 78.09 390.13 78.09 390.13 78.09 390.13 M 88.72 390.09 C 88.72 390.09 88.72 390.09 88.72 390.09 M 88.72 390.09 C 88.72 390.09 88.72 390.09 88.72 390.09" fill="none" stroke="#c2bee6" stroke-linejoin="round" stroke-linecap="round" stroke-miterlimit="10" pointer-events="all"/><path d="M 59.11 386.87 C 59.11 386.87 59.11 386.87 59.11 386.87 M 59.11 386.87 C 59.11 386.87 59.11 386.87 59.11 386.87 M 69.74 386.84 C 69.74 386.84 69.74 386.84 69.74 386.84 M 69.74 386.84 C 69.74 386.84 69.74 386.84 69.74 386.84 M 80.37 386.81 C 80.37 386.81 80.37 386.81 80.37 386.81 M 80.37 386.81 C 80.37 386.81 80.37 386.81 80.37 386.81 M 91 386.77 C 91 386.77 91 386.77 91 386.77 M 91 386.77 C 91 386.77 91 386.77 91 386.77" fill="none" stroke="#c2bee6" stroke-linejoin="round" stroke-linecap="round" stroke-miterlimit="10" pointer-events="all"/><path d="M 97.72 387.32 C 97.72 387.32 97.72 387.32 97.72 387.32 M 97.72 387.32 C 97.72 387.32 97.72 387.32 97.72 387.32" fill="none" stroke="#c2bee6" stroke-linejoin="round" stroke-linecap="round" stroke-miterlimit="10" pointer-events="all"/><path d="M 99.69 390.35 C 99.69 390.35 99.69 390.35 99.69 390.35 M 99.69 390.35 C 99.69 390.35 99.69 390.35 99.69 390.35" fill="none" stroke="#c2bee6" stroke-linejoin="round" stroke-linecap="round" stroke-miterlimit="10" pointer-events="all"/><path d="M 102.32 392.63 C 102.32 392.63 102.32 392.63 102.32 392.63 M 102.32 392.63 C 102.32 392.63 102.32 392.63 102.32 392.63" fill="none" stroke="#c2bee6" stroke-linejoin="round" stroke-linecap="round" stroke-miterlimit="10" pointer-events="all"/><path d="M 56 384.5 M 56 384.5 C 71.38 384.03 87.91 386.21 106 384.5 M 56 384.5 C 76.51 383.32 94.84 383.71 106 384.5 M 106 384.5 C 108.48 388.14 111.93 391.5 116 395.5 M 106 384.5 C 109.39 387.34 111.69 390.37 116 395.5 M 116 395.5 C 94.22 395.19 70.64 394.79 46 395.5 M 116 395.5 C 93.63 394.47 73.92 394.14 46 395.5 M 46 395.5 C 49.66 392.01 53.5 388.07 56 384.5 M 46 395.5 C 48.71 393.32 51.36 389.94 56 384.5 M 70 393 M 70 393 C 75.09 394.2 82.6 392.13 88 393 M 70 393 C 73.61 393.54 76.47 392.7 88 393 M 57 390 M 57 390 C 63.39 390.44 72.89 389.35 96 390 M 57 390 C 69.58 390.35 82.29 389.92 96 390 M 59 387 M 59 387 C 68.98 388.14 77.86 388.43 95 387 M 59 387 C 68.26 387.24 76.65 387.42 95 387 M 98 387 M 98 387 C 99.05 386.35 101.42 386.5 105 387 M 98 387 C 99.89 386.71 102.69 387.33 105 387 M 100 390 M 100 390 C 101.41 389.69 102.99 389.4 107 390 M 100 390 C 102.15 389.91 104.54 390.12 107 390 M 102 393 M 102 393 C 103.95 392.58 105.09 393.16 109 393 M 102 393 C 104.5 392.88 106.65 392.99 109 393" fill="none" stroke="#324ab2" stroke-width="2" stroke-linejoin="round" stroke-linecap="round" stroke-miterlimit="10" pointer-events="all"/><path d="M 45.66 335.38 L 115.31 334.54 L 116.72 374.46 L 45.39 373.67" fill="#ffffff" stroke="none" pointer-events="all"/><g fill="#324AB2" font-family="Ink Free" font-weight="bold" text-anchor="middle" font-size="17px"><text x="80.5" y="432.5">Terminal 4</text></g><rect x="281" y="0.5" width="80" height="45" fill="none" stroke="none" pointer-events="all"/><rect x="311" y="45.5" width="20" height="10" fill="none" stroke="none" pointer-events="all"/><path d="M 296 54.5 L 346 54.5 L 356 65.5 L 286 65.5 Z M 310 63 L 328 63 M 297 60 L 336 60 M 299 57 L 335 57 M 338 57 L 345 57 M 340 60 L 347 60 M 342 63 L 349 63" fill="none" stroke="none" pointer-events="all"/><rect x="284" y="3.5" width="73" height="39" fill="none" stroke="none" pointer-events="all"/><path d="M 280.89 0.63 C 280.89 0.63 280.89 0.63 280.89 0.63 M 280.89 0.63 C 280.89 0.63 280.89 0.63 280.89 0.63 M 281.02 12.67 C 284.52 9.68 287.59 4.99 291.52 0.6 M 281.02 12.67 C 283.51 9.66 285.84 7.98 291.52 0.6 M 281.15 24.71 C 287.21 18.98 289.45 14.73 302.15 0.56 M 281.15 24.71 C 288.3 14.9 296.77 6.11 302.15 0.56 M 281.29 36.75 C 286.46 29.79 295.29 22.07 312.78 0.53 M 281.29 36.75 C 291.36 25 301.76 12.13 312.78 0.53 M 282.73 47.29 C 295.94 35.65 307.02 19.63 323.41 0.49 M 282.73 47.29 C 297.14 32.02 309.66 16.69 323.41 0.49 M 293.36 47.25 C 308 31.36 322.39 12.23 334.04 0.46 M 293.36 47.25 C 305.93 33.23 318.54 17.64 334.04 0.46 M 303.99 47.22 C 319.93 31.77 335.02 12.47 344.67 0.42 M 303.99 47.22 C 317.92 31.08 331.67 13.93 344.67 0.42 M 314.62 47.18 C 327.91 34.88 337.38 18.97 355.3 0.39 M 314.62 47.18 C 329.25 31.44 342.34 15.63 355.3 0.39 M 325.25 47.15 C 334.87 39.3 340.6 29.55 363.96 2.62 M 325.25 47.15 C 336.12 34.55 349.28 19.89 363.96 2.62 M 335.88 47.11 C 342.09 41.84 347.76 33.79 363.44 15.42 M 335.88 47.11 C 341.82 39.51 349.83 31.57 363.44 15.42 M 346.51 47.08 C 352.13 38.93 359.72 31.42 363.57 27.46 M 346.51 47.08 C 351.35 41.93 356.73 34.1 363.57 27.46 M 357.14 47.04 C 359.48 44.33 361.97 42.39 363.7 39.5 M 357.14 47.04 C 359.53 43.6 362.21 40.9 363.7 39.5" fill="none" stroke="#c2bee6" stroke-linejoin="round" stroke-linecap="round" stroke-miterlimit="10" pointer-events="all"/><path d="M 281 0.5 C 302.99 -0.48 320.71 2.16 361 0.5 M 281 0.5 C 309.75 -0.15 336.46 0.84 361 0.5 M 361 0.5 C 360.94 10.77 360.28 23.51 361 45.5 M 361 0.5 C 359.94 15.49 360.18 31.76 361 45.5 M 361 45.5 C 328.14 44.28 297.59 44.56 281 45.5 M 361 45.5 C 331.57 44.82 300.6 45.18 281 45.5 M 281 45.5 C 282.57 32.27 280.44 23.36 281 0.5 M 281 45.5 C 280.01 33.6 281.71 19.82 281 0.5" fill="none" stroke="#324ab2" stroke-width="2" stroke-linejoin="round" stroke-linecap="round" stroke-miterlimit="10" pointer-events="all"/><path d="M 311.07 45.42 C 311.07 45.42 311.07 45.42 311.07 45.42 M 311.07 45.42 C 311.07 45.42 311.07 45.42 311.07 45.42 M 311.86 56.71 C 315.14 53.9 318.02 49.5 321.7 45.39 M 311.86 56.71 C 314.19 53.88 316.38 52.31 321.7 45.39 M 322.49 56.67 C 325.39 54.16 325.63 52.71 331.67 46.11 M 322.49 56.67 C 325.46 52.24 329.29 48.5 331.67 46.11" fill="none" stroke="#c2bee6" stroke-linejoin="round" stroke-linecap="round" stroke-miterlimit="10" pointer-events="all"/><path d="M 311 45.5 C 317.99 44.66 320.71 47.29 331 45.5 M 311 45.5 C 318.71 44.73 324.37 45.72 331 45.5 M 331 45.5 C 330.9 47.35 330.57 50.43 331 55.5 M 331 45.5 C 330.55 48.69 330.67 52.51 331 55.5 M 331 55.5 C 321.81 54.75 314.93 55.03 311 55.5 M 331 55.5 C 324.34 54.62 316.14 54.99 311 55.5 M 311 55.5 C 311.78 52.04 310.72 50.74 311 45.5 M 311 55.5 C 310.56 53.11 311.41 49.77 311 45.5" fill="none" stroke="#324ab2" stroke-width="2" stroke-linejoin="round" stroke-linecap="round" stroke-miterlimit="10" pointer-events="all"/><path d="M 285.74 65.8 C 285.74 65.8 285.74 65.8 285.74 65.8 M 285.74 65.8 C 285.74 65.8 285.74 65.8 285.74 65.8 M 296.37 65.77 C 297.59 63.53 298.71 62.31 301.62 59.73 M 296.37 65.77 C 297.9 63.51 299.81 61.73 301.62 59.73 M 307 65.73 C 308.6 63.15 311.07 60.88 312.25 59.69 M 307 65.73 C 309.35 63.05 311.09 60.9 312.25 59.69 M 317.63 65.7 C 319.58 63.45 320.05 62.91 322.88 59.66 M 317.63 65.7 C 318.78 64.35 320.95 62.25 322.88 59.66 M 328.26 65.66 C 329.12 64.76 331.17 62.97 333.51 59.63 M 328.26 65.66 C 329.27 63.83 331.03 62.38 333.51 59.63 M 338.89 65.63 C 341.73 63.2 344.23 59.39 347.42 55.82 M 338.89 65.63 C 340.91 63.18 342.81 61.82 347.42 55.82 M 349.52 65.59 C 350.56 64.7 350.64 64.18 352.8 61.82 M 349.52 65.59 C 350.58 64.01 351.95 62.67 352.8 61.82" fill="none" stroke="#c2bee6" stroke-linejoin="round" stroke-linecap="round" stroke-miterlimit="10" pointer-events="all"/><path d="M 309.98 63.02 C 309.98 63.02 309.98 63.02 309.98 63.02 M 309.98 63.02 C 309.98 63.02 309.98 63.02 309.98 63.02 M 320.61 62.99 C 320.61 62.99 320.61 62.99 320.61 62.99 M 320.61 62.99 C 320.61 62.99 320.61 62.99 320.61 62.99" fill="none" stroke="#c2bee6" stroke-linejoin="round" stroke-linecap="round" stroke-miterlimit="10" pointer-events="all"/><path d="M 297.15 59.82 C 297.15 59.82 297.15 59.82 297.15 59.82 M 297.15 59.82 C 297.15 59.82 297.15 59.82 297.15 59.82 M 307.78 59.79 C 307.78 59.79 307.78 59.79 307.78 59.79 M 307.78 59.79 C 307.78 59.79 307.78 59.79 307.78 59.79 M 318.41 59.75 C 318.41 59.75 318.41 59.75 318.41 59.75 M 318.41 59.75 C 318.41 59.75 318.41 59.75 318.41 59.75 M 329.04 59.72 C 329.04 59.72 329.04 59.72 329.04 59.72 M 329.04 59.72 C 329.04 59.72 329.04 59.72 329.04 59.72" fill="none" stroke="#c2bee6" stroke-linejoin="round" stroke-linecap="round" stroke-miterlimit="10" pointer-events="all"/><path d="M 298.78 57.26 C 298.78 57.26 298.78 57.26 298.78 57.26 M 298.78 57.26 C 298.78 57.26 298.78 57.26 298.78 57.26 M 309.41 57.22 C 309.41 57.22 309.41 57.22 309.41 57.22 M 309.41 57.22 C 309.41 57.22 309.41 57.22 309.41 57.22 M 320.04 57.19 C 320.04 57.19 320.04 57.19 320.04 57.19 M 320.04 57.19 C 320.04 57.19 320.04 57.19 320.04 57.19 M 330.67 57.15 C 330.67 57.15 330.67 57.15 330.67 57.15 M 330.67 57.15 C 330.67 57.15 330.67 57.15 330.67 57.15" fill="none" stroke="#c2bee6" stroke-linejoin="round" stroke-linecap="round" stroke-miterlimit="10" pointer-events="all"/><path d="M 338.05 56.95 C 338.05 56.95 338.05 56.95 338.05 56.95 M 338.05 56.95 C 338.05 56.95 338.05 56.95 338.05 56.95" fill="none" stroke="#c2bee6" stroke-linejoin="round" stroke-linecap="round" stroke-miterlimit="10" pointer-events="all"/><path d="M 340.02 59.98 C 340.02 59.98 340.02 59.98 340.02 59.98 M 340.02 59.98 C 340.02 59.98 340.02 59.98 340.02 59.98" fill="none" stroke="#c2bee6" stroke-linejoin="round" stroke-linecap="round" stroke-miterlimit="10" pointer-events="all"/><path d="M 341.98 63.02 C 341.98 63.02 341.98 63.02 341.98 63.02 M 341.98 63.02 C 341.98 63.02 341.98 63.02 341.98 63.02" fill="none" stroke="#c2bee6" stroke-linejoin="round" stroke-linecap="round" stroke-miterlimit="10" pointer-events="all"/><path d="M 296 54.5 M 296 54.5 C 309.79 55.62 324.39 55.48 346 54.5 M 296 54.5 C 307.22 53.83 319.05 55.78 346 54.5 M 346 54.5 C 349.65 58.44 352.21 61.11 356 65.5 M 346 54.5 C 349.4 59.05 354.06 63.33 356 65.5 M 356 65.5 C 327.66 65.91 301.04 68 286 65.5 M 356 65.5 C 337.9 65.32 319.41 66.24 286 65.5 M 286 65.5 C 289.65 60.81 292.36 59.63 296 54.5 M 286 65.5 C 289.65 61.74 292.53 58.7 296 54.5 M 310 63 M 310 63 C 316.65 61.4 325.22 62.64 328 63 M 310 63 C 315.16 63.66 321.26 62.24 328 63 M 297 60 M 297 60 C 310.94 60.58 325.66 59.64 336 60 M 297 60 C 312.87 59.35 327.25 60.47 336 60 M 299 57 M 299 57 C 306.15 57.93 313.25 55.11 335 57 M 299 57 C 309.6 56.09 321.24 57.2 335 57 M 338 57 M 338 57 C 339.33 57.38 340.99 57.72 345 57 M 338 57 C 340.68 57.01 343.5 56.96 345 57 M 340 60 M 340 60 C 341.49 60.73 343.85 60.01 347 60 M 340 60 C 342.37 60.16 344.88 59.84 347 60 M 342 63 M 342 63 C 343.51 62.61 346.2 62.58 349 63 M 342 63 C 344.41 63.26 347.37 63.27 349 63" fill="none" stroke="#324ab2" stroke-width="2" stroke-linejoin="round" stroke-linecap="round" stroke-miterlimit="10" pointer-events="all"/><path d="M 283.18 3.61 L 355.42 2.26 L 358.54 42.99 L 284.98 41.65" fill="#ffffff" stroke="none" pointer-events="all"/><g fill="#324AB2" font-family="Ink Free" font-weight="bold" text-anchor="middle" font-size="17px"><text x="320.5" y="102.5">Terminal 1</text></g><rect x="321" y="165.5" width="80" height="45" fill="none" stroke="none" pointer-events="all"/><rect x="351" y="210.5" width="20" height="10" fill="none" stroke="none" pointer-events="all"/><path d="M 336 219.5 L 386 219.5 L 396 230.5 L 326 230.5 Z M 350 228 L 368 228 M 337 225 L 376 225 M 339 222 L 375 222 M 378 222 L 385 222 M 380 225 L 387 225 M 382 228 L 389 228" fill="none" stroke="none" pointer-events="all"/><rect x="324" y="168.5" width="73" height="39" fill="none" stroke="none" pointer-events="all"/><path d="M 321.07 165.42 C 321.07 165.42 321.07 165.42 321.07 165.42 M 321.07 165.42 C 321.07 165.42 321.07 165.42 321.07 165.42 M 321.21 177.46 C 324.77 174.36 327.5 169.94 331.7 165.38 M 321.21 177.46 C 324.83 172.64 328.09 169.26 331.7 165.38 M 320.68 190.25 C 328.43 182.61 333.86 175 342.33 165.35 M 320.68 190.25 C 329.55 180.12 336.85 172.63 342.33 165.35 M 320.82 202.29 C 326.44 192.15 333.44 187.53 352.96 165.31 M 320.82 202.29 C 329.6 191.9 340.94 181.04 352.96 165.31 M 322.92 212.07 C 338.09 195.93 352.33 180.16 363.59 165.28 M 322.92 212.07 C 331.54 201.42 342.13 190.05 363.59 165.28 M 333.55 212.04 C 346.99 196.34 358.71 183.24 374.22 165.24 M 333.55 212.04 C 347.12 196.38 361.94 181.03 374.22 165.24 M 344.18 212 C 358.2 195.06 372.58 177.81 384.85 165.21 M 344.18 212 C 357.99 194.63 373.91 178.46 384.85 165.21 M 354.81 211.97 C 365.52 201.1 372.14 188.68 395.48 165.18 M 354.81 211.97 C 367.47 195.55 382.93 180.17 395.48 165.18 M 365.44 211.93 C 373.72 201.25 385.15 190.1 403.49 168.16 M 365.44 211.93 C 379 195.39 393.82 178.01 403.49 168.16 M 376.07 211.9 C 383.97 204.73 392.67 194.65 403.62 180.2 M 376.07 211.9 C 382.94 203.18 391.85 193.62 403.62 180.2 M 386.7 211.86 C 389.16 209.31 394.82 205.32 403.76 192.24 M 386.7 211.86 C 393.01 203.91 398.67 197.68 403.76 192.24 M 397.33 211.83 C 399.58 210.51 399.44 208.05 403.89 204.28 M 397.33 211.83 C 398.87 210.07 400.69 207.67 403.89 204.28" fill="none" stroke="#c2bee6" stroke-linejoin="round" stroke-linecap="round" stroke-miterlimit="10" pointer-events="all"/><path d="M 321 165.5 C 341.85 164.12 362.39 166.96 401 165.5 M 321 165.5 C 338.71 164.59 356.75 164.79 401 165.5 M 401 165.5 C 400.24 179.52 402.44 192.51 401 210.5 M 401 165.5 C 401.25 179.15 400.39 194.08 401 210.5 M 401 210.5 C 370.61 210.56 345.11 208.33 321 210.5 M 401 210.5 C 383.54 210.12 366.32 211.37 321 210.5 M 321 210.5 C 321.38 190.92 319.78 173.48 321 165.5 M 321 210.5 C 321.13 200.7 321 188.94 321 165.5" fill="none" stroke="#324ab2" stroke-width="2" stroke-linejoin="round" stroke-linecap="round" stroke-miterlimit="10" pointer-events="all"/><path d="M 351.26 210.21 C 351.26 210.21 351.26 210.21 351.26 210.21 M 351.26 210.21 C 351.26 210.21 351.26 210.21 351.26 210.21 M 352.05 221.49 C 355.39 218.59 357.95 214.44 361.89 210.17 M 352.05 221.49 C 355.45 216.97 358.5 213.81 361.89 210.17 M 362.68 221.46 C 366.22 218.32 368.14 215.15 371.86 210.89 M 362.68 221.46 C 366.67 216.95 369.57 214.25 371.86 210.89" fill="none" stroke="#c2bee6" stroke-linejoin="round" stroke-linecap="round" stroke-miterlimit="10" pointer-events="all"/><path d="M 351 210.5 C 356.85 208.78 362.39 211.62 371 210.5 M 351 210.5 C 355.35 209.82 360.03 210.03 371 210.5 M 371 210.5 C 370.64 213.78 371.74 216.55 371 220.5 M 371 210.5 C 371.18 213.32 370.75 216.79 371 220.5 M 371 220.5 C 361.97 220.92 357.84 218.69 351 220.5 M 371 220.5 C 366.77 219.8 362.77 221.05 351 220.5 M 351 220.5 C 351.11 215.62 350.31 211.82 351 210.5 M 351 220.5 C 350.98 218.55 350.92 215.62 351 210.5" fill="none" stroke="#324ab2" stroke-width="2" stroke-linejoin="round" stroke-linecap="round" stroke-miterlimit="10" pointer-events="all"/><path d="M 325.93 230.59 C 325.93 230.59 325.93 230.59 325.93 230.59 M 325.93 230.59 C 325.93 230.59 325.93 230.59 325.93 230.59 M 336.56 230.55 C 337.86 229 340.3 227.04 341.8 224.51 M 336.56 230.55 C 338.44 228.33 339.78 226.61 341.8 224.51 M 347.19 230.52 C 348.34 228.61 351.41 225.57 352.43 224.48 M 347.19 230.52 C 348.44 228.84 349.76 228.01 352.43 224.48 M 357.82 230.48 C 359.95 227.37 361.37 225.1 363.06 224.44 M 357.82 230.48 C 359.03 229.39 360.21 227.51 363.06 224.44 M 368.45 230.45 C 370.44 228.21 371.62 226.67 373.69 224.41 M 368.45 230.45 C 370.33 227.95 371.83 226.28 373.69 224.41 M 379.08 230.41 C 381.98 227.9 384.19 224.31 387.6 220.6 M 379.08 230.41 C 382.02 226.5 384.67 223.76 387.6 220.6 M 389.71 230.38 C 390.97 229.26 391.66 228.13 392.99 226.61 M 389.71 230.38 C 391.13 228.77 392.17 227.81 392.99 226.61" fill="none" stroke="#c2bee6" stroke-linejoin="round" stroke-linecap="round" stroke-miterlimit="10" pointer-events="all"/><path d="M 350.17 227.81 C 350.17 227.81 350.17 227.81 350.17 227.81 M 350.17 227.81 C 350.17 227.81 350.17 227.81 350.17 227.81 M 360.8 227.77 C 360.8 227.77 360.8 227.77 360.8 227.77 M 360.8 227.77 C 360.8 227.77 360.8 227.77 360.8 227.77" fill="none" stroke="#c2bee6" stroke-linejoin="round" stroke-linecap="round" stroke-miterlimit="10" pointer-events="all"/><path d="M 336.68 225.36 C 336.68 225.36 336.68 225.36 336.68 225.36 M 336.68 225.36 C 336.68 225.36 336.68 225.36 336.68 225.36 M 347.31 225.33 C 347.31 225.33 347.31 225.33 347.31 225.33 M 347.31 225.33 C 347.31 225.33 347.31 225.33 347.31 225.33 M 357.94 225.29 C 357.94 225.29 357.94 225.29 357.94 225.29 M 357.94 225.29 C 357.94 225.29 357.94 225.29 357.94 225.29 M 368.57 225.26 C 368.57 225.26 368.57 225.26 368.57 225.26 M 368.57 225.26 C 368.57 225.26 368.57 225.26 368.57 225.26" fill="none" stroke="#c2bee6" stroke-linejoin="round" stroke-linecap="round" stroke-miterlimit="10" pointer-events="all"/><path d="M 338.96 222.04 C 338.96 222.04 338.96 222.04 338.96 222.04 M 338.96 222.04 C 338.96 222.04 338.96 222.04 338.96 222.04 M 349.59 222.01 C 349.59 222.01 349.59 222.01 349.59 222.01 M 349.59 222.01 C 349.59 222.01 349.59 222.01 349.59 222.01 M 360.22 221.97 C 360.22 221.97 360.22 221.97 360.22 221.97 M 360.22 221.97 C 360.22 221.97 360.22 221.97 360.22 221.97 M 370.85 221.94 C 370.85 221.94 370.85 221.94 370.85 221.94 M 370.85 221.94 C 370.85 221.94 370.85 221.94 370.85 221.94" fill="none" stroke="#c2bee6" stroke-linejoin="round" stroke-linecap="round" stroke-miterlimit="10" pointer-events="all"/><path d="M 378.23 221.73 C 378.23 221.73 378.23 221.73 378.23 221.73 M 378.23 221.73 C 378.23 221.73 378.23 221.73 378.23 221.73" fill="none" stroke="#c2bee6" stroke-linejoin="round" stroke-linecap="round" stroke-miterlimit="10" pointer-events="all"/><path d="M 380.2 224.77 C 380.2 224.77 380.2 224.77 380.2 224.77 M 380.2 224.77 C 380.2 224.77 380.2 224.77 380.2 224.77" fill="none" stroke="#c2bee6" stroke-linejoin="round" stroke-linecap="round" stroke-miterlimit="10" pointer-events="all"/><path d="M 382.17 227.8 C 382.17 227.8 382.17 227.8 382.17 227.8 M 382.17 227.8 C 382.17 227.8 382.17 227.8 382.17 227.8" fill="none" stroke="#c2bee6" stroke-linejoin="round" stroke-linecap="round" stroke-miterlimit="10" pointer-events="all"/><path d="M 336 219.5 M 336 219.5 C 348.2 217.22 360.87 218.75 386 219.5 M 336 219.5 C 349.93 220.35 363.26 219.85 386 219.5 M 386 219.5 C 387.85 220.77 389.52 225.72 396 230.5 M 386 219.5 C 388.68 222.08 392.2 225.41 396 230.5 M 396 230.5 C 379.1 230.23 359.45 230.82 326 230.5 M 396 230.5 C 380.18 229.76 366.9 229.94 326 230.5 M 326 230.5 C 329.85 227.39 331.44 223.01 336 219.5 M 326 230.5 C 328.58 227.36 331.19 225.37 336 219.5 M 350 228 M 350 228 C 354.61 227.19 357.03 228.15 368 228 M 350 228 C 354.92 228.42 358.84 228.23 368 228 M 337 225 M 337 225 C 350.68 226.5 362.83 225.71 376 225 M 337 225 C 346.36 225.35 354.61 226.01 376 225 M 339 222 M 339 222 C 350.52 222.71 367.05 220.79 375 222 M 339 222 C 352.93 221.95 365.83 221.98 375 222 M 378 222 M 378 222 C 379.6 221.87 381.97 222.39 385 222 M 378 222 C 379.36 222.32 381.51 222.29 385 222 M 380 225 M 380 225 C 382.97 225.24 384.7 225.49 387 225 M 380 225 C 381.19 224.85 383.12 224.71 387 225 M 382 228 M 382 228 C 384.46 227.77 387.31 228.55 389 228 M 382 228 C 383.63 227.8 385.98 227.71 389 228" fill="none" stroke="#324ab2" stroke-width="2" stroke-linejoin="round" stroke-linecap="round" stroke-miterlimit="10" pointer-events="all"/><path d="M 324.71 166.84 L 395.54 168.97 L 396.37 206.51 L 324.57 208.64" fill="#ffffff" stroke="none" pointer-events="all"/><g fill="#324AB2" font-family="Ink Free" font-weight="bold" text-anchor="middle" font-size="17px"><text x="360.5" y="267.5">Terminal 2</text></g><rect x="281" y="329.5" width="80" height="45" fill="none" stroke="none" pointer-events="all"/><rect x="311" y="374.5" width="20" height="10" fill="none" stroke="none" pointer-events="all"/><path d="M 296 383.5 L 346 383.5 L 356 394.5 L 286 394.5 Z M 310 392 L 328 392 M 297 389 L 336 389 M 299 386 L 335 386 M 338 386 L 345 386 M 340 389 L 347 389 M 342 392 L 349 392" fill="none" stroke="none" pointer-events="all"/><rect x="284" y="332.5" width="73" height="39" fill="none" stroke="none" pointer-events="all"/><path d="M 281.08 329.41 C 281.08 329.41 281.08 329.41 281.08 329.41 M 281.08 329.41 C 281.08 329.41 281.08 329.41 281.08 329.41 M 281.22 341.45 C 283.75 335.83 288.24 332.47 291.71 329.37 M 281.22 341.45 C 285.49 337.03 287.57 332.77 291.71 329.37 M 280.69 354.24 C 289.97 345.3 298.42 334.52 302.34 329.34 M 280.69 354.24 C 289.03 344.09 296.91 336.19 302.34 329.34 M 280.83 366.28 C 286.01 357.78 295.04 348.43 312.97 329.3 M 280.83 366.28 C 290.08 355.5 298.17 346.9 312.97 329.3 M 282.93 376.06 C 299.12 359.42 312.53 339.9 323.6 329.27 M 282.93 376.06 C 296.83 358.66 311.63 343.9 323.6 329.27 M 293.56 376.03 C 301.81 365.33 310.85 354.26 334.23 329.23 M 293.56 376.03 C 308.14 358.73 323.16 341.62 334.23 329.23 M 304.19 375.99 C 320.29 360.73 333.97 341.55 344.86 329.2 M 304.19 375.99 C 318.95 359.38 333.04 342.2 344.86 329.2 M 314.82 375.96 C 332.02 356.36 347.92 338.06 355.49 329.16 M 314.82 375.96 C 327.51 360.86 341.33 343.92 355.49 329.16 M 325.45 375.92 C 336.53 362.25 345.81 349.55 363.5 332.15 M 325.45 375.92 C 335.17 364.72 344.24 355.14 363.5 332.15 M 336.08 375.89 C 345.67 363.38 357.41 355.27 363.63 344.19 M 336.08 375.89 C 343.88 364.6 353.69 355.43 363.63 344.19 M 346.71 375.85 C 349.03 370.96 356.18 366.58 363.76 356.23 M 346.71 375.85 C 351.48 371.01 354.01 366.31 363.76 356.23 M 357.34 375.82 C 358.81 372.38 361.35 369.9 363.9 368.27 M 357.34 375.82 C 359.17 374.61 360.14 372.52 363.9 368.27" fill="none" stroke="#c2bee6" stroke-linejoin="round" stroke-linecap="round" stroke-miterlimit="10" pointer-events="all"/><path d="M 281 329.5 C 300.7 330.13 320.07 329.16 361 329.5 M 281 329.5 C 303.67 328.32 329.04 327.74 361 329.5 M 361 329.5 C 359.53 343.27 360.6 360.51 361 374.5 M 361 329.5 C 360.55 341.8 360.59 355.41 361 374.5 M 361 374.5 C 337.08 375.83 308.64 375.1 281 374.5 M 361 374.5 C 339.51 374.42 320.04 374.56 281 374.5 M 281 374.5 C 279.3 357.56 282.23 344.6 281 329.5 M 281 374.5 C 281.36 357.8 281.39 339.07 281 329.5" fill="none" stroke="#324ab2" stroke-width="2" stroke-linejoin="round" stroke-linecap="round" stroke-miterlimit="10" pointer-events="all"/><path d="M 311.27 374.19 C 311.27 374.19 311.27 374.19 311.27 374.19 M 311.27 374.19 C 311.27 374.19 311.27 374.19 311.27 374.19 M 312.06 385.48 C 314.43 380.22 318.64 377.06 321.9 374.16 M 312.06 385.48 C 316.06 381.34 318.01 377.35 321.9 374.16 M 322.69 385.45 C 326.87 381.87 330.48 376.98 331.87 374.88 M 322.69 385.45 C 326.31 380.87 329.67 377.82 331.87 374.88" fill="none" stroke="#c2bee6" stroke-linejoin="round" stroke-linecap="round" stroke-miterlimit="10" pointer-events="all"/><path d="M 311 374.5 C 315.7 375.51 320.07 374.54 331 374.5 M 311 374.5 C 315.98 373.91 323.68 373.34 331 374.5 M 331 374.5 C 330.38 377.22 330.91 381.68 331 384.5 M 331 374.5 C 330.81 376.96 330.83 380.07 331 384.5 M 331 384.5 C 326.13 386.08 316.75 385.36 311 384.5 M 331 384.5 C 325.19 383.98 321.39 384.12 311 384.5 M 311 384.5 C 310.23 380.2 311.7 377.9 311 374.5 M 311 384.5 C 311.21 380.99 311.23 376.47 311 374.5" fill="none" stroke="#324ab2" stroke-width="2" stroke-linejoin="round" stroke-linecap="round" stroke-miterlimit="10" pointer-events="all"/><path d="M 285.94 394.57 C 285.94 394.57 285.94 394.57 285.94 394.57 M 285.94 394.57 C 285.94 394.57 285.94 394.57 285.94 394.57 M 296.57 394.54 C 297.94 392.08 300.12 390.97 301.81 388.5 M 296.57 394.54 C 298 392.35 299.57 390.69 301.81 388.5 M 307.2 394.51 C 309.51 393.28 309.97 391.07 312.44 388.47 M 307.2 394.51 C 308.28 392.63 310.23 391.1 312.44 388.47 M 317.83 394.47 C 318.98 391.7 321.9 390.51 323.07 388.43 M 317.83 394.47 C 320.03 392.42 322.08 389.57 323.07 388.43 M 328.46 394.44 C 328.82 393.67 331.28 391.98 333.7 388.4 M 328.46 394.44 C 329.36 393.19 331.16 391.68 333.7 388.4 M 339.09 394.4 C 341.15 389.84 344.79 387.11 347.61 384.59 M 339.09 394.4 C 342.55 390.81 344.25 387.35 347.61 384.59 M 349.72 394.37 C 351.21 393.09 352.5 391.34 353 390.59 M 349.72 394.37 C 351.01 392.73 352.21 391.64 353 390.59" fill="none" stroke="#c2bee6" stroke-linejoin="round" stroke-linecap="round" stroke-miterlimit="10" pointer-events="all"/><path d="M 310.18 391.8 C 310.18 391.8 310.18 391.8 310.18 391.8 M 310.18 391.8 C 310.18 391.8 310.18 391.8 310.18 391.8 M 320.81 391.76 C 320.81 391.76 320.81 391.76 320.81 391.76 M 320.81 391.76 C 320.81 391.76 320.81 391.76 320.81 391.76" fill="none" stroke="#c2bee6" stroke-linejoin="round" stroke-linecap="round" stroke-miterlimit="10" pointer-events="all"/><path d="M 296.69 389.35 C 296.69 389.35 296.69 389.35 296.69 389.35 M 296.69 389.35 C 296.69 389.35 296.69 389.35 296.69 389.35 M 307.32 389.32 C 307.32 389.32 307.32 389.32 307.32 389.32 M 307.32 389.32 C 307.32 389.32 307.32 389.32 307.32 389.32 M 317.95 389.28 C 317.95 389.28 317.95 389.28 317.95 389.28 M 317.95 389.28 C 317.95 389.28 317.95 389.28 317.95 389.28 M 328.58 389.25 C 328.58 389.25 328.58 389.25 328.58 389.25 M 328.58 389.25 C 328.58 389.25 328.58 389.25 328.58 389.25" fill="none" stroke="#c2bee6" stroke-linejoin="round" stroke-linecap="round" stroke-miterlimit="10" pointer-events="all"/><path d="M 298.97 386.03 C 298.97 386.03 298.97 386.03 298.97 386.03 M 298.97 386.03 C 298.97 386.03 298.97 386.03 298.97 386.03 M 309.6 386 C 309.6 386 309.6 386 309.6 386 M 309.6 386 C 309.6 386 309.6 386 309.6 386 M 320.23 385.96 C 320.23 385.96 320.23 385.96 320.23 385.96 M 320.23 385.96 C 320.23 385.96 320.23 385.96 320.23 385.96 M 330.86 385.93 C 330.86 385.93 330.86 385.93 330.86 385.93 M 330.86 385.93 C 330.86 385.93 330.86 385.93 330.86 385.93" fill="none" stroke="#c2bee6" stroke-linejoin="round" stroke-linecap="round" stroke-miterlimit="10" pointer-events="all"/><path d="M 338.24 385.72 C 338.24 385.72 338.24 385.72 338.24 385.72 M 338.24 385.72 C 338.24 385.72 338.24 385.72 338.24 385.72" fill="none" stroke="#c2bee6" stroke-linejoin="round" stroke-linecap="round" stroke-miterlimit="10" pointer-events="all"/><path d="M 340.21 388.76 C 340.21 388.76 340.21 388.76 340.21 388.76 M 340.21 388.76 C 340.21 388.76 340.21 388.76 340.21 388.76" fill="none" stroke="#c2bee6" stroke-linejoin="round" stroke-linecap="round" stroke-miterlimit="10" pointer-events="all"/><path d="M 342.18 391.79 C 342.18 391.79 342.18 391.79 342.18 391.79 M 342.18 391.79 C 342.18 391.79 342.18 391.79 342.18 391.79" fill="none" stroke="#c2bee6" stroke-linejoin="round" stroke-linecap="round" stroke-miterlimit="10" pointer-events="all"/><path d="M 296 383.5 M 296 383.5 C 306.61 382.82 321.35 382.03 346 383.5 M 296 383.5 C 312.63 383.87 327.47 382.92 346 383.5 M 346 383.5 C 351.02 387.28 353.81 390.76 356 394.5 M 346 383.5 C 347.96 385.8 350.35 388.17 356 394.5 M 356 394.5 C 332.54 394.95 309.85 394.03 286 394.5 M 356 394.5 C 330.46 394.61 304.39 394.04 286 394.5 M 286 394.5 C 290.06 390 293.49 385.4 296 383.5 M 286 394.5 C 289.74 391.47 292.59 386.83 296 383.5 M 310 392 M 310 392 C 312.57 391.98 319.65 392.66 328 392 M 310 392 C 316.48 392.53 321.83 391.77 328 392 M 297 389 M 297 389 C 310.42 387.42 320 390.78 336 389 M 297 389 C 307.66 390.36 319.57 388.55 336 389 M 299 386 M 299 386 C 311.7 387.22 322.44 386.19 335 386 M 299 386 C 309.07 386.8 318.02 385.76 335 386 M 338 386 M 338 386 C 339.88 385.49 342.94 386.21 345 386 M 338 386 C 340.14 385.92 341.62 385.92 345 386 M 340 389 M 340 389 C 341.66 388.75 342.76 388.56 347 389 M 340 389 C 342.11 389.1 343.46 389.14 347 389 M 342 392 M 342 392 C 344.02 391.8 347.02 391.98 349 392 M 342 392 C 344.24 392.18 346.69 391.99 349 392" fill="none" stroke="#324ab2" stroke-width="2" stroke-linejoin="round" stroke-linecap="round" stroke-miterlimit="10" pointer-events="all"/><path d="M 282.23 333.07 L 355.65 330.68 L 358.19 373.04 L 284.16 370.62" fill="#ffffff" stroke="none" pointer-events="all"/><g fill="#324AB2" font-family="Ink Free" font-weight="bold" text-anchor="middle" font-size="17px"><text x="320.5" y="431.5">Terminal 3</text></g><path d="M 298.68 329.5 L 241 245.5" fill="none" stroke="none" pointer-events="stroke"/><path d="M 298.68 329.5 M 298.68 329.5 C 282.91 308.5 270.68 286.73 241 245.5 M 298.68 329.5 C 277.92 298.29 256.14 268.13 241 245.5" fill="none" stroke="#324ab2" stroke-width="2" stroke-linejoin="round" stroke-linecap="round" stroke-miterlimit="10" pointer-events="stroke"/><path d="M 103.13 330.5 L 161 245.5" fill="none" stroke="none" pointer-events="stroke"/><path d="M 103.13 330.5 M 103.13 330.5 C 118.96 308.87 130.45 287.05 161 245.5 M 103.13 330.5 C 116.42 310.13 131.18 289.7 161 245.5" fill="none" stroke="#324ab2" stroke-width="2" stroke-linejoin="round" stroke-linecap="round" stroke-miterlimit="10" pointer-events="stroke"/><path d="M 81 198.83 L 161 200.5" fill="none" stroke="none" pointer-events="stroke"/><path d="M 81 198.83 M 81 198.83 C 101.28 197.08 121.12 201.13 161 200.5 M 81 198.83 C 106.54 198.96 129.92 198.56 161 200.5" fill="none" stroke="#324ab2" stroke-width="2" stroke-linejoin="round" stroke-linecap="round" stroke-miterlimit="10" pointer-events="stroke"/><path d="M 241 199.67 L 321 198" fill="none" stroke="none" pointer-events="stroke"/><path d="M 241 199.67 M 241 199.67 C 260.13 200.69 282.79 200.1 321 198 M 241 199.67 C 271.48 199.97 302.2 199.63 321 198" fill="none" stroke="#324ab2" stroke-width="2" stroke-linejoin="round" stroke-linecap="round" stroke-miterlimit="10" pointer-events="stroke"/><path d="M 121 33 L 177.12 150.5" fill="none" stroke="none" pointer-events="stroke"/><path d="M 121 33 M 121 33 C 137.69 61.97 149.21 91.38 177.12 150.5 M 121 33 C 134.85 63.6 150.82 93.04 177.12 150.5" fill="none" stroke="#324ab2" stroke-width="2" stroke-linejoin="round" stroke-linecap="round" stroke-miterlimit="10" pointer-events="stroke"/><path d="M 281 33 L 224.88 150.5" fill="none" stroke="none" pointer-events="stroke"/><path d="M 281 33 M 281 33 C 268.18 63.04 253.73 92.85 224.88 150.5 M 281 33 C 266.27 60 253.22 88.35 224.88 150.5" fill="none" stroke="#324ab2" stroke-width="2" stroke-linejoin="round" stroke-linecap="round" stroke-miterlimit="10" pointer-events="stroke"/><rect x="51" y="4" width="60" height="40" fill="none" stroke="none" pointer-events="all"/><g fill="#324AB2" font-family="Ink Free" font-weight="bold" text-anchor="middle" font-size="15px"><text x="80.5" y="27.5">Usuario 6</text></g><rect x="291" y="4" width="60" height="40" fill="none" stroke="none" pointer-events="all"/><g fill="#324AB2" font-family="Ink Free" font-weight="bold" text-anchor="middle" font-size="15px"><text x="320.5" y="27.5">Usuario 1</text></g><rect x="321" y="169" width="80" height="40" fill="none" stroke="none" pointer-events="all"/><g fill="#324AB2" font-family="Ink Free" font-weight="bold" text-anchor="middle" font-size="15px"><text x="360.5" y="192.5">Usuario 2</text></g><rect x="281" y="334" width="80" height="40" fill="none" stroke="none" pointer-events="all"/><g fill="#324AB2" font-family="Ink Free" font-weight="bold" text-anchor="middle" font-size="15px"><text x="320.5" y="357.5">Usuario 3</text></g><rect x="41" y="334" width="80" height="40" fill="none" stroke="none" pointer-events="all"/><g fill="#324AB2" font-family="Ink Free" font-weight="bold" text-anchor="middle" font-size="15px"><text x="80.5" y="357.5">Usuario 4</text></g><rect x="1" y="169" width="80" height="40" fill="none" stroke="none" pointer-events="all"/><g fill="#324AB2" font-family="Ink Free" font-weight="bold" text-anchor="middle" font-size="15px"><text x="40.5" y="192.5">Usuario 5</text></g><rect x="431" y="83" width="230" height="121" fill="none" stroke="none" pointer-events="all"/><g fill="#324AB2" font-family="Ink Free" font-weight="bold" font-size="17px"><text x="432.5" y="108">No tienen cola de trabajo.</text><text x="432.5" y="128">Los usuarios indican interacti-</text><text x="432.5" y="148">vamente el trabajo que quieren</text><text x="432.5" y="168">ejecutar haciendo uso de una</text><text x="432.5" y="188">terminal.</text></g><rect x="273.5" y="793.5" width="190" height="41" fill="none" stroke="none" pointer-events="all"/><path d="M 273.65 793.33 C 273.65 793.33 273.65 793.33 273.65 793.33 M 273.65 793.33 C 273.65 793.33 273.65 793.33 273.65 793.33 M 273.78 805.37 C 277.47 799.88 279.8 796.01 284.28 793.29 M 273.78 805.37 C 276.18 801.57 278.52 798.27 284.28 793.29 M 273.26 818.16 C 280.88 808.21 286.97 799.13 294.91 793.26 M 273.26 818.16 C 277.61 813.06 284.07 805.75 294.91 793.26 M 273.39 830.2 C 285.9 814.86 296.36 800.59 305.54 793.22 M 273.39 830.2 C 285.2 816.86 297.63 802.9 305.54 793.22 M 277.46 837.72 C 286.3 825.48 296.71 813.08 316.17 793.19 M 277.46 837.72 C 293.24 819.24 308.03 802.56 316.17 793.19 M 288.09 837.68 C 301.6 819.72 318.18 803 326.8 793.15 M 288.09 837.68 C 298.22 827.27 307.31 815.89 326.8 793.15 M 298.72 837.65 C 310.54 824.54 326.61 809.16 336.78 793.87 M 298.72 837.65 C 309.57 824.92 322.68 810.47 336.78 793.87 M 309.35 837.61 C 319.88 826.6 328.1 813.46 347.41 793.84 M 309.35 837.61 C 321.21 824.96 331.17 812.51 347.41 793.84 M 319.98 837.58 C 329.87 828.43 334.63 819.31 358.04 793.8 M 319.98 837.58 C 333.29 822.81 346.26 807.03 358.04 793.8 M 330.61 837.54 C 341.54 824.4 355.26 807.64 368.67 793.77 M 330.61 837.54 C 340.97 824.31 352.17 812.99 368.67 793.77 M 341.24 837.51 C 351.31 824.73 362.06 816.13 379.3 793.74 M 341.24 837.51 C 349.26 829.19 356.38 818.96 379.3 793.74 M 351.87 837.47 C 366.95 820 382.56 804.55 389.93 793.7 M 351.87 837.47 C 360.91 826.67 371.27 814.46 389.93 793.7 M 361.85 838.19 C 368.75 826.91 378.99 819.75 400.56 793.67 M 361.85 838.19 C 369.36 828.63 377.36 819.55 400.56 793.67 M 372.48 838.16 C 385.49 825.69 398.63 811.51 411.19 793.63 M 372.48 838.16 C 387.29 821.65 400.89 806.53 411.19 793.63 M 383.11 838.13 C 394.95 825.1 401.65 813.73 421.82 793.6 M 383.11 838.13 C 391.08 827.57 400.33 817.73 421.82 793.6 M 393.74 838.09 C 404.21 827.07 412.97 816.56 432.45 793.56 M 393.74 838.09 C 407.99 822.88 421.85 806.54 432.45 793.56 M 404.37 838.06 C 413.31 827.86 422.08 820.18 443.08 793.53 M 404.37 838.06 C 419.6 819.91 434.66 801.63 443.08 793.53 M 415 838.02 C 427.6 825.74 437.61 810.16 453.71 793.49 M 415 838.02 C 423.23 828.01 434.14 817.8 453.71 793.49 M 425.63 837.99 C 437.96 824.84 450.62 808.73 463.68 794.21 M 425.63 837.99 C 440.33 823.61 452.88 807.51 463.68 794.21 M 436.26 837.95 C 445.58 824.24 458.3 814.1 463.81 806.26 M 436.26 837.95 C 446.12 826.96 454.85 816.04 463.81 806.26 M 446.89 837.92 C 449.69 832.31 453.94 830.15 463.95 818.3 M 446.89 837.92 C 449.87 833.16 454.9 829.71 463.95 818.3 M 457.52 837.88 C 460.37 835.63 462.9 833.23 464.08 830.34 M 457.52 837.88 C 458.79 836.56 460.16 835.1 464.08 830.34" fill="none" stroke="#c2bee6" stroke-linejoin="round" stroke-linecap="round" stroke-miterlimit="10" pointer-events="all"/><path d="M 273.5 793.5 C 320.74 792.99 370.44 791 463.5 793.5 M 273.5 793.5 C 315.21 792.38 354.91 792.45 463.5 793.5 M 463.5 793.5 C 465.14 807.21 462.32 821.65 463.5 834.5 M 463.5 793.5 C 464.1 803.84 463.54 811.93 463.5 834.5 M 463.5 834.5 C 393.25 835.48 321.03 835.22 273.5 834.5 M 463.5 834.5 C 408.69 834.26 352.25 833.46 273.5 834.5 M 273.5 834.5 C 272.38 825.26 273.88 812.03 273.5 793.5 M 273.5 834.5 C 274.13 822.45 274 809.67 273.5 793.5" fill="none" stroke="#324ab2" stroke-width="2" stroke-linejoin="round" stroke-linecap="round" stroke-miterlimit="10" pointer-events="all"/><rect x="103.5" y="614" width="280" height="60" fill="none" stroke="none" pointer-events="all"/><path d="M 103.5 614 C 172.45 614.03 243.26 612.65 383.5 614 M 103.5 614 C 183.84 611.94 264.46 612.92 383.5 614 M 383.5 614 C 385.4 638.88 385.45 661 383.5 674 M 383.5 614 C 383.41 627 383.74 637.76 383.5 674 M 383.5 674 C 290.18 672.85 197.33 673.79 103.5 674 M 383.5 674 C 290.07 674.18 196.75 674.25 103.5 674 M 103.5 674 C 105.29 651.4 103.32 626.64 103.5 614 M 103.5 674 C 102.25 659.25 102.28 645.69 103.5 614" fill="none" stroke="#324ab2" stroke-width="2" stroke-linejoin="round" stroke-linecap="round" stroke-miterlimit="10" pointer-events="all"/><rect x="263.5" y="784" width="210" height="60" fill="none" stroke="none" pointer-events="all"/><path d="M 263.5 784 C 317.31 784.2 369.08 782.96 473.5 784 M 263.5 784 C 320.69 784.03 376.74 784.11 473.5 784 M 473.5 784 C 475.09 807.06 474.08 830.21 473.5 844 M 473.5 784 C 474.33 799.28 474.41 814.6 473.5 844 M 473.5 844 C 411.94 843.33 355.25 845.28 263.5 844 M 473.5 844 C 423.87 844.2 375.42 843.85 263.5 844 M 263.5 844 C 264.93 827.22 262.63 808.53 263.5 784 M 263.5 844 C 262.22 821.44 263.92 798.38 263.5 784" fill="none" stroke="#324ab2" stroke-width="2" stroke-linejoin="round" stroke-linecap="round" stroke-miterlimit="10" pointer-events="all"/><g fill="#324AB2" font-family="Ink Free" font-weight="bold" text-anchor="middle" font-size="17px"><text x="368" y="818.5">Espera de E/S</text></g><path d="M 470.76 644 L 383.5 644" fill="none" stroke="none" pointer-events="stroke"/><path d="M 481.26 644 L 467.26 651 L 470.76 644 L 467.26 637 Z" fill="none" stroke="none" pointer-events="all"/><path d="M 470.76 644 M 470.76 644 C 449.2 643.64 425.29 642.44 383.5 644 M 470.76 644 C 440.55 644.72 411.43 644.02 383.5 644" fill="none" stroke="#324ab2" stroke-width="2" stroke-linejoin="round" stroke-linecap="round" stroke-miterlimit="10" pointer-events="stroke"/><path d="M 467.26 637 C 467.26 637 467.26 637 467.26 637 M 467.26 637 C 467.26 637 467.26 637 467.26 637 M 471.33 644.51 C 472.26 643.47 472.39 642.59 474.61 640.74 M 471.33 644.51 C 472.14 643.45 472.66 642.91 474.61 640.74" fill="none" stroke="#324ab2" stroke-linejoin="round" stroke-linecap="round" stroke-miterlimit="10" pointer-events="all"/><path d="M 481.26 644 M 481.26 644 C 479.06 646.05 473.75 647.55 467.26 651 M 481.26 644 C 477.92 645.68 473.92 648 467.26 651 M 467.26 651 C 467.82 649.71 469.51 648.36 470.76 644 M 467.26 651 C 468.33 648.7 469.43 646.14 470.76 644 M 470.76 644 C 469.36 642.15 468.05 639.67 467.26 637 M 470.76 644 C 469.82 642.05 468.44 639.88 467.26 637 M 467.26 637 C 470.69 637.36 473.51 641.16 481.26 644 M 467.26 637 C 473.4 639.11 478.62 642.04 481.26 644" fill="none" stroke="#324ab2" stroke-width="2" stroke-linejoin="round" stroke-linecap="round" stroke-miterlimit="10" pointer-events="all"/><path d="M 486.24 814 L 523.5 814 L 523.5 684" fill="none" stroke="none" pointer-events="stroke"/><path d="M 475.74 814 L 489.74 807 L 486.24 814 L 489.74 821 Z" fill="none" stroke="none" pointer-events="all"/><path d="M 486.24 814 M 486.24 814 C 494.7 812.67 504.78 815.66 523.5 814 M 486.24 814 C 495.08 814.73 501.4 815.24 523.5 814 M 523.5 814 C 522.82 783.8 523.53 750.68 523.5 684 M 523.5 814 C 522.56 785.51 522.43 759.09 523.5 684" fill="none" stroke="#324ab2" stroke-width="2" stroke-linejoin="round" stroke-linecap="round" stroke-miterlimit="10" pointer-events="stroke"/><path d="M 475.75 813.98 C 475.75 813.98 475.75 813.98 475.75 813.98 M 475.75 813.98 C 475.75 813.98 475.75 813.98 475.75 813.98 M 483.1 817.72 C 484 817.11 484.97 815.76 486.38 813.95 M 483.1 817.72 C 483.63 816.68 484.29 816.17 486.38 813.95" fill="none" stroke="#324ab2" stroke-linejoin="round" stroke-linecap="round" stroke-miterlimit="10" pointer-events="all"/><path d="M 475.74 814 M 475.74 814 C 479.32 813.67 481.93 810.03 489.74 807 M 475.74 814 C 480.06 811.47 485.14 808.78 489.74 807 M 489.74 807 C 489.17 809.91 487.38 811.96 486.24 814 M 489.74 807 C 488.94 808.87 487.97 811.28 486.24 814 M 486.24 814 C 487.91 816.17 489.37 819.3 489.74 821 M 486.24 814 C 486.57 815.57 487.82 816.63 489.74 821 M 489.74 821 C 484.34 819.72 481.1 815.87 475.74 814 M 489.74 821 C 484.71 817.85 480.19 815.78 475.74 814" fill="none" stroke="#324ab2" stroke-width="2" stroke-linejoin="round" stroke-linecap="round" stroke-miterlimit="10" pointer-events="all"/><ellipse cx="523.5" cy="644" rx="40" ry="40" fill="none" stroke="none" pointer-events="all"/><path d="M 541.46 608.37 C 547.92 611.24 554.61 619.03 558.14 626.01 C 561.68 632.99 563.75 642.58 562.66 650.25 C 561.57 657.92 557.01 666.62 551.61 672.03 C 546.21 677.43 537.78 681.4 530.26 682.69 C 522.74 683.98 513.35 683.03 506.48 679.77 C 499.61 676.51 492.5 669.9 489.03 663.14 C 485.57 656.39 484.84 646.89 485.7 639.22 C 486.55 631.55 488.97 623.01 494.15 617.13 C 499.34 611.25 509.23 605.43 516.79 603.93 C 524.35 602.43 534.08 606.47 539.49 608.12 C 544.9 609.76 546.83 611.91 549.25 613.79 C 551.66 615.66 554.36 618.83 553.99 619.36 M 533.2 605.23 C 540.02 606.58 547.86 613.46 552.78 619.44 C 557.7 625.42 562.32 633.26 562.71 641.09 C 563.1 648.92 559.23 659.71 555.13 666.42 C 551.02 673.12 544.84 678.76 538.06 681.33 C 531.29 683.9 522.06 683.85 514.46 681.84 C 506.86 679.82 497.21 675.14 492.48 669.23 C 487.75 663.32 486.64 653.94 486.08 646.4 C 485.52 638.86 485.46 630.52 489.11 624 C 492.76 617.48 500.6 610.66 508 607.29 C 515.39 603.93 529.03 604.19 533.5 603.84 C 537.96 603.49 534.75 604.8 534.77 605.21 C 534.8 605.63 534.12 605.69 533.65 606.33" fill="none" stroke="#324ab2" stroke-width="2" stroke-linejoin="round" stroke-linecap="round" stroke-miterlimit="10" pointer-events="all"/><g fill="#324AB2" font-family="Ink Free" font-weight="bold" text-anchor="middle" font-size="17px"><text x="523" y="648.5">U1</text></g><ellipse cx="143.5" cy="814" rx="40" ry="40" fill="none" stroke="none" pointer-events="all"/><path d="M 152.72 774.58 C 159.99 775.56 168.03 780.38 173.1 786.38 C 178.17 792.39 182.48 802.63 183.15 810.61 C 183.83 818.59 181.14 827.49 177.14 834.28 C 173.14 841.08 166.04 848.03 159.16 851.4 C 152.28 854.77 143.34 856.03 135.84 854.5 C 128.34 852.98 119.22 848.01 114.16 842.23 C 109.09 836.45 106.34 827.75 105.45 819.82 C 104.56 811.89 105.22 801.75 108.82 794.63 C 112.41 787.5 120.25 780.45 127.01 777.07 C 133.78 773.69 144.44 774.46 149.4 774.35 C 154.37 774.25 155.09 775.81 156.82 776.43 C 158.55 777.04 160.17 777.52 159.81 778.04 M 162.44 778.23 C 169.05 781.25 174.28 787.59 177.43 794.78 C 180.58 801.96 182.52 813.51 181.33 821.36 C 180.15 829.22 175.49 836.62 170.33 841.91 C 165.17 847.2 157.86 851.5 150.36 853.1 C 142.86 854.71 132.17 854.92 125.34 851.53 C 118.52 848.15 112.92 840.06 109.41 832.81 C 105.9 825.55 103.33 815.68 104.29 808.03 C 105.25 800.38 109.75 792.7 115.16 786.9 C 120.58 781.11 129.11 774.84 136.77 773.27 C 144.43 771.7 157.15 776.87 161.11 777.48 C 165.07 778.08 160.61 776.89 160.52 776.9 C 160.43 776.91 160.91 776.51 160.58 777.55" fill="none" stroke="#324ab2" stroke-width="2" stroke-linejoin="round" stroke-linecap="round" stroke-miterlimit="10" pointer-events="all"/><g fill="#324AB2" font-family="Ink Free" font-weight="bold" text-anchor="middle" font-size="17px"><text x="143" y="818.5">E/S</text></g><path d="M 196.24 814 L 263.5 814" fill="none" stroke="none" pointer-events="stroke"/><path d="M 185.74 814 L 199.74 807 L 196.24 814 L 199.74 821 Z" fill="none" stroke="none" pointer-events="all"/><path d="M 196.24 814 M 196.24 814 C 212.78 813.59 230.84 813.18 263.5 814 M 196.24 814 C 212.18 812.39 226.73 812.57 263.5 814" fill="none" stroke="#324ab2" stroke-width="2" stroke-linejoin="round" stroke-linecap="round" stroke-miterlimit="10" pointer-events="stroke"/><path d="M 185.92 813.79 C 185.92 813.79 185.92 813.79 185.92 813.79 M 185.92 813.79 C 185.92 813.79 185.92 813.79 185.92 813.79 M 193.27 817.53 C 194.25 816.14 195.7 815.39 196.55 813.76 M 193.27 817.53 C 194.11 816.35 195.36 815.2 196.55 813.76" fill="none" stroke="#324ab2" stroke-linejoin="round" stroke-linecap="round" stroke-miterlimit="10" pointer-events="all"/><path d="M 185.74 814 M 185.74 814 C 189.1 812.53 194.4 808.68 199.74 807 M 185.74 814 C 188.78 812.54 192.05 810.9 199.74 807 M 199.74 807 C 198.93 810.05 197.68 812.82 196.24 814 M 199.74 807 C 198.61 809.17 197.65 811.78 196.24 814 M 196.24 814 C 196.28 815.54 198.11 816.42 199.74 821 M 196.24 814 C 197.28 815.96 198.17 817.99 199.74 821 M 199.74 821 C 194.07 817.99 189.38 816.74 185.74 814 M 199.74 821 C 196.04 818.74 192.27 818.25 185.74 814" fill="none" stroke="#324ab2" stroke-width="2" stroke-linejoin="round" stroke-linecap="round" stroke-miterlimit="10" pointer-events="all"/><path d="M 90.76 644 L 63.5 644 L 63.5 814 L 103.5 814" fill="none" stroke="none" pointer-events="stroke"/><path d="M 101.26 644 L 87.26 651 L 90.76 644 L 87.26 637 Z" fill="none" stroke="none" pointer-events="all"/><path d="M 90.76 644 M 90.76 644 C 82.5 642.71 75.72 642.5 63.5 644 M 90.76 644 C 82.16 643.17 74.55 644.56 63.5 644 M 63.5 644 C 62.64 710.73 62.79 772.52 63.5 814 M 63.5 644 C 65.36 697.47 64.82 751.05 63.5 814 M 63.5 814 C 72.15 812.4 85.85 815.61 103.5 814 M 63.5 814 C 75.59 814.46 85.7 813.4 103.5 814" fill="none" stroke="#324ab2" stroke-width="2" stroke-linejoin="round" stroke-linecap="round" stroke-miterlimit="10" pointer-events="stroke"/><path d="M 87.46 636.77 C 87.46 636.77 87.46 636.77 87.46 636.77 M 87.46 636.77 C 87.46 636.77 87.46 636.77 87.46 636.77 M 91.53 644.28 C 92.55 643.32 93.84 641.11 94.81 640.51 M 91.53 644.28 C 92.59 643.12 93.48 642.01 94.81 640.51" fill="none" stroke="#324ab2" stroke-linejoin="round" stroke-linecap="round" stroke-miterlimit="10" pointer-events="all"/><path d="M 101.26 644 M 101.26 644 C 96.53 644.11 95.72 648.4 87.26 651 M 101.26 644 C 98.05 646.12 93.31 647.25 87.26 651 M 87.26 651 C 88.51 648.92 90.04 645.68 90.76 644 M 87.26 651 C 88.6 648.8 89.09 647.02 90.76 644 M 90.76 644 C 89.67 642.73 88.46 639.15 87.26 637 M 90.76 644 C 90.2 642.28 89.31 641.07 87.26 637 M 87.26 637 C 90.84 639.95 95.11 641.67 101.26 644 M 87.26 637 C 90.94 637.89 92.86 639.34 101.26 644" fill="none" stroke="#324ab2" stroke-width="2" stroke-linejoin="round" stroke-linecap="round" stroke-miterlimit="10" pointer-events="all"/><rect x="333.5" y="624" width="40" height="40" fill="none" stroke="none" pointer-events="all"/><path d="M 334.91 625.45 L 371.5 625.5 L 373.27 665.84 L 335.13 664.13" fill="#ffffff" stroke="none" pointer-events="all"/><path d="M 333.5 624 C 344.94 625.46 353.81 625.45 373.5 624 M 333.5 624 C 349.31 623.41 362.49 624.02 373.5 624 M 373.5 624 C 371.94 632.69 374.94 640.92 373.5 664 M 373.5 624 C 372.64 635.5 373 647.13 373.5 664 M 373.5 664 C 366.73 662.86 355.59 663.57 333.5 664 M 373.5 664 C 360.83 664.34 347.98 664.16 333.5 664 M 333.5 664 C 331.82 653.55 333.23 641.99 333.5 624 M 333.5 664 C 332.64 653.96 333.5 644.87 333.5 624" fill="none" stroke="#324ab2" stroke-width="2" stroke-linejoin="round" stroke-linecap="round" stroke-miterlimit="10" pointer-events="all"/><g fill="#324AB2" font-family="Ink Free" font-weight="bold" text-anchor="middle" font-size="17px"><text x="353" y="648.5">U2</text></g><rect x="293.5" y="624" width="40" height="40" fill="none" stroke="none" pointer-events="all"/><path d="M 292.44 623.68 L 331.62 623.21 L 335.09 664.37 L 294.73 662.11" fill="#ffffff" stroke="none" pointer-events="all"/><path d="M 293.5 624 C 303.79 624.75 315.49 624.93 333.5 624 M 293.5 624 C 303.39 623.38 313.03 623.21 333.5 624 M 333.5 624 C 332.07 632.26 333.94 644.57 333.5 664 M 333.5 624 C 333.94 634.28 333.19 644.7 333.5 664 M 333.5 664 C 319.66 664.06 304.04 662.27 293.5 664 M 333.5 664 C 318.44 664.56 304.97 663.27 293.5 664 M 293.5 664 C 294.6 655.9 292.55 644.52 293.5 624 M 293.5 664 C 293.71 647.82 292.74 632.51 293.5 624" fill="none" stroke="#324ab2" stroke-width="2" stroke-linejoin="round" stroke-linecap="round" stroke-miterlimit="10" pointer-events="all"/><g fill="#324AB2" font-family="Ink Free" font-weight="bold" text-anchor="middle" font-size="17px"><text x="313" y="648.5">U3</text></g><rect x="113.5" y="623" width="60" height="41" fill="none" stroke="none" pointer-events="all"/><path d="M 113.19 623.36 C 113.19 623.36 113.19 623.36 113.19 623.36 M 113.19 623.36 C 113.19 623.36 113.19 623.36 113.19 623.36 M 113.32 635.4 C 117.18 631.97 120.61 628.43 123.82 623.33 M 113.32 635.4 C 116.96 631.23 119.88 628.35 123.82 623.33 M 113.45 647.44 C 118.47 640.05 125.27 633.42 134.45 623.29 M 113.45 647.44 C 120.5 638.73 127.92 630.52 134.45 623.29 M 113.59 659.48 C 122.6 645.33 133.76 635.98 145.08 623.26 M 113.59 659.48 C 124.35 646.42 138.24 632.01 145.08 623.26 M 117.66 667 C 134.5 651.53 148.73 630.73 155.71 623.22 M 117.66 667 C 129.22 652.69 142.25 640.06 155.71 623.22 M 127.63 667.72 C 142.52 650.06 155.19 635.38 166.34 623.19 M 127.63 667.72 C 136.85 656.42 147.99 644.14 166.34 623.19 M 138.26 667.68 C 153.99 652.55 167.21 638.06 175.66 624.66 M 138.26 667.68 C 148.15 656.82 156.59 647.2 175.66 624.66 M 148.89 667.65 C 154.42 660.95 161.47 652.89 175.79 636.7 M 148.89 667.65 C 156.56 659.01 163.48 652.18 175.79 636.7 M 159.52 667.61 C 161.36 664.22 167.23 659.73 175.27 649.5 M 159.52 667.61 C 164.15 663.52 167.89 658.76 175.27 649.5 M 170.15 667.58 C 170.93 666.6 173.11 664.45 175.4 661.54 M 170.15 667.58 C 172.16 665.66 173.8 663.29 175.4 661.54" fill="none" stroke="#c2bee6" stroke-linejoin="round" stroke-linecap="round" stroke-miterlimit="10" pointer-events="all"/><path d="M 113.5 623 C 127.66 623.19 143.19 623.57 173.5 623 M 113.5 623 C 131.83 623.27 152.29 624.32 173.5 623 M 173.5 623 C 175.4 635.13 172.13 647.8 173.5 664 M 173.5 623 C 173.24 632.3 173.38 641.75 173.5 664 M 173.5 664 C 153.81 665.19 130.93 664.89 113.5 664 M 173.5 664 C 162 664.81 149.87 664.41 113.5 664 M 113.5 664 C 113.39 649.89 111.87 634.34 113.5 623 M 113.5 664 C 113.97 649.34 113.17 635.47 113.5 623" fill="none" stroke="#324ab2" stroke-width="2" stroke-linejoin="round" stroke-linecap="round" stroke-miterlimit="10" pointer-events="all"/><rect x="63.5" y="474" width="480" height="120" fill="none" stroke="none" pointer-events="all"/><g fill="#324AB2" font-family="Ink Free" font-weight="bold" font-size="17px"><text x="65" y="488.5">Mientras el trabajo del Usuario 1 se ejecuta en la CPU, el resto de</text><text x="65" y="508.5">trabajos en la memoria esperan su oportunidad. Si el trabajo del</text><text x="65" y="528.5">usuario 1 termina o solicita una operacin de E/S, otro ocupar su</text><text x="65" y="548.5">lugar en la CPU. Si acapara demasiado tiempo la CPU, se le</text><text x="65" y="568.5">expulsar para que otro pase a ejecutarse, de forma que los</text><text x="65" y="588.5">trabajos van ejecutndose por turnos</text></g><rect x="213.5" y="624" width="40" height="40" fill="none" stroke="none" pointer-events="all"/><path d="M 213.06 625.17 L 254.33 624.31 L 254.87 665.03 L 212.93 665.75" fill="#ffffff" stroke="none" pointer-events="all"/><path d="M 213.5 624 C 224.37 623.53 231.83 624.5 253.5 624 M 213.5 624 C 229.21 625.12 243.78 624.18 253.5 624 M 253.5 624 C 255.27 634.14 253.79 648.17 253.5 664 M 253.5 624 C 253.5 634.99 254.28 646.43 253.5 664 M 253.5 664 C 241.98 663.32 234.76 665.5 213.5 664 M 253.5 664 C 238.97 664.24 226.8 664.25 213.5 664 M 213.5 664 C 214.95 648.32 213.63 633.28 213.5 624 M 213.5 664 C 213 654.4 214.02 645.81 213.5 624" fill="none" stroke="#324ab2" stroke-width="2" stroke-linejoin="round" stroke-linecap="round" stroke-miterlimit="10" pointer-events="all"/><g fill="#324AB2" font-family="Ink Free" font-weight="bold" text-anchor="middle" font-size="17px"><text x="233" y="648.5">U5</text></g><rect x="253.5" y="624" width="40" height="40" fill="none" stroke="none" pointer-events="all"/><path d="M 254.59 623.4 L 294.45 622.02 L 292.7 663.56 L 252.52 663.73" fill="#ffffff" stroke="none" pointer-events="all"/><path d="M 253.5 624 C 263.23 622.82 273.51 623.99 293.5 624 M 253.5 624 C 263.29 623.09 272.31 623.37 293.5 624 M 293.5 624 C 294.6 637.72 291.99 651.82 293.5 664 M 293.5 624 C 292.8 633.77 292.48 644 293.5 664 M 293.5 664 C 282.91 664.53 275.21 664.2 253.5 664 M 293.5 664 C 278.58 664.46 261.79 665.36 253.5 664 M 253.5 664 C 253.73 650.68 252.94 635.81 253.5 624 M 253.5 664 C 253.27 648.25 252.46 633.45 253.5 624" fill="none" stroke="#324ab2" stroke-width="2" stroke-linejoin="round" stroke-linecap="round" stroke-miterlimit="10" pointer-events="all"/><g fill="#324AB2" font-family="Ink Free" font-weight="bold" text-anchor="middle" font-size="17px"><text x="273" y="648.5">U4</text></g><rect x="173.5" y="624" width="40" height="40" fill="none" stroke="none" pointer-events="all"/><path d="M 172.11 625.63 L 214.56 623.74 L 214.52 662.08 L 172.11 665.71" fill="#ffffff" stroke="none" pointer-events="all"/><path d="M 173.5 624 C 182.09 626.1 195.19 623.47 213.5 624 M 173.5 624 C 185.36 623.06 198.84 624.56 213.5 624 M 213.5 624 C 213.94 637.3 214.18 651.47 213.5 664 M 213.5 624 C 214.09 632.55 212.67 641.57 213.5 664 M 213.5 664 C 199.84 665.73 183.66 662.9 173.5 664 M 213.5 664 C 204.19 663.88 194.78 663.67 173.5 664 M 173.5 664 C 172.52 653.03 172.26 642.34 173.5 624 M 173.5 664 C 174.34 650.11 173.7 637.08 173.5 624" fill="none" stroke="#324ab2" stroke-width="2" stroke-linejoin="round" stroke-linecap="round" stroke-miterlimit="10" pointer-events="all"/><g fill="#324AB2" font-family="Ink Free" font-weight="bold" text-anchor="middle" font-size="17px"><text x="193" y="648.5">U6</text></g><rect x="483.5" y="573" width="185" height="50" fill="none" stroke="none" transform="translate(576,0)scale(-1,1)translate(-576,0)" pointer-events="all"/><g fill="#324AB2" font-family="Ink Free" font-weight="bold" text-anchor="middle" font-size="17px"><text x="575.5" y="602.5">CPU</text></g><path d="M 76.24 734 L 523.5 734" fill="none" stroke="none" pointer-events="stroke"/><path d="M 65.74 734 L 79.74 727 L 76.24 734 L 79.74 741 Z" fill="none" stroke="none" pointer-events="all"/><path d="M 76.24 734 M 76.24 734 C 188.38 734.57 300.75 735.43 523.5 734 M 76.24 734 C 193.26 734.51 310.46 734.48 523.5 734" fill="none" stroke="#324ab2" stroke-width="2" stroke-linejoin="round" stroke-linecap="round" stroke-miterlimit="10" pointer-events="stroke"/><path d="M 65.5 734.28 C 65.5 734.28 65.5 734.28 65.5 734.28 M 65.5 734.28 C 65.5 734.28 65.5 734.28 65.5 734.28 M 72.85 738.02 C 73.6 736.87 74.86 736.2 76.13 734.25 M 72.85 738.02 C 73.84 736.4 75.15 735.43 76.13 734.25" fill="none" stroke="#324ab2" stroke-linejoin="round" stroke-linecap="round" stroke-miterlimit="10" pointer-events="all"/><path d="M 65.74 734 M 65.74 734 C 70.15 731.8 73.44 729.83 79.74 727 M 65.74 734 C 70.11 732.29 74.12 729.8 79.74 727 M 79.74 727 C 78.35 729.55 77.41 732.07 76.24 734 M 79.74 727 C 78.81 728.28 77.88 730.58 76.24 734 M 76.24 734 C 77.19 736.92 78.52 740.04 79.74 741 M 76.24 734 C 77.77 737.07 78.98 738.99 79.74 741 M 79.74 741 C 75.45 738.8 73.43 739.31 65.74 734 M 79.74 741 C 74.77 738.18 70.86 736.2 65.74 734" fill="none" stroke="#324ab2" stroke-width="2" stroke-linejoin="round" stroke-linecap="round" stroke-miterlimit="10" pointer-events="all"/><rect x="198.5" y="684" width="185" height="50" fill="none" stroke="none" transform="translate(291,0)scale(-1,1)translate(-291,0)" pointer-events="all"/><g fill="#324AB2" font-family="Ink Free" font-weight="bold" text-anchor="middle" font-size="17px"><text x="290.5" y="713.5">Temporizador</text></g><ellipse cx="223.5" cy="709" rx="10" ry="10" fill="none" stroke="none" pointer-events="all"/><path d="M 223.5 700 L 223.5 709 L 218.5 709" fill="none" stroke="none" pointer-events="all"/><path d="M 216.02 702.15 C 216.02 702.15 216.02 702.15 216.02 702.15 M 216.02 702.15 C 216.02 702.15 216.02 702.15 216.02 702.15 M 216.15 714.19 C 221.1 708.93 224.52 704.57 225.99 702.87 M 216.15 714.19 C 218.49 712.58 219.76 709.49 225.99 702.87 M 222.19 719.44 C 226.89 715.13 228.59 709.92 232.68 707.36 M 222.19 719.44 C 224.48 716.53 226.22 714.65 232.68 707.36" fill="none" stroke="#c2bee6" stroke-linejoin="round" stroke-linecap="round" stroke-miterlimit="10" pointer-events="all"/><path d="M 221.98 698.93 C 224.09 698.74 227.55 699.35 229.3 700.68 C 231.04 702.01 231.9 704.63 232.44 706.91 C 232.97 709.2 233.32 712.58 232.5 714.39 C 231.67 716.19 229.29 716.89 227.48 717.75 C 225.68 718.62 223.57 720.22 221.64 719.57 C 219.71 718.92 217.18 715.68 215.89 713.87 C 214.59 712.07 213.8 710.74 213.86 708.74 C 213.91 706.75 214.19 703.38 216.23 701.9 C 218.28 700.42 224.16 700.28 226.12 699.87 C 228.08 699.46 228.14 699.53 228 699.44 M 222.21 697.54 C 224.34 697.04 227.36 697.76 229.08 699.33 C 230.8 700.91 231.76 704.68 232.53 706.99 C 233.3 709.29 234.42 711.2 233.72 713.16 C 233.01 715.12 230.25 717.84 228.28 718.75 C 226.31 719.65 224.11 719.41 221.9 718.59 C 219.69 717.77 216.31 715.56 215 713.83 C 213.69 712.1 213.86 710.44 214.04 708.22 C 214.23 706 214.39 701.84 216.09 700.49 C 217.78 699.15 223.31 700.3 224.21 700.14 C 225.12 699.98 221.86 699.79 221.51 699.53" fill="none" stroke="#324ab2" stroke-width="2" stroke-linejoin="round" stroke-linecap="round" stroke-miterlimit="10" pointer-events="all"/><path d="M 223.5 700 M 223.5 700 C 224.17 702.15 222.8 704.02 223.5 709 M 223.5 700 C 223.43 701.61 223.63 703.83 223.5 709 M 223.5 709 C 222.04 709.39 219.92 708.62 218.5 709 M 223.5 709 C 222.05 709.22 220.67 709.17 218.5 709" fill="none" stroke="#324ab2" stroke-width="2" stroke-linejoin="round" stroke-linecap="round" stroke-miterlimit="10" pointer-events="all"/></g></svg>