<?xml version="1.0" encoding="UTF-8"?>
<!DOCTYPE svg PUBLIC "-//W3C//DTD SVG 1.1//EN" "http://www.w3.org/Graphics/SVG/1.1/DTD/svg11.dtd">
<svg xmlns="http://www.w3.org/2000/svg" xmlns:xlink="http://www.w3.org/1999/xlink" version="1.1" width="417px" height="282px" viewBox="-0.5 -0.5 417 282"><defs><style type="text/css">@font-face {&#xa;font-family: "Ink Free";&#xa;src: url("https://ull-esit-sistemas-operativos.github.io/ssoo-apuntes/fonts/InkFree.woff");&#xa;}&#xa;</style></defs><g><rect x="0" y="81" width="110" height="30" fill="none" stroke="none" pointer-events="all"/><g fill="#B85450" font-family="Ink Free" font-weight="bold" text-anchor="middle" font-size="17px"><text x="54.5" y="100.5">send(B, msg1)</text></g><path d="M 248 188.5 L 55 161" fill="none" stroke="none" pointer-events="stroke"/><path d="M 248 188.5 M 248 188.5 C 207.56 184.06 166.29 177.67 55 161 M 248 188.5 C 185.96 179.04 123.4 170.12 55 161" fill="none" stroke="#324ab2" stroke-width="2" stroke-linejoin="round" stroke-linecap="round" stroke-miterlimit="10" pointer-events="stroke"/><rect x="275" y="251" width="120" height="30" fill="none" stroke="none" pointer-events="all"/><g fill="#82B366" font-family="Ink Free" font-weight="bold" text-anchor="middle" font-size="17px"><text x="334.5" y="270.5">send(A, msg2)</text></g><rect x="175" y="121" width="50" height="30" fill="none" stroke="none" pointer-events="all"/><g fill="#B85450" font-family="Ink Free" font-weight="bold" text-anchor="middle" font-size="17px"><text x="199.5" y="140.5">msg1</text></g><rect x="205" y="201" width="53" height="30" fill="none" stroke="none" pointer-events="all"/><g fill="#82B366" font-family="Ink Free" font-weight="bold" text-anchor="middle" font-size="17px"><text x="231" y="220.5">msg2</text></g><path d="M 335 201 L 248 188.5" fill="none" stroke="none" pointer-events="stroke"/><path d="M 335 201 M 335 201 C 304.96 195.24 280.05 192.91 248 188.5 M 335 201 C 302.7 196.87 268.25 192.01 248 188.5" fill="none" stroke="#324ab2" stroke-width="2" stroke-linejoin="round" stroke-linecap="round" stroke-miterlimit="10" pointer-events="stroke"/><path d="M 238 176 L 258 188.5 L 238 201 Z" fill="none" stroke="none" transform="rotate(-173.4,248,188.5)" pointer-events="all"/><path d="M 238.53 174.99 L 256.08 187.99 L 237.14 201.17 L 238.71 176.13" fill="#82b366" stroke="none" transform="rotate(-173.4,248,188.5)" pointer-events="all"/><path d="M 238 176 M 238 176 C 243.01 180.1 249.73 182.73 258 188.5 M 238 176 C 243.39 179.6 246.43 180.86 258 188.5 M 258 188.5 C 252.61 190.99 243.87 194.91 238 201 M 258 188.5 C 251.92 192.23 245.44 196.91 238 201 M 238 201 C 238.12 195.45 237.98 186.68 238 176 M 238 201 C 238.42 193.17 237.52 185.14 238 176" fill="none" stroke="#82b366" stroke-linejoin="round" stroke-linecap="round" stroke-miterlimit="10" transform="rotate(-173.4,248,188.5)" pointer-events="all"/><path d="M 375 41 L 55 161" fill="none" stroke="none" pointer-events="stroke"/><path d="M 375 41 M 375 41 C 271.9 79.51 166.54 117.76 55 161 M 375 41 C 289.67 71.62 204.94 102.75 55 161" fill="none" stroke="#324ab2" stroke-width="2" stroke-linejoin="round" stroke-linecap="round" stroke-miterlimit="10" pointer-events="stroke"/><path d="M 171 100 L 191 112.5 L 171 125 Z" fill="none" stroke="none" transform="rotate(-18.7,181,112.5)" pointer-events="all"/><path d="M 171.53 99.67 L 189.9 113.7 L 172.07 124.53 L 170.03 99.01" fill="#b85450" stroke="none" transform="rotate(-18.7,181,112.5)" pointer-events="all"/><path d="M 171 100 M 171 100 C 177.3 103.45 181.43 108.74 191 112.5 M 171 100 C 177.48 102.82 182.25 107.76 191 112.5 M 191 112.5 C 183.87 115.62 177.55 121.93 171 125 M 191 112.5 C 184.51 115.22 179.96 119.08 171 125 M 171 125 C 171.58 115.03 170.99 109.33 171 100 M 171 125 C 171.32 119.46 170.23 114.65 171 100" fill="none" stroke="#b85450" stroke-linejoin="round" stroke-linecap="round" stroke-miterlimit="10" transform="rotate(-18.7,181,112.5)" pointer-events="all"/><ellipse cx="375" cy="41" rx="40" ry="40" fill="none" stroke="none" pointer-events="all"/><path d="M 362.7 0.94 C 369.08 -2.14 378.61 -1.49 385.73 0.93 C 392.84 3.36 400.77 8.88 405.4 15.48 C 410.04 22.07 413.19 32.52 413.53 40.5 C 413.88 48.47 411.69 56.74 407.5 63.33 C 403.3 69.93 395.44 77.15 388.39 80.06 C 381.34 82.98 372.39 83.18 365.18 80.84 C 357.97 78.51 349.73 72.46 345.14 66.04 C 340.55 59.63 338.09 50.24 337.63 42.34 C 337.18 34.44 338.44 25.24 342.42 18.65 C 346.4 12.06 357.57 5.56 361.52 2.8 C 365.47 0.04 365.21 2.35 366.1 2.11 C 366.99 1.87 366.69 0.99 366.86 1.35 M 372.37 -1.6 C 379.03 -2.69 388.65 1.3 394.97 5.77 C 401.28 10.24 407.57 17.72 410.27 25.22 C 412.96 32.72 413.1 43 411.13 50.76 C 409.17 58.53 403.95 66.72 398.48 71.8 C 393.01 76.89 385.75 80.37 378.33 81.26 C 370.91 82.15 360.22 81.27 353.94 77.14 C 347.65 73.01 343.2 64.17 340.62 56.49 C 338.03 48.81 336.7 38.6 338.44 31.05 C 340.18 23.5 345.74 16.21 351.05 11.17 C 356.35 6.13 366.27 2.77 370.26 0.82 C 374.25 -1.13 374.27 -0.55 375 -0.53 C 375.72 -0.5 374.7 0.34 374.6 0.95" fill="#ffffff" stroke="none" pointer-events="all"/><path d="M 369.7 -0.48 C 376.68 -2.1 386.48 0.63 392.84 4.18 C 399.19 7.73 404.39 13.66 407.83 20.8 C 411.27 27.95 414.35 39.05 413.47 47.06 C 412.59 55.07 407.87 63.07 402.56 68.84 C 397.25 74.62 388.96 80.18 381.61 81.72 C 374.25 83.25 364.97 81.56 358.42 78.07 C 351.86 74.57 345.73 67.66 342.28 60.74 C 338.83 53.82 336.9 44.38 337.73 36.56 C 338.55 28.75 342.25 19.8 347.21 13.83 C 352.16 7.87 363.5 3.24 367.47 0.79 C 371.43 -1.67 369.82 -0.89 370.98 -0.9 C 372.14 -0.91 374.38 -0.09 374.44 0.71 M 373.25 -0.4 C 380.6 -1.46 390.2 1.54 396.38 5.75 C 402.55 9.96 407.7 17.28 410.3 24.87 C 412.91 32.47 413.66 43.53 412.03 51.33 C 410.4 59.12 405.88 66.59 400.53 71.63 C 395.18 76.67 387.56 80.86 379.92 81.59 C 372.29 82.31 361.59 79.98 354.73 75.97 C 347.87 71.95 341.76 64.87 338.76 57.51 C 335.76 50.16 335.2 39.36 336.76 31.83 C 338.31 24.29 342.68 17.57 348.11 12.3 C 353.55 7.03 365.42 2.36 369.36 0.2 C 373.31 -1.96 371.39 -0.61 371.79 -0.66 C 372.2 -0.71 371.57 -0.67 371.79 -0.1" fill="none" stroke="#324ab2" stroke-width="2" stroke-linejoin="round" stroke-linecap="round" stroke-miterlimit="10" pointer-events="all"/><g fill="#324ab2" font-family="Ink Free" font-weight="bold" text-anchor="middle" font-size="17px"><text x="374.5" y="45.5">B</text></g><ellipse cx="55" cy="161" rx="40" ry="40" fill="none" stroke="none" pointer-events="all"/><path d="M 48.21 121.1 C 55.57 119.03 65.72 120.36 72.64 123.67 C 79.56 126.98 86.12 133.91 89.72 140.96 C 93.32 148.02 94.88 158.04 94.24 165.97 C 93.61 173.9 90.86 182.47 85.91 188.55 C 80.96 194.64 72.34 200.53 64.56 202.47 C 56.79 204.4 46.72 203.56 39.25 200.16 C 31.77 196.75 23.68 189.12 19.71 182.06 C 15.75 175 14.81 165.92 15.46 157.78 C 16.11 149.64 18.75 139.42 23.6 133.21 C 28.46 127 39.45 122.83 44.6 120.54 C 49.74 118.25 51.86 119.62 54.48 119.49 C 57.1 119.36 60.25 119.17 60.32 119.74 M 71.88 123.87 C 78.63 126.13 85.51 131.93 89.26 138.89 C 93.01 145.84 95.16 157.48 94.37 165.61 C 93.58 173.74 89.73 181.72 84.5 187.67 C 79.27 193.62 70.39 199.52 62.97 201.31 C 55.56 203.09 47.18 201.27 40.02 198.37 C 32.85 195.47 24.12 190.54 19.98 183.92 C 15.84 177.31 14.43 166.76 15.16 158.66 C 15.9 150.55 19.17 141.59 24.4 135.28 C 29.62 128.97 39.1 122.86 46.51 120.79 C 53.93 118.72 64.87 122.26 68.89 122.88 C 72.91 123.5 70.17 124.16 70.63 124.53 C 71.1 124.9 71.81 124.76 71.68 125.09" fill="#ffffff" stroke="none" pointer-events="all"/><path d="M 69.98 122.68 C 77.25 124.96 85.77 132.39 89.89 139.19 C 94.01 145.99 95.29 155.47 94.68 163.48 C 94.07 171.48 90.99 180.75 86.22 187.21 C 81.44 193.68 73.65 200.21 66.03 202.25 C 58.41 204.29 48.1 202.47 40.49 199.45 C 32.88 196.42 24.81 190.8 20.39 184.11 C 15.97 177.41 13.59 167.46 13.98 159.28 C 14.37 151.1 17.91 141.5 22.74 135.01 C 27.57 128.52 35.51 122.6 42.96 120.34 C 50.42 118.09 61.07 120.08 67.47 121.49 C 73.87 122.9 77.89 126.2 81.38 128.82 C 84.87 131.45 89.14 136.85 88.41 137.25 M 38.07 123.79 C 44.98 120.08 56.06 118.41 63.6 120.07 C 71.14 121.72 78.33 127.59 83.33 133.73 C 88.32 139.87 92.6 149.07 93.59 156.89 C 94.58 164.71 92.62 173.62 89.28 180.64 C 85.94 187.66 80.53 195.57 73.56 199.02 C 66.6 202.47 55.12 202.78 47.49 201.34 C 39.85 199.9 33.09 195.83 27.76 190.4 C 22.44 184.97 16.9 177.02 15.54 168.76 C 14.18 160.5 16.18 148.06 19.58 140.84 C 22.98 133.63 32.97 128.38 35.95 125.48 C 38.93 122.57 36.83 123.52 37.47 123.39 C 38.11 123.27 39.16 124.09 39.79 124.75" fill="none" stroke="#324ab2" stroke-width="2" stroke-linejoin="round" stroke-linecap="round" stroke-miterlimit="10" pointer-events="all"/><g fill="#324ab2" font-family="Ink Free" font-weight="bold" text-anchor="middle" font-size="17px"><text x="54.5" y="165.5">A</text></g><ellipse cx="335" cy="201" rx="40" ry="40" fill="none" stroke="none" pointer-events="all"/><path d="M 340.01 159.14 C 346.94 159.93 356.46 165.83 361.77 171.53 C 367.07 177.23 370.55 185.45 371.84 193.36 C 373.13 201.27 372.68 211.6 369.49 219 C 366.31 226.41 359.17 233.79 352.71 237.76 C 346.25 241.74 337.88 243.72 330.76 242.85 C 323.64 241.98 315.52 237.97 310 232.53 C 304.48 227.09 299.18 218.4 297.65 210.23 C 296.12 202.07 297.78 191.16 300.82 183.55 C 303.86 175.94 309.55 168.7 315.91 164.58 C 322.27 160.47 334.84 159.51 338.99 158.83 C 343.13 158.15 339.97 160.08 340.76 160.5 C 341.54 160.92 343.61 160.91 343.68 161.38 M 319.38 163.05 C 325.68 159.14 334.83 157.54 342.17 159 C 349.51 160.45 358.53 165.61 363.44 171.79 C 368.35 177.98 370.6 187.65 371.63 196.11 C 372.66 204.57 373.25 215.33 369.63 222.56 C 366 229.79 356.66 236.15 349.88 239.49 C 343.09 242.82 336.12 244.19 328.9 242.58 C 321.69 240.97 311.72 235.59 306.59 229.83 C 301.45 224.07 298.91 216.24 298.11 208.04 C 297.3 199.85 298.48 188.23 301.73 180.66 C 304.98 173.08 314.76 165.51 317.6 162.57 C 320.43 159.63 318.34 162.83 318.74 163.03 C 319.15 163.23 319.57 163.12 320 163.79" fill="#ffffff" stroke="none" pointer-events="all"/><path d="M 318.96 162.39 C 325.25 158.5 334.88 157.85 342.11 159.56 C 349.34 161.27 357.21 166.45 362.35 172.64 C 367.49 178.83 372.09 188.51 372.97 196.71 C 373.85 204.91 371.34 214.99 367.64 221.84 C 363.94 228.68 357.22 234.42 350.8 237.78 C 344.37 241.15 336.22 243.37 329.08 242.02 C 321.93 240.67 313.38 235.6 307.95 229.68 C 302.51 223.76 297.56 214.35 296.46 206.5 C 295.37 198.65 297.84 189.72 301.38 182.59 C 304.93 175.45 313.12 167.6 317.73 163.71 C 322.33 159.81 325.27 159.62 329.01 159.2 C 332.74 158.78 339.92 160.54 340.14 161.2 M 339.91 159.69 C 346.57 159.91 354.69 163.77 359.99 169.14 C 365.29 174.5 370.08 183.68 371.71 191.89 C 373.34 200.09 372.71 210.97 369.78 218.34 C 366.86 225.72 360.74 232.32 354.18 236.13 C 347.63 239.95 337.87 241.97 330.46 241.21 C 323.05 240.44 315.29 236.84 309.75 231.55 C 304.2 226.26 298.79 217.03 297.21 209.49 C 295.62 201.94 297.19 193.59 300.23 186.27 C 303.27 178.96 309.29 169.8 315.46 165.57 C 321.63 161.35 333 161.64 337.25 160.9 C 341.5 160.16 340.64 161.06 340.96 161.12 C 341.27 161.19 339.28 160.76 339.13 161.27" fill="none" stroke="#324ab2" stroke-width="2" stroke-linejoin="round" stroke-linecap="round" stroke-miterlimit="10" pointer-events="all"/><g fill="#324ab2" font-family="Ink Free" font-weight="bold" text-anchor="middle" font-size="17px"><text x="334.5" y="205.5">C</text></g></g></svg>