<?xml version="1.0" encoding="UTF-8"?>
<!DOCTYPE svg PUBLIC "-//W3C//DTD SVG 1.1//EN" "http://www.w3.org/Graphics/SVG/1.1/DTD/svg11.dtd">
<svg xmlns="http://www.w3.org/2000/svg" xmlns:xlink="http://www.w3.org/1999/xlink" version="1.1" width="532px" height="429px" viewBox="-0.5 -0.5 532 429"><defs><style type="text/css">@font-face {&#xa;font-family: "Ink Free";&#xa;src: url("https://ull-esit-sistemas-operativos.github.io/ssoo-apuntes/fonts/InkFree.woff");&#xa;}&#xa;</style></defs><g><ellipse cx="261" cy="221" rx="40" ry="40" fill="none" stroke="none" pointer-events="all"/><path d="M 275.98 182.68 C 283.25 184.96 291.77 192.39 295.89 199.19 C 300.01 205.99 301.29 215.47 300.68 223.48 C 300.07 231.48 296.99 240.75 292.22 247.21 C 287.44 253.68 279.65 260.21 272.03 262.25 C 264.41 264.29 254.1 262.47 246.49 259.45 C 238.88 256.42 230.81 250.8 226.39 244.11 C 221.97 237.41 219.59 227.46 219.98 219.28 C 220.37 211.1 223.91 201.5 228.74 195.01 C 233.57 188.52 241.51 182.6 248.96 180.34 C 256.42 178.09 267.07 180.08 273.47 181.49 C 279.87 182.9 283.89 186.2 287.38 188.82 C 290.87 191.45 295.14 196.85 294.41 197.25 M 244.07 183.79 C 250.98 180.08 262.06 178.41 269.6 180.07 C 277.14 181.72 284.33 187.59 289.33 193.73 C 294.32 199.87 298.6 209.07 299.59 216.89 C 300.58 224.71 298.62 233.62 295.28 240.64 C 291.94 247.66 286.53 255.57 279.56 259.02 C 272.6 262.47 261.12 262.78 253.49 261.34 C 245.85 259.9 239.09 255.83 233.76 250.4 C 228.44 244.97 222.9 237.02 221.54 228.76 C 220.18 220.5 222.18 208.06 225.58 200.84 C 228.98 193.63 238.97 188.38 241.95 185.48 C 244.93 182.57 242.83 183.52 243.47 183.39 C 244.11 183.27 245.16 184.09 245.79 184.75" fill="none" stroke="#324ab2" stroke-width="2" stroke-linejoin="round" stroke-linecap="round" stroke-miterlimit="10" pointer-events="all"/><g fill="#324ab2" font-family="Ink Free" font-weight="bold" text-anchor="middle" font-size="17px"><text x="260.5" y="225.5">Proceso</text></g><rect x="191" y="1" width="140" height="80" fill="none" stroke="none" pointer-events="all"/><path d="M 189.27 1.27 L 330.62 0.52 L 331.69 79.91 L 192.11 80.16" fill="#ffffff" stroke="none" pointer-events="all"/><path d="M 191 1 C 235.6 1.53 279.26 2.15 331 1 M 191 1 C 235.34 1.79 281.51 1.72 331 1 M 331 1 C 330.58 26.29 331.66 50.25 331 81 M 331 1 C 332.06 33.64 330.59 64.92 331 81 M 331 81 C 298.86 80.92 264.25 82.46 191 81 M 331 81 C 294.31 81.85 260.25 82.22 191 81 M 191 81 C 191.11 49.83 189.85 20.79 191 1 M 191 81 C 190.25 57.55 191.69 34.69 191 1" fill="none" stroke="#324ab2" stroke-width="2" stroke-linejoin="round" stroke-linecap="round" stroke-miterlimit="10" pointer-events="all"/><g fill="#324AB2" font-family="Ink Free" font-weight="bold" text-anchor="middle" font-size="17px"><text x="260.5" y="35.5">Controlador de</text><text x="260.5" y="55.5">la terminal</text></g><rect x="1" y="81" width="140" height="80" fill="none" stroke="none" pointer-events="all"/><path d="M 0.79 79.5 L 140.73 82.23 L 139.51 162.44 L 1.7 162.14" fill="#ffffff" stroke="none" pointer-events="all"/><path d="M 1 81 C 44.46 81.61 86.94 82.43 141 81 M 1 81 C 56.62 81.16 110.44 80.3 141 81 M 141 81 C 139.62 107.28 139.56 132.71 141 161 M 141 81 C 141.43 111.44 140.86 140.52 141 161 M 141 161 C 85.64 162.31 30.39 161.34 1 161 M 141 161 C 99.82 162.27 57.06 161.53 1 161 M 1 161 C 0.15 134.55 -0.58 112.07 1 81 M 1 161 C 1.76 141.34 1.37 122.2 1 81" fill="none" stroke="#324ab2" stroke-width="2" stroke-linejoin="round" stroke-linecap="round" stroke-miterlimit="10" pointer-events="all"/><g fill="#324AB2" font-family="Ink Free" font-weight="bold" text-anchor="middle" font-size="17px"><text x="70.5" y="115.5">Comandos</text><text x="70.5" y="135.5">de la shell</text></g><rect x="111" y="347.5" width="140" height="80" fill="none" stroke="none" pointer-events="all"/><path d="M 109.85 346.46 L 250.96 348.16 L 249.16 425.99 L 110.89 428.61" fill="#ffffff" stroke="none" pointer-events="all"/><path d="M 111 347.5 C 156.18 349.47 200.31 346.69 251 347.5 M 111 347.5 C 159.17 349.2 206.3 348.78 251 347.5 M 251 347.5 C 249.3 363.75 250.96 380.13 251 427.5 M 251 347.5 C 252.17 373.52 251.39 398.21 251 427.5 M 251 427.5 C 205.2 427.57 160.68 429.6 111 427.5 M 251 427.5 C 198.85 427.62 144.68 428.65 111 427.5 M 111 427.5 C 110.63 394.5 110.97 365.12 111 347.5 M 111 427.5 C 111.17 399.43 111.12 371.73 111 347.5" fill="none" stroke="#324ab2" stroke-width="2" stroke-linejoin="round" stroke-linecap="round" stroke-miterlimit="10" pointer-events="all"/><g fill="#324AB2" font-family="Ink Free" font-weight="bold" text-anchor="middle" font-size="17px"><text x="180.5" y="382">Otros</text><text x="180.5" y="402">procesos</text></g><rect x="375" y="318" width="136" height="80" fill="none" stroke="none" pointer-events="all"/><path d="M 375.37 319.18 L 511.07 316.37 L 510.99 399.02 L 374.48 397.1" fill="#ffffff" stroke="none" pointer-events="all"/><path d="M 375 318 C 417.78 317.29 459.48 318.7 511 318 M 375 318 C 403.6 319.05 431.55 317.85 511 318 M 511 318 C 508.34 335.23 508.86 357.09 511 398 M 511 318 C 511.54 341.81 511.65 366.3 511 398 M 511 398 C 471.11 399.41 435.09 398.95 375 398 M 511 398 C 481.25 398.5 451.25 398.42 375 398 M 375 398 C 373.67 369.72 374.54 342.9 375 318 M 375 398 C 375.08 373.73 375.2 349.75 375 318" fill="none" stroke="#324ab2" stroke-width="2" stroke-linejoin="round" stroke-linecap="round" stroke-miterlimit="10" pointer-events="all"/><g fill="#324AB2" font-family="Ink Free" font-weight="bold" text-anchor="middle" font-size="17px"><text x="442.5" y="362.5">Núcleo</text></g><rect x="391" y="118.5" width="140" height="80" fill="none" stroke="none" pointer-events="all"/><path d="M 392.9 117.91 L 531.19 118.58 L 532.81 198.05 L 390.07 199.58" fill="#ffffff" stroke="none" pointer-events="all"/><path d="M 391 118.5 C 433.89 117.83 479.67 119.45 531 118.5 M 391 118.5 C 429.72 118.94 470.16 118.95 531 118.5 M 531 118.5 C 532.98 140.71 532.36 164.06 531 198.5 M 531 118.5 C 529.3 140.1 530.32 162.4 531 198.5 M 531 198.5 C 498.76 198.53 460.97 195.57 391 198.5 M 531 198.5 C 493.88 196.66 458.3 197.46 391 198.5 M 391 198.5 C 391.11 174.94 388.51 154.68 391 118.5 M 391 198.5 C 390.99 178.03 391.27 157.76 391 118.5" fill="none" stroke="#324ab2" stroke-width="2" stroke-linejoin="round" stroke-linecap="round" stroke-miterlimit="10" pointer-events="all"/><g fill="#324AB2" font-family="Ink Free" font-weight="bold" text-anchor="middle" font-size="17px"><text x="460.5" y="153">Gestor de</text><text x="460.5" y="173">memoria</text></g><path d="M 391 178.5 L 310.18 204.18" fill="none" stroke="none" pointer-events="stroke"/><path d="M 300.17 207.36 L 311.39 196.45 L 310.18 204.18 L 315.63 209.79 Z" fill="none" stroke="none" pointer-events="all"/><path d="M 391 178.5 M 391 178.5 C 366.55 188.17 340.87 194.22 310.18 204.18 M 391 178.5 C 372.17 183.1 354.04 189.35 310.18 204.18" fill="none" stroke="#324ab2" stroke-width="2" stroke-linejoin="round" stroke-linecap="round" stroke-miterlimit="10" pointer-events="stroke"/><path d="M 300.44 207.05 C 300.44 207.05 300.44 207.05 300.44 207.05 M 300.44 207.05 C 300.44 207.05 300.44 207.05 300.44 207.05 M 309.76 208.52 C 310.82 207.58 311.94 206.27 312.39 205.5 M 309.76 208.52 C 310.26 207.73 311.01 207.08 312.39 205.5" fill="none" stroke="#324ab2" stroke-linejoin="round" stroke-linecap="round" stroke-miterlimit="10" pointer-events="all"/><path d="M 300.17 207.36 M 300.17 207.36 C 304.83 202.98 309.21 199 311.39 196.45 M 300.17 207.36 C 303.89 203.34 308.41 200.07 311.39 196.45 M 311.39 196.45 C 311.67 198.51 310.63 201.72 310.18 204.18 M 311.39 196.45 C 311.01 198.97 310.82 202.28 310.18 204.18 M 310.18 204.18 C 311.88 206.69 314.2 207.38 315.63 209.79 M 310.18 204.18 C 311.74 206.22 313.7 208.43 315.63 209.79 M 315.63 209.79 C 312.72 207.96 307.24 208.02 300.17 207.36 M 315.63 209.79 C 310.12 209.6 305.85 208.82 300.17 207.36" fill="none" stroke="#324ab2" stroke-width="2" stroke-linejoin="round" stroke-linecap="round" stroke-miterlimit="10" pointer-events="all"/><path d="M 375 338 L 298.13 258.44" fill="none" stroke="none" pointer-events="stroke"/><path d="M 290.84 250.89 L 305.6 256.1 L 298.13 258.44 L 295.53 265.82 Z" fill="none" stroke="none" pointer-events="all"/><path d="M 375 338 M 375 338 C 353.69 313.84 330 292.51 298.13 258.44 M 375 338 C 358.96 321.68 343.93 305.83 298.13 258.44" fill="none" stroke="#324ab2" stroke-width="2" stroke-linejoin="round" stroke-linecap="round" stroke-miterlimit="10" pointer-events="stroke"/><path d="M 291.1 250.6 C 291.1 250.6 291.1 250.6 291.1 250.6 M 291.1 250.6 C 291.1 250.6 291.1 250.6 291.1 250.6 M 293.85 259.62 C 294.47 257.39 296.77 256.29 299.1 253.58 M 293.85 259.62 C 294.7 258.5 296.65 256.54 299.1 253.58" fill="none" stroke="#324ab2" stroke-linejoin="round" stroke-linecap="round" stroke-miterlimit="10" pointer-events="all"/><path d="M 290.84 250.89 M 290.84 250.89 C 294.78 253.26 298.09 252.45 305.6 256.1 M 290.84 250.89 C 294.44 252.79 297.85 252.74 305.6 256.1 M 305.6 256.1 C 304.38 256.02 301.7 258.03 298.13 258.44 M 305.6 256.1 C 303.95 256.95 301.86 257.37 298.13 258.44 M 298.13 258.44 C 296.55 260.87 296.91 262.82 295.53 265.82 M 298.13 258.44 C 297.51 260.77 296.32 262.77 295.53 265.82 M 295.53 265.82 C 292.87 261.87 292.88 255.62 290.84 250.89 M 295.53 265.82 C 293.12 260.49 292.21 256.34 290.84 250.89" fill="none" stroke="#324ab2" stroke-width="2" stroke-linejoin="round" stroke-linecap="round" stroke-miterlimit="10" pointer-events="all"/><path d="M 261 81 L 261 168.26" fill="none" stroke="none" pointer-events="stroke"/><path d="M 261 178.76 L 254 164.76 L 261 168.26 L 268 164.76 Z" fill="none" stroke="none" pointer-events="all"/><path d="M 261 81 M 261 81 C 260.89 105.34 259.08 134.26 261 168.26 M 261 81 C 261.86 104.68 260.14 128.47 261 168.26" fill="none" stroke="#324ab2" stroke-width="2" stroke-linejoin="round" stroke-linecap="round" stroke-miterlimit="10" pointer-events="stroke"/><path d="M 253.71 165.1 C 253.71 165.1 253.71 165.1 253.71 165.1 M 253.71 165.1 C 253.71 165.1 253.71 165.1 253.71 165.1 M 257.78 172.61 C 259.22 171.58 259.48 170.43 261.06 168.83 M 257.78 172.61 C 258.6 171.92 259.46 170.74 261.06 168.83" fill="none" stroke="#324ab2" stroke-linejoin="round" stroke-linecap="round" stroke-miterlimit="10" pointer-events="all"/><path d="M 261 178.76 M 261 178.76 C 258.66 173.99 257.75 172.71 254 164.76 M 261 178.76 C 258.99 175.89 256.67 171.83 254 164.76 M 254 164.76 C 256.9 165.43 259.09 167.38 261 168.26 M 254 164.76 C 255.29 165.7 256.72 166.19 261 168.26 M 261 168.26 C 263.67 166.26 266.31 165.24 268 164.76 M 261 168.26 C 263.43 167.03 266.47 165.96 268 164.76 M 268 164.76 C 265.34 169.22 261.76 174.82 261 178.76 M 268 164.76 C 266.06 168.65 263.84 172.52 261 178.76" fill="none" stroke="#324ab2" stroke-width="2" stroke-linejoin="round" stroke-linecap="round" stroke-miterlimit="10" pointer-events="all"/><path d="M 141 141 L 221.62 186.46" fill="none" stroke="none" pointer-events="stroke"/><path d="M 230.77 191.62 L 215.13 190.84 L 221.62 186.46 L 222.01 178.64 Z" fill="none" stroke="none" pointer-events="all"/><path d="M 141 141 M 141 141 C 164.15 156.53 189.35 169.1 221.62 186.46 M 141 141 C 169.2 156.58 197.17 173.29 221.62 186.46" fill="none" stroke="#324ab2" stroke-width="2" stroke-linejoin="round" stroke-linecap="round" stroke-miterlimit="10" pointer-events="stroke"/><path d="M 222.02 178.63 C 222.02 178.63 222.02 178.63 222.02 178.63 M 222.02 178.63 C 222.02 178.63 222.02 178.63 222.02 178.63 M 218.87 194.44 C 222.44 190.6 225.07 189.12 226.75 185.38 M 218.87 194.44 C 221.75 191.19 225.74 187.83 226.75 185.38" fill="none" stroke="#324ab2" stroke-linejoin="round" stroke-linecap="round" stroke-miterlimit="10" pointer-events="all"/><path d="M 230.77 191.62 M 230.77 191.62 C 226.52 190.92 225.69 190.86 215.13 190.84 M 230.77 191.62 C 226.9 190.62 220.95 190.61 215.13 190.84 M 215.13 190.84 C 216.84 188.65 220.22 188.45 221.62 186.46 M 215.13 190.84 C 217.5 189.38 219.87 187.47 221.62 186.46 M 221.62 186.46 C 222.41 184.41 221.19 181.81 222.01 178.64 M 221.62 186.46 C 221.84 184.23 221.55 181.86 222.01 178.64 M 222.01 178.64 C 225.54 182.87 227.84 185.52 230.77 191.62 M 222.01 178.64 C 223.87 181.86 226.9 185.23 230.77 191.62" fill="none" stroke="#324ab2" stroke-width="2" stroke-linejoin="round" stroke-linecap="round" stroke-miterlimit="10" pointer-events="all"/><path d="M 181 347.5 L 228.52 267.01" fill="none" stroke="none" pointer-events="stroke"/><path d="M 233.86 257.97 L 232.77 273.58 L 228.52 267.01 L 220.72 266.46 Z" fill="none" stroke="none" pointer-events="all"/><path d="M 181 347.5 M 181 347.5 C 195.89 322.67 208.81 297.86 228.52 267.01 M 181 347.5 C 194.95 324.49 207.86 300.24 228.52 267.01" fill="none" stroke="#324ab2" stroke-width="2" stroke-linejoin="round" stroke-linecap="round" stroke-miterlimit="10" pointer-events="stroke"/><path d="M 220.81 266.35 C 220.81 266.35 220.81 266.35 220.81 266.35 M 220.81 266.35 C 220.81 266.35 220.81 266.35 220.81 266.35 M 230.13 267.83 C 231.84 265.72 232.04 264.13 236.69 260.28 M 230.13 267.83 C 232.41 265.19 234.3 262.54 236.69 260.28" fill="none" stroke="#324ab2" stroke-linejoin="round" stroke-linecap="round" stroke-miterlimit="10" pointer-events="all"/><path d="M 233.86 257.97 M 233.86 257.97 C 234.54 264.27 233.33 268.63 232.77 273.58 M 233.86 257.97 C 233.02 263.41 232.91 269.37 232.77 273.58 M 232.77 273.58 C 231.75 271.47 230.87 271.17 228.52 267.01 M 232.77 273.58 C 231.33 271.83 230.32 270.42 228.52 267.01 M 228.52 267.01 C 227.24 266.71 224.86 267.44 220.72 266.46 M 228.52 267.01 C 226.28 266.7 223.74 267.1 220.72 266.46 M 220.72 266.46 C 224.44 265.34 226.08 263.4 233.86 257.97 M 220.72 266.46 C 225.76 262.79 231.64 259.89 233.86 257.97" fill="none" stroke="#324ab2" stroke-width="2" stroke-linejoin="round" stroke-linecap="round" stroke-miterlimit="10" pointer-events="all"/><rect x="211" y="289.5" width="80" height="26.5" fill="none" stroke="none" pointer-events="all"/><g fill="#324AB2" font-family="Ink Free" font-weight="bold" font-size="17px"><text x="212.5" y="307.25">SIGUSR1</text></g><rect x="211" y="315" width="80" height="30.5" fill="none" stroke="none" pointer-events="all"/><g fill="#324AB2" font-family="Ink Free" font-weight="bold" font-size="17px"><text x="212.5" y="334.75">SIGUSR2</text></g><rect x="271" y="83.5" width="80" height="31" fill="none" stroke="none" pointer-events="all"/><g fill="#324AB2" font-family="Ink Free" font-weight="bold" font-size="17px"><text x="272.5" y="103.5">SIGINT</text></g><rect x="271" y="107.5" width="80" height="31" fill="none" stroke="none" pointer-events="all"/><g fill="#324AB2" font-family="Ink Free" font-weight="bold" font-size="17px"><text x="272.5" y="127.5">SIGQUIT</text></g><rect x="341" y="200.5" width="100" height="31" fill="none" stroke="none" pointer-events="all"/><g fill="#324AB2" font-family="Ink Free" font-weight="bold" font-size="17px"><text x="342.5" y="220.5">SIGSEV</text></g><rect x="346" y="280" width="90" height="31" fill="none" stroke="none" pointer-events="all"/><g fill="#324AB2" font-family="Ink Free" font-weight="bold" font-size="17px"><text x="347.5" y="300">SIGALARM</text></g><rect x="346" y="254" width="90" height="31" fill="none" stroke="none" pointer-events="all"/><g fill="#324AB2" font-family="Ink Free" font-weight="bold" font-size="17px"><text x="347.5" y="274">SIGPIPE</text></g><rect x="31" y="164.5" width="80" height="26.5" fill="none" stroke="none" pointer-events="all"/><g fill="#324AB2" font-family="Ink Free" font-weight="bold" font-size="17px"><text x="32.5" y="182.25">SIGTERM</text></g><rect x="31" y="189" width="80" height="30.5" fill="none" stroke="none" pointer-events="all"/><g fill="#324AB2" font-family="Ink Free" font-weight="bold" font-size="17px"><text x="32.5" y="208.75">SIGHUP</text></g><rect x="31" y="215.5" width="80" height="30.5" fill="none" stroke="none" pointer-events="all"/><g fill="#324AB2" font-family="Ink Free" font-weight="bold" font-size="17px"><text x="32.5" y="235.25">SIGKILL</text></g><rect x="271" y="132" width="100" height="31" fill="none" stroke="none" pointer-events="all"/><g fill="#324AB2" font-family="Ink Free" font-weight="bold" font-size="17px"><text x="272.5" y="152">SIGWINCH</text></g></g></svg>