<?xml version="1.0" encoding="UTF-8"?>
<!DOCTYPE svg PUBLIC "-//W3C//DTD SVG 1.1//EN" "http://www.w3.org/Graphics/SVG/1.1/DTD/svg11.dtd">
<svg xmlns="http://www.w3.org/2000/svg" xmlns:xlink="http://www.w3.org/1999/xlink" version="1.1" width="548px" height="183px" viewBox="-0.5 -0.5 548 183"><defs><style type="text/css">@font-face {&#xa;font-family: "Ink Free";&#xa;src: url("https://ull-esit-sistemas-operativos.github.io/ssoo-apuntes/fonts/InkFree.woff");&#xa;}&#xa;</style></defs><g><rect x="18" y="78" width="100" height="32" fill="none" stroke="none" pointer-events="all"/><g fill="#B85450" font-family="Ink Free" font-weight="bold" text-anchor="middle" font-size="17px"><text x="67.5" y="98.5">write()</text></g><rect x="418" y="0" width="100" height="30" fill="none" stroke="none" pointer-events="all"/><g fill="#B85450" font-family="Ink Free" font-weight="bold" text-anchor="middle" font-size="17px"><text x="467.5" y="19.5">read()</text></g><path d="M 249.6 -44.16 L 252.01 -51.61 L 255.12 -56.17 L 266.09 -58.65 L 277.47 -61.4 L 286.96 -58.46 L 297.46 -55.94 L 303.18 -49.48 L 303.4 -44.06 L 305.99 239.93 L 303.82 243.95 L 298.88 249.52 L 293.43 251.85 L 284.14 254.37 L 272.66 257.53 L 259.73 253.43 L 250.63 247.21 L 249.83 240.5 L 248.21 -46.05" fill="#ffffff" stroke="none" transform="rotate(78,276.5,97.73)" pointer-events="none"/><path d="M 248 -45.38 M 248 -45.38 C 249.67 -52.91 261.46 -59.86 276.5 -60.38 M 248 -45.38 C 249.19 -52.77 259.24 -59.02 276.5 -60.38 M 276.5 -60.38 C 291.01 -59.33 303.54 -54.3 305 -45.38 M 276.5 -60.38 C 292.55 -59.38 302.91 -53.55 305 -45.38 M 305 -45.38 C 305.49 33.17 303.03 110.64 305 240.85 M 305 -45.38 C 306.24 42.12 306.41 130.19 305 240.85 M 305 240.85 C 303.29 250.04 290.27 253.87 276.5 255.85 M 305 240.85 C 303.87 251.03 293.44 254.03 276.5 255.85 M 276.5 255.85 C 259.89 257.29 248.43 249.63 248 240.85 M 276.5 255.85 C 259.87 253.62 250.1 248.35 248 240.85 M 248 240.85 C 249.1 133.4 249.11 27.98 248 -45.38 M 248 240.85 C 246.61 137.53 247.09 35.26 248 -45.38" fill="none" stroke="#324ab2" stroke-width="2" stroke-linejoin="round" stroke-linecap="round" stroke-miterlimit="10" transform="rotate(78,276.5,97.73)" pointer-events="none"/><path d="M 305 -45.38 M 305 -45.38 C 306.6 -35.88 294.01 -30.77 276.5 -30.38 M 305 -45.38 C 303.58 -37.31 293.03 -29.74 276.5 -30.38 M 276.5 -30.38 C 261.73 -31.4 247.36 -36.36 248 -45.38 M 276.5 -30.38 C 261.69 -30.33 248.48 -35.1 248 -45.38" fill="none" stroke="#324ab2" stroke-width="2" stroke-linejoin="round" stroke-linecap="round" stroke-miterlimit="10" transform="rotate(78,276.5,97.73)" pointer-events="none"/><path d="M 415 69.62 M 415 69.62 C 455.96 61.56 497.22 52.17 520.54 47.25 M 415 69.62 C 454.01 62.16 490.18 55.07 520.54 47.25" fill="none" stroke="#324ab2" stroke-width="2" stroke-linejoin="round" stroke-linecap="round" stroke-miterlimit="10" pointer-events="none"/><path d="M 515.76 41.03 C 515.76 41.03 515.76 41.03 515.76 41.03 M 515.76 41.03 C 515.76 41.03 515.76 41.03 515.76 41.03 M 520.48 47.79 C 521.49 45.7 522.48 44.92 524.42 43.26 M 520.48 47.79 C 521.82 46.17 523.18 44.8 524.42 43.26" fill="none" stroke="#324ab2" stroke-linejoin="round" stroke-linecap="round" stroke-miterlimit="10" pointer-events="none"/><path d="M 530.81 45.08 M 530.81 45.08 C 526.77 48.06 522.5 53.52 518.57 54.83 M 530.81 45.08 C 527.01 47.78 522.71 51.92 518.57 54.83 M 518.57 54.83 C 519.44 51.29 519.85 49.32 520.54 47.25 M 518.57 54.83 C 519.69 51.81 520.29 49.23 520.54 47.25 M 520.54 47.25 C 519.23 45.01 517.29 43 515.67 41.13 M 520.54 47.25 C 518.39 44.6 517.02 42.5 515.67 41.13 M 515.67 41.13 C 519.59 40.78 526.85 43.41 530.81 45.08 M 515.67 41.13 C 521.76 41.73 526.61 43.7 530.81 45.08" fill="none" stroke="#324ab2" stroke-width="2" stroke-linejoin="round" stroke-linecap="round" stroke-miterlimit="10" pointer-events="none"/><path d="M 202.04 114.24 M 202.04 114.24 C 180.02 117.29 158.55 124.6 146.86 126.33 M 202.04 114.24 C 190.47 116.03 177.57 119.16 146.86 126.33" fill="none" stroke="#c2bee6" stroke-width="2" stroke-linejoin="round" stroke-linecap="round" stroke-miterlimit="10" stroke-dasharray="6 6" pointer-events="none"/><path d="M 138.25 120.97 C 138.25 120.97 138.25 120.97 138.25 120.97 M 138.25 120.97 C 138.25 120.97 138.25 120.97 138.25 120.97 M 139.04 132.26 C 141.7 128.74 142.85 127.66 145.6 124.71 M 139.04 132.26 C 140.59 129.91 142.19 128.73 145.6 124.71" fill="none" stroke="#c2bee6" stroke-linejoin="round" stroke-linecap="round" stroke-miterlimit="10" pointer-events="none"/><path d="M 138.06 121.19 C 139.33 120.69 141.8 122.14 143.07 122.65 C 144.33 123.16 145.01 123.3 145.65 124.24 C 146.28 125.17 147.01 126.8 146.89 128.26 C 146.77 129.73 145.92 132.03 144.92 133.02 C 143.91 134.02 142.13 134.51 140.89 134.24 C 139.65 133.97 138.65 132.34 137.48 131.41 C 136.32 130.48 134.17 129.88 133.9 128.66 C 133.64 127.45 134.94 125.3 135.91 124.1 C 136.88 122.91 139.14 121.91 139.74 121.47 C 140.34 121.03 139.44 121.21 139.51 121.45 M 143.84 121.54 C 144.74 122.33 145.09 124.34 145.57 125.83 C 146.06 127.31 147.06 129.29 146.75 130.46 C 146.45 131.64 144.75 132.45 143.74 132.88 C 142.74 133.32 141.93 133.36 140.73 133.08 C 139.54 132.8 137.74 131.86 136.58 131.2 C 135.43 130.54 133.71 130.33 133.8 129.12 C 133.89 127.92 136.26 125.37 137.12 123.96 C 137.98 122.55 137.97 120.98 138.95 120.64 C 139.93 120.3 142.02 121.44 143.01 121.93 C 144.01 122.43 144.71 123.68 144.91 123.62" fill="none" stroke="#c2bee6" stroke-width="2" stroke-linejoin="round" stroke-linecap="round" stroke-miterlimit="10" pointer-events="none"/><path d="M 327.25 38 C 327.25 38 327.25 38 327.25 38 M 327.25 38 C 327.25 38 327.25 38 327.25 38 M 330.66 46.27 C 333.18 43.43 335.56 41.5 336.56 39.47 M 330.66 46.27 C 332.22 43.9 333.58 42.86 336.56 39.47 M 330.79 58.31 C 336.92 52.06 346.08 43.19 349.82 36.42 M 330.79 58.31 C 337.17 51.76 343.86 43.45 349.82 36.42 M 330.93 70.35 C 339.16 59.53 348.01 51.4 359.79 37.14 M 330.93 70.35 C 337.32 62.84 344.47 55.07 359.79 37.14 M 331.06 82.39 C 342.63 70.76 353.12 56.23 366.49 41.63 M 331.06 82.39 C 340.72 70.97 352.39 57.03 366.49 41.63 M 331.19 94.43 C 340.31 82.03 352.32 71 366.62 53.68 M 331.19 94.43 C 343.99 79.57 354.2 66.86 366.62 53.68 M 331.33 106.47 C 341.69 96.86 347.75 87.88 366.1 66.47 M 331.33 106.47 C 344.34 93.37 355.89 79.2 366.1 66.47 M 331.46 118.51 C 344.61 103.12 354.41 90.83 366.23 78.51 M 331.46 118.51 C 339.03 111.15 345.37 101.86 366.23 78.51 M 330.28 132.06 C 341.5 115.71 357.86 100.67 366.36 90.55 M 330.28 132.06 C 343.36 116.02 358.77 99.43 366.36 90.55 M 338.29 135.05 C 348.55 124.51 360.27 111.6 366.5 102.59 M 338.29 135.05 C 345.72 125.02 355.33 117 366.5 102.59 M 346.95 137.28 C 350.49 131.3 356.15 125.4 366.63 114.63 M 346.95 137.28 C 351.63 131.02 358.42 126.06 366.63 114.63" fill="none" stroke="#f8cecc" stroke-linejoin="round" stroke-linecap="round" stroke-miterlimit="10" transform="rotate(78,345,83.38)" pointer-events="none"/><path d="M 326 41.61 M 326 41.61 C 326.78 37 336.48 30.32 345 31.62 M 326 41.61 C 326.34 36.81 334.5 33.25 345 31.62 M 345 31.62 C 348.41 32.3 356.79 31.54 358.44 34.55 M 345 31.62 C 347.99 33.16 354.85 30.74 358.44 34.55 M 358.44 34.55 C 363.05 37.32 364.39 40.02 364 41.61 M 358.44 34.55 C 359.8 36 363.27 37.07 364 41.61 M 364 41.61 C 363.44 62.29 365.69 79.54 364 125.17 M 364 41.61 C 364.21 66.03 363.61 90.95 364 125.17 M 364 125.17 C 363.31 128.67 363.05 129.14 358.44 132.23 M 364 125.17 C 364.46 125.75 360.77 128.6 358.44 132.23 M 358.44 132.23 C 354.24 133.91 351.59 134.46 345 135.16 M 358.44 132.23 C 353.07 132.89 350.18 136.96 345 135.16 M 345 135.16 C 336.33 134.06 325.88 130.22 326 125.17 M 345 135.16 C 334.22 136.25 326.02 132.4 326 125.17 M 326 125.17 C 327.56 96.41 324.31 71.89 326 41.61 M 326 125.17 C 326.13 98.09 325.2 71.8 326 41.61" fill="none" stroke="#b85450" stroke-width="2" stroke-linejoin="round" stroke-linecap="round" stroke-miterlimit="10" transform="rotate(78,345,83.38)" pointer-events="none"/><path d="M 364 41.61 M 364 41.61 C 365.6 45.82 362.18 45.27 358.44 48.67 M 364 41.61 C 365.99 45.98 361.82 44.5 358.44 48.67 M 358.44 48.67 C 356.11 50.74 351.79 52.77 345 51.6 M 358.44 48.67 C 352.97 49.3 351.33 51.9 345 51.6 M 345 51.6 C 335.78 52.55 325.16 48.7 326 41.61 M 345 51.6 C 334.78 51.13 324.96 48.69 326 41.61" fill="none" stroke="#b85450" stroke-width="2" stroke-linejoin="round" stroke-linecap="round" stroke-miterlimit="10" transform="rotate(78,345,83.38)" pointer-events="none"/><path d="M 14 154.62 M 14 154.62 C 56.02 143.26 102.35 137.51 128.54 130.26 M 14 154.62 C 48.17 146.93 84.32 138.93 128.54 130.26" fill="none" stroke="#324ab2" stroke-width="2" stroke-linejoin="round" stroke-linecap="round" stroke-miterlimit="10" pointer-events="none"/><path d="M 123.63 124.17 C 123.63 124.17 123.63 124.17 123.63 124.17 M 123.63 124.17 C 123.63 124.17 123.63 124.17 123.63 124.17 M 129.02 130.17 C 129.23 128.98 130.05 128.15 132.3 126.4 M 129.02 130.17 C 130.07 128.86 130.99 127.8 132.3 126.4" fill="none" stroke="#324ab2" stroke-linejoin="round" stroke-linecap="round" stroke-miterlimit="10" pointer-events="none"/><path d="M 138.81 128.08 M 138.81 128.08 C 134.74 131.89 131.38 132.68 126.57 137.84 M 138.81 128.08 C 136.89 129.65 134.08 132.47 126.57 137.84 M 126.57 137.84 C 127.71 135.18 128.3 133.95 128.54 130.26 M 126.57 137.84 C 127.23 135.48 127.77 133.52 128.54 130.26 M 128.54 130.26 C 127.22 128.18 126.15 127.84 123.66 124.14 M 128.54 130.26 C 126.29 128.19 124.98 125.25 123.66 124.14 M 123.66 124.14 C 129.52 124.19 131.76 127.67 138.81 128.08 M 123.66 124.14 C 127.4 124.35 132.73 126.57 138.81 128.08" fill="none" stroke="#324ab2" stroke-width="2" stroke-linejoin="round" stroke-linecap="round" stroke-miterlimit="10" pointer-events="none"/><path d="M 457.37 39.87 C 457.37 39.87 457.37 39.87 457.37 39.87 M 457.37 39.87 C 457.37 39.87 457.37 39.87 457.37 39.87 M 458.82 50.4 C 460.59 46.9 462.67 46.32 468.66 39.08 M 458.82 50.4 C 461.42 48.12 463.11 44.87 468.66 39.08 M 454.36 67.73 C 459.22 59.62 463.74 53.8 481.26 36.78 M 454.36 67.73 C 463.09 57.9 472.06 46.62 481.26 36.78 M 459.08 74.49 C 468.23 66.8 473.26 57.7 488.61 40.52 M 459.08 74.49 C 471.13 61 482.35 48.4 488.61 40.52 M 467.09 77.47 C 474.62 67.25 480.12 61.68 493.33 47.28 M 467.09 77.47 C 476.28 66.18 486.16 56.58 493.33 47.28 M 475.75 79.7 C 483.3 73.15 488.46 63.44 493.47 59.32 M 475.75 79.7 C 483.25 71.64 488.77 63.82 493.47 59.32" fill="none" stroke="#f8cecc" stroke-linejoin="round" stroke-linecap="round" stroke-miterlimit="10" transform="rotate(78,473,56.62)" pointer-events="none"/><path d="M 454 45.61 M 454 45.61 C 454.16 39.1 462.1 37.03 473 35.62 M 454 45.61 C 451.94 39.2 462.02 34.66 473 35.62 M 473 35.62 C 477.02 37.54 482.41 35.73 486.44 38.55 M 473 35.62 C 476 35.65 485.14 37.86 486.44 38.55 M 486.44 38.55 C 491.68 40.44 492.34 44.53 492 45.61 M 486.44 38.55 C 488.9 40.29 493.23 42.6 492 45.61 M 492 45.61 C 490.85 52.46 492.85 63.33 492 67.63 M 492 45.61 C 491.25 54.57 492.27 62.77 492 67.63 M 492 67.63 C 490.14 71.15 489.52 71.47 486.44 74.69 M 492 67.63 C 493.2 71.11 487.88 74.6 486.44 74.69 M 486.44 74.69 C 484.11 77.96 479.73 78.83 473 77.62 M 486.44 74.69 C 482.8 76.14 477.53 77.47 473 77.62 M 473 77.62 C 461.82 76.31 453.19 74.46 454 67.63 M 473 77.62 C 463.1 75.75 453.96 74.13 454 67.63 M 454 67.63 C 453.22 59.03 455.35 49.06 454 45.61 M 454 67.63 C 454.12 59.85 453.12 52.87 454 45.61" fill="none" stroke="#b85450" stroke-width="2" stroke-linejoin="round" stroke-linecap="round" stroke-miterlimit="10" transform="rotate(78,473,56.62)" pointer-events="none"/><path d="M 492 45.61 M 492 45.61 C 493.67 46.58 488.48 52.03 486.44 52.67 M 492 45.61 C 492.1 47.24 491.21 49.06 486.44 52.67 M 486.44 52.67 C 481.95 52.99 477.09 55.19 473 55.6 M 486.44 52.67 C 481.81 53.46 476.43 54.84 473 55.6 M 473 55.6 C 462.95 54.89 452.84 50.18 454 45.61 M 473 55.6 C 464.27 54.42 456.11 51.8 454 45.61" fill="none" stroke="#b85450" stroke-width="2" stroke-linejoin="round" stroke-linecap="round" stroke-miterlimit="10" transform="rotate(78,473,56.62)" pointer-events="none"/><path d="M 56.37 124.87 C 56.37 124.87 56.37 124.87 56.37 124.87 M 56.37 124.87 C 56.37 124.87 56.37 124.87 56.37 124.87 M 57.82 135.4 C 59.51 133.19 64.09 128.21 67.66 124.08 M 57.82 135.4 C 59.8 133.17 61.92 130.04 67.66 124.08 M 53.36 152.73 C 61.98 140.7 72.83 131.38 80.26 121.78 M 53.36 152.73 C 64.03 141.72 73.12 130.06 80.26 121.78 M 58.08 159.49 C 64.22 153.75 68.03 144.47 87.61 125.52 M 58.08 159.49 C 69.02 147.52 78.98 136.4 87.61 125.52 M 66.09 162.47 C 77.6 151.75 85.92 141.65 92.33 132.28 M 66.09 162.47 C 73.52 154.2 78.83 146.56 92.33 132.28 M 74.75 164.7 C 77.88 158.61 86.08 153.84 92.47 144.32 M 74.75 164.7 C 80.9 157.32 86.79 150.58 92.47 144.32" fill="none" stroke="#f8cecc" stroke-linejoin="round" stroke-linecap="round" stroke-miterlimit="10" transform="rotate(78,72,141.62)" pointer-events="none"/><path d="M 53 130.61 M 53 130.61 C 54.62 124.3 59.98 122 72 120.62 M 53 130.61 C 51.4 125.83 59.92 119.45 72 120.62 M 72 120.62 C 78.27 118.77 80.33 120.26 85.44 123.55 M 72 120.62 C 75.57 118.62 84.11 121.14 85.44 123.55 M 85.44 123.55 C 87.74 125.5 92.46 127.66 91 130.61 M 85.44 123.55 C 88.29 124.57 93.09 127.42 91 130.61 M 91 130.61 C 89.03 137.7 90.22 145 91 152.63 M 91 130.61 C 90.22 137.97 90.68 144.81 91 152.63 M 91 152.63 C 90.44 153.3 89.29 157.13 85.44 159.69 M 91 152.63 C 90.61 155.86 90.59 156.82 85.44 159.69 M 85.44 159.69 C 80.71 160.69 75.1 164.33 72 162.62 M 85.44 159.69 C 82.86 161.88 76.98 161.72 72 162.62 M 72 162.62 C 59.57 163.5 52.07 158.52 53 152.63 M 72 162.62 C 60.56 163.16 55.21 156.39 53 152.63 M 53 152.63 C 52.23 142.87 52.28 137.17 53 130.61 M 53 152.63 C 52.03 144.29 53.67 136.44 53 130.61" fill="none" stroke="#b85450" stroke-width="2" stroke-linejoin="round" stroke-linecap="round" stroke-miterlimit="10" transform="rotate(78,72,141.62)" pointer-events="none"/><path d="M 91 130.61 M 91 130.61 C 92.67 131.92 89.88 135.88 85.44 137.67 M 91 130.61 C 89.91 134.18 89.25 135.72 85.44 137.67 M 85.44 137.67 C 81.22 139.19 78.48 140.62 72 140.59 M 85.44 137.67 C 82.58 141.76 76.24 142.75 72 140.59 M 72 140.59 C 60.83 139.51 54.01 137.66 53 130.61 M 72 140.59 C 59.64 138.85 50.92 138.04 53 130.61" fill="none" stroke="#b85450" stroke-width="2" stroke-linejoin="round" stroke-linecap="round" stroke-miterlimit="10" transform="rotate(78,72,141.62)" pointer-events="none"/><g fill="#324ab2" font-family="Ink Free" font-weight="bold" pointer-events="none" text-anchor="middle" font-size="17px" transform="rotate(-12,245.48,102.17)"><text x="244.98" y="109.17">Tubería</text></g><path d="M 409.12 70.83 M 409.12 70.83 C 364.11 80.28 319.66 91.5 290.07 95.49 M 409.12 70.83 C 372.23 78.76 335.33 85.07 290.07 95.49" fill="none" stroke="#c2bee6" stroke-width="2" stroke-linejoin="round" stroke-linecap="round" stroke-miterlimit="10" stroke-dasharray="6 6" pointer-events="none"/><path d="M 411.42 64.29 C 411.42 64.29 411.42 64.29 411.42 64.29 M 411.42 64.29 C 411.42 64.29 411.42 64.29 411.42 64.29 M 412.21 75.57 C 414.93 72.54 414.96 72.53 420.09 66.52 M 412.21 75.57 C 415.27 71.81 417.77 68.51 420.09 66.52" fill="none" stroke="#c2bee6" stroke-linejoin="round" stroke-linecap="round" stroke-miterlimit="10" pointer-events="none"/><path d="M 415.03 63.75 C 416.09 63.56 417.45 64.41 418.58 65.31 C 419.71 66.2 421.6 67.8 421.79 69.12 C 421.98 70.44 420.35 72.22 419.72 73.22 C 419.08 74.23 418.93 74.86 417.95 75.16 C 416.97 75.45 415.15 75.34 413.85 75 C 412.55 74.66 410.89 74.23 410.14 73.11 C 409.38 71.99 409.13 69.74 409.33 68.29 C 409.53 66.83 410.28 65.15 411.36 64.36 C 412.44 63.58 414.82 63.69 415.83 63.57 C 416.84 63.46 417.49 63.47 417.41 63.66 M 417.24 63.76 C 418.85 64.01 420.21 64.91 421.01 66.14 C 421.82 67.37 422.14 70.03 422.06 71.16 C 421.99 72.28 421.79 72.09 420.58 72.9 C 419.37 73.72 416.33 75.75 414.78 76.04 C 413.24 76.32 412.17 75.45 411.31 74.62 C 410.46 73.79 410.05 72.5 409.66 71.06 C 409.27 69.62 408.8 67.16 408.97 65.97 C 409.14 64.79 409.3 64.5 410.69 63.96 C 412.08 63.43 416.17 62.92 417.33 62.79 C 418.49 62.66 417.61 63.09 417.63 63.18" fill="none" stroke="#c2bee6" stroke-width="2" stroke-linejoin="round" stroke-linecap="round" stroke-miterlimit="10" pointer-events="none"/></g></svg>