<?xml version="1.0" encoding="UTF-8"?>
<!DOCTYPE svg PUBLIC "-//W3C//DTD SVG 1.1//EN" "http://www.w3.org/Graphics/SVG/1.1/DTD/svg11.dtd">
<svg xmlns="http://www.w3.org/2000/svg" xmlns:xlink="http://www.w3.org/1999/xlink" version="1.1" width="667px" height="92px" viewBox="-0.5 -0.5 667 92"><defs/><g><rect x="70" y="1" width="60" height="60" fill="none" stroke="none" pointer-events="all"/><path d="M 70 1 C 94.45 2.51 116.93 -0.13 130 1 M 70 1 C 94.38 1.09 117.79 0.69 130 1 M 130 1 C 130.24 16.15 132.19 30.76 130 61 M 130 1 C 130.08 15.86 129.51 33.06 130 61 M 130 61 C 117.94 59.92 104.14 59.3 70 61 M 130 61 C 113.93 60.97 97.78 60.2 70 61 M 70 61 C 69.9 44.6 70.19 24.54 70 1 M 70 61 C 69.59 45.03 69.49 27.56 70 1" fill="none" stroke="#324ab2" stroke-width="2" stroke-linejoin="round" stroke-linecap="round" stroke-miterlimit="10" pointer-events="all"/><g fill="#324AB2" font-family="Ink Free" font-weight="bold" text-anchor="middle" font-size="17px"><text x="99.5" y="35.5">P3</text></g><rect x="0" y="71" width="25" height="20" fill="none" stroke="none" pointer-events="all"/><g fill="#324AB2" font-family="Ink Free" font-weight="bold" text-anchor="middle" font-size="17px"><text x="12" y="85.5">0</text></g><rect x="10" y="1" width="60" height="60" fill="none" stroke="none" pointer-events="all"/><path d="M 10 1 C 27.18 -0.41 44.03 0.21 70 1 M 10 1 C 23.08 1.87 36.26 2.07 70 1 M 70 1 C 71.07 19.72 69.7 37.17 70 61 M 70 1 C 69.4 19.93 69.4 38.58 70 61 M 70 61 C 56.21 58.99 39.35 62.11 10 61 M 70 61 C 47.5 59.85 24.26 60.1 10 61 M 10 61 C 8.62 46.86 11.4 36.26 10 1 M 10 61 C 10.54 47.93 9.65 36.58 10 1" fill="none" stroke="#324ab2" stroke-width="2" stroke-linejoin="round" stroke-linecap="round" stroke-miterlimit="10" pointer-events="all"/><g fill="#324AB2" font-family="Ink Free" font-weight="bold" text-anchor="middle" font-size="17px"><text x="39.5" y="35.5">P2</text></g><rect x="170" y="1" width="480" height="60" fill="none" stroke="none" pointer-events="all"/><path d="M 170 1 C 298.73 0.09 427.3 0.44 650 1 M 170 1 C 313.57 1.61 456.49 1.36 650 1 M 650 1 C 650.26 24.01 647.75 42.22 650 61 M 650 1 C 650.74 18.21 649.63 35.17 650 61 M 650 61 C 549.56 59.26 448.91 59.53 170 61 M 650 61 C 539.58 60.26 428.74 60.76 170 61 M 170 61 C 170.33 38.4 169.64 17.16 170 1 M 170 61 C 169.83 38.76 171.11 18.15 170 1" fill="none" stroke="#324ab2" stroke-width="2" stroke-linejoin="round" stroke-linecap="round" stroke-miterlimit="10" pointer-events="all"/><g fill="#324AB2" font-family="Ink Free" font-weight="bold" text-anchor="middle" font-size="17px"><text x="409.5" y="35.5">P1</text></g><rect x="130" y="1" width="40" height="60" fill="none" stroke="none" pointer-events="all"/><path d="M 130 1 C 139.53 2.33 152.66 -0.66 170 1 M 130 1 C 144.71 1.66 160.27 0.3 170 1 M 170 1 C 170.64 24.29 170.99 47.28 170 61 M 170 1 C 170.07 16.5 169.86 31.75 170 61 M 170 61 C 155.03 61.59 142.17 59.7 130 61 M 170 61 C 158.5 60.37 147.81 60.4 130 61 M 130 61 C 129.24 41.94 129.08 26.06 130 1 M 130 61 C 129.92 41.59 129.37 23.73 130 1" fill="none" stroke="#324ab2" stroke-width="2" stroke-linejoin="round" stroke-linecap="round" stroke-miterlimit="10" pointer-events="all"/><g fill="#324AB2" font-family="Ink Free" font-weight="bold" text-anchor="middle" font-size="17px"><text x="149.5" y="35.5">P4</text></g><rect x="60" y="71" width="25" height="20" fill="none" stroke="none" pointer-events="all"/><g fill="#324AB2" font-family="Ink Free" font-weight="bold" text-anchor="middle" font-size="17px"><text x="72" y="85.5">3</text></g><rect x="120" y="71" width="25" height="20" fill="none" stroke="none" pointer-events="all"/><g fill="#324AB2" font-family="Ink Free" font-weight="bold" text-anchor="middle" font-size="17px"><text x="132" y="85.5">6</text></g><rect x="160" y="71" width="25" height="20" fill="none" stroke="none" pointer-events="all"/><g fill="#324AB2" font-family="Ink Free" font-weight="bold" text-anchor="middle" font-size="17px"><text x="172" y="85.5">8</text></g><rect x="640" y="71" width="25" height="20" fill="none" stroke="none" pointer-events="all"/><g fill="#324AB2" font-family="Ink Free" font-weight="bold" text-anchor="middle" font-size="17px"><text x="652" y="85.5">32</text></g></g></svg>