<?xml version="1.0" encoding="UTF-8"?>
<!DOCTYPE svg PUBLIC "-//W3C//DTD SVG 1.1//EN" "http://www.w3.org/Graphics/SVG/1.1/DTD/svg11.dtd">
<svg xmlns="http://www.w3.org/2000/svg" xmlns:xlink="http://www.w3.org/1999/xlink" version="1.1" width="506px" height="92px" viewBox="-0.5 -0.5 506 92"><defs/><g><rect x="290" y="1" width="130" height="60" fill="none" stroke="none" pointer-events="all"/><path d="M 290 1 C 341.83 2.82 391.69 0.18 420 1 M 290 1 C 342.03 0.92 393.1 0.52 420 1 M 420 1 C 420.24 16.15 422.19 30.76 420 61 M 420 1 C 420.08 15.86 419.51 33.06 420 61 M 420 61 C 393.11 59.87 364.49 59.25 290 61 M 420 61 C 384.96 60.31 349.83 59.54 290 61 M 290 61 C 289.9 44.6 290.19 24.54 290 1 M 290 61 C 289.59 45.03 289.49 27.56 290 1" fill="none" stroke="#324ab2" stroke-width="2" stroke-linejoin="round" stroke-linecap="round" stroke-miterlimit="10" pointer-events="all"/><g fill="#324AB2" font-family="Ink Free" font-weight="bold" text-anchor="middle" font-size="17px"><text x="354.5" y="35.5">P3</text></g><rect x="0" y="71" width="25" height="20" fill="none" stroke="none" pointer-events="all"/><g fill="#324AB2" font-family="Ink Free" font-weight="bold" text-anchor="middle" font-size="17px"><text x="12" y="85.5">0</text></g><rect x="10" y="1" width="120" height="60" fill="none" stroke="none" pointer-events="all"/><path d="M 10 1 C 43.27 -0.9 76.22 -0.29 130 1 M 10 1 C 36.67 2.33 63.44 2.53 130 1 M 130 1 C 131.07 19.72 129.7 37.17 130 61 M 130 1 C 129.4 19.93 129.4 38.58 130 61 M 130 61 C 101.32 58.42 69.57 61.54 10 61 M 130 61 C 84.15 59.61 37.55 59.87 10 61 M 10 61 C 8.62 46.86 11.4 36.26 10 1 M 10 61 C 10.54 47.93 9.65 36.58 10 1" fill="none" stroke="#324ab2" stroke-width="2" stroke-linejoin="round" stroke-linecap="round" stroke-miterlimit="10" pointer-events="all"/><g fill="#324AB2" font-family="Ink Free" font-weight="bold" text-anchor="middle" font-size="17px"><text x="69.5" y="35.5">P1</text></g><rect x="420" y="1" width="70" height="60" fill="none" stroke="none" pointer-events="all"/><path d="M 420 1 C 438.72 -0.97 457.07 -0.15 490 1 M 420 1 C 441.58 1.74 461.64 1.16 490 1 M 490 1 C 490.26 24.01 487.75 42.22 490 61 M 490 1 C 490.74 18.21 489.63 35.17 490 61 M 490 61 C 475.81 60.15 461.15 60.77 420 61 M 490 61 C 473.99 60.09 457.01 61.23 420 61 M 420 61 C 420.33 38.4 419.64 17.16 420 1 M 420 61 C 419.83 38.76 421.11 18.15 420 1" fill="none" stroke="#324ab2" stroke-width="2" stroke-linejoin="round" stroke-linecap="round" stroke-miterlimit="10" pointer-events="all"/><g fill="#324AB2" font-family="Ink Free" font-weight="bold" text-anchor="middle" font-size="17px"><text x="454.5" y="35.5">P4</text></g><rect x="130" y="1" width="160" height="60" fill="none" stroke="none" pointer-events="all"/><path d="M 130 1 C 171.72 3.24 217.04 0.26 290 1 M 130 1 C 189.16 1.13 249.18 -0.23 290 1 M 290 1 C 290.64 24.29 290.99 47.28 290 61 M 290 1 C 290.07 16.5 289.86 31.75 290 61 M 290 61 C 230.49 60.88 173.08 58.99 130 61 M 290 61 C 245.97 60.38 202.76 60.41 130 61 M 130 61 C 129.24 41.94 129.08 26.06 130 1 M 130 61 C 129.92 41.59 129.37 23.73 130 1" fill="none" stroke="#324ab2" stroke-width="2" stroke-linejoin="round" stroke-linecap="round" stroke-miterlimit="10" pointer-events="all"/><g fill="#324AB2" font-family="Ink Free" font-weight="bold" text-anchor="middle" font-size="17px"><text x="209.5" y="35.5">P2</text></g><rect x="120" y="71" width="25" height="20" fill="none" stroke="none" pointer-events="all"/><g fill="#324AB2" font-family="Ink Free" font-weight="bold" text-anchor="middle" font-size="17px"><text x="132" y="85.5">6</text></g><rect x="280" y="71" width="25" height="20" fill="none" stroke="none" pointer-events="all"/><g fill="#324AB2" font-family="Ink Free" font-weight="bold" text-anchor="middle" font-size="17px"><text x="292" y="85.5">14</text></g><rect x="480" y="71" width="25" height="20" fill="none" stroke="none" pointer-events="all"/><g fill="#324AB2" font-family="Ink Free" font-weight="bold" text-anchor="middle" font-size="17px"><text x="492" y="85.5">24</text></g><rect x="410" y="71" width="25" height="20" fill="none" stroke="none" pointer-events="all"/><g fill="#324AB2" font-family="Ink Free" font-weight="bold" text-anchor="middle" font-size="17px"><text x="422" y="85.5">21</text></g></g></svg>