<?xml version="1.0" encoding="UTF-8"?>
<!DOCTYPE svg PUBLIC "-//W3C//DTD SVG 1.1//EN" "http://www.w3.org/Graphics/SVG/1.1/DTD/svg11.dtd">
<svg xmlns="http://www.w3.org/2000/svg" xmlns:xlink="http://www.w3.org/1999/xlink" version="1.1" width="626px" height="92px" viewBox="-0.5 -0.5 626 92"><defs/><g><rect x="90" y="1" width="60" height="60" fill="none" stroke="none" pointer-events="all"/><path d="M 90 1 C 114.45 2.51 136.93 -0.13 150 1 M 90 1 C 114.38 1.09 137.79 0.69 150 1 M 150 1 C 150.24 16.15 152.19 30.76 150 61 M 150 1 C 150.08 15.86 149.51 33.06 150 61 M 150 61 C 137.94 59.92 124.14 59.3 90 61 M 150 61 C 133.93 60.97 117.78 60.2 90 61 M 90 61 C 89.9 44.6 90.19 24.54 90 1 M 90 61 C 89.59 45.03 89.49 27.56 90 1" fill="none" stroke="#324ab2" stroke-width="2" stroke-linejoin="round" stroke-linecap="round" stroke-miterlimit="10" pointer-events="all"/><g fill="#324AB2" font-family="Ink Free" font-weight="bold" text-anchor="middle" font-size="17px"><text x="119.5" y="35.5">P2</text></g><rect x="0" y="71" width="25" height="20" fill="none" stroke="none" pointer-events="all"/><g fill="#324AB2" font-family="Ink Free" font-weight="bold" text-anchor="middle" font-size="17px"><text x="12" y="85.5">0</text></g><rect x="10" y="1" width="80" height="60" fill="none" stroke="none" pointer-events="all"/><path d="M 10 1 C 32.54 -0.57 54.76 0.04 90 1 M 10 1 C 27.61 2.02 45.32 2.22 90 1 M 90 1 C 91.07 19.72 89.7 37.17 90 61 M 90 1 C 89.4 19.93 89.4 38.58 90 61 M 90 61 C 71.24 58.8 49.43 61.92 10 61 M 90 61 C 59.72 59.77 28.69 60.03 10 61 M 10 61 C 8.62 46.86 11.4 36.26 10 1 M 10 61 C 10.54 47.93 9.65 36.58 10 1" fill="none" stroke="#324ab2" stroke-width="2" stroke-linejoin="round" stroke-linecap="round" stroke-miterlimit="10" pointer-events="all"/><g fill="#324AB2" font-family="Ink Free" font-weight="bold" text-anchor="middle" font-size="17px"><text x="49.5" y="35.5">P1</text></g><rect x="210" y="1" width="400" height="60" fill="none" stroke="none" pointer-events="all"/><path d="M 210 1 C 317.26 -0.18 424.32 0.28 610 1 M 210 1 C 329.79 1.72 448.71 1.39 610 1 M 610 1 C 610.26 24.01 607.75 42.22 610 61 M 610 1 C 610.74 18.21 609.63 35.17 610 61 M 610 61 C 526.4 59.08 442.53 59.43 210 61 M 610 61 C 518 60.12 425.46 60.77 210 61 M 210 61 C 210.33 38.4 209.64 17.16 210 1 M 210 61 C 209.83 38.76 211.11 18.15 210 1" fill="none" stroke="#324ab2" stroke-width="2" stroke-linejoin="round" stroke-linecap="round" stroke-miterlimit="10" pointer-events="all"/><g fill="#324AB2" font-family="Ink Free" font-weight="bold" text-anchor="middle" font-size="17px"><text x="409.5" y="35.5">P1</text></g><rect x="80" y="71" width="25" height="20" fill="none" stroke="none" pointer-events="all"/><g fill="#324AB2" font-family="Ink Free" font-weight="bold" text-anchor="middle" font-size="17px"><text x="92" y="85.5">4</text></g><rect x="140" y="71" width="25" height="20" fill="none" stroke="none" pointer-events="all"/><g fill="#324AB2" font-family="Ink Free" font-weight="bold" text-anchor="middle" font-size="17px"><text x="152" y="85.5">7</text></g><rect x="520" y="71" width="25" height="20" fill="none" stroke="none" pointer-events="all"/><g fill="#324AB2" font-family="Ink Free" font-weight="bold" text-anchor="middle" font-size="17px"><text x="532" y="85.5">26</text></g><rect x="440" y="71" width="25" height="20" fill="none" stroke="none" pointer-events="all"/><g fill="#324AB2" font-family="Ink Free" font-weight="bold" text-anchor="middle" font-size="17px"><text x="452" y="85.5">22</text></g><rect x="600" y="71" width="25" height="20" fill="none" stroke="none" pointer-events="all"/><g fill="#324AB2" font-family="Ink Free" font-weight="bold" text-anchor="middle" font-size="17px"><text x="612" y="85.5">30</text></g><rect x="150" y="1" width="60" height="60" fill="none" stroke="none" pointer-events="all"/><path d="M 150 1 C 170.03 2.27 185.93 -0.08 210 1 M 150 1 C 163.95 0.86 178.94 1.72 210 1 M 210 1 C 211.31 16.35 208.38 30.12 210 61 M 210 1 C 210.92 12.87 210.54 24.95 210 61 M 210 61 C 196.51 60.41 181.21 60.47 150 61 M 210 61 C 196.27 60.4 181.95 61.26 150 61 M 150 61 C 151.97 42.15 150.25 21.85 150 1 M 150 61 C 149.93 39.73 151.23 17.41 150 1" fill="none" stroke="#324ab2" stroke-width="2" stroke-linejoin="round" stroke-linecap="round" stroke-miterlimit="10" pointer-events="all"/><g fill="#324AB2" font-family="Ink Free" font-weight="bold" text-anchor="middle" font-size="17px"><text x="179.5" y="35.5">P3</text></g><path d="M 290 61 L 291.2 1" fill="none" stroke="none" pointer-events="stroke"/><path d="M 290 61 M 290 61 C 291.75 43.94 289.56 23.25 291.2 1 M 290 61 C 289.75 46.45 291.55 29.79 291.2 1" fill="none" stroke="#324ab2" stroke-width="2" stroke-linejoin="round" stroke-linecap="round" stroke-miterlimit="10" stroke-dasharray="6 6" pointer-events="stroke"/><path d="M 370 61 L 371.2 1" fill="none" stroke="none" pointer-events="stroke"/><path d="M 370 61 M 370 61 C 369.52 40.08 372.26 23.97 371.2 1 M 370 61 C 370.67 42.01 370.78 24.02 371.2 1" fill="none" stroke="#324ab2" stroke-width="2" stroke-linejoin="round" stroke-linecap="round" stroke-miterlimit="10" stroke-dasharray="6 6" pointer-events="stroke"/><path d="M 451.9 61 L 453.1 1" fill="none" stroke="none" pointer-events="stroke"/><path d="M 451.9 61 M 451.9 61 C 450.17 43.06 451.74 23.14 453.1 1 M 451.9 61 C 452.97 37.9 452.74 14.81 453.1 1" fill="none" stroke="#324ab2" stroke-width="2" stroke-linejoin="round" stroke-linecap="round" stroke-miterlimit="10" stroke-dasharray="6 6" pointer-events="stroke"/><path d="M 530 61 L 531.2 1" fill="none" stroke="none" pointer-events="stroke"/><path d="M 530 61 M 530 61 C 531.03 42.03 531.42 22.32 531.2 1 M 530 61 C 530.03 45.81 531.22 31.62 531.2 1" fill="none" stroke="#324ab2" stroke-width="2" stroke-linejoin="round" stroke-linecap="round" stroke-miterlimit="10" stroke-dasharray="6 6" pointer-events="stroke"/><rect x="200" y="71" width="25" height="20" fill="none" stroke="none" pointer-events="all"/><g fill="#324AB2" font-family="Ink Free" font-weight="bold" text-anchor="middle" font-size="17px"><text x="212" y="85.5">10</text></g><rect x="280" y="71" width="25" height="20" fill="none" stroke="none" pointer-events="all"/><g fill="#324AB2" font-family="Ink Free" font-weight="bold" text-anchor="middle" font-size="17px"><text x="292" y="85.5">14</text></g><rect x="360" y="71" width="25" height="20" fill="none" stroke="none" pointer-events="all"/><g fill="#324AB2" font-family="Ink Free" font-weight="bold" text-anchor="middle" font-size="17px"><text x="372" y="85.5">18</text></g></g></svg>