<?xml version="1.0" encoding="UTF-8"?>
<!DOCTYPE svg PUBLIC "-//W3C//DTD SVG 1.1//EN" "http://www.w3.org/Graphics/SVG/1.1/DTD/svg11.dtd">
<svg xmlns="http://www.w3.org/2000/svg" xmlns:xlink="http://www.w3.org/1999/xlink" version="1.1" width="506px" height="92px" viewBox="-0.5 -0.5 506 92"><defs/><g><rect x="190" y="1" width="140" height="60" fill="none" stroke="none" pointer-events="all"/><path d="M 190 1 C 245.74 2.86 299.51 0.22 330 1 M 190 1 C 245.99 0.89 301 0.5 330 1 M 330 1 C 330.24 16.15 332.19 30.76 330 61 M 330 1 C 330.08 15.86 329.51 33.06 330 61 M 330 61 C 300.99 59.86 270.25 59.24 190 61 M 330 61 C 292.25 60.22 254.41 59.44 190 61 M 190 61 C 189.9 44.6 190.19 24.54 190 1 M 190 61 C 189.59 45.03 189.49 27.56 190 1" fill="none" stroke="#324ab2" stroke-width="2" stroke-linejoin="round" stroke-linecap="round" stroke-miterlimit="10" pointer-events="all"/><g fill="#324AB2" font-family="Ink Free" font-weight="bold" text-anchor="middle" font-size="17px"><text x="259.5" y="35.5">P3</text></g><rect x="0" y="71" width="25" height="20" fill="none" stroke="none" pointer-events="all"/><g fill="#324AB2" font-family="Ink Free" font-weight="bold" text-anchor="middle" font-size="17px"><text x="12" y="85.5">0</text></g><rect x="10" y="1" width="120" height="60" fill="none" stroke="none" pointer-events="all"/><path d="M 10 1 C 43.27 -0.9 76.22 -0.29 130 1 M 10 1 C 36.67 2.33 63.44 2.53 130 1 M 130 1 C 131.07 19.72 129.7 37.17 130 61 M 130 1 C 129.4 19.93 129.4 38.58 130 61 M 130 61 C 101.32 58.42 69.57 61.54 10 61 M 130 61 C 84.15 59.61 37.55 59.87 10 61 M 10 61 C 8.62 46.86 11.4 36.26 10 1 M 10 61 C 10.54 47.93 9.65 36.58 10 1" fill="none" stroke="#324ab2" stroke-width="2" stroke-linejoin="round" stroke-linecap="round" stroke-miterlimit="10" pointer-events="all"/><g fill="#324AB2" font-family="Ink Free" font-weight="bold" text-anchor="middle" font-size="17px"><text x="69.5" y="35.5">P1</text></g><rect x="330" y="1" width="160" height="60" fill="none" stroke="none" pointer-events="all"/><path d="M 330 1 C 372.86 -1 415.36 -0.18 490 1 M 330 1 C 378.45 1.88 425.37 1.3 490 1 M 490 1 C 490.26 24.01 487.75 42.22 490 61 M 490 1 C 490.74 18.21 489.63 35.17 490 61 M 490 61 C 456.94 59.46 423.4 60.08 330 61 M 490 61 C 453.28 59.92 415.59 61.06 330 61 M 330 61 C 330.33 38.4 329.64 17.16 330 1 M 330 61 C 329.83 38.76 331.11 18.15 330 1" fill="none" stroke="#324ab2" stroke-width="2" stroke-linejoin="round" stroke-linecap="round" stroke-miterlimit="10" pointer-events="all"/><g fill="#324AB2" font-family="Ink Free" font-weight="bold" text-anchor="middle" font-size="17px"><text x="409.5" y="35.5">P2</text></g><rect x="130" y="1" width="60" height="60" fill="none" stroke="none" pointer-events="all"/><path d="M 130 1 C 144.9 2.48 163.39 -0.51 190 1 M 130 1 C 152.12 1.57 175.09 0.21 190 1 M 190 1 C 190.64 24.29 190.99 47.28 190 61 M 190 1 C 190.07 16.5 189.86 31.75 190 61 M 190 61 C 167.61 61.47 147.33 59.58 130 61 M 190 61 C 173.08 60.37 156.97 60.4 130 61 M 130 61 C 129.24 41.94 129.08 26.06 130 1 M 130 61 C 129.92 41.59 129.37 23.73 130 1" fill="none" stroke="#324ab2" stroke-width="2" stroke-linejoin="round" stroke-linecap="round" stroke-miterlimit="10" pointer-events="all"/><g fill="#324AB2" font-family="Ink Free" font-weight="bold" text-anchor="middle" font-size="17px"><text x="159.5" y="35.5">P4</text></g><rect x="120" y="71" width="25" height="20" fill="none" stroke="none" pointer-events="all"/><g fill="#324AB2" font-family="Ink Free" font-weight="bold" text-anchor="middle" font-size="17px"><text x="132" y="85.5">6</text></g><rect x="180" y="71" width="25" height="20" fill="none" stroke="none" pointer-events="all"/><g fill="#324AB2" font-family="Ink Free" font-weight="bold" text-anchor="middle" font-size="17px"><text x="192" y="85.5">9</text></g><rect x="480" y="71" width="25" height="20" fill="none" stroke="none" pointer-events="all"/><g fill="#324AB2" font-family="Ink Free" font-weight="bold" text-anchor="middle" font-size="17px"><text x="492" y="85.5">24</text></g><rect x="320" y="71" width="25" height="20" fill="none" stroke="none" pointer-events="all"/><g fill="#324AB2" font-family="Ink Free" font-weight="bold" text-anchor="middle" font-size="17px"><text x="332" y="85.5">16</text></g></g></svg>