<?xml version="1.0" encoding="UTF-8"?>
<!DOCTYPE svg PUBLIC "-//W3C//DTD SVG 1.1//EN" "http://www.w3.org/Graphics/SVG/1.1/DTD/svg11.dtd">
<svg xmlns="http://www.w3.org/2000/svg" xmlns:xlink="http://www.w3.org/1999/xlink" version="1.1" width="523px" height="464px" viewBox="-0.5 -0.5 523 464"><defs/><g><rect x="30" y="176" width="70" height="35" fill="none" stroke="none" pointer-events="all"/><g fill="#324ab2" font-family="Ink Free" font-weight="bold" text-anchor="end" font-size="17px"><text x="97.5" y="188">Modo</text><text x="97.5" y="208">usuario</text></g><rect x="0" y="232" width="100" height="40" fill="none" stroke="none" pointer-events="all"/><g fill="#324ab2" font-family="Ink Free" font-weight="bold" text-anchor="end" font-size="17px"><text x="97.5" y="246.5">Modo</text><text x="97.5" y="266.5">privilegiado</text></g><ellipse cx="260" cy="382" rx="40" ry="40" fill="none" stroke="none" pointer-events="all"/><path d="M 229.55 356.86 C 229.55 356.86 229.55 356.86 229.55 356.86 M 229.55 356.86 C 229.55 356.86 229.55 356.86 229.55 356.86 M 221.28 379.64 C 227.75 372.15 231.85 363.68 250.76 346.86 M 219.53 379.39 C 226.9 371.51 234.01 363.26 249.04 344.77 M 227.33 383.54 C 234.17 376.08 241.94 367.3 262.84 343.37 M 226.23 384.59 C 235.06 375.05 244.03 363.71 260.84 344.25 M 230.38 396.05 C 237.8 382.82 245.23 373.62 271.28 342.86 M 227.66 393.58 C 237.63 383.13 247.47 373.95 271.54 344.01 M 231.25 404.51 C 248.84 382.38 268.85 361.07 278.88 346.97 M 229.71 405.93 C 250.36 383.11 268.37 359.5 279.9 347.96 M 236.77 409.74 C 254.29 390.13 269.38 371.25 285.63 353.75 M 236.66 410.51 C 250.46 394.67 264.06 376.98 285.55 354.01 M 241.6 416.52 C 259.28 395.15 275.25 378.47 291.03 357.72 M 242.71 415.31 C 252.77 403.04 262.73 391.88 290.83 359.53 M 248.1 421.38 C 260.41 406.7 272.95 391.08 298.31 364.35 M 247.56 420.45 C 265.75 399.95 284 378.47 296.84 365.05 M 258.67 422.46 C 270.5 408.31 282 391.91 299.38 375.13 M 258.4 421.46 C 271.43 405.67 283.84 391.12 297.96 374.71 M 270.03 420.73 C 279.73 407.86 288.39 397.88 301.47 385.41 M 269.89 419.73 C 280.71 409.64 289.96 397.2 300.27 385.36" fill="none" stroke="#c2bee6" stroke-linejoin="round" stroke-linecap="round" stroke-miterlimit="10" pointer-events="all"/><path d="M 276.16 346.12 C 283.1 348.82 289.74 355.81 293.54 362.44 C 297.33 369.07 299.55 378.35 298.94 385.93 C 298.32 393.51 294.92 402.16 289.86 407.92 C 284.8 413.68 276.03 418.76 268.59 420.49 C 261.16 422.23 252.15 421.21 245.25 418.32 C 238.36 415.44 231.42 409.51 227.21 403.18 C 223.01 396.85 219.71 388.02 220.04 380.36 C 220.38 372.7 224.3 363.2 229.23 357.24 C 234.15 351.27 242.33 346.78 249.61 344.59 C 256.88 342.41 267.54 343.52 272.9 344.14 C 278.26 344.76 279.63 346.94 281.76 348.32 C 283.89 349.71 286.15 351.86 285.69 352.45 M 258.57 342.52 C 266.01 341.62 275.37 343.9 281.75 347.95 C 288.13 352 294.42 359.52 296.88 366.84 C 299.34 374.16 298.45 384.48 296.52 391.88 C 294.58 399.28 290.86 406.31 285.29 411.25 C 279.71 416.19 270.75 420.74 263.08 421.52 C 255.4 422.31 245.67 419.84 239.22 415.98 C 232.77 412.11 227.2 405.44 224.4 398.34 C 221.59 391.24 220.63 381.3 222.38 373.38 C 224.13 365.46 229.22 355.99 234.9 350.8 C 240.57 345.61 252.44 343.81 256.41 342.24 C 260.37 340.67 258.43 341.32 258.68 341.38 C 258.93 341.44 257.87 341.86 257.9 342.6" fill="none" stroke="#324ab2" stroke-width="2" stroke-linejoin="round" stroke-linecap="round" stroke-miterlimit="10" pointer-events="all"/><g fill="#324ab2" font-family="Ink Free" font-weight="bold" text-anchor="middle" font-size="17px"><text x="259.5" y="386.5">Hilo</text></g><path d="M 10 222 L 520 222" fill="none" stroke="none" pointer-events="stroke"/><path d="M 9.11 223.34 M 9.69 222.79 C 178.25 220.91 345.26 222.23 519.22 222.46 M 9.69 222.31 C 123.03 223.23 235.28 223.03 519.74 222.17" fill="none" stroke="#324ab2" stroke-width="2" stroke-linejoin="round" stroke-linecap="round" stroke-miterlimit="10" stroke-dasharray="6 6" pointer-events="stroke"/><ellipse cx="360" cy="382" rx="40" ry="40" fill="none" stroke="none" pointer-events="all"/><path d="M 325.96 363.82 C 325.96 363.82 325.96 363.82 325.96 363.82 M 325.96 363.82 C 325.96 363.82 325.96 363.82 325.96 363.82 M 321.61 380.33 C 329.72 369.96 339.87 357.04 348.8 351.38 M 323.1 379.78 C 331.1 370.75 338.89 360.65 348.74 350.52 M 324.98 389.42 C 336.82 374.81 349.13 362.89 361.27 350.61 M 322.64 390.35 C 337.81 375.01 351.03 361.22 359.47 348.27 M 325.94 398.72 C 342.59 379.22 356.09 362.91 373.08 347.92 M 327.83 397.82 C 342.06 380.12 357.51 362.5 372.84 347.52 M 329.79 405.71 C 345.41 392.46 357.13 375.63 380.77 350.86 M 332.41 405.06 C 343.08 393.01 352.9 380.54 379.29 352.16 M 335.35 414.5 C 349.04 398.49 357.61 389.01 387.15 356.76 M 337.13 412.84 C 350.33 396.71 362.99 381.99 386.2 356.45 M 344 416.09 C 360.19 399.52 375.98 381.37 390.64 358.8 M 343.79 415.61 C 359.22 400.7 372.01 383.84 393.14 359.64 M 350.89 419.1 C 362.98 405.84 373.04 396.53 394.9 368.95 M 350.31 420.85 C 360.54 409.08 372.1 398.43 396.48 368.56 M 359.19 423.34 C 370.56 409.44 386.21 394.82 401.17 377.58 M 357.84 424.28 C 371.68 407.98 384.44 394.09 399.55 375.77 M 371.75 420.82 C 383.21 409.91 391.44 396 402.72 384.71 M 370.46 421.37 C 378.42 414.14 384.44 406.73 404.02 382.41" fill="none" stroke="#c2bee6" stroke-linejoin="round" stroke-linecap="round" stroke-miterlimit="10" pointer-events="all"/><path d="M 344.26 346.56 C 350.85 343.16 361.25 342.42 368.63 344.11 C 376.01 345.8 383.49 350.96 388.55 356.71 C 393.6 362.45 398.03 371.23 398.95 378.58 C 399.87 385.93 397.74 394.62 394.06 400.79 C 390.38 406.95 383.63 412.37 376.87 415.59 C 370.12 418.81 361.18 421.38 353.54 420.1 C 345.9 418.81 336.47 413.27 331.01 407.89 C 325.54 402.51 321.6 395.16 320.75 387.83 C 319.9 380.5 322.21 370.43 325.9 363.9 C 329.58 357.36 338.59 351.67 342.86 348.63 C 347.13 345.6 348.82 346.5 351.49 345.69 C 354.16 344.88 358.59 343.44 358.88 343.76 M 376.09 345.55 C 382.89 348.13 389.33 356.13 393.16 362.82 C 396.98 369.52 399.5 378.34 399.04 385.73 C 398.59 393.12 395.23 401.71 390.43 407.15 C 385.63 412.59 377.48 416.52 370.22 418.38 C 362.97 420.24 353.98 421.07 346.9 418.32 C 339.82 415.56 331.88 408.1 327.76 401.85 C 323.64 395.6 321.96 387.86 322.18 380.81 C 322.4 373.77 324.67 365.71 329.08 359.57 C 333.49 353.43 341.22 346.25 348.64 343.97 C 356.07 341.69 369.11 345.36 373.62 345.9 C 378.14 346.44 375.52 346.78 375.74 347.21 C 375.95 347.64 375.35 347.71 374.91 348.49" fill="none" stroke="#324ab2" stroke-width="2" stroke-linejoin="round" stroke-linecap="round" stroke-miterlimit="10" pointer-events="all"/><g fill="#324ab2" font-family="Ink Free" font-weight="bold" text-anchor="middle" font-size="17px"><text x="359.5" y="386.5">Hilo</text></g><ellipse cx="160" cy="382" rx="40" ry="40" fill="none" stroke="none" pointer-events="all"/><path d="M 127.95 359.97 C 127.95 359.97 127.95 359.97 127.95 359.97 M 127.95 359.97 C 127.95 359.97 127.95 359.97 127.95 359.97 M 120.13 378.51 C 130.32 367.47 141.03 354.67 147.71 349 M 120.36 380.76 C 128.33 372.05 134.82 363.91 149.03 348.61 M 125.24 387.91 C 135.24 376.74 145.41 363.19 158.83 349.1 M 125.01 386.82 C 132.55 378.78 139.78 371.13 159.62 348.3 M 127.91 396.01 C 143.28 378.51 159.76 359.17 171.51 345.75 M 129.04 394.76 C 140.25 382.14 151.15 370.93 171.48 346.84 M 132.05 404.52 C 141.55 390.34 152.88 378.06 177.67 349.37 M 129.55 405.58 C 147.63 387.07 162.74 367.78 178.98 349.29 M 138.62 411.34 C 152.22 394.05 163.65 378.12 186.02 356.68 M 137.82 410.19 C 151.6 393.61 165.12 377.33 185.8 354.29 M 144.04 417.35 C 153.97 402.39 169.82 387.78 190.85 361.41 M 143.64 415.26 C 153.04 402.88 162.93 390.85 191.74 359.83 M 151.86 421.63 C 160.99 408.55 167.78 396.87 197.5 363.19 M 148.98 419.48 C 169.07 397.61 188.81 377.27 198.09 365.22 M 158.91 418.12 C 170.89 407.81 185.54 390.72 199.67 375.92 M 159.98 419.34 C 174.3 405.24 188.39 387.79 200.88 374.48 M 170.8 419.32 C 179.03 409.49 191.01 399 200.07 384.35 M 172.49 417.8 C 182.18 407.07 190.59 397.91 201.45 386" fill="none" stroke="#c2bee6" stroke-linejoin="round" stroke-linecap="round" stroke-miterlimit="10" pointer-events="all"/><path d="M 173.28 345.37 C 180.4 347.33 188.57 354.04 192.82 360.35 C 197.07 366.66 199.07 376 198.77 383.23 C 198.48 390.46 195.62 397.93 191.06 403.73 C 186.5 409.52 178.53 415.5 171.43 418 C 164.32 420.51 155.53 421.07 148.42 418.76 C 141.32 416.44 133.51 410.15 128.77 404.12 C 124.04 398.1 120.17 389.94 120.02 382.6 C 119.86 375.26 123.34 366.24 127.85 360.08 C 132.35 353.93 139.93 348.11 147.06 345.67 C 154.19 343.22 165.8 345.32 170.61 345.4 C 175.42 345.48 174.61 345.54 175.93 346.15 C 177.24 346.75 178.82 348.23 178.5 349.02 M 144.66 345.44 C 151.29 342.26 161.65 341.99 168.95 343.85 C 176.25 345.71 183.38 350.96 188.48 356.63 C 193.58 362.29 198.58 370.62 199.55 377.86 C 200.53 385.09 198.32 393.47 194.32 400.01 C 190.31 406.55 182.71 413.93 175.52 417.09 C 168.33 420.24 158.69 420.35 151.2 418.93 C 143.71 417.51 135.43 413.77 130.59 408.56 C 125.76 403.34 122.93 395.07 122.19 387.64 C 121.46 380.2 122.65 370.47 126.19 363.95 C 129.74 357.43 140.52 351.53 143.46 348.5 C 146.39 345.48 143.57 346.1 143.81 345.79 C 144.05 345.48 144.6 345.94 144.92 346.67" fill="none" stroke="#324ab2" stroke-width="2" stroke-linejoin="round" stroke-linecap="round" stroke-miterlimit="10" pointer-events="all"/><g fill="#324ab2" font-family="Ink Free" font-weight="bold" text-anchor="middle" font-size="17px"><text x="159.5" y="386.5">Hilo</text></g><ellipse cx="460" cy="382" rx="40" ry="40" fill="none" stroke="none" pointer-events="all"/><path d="M 437.97 349.88 C 437.97 349.88 437.97 349.88 437.97 349.88 M 437.97 349.88 C 437.97 349.88 437.97 349.88 437.97 349.88 M 427.99 372.94 C 437.14 360.13 445.91 350.32 453.41 346.44 M 428.97 372.01 C 438.28 361.78 444.85 353.69 452.11 344.51 M 430.32 384.48 C 435.68 374.66 444.91 366.08 465.15 345.13 M 428.19 385.37 C 437 374.63 446.34 365.81 464.54 343.88 M 428.08 398.39 C 443.08 377.83 459.46 358.43 470.75 345.65 M 428.44 396.8 C 443.07 378.38 458.87 360.72 470.94 348.23 M 434.4 405.64 C 443.89 391.41 450.07 380.57 479.39 349.96 M 432.78 404.4 C 445.77 390.58 457.65 376.56 479.49 350.49 M 436.09 413.28 C 453.92 392.99 473.7 368.9 487.66 352.42 M 436.7 412.63 C 453.63 394.95 469.42 375.47 488.18 353.94 M 445.55 415.93 C 462.67 392.67 480.03 374.74 491.87 362.1 M 444.97 416.22 C 460.93 397.47 477.41 379.35 491.15 360.1 M 452.92 418.46 C 470.35 401.18 485.13 382.78 496.97 368.03 M 451.74 418.42 C 469.77 400.1 485.83 381.71 496.58 368.48 M 460.17 422.75 C 469.38 407.34 483.62 395.07 501.67 373.84 M 459.66 422.24 C 474.2 404.79 490.27 387.02 499.71 374.77 M 473.36 417.39 C 479.48 411.9 488.35 403.51 500.21 387.79 M 474.02 419.81 C 480.24 410.9 485.86 403.96 501.66 387.41" fill="none" stroke="#c2bee6" stroke-linejoin="round" stroke-linecap="round" stroke-miterlimit="10" pointer-events="all"/><path d="M 462.11 343.16 C 469.1 343.23 478.64 347.17 484.59 351.99 C 490.53 356.81 495.64 364.83 497.77 372.08 C 499.9 379.34 500.02 388.29 497.36 395.52 C 494.7 402.75 488.33 411.39 481.8 415.45 C 475.27 419.52 465.97 420.52 458.18 419.93 C 450.39 419.34 440.88 416.46 435.06 411.92 C 429.24 407.37 425.14 399.98 423.26 392.67 C 421.38 385.35 421.34 375.11 423.77 368.01 C 426.2 360.9 431.77 354.16 437.84 350.03 C 443.91 345.89 455.81 344.42 460.17 343.2 C 464.53 341.99 463.22 342.52 464 342.76 C 464.78 343 464.84 343.94 464.84 344.65 M 451.17 343.04 C 458.07 341.4 469.56 344.46 476.91 347.6 C 484.25 350.74 491.42 355.69 495.23 361.86 C 499.04 368.03 500.7 376.78 499.77 384.61 C 498.84 392.45 494.71 403.12 489.63 408.88 C 484.55 414.64 476.74 417.8 469.29 419.18 C 461.84 420.56 452.02 419.97 444.93 417.17 C 437.83 414.37 430.84 408.66 426.72 402.37 C 422.6 396.08 419.84 387.16 420.19 379.42 C 420.54 371.68 423.69 361.87 428.83 355.93 C 433.97 349.99 447.04 345.58 451.04 343.77 C 455.04 341.96 452.64 344.77 452.82 345.07 C 452.99 345.38 452.15 345.38 452.1 345.6" fill="none" stroke="#324ab2" stroke-width="2" stroke-linejoin="round" stroke-linecap="round" stroke-miterlimit="10" pointer-events="all"/><g fill="#324ab2" font-family="Ink Free" font-weight="bold" text-anchor="middle" font-size="17px"><text x="459.5" y="386.5">Hilo</text></g><rect x="228.5" y="442" width="160" height="20" fill="none" stroke="none" pointer-events="all"/><g fill="#324ab2" font-family="Ink Free" font-weight="bold" text-anchor="middle" font-size="17px"><text x="308" y="456.5">Hilos de núcleo</text></g><path d="M 160 102 L 160 342" fill="none" stroke="none" pointer-events="stroke"/><path d="M 159.12 100.15 M 160.71 103.29 C 162.88 187.7 160.78 276.08 161.08 340.63 M 159.97 102.36 C 159.77 150.07 160.58 198.88 160.3 341.17" fill="none" stroke="#324ab2" stroke-width="2" stroke-linejoin="round" stroke-linecap="round" stroke-miterlimit="10" pointer-events="stroke"/><path d="M 259.5 102 L 259.5 342" fill="none" stroke="none" pointer-events="stroke"/><path d="M 258.62 100.49 M 258.27 102.59 C 259.1 168.79 260.14 236.47 260.94 341.91 M 259 102.2 C 260.88 185.47 261.14 267.39 259.95 341.62" fill="none" stroke="#324ab2" stroke-width="2" stroke-linejoin="round" stroke-linecap="round" stroke-miterlimit="10" pointer-events="stroke"/><path d="M 359.5 102 L 359.5 342" fill="none" stroke="none" pointer-events="stroke"/><path d="M 358.62 100.83 M 359.67 101.89 C 359.16 149.88 360 200.19 357.96 343.2 M 360.2 102.05 C 360.82 171.2 360.52 239.91 360.09 342.07" fill="none" stroke="#324ab2" stroke-width="2" stroke-linejoin="round" stroke-linecap="round" stroke-miterlimit="10" pointer-events="stroke"/><path d="M 459.5 102 L 459.5 342" fill="none" stroke="none" pointer-events="stroke"/><path d="M 458.62 101.17 M 461.07 101.19 C 459.21 178.97 456.53 256.58 458.32 341.15 M 459.73 101.89 C 458.43 156.93 457.57 212.43 460.24 342.52" fill="none" stroke="#324ab2" stroke-width="2" stroke-linejoin="round" stroke-linecap="round" stroke-miterlimit="10" pointer-events="stroke"/><path d="M 160 92 Q 170 82 160 77 Q 150 72 160 67 Q 170 62 160 57 Q 150 52 160 47 Q 170 42 160 37 Q 150 32 160 27 Q 170 22 160 17 Q 150 12 160 2" fill="none" stroke="none" pointer-events="stroke"/><path d="M 159.12 93.96 M 160 92 C 166.25 83.8 165.63 78.5 161.6 78.74 M 161.67 91.3 C 164.82 83.57 168.44 79.74 160.28 76.07 M 160 77 C 152.02 75.14 152.62 72.12 161.45 65.77 M 161.22 78.38 C 151.5 72.73 154.04 70.48 158.91 69.14 M 160 67 C 165.24 62.18 167.03 59.74 161.22 57.68 M 160.23 68.71 C 166.22 62.75 167.86 62.33 160.3 55.53 M 160 57 C 153.89 55.02 154.6 49.22 159.47 46.24 M 160.4 55.26 C 153.16 52.42 151.19 51.53 159.07 49.24 M 160 47 C 166.4 43.21 166.02 38.57 161.92 38.57 M 160.32 48.62 C 167.77 41.63 166.42 38.81 160.67 37.86 M 160 37 C 152.18 35.06 151.53 31.07 161.42 28.1 M 161.37 37.05 C 151.82 35.49 151.39 28.34 158.3 27.5 M 160 27 C 166.89 24.76 168.24 20.26 159.83 15.71 M 159.64 25.54 C 165.1 24.86 167.24 19.76 158.16 16.43 M 160 17 C 153.12 13.42 154.68 7.41 160.03 3.78 M 159.91 16.9 C 151.29 15.18 152.71 10 160.96 2.79" fill="none" stroke="#324ab2" stroke-width="2" stroke-linejoin="round" stroke-linecap="round" stroke-miterlimit="10" pointer-events="stroke"/><path d="M 258.5 92 Q 268.5 82 258.5 77 Q 248.5 72 258.5 67 Q 268.5 62 258.5 57 Q 248.5 52 258.5 47 Q 268.5 42 258.5 37 Q 248.5 32 258.5 27 Q 268.5 22 258.5 17 Q 248.5 12 258.5 2" fill="none" stroke="none" pointer-events="stroke"/><path d="M 258.63 91.27 M 258.5 92 C 265.25 83.86 263.93 80.98 260.37 76.36 M 257.55 92.69 C 264.8 86.55 264.59 79.62 257.02 78.45 M 258.5 77 C 252.98 72.57 251.62 68.6 257.37 67.65 M 260.42 78.49 C 249.96 72.01 250.24 69.69 258.29 65.2 M 258.5 67 C 263.26 64.99 264.78 58.85 259.75 56.26 M 256.9 68.86 C 267.39 64.34 262.97 61.54 259.32 58.12 M 258.5 57 C 251.35 52.57 251.38 49.86 259.85 45.8 M 257.52 57.44 C 252.85 55.2 250.86 51.95 260.43 46.48 M 258.5 47 C 266.78 45.05 265.2 40.88 258.13 35.98 M 259.47 48.52 C 264.45 45.49 265.39 41.28 259.8 35.78 M 258.5 37 C 252.58 32.28 253.01 31.78 259.72 26.14 M 259.07 35.45 C 251.48 33.97 253.25 28.3 258.65 28.78 M 258.5 27 C 267.07 23.7 264.35 18.51 258.88 18.7 M 260.27 28.23 C 263.74 25.81 265.67 18.78 257.19 15.69 M 258.5 17 C 251.04 11.87 250.76 7 259.51 1.72 M 259.19 16.95 C 252.59 13.7 250.25 9.5 259.84 0.84" fill="none" stroke="#324ab2" stroke-width="2" stroke-linejoin="round" stroke-linecap="round" stroke-miterlimit="10" pointer-events="stroke"/><path d="M 358.5 92 Q 368.5 82 358.5 77 Q 348.5 72 358.5 67 Q 368.5 62 358.5 57 Q 348.5 52 358.5 47 Q 368.5 42 358.5 37 Q 348.5 32 358.5 27 Q 368.5 22 358.5 17 Q 348.5 12 358.5 2" fill="none" stroke="none" pointer-events="stroke"/><path d="M 358.63 91.61 M 358.5 92 C 364.22 85.54 367.1 78.42 358.78 75.22 M 357.82 93.9 C 366.57 85.24 365.4 82.53 359.77 78.94 M 358.5 77 C 351.15 75.06 352.46 72.11 360.25 67.28 M 356.77 75.57 C 350.24 75.57 353.96 69.45 356.51 69.27 M 358.5 67 C 364.39 62.35 363.41 59.66 360.11 55.65 M 359.49 65.26 C 363.4 62.11 366.2 60.05 357.58 58.44 M 358.5 57 C 351.33 55.62 353.17 48.89 360.16 48.32 M 359.33 57.76 C 350.09 54.65 352.61 49.91 357.28 46.29 M 358.5 47 C 364.61 43.58 364.8 38.87 358.24 37.69 M 359.35 46.6 C 366.6 42.36 367.36 40.43 357.2 35.15 M 358.5 37 C 350.76 34.87 353.8 31.05 360.2 27.66 M 358.3 36.11 C 351.99 34.76 350.33 28.53 356.85 28.77 M 358.5 27 C 363.47 25.12 363.39 22.33 357.77 18.68 M 358.53 28.46 C 364.31 23.79 365.65 21.66 360.55 15.15 M 358.5 17 C 352.16 14.01 351.1 10.38 356.56 1.79 M 359.93 16.79 C 351.1 12.65 351.48 7.51 358.96 1.84" fill="none" stroke="#324ab2" stroke-width="2" stroke-linejoin="round" stroke-linecap="round" stroke-miterlimit="10" pointer-events="stroke"/><path d="M 460 92 Q 470 82 460 77 Q 450 72 460 67 Q 470 62 460 57 Q 450 52 460 47 Q 470 42 460 37 Q 450 32 460 27 Q 470 22 460 17 Q 450 12 460 2" fill="none" stroke="none" pointer-events="stroke"/><path d="M 460.13 91.95 M 460 92 C 464.68 87.22 467.76 79.86 458.68 78.08 M 459.59 91.11 C 465.25 83.93 467.71 80.84 459.43 74.84 M 460 77 C 454.82 73.54 454.8 71.61 460.63 66.91 M 458.62 76.64 C 452.03 74.54 454.57 69.21 460.84 68.73 M 460 67 C 467.02 63.72 467.54 60.48 461.97 55.04 M 459.59 65.66 C 465.51 64.47 466.34 58.56 461.93 58.76 M 460 57 C 452.81 54.67 452.45 51.92 461.97 46.84 M 458.64 58.08 C 453.42 54.09 451.27 52.48 460.24 46.1 M 460 47 C 467.93 42.11 465.89 40.85 459.86 35.41 M 460.73 48.68 C 465.66 43.84 466.24 39.58 460.7 39.12 M 460 37 C 454.44 33.46 452.1 30.33 458.17 25.19 M 459.03 36.76 C 454.01 35.56 453.51 28.76 461.15 28.77 M 460 27 C 465.37 22.54 467.94 22.14 458.15 18.65 M 458.28 28.7 C 466.37 21.76 467.12 19.95 460.82 19.21 M 460 17 C 454.78 12.14 452.94 9.76 459.11 1.85 M 458.17 16.63 C 451.12 11.59 454.22 10.13 459.58 2.85" fill="none" stroke="#324ab2" stroke-width="2" stroke-linejoin="round" stroke-linecap="round" stroke-miterlimit="10" pointer-events="stroke"/></g></svg>