<?xml version="1.0" encoding="UTF-8"?>
<!DOCTYPE svg PUBLIC "-//W3C//DTD SVG 1.1//EN" "http://www.w3.org/Graphics/SVG/1.1/DTD/svg11.dtd">
<svg xmlns="http://www.w3.org/2000/svg" xmlns:xlink="http://www.w3.org/1999/xlink" version="1.1" width="523px" height="442px" viewBox="-0.5 -0.5 523 442"><defs><style type="text/css">@font-face {&#xa;font-family: "Ink Free";&#xa;src: url("https://ull-esit-sistemas-operativos.github.io/ssoo-apuntes/fonts/InkFree.woff");&#xa;}&#xa;</style></defs><g><rect x="30" y="195" width="70" height="35" fill="none" stroke="none" pointer-events="all"/><g fill="#324ab2" font-family="Ink Free" font-weight="bold" text-anchor="end" font-size="17px"><text x="97.5" y="207">Modo</text><text x="97.5" y="227">usuario</text></g><rect x="0" y="251" width="100" height="40" fill="none" stroke="none" pointer-events="all"/><g fill="#324ab2" font-family="Ink Free" font-weight="bold" text-anchor="end" font-size="17px"><text x="97.5" y="265.5">Modo</text><text x="97.5" y="285.5">privilegiado</text></g><ellipse cx="308.5" cy="401" rx="40" ry="40" fill="none" stroke="none" pointer-events="all"/><path d="M 285.83 370.09 C 285.83 370.09 285.83 370.09 285.83 370.09 M 285.83 370.09 C 285.83 370.09 285.83 370.09 285.83 370.09 M 277.59 392.17 C 285.56 384.58 292.47 374.7 300.76 363.63 M 276.69 392.82 C 284.99 384.36 292.98 373.68 302.52 364.25 M 273.64 405.85 C 285.99 395.26 296.79 386.09 312.33 363.87 M 276.51 405.75 C 288.06 390.99 299.97 377.32 311.36 364.5 M 276.99 417.23 C 294.31 396.86 310.44 380.09 320.3 367.02 M 276.73 417.86 C 290.21 401.91 305.83 384.56 321.93 365.25 M 280.67 423.28 C 298.09 403.78 315.07 386.06 330.63 371.11 M 281.18 424.31 C 296.69 405.01 313.8 385.2 329.23 369.8 M 283.98 431.45 C 302.11 410.92 319.26 393.58 338.94 372.29 M 285.28 431.73 C 298.94 415.52 311.2 401.96 337.04 372.85 M 292.53 438.02 C 305.03 421.1 316.64 405.74 340.14 379.9 M 289.88 436.92 C 304.28 422.7 318.79 405.35 341.28 379.85 M 299.72 438.64 C 314.97 421.45 326.67 409.05 347.03 387.85 M 298.42 439.56 C 315.1 419.65 333.92 400.4 346.31 386.59 M 309.76 438.92 C 319.14 428.1 329.62 418.86 350.01 392.99 M 309.75 441.06 C 318.03 430.49 328.3 418.38 350.44 393.85 M 323.61 434.53 C 335.86 423.71 346.61 412.74 351.9 404.08 M 323.81 436.98 C 330.18 430.18 335.33 422.2 350.51 404.6" fill="none" stroke="#c2bee6" stroke-linejoin="round" stroke-linecap="round" stroke-miterlimit="10" pointer-events="all"/><path d="M 309.8 361.13 C 317.1 360.77 326.71 364.27 332.6 368.84 C 338.49 373.4 343.09 381.11 345.12 388.5 C 347.16 395.88 347.24 405.61 344.83 413.16 C 342.43 420.7 336.6 429.23 330.7 433.79 C 324.8 438.34 316.93 440.62 309.42 440.49 C 301.92 440.36 292.05 437.5 285.68 433.02 C 279.31 428.53 273.51 420.82 271.2 413.56 C 268.88 406.3 269.38 396.69 271.81 389.46 C 274.23 382.23 279.74 374.83 285.75 370.18 C 291.75 365.53 302.45 362.72 307.83 361.58 C 313.22 360.44 314.9 362.52 318.06 363.35 C 321.23 364.19 327.03 365.99 326.84 366.58 M 317.89 361.18 C 324.57 362.4 332.01 369.84 337.07 375.74 C 342.14 381.64 347.47 389.15 348.27 396.59 C 349.08 404.03 346.19 413.52 341.9 420.37 C 337.61 427.22 329.22 434.44 322.53 437.69 C 315.84 440.95 308.8 441.57 301.78 439.91 C 294.76 438.25 285.93 433.39 280.41 427.73 C 274.89 422.07 269.74 413.55 268.66 405.95 C 267.57 398.34 269.85 389.15 273.91 382.1 C 277.96 375.06 286.07 367.18 293.01 363.69 C 299.94 360.19 311.18 361.31 315.52 361.14 C 319.86 360.98 318.54 362.25 319.06 362.71 C 319.59 363.16 318.97 363.29 318.7 363.88" fill="none" stroke="#324ab2" stroke-width="2" stroke-linejoin="round" stroke-linecap="round" stroke-miterlimit="10" pointer-events="all"/><g fill="#324ab2" font-family="Ink Free" font-weight="bold" text-anchor="middle" font-size="17px"><text x="308" y="405.5">Proceso</text></g><ellipse cx="260" cy="81" rx="40" ry="40" fill="none" stroke="none" pointer-events="all"/><path d="M 252.08 41.97 C 258.69 39.98 267.27 41.62 274.04 44.57 C 280.81 47.53 288.77 53.22 292.71 59.69 C 296.66 66.17 298.04 75.63 297.72 83.41 C 297.4 91.2 295.28 100.21 290.77 106.4 C 286.26 112.6 278.24 118.55 270.65 120.59 C 263.06 122.63 252.52 121.55 245.22 118.65 C 237.92 115.75 230.67 109.83 226.82 103.2 C 222.98 96.56 221.65 86.82 222.16 78.85 C 222.68 70.87 225.43 61.41 229.9 55.34 C 234.38 49.28 244.78 45.02 249.01 42.47 C 253.24 39.91 253.35 40.09 255.28 40.01 C 257.21 39.94 260.42 41.2 260.59 42 M 275.69 43.83 C 282.22 46.24 289.62 53.66 293.46 60.83 C 297.31 67.99 299.5 78.78 298.74 86.81 C 297.98 94.85 294.29 103.53 288.91 109.03 C 283.54 114.52 273.95 118.46 266.49 119.78 C 259.02 121.11 250.92 120 244.11 116.96 C 237.3 113.92 229.45 108.11 225.6 101.56 C 221.75 95.01 220.1 85.42 221.02 77.64 C 221.95 69.85 226.3 60.73 231.15 54.85 C 235.99 48.97 242.85 44.08 250.11 42.34 C 257.36 40.61 270.3 44.14 274.68 44.43 C 279.06 44.71 275.95 43.99 276.37 44.04 C 276.79 44.1 277.32 44.26 277.18 44.76" fill="none" stroke="#324ab2" stroke-width="2" stroke-linejoin="round" stroke-linecap="round" stroke-miterlimit="10" pointer-events="all"/><g fill="#324ab2" font-family="Ink Free" font-weight="bold" text-anchor="middle" font-size="17px"><text x="259.5" y="85.5">Hilo</text></g><ellipse cx="360" cy="81" rx="40" ry="40" fill="none" stroke="none" pointer-events="all"/><path d="M 341.45 45.46 C 347.57 41.29 357.47 39.61 365 40.72 C 372.53 41.84 381.02 46.72 386.61 52.16 C 392.19 57.59 397.08 65.81 398.53 73.31 C 399.99 80.82 398.48 90.05 395.35 97.17 C 392.21 104.29 386.24 111.93 379.71 116.04 C 373.18 120.15 363.61 122.59 356.18 121.84 C 348.74 121.08 340.87 116.72 335.11 111.5 C 329.35 106.28 323.35 98.38 321.6 90.51 C 319.84 82.65 321.62 71.72 324.6 64.3 C 327.57 56.88 336.01 49.63 339.42 45.99 C 342.82 42.35 343.31 43.2 345.02 42.47 C 346.73 41.73 349.21 40.96 349.68 41.58 M 347.62 42.23 C 354.25 39.04 363.38 40.42 370.38 42.65 C 377.39 44.88 384.82 49.64 389.64 55.62 C 394.46 61.6 399.04 70.88 399.29 78.54 C 399.54 86.19 395.13 94.62 391.15 101.56 C 387.17 108.5 382.11 116.96 375.41 120.17 C 368.71 123.38 358.34 122.94 350.94 120.83 C 343.53 118.72 336.14 113.61 330.98 107.5 C 325.82 101.39 320.64 92.2 319.99 84.16 C 319.34 76.12 322.92 66.16 327.05 59.24 C 331.19 52.32 341.34 45.16 344.8 42.64 C 348.26 40.12 347.35 43.83 347.81 44.13 C 348.27 44.44 347.43 44.01 347.54 44.47" fill="none" stroke="#324ab2" stroke-width="2" stroke-linejoin="round" stroke-linecap="round" stroke-miterlimit="10" pointer-events="all"/><g fill="#324ab2" font-family="Ink Free" font-weight="bold" text-anchor="middle" font-size="17px"><text x="359.5" y="85.5">Hilo</text></g><path d="M 188.28 149.28 L 310 241" fill="none" stroke="none" pointer-events="stroke"/><path d="M 187.4 150.93 M 187.12 147.74 C 232.05 183.06 274.53 216.52 308.62 240.76 M 188.26 148.37 C 214.91 170.7 241.6 190.89 309.98 240.55" fill="none" stroke="#324ab2" stroke-width="2" stroke-linejoin="round" stroke-linecap="round" stroke-miterlimit="10" pointer-events="stroke"/><ellipse cx="160" cy="121" rx="40" ry="40" fill="none" stroke="none" pointer-events="all"/><path d="M 169.98 81.79 C 177.05 82.91 185.32 87.97 190.13 93.91 C 194.94 99.86 198.37 109.32 198.85 117.47 C 199.32 125.62 197.04 135.8 192.98 142.79 C 188.92 149.77 181.34 156.22 174.48 159.38 C 167.62 162.54 159.14 163.48 151.81 161.74 C 144.49 160.01 135.48 155.03 130.53 148.99 C 125.59 142.95 122.84 133.58 122.14 125.5 C 121.44 117.42 122.72 107.56 126.36 100.49 C 129.99 93.42 137.24 86.46 143.94 83.08 C 150.64 79.69 162.21 80.5 166.56 80.18 C 170.9 79.85 169.26 80.75 170.03 81.14 C 170.79 81.53 171.29 81.66 171.14 82.5 M 154.14 80.07 C 160.98 78.53 171.65 80.36 178.13 83.93 C 184.61 87.49 189.53 94.49 193.03 101.46 C 196.53 108.43 200.27 117.58 199.13 125.76 C 197.99 133.95 191.71 144.53 186.22 150.58 C 180.72 156.63 173.54 160.71 166.15 162.04 C 158.76 163.37 148.32 162.11 141.87 158.55 C 135.42 154.99 130.88 147.88 127.46 140.7 C 124.04 133.51 120.45 123.24 121.36 115.46 C 122.27 107.69 127.77 99.77 132.94 94.05 C 138.12 88.32 148.94 83.35 152.42 81.12 C 155.91 78.88 153.45 80.74 153.83 80.66 C 154.22 80.58 154.5 80.19 154.74 80.64" fill="none" stroke="#324ab2" stroke-width="2" stroke-linejoin="round" stroke-linecap="round" stroke-miterlimit="10" pointer-events="all"/><g fill="#324ab2" font-family="Ink Free" font-weight="bold" text-anchor="middle" font-size="17px"><text x="159.5" y="125.5">Hilo</text></g><ellipse cx="460" cy="121" rx="40" ry="40" fill="none" stroke="none" pointer-events="all"/><path d="M 458.78 80.29 C 465.91 79.72 475.01 83.08 481.39 87.66 C 487.76 92.23 494.53 100.11 497.05 107.77 C 499.56 115.42 498.59 125.91 496.48 133.58 C 494.37 141.24 490.2 148.99 484.38 153.76 C 478.56 158.53 469.09 162.02 461.58 162.17 C 454.06 162.32 445.54 158.99 439.3 154.65 C 433.07 150.3 426.88 143.64 424.17 136.1 C 421.47 128.56 421.23 117.34 423.07 109.41 C 424.92 101.48 429.38 93.3 435.22 88.52 C 441.07 83.74 453.44 82.23 458.14 80.74 C 462.84 79.25 461.49 79.41 463.42 79.58 C 465.36 79.76 469.67 81.09 469.76 81.81 M 460.89 79.58 C 468.14 79.78 478.96 84.51 485.14 89.78 C 491.32 95.06 495.95 103.52 497.99 111.2 C 500.03 118.88 500.36 128.49 497.38 135.87 C 494.4 143.25 486.42 151.1 480.13 155.5 C 473.83 159.9 466.88 162.38 459.61 162.24 C 452.34 162.11 442.71 159.55 436.5 154.67 C 430.29 149.79 424.39 140.93 422.36 132.96 C 420.33 124.98 421.89 114.51 424.33 106.84 C 426.78 99.17 431.01 91.69 437.02 86.92 C 443.02 82.15 456.02 79.58 460.37 78.24 C 464.71 76.89 462.79 78.32 463.09 78.85 C 463.39 79.38 462.3 80.53 462.17 81.44" fill="none" stroke="#324ab2" stroke-width="2" stroke-linejoin="round" stroke-linecap="round" stroke-miterlimit="10" pointer-events="all"/><g fill="#324ab2" font-family="Ink Free" font-weight="bold" text-anchor="middle" font-size="17px"><text x="459.5" y="125.5">Hilo</text></g><path d="M 320 241 L 520 241" fill="none" stroke="none" pointer-events="stroke"/><path d="M 318.68 242.98 M 321.47 239.68 C 375.53 240.85 429.73 240.67 521.64 240.61 M 320.85 240.87 C 385.78 241.64 451.54 242.21 520.81 240.55" fill="none" stroke="#324ab2" stroke-width="2" stroke-linejoin="round" stroke-linecap="round" stroke-miterlimit="10" stroke-dasharray="6 6" pointer-events="stroke"/><rect x="228.5" y="1" width="160" height="20" fill="none" stroke="none" pointer-events="all"/><g fill="#324ab2" font-family="Ink Free" font-weight="bold" text-anchor="middle" font-size="17px"><text x="308" y="15.5">Hilos de usuario</text></g><path d="M 10 241 L 300 241" fill="none" stroke="none" pointer-events="stroke"/><path d="M 9.11 240.61 M 10.57 240.61 C 78.14 239.56 146.27 239.71 300.05 239.88 M 9.5 241.15 C 115.03 240.28 220.08 240.85 300.7 241.24" fill="none" stroke="#324ab2" stroke-width="2" stroke-linejoin="round" stroke-linecap="round" stroke-miterlimit="10" stroke-dasharray="6 6" pointer-events="stroke"/><path d="M 271.93 119.18 L 310 241" fill="none" stroke="none" pointer-events="stroke"/><path d="M 271.05 121.17 M 272.45 120.81 C 281.92 152.8 295.47 185.35 309.05 242.31 M 271.35 120.08 C 284.76 163.16 299.64 208 310.16 241.09" fill="none" stroke="#324ab2" stroke-width="2" stroke-linejoin="round" stroke-linecap="round" stroke-miterlimit="10" pointer-events="stroke"/><path d="M 431.72 149.28 L 310 241" fill="none" stroke="none" pointer-events="stroke"/><path d="M 430.84 147.61 M 429.92 150.07 C 383.88 186.07 334.62 223.5 309.48 239.85 M 432.58 149.99 C 394.57 176.79 357.32 205.93 310.33 241.63" fill="none" stroke="#324ab2" stroke-width="2" stroke-linejoin="round" stroke-linecap="round" stroke-miterlimit="10" pointer-events="stroke"/><path d="M 308.5 361 L 308.5 241" fill="none" stroke="none" pointer-events="stroke"/><path d="M 307.62 362.81 M 307.67 359.38 C 309.1 330.59 310.82 301.54 309.37 241.81 M 309.02 361.61 C 308.92 330.41 308.55 299.45 308.69 241.47" fill="none" stroke="#324ab2" stroke-width="2" stroke-linejoin="round" stroke-linecap="round" stroke-miterlimit="10" pointer-events="stroke"/><path d="M 342 121 L 310 241" fill="none" stroke="none" pointer-events="stroke"/><path d="M 341.12 119.4 M 343.34 120.42 C 334.26 156.21 322.02 189.53 310.67 242.91 M 341.78 120.72 C 332.02 164.36 319.61 205.9 310.66 241.39" fill="none" stroke="#324ab2" stroke-width="2" stroke-linejoin="round" stroke-linecap="round" stroke-miterlimit="10" pointer-events="stroke"/></g></svg>