<?xml version="1.0" encoding="UTF-8"?>
<!DOCTYPE svg PUBLIC "-//W3C//DTD SVG 1.1//EN" "http://www.w3.org/Graphics/SVG/1.1/DTD/svg11.dtd">
<svg xmlns="http://www.w3.org/2000/svg" xmlns:xlink="http://www.w3.org/1999/xlink" version="1.1" width="620px" height="482px" viewBox="-0.5 -0.5 620 482"><defs/><g><rect x="0" y="251" width="97" height="40" fill="none" stroke="none" pointer-events="all"/><g fill="#324ab2" font-family="Ink Free" font-weight="bold" text-anchor="end" font-size="17px"><text x="94.5" y="265.5">Modo</text><text x="94.5" y="285.5">privilegiado</text></g><ellipse cx="305.5" cy="401" rx="40" ry="40" fill="none" stroke="none" pointer-events="all"/><path d="M 277.56 375.17 C 277.56 375.17 277.56 375.17 277.56 375.17 M 277.56 375.17 C 277.56 375.17 277.56 375.17 277.56 375.17 M 266.39 397.07 C 276.95 389.45 283.83 378.44 296.6 364.34 M 267.3 397.65 C 277.69 385.66 289.68 374.1 298.43 363.47 M 271.15 407.08 C 279.85 395.1 290.15 387.27 303.51 368.02 M 269.64 407.56 C 281.06 397.07 290.89 384.47 305.26 367.72 M 271.77 415.76 C 281.02 407.8 290.99 395.41 315.16 367.06 M 273.67 417.83 C 283.53 403.55 295.98 391.63 314.54 369.45 M 275.9 423.15 C 295.22 403.13 309.42 384.79 326.14 370.87 M 277.39 424.83 C 291.47 408.46 305.46 392.95 325.1 368.18 M 281.39 430.81 C 299.72 410.74 317.86 388.76 331.92 374.7 M 281.91 430.39 C 300.52 411.75 315.8 392.77 332.03 374.25 M 290.01 434.17 C 305.83 418.67 320.82 399.5 337.12 380.15 M 288.9 435.82 C 303.08 417.47 319.58 400.49 337.68 379.99 M 296 436.46 C 312.34 417.88 328.51 399.06 341.62 386.04 M 297.79 436.78 C 306.48 426.23 315.17 416.23 341.43 386.48 M 309.34 438.22 C 318.46 426.16 329.58 412.48 345.04 394.98 M 306.87 438.39 C 315.99 428.89 324.7 418.09 344.97 396.85 M 316.27 442.72 C 325.65 430.07 332.14 419.31 342.51 407.38 M 314.41 441.57 C 326.96 429.89 337.79 415.95 343.69 408.08" fill="none" stroke="#c2bee6" stroke-linejoin="round" stroke-linecap="round" stroke-miterlimit="10" pointer-events="all"/><path d="M 300.44 363.51 C 307.65 362.16 317.04 363.54 323.54 366.9 C 330.03 370.26 336.12 377.03 339.43 383.69 C 342.75 390.36 344.3 399.54 343.43 406.9 C 342.56 414.25 339.51 422.54 334.21 427.83 C 328.92 433.12 319.43 437.36 311.65 438.65 C 303.88 439.95 294.18 438.75 287.57 435.59 C 280.96 432.43 275.57 426.2 272.01 419.7 C 268.45 413.2 265.31 403.98 266.2 396.6 C 267.09 389.21 272 380.9 277.37 375.39 C 282.74 369.88 294.36 365.82 298.43 363.55 C 302.5 361.28 300.65 361.91 301.78 361.75 C 302.91 361.6 304.94 362.03 305.22 362.62 M 295.92 364.75 C 302.93 361.94 312.58 360.83 319.68 363.11 C 326.77 365.4 334.24 372.24 338.48 378.47 C 342.72 384.71 345.37 393.05 345.12 400.51 C 344.87 407.96 341.61 416.95 336.98 423.2 C 332.36 429.44 324.66 435.61 317.38 437.96 C 310.09 440.3 300.69 439.5 293.28 437.24 C 285.87 434.99 277.27 430.27 272.94 424.44 C 268.61 418.61 267.36 409.88 267.31 402.27 C 267.26 394.65 268.48 385.05 272.63 378.75 C 276.77 372.45 288.5 367.21 292.18 364.46 C 295.86 361.71 294.09 362.16 294.7 362.24 C 295.32 362.33 295.7 364.11 295.87 364.98" fill="none" stroke="#324ab2" stroke-width="2" stroke-linejoin="round" stroke-linecap="round" stroke-miterlimit="10" pointer-events="all"/><g fill="#324ab2" font-family="Ink Free" font-weight="bold" text-anchor="middle" font-size="17px"><text x="305" y="405.5">Hilo</text></g><ellipse cx="157" cy="121" rx="40" ry="40" fill="none" stroke="none" pointer-events="all"/><path d="M 160.79 80.64 C 168.05 80.69 176.43 85.33 182.06 90.54 C 187.7 95.74 192.79 104.18 194.6 111.87 C 196.41 119.55 195.57 129.57 192.93 136.67 C 190.28 143.76 185.25 150.32 178.75 154.45 C 172.24 158.57 161.46 161.67 153.91 161.43 C 146.36 161.19 139.18 157.84 133.45 153.02 C 127.72 148.19 121.86 140.06 119.52 132.48 C 117.17 124.9 116.84 115.06 119.38 107.53 C 121.93 100 128.47 91.78 134.78 87.3 C 141.09 82.81 152.35 81.57 157.25 80.64 C 162.15 79.71 162.5 81.4 164.17 81.72 C 165.84 82.03 167.4 82.03 167.26 82.53 M 170.63 81.95 C 177.59 83.65 183.79 91.77 188.24 98.27 C 192.69 104.77 197.07 113.51 197.35 120.97 C 197.62 128.44 194.56 136.75 189.89 143.06 C 185.22 149.37 176.58 156.02 169.31 158.82 C 162.04 161.62 153.39 162.17 146.27 159.86 C 139.15 157.55 131.53 151.3 126.59 144.97 C 121.65 138.64 117.19 129.7 116.63 121.89 C 116.07 114.08 118.78 104.7 123.22 98.13 C 127.66 91.57 135.91 84.93 143.29 82.5 C 150.68 80.07 162.94 83.23 167.54 83.57 C 172.15 83.9 170.58 84.59 170.92 84.5 C 171.27 84.41 170.05 82.81 169.59 83.03" fill="none" stroke="#324ab2" stroke-width="2" stroke-linejoin="round" stroke-linecap="round" stroke-miterlimit="10" pointer-events="all"/><g fill="#324ab2" font-family="Ink Free" font-weight="bold" text-anchor="middle" font-size="17px"><text x="156.5" y="125.5">Hilo</text></g><ellipse cx="457" cy="121" rx="40" ry="40" fill="none" stroke="none" pointer-events="all"/><path d="M 449.42 80.93 C 456.41 79.01 467.23 80.5 474.18 83.83 C 481.14 87.15 487.68 94.01 491.13 100.88 C 494.57 107.76 495.75 117.31 494.85 125.08 C 493.96 132.84 490.59 141.66 485.75 147.49 C 480.9 153.32 473.2 158.47 465.8 160.07 C 458.39 161.67 448.42 160.07 441.32 157.11 C 434.23 154.15 427.15 149.03 423.21 142.31 C 419.28 135.59 417.07 124.82 417.7 116.78 C 418.33 108.73 421.82 100 427 94.04 C 432.17 88.07 444.47 83.1 448.75 80.98 C 453.03 78.87 451.69 81.22 452.65 81.34 C 453.62 81.45 454.69 80.97 454.54 81.67 M 439.27 83.95 C 445.68 80.17 455.29 78.99 462.89 80.2 C 470.48 81.41 479.16 85.46 484.85 91.22 C 490.54 96.99 495.81 107.03 497.02 114.81 C 498.23 122.59 495.81 130.97 492.1 137.92 C 488.4 144.86 481.6 152.62 474.77 156.48 C 467.94 160.34 458.6 162.13 451.13 161.08 C 443.66 160.04 435.42 155.71 429.96 150.21 C 424.49 144.72 419.64 135.64 418.34 128.1 C 417.05 120.57 418.99 112.12 422.19 105 C 425.39 97.88 434.75 88.66 437.56 85.36 C 440.38 82.06 438.72 85.04 439.07 85.19 C 439.42 85.35 439.36 85.65 439.67 86.28" fill="none" stroke="#324ab2" stroke-width="2" stroke-linejoin="round" stroke-linecap="round" stroke-miterlimit="10" pointer-events="all"/><g fill="#324ab2" font-family="Ink Free" font-weight="bold" text-anchor="middle" font-size="17px"><text x="456.5" y="125.5">Hilo</text></g><path d="M 7 241 L 617 241" fill="none" stroke="none" pointer-events="stroke"/><path d="M 6.11 241.56 M 6.47 240.34 C 188.94 242.85 371.56 243.39 617.06 241.03 M 7.29 241.25 C 218.11 242.72 428.49 242.83 616.65 241.07" fill="none" stroke="#324ab2" stroke-width="2" stroke-linejoin="round" stroke-linecap="round" stroke-miterlimit="10" stroke-dasharray="6 6" pointer-events="stroke"/><ellipse cx="207" cy="381" rx="40" ry="40" fill="none" stroke="none" pointer-events="all"/><path d="M 174.85 358.76 C 174.85 358.76 174.85 358.76 174.85 358.76 M 174.85 358.76 C 174.85 358.76 174.85 358.76 174.85 358.76 M 170.49 377.65 C 177.8 363.62 190.8 355.34 195.98 347.03 M 169.88 377.11 C 177.74 367.66 186.43 358.36 196.08 346.93 M 170.03 388.22 C 182.19 375.8 190.98 363.9 206.59 346.29 M 171.17 386.6 C 184.44 372.35 196.41 358.49 207.93 345.23 M 174.19 395.66 C 189.79 378.73 206.69 358.41 219.37 340.82 M 175.47 395.64 C 188.82 379.15 202.65 364.46 220.03 342.15 M 178.46 403.59 C 192.28 387.98 207.82 372.14 225.34 345.78 M 179.22 403.5 C 197.26 381.8 216.24 360.71 227.01 346.79 M 180.26 411.28 C 202.2 391.39 221.12 369.58 234.81 353.58 M 181.27 411.91 C 195.78 395.21 211.5 376.5 233.33 352.63 M 190.65 414.54 C 209.11 392.41 228.61 371.34 240.76 358.41 M 188.4 416.54 C 201.69 400.54 216.75 383.58 239.64 357.7 M 195.5 418.98 C 212.9 399.82 228.23 382.96 241.81 365.93 M 195.54 419.89 C 208.41 405.04 221.31 391.34 243.68 366.86 M 202.44 424.64 C 215.9 406.75 233.64 391.67 245.23 374.14 M 202.47 424.47 C 211.67 415.25 220.25 403.71 246.12 374.24 M 212.55 423.14 C 222.57 411.83 236.5 398.13 250.71 383.38 M 212.56 425.59 C 222.9 412.26 234.47 399.79 248.32 383.85" fill="none" stroke="#c2bee6" stroke-linejoin="round" stroke-linecap="round" stroke-miterlimit="10" pointer-events="all"/><path d="M 219.49 341.77 C 226.44 343.3 233.35 349.45 237.83 355.98 C 242.32 362.51 246.17 372.93 246.39 380.95 C 246.6 388.98 243.4 397.67 239.12 404.12 C 234.85 410.57 227.79 416.96 220.73 419.64 C 213.67 422.33 204.05 422.38 196.77 420.21 C 189.49 418.04 181.94 412.94 177.05 406.62 C 172.15 400.3 167.75 390.28 167.39 382.29 C 167.03 374.31 170.81 365.34 174.88 358.73 C 178.95 352.11 184.84 345.42 191.78 342.58 C 198.72 339.75 211.43 341.51 216.51 341.71 C 221.6 341.91 220.99 343.31 222.32 343.78 C 223.65 344.25 224.73 344.13 224.5 344.5 M 205.34 339.48 C 212.7 338.44 222.46 341.13 228.54 345.49 C 234.63 349.85 239.3 357.87 241.86 365.64 C 244.42 373.4 245.5 384.2 243.91 392.09 C 242.32 399.97 238.12 408.22 232.34 412.93 C 226.56 417.64 216.97 419.72 209.22 420.36 C 201.47 421 192.42 420.7 185.83 416.79 C 179.24 412.88 172.69 404.53 169.69 396.88 C 166.7 389.24 166.02 378.44 167.88 370.9 C 169.74 363.36 175.03 356.94 180.86 351.65 C 186.68 346.36 198.95 340.93 202.83 339.16 C 206.71 337.4 203.94 340.71 204.15 341.09 C 204.36 341.47 204.03 340.85 204.1 341.45" fill="none" stroke="#324ab2" stroke-width="2" stroke-linejoin="round" stroke-linecap="round" stroke-miterlimit="10" pointer-events="all"/><g fill="#324ab2" font-family="Ink Free" font-weight="bold" text-anchor="middle" font-size="17px"><text x="206.5" y="385.5">Hilo</text></g><ellipse cx="407" cy="381" rx="40" ry="40" fill="none" stroke="none" pointer-events="all"/><path d="M 384.6 347.64 C 384.6 347.64 384.6 347.64 384.6 347.64 M 384.6 347.64 C 384.6 347.64 384.6 347.64 384.6 347.64 M 375.46 370.08 C 378 366.04 385.32 357.05 398.72 341.92 M 373.6 372.34 C 380.75 364 387.47 357.42 400.2 342.29 M 374.84 383.76 C 382.14 372.94 389.77 366.28 411.98 342.05 M 374.09 384.11 C 388.63 367.88 402.68 352.87 409.92 342.53 M 373.44 397.76 C 388.23 379.17 404.59 359.28 420.38 345.95 M 373.94 397.39 C 382.59 385.62 392.17 375.01 419.26 344.77 M 377.27 403.44 C 387.48 391.33 402.25 376.47 425.48 346.84 M 378.91 405.06 C 392.36 387.44 406.61 369.04 425.94 348.47 M 383.44 409.92 C 394.41 395.92 406.47 382.84 434.89 353.79 M 381.85 411.06 C 398.55 391.38 415.56 372.6 434.13 352.76 M 385.93 418.35 C 405.05 398.72 420.71 381.1 436.86 358.82 M 387.49 416.74 C 408.1 394.52 428.48 370.64 438.13 359.69 M 393.67 421.8 C 411.73 402.33 427.41 383.54 443.65 366.72 M 395.42 420.81 C 406.14 407.32 419.24 393.39 442.53 366.07 M 401.4 421.97 C 416.25 406.78 433.75 388.34 449.59 372.01 M 403.86 424.08 C 413.37 412.14 424.1 400.11 447.32 372.48 M 412.22 427.2 C 420.46 415.2 431.61 403.23 445.92 386.54 M 411.2 427.59 C 417.96 418.15 426.66 407.98 447.6 384.98" fill="none" stroke="#c2bee6" stroke-linejoin="round" stroke-linecap="round" stroke-miterlimit="10" pointer-events="all"/><path d="M 408.26 339.73 C 415.69 339.58 425.24 344.43 431.38 349.34 C 437.52 354.25 443.13 361.55 445.09 369.19 C 447.05 376.83 445.84 387.62 443.15 395.18 C 440.47 402.74 435.08 409.86 428.98 414.53 C 422.88 419.19 414.15 423.16 406.57 423.19 C 399 423.21 389.82 419.7 383.55 414.67 C 377.27 409.63 371.34 400.85 368.93 392.97 C 366.52 385.09 366.44 374.96 369.07 367.39 C 371.7 359.81 378.54 352.14 384.7 347.53 C 390.86 342.92 401.46 340.84 406.03 339.72 C 410.61 338.61 410.79 340.63 412.17 340.85 C 413.56 341.08 414.61 340.47 414.35 341.09 M 412.18 339.73 C 419.33 340.46 429.54 346.48 435.21 351.96 C 440.87 357.45 445.14 364.79 446.18 372.63 C 447.22 380.47 444.86 391.55 441.46 398.99 C 438.05 406.43 432.24 413.3 425.76 417.27 C 419.28 421.24 410.07 423.65 402.57 422.82 C 395.08 421.99 386.51 417.94 380.78 412.28 C 375.06 406.63 369.77 396.68 368.23 388.87 C 366.69 381.07 368.18 372.76 371.55 365.46 C 374.92 358.16 381.89 349.33 388.44 345.09 C 395 340.85 406.73 340.87 410.9 340.03 C 415.08 339.18 413.38 340.04 413.5 340.03 C 413.62 340.02 411.92 339.44 411.61 339.98" fill="none" stroke="#324ab2" stroke-width="2" stroke-linejoin="round" stroke-linecap="round" stroke-miterlimit="10" pointer-events="all"/><g fill="#324ab2" font-family="Ink Free" font-weight="bold" text-anchor="middle" font-size="17px"><text x="406.5" y="385.5">Hilo</text></g><rect x="277" y="1" width="160" height="20" fill="none" stroke="none" pointer-events="all"/><g fill="#324ab2" font-family="Ink Free" font-weight="bold" text-anchor="middle" font-size="17px"><text x="356.5" y="15.5">Hilos de usuario</text></g><rect x="277" y="461" width="160" height="20" fill="none" stroke="none" pointer-events="all"/><g fill="#324ab2" font-family="Ink Free" font-weight="bold" text-anchor="middle" font-size="17px"><text x="356.5" y="475.5">Hilos de núcleo</text></g><rect x="27" y="196" width="70" height="35" fill="none" stroke="none" pointer-events="all"/><g fill="#324ab2" font-family="Ink Free" font-weight="bold" text-anchor="end" font-size="17px"><text x="94.5" y="208">Modo</text><text x="94.5" y="228">usuario</text></g><ellipse cx="557" cy="121" rx="40" ry="40" fill="none" stroke="none" pointer-events="all"/><path d="M 540.17 82.36 C 546.38 78.75 556.19 78.83 563.71 80.65 C 571.23 82.46 580.11 87.59 585.31 93.25 C 590.5 98.9 593.95 106.74 594.88 114.57 C 595.8 122.4 594.35 132.91 590.86 140.24 C 587.36 147.57 580.78 155.05 573.9 158.55 C 567.03 162.06 557.2 162.64 549.6 161.27 C 542 159.9 533.4 155.94 528.31 150.31 C 523.23 144.69 520.32 135.38 519.1 127.54 C 517.89 119.71 517.74 110.49 521.04 103.3 C 524.33 96.12 535.39 88.06 538.9 84.43 C 542.41 80.8 541.19 81.91 542.1 81.53 C 543.02 81.15 544.04 81.5 544.39 82.14 M 568.11 79.44 C 575.19 80.71 581.62 88.36 586.18 94.62 C 590.74 100.87 594.97 108.95 595.47 116.96 C 595.97 124.97 593.22 135.48 589.2 142.65 C 585.18 149.83 578.1 156.72 571.35 159.99 C 564.6 163.27 555.83 164.11 548.7 162.31 C 541.57 160.5 533.81 155.53 528.57 149.19 C 523.33 142.84 518.1 132.25 517.26 124.22 C 516.42 116.19 519.55 107.99 523.51 101 C 527.47 94.02 534.19 85.9 541.01 82.29 C 547.82 78.68 560.24 79.74 564.42 79.34 C 568.59 78.94 565.59 79.5 566.05 79.89 C 566.52 80.27 567.19 81.01 567.22 81.65" fill="none" stroke="#324ab2" stroke-width="2" stroke-linejoin="round" stroke-linecap="round" stroke-miterlimit="10" pointer-events="all"/><g fill="#324ab2" font-family="Ink Free" font-weight="bold" text-anchor="middle" font-size="17px"><text x="556.5" y="125.5">Hilo</text></g><ellipse cx="557" cy="381" rx="40" ry="40" fill="none" stroke="none" pointer-events="all"/><path d="M 523.27 359.53 C 523.27 359.53 523.27 359.53 523.27 359.53 M 523.27 359.53 C 523.27 359.53 523.27 359.53 523.27 359.53 M 520.43 376.26 C 528.75 366.45 536.74 354.82 546.12 345.62 M 520 375.65 C 528.52 365.72 535.8 357.59 545.48 345.97 M 521.85 386.11 C 533.12 369.72 545.87 358.95 555.07 344.16 M 521.93 386.01 C 532.71 371.93 543.38 360.1 556.55 346.67 M 525.36 393.46 C 536.87 382.27 545.8 370.18 569.21 346.99 M 525.87 394.06 C 538.11 378.23 553.68 362.98 567.7 344.6 M 526.85 402.56 C 540.42 388.06 553.33 372.09 573.01 350.03 M 527.36 404.5 C 543.87 382.97 561.93 363.94 575.9 349.67 M 534.26 410.4 C 552.92 389.44 569.63 368.92 581.15 355.67 M 533.41 408.77 C 552.31 386.96 570.75 365.28 581.46 354.5 M 540.66 412.06 C 555.26 394.97 572.81 373.82 588.13 360.34 M 541.31 412.59 C 551.61 399.67 562.64 388.4 587.45 358.2 M 547.55 419.33 C 556.82 404.91 569.59 390.98 595.8 363.23 M 545.68 418.9 C 558.04 404.51 568.38 391.1 594.91 363.4 M 557 416.26 C 569.32 403.3 581.99 390.14 598.24 373.57 M 558.32 417.6 C 571.97 402.17 586.54 386.14 597.51 371.73 M 566.7 418.7 C 576.19 406.39 584.91 398.36 597.05 381.83 M 569.11 417.39 C 573.88 411.09 580.75 404.04 598.61 383.28" fill="none" stroke="#c2bee6" stroke-linejoin="round" stroke-linecap="round" stroke-miterlimit="10" pointer-events="all"/><path d="M 569.16 344.17 C 576.03 345.89 583.77 352.17 588.27 358.15 C 592.77 364.14 595.93 372.74 596.16 380.09 C 596.39 387.43 593.9 396.23 589.64 402.21 C 585.39 408.18 578.01 413.51 570.65 415.94 C 563.29 418.37 552.86 418.76 545.5 416.77 C 538.14 414.78 530.95 409.7 526.48 404.01 C 522.02 398.33 519.19 390.11 518.7 382.65 C 518.21 375.18 519.37 365.57 523.54 359.22 C 527.72 352.86 536.58 347.02 543.76 344.5 C 550.93 341.98 561.53 343.79 566.59 344.11 C 571.64 344.42 572.04 345.25 574.08 346.38 C 576.12 347.52 579.21 350.16 578.83 350.92 M 574.44 345.95 C 580.84 348.18 587.67 355.12 590.98 361.96 C 594.29 368.8 595.35 379.19 594.27 386.99 C 593.2 394.79 589.63 403.56 584.53 408.74 C 579.43 413.93 571.17 416.98 563.67 418.1 C 556.17 419.21 546.39 418.36 539.5 415.45 C 532.61 412.55 525.87 407.24 522.33 400.66 C 518.8 394.08 517.11 383.39 518.29 375.99 C 519.48 368.58 524.2 361.41 529.44 356.23 C 534.68 351.05 542.63 346.51 549.75 344.9 C 556.86 343.29 567.92 346.04 572.11 346.57 C 576.3 347.1 574.53 348.13 574.88 348.09 C 575.24 348.04 574.56 345.83 574.23 346.32" fill="none" stroke="#324ab2" stroke-width="2" stroke-linejoin="round" stroke-linecap="round" stroke-miterlimit="10" pointer-events="all"/><g fill="#324ab2" font-family="Ink Free" font-weight="bold" text-anchor="middle" font-size="17px"><text x="556.5" y="385.5">Hilo</text></g><path d="M 557 161 L 557 341" fill="none" stroke="none" pointer-events="stroke"/><path d="M 556.12 160.51 M 556.57 159.2 C 557.18 204.49 557.72 246.61 556.01 341.52 M 556.72 160.68 C 555.9 228.98 556.2 294.91 556.06 340.16" fill="none" stroke="#324ab2" stroke-width="2" stroke-linejoin="round" stroke-linecap="round" stroke-miterlimit="10" pointer-events="stroke"/><path d="M 307.5 361 L 308 241" fill="none" stroke="none" pointer-events="stroke"/><path d="M 306.62 361.69 M 308.43 360.6 C 306.67 325.4 309.05 290.45 306.54 239.2 M 308.09 361.65 C 309.71 332.44 308.13 303.98 307.79 240.7" fill="none" stroke="#324ab2" stroke-width="2" stroke-linejoin="round" stroke-linecap="round" stroke-miterlimit="10" pointer-events="stroke"/><path d="M 235.28 352.72 L 308.96 241" fill="none" stroke="none" pointer-events="stroke"/><path d="M 234.4 353.76 M 233.9 351.48 C 249.53 329.08 267 307.56 307.93 240.74 M 235.31 353.19 C 264.21 309.63 292.06 267.66 308.92 241.23" fill="none" stroke="#324ab2" stroke-width="2" stroke-linejoin="round" stroke-linecap="round" stroke-miterlimit="10" pointer-events="stroke"/><path d="M 382.04 345 L 307 241" fill="none" stroke="none" pointer-events="stroke"/><path d="M 381.16 346.38 M 382.34 346.93 C 358.14 311.08 331.15 276.79 306.39 242.28 M 381.5 345.28 C 356.95 312.51 333.44 277.91 307.14 241.77" fill="none" stroke="#324ab2" stroke-width="2" stroke-linejoin="round" stroke-linecap="round" stroke-miterlimit="10" pointer-events="stroke"/><path d="M 307 241 L 185.28 149.28" fill="none" stroke="none" pointer-events="stroke"/><path d="M 306.12 242.72 M 308.98 242.09 C 275.37 218.54 246.44 193.74 185.1 148.11 M 307.9 241.09 C 274.34 216.52 241.86 191.65 185.59 148.59" fill="none" stroke="#324ab2" stroke-width="2" stroke-linejoin="round" stroke-linecap="round" stroke-miterlimit="10" pointer-events="stroke"/><path d="M 307 241 L 428.72 149.28" fill="none" stroke="none" pointer-events="stroke"/><path d="M 306.12 239.06 M 306.66 241.25 C 351.08 207.33 397.5 173.62 428.97 149.65 M 307.34 240.91 C 331.75 221.34 359.25 202.19 429.21 149.13" fill="none" stroke="#324ab2" stroke-width="2" stroke-linejoin="round" stroke-linecap="round" stroke-miterlimit="10" pointer-events="stroke"/><ellipse cx="255.5" cy="81" rx="40" ry="40" fill="none" stroke="none" pointer-events="all"/><path d="M 253.57 41.54 C 260.83 40.73 271.71 44.84 278.12 48.97 C 284.53 53.1 289.56 59.25 292.04 66.3 C 294.53 73.35 295.07 83.87 293.03 91.26 C 290.99 98.66 285.52 105.73 279.8 110.66 C 274.08 115.59 266.11 120.19 258.71 120.82 C 251.31 121.46 241.83 118.78 235.4 114.46 C 228.97 110.15 223.03 102.11 220.11 94.94 C 217.19 87.77 216.08 78.7 217.86 71.45 C 219.64 64.2 225.21 56.47 230.78 51.45 C 236.35 46.42 246.86 43.05 251.29 41.3 C 255.71 39.55 255.99 40.59 257.32 40.95 C 258.66 41.3 259.51 42.69 259.3 43.43 M 264.18 43.04 C 271.34 44.11 279.28 48.22 284.13 53.85 C 288.98 59.48 292.26 69.18 293.29 76.81 C 294.32 84.43 293.76 92.83 290.29 99.58 C 286.83 106.33 279.66 114.14 272.51 117.3 C 265.36 120.45 254.72 120.11 247.4 118.53 C 240.08 116.95 233.56 113.27 228.59 107.82 C 223.61 102.36 218.95 93.47 217.55 85.79 C 216.16 78.12 216.56 68.5 220.22 61.75 C 223.88 55 232.46 48.54 239.51 45.28 C 246.56 42.02 258.32 42.69 262.53 42.17 C 266.73 41.65 264.72 42.16 264.75 42.16 C 264.78 42.17 262.81 41.37 262.69 42.21" fill="none" stroke="#324ab2" stroke-width="2" stroke-linejoin="round" stroke-linecap="round" stroke-miterlimit="10" pointer-events="all"/><g fill="#324ab2" font-family="Ink Free" font-weight="bold" text-anchor="middle" font-size="17px"><text x="255" y="85.5">Hilo</text></g><ellipse cx="355.5" cy="81" rx="40" ry="40" fill="none" stroke="none" pointer-events="all"/><path d="M 344.32 42.98 C 351.1 40.26 360.47 40.84 367.67 43.33 C 374.87 45.82 383.17 51.55 387.53 57.92 C 391.89 64.29 393.75 73.74 393.84 81.58 C 393.92 89.41 392.25 98.82 388.02 104.95 C 383.79 111.07 375.82 115.91 368.45 118.33 C 361.08 120.75 351.08 121.83 343.81 119.47 C 336.55 117.1 329.25 110.26 324.83 104.15 C 320.42 98.03 317.48 90.3 317.31 82.76 C 317.13 75.23 319.52 65.59 323.8 58.92 C 328.07 52.26 337.89 45.79 342.97 42.77 C 348.05 39.76 350.91 40.92 354.27 40.83 C 357.63 40.73 363.14 41.29 363.12 42.22 M 370.63 45.45 C 377.67 48.18 385.09 55.29 389.23 61.7 C 393.37 68.1 396 76.12 395.45 83.88 C 394.9 91.64 391 102.3 385.91 108.24 C 380.83 114.18 372.41 117.77 364.94 119.53 C 357.47 121.29 348.23 121.76 341.09 118.82 C 333.94 115.88 326.37 108.75 322.06 101.89 C 317.75 95.03 314.6 85.54 315.23 77.64 C 315.86 69.74 320.86 60.14 325.85 54.5 C 330.83 48.87 337.72 45.35 345.13 43.8 C 352.55 42.25 366.06 44.81 370.33 45.22 C 374.59 45.63 370.79 46.15 370.71 46.26 C 370.62 46.36 369.81 45.61 369.82 45.86" fill="none" stroke="#324ab2" stroke-width="2" stroke-linejoin="round" stroke-linecap="round" stroke-miterlimit="10" pointer-events="all"/><g fill="#324ab2" font-family="Ink Free" font-weight="bold" text-anchor="middle" font-size="17px"><text x="355" y="85.5">Hilo</text></g><path d="M 269 121 L 307 243" fill="none" stroke="none" pointer-events="stroke"/><path d="M 268.12 120.92 M 269.38 120.99 C 280.7 152.23 289.06 185.58 307.63 244.13 M 269.09 121.51 C 284.49 164.68 296.64 210.25 306.56 242.46" fill="none" stroke="#324ab2" stroke-width="2" stroke-linejoin="round" stroke-linecap="round" stroke-miterlimit="10" pointer-events="stroke"/><path d="M 307 243 L 343 121" fill="none" stroke="none" pointer-events="stroke"/><path d="M 306.12 243.26 M 305.06 242.15 C 319.92 197 335.85 150.77 344.06 119.67 M 306.53 243.32 C 319.19 206.19 329.89 168.27 342.74 121" fill="none" stroke="#324ab2" stroke-width="2" stroke-linejoin="round" stroke-linecap="round" stroke-miterlimit="10" pointer-events="stroke"/></g></svg>