<?xml version="1.0" encoding="UTF-8"?>
<!DOCTYPE svg PUBLIC "-//W3C//DTD SVG 1.1//EN" "http://www.w3.org/Graphics/SVG/1.1/DTD/svg11.dtd">
<svg xmlns="http://www.w3.org/2000/svg" xmlns:xlink="http://www.w3.org/1999/xlink" version="1.1" width="536px" height="492px" viewBox="-0.5 -0.5 536 492"><defs><style type="text/css">@font-face {&#xa;font-family: "Ink Free";&#xa;src: url("https://ull-esit-sistemas-operativos.github.io/ssoo-apuntes/fonts/InkFree.woff");&#xa;}&#xa;</style></defs><g><rect x="75" y="1" width="320" height="490" fill="none" stroke="none" pointer-events="all"/><path d="M 74.2 -0.02 C 193.11 2.16 312.06 2.01 395.47 2.25 M 74.39 1.54 C 178.68 1.34 282.56 0.97 395.64 0.44 M 395.46 0.4 C 395.45 154.69 395.75 307.98 395.5 491.34 M 394.86 0.92 C 393.95 179.53 393.82 358.24 395.21 491.02 M 395.37 492.35 C 278.34 490.18 164.58 490.57 75.67 491.74 M 395.5 491.3 C 321.48 490.58 248.76 490.99 75.57 490.8 M 75.29 490.31 C 77.32 304.89 75.91 118.25 75.56 1.65 M 74.81 491.35 C 73.49 368.71 73.56 246.22 74.84 0.81" fill="none" stroke="#324ab2" stroke-width="2" stroke-linejoin="round" stroke-linecap="round" stroke-miterlimit="10" pointer-events="all"/><rect x="85" y="121" width="300" height="360" fill="none" stroke="none" pointer-events="all"/><path d="M 84.75 121.28 C 84.75 121.28 84.75 121.28 84.75 121.28 M 84.75 121.28 C 84.75 121.28 84.75 121.28 84.75 121.28 M 85 131.88 C 88.42 128.86 93.67 125.34 94.25 119.86 M 85.61 133.19 C 88.29 129.86 92.73 125.93 96.08 121.77 M 84.68 145.28 C 89.67 138.44 95.01 135.2 104.39 119.61 M 84.17 145.56 C 91.27 137.61 98.7 129.62 106.99 120.4 M 84.29 157.37 C 96.03 145.48 102.65 135.05 115.32 121.54 M 84.46 156.56 C 94.82 146.2 103.23 135.97 115.9 121.15 M 87.19 168.93 C 97.28 157.98 108.38 144.87 128.61 122.16 M 85.43 169.58 C 100.08 152.61 112.93 137.99 126.86 121.35 M 85.99 184.17 C 96.87 168.95 105.51 156.56 138.53 122.18 M 85.6 182.29 C 99.11 167.52 110.97 151.83 136.91 120.91 M 83.62 192.95 C 103.5 171.55 122.47 150.71 150.21 119.67 M 84.65 194.74 C 100.09 175.89 116.09 158.46 149.04 121.65 M 83.96 204.7 C 111.1 174.52 140.34 143.08 158.22 119.58 M 84.22 207.22 C 108.93 179.73 133.09 152.17 158.92 120.62 M 84.93 219 C 110.46 190.09 135.96 162.12 168.97 119.2 M 85.28 218.46 C 107.43 192.97 127.64 169.05 169.63 121.3 M 84.33 231.75 C 119.11 193.63 146.98 156.77 179.29 121.67 M 86.25 229.63 C 115.56 195.69 145.65 159.61 180.45 120.86 M 85.7 241.51 C 126.39 192.92 168.01 147.17 190.9 121.53 M 85.04 242.34 C 107.71 217.2 130.08 190.46 191.58 121.43 M 83.44 255.88 C 122.94 214.43 156.11 173.16 200.9 122.12 M 84.49 254.89 C 127.34 206.08 170.48 156.86 200.9 121.33 M 85.39 265.63 C 123.86 226.38 159.64 182.98 212.27 121.2 M 85.13 268.05 C 124.15 224.25 161.6 179.44 212.72 120.31 M 85.81 279.14 C 112.79 246.34 142.11 213.1 224.25 120.4 M 84.65 279.27 C 126.48 231.04 169.6 182.07 222.58 120.85 M 83.96 292.38 C 130.27 237.1 177.54 181.17 231.89 122.27 M 85.61 290.78 C 118.46 253.78 150.43 215.86 233.73 121.25 M 84.04 304.24 C 124.04 258.7 163.87 212.47 245.29 121.38 M 84.49 304.97 C 130.45 251.55 177.24 199.67 244.45 121.26 M 86.36 316.98 C 143.94 248.9 202.66 182.38 253.91 119.75 M 85.49 316.38 C 147.75 244.12 209.24 174.01 254.4 120.93 M 86.17 328.71 C 141.99 264.01 198.15 199.6 265.93 120.57 M 85.35 328.85 C 151.34 251.28 218.69 173.98 264.97 120.11 M 84.72 341.51 C 141.74 274.48 197.8 210.74 277.15 120.15 M 84.95 340.34 C 135.14 283.46 185.21 224.2 276.6 120.85 M 86.6 350.96 C 158.83 266.86 233.55 181.4 286.36 121.69 M 85.73 352.66 C 152.35 274.83 219.9 196.77 286.5 120.74 M 83.6 365.72 C 166.88 270.07 250.91 173.27 296 121.96 M 85.26 365.5 C 157.95 280.69 232.74 193.9 296.12 120.86 M 85.18 376.58 C 149.3 304.09 214.29 228.49 307.59 121.34 M 84.96 377.37 C 143.75 306.83 204.13 238.34 306.68 121.76 M 85.02 387.94 C 164.11 297.15 244.64 206.45 317.39 120.48 M 85.02 389.51 C 172.18 290.88 256.79 192.53 317.41 120.8 M 85.03 401.24 C 141.85 336.2 196.99 270.49 328.55 121.07 M 84.9 401.06 C 174.15 298.65 264.99 194.52 328.62 120.76 M 85.3 412.3 C 172.45 313.19 260.87 212.15 338.95 122.37 M 85.7 413.18 C 180.27 305.61 274.78 197.13 339.04 120.7 M 85.17 425.36 C 145.44 358.46 204.4 290.57 350.42 120.3 M 85.13 425.59 C 178.2 318.46 272.13 210.35 349.99 120.81 M 85.08 438.49 C 161.08 350.69 237.39 264.78 360.65 121.86 M 85.36 437.92 C 175.91 332.43 268.33 226.77 360.9 120.66 M 84.12 449.71 C 141.09 384.2 199.3 316.93 371.51 121.03 M 84.9 450.29 C 158.14 368.53 230.24 286.13 371.14 121.01 M 85.67 463.04 C 176.43 355.67 268.81 249.68 381.58 121.75 M 84.86 462.26 C 183.47 348.36 281.82 235.91 381.38 121.25 M 85.34 474.41 C 201.11 343.13 315.67 211.41 388.46 125.45 M 84.74 474.91 C 204.65 336.81 323.84 199.78 389.42 124.99 M 88.33 483.24 C 183.45 373.37 278.22 265.71 388.36 137.07 M 88.05 483.54 C 198.59 356.91 308.7 229.7 389.58 136.55 M 97.78 483.63 C 172 398.48 246.24 313.67 389.45 148 M 98.82 483.08 C 165.75 404.02 233.5 326.58 389.55 148.91 M 109.09 482.91 C 170.67 410.66 233.66 338.08 388.72 160.17 M 108.98 482.94 C 206.05 371.92 301.14 262.54 389.47 160.71 M 121.02 482.31 C 180.73 416.54 238.89 349.26 389.72 173.31 M 120.48 483.66 C 210.54 380.81 300.91 276.92 389.01 174.19 M 130.44 482.84 C 203.02 402.15 273.82 319.02 390.14 186.59 M 130.5 484.14 C 200.69 401.04 273.1 318 389.25 185.56 M 141.08 482.9 C 227.74 384.81 314.51 285.94 389.42 197.29 M 140.74 483.61 C 232.89 377.2 325.88 270.51 389.05 197.8 M 152.27 483.68 C 243.68 377.02 335.93 271.73 388.9 210.28 M 150.78 483.87 C 223.69 400.35 297.2 316.1 389.38 209.42 M 162.61 484.61 C 208.29 429.38 258.39 372.99 390.43 220.79 M 161.22 483.14 C 241.32 393.3 319.52 303.02 389.51 221.76 M 173.44 484.91 C 254.39 391.09 335.74 296.45 389.26 235.78 M 172.21 483.93 C 230.54 413.96 289.7 346.8 389.27 234.34 M 182.71 484.63 C 234.73 421.89 287.47 361.93 388.63 245.99 M 182.41 483.41 C 253.69 403.02 323.62 323.88 389.59 246.53 M 194.96 483.01 C 257.92 409.04 323.14 335.72 390.01 258.18 M 193.74 483.62 C 257.85 409.03 324.61 334 388.95 258.9 M 203.15 482.52 C 246.8 434.73 289.6 387.44 388.55 271.56 M 204.93 484.21 C 272.5 404.38 341.25 325.58 389.53 271.06 M 213.7 484.3 C 255.62 438.31 294.8 391.88 388.84 281.51 M 214.63 482.92 C 278.8 412.3 341.31 338.62 389.87 283.25 M 224.89 482.57 C 281.91 418.21 337.71 353.43 388.46 294.05 M 225.36 482.89 C 286.3 412.4 346.63 341.6 388.98 295.09 M 237.63 484.99 C 288.08 420.08 344.66 356.69 388.29 308.9 M 236.33 482.77 C 286.46 423.01 337.64 363.7 389.85 308.32 M 247.58 484.87 C 295.38 429.95 339.65 377.01 387.53 321.1 M 247.02 484.04 C 302.43 419.89 356.33 358.6 389.53 319.3 M 257.39 481.71 C 291.87 443.63 327.16 404.5 388.63 332.58 M 257.9 483.58 C 302.88 429.91 350.05 377.58 388.95 332.01 M 269.13 483.64 C 313.22 433.51 357.27 379.11 388.09 344.54 M 267.53 483.4 C 310.74 434.92 353.27 386.81 389.83 344.67 M 278.48 483.4 C 322.82 433 363.19 382.19 389.34 355.33 M 278.97 483.08 C 302.08 455.71 325.7 428.94 388.99 356.19 M 288.87 485.09 C 326.95 437.71 366.93 396.69 388.03 367.08 M 288.86 482.6 C 324.08 445.07 356.57 406.6 389.14 369.08 M 298.1 482.86 C 325.21 452.79 352.96 424.6 390.85 379.41 M 299.97 483.65 C 323.08 456.05 345.16 430.37 390.02 381.02 M 308.9 482.22 C 336.64 455.75 361.15 424.03 388.54 392.08 M 309.99 482.85 C 334.06 456.46 358.34 427.1 389.7 393.16 M 319.37 481.55 C 344.56 455.32 369.15 428.47 389.7 403.19 M 320.31 483.02 C 340.07 461.59 359.67 438.02 388.68 404.05 M 333.5 481.58 C 349.42 466.34 361.91 449.83 390.7 419.47 M 332.75 482.41 C 354.12 459.5 374.26 434.75 389.98 417.73 M 343.68 482.89 C 358 467.02 370.94 447.98 388.75 430.73 M 342.29 483.99 C 354.59 469.63 367.24 454.15 388.52 429.91 M 353.19 483.44 C 366.75 470.45 380.05 454.82 388.48 439.9 M 353.85 482.67 C 363.76 470.36 375.03 457.33 389.93 441.74 M 362.04 484.8 C 373.1 472.69 382.06 463.86 391.07 453.55 M 362.38 483.28 C 369.17 475.68 377.17 467.7 389.93 454.1 M 372.08 482.62 C 375.74 478.24 383.06 477.02 388.11 464.06 M 374.22 482.88 C 378.5 478.21 382.41 473.44 390.41 465.52" fill="none" stroke="#c2bee6" stroke-linejoin="round" stroke-linecap="round" stroke-miterlimit="10" pointer-events="all"/><path d="M 86.25 122.1 C 196.88 118.89 308.24 119.55 386.37 121.13 M 84.62 121.03 C 189.63 122.47 293.14 121.66 384.51 121.7 M 385.4 120.24 C 386.11 240.11 387.01 359.81 385.37 482.23 M 385.61 121.01 C 386.44 204.85 386.88 288.21 384.95 480.62 M 384.7 480.79 C 273 481.48 159.83 481.49 85.58 480.01 M 385.57 480.48 C 323.9 482.49 262.16 482.72 85.55 481.56 M 86.25 481.05 C 83.5 385.52 82.8 287.48 84.95 119.95 M 85.49 481.53 C 84.41 404.59 83.55 327.5 84.4 120.7" fill="none" stroke="#324ab2" stroke-width="2" stroke-linejoin="round" stroke-linecap="round" stroke-miterlimit="10" pointer-events="all"/><rect x="85" y="11" width="300" height="110" fill="none" stroke="none" pointer-events="all"/><path d="M 85 11.43 C 195.08 9.88 308.75 9.66 386.23 11.3 M 85.69 11.08 C 176.59 9.86 268.37 9.85 385.55 11.27 M 383.53 10.29 C 387.59 33.05 384.26 55.06 383.86 121.03 M 385.03 10.99 C 384.7 52.78 384.69 95.35 384.71 121.82 M 385 119.62 C 291.92 120.57 200.84 120.81 86.25 120.09 M 384.32 120.7 C 287.58 119.4 188.67 119.74 85.43 120.64 M 84.6 121.52 C 85.18 91.03 84.05 63.92 83.17 9.53 M 85.23 121.89 C 84.92 88.4 84.4 54.51 84.83 10.89" fill="none" stroke="#324ab2" stroke-width="2" stroke-linejoin="round" stroke-linecap="round" stroke-miterlimit="10" pointer-events="all"/><g fill="#324AB2" font-family="Ink Free" font-weight="bold" text-anchor="middle" font-size="17px"><text x="234.5" y="60.5">Sistema operativo</text><text x="234.5" y="80.5">(Núcleo)</text></g><path d="M 84.51 132.45 L 384.61 129.08 L 386.19 149.58 L 85.2 149.71" fill="#ffffff" stroke="none" pointer-events="all"/><path d="M 84.16 130.67 C 196.31 131.02 306.88 131.61 384.18 130.12 M 84.48 130.54 C 182.59 130.97 281.98 130.54 384.39 131.09 M 383.07 130.54 C 385.79 134.17 383.16 139.2 383.25 152.16 M 384.33 131.19 C 384.88 136.01 385.9 140.55 384.12 151.18 M 384.31 150.93 C 289.44 151.87 191.67 151.71 86.13 151.26 M 384.36 151.33 C 294.01 152.78 202.98 152.92 85.38 151.4 M 85.88 149.24 C 83.38 143.42 84.51 135.95 85.76 130.32 M 84.45 151.88 C 85.21 146.54 85.19 140.2 84.27 130.88" fill="none" stroke="#324ab2" stroke-width="2" stroke-linejoin="round" stroke-linecap="round" stroke-miterlimit="10" pointer-events="all"/><g fill="#324AB2" font-family="Ink Free" font-weight="bold" text-anchor="middle" font-size="17px"><text x="234.5" y="145.5">Pila principal</text></g><rect x="85" y="261" width="300" height="31" fill="none" stroke="none" pointer-events="all"/><g fill="#324AB2" font-family="Ink Free" font-weight="bold" text-anchor="middle" font-size="17px"><text x="234.5" y="281">Espacio no reservado</text></g><path d="M 85.7 329.15 L 386.66 332.74 L 386.03 380.96 L 84.49 380.96" fill="#ffffff" stroke="none" pointer-events="all"/><path d="M 85.42 330.79 C 195.35 332.32 307.76 331.04 384 332.34 M 84.54 331.33 C 150.73 328.72 215.89 328.95 385.6 331.32 M 384.41 332.3 C 385.02 343.27 386.29 353.08 385.24 380.16 M 384.17 331.81 C 385.74 341.36 386.29 352.45 384.48 380.28 M 385.93 381.73 C 299.61 379.54 214.86 381.94 86.3 381.79 M 385.32 381.11 C 280.93 381.29 176.34 381.25 84.35 381.37 M 83.3 382.76 C 86.25 361.95 83.54 347.44 85.38 332.58 M 84.46 381.84 C 83.91 370.23 85.53 357.95 85.4 330.6" fill="none" stroke="#324ab2" stroke-width="2" stroke-linejoin="round" stroke-linecap="round" stroke-miterlimit="10" pointer-events="all"/><g fill="#324AB2" font-family="Ink Free" font-weight="bold" text-anchor="middle" font-size="17px"><text x="234.5" y="360.5">Montón</text></g><path d="M 86.1 380.57 L 385.7 382.55 L 384.28 421.2 L 83.41 420.49" fill="#ffffff" stroke="none" pointer-events="all"/><path d="M 84.58 380.03 C 196.58 379.06 308.82 378.59 384.88 381.16 M 84.79 380.79 C 156.72 379.83 229.5 381.11 384.44 381.14 M 383.95 382.55 C 384.37 390.95 386.34 400.33 384.63 421.29 M 385.47 380.01 C 384.62 392.01 384.21 404.5 385.89 421.63 M 385.24 420.11 C 297.14 420.84 205.69 419.91 86.18 420.02 M 385.36 420.27 C 287.36 420.27 190.64 420.03 84.31 420.67 M 84.58 420.48 C 85.68 410.41 85.24 401.61 83.97 379.38 M 85.68 421.84 C 84.36 404.34 84.49 389.57 84.85 380.59" fill="none" stroke="#324ab2" stroke-width="2" stroke-linejoin="round" stroke-linecap="round" stroke-miterlimit="10" pointer-events="all"/><g fill="#324AB2" font-family="Ink Free" font-weight="bold" text-anchor="middle" font-size="17px"><text x="234.5" y="405.5">Datos</text></g><path d="M 86.5 422 L 384.75 422.36 L 386.54 461.43 L 86.34 460.02" fill="#ffffff" stroke="none" pointer-events="all"/><path d="M 83.74 422.21 C 194.88 420.2 306.94 420.54 385.77 419.98 M 85.05 421.72 C 162.71 422.41 241.64 421.81 384.75 420.96 M 383.48 422.8 C 383.69 430.88 386.35 442.09 384.02 462.42 M 384.77 420.21 C 385.59 434.89 384.2 449 385.29 460.98 M 384.54 461.42 C 291.72 459.21 196.52 460.81 86.06 461.19 M 385.4 460.9 C 295.25 462.18 204.95 461.74 85.73 461.43 M 85.86 462.2 C 85.05 447.41 86.87 436.84 86.56 420.17 M 84.9 461.84 C 84.74 446.14 85.37 432.57 84.29 420.58" fill="none" stroke="#324ab2" stroke-width="2" stroke-linejoin="round" stroke-linecap="round" stroke-miterlimit="10" pointer-events="all"/><g fill="#324AB2" font-family="Ink Free" font-weight="bold" text-anchor="middle" font-size="17px"><text x="234.5" y="445.5">Código</text></g><path d="M 226 151 L 226 158.26" fill="none" stroke="none" pointer-events="stroke"/><path d="M 226 168.76 L 219 154.76 L 226 158.26 L 233 154.76 Z" fill="none" stroke="none" pointer-events="all"/><path d="M 227.42 150.68 M 225.88 151.72 C 226.19 152.42 225.41 154.52 225.87 158.93 M 226.24 151.28 C 225.72 152.31 226.06 153.96 225.92 157.97" fill="none" stroke="#324ab2" stroke-width="2" stroke-linejoin="round" stroke-linecap="round" stroke-miterlimit="10" pointer-events="stroke"/><path d="M 219.13 154.61 C 219.13 154.61 219.13 154.61 219.13 154.61 M 219.13 154.61 C 219.13 154.61 219.13 154.61 219.13 154.61 M 222.7 161.64 C 224.52 160.77 225.27 160.21 226.08 157.99 M 222.96 161.98 C 223.93 161.16 224.58 160.46 226.4 158.19" fill="none" stroke="#324ab2" stroke-linejoin="round" stroke-linecap="round" stroke-miterlimit="10" pointer-events="all"/><path d="M 226.58 168.66 M 226 168.8 C 223.9 166.16 223.25 162.42 218.62 156.24 M 225.46 168.23 C 223.94 165.48 222.96 161.15 218.27 154.6 M 218.74 154.63 C 221.54 156.05 224.62 157.58 226.18 157.94 M 218.98 154.69 C 220.07 155.57 222.16 155.99 226.37 157.95 M 226.26 158.36 C 227.09 157.66 229.56 157.19 232.3 155.32 M 226.34 158.57 C 228.03 156.94 230.74 155.78 233.21 154.45 M 234.24 153.89 C 232.03 157.31 230.17 160.75 224.61 168.82 M 232.89 154.03 C 231.05 159.14 229.49 162.55 226.67 168.9" fill="none" stroke="#324ab2" stroke-width="2" stroke-linejoin="round" stroke-linecap="round" stroke-miterlimit="10" pointer-events="all"/><path d="M 229 303.66 L 229 330" fill="none" stroke="none" pointer-events="stroke"/><path d="M 229 293.16 L 236 307.16 L 229 303.66 L 222 307.16 Z" fill="none" stroke="none" pointer-events="all"/><path d="M 230.42 303.68 M 230.36 304.81 C 230.85 312.4 228.46 320.86 229.07 329.38 M 229.09 304.25 C 229.45 313.62 229.7 321.77 228.95 329.74" fill="none" stroke="#324ab2" stroke-width="2" stroke-linejoin="round" stroke-linecap="round" stroke-miterlimit="10" pointer-events="stroke"/><path d="M 229.06 293.1 C 229.06 293.1 229.06 293.1 229.06 293.1 M 229.06 293.1 C 229.06 293.1 229.06 293.1 229.06 293.1 M 230.23 303.96 C 230.98 303.73 231.96 302.38 233.57 300.53 M 229.94 304.28 C 230.64 303.24 231.77 302.01 232.9 300.78" fill="none" stroke="#324ab2" stroke-linejoin="round" stroke-linecap="round" stroke-miterlimit="10" pointer-events="all"/><path d="M 229.89 291.58 M 228.25 294.61 C 231 296.19 233.83 300.43 235.25 306.7 M 229.17 293.62 C 231.42 298 235.02 304.21 235.95 306.78 M 235.45 307.22 C 234.33 306.86 231.41 305.43 228.89 303.04 M 236.07 307.23 C 234.23 306.56 232.69 305.36 228.67 303.63 M 229.35 303.34 C 225.53 305.39 223.06 306.93 222.28 306.57 M 228.62 303.85 C 226.68 304.58 224.58 305.87 221.95 307.46 M 222.74 307.6 C 224.52 303.48 224.26 299.49 228.29 294.24 M 221.35 307.91 C 224.01 302.11 226.05 298.65 228.25 293.5" fill="none" stroke="#324ab2" stroke-width="2" stroke-linejoin="round" stroke-linecap="round" stroke-miterlimit="10" pointer-events="all"/><rect x="0" y="1" width="75" height="20" fill="none" stroke="none" pointer-events="all"/><g fill="#324AB2" font-family="Ink Free" font-weight="bold" text-anchor="end" font-size="17px"><text x="62.5" y="15.5">MAX.</text></g><rect x="0" y="471" width="75" height="20" fill="none" stroke="none" pointer-events="all"/><g fill="#324AB2" font-family="Ink Free" font-weight="bold" text-anchor="end" font-size="17px"><text x="62.5" y="485.5">0x0000</text></g><path d="M 405.69 11.8 L 424.02 11.07 L 423.64 119.98 L 404.25 122.93" fill="none" stroke="none" transform="translate(414,0)scale(-1,1)translate(-414,0)" pointer-events="all"/><path d="M 424.43 11.87 M 423.47 10.73 C 420.3 10.51 417.7 11.75 413.63 10.78 M 422.78 10.89 C 420.73 11.47 417.75 10.6 414.23 10.88 M 415.19 12.92 C 414.04 49.54 416.78 92.49 413.49 121.49 M 413.6 10.44 C 414.97 41.66 413.8 72.12 414.52 121 M 414.82 121.38 C 416.31 120.98 418.84 121.5 422.33 120.59 M 413.97 120.75 C 416.59 120.67 418.58 120.91 423.23 121.17" fill="none" stroke="#324ab2" stroke-width="2" stroke-linejoin="round" stroke-linecap="round" stroke-miterlimit="10" transform="translate(414,0)scale(-1,1)translate(-414,0)" pointer-events="all"/><path d="M 406.43 66.87 M 405.47 65.73 C 407.06 65.46 409.24 66.69 413.63 65.78 M 404.78 65.89 C 407.71 66.4 409.71 65.53 414.23 65.88" fill="none" stroke="#324ab2" stroke-width="2" stroke-linejoin="round" stroke-linecap="round" stroke-miterlimit="10" transform="translate(414,0)scale(-1,1)translate(-414,0)" pointer-events="all"/><path d="M 406.09 119.22 L 423.07 120.88 L 421.89 480.22 L 403.18 482.47" fill="none" stroke="none" transform="translate(414,0)scale(-1,1)translate(-414,0)" pointer-events="all"/><path d="M 424.43 122.21 M 422.43 120.35 C 419.86 120.59 416.08 120.98 413.82 121.48 M 423.43 120.8 C 420.83 121.06 418.96 121.32 414.3 121.12 M 414.19 121.73 C 414.56 223.96 416.04 327.44 414.54 480.44 M 414.53 120.73 C 412.08 235.4 412.06 350.49 414.43 480.53 M 414.39 480.39 C 416.44 481.46 418.75 480.34 422.11 481.28 M 414.38 481.32 C 417.5 481.04 420.56 481.3 422.72 481.05" fill="none" stroke="#324ab2" stroke-width="2" stroke-linejoin="round" stroke-linecap="round" stroke-miterlimit="10" transform="translate(414,0)scale(-1,1)translate(-414,0)" pointer-events="all"/><path d="M 406.43 302.21 M 404.43 300.35 C 408.79 300.62 411.95 301.01 413.82 301.48 M 405.43 300.8 C 406.79 301.13 408.88 301.38 414.3 301.12" fill="none" stroke="#324ab2" stroke-width="2" stroke-linejoin="round" stroke-linecap="round" stroke-miterlimit="10" transform="translate(414,0)scale(-1,1)translate(-414,0)" pointer-events="all"/><rect x="435" y="281" width="100" height="40" fill="none" stroke="none" transform="translate(485,0)scale(-1,1)translate(-485,0)" pointer-events="all"/><g fill="#324AB2" font-family="Ink Free" font-weight="bold" font-size="17px"><text x="436.5" y="295.5">Espacio</text><text x="436.5" y="315.5">de usuario</text></g><rect x="435" y="46" width="100" height="40" fill="none" stroke="none" transform="translate(485,0)scale(-1,1)translate(-485,0)" pointer-events="all"/><g fill="#324AB2" font-family="Ink Free" font-weight="bold" font-size="17px"><text x="436.5" y="60.5">Espacio</text><text x="436.5" y="80.5">de núcleo</text></g><path d="M 83.29 169.49 L 386.21 170.31 L 386.66 190.92 L 83.95 191.06" fill="#ffffff" stroke="none" pointer-events="all"/><path d="M 86.26 171.36 C 196.22 170.03 308.55 169.94 384.74 170.39 M 84.5 170.6 C 187.74 171.38 292.16 172.07 384.33 171.03 M 384.66 172.82 C 386.57 174.25 383.35 179.58 384.52 192.61 M 384.29 170.63 C 385.47 177.95 384.82 185.05 384.31 190.25 M 385.78 192.28 C 321.98 189.79 257.17 190.37 85.16 190.52 M 385.26 190.46 C 285.9 191.76 187.04 190.82 84.3 190.95 M 86.8 191.19 C 85.57 183.34 83.95 178.28 85.5 171.58 M 85.87 191.78 C 85.97 183.58 84.8 174.48 84.39 170.19" fill="none" stroke="#324ab2" stroke-width="2" stroke-linejoin="round" stroke-linecap="round" stroke-miterlimit="10" pointer-events="all"/><g fill="#324AB2" font-family="Ink Free" font-weight="bold" text-anchor="middle" font-size="17px"><text x="234.5" y="185.5">Pila del hilo 1</text></g><path d="M 226 191 L 226.11 198.27" fill="none" stroke="none" pointer-events="stroke"/><path d="M 226.27 208.76 L 219.06 194.87 L 226.11 198.27 L 233.06 194.66 Z" fill="none" stroke="none" pointer-events="all"/><path d="M 227.43 189.57 M 226.53 190.71 C 225.5 193.01 226.39 195.44 226.59 197.99 M 226.26 191.3 C 225.99 193.56 225.88 196.63 225.88 198.42" fill="none" stroke="#324ab2" stroke-width="2" stroke-linejoin="round" stroke-linecap="round" stroke-miterlimit="10" pointer-events="stroke"/><path d="M 219.34 194.55 C 219.34 194.55 219.34 194.55 219.34 194.55 M 219.34 194.55 C 219.34 194.55 219.34 194.55 219.34 194.55 M 222.51 202.24 C 223.88 201.13 224.05 200.67 226.36 197.91 M 222.93 202.77 C 223.51 201.88 224.47 200.61 226.9 198.47" fill="none" stroke="#324ab2" stroke-linejoin="round" stroke-linecap="round" stroke-miterlimit="10" pointer-events="all"/><path d="M 224.88 209.37 M 227.04 210.22 C 225.9 203.91 222.81 202.77 219.14 193.87 M 226.66 208.57 C 224.01 205.74 223.67 203.15 219.72 194.1 M 218.94 194.39 C 221.99 196.7 224.32 198.05 226.6 197.7 M 218.72 195.22 C 221.05 195.51 223 196.23 225.85 198.25 M 226.17 199.01 C 228.14 197.28 230.54 196.3 232.45 194.31 M 226.24 198.59 C 227.4 197.81 229.37 196.4 233.01 194.89 M 234.05 195.18 C 230.28 197.81 227.17 202.95 227.76 210.02 M 232.77 194.36 C 230.65 198.84 228.92 203.09 226.97 208.97" fill="none" stroke="#324ab2" stroke-width="2" stroke-linejoin="round" stroke-linecap="round" stroke-miterlimit="10" pointer-events="all"/><path d="M 84.09 222.33 L 384.3 219.93 L 383.16 241.39 L 85.81 240.13" fill="#ffffff" stroke="none" pointer-events="all"/><path d="M 84.58 219.84 C 195.76 217.91 307.74 219.45 383.58 220.96 M 85.01 220.99 C 201.19 220.68 316.44 220.53 384.95 220.66 M 383.73 219.32 C 384.98 227.41 387.15 231.7 383.3 240.87 M 384.89 221.03 C 384.08 226.97 385.48 232.58 385.13 240.96 M 384.39 241.97 C 311.16 239.46 235.89 239.25 84.92 239.93 M 385.34 241.71 C 300.22 241.19 215.64 241.31 85.67 241.01 M 85.36 240.63 C 83.8 234.81 86.72 229.7 86.68 219.16 M 84.31 241.78 C 84.18 233.72 84.01 227.58 85.27 220.17" fill="none" stroke="#324ab2" stroke-width="2" stroke-linejoin="round" stroke-linecap="round" stroke-miterlimit="10" pointer-events="all"/><g fill="#324AB2" font-family="Ink Free" font-weight="bold" text-anchor="middle" font-size="17px"><text x="234.5" y="235.5">Pila del hilo 2</text></g><path d="M 225 241 L 225 248.26" fill="none" stroke="none" pointer-events="stroke"/><path d="M 225 258.76 L 218 244.76 L 225 248.26 L 232 244.76 Z" fill="none" stroke="none" pointer-events="all"/><path d="M 226.43 240.25 M 225.29 241.56 C 225.43 243.5 224.67 244.85 224.33 247.65 M 224.85 241.16 C 225.06 242.91 225.15 244.79 224.9 248.08" fill="none" stroke="#324ab2" stroke-width="2" stroke-linejoin="round" stroke-linecap="round" stroke-miterlimit="10" pointer-events="stroke"/><path d="M 217.85 244.93 C 217.85 244.93 217.85 244.93 217.85 244.93 M 217.85 244.93 C 217.85 244.93 217.85 244.93 217.85 244.93 M 221.49 252.09 C 222.56 251.57 224.17 250.62 225.62 248.92 M 221.72 252.5 C 223.17 251.19 224.44 249.56 225.08 248.5" fill="none" stroke="#324ab2" stroke-linejoin="round" stroke-linecap="round" stroke-miterlimit="10" pointer-events="all"/><path d="M 224.24 260.41 M 224.25 259.92 C 222.19 255.88 221.55 252.13 217.33 246.14 M 225.25 258.99 C 223.85 255.36 222.06 250.94 218.46 245.13 M 217.3 244.65 C 220.5 246.74 223.55 247.01 224.93 248.66 M 217.84 244.6 C 220.24 245.73 222.4 246.63 224.9 248.02 M 225.24 248.15 C 226.02 248 228.32 246.99 231.79 245.23 M 225.26 248.34 C 226.6 247.73 228.03 246.72 232.22 244.63 M 232 244.78 C 230.38 247.32 227.62 252.5 224.71 258.92 M 232.19 244.29 C 231.19 247.42 228.73 250.57 224.43 259.37" fill="none" stroke="#324ab2" stroke-width="2" stroke-linejoin="round" stroke-linecap="round" stroke-miterlimit="10" pointer-events="all"/></g></svg>