<?xml version="1.0" encoding="UTF-8" standalone="no"?>
<svg
   version="1.2"
   width="745.15747"
   height="302.24408"
   viewBox="0 0 21030 8529.9995"
   preserveAspectRatio="xMidYMid"
   clip-path="url(#presentation_clip_path)"
   xml:space="preserve"
   id="svg2"
   inkscape:version="1.2 (dc2aedaf03, 2022-05-15)"
   sodipodi:docname="procesos_multihilo.svg"
   style="fill-rule:evenodd;stroke-width:28.22200012;stroke-linejoin:round"
   xmlns:inkscape="http://www.inkscape.org/namespaces/inkscape"
   xmlns:sodipodi="http://sodipodi.sourceforge.net/DTD/sodipodi-0.dtd"
   xmlns="http://www.w3.org/2000/svg"
   xmlns:svg="http://www.w3.org/2000/svg"
   xmlns:rdf="http://www.w3.org/1999/02/22-rdf-syntax-ns#"
   xmlns:cc="http://creativecommons.org/ns#"
   xmlns:dc="http://purl.org/dc/elements/1.1/"
   xmlns:ooo="http://xml.openoffice.org/svg/export"><metadata
     id="metadata358"><rdf:RDF><cc:Work
         rdf:about=""><dc:format>image/svg+xml</dc:format><dc:type
           rdf:resource="http://purl.org/dc/dcmitype/StillImage" /></cc:Work></rdf:RDF></metadata><sodipodi:namedview
     pagecolor="#ffffff"
     bordercolor="#666666"
     borderopacity="1"
     objecttolerance="10"
     gridtolerance="10"
     guidetolerance="10"
     inkscape:pageopacity="0"
     inkscape:pageshadow="2"
     inkscape:window-width="683"
     inkscape:window-height="480"
     id="namedview356"
     showgrid="false"
     fit-margin-top="0"
     fit-margin-left="0"
     fit-margin-right="0"
     fit-margin-bottom="0"
     inkscape:zoom="0.20813889"
     inkscape:cx="739.89056"
     inkscape:cy="-208.99506"
     inkscape:window-x="0"
     inkscape:window-y="0"
     inkscape:window-maximized="0"
     inkscape:current-layer="svg2"
     inkscape:showpageshadow="0"
     inkscape:pagecheckerboard="0"
     inkscape:deskcolor="#d1d1d1" /><defs
     class="ClipPathGroup"
     id="defs4"><clipPath
       id="presentation_clip_path"
       clipPathUnits="userSpaceOnUse"><rect
         x="0"
         y="0"
         width="45000"
         height="32000"
         id="rect7" /></clipPath></defs><defs
     class="TextShapeIndex"
     id="defs9"><g
       ooo:slide="id1"
       ooo:id-list="id3 id4 id5 id6 id7 id8 id9 id10 id11 id12 id13 id14 id15 id16 id17 id18 id19 id20 id21 id22 id23 id24 id25 id26"
       id="g11" /></defs><defs
     class="EmbeddedBulletChars"
     id="defs13"><g
       id="bullet-char-template(57356)"
       transform="scale(4.8828125e-4,-4.8828125e-4)"><path
         d="M 580,1141 1163,571 580,0 -4,571 580,1141 z"
         id="path16"
         inkscape:connector-curvature="0" /></g><g
       id="bullet-char-template(57354)"
       transform="scale(4.8828125e-4,-4.8828125e-4)"><path
         d="m 8,1128 1129,0 L 1137,0 8,0 8,1128 z"
         id="path19"
         inkscape:connector-curvature="0" /></g><g
       id="bullet-char-template(10146)"
       transform="scale(4.8828125e-4,-4.8828125e-4)"><path
         d="M 174,0 602,739 174,1481 1456,739 174,0 z m 1184,739 -1049,607 350,-607 699,0 z"
         id="path22"
         inkscape:connector-curvature="0" /></g><g
       id="bullet-char-template(10132)"
       transform="scale(4.8828125e-4,-4.8828125e-4)"><path
         d="M 2015,739 1276,0 717,0 l 543,543 -1086,0 0,393 1086,0 -543,545 557,0 741,-742 z"
         id="path25"
         inkscape:connector-curvature="0" /></g><g
       id="bullet-char-template(10007)"
       transform="scale(4.8828125e-4,-4.8828125e-4)"><path
         d="m 0,-2 c -7,16 -16,29 -25,39 l 381,530 c -94,256 -141,385 -141,387 0,25 13,38 40,38 9,0 21,-2 34,-5 21,4 42,12 65,25 l 27,-13 111,-251 280,301 64,-25 24,25 c 21,-10 41,-24 62,-43 C 886,937 835,863 770,784 769,783 710,716 594,584 L 774,223 c 0,-27 -21,-55 -63,-84 l 16,-20 C 717,90 699,76 672,76 641,76 570,178 457,381 L 164,-76 c -22,-34 -53,-51 -92,-51 -42,0 -63,17 -64,51 -7,9 -10,24 -10,44 0,9 1,19 2,30 z"
         id="path28"
         inkscape:connector-curvature="0" /></g><g
       id="bullet-char-template(10004)"
       transform="scale(4.8828125e-4,-4.8828125e-4)"><path
         d="M 285,-33 C 182,-33 111,30 74,156 52,228 41,333 41,471 c 0,78 14,145 41,201 34,71 87,106 158,106 53,0 88,-31 106,-94 l 23,-176 c 8,-64 28,-97 59,-98 l 735,706 c 11,11 33,17 66,17 42,0 63,-15 63,-46 l 0,-122 c 0,-36 -10,-64 -30,-84 L 442,47 C 390,-6 338,-33 285,-33 z"
         id="path31"
         inkscape:connector-curvature="0" /></g><g
       id="bullet-char-template(9679)"
       transform="scale(4.8828125e-4,-4.8828125e-4)"><path
         d="M 813,0 C 632,0 489,54 383,161 276,268 223,411 223,592 c 0,181 53,324 160,431 106,107 249,161 430,161 179,0 323,-54 432,-161 108,-107 162,-251 162,-431 0,-180 -54,-324 -162,-431 C 1136,54 992,0 813,0 z"
         id="path34"
         inkscape:connector-curvature="0" /></g><g
       id="bullet-char-template(8226)"
       transform="scale(4.8828125e-4,-4.8828125e-4)"><path
         d="m 346,457 c -73,0 -137,26 -191,78 -54,51 -81,114 -81,188 0,73 27,136 81,188 54,52 118,78 191,78 73,0 134,-26 185,-79 51,-51 77,-114 77,-187 0,-75 -25,-137 -76,-188 -50,-52 -112,-78 -186,-78 z"
         id="path37"
         inkscape:connector-curvature="0" /></g><g
       id="bullet-char-template(8211)"
       transform="scale(4.8828125e-4,-4.8828125e-4)"><path
         d="m -4,459 1139,0 0,147 -1139,0 0,-147 z"
         id="path40"
         inkscape:connector-curvature="0" /></g></defs><defs
     class="TextEmbeddedBitmaps"
     id="defs42" /><g
     id="g44"
     transform="translate(-1620,-1620.0004)"><g
       id="id2"
       class="Master_Slide"><g
         id="bg-id2"
         class="Background" /><g
         id="bo-id2"
         class="BackgroundObjects" /></g></g><g
     class="SlideGroup"
     id="g49"
     transform="translate(-1620,-1620.0004)"><g
       id="g51"><g
         id="id1"
         class="Slide"
         clip-path="url(#presentation_clip_path)"><g
           class="Page"
           id="g54"><g
             class="com.sun.star.drawing.RectangleShape"
             id="g56"><g
               id="id3"><path
                 d="m 4635,10135 2700,0 c 166,0 300,-134 300,-300 l 0,-7900 c 0,-166 -134,-300 -300,-300 l -5400,0 c -166,0 -300,134 -300,300 l 0,7900 c 0,166 134,300 300,300 l 2700,0 z"
                 id="path59"
                 inkscape:connector-curvature="0"
                 style="fill:#94bd5e;stroke:none" /><path
                 d="m 4635,10135 2700,0 c 166,0 300,-134 300,-300 l 0,-7900 c 0,-166 -134,-300 -300,-300 l -5400,0 c -166,0 -300,134 -300,300 l 0,7900 c 0,166 134,300 300,300 l 2700,0 z"
                 id="path61"
                 inkscape:connector-curvature="0"
                 style="fill:none;stroke:#000000;stroke-width:30" /></g></g><g
             class="com.sun.star.drawing.TextShape"
             id="g63"><g
               id="id4"><text
   class="TextShape"
   id="text66"
   style="line-height:0%"><tspan
     class="TextParagraph"
     font-size="494px"
     font-weight="400"
     id="tspan68"
     style="font-weight:400;font-size:494px;font-family:'\'Liberation Sans', 'sans-serif\''"><tspan
       class="TextPosition"
       x="2679"
       y="2807"
       id="tspan70"><tspan
         id="tspan72"
         style="fill:#000000;stroke:none">proceso monohilo</tspan></tspan></tspan></text>
</g></g><g
             class="com.sun.star.drawing.RectangleShape"
             id="g74"><g
               id="id5"><path
                 d="m 15385,10135 6950,0 c 166,0 300,-134 300,-300 l 0,-7900 c 0,-166 -134,-300 -300,-300 l -13900,0 c -166,0 -300,134 -300,300 l 0,7900 c 0,166 134,300 300,300 l 6950,0 z"
                 id="path77"
                 inkscape:connector-curvature="0"
                 style="fill:#94bd5e;stroke:none" /><path
                 d="m 15385,10135 6950,0 c 166,0 300,-134 300,-300 l 0,-7900 c 0,-166 -134,-300 -300,-300 l -13900,0 c -166,0 -300,134 -300,300 l 0,7900 c 0,166 134,300 300,300 l 6950,0 z"
                 id="path79"
                 inkscape:connector-curvature="0"
                 style="fill:none;stroke:#000000;stroke-width:30" /></g></g><g
             class="com.sun.star.drawing.TextShape"
             id="g81"><g
               id="id6"><text
   class="TextShape"
   id="text84"
   style="line-height:0%"><tspan
     class="TextParagraph"
     font-size="494px"
     font-weight="400"
     id="tspan86"
     style="font-weight:400;font-size:494px;font-family:'\'Liberation Sans', 'sans-serif\''"><tspan
       class="TextPosition"
       x="13525"
       y="2807"
       id="tspan88"><tspan
         id="tspan90"
         style="fill:#000000;stroke:none">proceso multihilo</tspan></tspan></tspan></text>
</g></g><g
             class="com.sun.star.drawing.RectangleShape"
             id="g92"><g
               id="id7"><path
   d="m 9885,8135 950,0 c 166,0 300,-134 300,-300 l 0,-900 c 0,-166 -134,-300 -300,-300 l -1900,0 c -166,0 -300,134 -300,300 l 0,900 c 0,166 134,300 300,300 l 950,0 z"
   id="path95"
   inkscape:connector-curvature="0"
   style="fill:#ffff99;stroke:none" /><path
   d="m 9885,8135 950,0 c 166,0 300,-134 300,-300 l 0,-900 c 0,-166 -134,-300 -300,-300 l -1900,0 c -166,0 -300,134 -300,300 l 0,900 c 0,166 134,300 300,300 l 950,0 z"
   id="path97"
   inkscape:connector-curvature="0"
   style="fill:none;stroke:#000000;stroke-width:30" /><text
   class="TextShape"
   id="text99"
   style="line-height:0%"><tspan
     class="TextParagraph"
     font-size="494px"
     font-weight="400"
     id="tspan101"
     style="font-weight:400;font-size:494px;font-family:'\'Liberation Sans', 'sans-serif\''"><tspan
       class="TextPosition"
       x="9277"
       y="7557"
       id="tspan103"><tspan
         id="tspan105"
         style="fill:#000000;stroke:none">datos</tspan></tspan></tspan></text>
</g></g><g
             class="com.sun.star.drawing.RectangleShape"
             id="g107"><g
               id="id8"><path
   d="m 9885,9635 950,0 c 166,0 300,-134 300,-300 l 0,-900 c 0,-166 -134,-300 -300,-300 l -1900,0 c -166,0 -300,134 -300,300 l 0,900 c 0,166 134,300 300,300 l 950,0 z"
   id="path110"
   inkscape:connector-curvature="0"
   style="fill:#ffff99;stroke:none" /><path
   d="m 9885,9635 950,0 c 166,0 300,-134 300,-300 l 0,-900 c 0,-166 -134,-300 -300,-300 l -1900,0 c -166,0 -300,134 -300,300 l 0,900 c 0,166 134,300 300,300 l 950,0 z"
   id="path112"
   inkscape:connector-curvature="0"
   style="fill:none;stroke:#000000;stroke-width:30" /><text
   class="TextShape"
   id="text114"
   style="line-height:0%"><tspan
     class="TextParagraph"
     font-size="494px"
     font-weight="400"
     id="tspan116"
     style="font-weight:400;font-size:494px;font-family:'\'Liberation Sans', 'sans-serif\''"><tspan
       class="TextPosition"
       x="9154"
       y="9057"
       id="tspan118"><tspan
         id="tspan120"
         style="fill:#000000;stroke:none">código</tspan></tspan></tspan></text>
</g></g><g
             class="com.sun.star.drawing.RectangleShape"
             id="g122"><g
               id="id9"><path
   d="m 9885,6635 950,0 c 166,0 300,-134 300,-300 l 0,-900 c 0,-166 -134,-300 -300,-300 l -1900,0 c -166,0 -300,134 -300,300 l 0,900 c 0,166 134,300 300,300 l 950,0 z"
   id="path125"
   inkscape:connector-curvature="0"
   style="fill:#ffff99;stroke:none" /><path
   d="m 9885,6635 950,0 c 166,0 300,-134 300,-300 l 0,-900 c 0,-166 -134,-300 -300,-300 l -1900,0 c -166,0 -300,134 -300,300 l 0,900 c 0,166 134,300 300,300 l 950,0 z"
   id="path127"
   inkscape:connector-curvature="0"
   style="fill:none;stroke:#000000;stroke-width:30" /><text
   class="TextShape"
   id="text129"
   style="line-height:0%"><tspan
     class="TextParagraph"
     font-size="494px"
     font-weight="400"
     id="tspan131"
     style="font-weight:400;font-size:494px;font-family:'\'Liberation Sans', 'sans-serif\''"><tspan
       class="TextPosition"
       x="9015"
       y="6057"
       id="tspan133"><tspan
         id="tspan135"
         style="fill:#000000;stroke:none">ficheros</tspan></tspan></tspan></text>
</g></g><g
             class="com.sun.star.drawing.RectangleShape"
             id="g137"><g
               id="id10"><path
                 d="m 13385,9635 1450,0 c 166,0 300,-134 300,-300 l 0,-4900 c 0,-166 -134,-300 -300,-300 l -2900,0 c -166,0 -300,134 -300,300 l 0,4900 c 0,166 134,300 300,300 l 1450,0 z"
                 id="path140"
                 inkscape:connector-curvature="0"
                 style="fill:#ffff99;stroke:none" /><path
                 d="m 13385,9635 1450,0 c 166,0 300,-134 300,-300 l 0,-4900 c 0,-166 -134,-300 -300,-300 l -2900,0 c -166,0 -300,134 -300,300 l 0,4900 c 0,166 134,300 300,300 l 1450,0 z"
                 id="path142"
                 inkscape:connector-curvature="0"
                 style="fill:none;stroke:#000000;stroke-width:30" /></g></g><g
             class="com.sun.star.drawing.RectangleShape"
             id="g144"><g
               id="id11"><path
   d="m 13385,9135 950,0 c 166,0 300,-134 300,-300 l 0,-900 c 0,-166 -134,-300 -300,-300 l -1900,0 c -166,0 -300,134 -300,300 l 0,900 c 0,166 134,300 300,300 l 950,0 z"
   id="path147"
   inkscape:connector-curvature="0"
   style="fill:#ffffcc;stroke:none" /><path
   d="m 13385,9135 950,0 c 166,0 300,-134 300,-300 l 0,-900 c 0,-166 -134,-300 -300,-300 l -1900,0 c -166,0 -300,134 -300,300 l 0,900 c 0,166 134,300 300,300 l 950,0 z"
   id="path149"
   inkscape:connector-curvature="0"
   style="fill:none;stroke:#000000;stroke-width:30" /><text
   class="TextShape"
   id="text151"
   style="line-height:0%"><tspan
     class="TextParagraph"
     font-size="494px"
     font-weight="400"
     id="tspan153"
     style="font-weight:400;font-size:494px;font-family:'\'Liberation Sans', 'sans-serif\''"><tspan
       class="TextPosition"
       x="12432"
       y="8557"
       id="tspan155"><tspan
         id="tspan157"
         style="fill:#000000;stroke:none">registros</tspan></tspan></tspan></text>
</g></g><g
             class="com.sun.star.drawing.RectangleShape"
             id="g159"><g
               id="id12"><path
   d="m 13385,7635 950,0 c 166,0 300,-134 300,-300 l 0,-900 c 0,-166 -134,-300 -300,-300 l -1900,0 c -166,0 -300,134 -300,300 l 0,900 c 0,166 134,300 300,300 l 950,0 z"
   id="path162"
   inkscape:connector-curvature="0"
   style="fill:#ffffcc;stroke:none" /><path
   d="m 13385,7635 950,0 c 166,0 300,-134 300,-300 l 0,-900 c 0,-166 -134,-300 -300,-300 l -1900,0 c -166,0 -300,134 -300,300 l 0,900 c 0,166 134,300 300,300 l 950,0 z"
   id="path164"
   inkscape:connector-curvature="0"
   style="fill:none;stroke:#000000;stroke-width:30" /><text
   class="TextShape"
   id="text166"
   style="line-height:0%"><tspan
     class="TextParagraph"
     font-size="494px"
     font-weight="400"
     id="tspan168"
     style="font-weight:400;font-size:494px;font-family:'\'Liberation Sans', 'sans-serif\''"><tspan
       class="TextPosition"
       x="13000"
       y="7057"
       id="tspan170"><tspan
         id="tspan172"
         style="fill:#000000;stroke:none">pila</tspan></tspan></tspan></text>
</g></g><g
             class="com.sun.star.drawing.RectangleShape"
             id="g174"><g
               id="id13"><path
                 d="m 16885,9635 1450,0 c 166,0 300,-134 300,-300 l 0,-4900 c 0,-166 -134,-300 -300,-300 l -2900,0 c -166,0 -300,134 -300,300 l 0,4900 c 0,166 134,300 300,300 l 1450,0 z"
                 id="path177"
                 inkscape:connector-curvature="0"
                 style="fill:#ffff99;stroke:none" /><path
                 d="m 16885,9635 1450,0 c 166,0 300,-134 300,-300 l 0,-4900 c 0,-166 -134,-300 -300,-300 l -2900,0 c -166,0 -300,134 -300,300 l 0,4900 c 0,166 134,300 300,300 l 1450,0 z"
                 id="path179"
                 inkscape:connector-curvature="0"
                 style="fill:none;stroke:#000000;stroke-width:30" /></g></g><g
             class="com.sun.star.drawing.RectangleShape"
             id="g181"><g
               id="id14"><path
   d="m 16885,9135 950,0 c 166,0 300,-134 300,-300 l 0,-900 c 0,-166 -134,-300 -300,-300 l -1900,0 c -166,0 -300,134 -300,300 l 0,900 c 0,166 134,300 300,300 l 950,0 z"
   id="path184"
   inkscape:connector-curvature="0"
   style="fill:#ffffcc;stroke:none" /><path
   d="m 16885,9135 950,0 c 166,0 300,-134 300,-300 l 0,-900 c 0,-166 -134,-300 -300,-300 l -1900,0 c -166,0 -300,134 -300,300 l 0,900 c 0,166 134,300 300,300 l 950,0 z"
   id="path186"
   inkscape:connector-curvature="0"
   style="fill:none;stroke:#000000;stroke-width:30" /><text
   class="TextShape"
   id="text188"
   style="line-height:0%"><tspan
     class="TextParagraph"
     font-size="494px"
     font-weight="400"
     id="tspan190"
     style="font-weight:400;font-size:494px;font-family:'\'Liberation Sans', 'sans-serif\''"><tspan
       class="TextPosition"
       x="15932"
       y="8557"
       id="tspan192"><tspan
         id="tspan194"
         style="fill:#000000;stroke:none">registros</tspan></tspan></tspan></text>
</g></g><g
             class="com.sun.star.drawing.RectangleShape"
             id="g196"><g
               id="id15"><path
   d="m 16885,7635 950,0 c 166,0 300,-134 300,-300 l 0,-900 c 0,-166 -134,-300 -300,-300 l -1900,0 c -166,0 -300,134 -300,300 l 0,900 c 0,166 134,300 300,300 l 950,0 z"
   id="path199"
   inkscape:connector-curvature="0"
   style="fill:#ffffcc;stroke:none" /><path
   d="m 16885,7635 950,0 c 166,0 300,-134 300,-300 l 0,-900 c 0,-166 -134,-300 -300,-300 l -1900,0 c -166,0 -300,134 -300,300 l 0,900 c 0,166 134,300 300,300 l 950,0 z"
   id="path201"
   inkscape:connector-curvature="0"
   style="fill:none;stroke:#000000;stroke-width:30" /><text
   class="TextShape"
   id="text203"
   style="line-height:0%"><tspan
     class="TextParagraph"
     font-size="494px"
     font-weight="400"
     id="tspan205"
     style="font-weight:400;font-size:494px;font-family:'\'Liberation Sans', 'sans-serif\''"><tspan
       class="TextPosition"
       x="16500"
       y="7057"
       id="tspan207"><tspan
         id="tspan209"
         style="fill:#000000;stroke:none">pila</tspan></tspan></tspan></text>
</g></g><g
             class="com.sun.star.drawing.RectangleShape"
             id="g211"><g
               id="id16"><path
                 d="m 20385,9635 1450,0 c 166,0 300,-134 300,-300 l 0,-4900 c 0,-166 -134,-300 -300,-300 l -2900,0 c -166,0 -300,134 -300,300 l 0,4900 c 0,166 134,300 300,300 l 1450,0 z"
                 id="path214"
                 inkscape:connector-curvature="0"
                 style="fill:#ffff99;stroke:none" /><path
                 d="m 20385,9635 1450,0 c 166,0 300,-134 300,-300 l 0,-4900 c 0,-166 -134,-300 -300,-300 l -2900,0 c -166,0 -300,134 -300,300 l 0,4900 c 0,166 134,300 300,300 l 1450,0 z"
                 id="path216"
                 inkscape:connector-curvature="0"
                 style="fill:none;stroke:#000000;stroke-width:30" /></g></g><g
             class="com.sun.star.drawing.RectangleShape"
             id="g218"><g
               id="id17"><path
   d="m 20385,9135 950,0 c 166,0 300,-134 300,-300 l 0,-900 c 0,-166 -134,-300 -300,-300 l -1900,0 c -166,0 -300,134 -300,300 l 0,900 c 0,166 134,300 300,300 l 950,0 z"
   id="path221"
   inkscape:connector-curvature="0"
   style="fill:#ffffcc;stroke:none" /><path
   d="m 20385,9135 950,0 c 166,0 300,-134 300,-300 l 0,-900 c 0,-166 -134,-300 -300,-300 l -1900,0 c -166,0 -300,134 -300,300 l 0,900 c 0,166 134,300 300,300 l 950,0 z"
   id="path223"
   inkscape:connector-curvature="0"
   style="fill:none;stroke:#000000;stroke-width:30" /><text
   class="TextShape"
   id="text225"
   style="line-height:0%"><tspan
     class="TextParagraph"
     font-size="494px"
     font-weight="400"
     id="tspan227"
     style="font-weight:400;font-size:494px;font-family:'\'Liberation Sans', 'sans-serif\''"><tspan
       class="TextPosition"
       x="19432"
       y="8557"
       id="tspan229"><tspan
         id="tspan231"
         style="fill:#000000;stroke:none">registros</tspan></tspan></tspan></text>
</g></g><g
             class="com.sun.star.drawing.RectangleShape"
             id="g233"><g
               id="id18"><path
   d="m 20385,7635 950,0 c 166,0 300,-134 300,-300 l 0,-900 c 0,-166 -134,-300 -300,-300 l -1900,0 c -166,0 -300,134 -300,300 l 0,900 c 0,166 134,300 300,300 l 950,0 z"
   id="path236"
   inkscape:connector-curvature="0"
   style="fill:#ffffcc;stroke:none" /><path
   d="m 20385,7635 950,0 c 166,0 300,-134 300,-300 l 0,-900 c 0,-166 -134,-300 -300,-300 l -1900,0 c -166,0 -300,134 -300,300 l 0,900 c 0,166 134,300 300,300 l 950,0 z"
   id="path238"
   inkscape:connector-curvature="0"
   style="fill:none;stroke:#000000;stroke-width:30" /><text
   class="TextShape"
   id="text240"
   style="line-height:0%"><tspan
     class="TextParagraph"
     font-size="494px"
     font-weight="400"
     id="tspan242"
     style="font-weight:400;font-size:494px;font-family:'\'Liberation Sans', 'sans-serif\''"><tspan
       class="TextPosition"
       x="20000"
       y="7057"
       id="tspan244"><tspan
         id="tspan246"
         style="fill:#000000;stroke:none">pila</tspan></tspan></tspan></text>
</g></g><g
             class="com.sun.star.drawing.TextShape"
             id="g248"><g
               id="id19"><text
   class="TextShape"
   id="text251"
   style="line-height:0%"><tspan
     class="TextParagraph"
     font-size="494px"
     font-weight="400"
     id="tspan253"
     style="font-weight:400;font-size:494px;font-family:'\'Liberation Sans', 'sans-serif\''"><tspan
       class="TextPosition"
       x="13000"
       y="5307"
       id="tspan255"><tspan
         id="tspan257"
         style="fill:#000000;stroke:none">hilo</tspan></tspan></tspan></text>
</g></g><g
             class="com.sun.star.drawing.TextShape"
             id="g259"><g
               id="id20"><text
   class="TextShape"
   id="text262"
   style="line-height:0%"><tspan
     class="TextParagraph"
     font-size="494px"
     font-weight="400"
     id="tspan264"
     style="font-weight:400;font-size:494px;font-family:'\'Liberation Sans', 'sans-serif\''"><tspan
       class="TextPosition"
       x="16500"
       y="5307"
       id="tspan266"><tspan
         id="tspan268"
         style="fill:#000000;stroke:none">hilo</tspan></tspan></tspan></text>
</g></g><g
             class="com.sun.star.drawing.TextShape"
             id="g270"><g
               id="id21"><text
   class="TextShape"
   id="text273"
   style="line-height:0%"><tspan
     class="TextParagraph"
     font-size="494px"
     font-weight="400"
     id="tspan275"
     style="font-weight:400;font-size:494px;font-family:'\'Liberation Sans', 'sans-serif\''"><tspan
       class="TextPosition"
       x="20000"
       y="5307"
       id="tspan277"><tspan
         id="tspan279"
         style="fill:#000000;stroke:none">hilo</tspan></tspan></tspan></text>
</g></g><g
             class="com.sun.star.drawing.RectangleShape"
             id="g281"><g
               id="id22"><path
   d="m 3385,8135 950,0 c 166,0 300,-134 300,-300 l 0,-900 c 0,-166 -134,-300 -300,-300 l -1900,0 c -166,0 -300,134 -300,300 l 0,900 c 0,166 134,300 300,300 l 950,0 z"
   id="path284"
   inkscape:connector-curvature="0"
   style="fill:#ffff99;stroke:none" /><path
   d="m 3385,8135 950,0 c 166,0 300,-134 300,-300 l 0,-900 c 0,-166 -134,-300 -300,-300 l -1900,0 c -166,0 -300,134 -300,300 l 0,900 c 0,166 134,300 300,300 l 950,0 z"
   id="path286"
   inkscape:connector-curvature="0"
   style="fill:none;stroke:#000000;stroke-width:30" /><text
   class="TextShape"
   id="text288"
   style="line-height:0%"><tspan
     class="TextParagraph"
     font-size="494px"
     font-weight="400"
     id="tspan290"
     style="font-weight:400;font-size:494px;font-family:'\'Liberation Sans', 'sans-serif\''"><tspan
       class="TextPosition"
       x="2777"
       y="7557"
       id="tspan292"><tspan
         id="tspan294"
         style="fill:#000000;stroke:none">datos</tspan></tspan></tspan></text>
</g></g><g
             class="com.sun.star.drawing.RectangleShape"
             id="g296"><g
               id="id23"><path
   d="m 3385,9635 950,0 c 166,0 300,-134 300,-300 l 0,-900 c 0,-166 -134,-300 -300,-300 l -1900,0 c -166,0 -300,134 -300,300 l 0,900 c 0,166 134,300 300,300 l 950,0 z"
   id="path299"
   inkscape:connector-curvature="0"
   style="fill:#ffff99;stroke:none" /><path
   d="m 3385,9635 950,0 c 166,0 300,-134 300,-300 l 0,-900 c 0,-166 -134,-300 -300,-300 l -1900,0 c -166,0 -300,134 -300,300 l 0,900 c 0,166 134,300 300,300 l 950,0 z"
   id="path301"
   inkscape:connector-curvature="0"
   style="fill:none;stroke:#000000;stroke-width:30" /><text
   class="TextShape"
   id="text303"
   style="line-height:0%"><tspan
     class="TextParagraph"
     font-size="494px"
     font-weight="400"
     id="tspan305"
     style="font-weight:400;font-size:494px;font-family:'\'Liberation Sans', 'sans-serif\''"><tspan
       class="TextPosition"
       x="2654"
       y="9057"
       id="tspan307"><tspan
         id="tspan309"
         style="fill:#000000;stroke:none">código</tspan></tspan></tspan></text>
</g></g><g
             class="com.sun.star.drawing.RectangleShape"
             id="g311"><g
               id="id24"><path
   d="m 3385,6635 950,0 c 166,0 300,-134 300,-300 l 0,-900 c 0,-166 -134,-300 -300,-300 l -1900,0 c -166,0 -300,134 -300,300 l 0,900 c 0,166 134,300 300,300 l 950,0 z"
   id="path314"
   inkscape:connector-curvature="0"
   style="fill:#ffff99;stroke:none" /><path
   d="m 3385,6635 950,0 c 166,0 300,-134 300,-300 l 0,-900 c 0,-166 -134,-300 -300,-300 l -1900,0 c -166,0 -300,134 -300,300 l 0,900 c 0,166 134,300 300,300 l 950,0 z"
   id="path316"
   inkscape:connector-curvature="0"
   style="fill:none;stroke:#000000;stroke-width:30" /><text
   class="TextShape"
   id="text318"
   style="line-height:0%"><tspan
     class="TextParagraph"
     font-size="494px"
     font-weight="400"
     id="tspan320"
     style="font-weight:400;font-size:494px;font-family:'\'Liberation Sans', 'sans-serif\''"><tspan
       class="TextPosition"
       x="2515"
       y="6057"
       id="tspan322"><tspan
         id="tspan324"
         style="fill:#000000;stroke:none">ficheros</tspan></tspan></tspan></text>
</g></g><g
             class="com.sun.star.drawing.RectangleShape"
             id="g326"><g
               id="id25"><path
   d="m 5885,8135 950,0 c 166,0 300,-134 300,-300 l 0,-900 c 0,-166 -134,-300 -300,-300 l -1900,0 c -166,0 -300,134 -300,300 l 0,900 c 0,166 134,300 300,300 l 950,0 z"
   id="path329"
   inkscape:connector-curvature="0"
   style="fill:#ffff99;stroke:none" /><path
   d="m 5885,8135 950,0 c 166,0 300,-134 300,-300 l 0,-900 c 0,-166 -134,-300 -300,-300 l -1900,0 c -166,0 -300,134 -300,300 l 0,900 c 0,166 134,300 300,300 l 950,0 z"
   id="path331"
   inkscape:connector-curvature="0"
   style="fill:none;stroke:#000000;stroke-width:30" /><text
   class="TextShape"
   id="text333"
   style="line-height:0%"><tspan
     class="TextParagraph"
     font-size="494px"
     font-weight="400"
     id="tspan335"
     style="font-weight:400;font-size:494px;font-family:'\'Liberation Sans', 'sans-serif\''"><tspan
       class="TextPosition"
       x="5500"
       y="7557"
       id="tspan337"><tspan
         id="tspan339"
         style="fill:#000000;stroke:none">pila</tspan></tspan></tspan></text>
</g></g><g
             class="com.sun.star.drawing.RectangleShape"
             id="g341"><g
               id="id26"><path
   d="m 5885,9635 950,0 c 166,0 300,-134 300,-300 l 0,-900 c 0,-166 -134,-300 -300,-300 l -1900,0 c -166,0 -300,134 -300,300 l 0,900 c 0,166 134,300 300,300 l 950,0 z"
   id="path344"
   inkscape:connector-curvature="0"
   style="fill:#ffff99;stroke:none" /><path
   d="m 5885,9635 950,0 c 166,0 300,-134 300,-300 l 0,-900 c 0,-166 -134,-300 -300,-300 l -1900,0 c -166,0 -300,134 -300,300 l 0,900 c 0,166 134,300 300,300 l 950,0 z"
   id="path346"
   inkscape:connector-curvature="0"
   style="fill:none;stroke:#000000;stroke-width:30" /><text
   class="TextShape"
   id="text348"
   style="line-height:0%"><tspan
     class="TextParagraph"
     font-size="494px"
     font-weight="400"
     id="tspan350"
     style="font-weight:400;font-size:494px;font-family:'\'Liberation Sans', 'sans-serif\''"><tspan
       class="TextPosition"
       x="4932"
       y="9057"
       id="tspan352"><tspan
         id="tspan354"
         style="fill:#000000;stroke:none">registros</tspan></tspan></tspan></text>
</g></g></g></g></g></g></svg>
