<?xml version="1.0" encoding="UTF-8" standalone="no"?>
<svg
   xmlns:ooo="http://xml.openoffice.org/svg/export"
   xmlns:dc="http://purl.org/dc/elements/1.1/"
   xmlns:cc="http://creativecommons.org/ns#"
   xmlns:rdf="http://www.w3.org/1999/02/22-rdf-syntax-ns#"
   xmlns:svg="http://www.w3.org/2000/svg"
   xmlns="http://www.w3.org/2000/svg"
   xmlns:sodipodi="http://sodipodi.sourceforge.net/DTD/sodipodi-0.dtd"
   xmlns:inkscape="http://www.inkscape.org/namespaces/inkscape"
   version="1.2"
   width="727.44092"
   height="445.2702"
   viewBox="0 0 20530 12566.515"
   preserveAspectRatio="xMidYMid"
   clip-path="url(#presentation_clip_path)"
   xml:space="preserve"
   id="svg2"
   inkscape:version="0.48.4 r9939"
   sodipodi:docname="copy-on-write2.svg"
   style="fill-rule:evenodd;stroke-width:28.22200012;stroke-linejoin:round"><metadata
     id="metadata372"><rdf:RDF><cc:Work
         rdf:about=""><dc:format>image/svg+xml</dc:format><dc:type
           rdf:resource="http://purl.org/dc/dcmitype/StillImage" /></cc:Work></rdf:RDF></metadata><sodipodi:namedview
     pagecolor="#ffffff"
     bordercolor="#666666"
     borderopacity="1"
     objecttolerance="10"
     gridtolerance="10"
     guidetolerance="10"
     inkscape:pageopacity="0"
     inkscape:pageshadow="2"
     inkscape:window-width="640"
     inkscape:window-height="480"
     id="namedview370"
     showgrid="false"
     fit-margin-top="0"
     fit-margin-left="0"
     fit-margin-right="0"
     fit-margin-bottom="0"
     inkscape:zoom="0.20813889"
     inkscape:cx="704.40944"
     inkscape:cy="-28.824284"
     inkscape:window-x="0"
     inkscape:window-y="0"
     inkscape:window-maximized="0"
     inkscape:current-layer="svg2" /><defs
     class="ClipPathGroup"
     id="defs4"><clipPath
       id="presentation_clip_path"
       clipPathUnits="userSpaceOnUse"><rect
         x="0"
         y="0"
         width="45000"
         height="32000"
         id="rect7" /></clipPath></defs><defs
     class="TextShapeIndex"
     id="defs9"><g
       ooo:slide="id1"
       ooo:id-list="id3 id4 id5 id6 id7 id8 id9 id10 id11 id12 id13 id14 id15 id16 id17 id18 id19 id20 id21 id22 id23 id24 id25 id26 id27 id28 id29 id30"
       id="g11" /></defs><defs
     class="EmbeddedBulletChars"
     id="defs13"><g
       id="bullet-char-template(57356)"
       transform="scale(4.8828125e-4,-4.8828125e-4)"><path
         d="M 580,1141 1163,571 580,0 -4,571 580,1141 z"
         id="path16"
         inkscape:connector-curvature="0" /></g><g
       id="bullet-char-template(57354)"
       transform="scale(4.8828125e-4,-4.8828125e-4)"><path
         d="m 8,1128 1129,0 L 1137,0 8,0 8,1128 z"
         id="path19"
         inkscape:connector-curvature="0" /></g><g
       id="bullet-char-template(10146)"
       transform="scale(4.8828125e-4,-4.8828125e-4)"><path
         d="M 174,0 602,739 174,1481 1456,739 174,0 z m 1184,739 -1049,607 350,-607 699,0 z"
         id="path22"
         inkscape:connector-curvature="0" /></g><g
       id="bullet-char-template(10132)"
       transform="scale(4.8828125e-4,-4.8828125e-4)"><path
         d="M 2015,739 1276,0 717,0 l 543,543 -1086,0 0,393 1086,0 -543,545 557,0 741,-742 z"
         id="path25"
         inkscape:connector-curvature="0" /></g><g
       id="bullet-char-template(10007)"
       transform="scale(4.8828125e-4,-4.8828125e-4)"><path
         d="m 0,-2 c -7,16 -16,29 -25,39 l 381,530 c -94,256 -141,385 -141,387 0,25 13,38 40,38 9,0 21,-2 34,-5 21,4 42,12 65,25 l 27,-13 111,-251 280,301 64,-25 24,25 c 21,-10 41,-24 62,-43 C 886,937 835,863 770,784 769,783 710,716 594,584 L 774,223 c 0,-27 -21,-55 -63,-84 l 16,-20 C 717,90 699,76 672,76 641,76 570,178 457,381 L 164,-76 c -22,-34 -53,-51 -92,-51 -42,0 -63,17 -64,51 -7,9 -10,24 -10,44 0,9 1,19 2,30 z"
         id="path28"
         inkscape:connector-curvature="0" /></g><g
       id="bullet-char-template(10004)"
       transform="scale(4.8828125e-4,-4.8828125e-4)"><path
         d="M 285,-33 C 182,-33 111,30 74,156 52,228 41,333 41,471 c 0,78 14,145 41,201 34,71 87,106 158,106 53,0 88,-31 106,-94 l 23,-176 c 8,-64 28,-97 59,-98 l 735,706 c 11,11 33,17 66,17 42,0 63,-15 63,-46 l 0,-122 c 0,-36 -10,-64 -30,-84 L 442,47 C 390,-6 338,-33 285,-33 z"
         id="path31"
         inkscape:connector-curvature="0" /></g><g
       id="bullet-char-template(9679)"
       transform="scale(4.8828125e-4,-4.8828125e-4)"><path
         d="M 813,0 C 632,0 489,54 383,161 276,268 223,411 223,592 c 0,181 53,324 160,431 106,107 249,161 430,161 179,0 323,-54 432,-161 108,-107 162,-251 162,-431 0,-180 -54,-324 -162,-431 C 1136,54 992,0 813,0 z"
         id="path34"
         inkscape:connector-curvature="0" /></g><g
       id="bullet-char-template(8226)"
       transform="scale(4.8828125e-4,-4.8828125e-4)"><path
         d="m 346,457 c -73,0 -137,26 -191,78 -54,51 -81,114 -81,188 0,73 27,136 81,188 54,52 118,78 191,78 73,0 134,-26 185,-79 51,-51 77,-114 77,-187 0,-75 -25,-137 -76,-188 -50,-52 -112,-78 -186,-78 z"
         id="path37"
         inkscape:connector-curvature="0" /></g><g
       id="bullet-char-template(8211)"
       transform="scale(4.8828125e-4,-4.8828125e-4)"><path
         d="m -4,459 1139,0 0,147 -1139,0 0,-147 z"
         id="path40"
         inkscape:connector-curvature="0" /></g></defs><defs
     class="TextEmbeddedBitmaps"
     id="defs42" /><g
     id="g44"
     transform="translate(-2620,-2620.0004)"><g
       id="id2"
       class="Master_Slide"><g
         id="bg-id2"
         class="Background" /><g
         id="bo-id2"
         class="BackgroundObjects" /></g></g><g
     class="SlideGroup"
     id="g49"
     transform="translate(-2620,-2620.0004)"><g
       id="g51"><g
         id="id1"
         class="Slide"
         clip-path="url(#presentation_clip_path)"><g
           class="Page"
           id="g54"><g
             class="com.sun.star.drawing.RectangleShape"
             id="g56"><g
               id="id3"><path
                 d="m 5385,5135 2450,0 c 166,0 300,-134 300,-300 l 0,-1900 c 0,-166 -134,-300 -300,-300 l -4900,0 c -166,0 -300,134 -300,300 l 0,1900 c 0,166 134,300 300,300 l 2450,0 z"
                 id="path59"
                 inkscape:connector-curvature="0"
                 style="fill:#ffff99;stroke:none" /><path
                 d="m 5385,5135 2450,0 c 166,0 300,-134 300,-300 l 0,-1900 c 0,-166 -134,-300 -300,-300 l -4900,0 c -166,0 -300,134 -300,300 l 0,1900 c 0,166 134,300 300,300 l 2450,0 z"
                 id="path61"
                 inkscape:connector-curvature="0"
                 style="fill:none;stroke:#000000;stroke-width:30" /><text
                 class="TextShape"
                 id="text63"><tspan
                   class="TextParagraph"
                   font-size="494px"
                   font-weight="400"
                   id="tspan65"
                   style="font-size:494px;font-weight:400;font-family:'Liberation Sans, sans-serif'"><tspan
                     class="TextPosition"
                     x="3440"
                     y="4057"
                     id="tspan67"><tspan
                       id="tspan69"
                       style="fill:#000000;stroke:none">sistema operativo</tspan></tspan></tspan></text>
</g></g><g
             class="com.sun.star.drawing.RectangleShape"
             id="g71"><g
               id="id4"><path
                 d="m 5385,13635 2450,0 c 166,0 300,-134 300,-300 l 0,-10400 c 0,-166 -134,-300 -300,-300 l -4900,0 c -166,0 -300,134 -300,300 l 0,10400 c 0,166 134,300 300,300 l 2450,0 z"
                 id="path74"
                 inkscape:connector-curvature="0"
                 style="fill:none;stroke:#000000;stroke-width:30" /></g></g><g
             class="com.sun.star.drawing.RectangleShape"
             id="g76"><g
               id="id5"><path
                 d="m 5385,13635 2450,0 c 166,0 300,-134 300,-300 l 0,-7900 c 0,-166 -134,-300 -300,-300 l -4900,0 c -166,0 -300,134 -300,300 l 0,7900 c 0,166 134,300 300,300 l 2450,0 z"
                 id="path79"
                 inkscape:connector-curvature="0"
                 style="fill:#94bd5e;stroke:none" /><path
                 d="m 5385,13635 2450,0 c 166,0 300,-134 300,-300 l 0,-7900 c 0,-166 -134,-300 -300,-300 l -4900,0 c -166,0 -300,134 -300,300 l 0,7900 c 0,166 134,300 300,300 l 2450,0 z"
                 id="path81"
                 inkscape:connector-curvature="0"
                 style="fill:none;stroke:#000000;stroke-width:30" /></g></g><g
             class="com.sun.star.drawing.TextShape"
             id="g83"><g
               id="id6"><text
                 class="TextShape"
                 id="text86"><tspan
                   class="TextParagraph"
                   font-size="494px"
                   font-weight="400"
                   id="tspan88"
                   style="font-size:494px;font-weight:400;font-family:'Liberation Sans, sans-serif'"><tspan
                     class="TextPosition"
                     x="2860"
                     y="14529"
                     id="tspan90"><tspan
                       id="tspan92"
                       style="fill:#000000;stroke:none">espacio de direcciones</tspan></tspan><tspan
                     class="TextPosition"
                     x="3895"
                     y="15084"
                     id="tspan94"><tspan
                       id="tspan96"
                       style="fill:#000000;stroke:none">del proceso 1</tspan></tspan></tspan></text>
</g></g><g
             class="com.sun.star.drawing.RectangleShape"
             id="g98"><g
               id="id7"><path
                 d="m 5385,8135 2450,0 c 166,0 300,-134 300,-300 l 0,-400 c 0,-166 -134,-300 -300,-300 l -4900,0 c -166,0 -300,134 -300,300 l 0,400 c 0,166 134,300 300,300 l 2450,0 z"
                 id="path101"
                 inkscape:connector-curvature="0"
                 style="fill:#ffcc99;stroke:none" /><path
                 d="m 5385,8135 2450,0 c 166,0 300,-134 300,-300 l 0,-400 c 0,-166 -134,-300 -300,-300 l -4900,0 c -166,0 -300,134 -300,300 l 0,400 c 0,166 134,300 300,300 l 2450,0 z"
                 id="path103"
                 inkscape:connector-curvature="0"
                 style="fill:none;stroke:#000000;stroke-width:30" /><text
                 class="TextShape"
                 id="text105"><tspan
                   class="TextParagraph"
                   font-size="494px"
                   font-weight="400"
                   id="tspan107"
                   style="font-size:494px;font-weight:400;font-family:'Liberation Sans, sans-serif'"><tspan
                     class="TextPosition"
                     x="4422"
                     y="7807"
                     id="tspan109"><tspan
                       id="tspan111"
                       style="fill:#000000;stroke:none">página A</tspan></tspan></tspan></text>
</g></g><g
             class="com.sun.star.drawing.RectangleShape"
             id="g113"><g
               id="id8"><path
                 d="m 5385,9135 2450,0 c 166,0 300,-134 300,-300 l 0,-400 c 0,-166 -134,-300 -300,-300 l -4900,0 c -166,0 -300,134 -300,300 l 0,400 c 0,166 134,300 300,300 l 2450,0 z"
                 id="path116"
                 inkscape:connector-curvature="0"
                 style="fill:#ffcc99;stroke:none" /><path
                 d="m 5385,9135 2450,0 c 166,0 300,-134 300,-300 l 0,-400 c 0,-166 -134,-300 -300,-300 l -4900,0 c -166,0 -300,134 -300,300 l 0,400 c 0,166 134,300 300,300 l 2450,0 z"
                 id="path118"
                 inkscape:connector-curvature="0"
                 style="fill:none;stroke:#000000;stroke-width:30" /><text
                 class="TextShape"
                 id="text120"><tspan
                   class="TextParagraph"
                   font-size="494px"
                   font-weight="400"
                   id="tspan122"
                   style="font-size:494px;font-weight:400;font-family:'Liberation Sans, sans-serif'"><tspan
                     class="TextPosition"
                     x="4407"
                     y="8807"
                     id="tspan124"><tspan
                       id="tspan126"
                       style="fill:#000000;stroke:none">página B</tspan></tspan></tspan></text>
</g></g><g
             class="com.sun.star.drawing.RectangleShape"
             id="g128"><g
               id="id9"><path
                 d="m 5385,10135 2450,0 c 166,0 300,-134 300,-300 l 0,-400 c 0,-166 -134,-300 -300,-300 l -4900,0 c -166,0 -300,134 -300,300 l 0,400 c 0,166 134,300 300,300 l 2450,0 z"
                 id="path131"
                 inkscape:connector-curvature="0"
                 style="fill:#ffcc99;stroke:none" /><path
                 d="m 5385,10135 2450,0 c 166,0 300,-134 300,-300 l 0,-400 c 0,-166 -134,-300 -300,-300 l -4900,0 c -166,0 -300,134 -300,300 l 0,400 c 0,166 134,300 300,300 l 2450,0 z"
                 id="path133"
                 inkscape:connector-curvature="0"
                 style="fill:none;stroke:#000000;stroke-width:30" /><text
                 class="TextShape"
                 id="text135"><tspan
                   class="TextParagraph"
                   font-size="494px"
                   font-weight="400"
                   id="tspan137"
                   style="font-size:494px;font-weight:400;font-family:'Liberation Sans, sans-serif'"><tspan
                     class="TextPosition"
                     x="4392"
                     y="9807"
                     id="tspan139"><tspan
                       id="tspan141"
                       style="fill:#000000;stroke:none">página C</tspan></tspan></tspan></text>
</g></g><g
             class="com.sun.star.drawing.RectangleShape"
             id="g143"><g
               id="id10"><path
                 d="m 12885,13635 2450,0 c 166,0 300,-134 300,-300 l 0,-1900 c 0,-166 -134,-300 -300,-300 l -4900,0 c -166,0 -300,134 -300,300 l 0,1900 c 0,166 134,300 300,300 l 2450,0 z"
                 id="path146"
                 inkscape:connector-curvature="0"
                 style="fill:#ffff99;stroke:none" /><path
                 d="m 12885,13635 2450,0 c 166,0 300,-134 300,-300 l 0,-1900 c 0,-166 -134,-300 -300,-300 l -4900,0 c -166,0 -300,134 -300,300 l 0,1900 c 0,166 134,300 300,300 l 2450,0 z"
                 id="path148"
                 inkscape:connector-curvature="0"
                 style="fill:none;stroke:#000000;stroke-width:30" /><text
                 class="TextShape"
                 id="text150"><tspan
                   class="TextParagraph"
                   font-size="494px"
                   font-weight="400"
                   id="tspan152"
                   style="font-size:494px;font-weight:400;font-family:'Liberation Sans, sans-serif'"><tspan
                     class="TextPosition"
                     x="10940"
                     y="12557"
                     id="tspan154"><tspan
                       id="tspan156"
                       style="fill:#000000;stroke:none">sistema operativo</tspan></tspan></tspan></text>
</g></g><g
             class="com.sun.star.drawing.RectangleShape"
             id="g158"><g
               id="id11"><path
                 d="m 12885,13635 2450,0 c 166,0 300,-134 300,-300 l 0,-8900 c 0,-166 -134,-300 -300,-300 l -4900,0 c -166,0 -300,134 -300,300 l 0,8900 c 0,166 134,300 300,300 l 2450,0 z"
                 id="path161"
                 inkscape:connector-curvature="0"
                 style="fill:none;stroke:#000000;stroke-width:30" /></g></g><g
             class="com.sun.star.drawing.RectangleShape"
             id="g163"><g
               id="id12"><path
                 d="m 12885,11135 2450,0 c 166,0 300,-134 300,-300 l 0,-6400 c 0,-166 -134,-300 -300,-300 l -4900,0 c -166,0 -300,134 -300,300 l 0,6400 c 0,166 134,300 300,300 l 2450,0 z"
                 id="path166"
                 inkscape:connector-curvature="0"
                 style="fill:#94bd5e;stroke:none" /><path
                 d="m 12885,11135 2450,0 c 166,0 300,-134 300,-300 l 0,-6400 c 0,-166 -134,-300 -300,-300 l -4900,0 c -166,0 -300,134 -300,300 l 0,6400 c 0,166 134,300 300,300 l 2450,0 z"
                 id="path168"
                 inkscape:connector-curvature="0"
                 style="fill:none;stroke:#000000;stroke-width:30" /></g></g><g
             class="com.sun.star.drawing.RectangleShape"
             id="g170"><g
               id="id13"><path
                 d="m 12885,6135 2450,0 c 166,0 300,-134 300,-300 l 0,-400 c 0,-166 -134,-300 -300,-300 l -4900,0 c -166,0 -300,134 -300,300 l 0,400 c 0,166 134,300 300,300 l 2450,0 z"
                 id="path173"
                 inkscape:connector-curvature="0"
                 style="fill:#ffcc99;stroke:none" /><path
                 d="m 12885,6135 2450,0 c 166,0 300,-134 300,-300 l 0,-400 c 0,-166 -134,-300 -300,-300 l -4900,0 c -166,0 -300,134 -300,300 l 0,400 c 0,166 134,300 300,300 l 2450,0 z"
                 id="path175"
                 inkscape:connector-curvature="0"
                 style="fill:none;stroke:#000000;stroke-width:30" /><text
                 class="TextShape"
                 id="text177"><tspan
                   class="TextParagraph"
                   font-size="494px"
                   font-weight="400"
                   id="tspan179"
                   style="font-size:494px;font-weight:400;font-family:'Liberation Sans, sans-serif'"><tspan
                     class="TextPosition"
                     x="11922"
                     y="5807"
                     id="tspan181"><tspan
                       id="tspan183"
                       style="fill:#000000;stroke:none">página A</tspan></tspan></tspan></text>
</g></g><g
             class="com.sun.star.drawing.RectangleShape"
             id="g185"><g
               id="id14"><path
                 d="m 12885,8135 2450,0 c 166,0 300,-134 300,-300 l 0,-400 c 0,-166 -134,-300 -300,-300 l -4900,0 c -166,0 -300,134 -300,300 l 0,400 c 0,166 134,300 300,300 l 2450,0 z"
                 id="path188"
                 inkscape:connector-curvature="0"
                 style="fill:#ffcc99;stroke:none" /><path
                 d="m 12885,8135 2450,0 c 166,0 300,-134 300,-300 l 0,-400 c 0,-166 -134,-300 -300,-300 l -4900,0 c -166,0 -300,134 -300,300 l 0,400 c 0,166 134,300 300,300 l 2450,0 z"
                 id="path190"
                 inkscape:connector-curvature="0"
                 style="fill:none;stroke:#000000;stroke-width:30" /><text
                 class="TextShape"
                 id="text192"><tspan
                   class="TextParagraph"
                   font-size="494px"
                   font-weight="400"
                   id="tspan194"
                   style="font-size:494px;font-weight:400;font-family:'Liberation Sans, sans-serif'"><tspan
                     class="TextPosition"
                     x="11907"
                     y="7807"
                     id="tspan196"><tspan
                       id="tspan198"
                       style="fill:#000000;stroke:none">página B</tspan></tspan></tspan></text>
</g></g><g
             class="com.sun.star.drawing.RectangleShape"
             id="g200"><g
               id="id15"><path
                 d="m 12885,10135 2450,0 c 166,0 300,-134 300,-300 l 0,-400 c 0,-166 -134,-300 -300,-300 l -4900,0 c -166,0 -300,134 -300,300 l 0,400 c 0,166 134,300 300,300 l 2450,0 z"
                 id="path203"
                 inkscape:connector-curvature="0"
                 style="fill:#ffcc99;stroke:none" /><path
                 d="m 12885,10135 2450,0 c 166,0 300,-134 300,-300 l 0,-400 c 0,-166 -134,-300 -300,-300 l -4900,0 c -166,0 -300,134 -300,300 l 0,400 c 0,166 134,300 300,300 l 2450,0 z"
                 id="path205"
                 inkscape:connector-curvature="0"
                 style="fill:none;stroke:#000000;stroke-width:30" /><text
                 class="TextShape"
                 id="text207"><tspan
                   class="TextParagraph"
                   font-size="494px"
                   font-weight="400"
                   id="tspan209"
                   style="font-size:494px;font-weight:400;font-family:'Liberation Sans, sans-serif'"><tspan
                     class="TextPosition"
                     x="11892"
                     y="9807"
                     id="tspan211"><tspan
                       id="tspan213"
                       style="fill:#000000;stroke:none">página C</tspan></tspan></tspan></text>
</g></g><g
             class="com.sun.star.drawing.TextShape"
             id="g215"><g
               id="id16"><text
                 class="TextShape"
                 id="text218"><tspan
                   class="TextParagraph"
                   font-size="494px"
                   font-weight="400"
                   id="tspan220"
                   style="font-size:494px;font-weight:400;font-family:'Liberation Sans, sans-serif'"><tspan
                     class="TextPosition"
                     x="11273"
                     y="14557"
                     id="tspan222"><tspan
                       id="tspan224"
                       style="fill:#000000;stroke:none">memoria física</tspan></tspan></tspan></text>
</g></g><g
             class="com.sun.star.drawing.RectangleShape"
             id="g226"><g
               id="id17"><path
                 d="m 20385,5135 2450,0 c 166,0 300,-134 300,-300 l 0,-1900 c 0,-166 -134,-300 -300,-300 l -4900,0 c -166,0 -300,134 -300,300 l 0,1900 c 0,166 134,300 300,300 l 2450,0 z"
                 id="path229"
                 inkscape:connector-curvature="0"
                 style="fill:#ffff99;stroke:none" /><path
                 d="m 20385,5135 2450,0 c 166,0 300,-134 300,-300 l 0,-1900 c 0,-166 -134,-300 -300,-300 l -4900,0 c -166,0 -300,134 -300,300 l 0,1900 c 0,166 134,300 300,300 l 2450,0 z"
                 id="path231"
                 inkscape:connector-curvature="0"
                 style="fill:none;stroke:#000000;stroke-width:30" /><text
                 class="TextShape"
                 id="text233"><tspan
                   class="TextParagraph"
                   font-size="494px"
                   font-weight="400"
                   id="tspan235"
                   style="font-size:494px;font-weight:400;font-family:'Liberation Sans, sans-serif'"><tspan
                     class="TextPosition"
                     x="18440"
                     y="4057"
                     id="tspan237"><tspan
                       id="tspan239"
                       style="fill:#000000;stroke:none">sistema operativo</tspan></tspan></tspan></text>
</g></g><g
             class="com.sun.star.drawing.RectangleShape"
             id="g241"><g
               id="id18"><path
                 d="m 20385,13635 2450,0 c 166,0 300,-134 300,-300 l 0,-10400 c 0,-166 -134,-300 -300,-300 l -4900,0 c -166,0 -300,134 -300,300 l 0,10400 c 0,166 134,300 300,300 l 2450,0 z"
                 id="path244"
                 inkscape:connector-curvature="0"
                 style="fill:none;stroke:#000000;stroke-width:30" /></g></g><g
             class="com.sun.star.drawing.RectangleShape"
             id="g246"><g
               id="id19"><path
                 d="m 20385,13635 2450,0 c 166,0 300,-134 300,-300 l 0,-7900 c 0,-166 -134,-300 -300,-300 l -4900,0 c -166,0 -300,134 -300,300 l 0,7900 c 0,166 134,300 300,300 l 2450,0 z"
                 id="path249"
                 inkscape:connector-curvature="0"
                 style="fill:#94bd5e;stroke:none" /><path
                 d="m 20385,13635 2450,0 c 166,0 300,-134 300,-300 l 0,-7900 c 0,-166 -134,-300 -300,-300 l -4900,0 c -166,0 -300,134 -300,300 l 0,7900 c 0,166 134,300 300,300 l 2450,0 z"
                 id="path251"
                 inkscape:connector-curvature="0"
                 style="fill:none;stroke:#000000;stroke-width:30" /></g></g><g
             class="com.sun.star.drawing.TextShape"
             id="g253"><g
               id="id20"><text
                 class="TextShape"
                 id="text256"><tspan
                   class="TextParagraph"
                   font-size="494px"
                   font-weight="400"
                   id="tspan258"
                   style="font-size:494px;font-weight:400;font-family:'Liberation Sans, sans-serif'"><tspan
                     class="TextPosition"
                     x="17860"
                     y="14529"
                     id="tspan260"><tspan
                       id="tspan262"
                       style="fill:#000000;stroke:none">espacio de direcciones</tspan></tspan><tspan
                     class="TextPosition"
                     x="18895"
                     y="15084"
                     id="tspan264"><tspan
                       id="tspan266"
                       style="fill:#000000;stroke:none">del proceso 2</tspan></tspan></tspan></text>
</g></g><g
             class="com.sun.star.drawing.RectangleShape"
             id="g268"><g
               id="id21"><path
                 d="m 20385,8135 2450,0 c 166,0 300,-134 300,-300 l 0,-400 c 0,-166 -134,-300 -300,-300 l -4900,0 c -166,0 -300,134 -300,300 l 0,400 c 0,166 134,300 300,300 l 2450,0 z"
                 id="path271"
                 inkscape:connector-curvature="0"
                 style="fill:#ffcc99;stroke:none" /><path
                 d="m 20385,8135 2450,0 c 166,0 300,-134 300,-300 l 0,-400 c 0,-166 -134,-300 -300,-300 l -4900,0 c -166,0 -300,134 -300,300 l 0,400 c 0,166 134,300 300,300 l 2450,0 z"
                 id="path273"
                 inkscape:connector-curvature="0"
                 style="fill:none;stroke:#000000;stroke-width:30" /><text
                 class="TextShape"
                 id="text275"><tspan
                   class="TextParagraph"
                   font-size="494px"
                   font-weight="400"
                   id="tspan277"
                   style="font-size:494px;font-weight:400;font-family:'Liberation Sans, sans-serif'"><tspan
                     class="TextPosition"
                     x="19422"
                     y="7807"
                     id="tspan279"><tspan
                       id="tspan281"
                       style="fill:#000000;stroke:none">página A</tspan></tspan></tspan></text>
</g></g><g
             class="com.sun.star.drawing.RectangleShape"
             id="g283"><g
               id="id22"><path
                 d="m 20385,9135 2450,0 c 166,0 300,-134 300,-300 l 0,-400 c 0,-166 -134,-300 -300,-300 l -4900,0 c -166,0 -300,134 -300,300 l 0,400 c 0,166 134,300 300,300 l 2450,0 z"
                 id="path286"
                 inkscape:connector-curvature="0"
                 style="fill:#ffcc99;stroke:none" /><path
                 d="m 20385,9135 2450,0 c 166,0 300,-134 300,-300 l 0,-400 c 0,-166 -134,-300 -300,-300 l -4900,0 c -166,0 -300,134 -300,300 l 0,400 c 0,166 134,300 300,300 l 2450,0 z"
                 id="path288"
                 inkscape:connector-curvature="0"
                 style="fill:none;stroke:#000000;stroke-width:30" /><text
                 class="TextShape"
                 id="text290"><tspan
                   class="TextParagraph"
                   font-size="494px"
                   font-weight="400"
                   id="tspan292"
                   style="font-size:494px;font-weight:400;font-family:'Liberation Sans, sans-serif'"><tspan
                     class="TextPosition"
                     x="19407"
                     y="8807"
                     id="tspan294"><tspan
                       id="tspan296"
                       style="fill:#000000;stroke:none">página B</tspan></tspan></tspan></text>
</g></g><g
             class="com.sun.star.drawing.RectangleShape"
             id="g298"><g
               id="id23"><path
                 d="m 20385,10135 2450,0 c 166,0 300,-134 300,-300 l 0,-400 c 0,-166 -134,-300 -300,-300 l -4900,0 c -166,0 -300,134 -300,300 l 0,400 c 0,166 134,300 300,300 l 2450,0 z"
                 id="path301"
                 inkscape:connector-curvature="0"
                 style="fill:#ffcc99;stroke:none" /><path
                 d="m 20385,10135 2450,0 c 166,0 300,-134 300,-300 l 0,-400 c 0,-166 -134,-300 -300,-300 l -4900,0 c -166,0 -300,134 -300,300 l 0,400 c 0,166 134,300 300,300 l 2450,0 z"
                 id="path303"
                 inkscape:connector-curvature="0"
                 style="fill:none;stroke:#000000;stroke-width:30" /><text
                 class="TextShape"
                 id="text305"><tspan
                   class="TextParagraph"
                   font-size="494px"
                   font-weight="400"
                   id="tspan307"
                   style="font-size:494px;font-weight:400;font-family:'Liberation Sans, sans-serif'"><tspan
                     class="TextPosition"
                     x="19392"
                     y="9807"
                     id="tspan309"><tspan
                       id="tspan311"
                       style="fill:#000000;stroke:none">página C</tspan></tspan></tspan></text>
</g></g><g
             class="com.sun.star.drawing.ConnectorShape"
             id="g313"><g
               id="id24"><path
                 d="m 8135,7635 1000,0 0,-2000 506,0"
                 id="path316"
                 inkscape:connector-curvature="0"
                 style="fill:none;stroke:#000000;stroke-width:30" /><path
                 d="m 10135,5635 -517,-172 0,345 517,-173 z"
                 id="path318"
                 inkscape:connector-curvature="0"
                 style="fill:#000000;stroke:none" /></g></g><g
             class="com.sun.star.drawing.ConnectorShape"
             id="g320"><g
               id="id25"><path
                 d="m 8135,8635 1000,0 0,-1000 506,0"
                 id="path323"
                 inkscape:connector-curvature="0"
                 style="fill:none;stroke:#000000;stroke-width:30" /><path
                 d="m 10135,7635 -517,-172 0,345 517,-173 z"
                 id="path325"
                 inkscape:connector-curvature="0"
                 style="fill:#000000;stroke:none" /></g></g><g
             class="com.sun.star.drawing.ConnectorShape"
             id="g327"><g
               id="id26"><path
                 d="m 8135,9635 1506,0"
                 id="path330"
                 inkscape:connector-curvature="0"
                 style="fill:none;stroke:#000000;stroke-width:30" /><path
                 d="m 10135,9635 -517,-172 0,345 517,-173 z"
                 id="path332"
                 inkscape:connector-curvature="0"
                 style="fill:#000000;stroke:none" /></g></g><g
             class="com.sun.star.drawing.ConnectorShape"
             id="g334"><g
               id="id27"><path
                 d="m 16137,4635 498,0 0,3000 1000,0"
                 id="path337"
                 inkscape:connector-curvature="0"
                 style="fill:none;stroke:#000000;stroke-width:30" /><path
                 d="m 15635,4635 525,175 0,-350 -525,175 z"
                 id="path339"
                 inkscape:connector-curvature="0"
                 style="fill:#000000;stroke:none" /></g></g><g
             class="com.sun.star.drawing.ConnectorShape"
             id="g341"><g
               id="id28"><path
                 d="m 16137,7635 498,0 0,1000 1000,0"
                 id="path344"
                 inkscape:connector-curvature="0"
                 style="fill:none;stroke:#000000;stroke-width:30" /><path
                 d="m 15635,7635 525,175 0,-350 -525,175 z"
                 id="path346"
                 inkscape:connector-curvature="0"
                 style="fill:#000000;stroke:none" /></g></g><g
             class="com.sun.star.drawing.ConnectorShape"
             id="g348"><g
               id="id29"><path
                 d="m 16137,9635 1498,0"
                 id="path351"
                 inkscape:connector-curvature="0"
                 style="fill:none;stroke:#000000;stroke-width:30" /><path
                 d="m 15635,9635 525,175 0,-350 -525,175 z"
                 id="path353"
                 inkscape:connector-curvature="0"
                 style="fill:#000000;stroke:none" /></g></g><g
             class="com.sun.star.drawing.RectangleShape"
             id="g355"><g
               id="id30"><path
                 d="m 12885,5135 2450,0 c 166,0 300,-134 300,-300 l 0,-400 c 0,-166 -134,-300 -300,-300 l -4900,0 c -166,0 -300,134 -300,300 l 0,400 c 0,166 134,300 300,300 l 2450,0 z"
                 id="path358"
                 inkscape:connector-curvature="0"
                 style="fill:#ffcc99;stroke:none" /><path
                 d="m 12885,5135 2450,0 c 166,0 300,-134 300,-300 l 0,-400 c 0,-166 -134,-300 -300,-300 l -4900,0 c -166,0 -300,134 -300,300 l 0,400 c 0,166 134,300 300,300 l 2450,0 z"
                 id="path360"
                 inkscape:connector-curvature="0"
                 style="fill:none;stroke:#000000;stroke-width:30" /><text
                 class="TextShape"
                 id="text362"><tspan
                   class="TextParagraph"
                   font-size="494px"
                   font-weight="400"
                   id="tspan364"
                   style="font-size:494px;font-weight:400;font-family:'Liberation Sans, sans-serif'"><tspan
                     class="TextPosition"
                     x="11727"
                     y="4807"
                     id="tspan366"><tspan
                       id="tspan368"
                       style="fill:#000000;stroke:none">copia de A</tspan></tspan></tspan></text>
</g></g></g></g></g></g></svg>