<?xml version="1.0" encoding="UTF-8" standalone="no"?>
<svg
   version="1.2"
   width="656.57477"
   height="567.99213"
   viewBox="0 0 18529.999 16030"
   preserveAspectRatio="xMidYMid"
   clip-path="url(#presentation_clip_path)"
   xml:space="preserve"
   id="svg2"
   inkscape:version="1.2 (dc2aedaf03, 2022-05-15)"
   sodipodi:docname="estructura_unix.svg"
   style="fill-rule:evenodd;stroke-width:28.22200012;stroke-linejoin:round"
   xmlns:inkscape="http://www.inkscape.org/namespaces/inkscape"
   xmlns:sodipodi="http://sodipodi.sourceforge.net/DTD/sodipodi-0.dtd"
   xmlns="http://www.w3.org/2000/svg"
   xmlns:svg="http://www.w3.org/2000/svg"
   xmlns:rdf="http://www.w3.org/1999/02/22-rdf-syntax-ns#"
   xmlns:cc="http://creativecommons.org/ns#"
   xmlns:dc="http://purl.org/dc/elements/1.1/"
   xmlns:ooo="http://xml.openoffice.org/svg/export"><metadata
     id="metadata381"><rdf:RDF><cc:Work
         rdf:about=""><dc:format>image/svg+xml</dc:format><dc:type
           rdf:resource="http://purl.org/dc/dcmitype/StillImage" /></cc:Work></rdf:RDF></metadata><sodipodi:namedview
     pagecolor="#ffffff"
     bordercolor="#666666"
     borderopacity="1"
     objecttolerance="10"
     gridtolerance="10"
     guidetolerance="10"
     inkscape:pageopacity="0"
     inkscape:pageshadow="2"
     inkscape:window-width="683"
     inkscape:window-height="480"
     id="namedview379"
     showgrid="false"
     fit-margin-top="0"
     fit-margin-left="0"
     fit-margin-right="0"
     fit-margin-bottom="0"
     inkscape:zoom="0.20813889"
     inkscape:cx="720.67262"
     inkscape:cy="74.469504"
     inkscape:window-x="0"
     inkscape:window-y="0"
     inkscape:window-maximized="0"
     inkscape:current-layer="svg2"
     inkscape:showpageshadow="0"
     inkscape:pagecheckerboard="0"
     inkscape:deskcolor="#d1d1d1" /><defs
     class="ClipPathGroup"
     id="defs4"><clipPath
       id="presentation_clip_path"
       clipPathUnits="userSpaceOnUse"><rect
         x="0"
         y="0"
         width="45000"
         height="32000"
         id="rect7" /></clipPath></defs><defs
     class="TextShapeIndex"
     id="defs9"><g
       ooo:slide="id1"
       ooo:id-list="id3 id4 id5 id6 id7 id8 id9 id10 id11 id12 id13 id14 id15 id16 id17"
       id="g11" /></defs><defs
     class="EmbeddedBulletChars"
     id="defs13"><g
       id="bullet-char-template(57356)"
       transform="scale(4.8828125e-4,-4.8828125e-4)"><path
         d="M 580,1141 1163,571 580,0 -4,571 580,1141 z"
         id="path16"
         inkscape:connector-curvature="0" /></g><g
       id="bullet-char-template(57354)"
       transform="scale(4.8828125e-4,-4.8828125e-4)"><path
         d="m 8,1128 1129,0 L 1137,0 8,0 8,1128 z"
         id="path19"
         inkscape:connector-curvature="0" /></g><g
       id="bullet-char-template(10146)"
       transform="scale(4.8828125e-4,-4.8828125e-4)"><path
         d="M 174,0 602,739 174,1481 1456,739 174,0 z m 1184,739 -1049,607 350,-607 699,0 z"
         id="path22"
         inkscape:connector-curvature="0" /></g><g
       id="bullet-char-template(10132)"
       transform="scale(4.8828125e-4,-4.8828125e-4)"><path
         d="M 2015,739 1276,0 717,0 l 543,543 -1086,0 0,393 1086,0 -543,545 557,0 741,-742 z"
         id="path25"
         inkscape:connector-curvature="0" /></g><g
       id="bullet-char-template(10007)"
       transform="scale(4.8828125e-4,-4.8828125e-4)"><path
         d="m 0,-2 c -7,16 -16,29 -25,39 l 381,530 c -94,256 -141,385 -141,387 0,25 13,38 40,38 9,0 21,-2 34,-5 21,4 42,12 65,25 l 27,-13 111,-251 280,301 64,-25 24,25 c 21,-10 41,-24 62,-43 C 886,937 835,863 770,784 769,783 710,716 594,584 L 774,223 c 0,-27 -21,-55 -63,-84 l 16,-20 C 717,90 699,76 672,76 641,76 570,178 457,381 L 164,-76 c -22,-34 -53,-51 -92,-51 -42,0 -63,17 -64,51 -7,9 -10,24 -10,44 0,9 1,19 2,30 z"
         id="path28"
         inkscape:connector-curvature="0" /></g><g
       id="bullet-char-template(10004)"
       transform="scale(4.8828125e-4,-4.8828125e-4)"><path
         d="M 285,-33 C 182,-33 111,30 74,156 52,228 41,333 41,471 c 0,78 14,145 41,201 34,71 87,106 158,106 53,0 88,-31 106,-94 l 23,-176 c 8,-64 28,-97 59,-98 l 735,706 c 11,11 33,17 66,17 42,0 63,-15 63,-46 l 0,-122 c 0,-36 -10,-64 -30,-84 L 442,47 C 390,-6 338,-33 285,-33 z"
         id="path31"
         inkscape:connector-curvature="0" /></g><g
       id="bullet-char-template(9679)"
       transform="scale(4.8828125e-4,-4.8828125e-4)"><path
         d="M 813,0 C 632,0 489,54 383,161 276,268 223,411 223,592 c 0,181 53,324 160,431 106,107 249,161 430,161 179,0 323,-54 432,-161 108,-107 162,-251 162,-431 0,-180 -54,-324 -162,-431 C 1136,54 992,0 813,0 z"
         id="path34"
         inkscape:connector-curvature="0" /></g><g
       id="bullet-char-template(8226)"
       transform="scale(4.8828125e-4,-4.8828125e-4)"><path
         d="m 346,457 c -73,0 -137,26 -191,78 -54,51 -81,114 -81,188 0,73 27,136 81,188 54,52 118,78 191,78 73,0 134,-26 185,-79 51,-51 77,-114 77,-187 0,-75 -25,-137 -76,-188 -50,-52 -112,-78 -186,-78 z"
         id="path37"
         inkscape:connector-curvature="0" /></g><g
       id="bullet-char-template(8211)"
       transform="scale(4.8828125e-4,-4.8828125e-4)"><path
         d="m -4,459 1139,0 0,147 -1139,0 0,-147 z"
         id="path40"
         inkscape:connector-curvature="0" /></g></defs><defs
     class="TextEmbeddedBitmaps"
     id="defs42" /><g
     id="g44"
     transform="translate(-2120,-2120.0004)"><g
       id="id2"
       class="Master_Slide"><g
         id="bg-id2"
         class="Background" /><g
         id="bo-id2"
         class="BackgroundObjects" /></g></g><g
     class="SlideGroup"
     id="g49"
     transform="translate(-2120,-2120.0004)"><g
       id="g51"><g
         id="id1"
         class="Slide"
         clip-path="url(#presentation_clip_path)"><g
           class="Page"
           id="g54"><g
             class="com.sun.star.drawing.RectangleShape"
             id="g56"><g
               id="id3"><path
   d="m 12635,18135 7200,0 c 166,0 300,-134 300,-300 l 0,-900 c 0,-166 -134,-300 -300,-300 l -14400,0 c -166,0 -300,134 -300,300 l 0,900 c 0,166 134,300 300,300 l 7200,0 z"
   id="path59"
   inkscape:connector-curvature="0"
   style="fill:#9999ff;stroke:none" /><path
   d="m 12635,18135 7200,0 c 166,0 300,-134 300,-300 l 0,-900 c 0,-166 -134,-300 -300,-300 l -14400,0 c -166,0 -300,134 -300,300 l 0,900 c 0,166 134,300 300,300 l 7200,0 z"
   id="path61"
   inkscape:connector-curvature="0"
   style="fill:none;stroke:#000000;stroke-width:30" /><text
   class="TextShape"
   id="text63"
   style="line-height:0%"><tspan
     class="TextParagraph"
     font-size="494px"
     font-weight="400"
     id="tspan65"
     style="font-weight:400;font-size:494px;font-family:'\'Liberation Sans', 'sans-serif\''"><tspan
       class="TextPosition"
       x="11602"
       y="17557"
       id="tspan67"><tspan
         id="tspan69"
         style="fill:#000000;stroke:none">hardware</tspan></tspan></tspan></text>
</g></g><g
             class="com.sun.star.drawing.RectangleShape"
             id="g71"><g
               id="id4"><path
   d="m 12657,6135 7178,0 c 166,0 300,-134 300,-300 l 0,-1900 c 0,-166 -134,-300 -300,-300 l -14356,0 c -166,0 -300,134 -300,300 l 0,1900 c 0,166 134,300 300,300 l 7178,0 z"
   id="path74"
   inkscape:connector-curvature="0"
   style="fill:#94bd5e;stroke:none" /><path
   d="m 12657,6135 7178,0 c 166,0 300,-134 300,-300 l 0,-1900 c 0,-166 -134,-300 -300,-300 l -14356,0 c -166,0 -300,134 -300,300 l 0,1900 c 0,166 134,300 300,300 l 7178,0 z"
   id="path76"
   inkscape:connector-curvature="0"
   style="fill:none;stroke:#000000;stroke-width:30" /><text
   class="TextShape"
   id="text78"
   style="line-height:0%"><tspan
     class="TextParagraph"
     font-size="494px"
     font-weight="400"
     id="tspan80"
     style="font-weight:400;font-size:494px;font-family:'\'Liberation Sans', 'sans-serif\''"><tspan
       class="TextPosition"
       x="10052"
       y="4502"
       id="tspan82"><tspan
         id="tspan84"
         style="fill:#000000;stroke:none">intérpretes de comando</tspan></tspan></tspan><tspan
     class="TextParagraph"
     font-size="494px"
     font-weight="400"
     id="tspan86"
     style="font-weight:400;font-size:494px;font-family:'\'Liberation Sans', 'sans-serif\''"><tspan
       class="TextPosition"
       x="9734"
       y="5057"
       id="tspan88"><tspan
         id="tspan90"
         style="fill:#000000;stroke:none">compiladores e intérpretes</tspan></tspan></tspan><tspan
     class="TextParagraph"
     font-size="494px"
     font-weight="400"
     id="tspan92"
     style="font-weight:400;font-size:494px;font-family:'\'Liberation Sans', 'sans-serif\''"><tspan
       class="TextPosition"
       x="10450"
       y="5612"
       id="tspan94"><tspan
         id="tspan96"
         style="fill:#000000;stroke:none">librerías del sistema</tspan></tspan></tspan></text>
</g></g><g
             class="com.sun.star.drawing.RectangleShape"
             id="g98"><g
               id="id5"><path
                 d="m 12635,14135 7200,0 c 166,0 300,-134 300,-300 l 0,-4900 c 0,-166 -134,-300 -300,-300 l -14400,0 c -166,0 -300,134 -300,300 l 0,4900 c 0,166 134,300 300,300 l 7200,0 z"
                 id="path101"
                 inkscape:connector-curvature="0"
                 style="fill:#ffff99;stroke:none" /><path
                 d="m 12635,14135 7200,0 c 166,0 300,-134 300,-300 l 0,-4900 c 0,-166 -134,-300 -300,-300 l -14400,0 c -166,0 -300,134 -300,300 l 0,4900 c 0,166 134,300 300,300 l 7200,0 z"
                 id="path103"
                 inkscape:connector-curvature="0"
                 style="fill:none;stroke:#000000;stroke-width:30" /></g></g><g
             class="com.sun.star.drawing.TextShape"
             id="g105"><g
               id="id6"><text
   class="TextShape"
   id="text108"
   style="line-height:0%"><tspan
     class="TextParagraph"
     font-size="494px"
     font-weight="400"
     id="tspan110"
     style="font-weight:400;font-size:494px;font-family:'\'Liberation Sans', 'sans-serif\''"><tspan
       class="TextPosition"
       x="3559"
       y="5710"
       id="tspan112"><tspan
         id="tspan114"
         style="fill:#000000;stroke:none">modo </tspan></tspan><tspan
       class="TextPosition"
       x="3169"
       y="6265"
       id="tspan116"><tspan
         id="tspan118"
         style="fill:#000000;stroke:none">usuario</tspan></tspan></tspan></text>
</g></g><g
             class="com.sun.star.drawing.TextShape"
             id="g120"><g
               id="id7"><text
   class="TextShape"
   id="text123"
   style="line-height:0%"><tspan
     class="TextParagraph"
     font-size="494px"
     font-weight="400"
     id="tspan125"
     style="font-weight:400;font-size:494px;font-family:'\'Liberation Sans', 'sans-serif\''"><tspan
       class="TextPosition"
       x="3280"
       y="7349"
       id="tspan127"><tspan
         id="tspan129"
         style="fill:#000000;stroke:none" /><tspan
         id="tspan131"
         style="fill:#000000;stroke:none">modo </tspan></tspan><tspan
       class="TextPosition"
       x="2289"
       y="7904"
       id="tspan133"><tspan
         id="tspan135"
         style="fill:#000000;stroke:none">privilegiado</tspan></tspan></tspan></text>
</g></g><g
             class="com.sun.star.drawing.TextShape"
             id="g137"><g
               id="id8" /></g><g
             class="com.sun.star.drawing.RectangleShape"
             id="g140"><g
               id="id9"><path
   d="m 12635,8635 7200,0 c 166,0 300,-134 300,-300 l 0,-900 c 0,-166 -134,-300 -300,-300 l -14400,0 c -166,0 -300,134 -300,300 l 0,900 c 0,166 134,300 300,300 l 7200,0 z"
   id="path143"
   inkscape:connector-curvature="0"
   style="fill:#ffffff;stroke:none" /><text
   class="TextShape"
   id="text145"
   style="line-height:0%"><tspan
     class="TextParagraph"
     font-size="494px"
     font-weight="400"
     id="tspan147"
     style="font-weight:400;font-size:494px;font-family:'\'Liberation Sans', 'sans-serif\''"><tspan
       class="TextPosition"
       x="10457"
       y="8057"
       id="tspan149"><tspan
         id="tspan151"
         style="fill:#000000;stroke:none">llamadas al sistema</tspan></tspan></tspan></text>
</g></g><g
             class="com.sun.star.drawing.TextShape"
             id="g153"><g
               id="id10"><text
   class="TextShape"
   id="text156"
   style="line-height:0%"><tspan
     class="TextParagraph"
     font-size="494px"
     font-weight="400"
     id="tspan158"
     style="font-weight:400;font-size:494px;font-family:'\'Liberation Sans', 'sans-serif\''"><tspan
       class="TextPosition"
       x="5587"
       y="10147"
       id="tspan160"><tspan
         id="tspan162"
         style="fill:#000000;stroke:none">gestión de señales </tspan></tspan><tspan
       class="TextPosition"
       x="6377"
       y="10702"
       id="tspan164"><tspan
         id="tspan166"
         style="fill:#000000;stroke:none">del terminal</tspan></tspan></tspan><tspan
     class="TextParagraph"
     font-size="494px"
     font-weight="400"
     id="tspan168"
     style="font-weight:400;font-size:494px;font-family:'\'Liberation Sans', 'sans-serif\''"><tspan
       class="TextPosition"
       x="5642"
       y="11557"
       id="tspan170"><tspan
         id="tspan172"
         style="fill:#000000;stroke:none">sistema de E/S de </tspan></tspan><tspan
       class="TextPosition"
       x="6497"
       y="12112"
       id="tspan174"><tspan
         id="tspan176"
         style="fill:#000000;stroke:none">caracteres</tspan></tspan></tspan><tspan
     class="TextParagraph"
     font-size="494px"
     font-weight="400"
     id="tspan178"
     style="font-weight:400;font-size:494px;font-family:'\'Liberation Sans', 'sans-serif\''"><tspan
       class="TextPosition"
       x="5617"
       y="12967"
       id="tspan180"><tspan
         id="tspan182"
         style="fill:#000000;stroke:none">drivers de terminal</tspan></tspan></tspan></text>
</g></g><g
             class="com.sun.star.drawing.TextShape"
             id="g184"><g
               id="id11"><text
   class="TextShape"
   id="text187"
   style="line-height:0%"><tspan
     class="TextParagraph"
     font-size="494px"
     font-weight="400"
     id="tspan189"
     style="font-weight:400;font-size:494px;font-family:'\'Liberation Sans', 'sans-serif\''"><tspan
       class="TextPosition"
       x="10425"
       y="10147"
       id="tspan191"><tspan
         id="tspan193"
         style="fill:#000000;stroke:none" /><tspan
         id="tspan195"
         style="fill:#000000;stroke:none">sistema de ficheros</tspan></tspan></tspan><tspan
     class="TextParagraph"
     font-size="494px"
     font-weight="400"
     id="tspan197"
     style="font-weight:400;font-size:494px;font-family:'\'Liberation Sans', 'sans-serif\''"><tspan
       class="TextPosition"
       x="10550"
       y="11002"
       id="tspan199"><tspan
         id="tspan201"
         style="fill:#000000;stroke:none" /><tspan
         id="tspan203"
         style="fill:#000000;stroke:none">sistema de E/S de </tspan></tspan><tspan
       class="TextPosition"
       x="11767"
       y="11557"
       id="tspan205"><tspan
         id="tspan207"
         style="fill:#000000;stroke:none">bloques</tspan></tspan></tspan><tspan
     class="TextParagraph"
     font-size="494px"
     font-weight="400"
     id="tspan209"
     style="font-weight:400;font-size:494px;font-family:'\'Liberation Sans', 'sans-serif\''"><tspan
       class="TextPosition"
       x="10631"
       y="12412"
       id="tspan211"><tspan
         id="tspan213"
         style="fill:#000000;stroke:none" /><tspan
         id="tspan215"
         style="fill:#000000;stroke:none">drivers de disco y </tspan></tspan><tspan
       class="TextPosition"
       x="12110"
       y="12967"
       id="tspan217"><tspan
         id="tspan219"
         style="fill:#000000;stroke:none">cinta</tspan></tspan></tspan></text>
</g></g><g
             class="com.sun.star.drawing.TextShape"
             id="g221"><g
               id="id12"><text
   class="TextShape"
   id="text224"
   style="line-height:0%"><tspan
     class="TextParagraph"
     font-size="494px"
     font-weight="400"
     id="tspan226"
     style="font-weight:400;font-size:494px;font-family:'\'Liberation Sans', 'sans-serif\''"><tspan
       class="TextPosition"
       x="15759"
       y="9442"
       id="tspan228"><tspan
         id="tspan230"
         style="fill:#000000;stroke:none">planificador de la </tspan></tspan><tspan
       class="TextPosition"
       x="17110"
       y="9997"
       id="tspan232"><tspan
         id="tspan234"
         style="fill:#000000;stroke:none">CPU</tspan></tspan></tspan><tspan
     class="TextParagraph"
     font-size="494px"
     font-weight="400"
     id="tspan236"
     style="font-weight:400;font-size:494px;font-family:'\'Liberation Sans', 'sans-serif\''"><tspan
       class="TextPosition"
       x="16134"
       y="10852"
       id="tspan238"><tspan
         id="tspan240"
         style="fill:#000000;stroke:none">reemplazo de </tspan></tspan><tspan
       class="TextPosition"
       x="16767"
       y="11407"
       id="tspan242"><tspan
         id="tspan244"
         style="fill:#000000;stroke:none">páginas</tspan></tspan></tspan><tspan
     class="TextParagraph"
     font-size="494px"
     font-weight="400"
     id="tspan246"
     style="font-weight:400;font-size:494px;font-family:'\'Liberation Sans', 'sans-serif\''"><tspan
       class="TextPosition"
       x="15829"
       y="12262"
       id="tspan248"><tspan
         id="tspan250"
         style="fill:#000000;stroke:none" /><tspan
         id="tspan252"
         style="fill:#000000;stroke:none">paginación bajo </tspan></tspan><tspan
       class="TextPosition"
       x="16604"
       y="12817"
       id="tspan254"><tspan
         id="tspan256"
         style="fill:#000000;stroke:none">demanda</tspan></tspan></tspan><tspan
     class="TextParagraph"
     font-size="494px"
     font-weight="400"
     id="tspan258"
     style="font-weight:400;font-size:494px;font-family:'\'Liberation Sans', 'sans-serif\''"><tspan
       class="TextPosition"
       x="15941"
       y="13672"
       id="tspan260"><tspan
         id="tspan262"
         style="fill:#000000;stroke:none">memoria virtual</tspan></tspan></tspan></text>
</g></g><g
             class="com.sun.star.drawing.RectangleShape"
             id="g264"><g
               id="id13"><path
   d="m 12635,15635 7200,0 c 166,0 300,-134 300,-300 l 0,-900 c 0,-166 -134,-300 -300,-300 l -14400,0 c -166,0 -300,134 -300,300 l 0,900 c 0,166 134,300 300,300 l 7200,0 z"
   id="path267"
   inkscape:connector-curvature="0"
   style="fill:#ffffff;stroke:none" /><text
   class="TextShape"
   id="text269"
   style="line-height:0%"><tspan
     class="TextParagraph"
     font-size="494px"
     font-weight="400"
     id="tspan271"
     style="font-weight:400;font-size:494px;font-family:'\'Liberation Sans', 'sans-serif\''"><tspan
       class="TextPosition"
       x="8785"
       y="15057"
       id="tspan273"><tspan
         id="tspan275"
         style="fill:#000000;stroke:none">interfaz del núcleo con el hardware</tspan></tspan></tspan></text>
</g></g><g
             class="com.sun.star.drawing.RectangleShape"
             id="g277"><g
               id="id14"><path
                 d="m 12635,15635 7200,0 c 166,0 300,-134 300,-300 l 0,-7900 c 0,-166 -134,-300 -300,-300 l -14400,0 c -166,0 -300,134 -300,300 l 0,7900 c 0,166 134,300 300,300 l 7200,0 z"
                 id="path280"
                 inkscape:connector-curvature="0"
                 style="fill:none;stroke:#000000;stroke-width:30" /></g></g><g
             class="com.sun.star.drawing.RectangleShape"
             id="g282"><g
               id="id15"><path
   d="m 12657,3635 7178,0 c 166,0 300,-134 300,-300 l 0,-900 c 0,-166 -134,-300 -300,-300 l -14356,0 c -166,0 -300,134 -300,300 l 0,900 c 0,166 134,300 300,300 l 7178,0 z"
   id="path285"
   inkscape:connector-curvature="0"
   style="fill:#94bd5e;stroke:none" /><path
   d="m 12657,3635 7178,0 c 166,0 300,-134 300,-300 l 0,-900 c 0,-166 -134,-300 -300,-300 l -14356,0 c -166,0 -300,134 -300,300 l 0,900 c 0,166 134,300 300,300 l 7178,0 z"
   id="path287"
   inkscape:connector-curvature="0"
   style="fill:none;stroke:#000000;stroke-width:30" /><text
   class="TextShape"
   id="text289"
   style="line-height:0%"><tspan
     class="TextParagraph"
     font-size="494px"
     font-weight="400"
     id="tspan291"
     style="font-weight:400;font-size:494px;font-family:'\'Liberation Sans', 'sans-serif\''"><tspan
       class="TextPosition"
       x="11291"
       y="3057"
       id="tspan293"><tspan
         id="tspan295"
         style="fill:#000000;stroke:none">aplicaciones</tspan></tspan></tspan></text>
</g></g><g
             class="com.sun.star.drawing.LineShape"
             id="g297"><g
               id="id16"><path
                 d="m 2135,16135 508,0"
                 id="path300"
                 inkscape:connector-curvature="0"
                 style="fill:none;stroke:#000000;stroke-width:30" /><path
                 d="m 3151,16135 508,0"
                 id="path302"
                 inkscape:connector-curvature="0"
                 style="fill:none;stroke:#000000;stroke-width:30" /><path
                 d="m 4167,16135 508,0"
                 id="path304"
                 inkscape:connector-curvature="0"
                 style="fill:none;stroke:#000000;stroke-width:30" /><path
                 d="m 5183,16135 508,0"
                 id="path306"
                 inkscape:connector-curvature="0"
                 style="fill:none;stroke:#000000;stroke-width:30" /><path
                 d="m 6199,16135 508,0"
                 id="path308"
                 inkscape:connector-curvature="0"
                 style="fill:none;stroke:#000000;stroke-width:30" /><path
                 d="m 7215,16135 508,0"
                 id="path310"
                 inkscape:connector-curvature="0"
                 style="fill:none;stroke:#000000;stroke-width:30" /><path
                 d="m 8231,16135 508,0"
                 id="path312"
                 inkscape:connector-curvature="0"
                 style="fill:none;stroke:#000000;stroke-width:30" /><path
                 d="m 9247,16135 508,0"
                 id="path314"
                 inkscape:connector-curvature="0"
                 style="fill:none;stroke:#000000;stroke-width:30" /><path
                 d="m 10263,16135 508,0"
                 id="path316"
                 inkscape:connector-curvature="0"
                 style="fill:none;stroke:#000000;stroke-width:30" /><path
                 d="m 11279,16135 508,0"
                 id="path318"
                 inkscape:connector-curvature="0"
                 style="fill:none;stroke:#000000;stroke-width:30" /><path
                 d="m 12295,16135 508,0"
                 id="path320"
                 inkscape:connector-curvature="0"
                 style="fill:none;stroke:#000000;stroke-width:30" /><path
                 d="m 13311,16135 508,0"
                 id="path322"
                 inkscape:connector-curvature="0"
                 style="fill:none;stroke:#000000;stroke-width:30" /><path
                 d="m 14327,16135 508,0"
                 id="path324"
                 inkscape:connector-curvature="0"
                 style="fill:none;stroke:#000000;stroke-width:30" /><path
                 d="m 15343,16135 508,0"
                 id="path326"
                 inkscape:connector-curvature="0"
                 style="fill:none;stroke:#000000;stroke-width:30" /><path
                 d="m 16359,16135 508,0"
                 id="path328"
                 inkscape:connector-curvature="0"
                 style="fill:none;stroke:#000000;stroke-width:30" /><path
                 d="m 17375,16135 508,0"
                 id="path330"
                 inkscape:connector-curvature="0"
                 style="fill:none;stroke:#000000;stroke-width:30" /><path
                 d="m 18391,16135 508,0"
                 id="path332"
                 inkscape:connector-curvature="0"
                 style="fill:none;stroke:#000000;stroke-width:30" /><path
                 d="m 19407,16135 508,0"
                 id="path334"
                 inkscape:connector-curvature="0"
                 style="fill:none;stroke:#000000;stroke-width:30" /><path
                 d="m 20423,16135 212,0"
                 id="path336"
                 inkscape:connector-curvature="0"
                 style="fill:none;stroke:#000000;stroke-width:30" /></g></g><g
             class="com.sun.star.drawing.LineShape"
             id="g338"><g
               id="id17"><path
                 d="m 2135,6635 508,0"
                 id="path341"
                 inkscape:connector-curvature="0"
                 style="fill:none;stroke:#000000;stroke-width:30" /><path
                 d="m 3151,6635 508,0"
                 id="path343"
                 inkscape:connector-curvature="0"
                 style="fill:none;stroke:#000000;stroke-width:30" /><path
                 d="m 4167,6635 508,0"
                 id="path345"
                 inkscape:connector-curvature="0"
                 style="fill:none;stroke:#000000;stroke-width:30" /><path
                 d="m 5183,6635 508,0"
                 id="path347"
                 inkscape:connector-curvature="0"
                 style="fill:none;stroke:#000000;stroke-width:30" /><path
                 d="m 6199,6635 508,0"
                 id="path349"
                 inkscape:connector-curvature="0"
                 style="fill:none;stroke:#000000;stroke-width:30" /><path
                 d="m 7215,6635 508,0"
                 id="path351"
                 inkscape:connector-curvature="0"
                 style="fill:none;stroke:#000000;stroke-width:30" /><path
                 d="m 8231,6635 508,0"
                 id="path353"
                 inkscape:connector-curvature="0"
                 style="fill:none;stroke:#000000;stroke-width:30" /><path
                 d="m 9247,6635 508,0"
                 id="path355"
                 inkscape:connector-curvature="0"
                 style="fill:none;stroke:#000000;stroke-width:30" /><path
                 d="m 10263,6635 508,0"
                 id="path357"
                 inkscape:connector-curvature="0"
                 style="fill:none;stroke:#000000;stroke-width:30" /><path
                 d="m 11279,6635 508,0"
                 id="path359"
                 inkscape:connector-curvature="0"
                 style="fill:none;stroke:#000000;stroke-width:30" /><path
                 d="m 12295,6635 508,0"
                 id="path361"
                 inkscape:connector-curvature="0"
                 style="fill:none;stroke:#000000;stroke-width:30" /><path
                 d="m 13311,6635 508,0"
                 id="path363"
                 inkscape:connector-curvature="0"
                 style="fill:none;stroke:#000000;stroke-width:30" /><path
                 d="m 14327,6635 508,0"
                 id="path365"
                 inkscape:connector-curvature="0"
                 style="fill:none;stroke:#000000;stroke-width:30" /><path
                 d="m 15343,6635 508,0"
                 id="path367"
                 inkscape:connector-curvature="0"
                 style="fill:none;stroke:#000000;stroke-width:30" /><path
                 d="m 16359,6635 508,0"
                 id="path369"
                 inkscape:connector-curvature="0"
                 style="fill:none;stroke:#000000;stroke-width:30" /><path
                 d="m 17375,6635 508,0"
                 id="path371"
                 inkscape:connector-curvature="0"
                 style="fill:none;stroke:#000000;stroke-width:30" /><path
                 d="m 18391,6635 508,0"
                 id="path373"
                 inkscape:connector-curvature="0"
                 style="fill:none;stroke:#000000;stroke-width:30" /><path
                 d="m 19407,6635 508,0"
                 id="path375"
                 inkscape:connector-curvature="0"
                 style="fill:none;stroke:#000000;stroke-width:30" /><path
                 d="m 20423,6635 212,0"
                 id="path377"
                 inkscape:connector-curvature="0"
                 style="fill:none;stroke:#000000;stroke-width:30" /></g></g></g></g></g></g></svg>
