<?xml version="1.0" encoding="UTF-8"?>
<!DOCTYPE svg PUBLIC "-//W3C//DTD SVG 1.1//EN" "http://www.w3.org/Graphics/SVG/1.1/DTD/svg11.dtd">
<svg xmlns="http://www.w3.org/2000/svg" xmlns:xlink="http://www.w3.org/1999/xlink" version="1.1" width="468px" height="92px" viewBox="-0.5 -0.5 468 92"><defs/><g><rect x="150" y="1" width="40" height="60" fill="none" stroke="none" pointer-events="all"/><path d="M 150 1 C 166.63 2.42 181.29 -0.22 190 1 M 150 1 C 166.48 1.13 181.99 0.74 190 1 M 190 1 C 190.24 16.15 192.19 30.76 190 61 M 190 1 C 190.08 15.86 189.51 33.06 190 61 M 190 61 C 182.18 59.94 172.62 59.32 150 61 M 190 61 C 179.35 61.16 168.62 60.39 150 61 M 150 61 C 149.9 44.6 150.19 24.54 150 1 M 150 61 C 149.59 45.03 149.49 27.56 150 1" fill="none" stroke="#324ab2" stroke-width="2" stroke-linejoin="round" stroke-linecap="round" stroke-miterlimit="10" pointer-events="all"/><g fill="#324AB2" font-family="Ink Free" font-weight="bold" text-anchor="middle" font-size="17px"><text x="169.5" y="35.5">P3</text></g><rect x="0" y="71" width="25" height="20" fill="none" stroke="none" pointer-events="all"/><g fill="#324AB2" font-family="Ink Free" font-weight="bold" text-anchor="middle" font-size="17px"><text x="12" y="85.5">0</text></g><rect x="10" y="1" width="100" height="60" fill="none" stroke="none" pointer-events="all"/><path d="M 10 1 C 37.91 -0.74 65.49 -0.12 110 1 M 10 1 C 32.14 2.17 54.38 2.38 110 1 M 110 1 C 111.07 19.72 109.7 37.17 110 61 M 110 1 C 109.4 19.93 109.4 38.58 110 61 M 110 61 C 86.28 58.61 59.5 61.73 10 61 M 110 61 C 71.93 59.69 33.12 59.95 10 61 M 10 61 C 8.62 46.86 11.4 36.26 10 1 M 10 61 C 10.54 47.93 9.65 36.58 10 1" fill="none" stroke="#324ab2" stroke-width="2" stroke-linejoin="round" stroke-linecap="round" stroke-miterlimit="10" pointer-events="all"/><g fill="#324AB2" font-family="Ink Free" font-weight="bold" text-anchor="middle" font-size="17px"><text x="59.5" y="35.5">P1</text></g><rect x="290" y="1" width="60" height="60" fill="none" stroke="none" pointer-events="all"/><path d="M 290 1 C 306.04 -0.96 321.71 -0.15 350 1 M 290 1 C 308.6 1.72 325.67 1.14 350 1 M 350 1 C 350.26 24.01 347.75 42.22 350 61 M 350 1 C 350.74 18.21 349.63 35.17 350 61 M 350 61 C 337.91 60.23 325.34 60.85 290 61 M 350 61 C 336.29 60.11 321.62 61.25 290 61 M 290 61 C 290.33 38.4 289.64 17.16 290 1 M 290 61 C 289.83 38.76 291.11 18.15 290 1" fill="none" stroke="#324ab2" stroke-width="2" stroke-linejoin="round" stroke-linecap="round" stroke-miterlimit="10" pointer-events="all"/><g fill="#324AB2" font-family="Ink Free" font-weight="bold" text-anchor="middle" font-size="17px"><text x="319.5" y="35.5">P1</text></g><rect x="250" y="1" width="20" height="60" fill="none" stroke="none" pointer-events="all"/><path d="M 250 1 C 254.17 2.17 261.93 -0.81 270 1 M 250 1 C 257.3 1.75 265.45 0.39 270 1 M 270 1 C 270.64 24.29 270.99 47.28 270 61 M 270 1 C 270.07 16.5 269.86 31.75 270 61 M 270 61 C 262.45 61.71 257.02 59.82 250 61 M 270 61 C 263.92 60.37 258.66 60.4 250 61 M 250 61 C 249.24 41.94 249.08 26.06 250 1 M 250 61 C 249.92 41.59 249.37 23.73 250 1" fill="none" stroke="#324ab2" stroke-width="2" stroke-linejoin="round" stroke-linecap="round" stroke-miterlimit="10" pointer-events="all"/><g fill="#324AB2" font-family="Ink Free" font-weight="bold" text-anchor="middle" font-size="17px"><text x="259.5" y="35.5">2</text></g><rect x="100" y="71" width="25" height="20" fill="none" stroke="none" pointer-events="all"/><g fill="#324AB2" font-family="Ink Free" font-weight="bold" text-anchor="middle" font-size="17px"><text x="112" y="85.5">5</text></g><rect x="180" y="71" width="25" height="20" fill="none" stroke="none" pointer-events="all"/><g fill="#324AB2" font-family="Ink Free" font-weight="bold" text-anchor="middle" font-size="17px"><text x="192" y="85.5">9</text></g><rect x="413" y="71" width="25" height="20" fill="none" stroke="none" pointer-events="all"/><g fill="#324AB2" font-family="Ink Free" font-weight="bold" text-anchor="middle" font-size="17px"><text x="425" y="85.5">21</text></g><rect x="340" y="71" width="25" height="20" fill="none" stroke="none" pointer-events="all"/><g fill="#324AB2" font-family="Ink Free" font-weight="bold" text-anchor="middle" font-size="17px"><text x="352" y="85.5">17</text></g><rect x="230" y="1" width="20" height="60" fill="none" stroke="none" pointer-events="all"/><path d="M 230 1 C 237.98 1.98 241.96 2.83 250 1 M 230 1 C 237.92 0.17 243.38 0.17 250 1 M 250 1 C 249.36 19.23 251 37.9 250 61 M 250 1 C 249.59 19.73 249.62 36.62 250 61 M 250 61 C 246.02 59.72 241.87 61.78 230 61 M 250 61 C 243.94 61.52 240.16 60.83 230 61 M 230 61 C 229.53 40 229.68 14.23 230 1 M 230 61 C 229.17 40.43 229.81 19.11 230 1" fill="none" stroke="#324ab2" stroke-width="2" stroke-linejoin="round" stroke-linecap="round" stroke-miterlimit="10" pointer-events="all"/><g fill="#324AB2" font-family="Ink Free" font-weight="bold" text-anchor="middle" font-size="17px"><text x="239.5" y="35.5">5</text></g><rect x="190" y="1" width="40" height="60" fill="none" stroke="none" pointer-events="all"/><path d="M 190 1 C 203.15 1.12 216.27 2.17 230 1 M 190 1 C 198.98 0.18 207.87 1.4 230 1 M 230 1 C 228.55 19.51 229.04 42.95 230 61 M 230 1 C 230.92 18.02 229.85 35.2 230 61 M 230 61 C 214.79 60.79 202.02 60.35 190 61 M 230 61 C 218.13 61.66 204.33 61.86 190 61 M 190 61 C 188.44 43.54 189.12 23.14 190 1 M 190 61 C 189.26 43.25 190.07 24.68 190 1" fill="none" stroke="#324ab2" stroke-width="2" stroke-linejoin="round" stroke-linecap="round" stroke-miterlimit="10" pointer-events="all"/><g fill="#324AB2" font-family="Ink Free" font-weight="bold" text-anchor="middle" font-size="17px"><text x="209.5" y="35.5">P1</text></g><rect x="110" y="1" width="40" height="60" fill="none" stroke="none" pointer-events="all"/><path d="M 110 1 C 122.01 0.41 133.95 1.66 150 1 M 110 1 C 121.06 0.96 134.4 1.39 150 1 M 150 1 C 147.74 23.79 151.09 44.01 150 61 M 150 1 C 150.25 16.3 150.08 31.78 150 61 M 150 61 C 135.72 61.99 122.46 59.05 110 61 M 150 61 C 135.74 61.88 121.33 60.96 110 61 M 110 61 C 110.15 47.08 111.36 28.04 110 1 M 110 61 C 110.55 46.08 109.52 30.26 110 1" fill="none" stroke="#324ab2" stroke-width="2" stroke-linejoin="round" stroke-linecap="round" stroke-miterlimit="10" pointer-events="all"/><g fill="#324AB2" font-family="Ink Free" font-weight="bold" text-anchor="middle" font-size="17px"><text x="129.5" y="35.5">P4</text></g><rect x="442" y="71" width="25" height="20" fill="none" stroke="none" pointer-events="all"/><g fill="#324AB2" font-family="Ink Free" font-weight="bold" text-anchor="middle" font-size="17px"><text x="454" y="85.5">22</text></g><rect x="140" y="71" width="25" height="20" fill="none" stroke="none" pointer-events="all"/><g fill="#324AB2" font-family="Ink Free" font-weight="bold" text-anchor="middle" font-size="17px"><text x="152" y="85.5">7</text></g><rect x="218" y="71" width="25" height="20" fill="none" stroke="none" pointer-events="all"/><g fill="#324AB2" font-family="Ink Free" font-weight="bold" text-anchor="middle" font-size="17px"><text x="230" y="85.5">11</text></g><rect x="270" y="1" width="20" height="60" fill="none" stroke="none" pointer-events="all"/><path d="M 270 1 C 275.69 2.95 280.61 2.32 290 1 M 270 1 C 276.24 0.52 283.05 1.47 290 1 M 290 1 C 291.05 12.7 290.57 25.26 290 61 M 290 1 C 290.32 22.82 290.3 43.68 290 61 M 290 61 C 284.81 61.68 280.61 60.98 270 61 M 290 61 C 283.59 61.27 278.07 61.96 270 61 M 270 61 C 271.85 48.64 272.02 34.19 270 1 M 270 61 C 270.68 47.27 270.87 34.03 270 1" fill="none" stroke="#324ab2" stroke-width="2" stroke-linejoin="round" stroke-linecap="round" stroke-miterlimit="10" pointer-events="all"/><g fill="#324AB2" font-family="Ink Free" font-weight="bold" text-anchor="middle" font-size="17px"><text x="279.5" y="35.5">3</text></g><rect x="350" y="1" width="80" height="60" fill="none" stroke="none" pointer-events="all"/><path d="M 350 1 C 370.84 1.15 394.87 0.73 430 1 M 350 1 C 368.06 0.27 385.06 0.45 430 1 M 430 1 C 431.43 16.98 429.82 30.32 430 61 M 430 1 C 429.65 21.1 430.53 40.26 430 61 M 430 61 C 398.6 63.15 370.77 59.95 350 61 M 430 61 C 403.64 61.63 375.95 61.21 350 61 M 350 61 C 350.77 40.18 351.46 19.09 350 1 M 350 61 C 348.77 38.09 349.13 15.61 350 1" fill="none" stroke="#324ab2" stroke-width="2" stroke-linejoin="round" stroke-linecap="round" stroke-miterlimit="10" pointer-events="all"/><g fill="#324AB2" font-family="Ink Free" font-weight="bold" text-anchor="middle" font-size="17px"><text x="389.5" y="35.5">P5</text></g><rect x="430" y="1" width="20" height="60" fill="none" stroke="none" pointer-events="all"/><path d="M 430 1 C 437.4 0.8 439.97 0.57 450 1 M 430 1 C 435.51 1.11 442.35 0.5 450 1 M 450 1 C 450.62 17.26 451.87 35.37 450 61 M 450 1 C 450.98 19.39 450.76 38.85 450 61 M 450 61 C 445.13 60.02 438.42 62.31 430 61 M 450 61 C 442.43 61.63 435.33 62.1 430 61 M 430 61 C 428.48 43.72 429.7 24 430 1 M 430 61 C 430.06 40.92 430.59 21.18 430 1" fill="none" stroke="#324ab2" stroke-width="2" stroke-linejoin="round" stroke-linecap="round" stroke-miterlimit="10" pointer-events="all"/><g fill="#324AB2" font-family="Ink Free" font-weight="bold" text-anchor="middle" font-size="17px"><text x="439.5" y="35.5">2</text></g><rect x="278" y="71" width="25" height="20" fill="none" stroke="none" pointer-events="all"/><g fill="#324AB2" font-family="Ink Free" font-weight="bold" text-anchor="middle" font-size="17px"><text x="290" y="85.5">14</text></g></g></svg>