<?xml version="1.0" encoding="UTF-8" standalone="no"?>
<svg
   xmlns:ooo="http://xml.openoffice.org/svg/export"
   xmlns:dc="http://purl.org/dc/elements/1.1/"
   xmlns:cc="http://creativecommons.org/ns#"
   xmlns:rdf="http://www.w3.org/1999/02/22-rdf-syntax-ns#"
   xmlns:svg="http://www.w3.org/2000/svg"
   xmlns="http://www.w3.org/2000/svg"
   xmlns:sodipodi="http://sodipodi.sourceforge.net/DTD/sodipodi-0.dtd"
   xmlns:inkscape="http://www.inkscape.org/namespaces/inkscape"
   version="1.2"
   width="602.36218"
   height="89.082672"
   viewBox="0 0 17000 2514.1109"
   preserveAspectRatio="xMidYMid"
   clip-path="url(#presentation_clip_path)"
   xml:space="preserve"
   id="svg2"
   inkscape:version="0.48.4 r9939"
   sodipodi:docname="fcfs1.svg"
   style="fill-rule:evenodd;stroke-width:28.22200012;stroke-linejoin:round"><metadata
     id="metadata180"><rdf:RDF><cc:Work
         rdf:about=""><dc:format>image/svg+xml</dc:format><dc:type
           rdf:resource="http://purl.org/dc/dcmitype/StillImage" /></cc:Work></rdf:RDF></metadata><sodipodi:namedview
     pagecolor="#ffffff"
     bordercolor="#666666"
     borderopacity="1"
     objecttolerance="10"
     gridtolerance="10"
     guidetolerance="10"
     inkscape:pageopacity="0"
     inkscape:pageshadow="2"
     inkscape:window-width="640"
     inkscape:window-height="480"
     id="namedview178"
     showgrid="false"
     fit-margin-top="0"
     fit-margin-left="0"
     fit-margin-right="0"
     fit-margin-bottom="0"
     inkscape:zoom="0.20813889"
     inkscape:cx="757.02754"
     inkscape:cy="-402.69684"
     inkscape:window-x="0"
     inkscape:window-y="0"
     inkscape:window-maximized="0"
     inkscape:current-layer="svg2" /><defs
     class="ClipPathGroup"
     id="defs4"><clipPath
       id="presentation_clip_path"
       clipPathUnits="userSpaceOnUse"><rect
         x="0"
         y="0"
         width="45000"
         height="32000"
         id="rect7" /></clipPath></defs><defs
     class="TextShapeIndex"
     id="defs9"><g
       ooo:slide="id1"
       ooo:id-list="id3 id4 id5 id6 id7 id8 id9 id10 id11 id12"
       id="g11" /></defs><defs
     class="EmbeddedBulletChars"
     id="defs13"><g
       id="bullet-char-template(57356)"
       transform="scale(4.8828125e-4,-4.8828125e-4)"><path
         d="M 580,1141 1163,571 580,0 -4,571 580,1141 z"
         id="path16"
         inkscape:connector-curvature="0" /></g><g
       id="bullet-char-template(57354)"
       transform="scale(4.8828125e-4,-4.8828125e-4)"><path
         d="m 8,1128 1129,0 L 1137,0 8,0 8,1128 z"
         id="path19"
         inkscape:connector-curvature="0" /></g><g
       id="bullet-char-template(10146)"
       transform="scale(4.8828125e-4,-4.8828125e-4)"><path
         d="M 174,0 602,739 174,1481 1456,739 174,0 z m 1184,739 -1049,607 350,-607 699,0 z"
         id="path22"
         inkscape:connector-curvature="0" /></g><g
       id="bullet-char-template(10132)"
       transform="scale(4.8828125e-4,-4.8828125e-4)"><path
         d="M 2015,739 1276,0 717,0 l 543,543 -1086,0 0,393 1086,0 -543,545 557,0 741,-742 z"
         id="path25"
         inkscape:connector-curvature="0" /></g><g
       id="bullet-char-template(10007)"
       transform="scale(4.8828125e-4,-4.8828125e-4)"><path
         d="m 0,-2 c -7,16 -16,29 -25,39 l 381,530 c -94,256 -141,385 -141,387 0,25 13,38 40,38 9,0 21,-2 34,-5 21,4 42,12 65,25 l 27,-13 111,-251 280,301 64,-25 24,25 c 21,-10 41,-24 62,-43 C 886,937 835,863 770,784 769,783 710,716 594,584 L 774,223 c 0,-27 -21,-55 -63,-84 l 16,-20 C 717,90 699,76 672,76 641,76 570,178 457,381 L 164,-76 c -22,-34 -53,-51 -92,-51 -42,0 -63,17 -64,51 -7,9 -10,24 -10,44 0,9 1,19 2,30 z"
         id="path28"
         inkscape:connector-curvature="0" /></g><g
       id="bullet-char-template(10004)"
       transform="scale(4.8828125e-4,-4.8828125e-4)"><path
         d="M 285,-33 C 182,-33 111,30 74,156 52,228 41,333 41,471 c 0,78 14,145 41,201 34,71 87,106 158,106 53,0 88,-31 106,-94 l 23,-176 c 8,-64 28,-97 59,-98 l 735,706 c 11,11 33,17 66,17 42,0 63,-15 63,-46 l 0,-122 c 0,-36 -10,-64 -30,-84 L 442,47 C 390,-6 338,-33 285,-33 z"
         id="path31"
         inkscape:connector-curvature="0" /></g><g
       id="bullet-char-template(9679)"
       transform="scale(4.8828125e-4,-4.8828125e-4)"><path
         d="M 813,0 C 632,0 489,54 383,161 276,268 223,411 223,592 c 0,181 53,324 160,431 106,107 249,161 430,161 179,0 323,-54 432,-161 108,-107 162,-251 162,-431 0,-180 -54,-324 -162,-431 C 1136,54 992,0 813,0 z"
         id="path34"
         inkscape:connector-curvature="0" /></g><g
       id="bullet-char-template(8226)"
       transform="scale(4.8828125e-4,-4.8828125e-4)"><path
         d="m 346,457 c -73,0 -137,26 -191,78 -54,51 -81,114 -81,188 0,73 27,136 81,188 54,52 118,78 191,78 73,0 134,-26 185,-79 51,-51 77,-114 77,-187 0,-75 -25,-137 -76,-188 -50,-52 -112,-78 -186,-78 z"
         id="path37"
         inkscape:connector-curvature="0" /></g><g
       id="bullet-char-template(8211)"
       transform="scale(4.8828125e-4,-4.8828125e-4)"><path
         d="m -4,459 1139,0 0,147 -1139,0 0,-147 z"
         id="path40"
         inkscape:connector-curvature="0" /></g></defs><defs
     class="TextEmbeddedBitmaps"
     id="defs42" /><g
     id="g44"
     transform="translate(-1135,-2120.8894)"><g
       id="id2"
       class="Master_Slide"><g
         id="bg-id2"
         class="Background" /><g
         id="bo-id2"
         class="BackgroundObjects" /></g></g><g
     class="SlideGroup"
     id="g49"
     transform="translate(-1135,-2120.8894)"><g
       id="g51"><g
         id="id1"
         class="Slide"
         clip-path="url(#presentation_clip_path)"><g
           class="Page"
           id="g54"><g
             class="Group"
             id="g56"><g
               class="com.sun.star.drawing.RectangleShape"
               id="g58"><g
                 id="id3"><path
                   d="m 9635,4635 -8500,0 0,-2500 17000,0 0,2500 -8500,0 z"
                   id="path61"
                   inkscape:connector-curvature="0"
                   style="fill:#ffffff;stroke:none" /></g></g><g
               class="com.sun.star.drawing.RectangleShape"
               id="g63"><g
                 id="id4"><path
                   d="m 7635,3635 -6000,0 0,-1500 12000,0 0,1500 -6000,0 z"
                   id="path66"
                   inkscape:connector-curvature="0"
                   style="fill:#99ccff;stroke:none" /><path
                   d="m 7635,3635 -6000,0 0,-1500 12000,0 0,1500 -6000,0 z"
                   id="path68"
                   inkscape:connector-curvature="0"
                   style="fill:none;stroke:#000000" /><text
                   class="TextShape"
                   id="text70"><tspan
                     class="TextParagraph"
                     font-size="494px"
                     font-weight="400"
                     id="tspan72"
                     style="font-size:494px;font-weight:400;font-family:'Arial, sans-serif'"><tspan
                       class="TextPosition"
                       x="7332"
                       y="3057"
                       id="tspan74"><tspan
                         id="tspan76"
                         style="fill:#000000;stroke:none">P1</tspan></tspan></tspan></text>
</g></g><g
               class="com.sun.star.drawing.RectangleShape"
               id="g78"><g
                 id="id5"><path
                   d="m 15885,3635 -750,0 0,-1500 1500,0 0,1500 -750,0 z"
                   id="path81"
                   inkscape:connector-curvature="0"
                   style="fill:#99ccff;stroke:none" /><path
                   d="m 15885,3635 -750,0 0,-1500 1500,0 0,1500 -750,0 z"
                   id="path83"
                   inkscape:connector-curvature="0"
                   style="fill:none;stroke:#000000" /><text
                   class="TextShape"
                   id="text85"><tspan
                     class="TextParagraph"
                     font-size="494px"
                     font-weight="400"
                     id="tspan87"
                     style="font-size:494px;font-weight:400;font-family:'Arial, sans-serif'"><tspan
                       class="TextPosition"
                       x="15582"
                       y="3057"
                       id="tspan89"><tspan
                         id="tspan91"
                         style="fill:#000000;stroke:none">P3</tspan></tspan></tspan></text>
</g></g><g
               class="com.sun.star.drawing.RectangleShape"
               id="g93"><g
                 id="id6"><path
                   d="m 14385,3635 -750,0 0,-1500 1500,0 0,1500 -750,0 z"
                   id="path96"
                   inkscape:connector-curvature="0"
                   style="fill:#99ccff;stroke:none" /><path
                   d="m 14385,3635 -750,0 0,-1500 1500,0 0,1500 -750,0 z"
                   id="path98"
                   inkscape:connector-curvature="0"
                   style="fill:none;stroke:#000000" /><text
                   class="TextShape"
                   id="text100"><tspan
                     class="TextParagraph"
                     font-size="494px"
                     font-weight="400"
                     id="tspan102"
                     style="font-size:494px;font-weight:400;font-family:'Arial, sans-serif'"><tspan
                       class="TextPosition"
                       x="14082"
                       y="3057"
                       id="tspan104"><tspan
                         id="tspan106"
                         style="fill:#000000;stroke:none">P2</tspan></tspan></tspan></text>
</g></g><g
               class="com.sun.star.drawing.TextShape"
               id="g108"><g
                 id="id7"><text
                   class="TextShape"
                   id="text111"><tspan
                     class="TextParagraph"
                     font-size="494px"
                     font-weight="400"
                     id="tspan113"
                     style="font-size:494px;font-weight:400;font-family:'Arial, sans-serif'"><tspan
                       class="TextPosition"
                       x="1608"
                       y="4404"
                       id="tspan115"><tspan
                         id="tspan117"
                         style="fill:#000000;stroke:none">0</tspan></tspan></tspan></text>
</g></g><g
               class="com.sun.star.drawing.TextShape"
               id="g119"><g
                 id="id8"><text
                   class="TextShape"
                   id="text122"><tspan
                     class="TextParagraph"
                     font-size="494px"
                     font-weight="400"
                     id="tspan124"
                     style="font-size:494px;font-weight:400;font-family:'Arial, sans-serif'"><tspan
                       class="TextPosition"
                       x="13385"
                       y="4404"
                       id="tspan126"><tspan
                         id="tspan128"
                         style="fill:#000000;stroke:none">24</tspan></tspan></tspan></text>
</g></g><g
               class="com.sun.star.drawing.TextShape"
               id="g130"><g
                 id="id9"><text
                   class="TextShape"
                   id="text133"><tspan
                     class="TextParagraph"
                     font-size="494px"
                     font-weight="400"
                     id="tspan135"
                     style="font-size:494px;font-weight:400;font-family:'Arial, sans-serif'"><tspan
                       class="TextPosition"
                       x="14833"
                       y="4404"
                       id="tspan137"><tspan
                         id="tspan139"
                         style="fill:#000000;stroke:none">27</tspan></tspan></tspan></text>
</g></g><g
               class="com.sun.star.drawing.TextShape"
               id="g141"><g
                 id="id10"><text
                   class="TextShape"
                   id="text144"><tspan
                     class="TextParagraph"
                     font-size="494px"
                     font-weight="400"
                     id="tspan146"
                     style="font-size:494px;font-weight:400;font-family:'Arial, sans-serif'"><tspan
                       class="TextPosition"
                       x="16385"
                       y="4404"
                       id="tspan148"><tspan
                         id="tspan150"
                         style="fill:#000000;stroke:none">30</tspan></tspan></tspan></text>
</g></g><g
               class="com.sun.star.drawing.RectangleShape"
               id="g152"><g
                 id="id11"><path
                   d="m 17135,3635 -500,0 0,-1500 1000,0 0,1500 -500,0 z"
                   id="path155"
                   inkscape:connector-curvature="0"
                   style="fill:#99ccff;stroke:none" /><path
                   d="m 17135,3635 -500,0 0,-1500 1000,0 0,1500 -500,0 z"
                   id="path157"
                   inkscape:connector-curvature="0"
                   style="fill:none;stroke:#000000" /><text
                   class="TextShape"
                   id="text159"><tspan
                     class="TextParagraph"
                     font-size="494px"
                     font-weight="400"
                     id="tspan161"
                     style="font-size:494px;font-weight:400;font-family:'Arial, sans-serif'"><tspan
                       class="TextPosition"
                       x="16832"
                       y="3057"
                       id="tspan163"><tspan
                         id="tspan165"
                         style="fill:#000000;stroke:none">P4</tspan></tspan></tspan></text>
</g></g><g
               class="com.sun.star.drawing.TextShape"
               id="g167"><g
                 id="id12"><text
                   class="TextShape"
                   id="text170"><tspan
                     class="TextParagraph"
                     font-size="494px"
                     font-weight="400"
                     id="tspan172"
                     style="font-size:494px;font-weight:400;font-family:'Arial, sans-serif'"><tspan
                       class="TextPosition"
                       x="17385"
                       y="4404"
                       id="tspan174"><tspan
                         id="tspan176"
                         style="fill:#000000;stroke:none">32</tspan></tspan></tspan></text>
</g></g></g></g></g></g></g></svg>