<?xml version="1.0" encoding="UTF-8"?>
<!DOCTYPE svg PUBLIC "-//W3C//DTD SVG 1.1//EN" "http://www.w3.org/Graphics/SVG/1.1/DTD/svg11.dtd">
<svg xmlns="http://www.w3.org/2000/svg" xmlns:xlink="http://www.w3.org/1999/xlink" version="1.1" width="667px" height="92px" viewBox="-0.5 -0.5 667 92"><defs/><g><rect x="490" y="1" width="60" height="60" fill="none" stroke="none" pointer-events="all"/><path d="M 490 1 C 514.45 2.51 536.93 -0.13 550 1 M 490 1 C 514.38 1.09 537.79 0.69 550 1 M 550 1 C 550.24 16.15 552.19 30.76 550 61 M 550 1 C 550.08 15.86 549.51 33.06 550 61 M 550 61 C 537.94 59.92 524.14 59.3 490 61 M 550 61 C 533.93 60.97 517.78 60.2 490 61 M 490 61 C 489.9 44.6 490.19 24.54 490 1 M 490 61 C 489.59 45.03 489.49 27.56 490 1" fill="none" stroke="#324ab2" stroke-width="2" stroke-linejoin="round" stroke-linecap="round" stroke-miterlimit="10" pointer-events="all"/><g fill="#324AB2" font-family="Ink Free" font-weight="bold" text-anchor="middle" font-size="17px"><text x="519.5" y="35.5">P2</text></g><rect x="0" y="71" width="25" height="20" fill="none" stroke="none" pointer-events="all"/><g fill="#324AB2" font-family="Ink Free" font-weight="bold" text-anchor="middle" font-size="17px"><text x="12" y="85.5">0</text></g><rect x="10" y="1" width="480" height="60" fill="none" stroke="none" pointer-events="all"/><path d="M 10 1 C 139.22 -1.12 268.31 -0.85 490 1 M 10 1 C 118.5 2.77 227.04 2.86 490 1 M 490 1 C 491.07 19.72 489.7 37.17 490 61 M 490 1 C 489.4 19.93 489.4 38.58 490 61 M 490 61 C 371.35 58.4 251.37 59.75 10 61 M 490 61 C 303.54 59.78 116.77 59.89 10 61 M 10 61 C 8.62 46.86 11.4 36.26 10 1 M 10 61 C 10.54 47.93 9.65 36.58 10 1" fill="none" stroke="#324ab2" stroke-width="2" stroke-linejoin="round" stroke-linecap="round" stroke-miterlimit="10" pointer-events="all"/><g fill="#324AB2" font-family="Ink Free" font-weight="bold" text-anchor="middle" font-size="17px"><text x="249.5" y="35.5">P1</text></g><rect x="550" y="1" width="60" height="60" fill="none" stroke="none" pointer-events="all"/><path d="M 550 1 C 566.04 -0.96 581.71 -0.15 610 1 M 550 1 C 568.6 1.72 585.67 1.14 610 1 M 610 1 C 610.26 24.01 607.75 42.22 610 61 M 610 1 C 610.74 18.21 609.63 35.17 610 61 M 610 61 C 597.91 60.23 585.34 60.85 550 61 M 610 61 C 596.29 60.11 581.62 61.25 550 61 M 550 61 C 550.33 38.4 549.64 17.16 550 1 M 550 61 C 549.83 38.76 551.11 18.15 550 1" fill="none" stroke="#324ab2" stroke-width="2" stroke-linejoin="round" stroke-linecap="round" stroke-miterlimit="10" pointer-events="all"/><g fill="#324AB2" font-family="Ink Free" font-weight="bold" text-anchor="middle" font-size="17px"><text x="579.5" y="35.5">P3</text></g><rect x="610" y="1" width="40" height="60" fill="none" stroke="none" pointer-events="all"/><path d="M 610 1 C 619.53 2.33 632.66 -0.66 650 1 M 610 1 C 624.71 1.66 640.27 0.3 650 1 M 650 1 C 650.64 24.29 650.99 47.28 650 61 M 650 1 C 650.07 16.5 649.86 31.75 650 61 M 650 61 C 635.03 61.59 622.17 59.7 610 61 M 650 61 C 638.5 60.37 627.81 60.4 610 61 M 610 61 C 609.24 41.94 609.08 26.06 610 1 M 610 61 C 609.92 41.59 609.37 23.73 610 1" fill="none" stroke="#324ab2" stroke-width="2" stroke-linejoin="round" stroke-linecap="round" stroke-miterlimit="10" pointer-events="all"/><g fill="#324AB2" font-family="Ink Free" font-weight="bold" text-anchor="middle" font-size="17px"><text x="629.5" y="35.5">P4</text></g><rect x="480" y="71" width="25" height="20" fill="none" stroke="none" pointer-events="all"/><g fill="#324AB2" font-family="Ink Free" font-weight="bold" text-anchor="middle" font-size="17px"><text x="492" y="85.5">24</text></g><rect x="540" y="71" width="25" height="20" fill="none" stroke="none" pointer-events="all"/><g fill="#324AB2" font-family="Ink Free" font-weight="bold" text-anchor="middle" font-size="17px"><text x="552" y="85.5">27</text></g><rect x="600" y="71" width="25" height="20" fill="none" stroke="none" pointer-events="all"/><g fill="#324AB2" font-family="Ink Free" font-weight="bold" text-anchor="middle" font-size="17px"><text x="612" y="85.5">30</text></g><rect x="640" y="71" width="25" height="20" fill="none" stroke="none" pointer-events="all"/><g fill="#324AB2" font-family="Ink Free" font-weight="bold" text-anchor="middle" font-size="17px"><text x="652" y="85.5">32</text></g></g></svg>