<?xml version="1.0" encoding="UTF-8"?>
<!DOCTYPE svg PUBLIC "-//W3C//DTD SVG 1.1//EN" "http://www.w3.org/Graphics/SVG/1.1/DTD/svg11.dtd">
<svg xmlns="http://www.w3.org/2000/svg" xmlns:xlink="http://www.w3.org/1999/xlink" version="1.1" width="466px" height="92px" viewBox="-0.5 -0.5 466 92"><defs/><g><rect x="90" y="1" width="100" height="60" fill="none" stroke="none" pointer-events="all"/><path d="M 90 1 C 130.09 2.69 168.22 0.05 190 1 M 90 1 C 130.18 0.99 169.39 0.59 190 1 M 190 1 C 190.24 16.15 192.19 30.76 190 61 M 190 1 C 190.08 15.86 189.51 33.06 190 61 M 190 61 C 169.47 59.89 147.2 59.27 90 61 M 190 61 C 163.09 60.6 136.09 59.82 90 61 M 90 61 C 89.9 44.6 90.19 24.54 90 1 M 90 61 C 89.59 45.03 89.49 27.56 90 1" fill="none" stroke="#324ab2" stroke-width="2" stroke-linejoin="round" stroke-linecap="round" stroke-miterlimit="10" pointer-events="all"/><g fill="#324AB2" font-family="Ink Free" font-weight="bold" text-anchor="middle" font-size="17px"><text x="139.5" y="35.5">P5</text></g><rect x="0" y="71" width="25" height="20" fill="none" stroke="none" pointer-events="all"/><g fill="#324AB2" font-family="Ink Free" font-weight="bold" text-anchor="middle" font-size="17px"><text x="12" y="85.5">0</text></g><rect x="10" y="1" width="20" height="60" fill="none" stroke="none" pointer-events="all"/><path d="M 10 1 C 16.45 -0.07 22.57 0.54 30 1 M 10 1 C 14.02 1.56 18.14 1.77 30 1 M 30 1 C 31.07 19.72 29.7 37.17 30 61 M 30 1 C 29.4 19.93 29.4 38.58 30 61 M 30 61 C 26.13 59.37 19.21 62.49 10 61 M 30 61 C 23.07 60.01 15.4 60.26 10 61 M 10 61 C 8.62 46.86 11.4 36.26 10 1 M 10 61 C 10.54 47.93 9.65 36.58 10 1" fill="none" stroke="#324ab2" stroke-width="2" stroke-linejoin="round" stroke-linecap="round" stroke-miterlimit="10" pointer-events="all"/><g fill="#324AB2" font-family="Ink Free" font-weight="bold" text-anchor="middle" font-size="17px"><text x="19.5" y="35.5">1</text></g><rect x="190" y="1" width="160" height="60" fill="none" stroke="none" pointer-events="all"/><path d="M 190 1 C 232.86 -1 275.36 -0.18 350 1 M 190 1 C 238.45 1.88 285.37 1.3 350 1 M 350 1 C 350.26 24.01 347.75 42.22 350 61 M 350 1 C 350.74 18.21 349.63 35.17 350 61 M 350 61 C 316.94 59.46 283.4 60.08 190 61 M 350 61 C 313.28 59.92 275.59 61.06 190 61 M 190 61 C 190.33 38.4 189.64 17.16 190 1 M 190 61 C 189.83 38.76 191.11 18.15 190 1" fill="none" stroke="#324ab2" stroke-width="2" stroke-linejoin="round" stroke-linecap="round" stroke-miterlimit="10" pointer-events="all"/><g fill="#324AB2" font-family="Ink Free" font-weight="bold" text-anchor="middle" font-size="17px"><text x="269.5" y="35.5">P1</text></g><rect x="30" y="1" width="40" height="60" fill="none" stroke="none" pointer-events="all"/><path d="M 30 1 C 39.53 2.33 52.66 -0.66 70 1 M 30 1 C 44.71 1.66 60.27 0.3 70 1 M 70 1 C 70.64 24.29 70.99 47.28 70 61 M 70 1 C 70.07 16.5 69.86 31.75 70 61 M 70 61 C 55.03 61.59 42.17 59.7 30 61 M 70 61 C 58.5 60.37 47.81 60.4 30 61 M 30 61 C 29.24 41.94 29.08 26.06 30 1 M 30 61 C 29.92 41.59 29.37 23.73 30 1" fill="none" stroke="#324ab2" stroke-width="2" stroke-linejoin="round" stroke-linecap="round" stroke-miterlimit="10" pointer-events="all"/><g fill="#324AB2" font-family="Ink Free" font-weight="bold" text-anchor="middle" font-size="17px"><text x="49.5" y="35.5">P2</text></g><rect x="20" y="71" width="25" height="20" fill="none" stroke="none" pointer-events="all"/><g fill="#324AB2" font-family="Ink Free" font-weight="bold" text-anchor="middle" font-size="17px"><text x="32" y="85.5">1</text></g><rect x="180" y="71" width="25" height="20" fill="none" stroke="none" pointer-events="all"/><g fill="#324AB2" font-family="Ink Free" font-weight="bold" text-anchor="middle" font-size="17px"><text x="192" y="85.5">9</text></g><rect x="400" y="71" width="25" height="20" fill="none" stroke="none" pointer-events="all"/><g fill="#324AB2" font-family="Ink Free" font-weight="bold" text-anchor="middle" font-size="17px"><text x="412" y="85.5">20</text></g><rect x="340" y="71" width="25" height="20" fill="none" stroke="none" pointer-events="all"/><g fill="#324AB2" font-family="Ink Free" font-weight="bold" text-anchor="middle" font-size="17px"><text x="352" y="85.5">17</text></g><rect x="350" y="1" width="60" height="60" fill="none" stroke="none" pointer-events="all"/><path d="M 350 1 C 370.6 1.7 387.21 2.55 410 1 M 350 1 C 371.88 0.25 391.3 0.24 410 1 M 410 1 C 409.36 19.23 411 37.9 410 61 M 410 1 C 409.59 19.73 409.62 36.62 410 61 M 410 61 C 397.71 59.46 385.26 61.52 350 61 M 410 61 C 393.12 61.35 378.52 60.67 350 61 M 350 61 C 349.53 40 349.68 14.23 350 1 M 350 61 C 349.17 40.43 349.81 19.11 350 1" fill="none" stroke="#324ab2" stroke-width="2" stroke-linejoin="round" stroke-linecap="round" stroke-miterlimit="10" pointer-events="all"/><g fill="#324AB2" font-family="Ink Free" font-weight="bold" text-anchor="middle" font-size="17px"><text x="379.5" y="35.5">P3</text></g><rect x="70" y="1" width="20" height="60" fill="none" stroke="none" pointer-events="all"/><path d="M 70 1 C 76.84 1.1 83.64 2.16 90 1 M 70 1 C 74.56 0.27 79.03 1.48 90 1 M 90 1 C 88.55 19.51 89.04 42.95 90 61 M 90 1 C 90.92 18.02 89.85 35.2 90 61 M 90 61 C 82.18 60.89 76.78 60.44 70 61 M 90 61 C 84.36 61.7 76.79 61.9 70 61 M 70 61 C 68.44 43.54 69.12 23.14 70 1 M 70 61 C 69.26 43.25 70.07 24.68 70 1" fill="none" stroke="#324ab2" stroke-width="2" stroke-linejoin="round" stroke-linecap="round" stroke-miterlimit="10" pointer-events="all"/><g fill="#324AB2" font-family="Ink Free" font-weight="bold" text-anchor="middle" font-size="17px"><text x="79.5" y="35.5">1</text></g><rect x="410" y="1" width="40" height="60" fill="none" stroke="none" pointer-events="all"/><path d="M 410 1 C 422.01 0.41 433.95 1.66 450 1 M 410 1 C 421.06 0.96 434.4 1.39 450 1 M 450 1 C 447.74 23.79 451.09 44.01 450 61 M 450 1 C 450.25 16.3 450.08 31.78 450 61 M 450 61 C 435.72 61.99 422.46 59.05 410 61 M 450 61 C 435.74 61.88 421.33 60.96 410 61 M 410 61 C 410.15 47.08 411.36 28.04 410 1 M 410 61 C 410.55 46.08 409.52 30.26 410 1" fill="none" stroke="#324ab2" stroke-width="2" stroke-linejoin="round" stroke-linecap="round" stroke-miterlimit="10" pointer-events="all"/><g fill="#324AB2" font-family="Ink Free" font-weight="bold" text-anchor="middle" font-size="17px"><text x="429.5" y="35.5">P4</text></g><rect x="440" y="71" width="25" height="20" fill="none" stroke="none" pointer-events="all"/><g fill="#324AB2" font-family="Ink Free" font-weight="bold" text-anchor="middle" font-size="17px"><text x="452" y="85.5">22</text></g><rect x="60" y="71" width="25" height="20" fill="none" stroke="none" pointer-events="all"/><g fill="#324AB2" font-family="Ink Free" font-weight="bold" text-anchor="middle" font-size="17px"><text x="72" y="85.5">3</text></g><rect x="80" y="71" width="25" height="20" fill="none" stroke="none" pointer-events="all"/><g fill="#324AB2" font-family="Ink Free" font-weight="bold" text-anchor="middle" font-size="17px"><text x="92" y="85.5">4</text></g></g></svg>