<?xml version="1.0" encoding="UTF-8"?>
<!DOCTYPE svg PUBLIC "-//W3C//DTD SVG 1.1//EN" "http://www.w3.org/Graphics/SVG/1.1/DTD/svg11.dtd">
<svg xmlns="http://www.w3.org/2000/svg" xmlns:xlink="http://www.w3.org/1999/xlink" version="1.1" width="466px" height="92px" viewBox="-0.5 -0.5 466 92"><defs/><g><rect x="410" y="1" width="40" height="60" fill="none" stroke="none" pointer-events="all"/><path d="M 410 1 C 426.63 2.42 441.29 -0.22 450 1 M 410 1 C 426.48 1.13 441.99 0.74 450 1 M 450 1 C 450.24 16.15 452.19 30.76 450 61 M 450 1 C 450.08 15.86 449.51 33.06 450 61 M 450 61 C 442.18 59.94 432.62 59.32 410 61 M 450 61 C 439.35 61.16 428.62 60.39 410 61 M 410 61 C 409.9 44.6 410.19 24.54 410 1 M 410 61 C 409.59 45.03 409.49 27.56 410 1" fill="none" stroke="#324ab2" stroke-width="2" stroke-linejoin="round" stroke-linecap="round" stroke-miterlimit="10" pointer-events="all"/><g fill="#324AB2" font-family="Ink Free" font-weight="bold" text-anchor="middle" font-size="17px"><text x="429.5" y="35.5">p4</text></g><rect x="0" y="71" width="25" height="20" fill="none" stroke="none" pointer-events="all"/><g fill="#324AB2" font-family="Ink Free" font-weight="bold" text-anchor="middle" font-size="17px"><text x="12" y="85.5">0</text></g><rect x="10" y="1" width="200" height="60" fill="none" stroke="none" pointer-events="all"/><path d="M 10 1 C 64.62 -1.31 118.95 -0.76 210 1 M 10 1 C 54.84 2.75 99.77 2.93 210 1 M 210 1 C 211.07 19.72 209.7 37.17 210 61 M 210 1 C 209.4 19.93 209.4 38.58 210 61 M 210 61 C 161.35 58 109.95 60.8 10 61 M 210 61 C 132.92 59.47 55.18 59.7 10 61 M 10 61 C 8.62 46.86 11.4 36.26 10 1 M 10 61 C 10.54 47.93 9.65 36.58 10 1" fill="none" stroke="#324ab2" stroke-width="2" stroke-linejoin="round" stroke-linecap="round" stroke-miterlimit="10" pointer-events="all"/><g fill="#324AB2" font-family="Ink Free" font-weight="bold" text-anchor="middle" font-size="17px"><text x="109.5" y="35.5">P1</text></g><rect x="210" y="1" width="40" height="60" fill="none" stroke="none" pointer-events="all"/><path d="M 210 1 C 219.53 2.33 232.66 -0.66 250 1 M 210 1 C 224.71 1.66 240.27 0.3 250 1 M 250 1 C 250.64 24.29 250.99 47.28 250 61 M 250 1 C 250.07 16.5 249.86 31.75 250 61 M 250 61 C 235.03 61.59 222.17 59.7 210 61 M 250 61 C 238.5 60.37 227.81 60.4 210 61 M 210 61 C 209.24 41.94 209.08 26.06 210 1 M 210 61 C 209.92 41.59 209.37 23.73 210 1" fill="none" stroke="#324ab2" stroke-width="2" stroke-linejoin="round" stroke-linecap="round" stroke-miterlimit="10" pointer-events="all"/><g fill="#324AB2" font-family="Ink Free" font-weight="bold" text-anchor="middle" font-size="17px"><text x="229.5" y="35.5">P2</text></g><rect x="200" y="71" width="25" height="20" fill="none" stroke="none" pointer-events="all"/><g fill="#324AB2" font-family="Ink Free" font-weight="bold" text-anchor="middle" font-size="17px"><text x="212" y="85.5">10</text></g><rect x="400" y="71" width="25" height="20" fill="none" stroke="none" pointer-events="all"/><g fill="#324AB2" font-family="Ink Free" font-weight="bold" text-anchor="middle" font-size="17px"><text x="412" y="85.5">20</text></g><rect x="340" y="71" width="25" height="20" fill="none" stroke="none" pointer-events="all"/><g fill="#324AB2" font-family="Ink Free" font-weight="bold" text-anchor="middle" font-size="17px"><text x="352" y="85.5">17</text></g><rect x="350" y="1" width="60" height="60" fill="none" stroke="none" pointer-events="all"/><path d="M 350 1 C 370.6 1.7 387.21 2.55 410 1 M 350 1 C 371.88 0.25 391.3 0.24 410 1 M 410 1 C 409.36 19.23 411 37.9 410 61 M 410 1 C 409.59 19.73 409.62 36.62 410 61 M 410 61 C 397.71 59.46 385.26 61.52 350 61 M 410 61 C 393.12 61.35 378.52 60.67 350 61 M 350 61 C 349.53 40 349.68 14.23 350 1 M 350 61 C 349.17 40.43 349.81 19.11 350 1" fill="none" stroke="#324ab2" stroke-width="2" stroke-linejoin="round" stroke-linecap="round" stroke-miterlimit="10" pointer-events="all"/><g fill="#324AB2" font-family="Ink Free" font-weight="bold" text-anchor="middle" font-size="17px"><text x="379.5" y="35.5">P3</text></g><rect x="250" y="1" width="100" height="60" fill="none" stroke="none" pointer-events="all"/><path d="M 250 1 C 280.94 0.94 311.82 2.19 350 1 M 250 1 C 278.64 1.55 309.56 1.98 350 1 M 350 1 C 347.74 23.79 351.09 44.01 350 61 M 350 1 C 350.25 16.3 350.08 31.78 350 61 M 350 61 C 315.88 61.82 282.78 58.87 250 61 M 350 61 C 314.61 61.87 279.06 60.96 250 61 M 250 61 C 250.15 47.08 251.36 28.04 250 1 M 250 61 C 250.55 46.08 249.52 30.26 250 1" fill="none" stroke="#324ab2" stroke-width="2" stroke-linejoin="round" stroke-linecap="round" stroke-miterlimit="10" pointer-events="all"/><g fill="#324AB2" font-family="Ink Free" font-weight="bold" text-anchor="middle" font-size="17px"><text x="299.5" y="35.5">P5</text></g><rect x="440" y="71" width="25" height="20" fill="none" stroke="none" pointer-events="all"/><g fill="#324AB2" font-family="Ink Free" font-weight="bold" text-anchor="middle" font-size="17px"><text x="452" y="85.5">22</text></g><rect x="240" y="71" width="25" height="20" fill="none" stroke="none" pointer-events="all"/><g fill="#324AB2" font-family="Ink Free" font-weight="bold" text-anchor="middle" font-size="17px"><text x="252" y="85.5">12</text></g></g></svg>