<?xml version="1.0" encoding="UTF-8"?>
<!DOCTYPE svg PUBLIC "-//W3C//DTD SVG 1.1//EN" "http://www.w3.org/Graphics/SVG/1.1/DTD/svg11.dtd">
<svg xmlns="http://www.w3.org/2000/svg" xmlns:xlink="http://www.w3.org/1999/xlink" version="1.1" width="546px" height="92px" viewBox="-0.5 -0.5 546 92"><defs/><g><rect x="110" y="1" width="100" height="60" fill="none" stroke="none" pointer-events="all"/><path d="M 110 1 C 150.09 2.69 188.22 0.05 210 1 M 110 1 C 150.18 0.99 189.39 0.59 210 1 M 210 1 C 210.24 16.15 212.19 30.76 210 61 M 210 1 C 210.08 15.86 209.51 33.06 210 61 M 210 61 C 189.47 59.89 167.2 59.27 110 61 M 210 61 C 183.09 60.6 156.09 59.82 110 61 M 110 61 C 109.9 44.6 110.19 24.54 110 1 M 110 61 C 109.59 45.03 109.49 27.56 110 1" fill="none" stroke="#324ab2" stroke-width="2" stroke-linejoin="round" stroke-linecap="round" stroke-miterlimit="10" pointer-events="all"/><g fill="#324AB2" font-family="Ink Free" font-weight="bold" text-anchor="middle" font-size="17px"><text x="159.5" y="35.5">P4</text></g><rect x="0" y="71" width="25" height="20" fill="none" stroke="none" pointer-events="all"/><g fill="#324AB2" font-family="Ink Free" font-weight="bold" text-anchor="middle" font-size="17px"><text x="12" y="85.5">0</text></g><rect x="10" y="1" width="20" height="60" fill="none" stroke="none" pointer-events="all"/><path d="M 10 1 C 16.45 -0.07 22.57 0.54 30 1 M 10 1 C 14.02 1.56 18.14 1.77 30 1 M 30 1 C 31.07 19.72 29.7 37.17 30 61 M 30 1 C 29.4 19.93 29.4 38.58 30 61 M 30 61 C 26.13 59.37 19.21 62.49 10 61 M 30 61 C 23.07 60.01 15.4 60.26 10 61 M 10 61 C 8.62 46.86 11.4 36.26 10 1 M 10 61 C 10.54 47.93 9.65 36.58 10 1" fill="none" stroke="#324ab2" stroke-width="2" stroke-linejoin="round" stroke-linecap="round" stroke-miterlimit="10" pointer-events="all"/><g fill="#324AB2" font-family="Ink Free" font-weight="bold" text-anchor="middle" font-size="17px"><text x="19.5" y="35.5">1</text></g><rect x="210" y="1" width="140" height="60" fill="none" stroke="none" pointer-events="all"/><path d="M 210 1 C 247.5 -0.99 284.63 -0.18 350 1 M 210 1 C 252.48 1.85 293.43 1.27 350 1 M 350 1 C 350.26 24.01 347.75 42.22 350 61 M 350 1 C 350.74 18.21 349.63 35.17 350 61 M 350 61 C 321.13 59.61 291.79 60.23 210 61 M 350 61 C 317.88 59.96 284.8 61.1 210 61 M 210 61 C 210.33 38.4 209.64 17.16 210 1 M 210 61 C 209.83 38.76 211.11 18.15 210 1" fill="none" stroke="#324ab2" stroke-width="2" stroke-linejoin="round" stroke-linecap="round" stroke-miterlimit="10" pointer-events="all"/><g fill="#324AB2" font-family="Ink Free" font-weight="bold" text-anchor="middle" font-size="17px"><text x="279.5" y="35.5">P1</text></g><rect x="30" y="1" width="80" height="60" fill="none" stroke="none" pointer-events="all"/><path d="M 30 1 C 50.26 2.63 74.12 -0.35 110 1 M 30 1 C 59.53 1.48 89.9 0.12 110 1 M 110 1 C 110.64 24.29 110.99 47.28 110 61 M 110 1 C 110.07 16.5 109.86 31.75 110 61 M 110 61 C 80.18 61.35 52.48 59.47 30 61 M 110 61 C 87.66 60.37 66.13 60.4 30 61 M 30 61 C 29.24 41.94 29.08 26.06 30 1 M 30 61 C 29.92 41.59 29.37 23.73 30 1" fill="none" stroke="#324ab2" stroke-width="2" stroke-linejoin="round" stroke-linecap="round" stroke-miterlimit="10" pointer-events="all"/><g fill="#324AB2" font-family="Ink Free" font-weight="bold" text-anchor="middle" font-size="17px"><text x="69.5" y="35.5">P2</text></g><rect x="100" y="71" width="25" height="20" fill="none" stroke="none" pointer-events="all"/><g fill="#324AB2" font-family="Ink Free" font-weight="bold" text-anchor="middle" font-size="17px"><text x="112" y="85.5">5</text></g><rect x="200" y="71" width="25" height="20" fill="none" stroke="none" pointer-events="all"/><g fill="#324AB2" font-family="Ink Free" font-weight="bold" text-anchor="middle" font-size="17px"><text x="212" y="85.5">10</text></g><rect x="520" y="71" width="25" height="20" fill="none" stroke="none" pointer-events="all"/><g fill="#324AB2" font-family="Ink Free" font-weight="bold" text-anchor="middle" font-size="17px"><text x="532" y="85.5">26</text></g><rect x="340" y="71" width="25" height="20" fill="none" stroke="none" pointer-events="all"/><g fill="#324AB2" font-family="Ink Free" font-weight="bold" text-anchor="middle" font-size="17px"><text x="352" y="85.5">17</text></g><rect x="350" y="1" width="180" height="60" fill="none" stroke="none" pointer-events="all"/><path d="M 350 1 C 408.47 0.86 462.95 1.71 530 1 M 350 1 C 413.77 0.48 475.06 0.47 530 1 M 530 1 C 529.36 19.23 531 37.9 530 61 M 530 1 C 529.59 19.73 529.62 36.62 530 61 M 530 61 C 492.79 58.67 455.43 60.73 350 61 M 530 61 C 480.67 60.86 433.62 60.18 350 61 M 350 61 C 349.53 40 349.68 14.23 350 1 M 350 61 C 349.17 40.43 349.81 19.11 350 1" fill="none" stroke="#324ab2" stroke-width="2" stroke-linejoin="round" stroke-linecap="round" stroke-miterlimit="10" pointer-events="all"/><g fill="#324AB2" font-family="Ink Free" font-weight="bold" text-anchor="middle" font-size="17px"><text x="439.5" y="35.5">P4</text></g></g></svg>