<?xml version="1.0" encoding="UTF-8"?>
<!DOCTYPE svg PUBLIC "-//W3C//DTD SVG 1.1//EN" "http://www.w3.org/Graphics/SVG/1.1/DTD/svg11.dtd">
<svg xmlns="http://www.w3.org/2000/svg" xmlns:xlink="http://www.w3.org/1999/xlink" version="1.1" width="672px" height="712px" viewBox="-0.5 -0.5 672 712"><defs><style type="text/css">@font-face {&#xa;font-family: "Ink Free";&#xa;src: url("https://ull-esit-sistemas-operativos.github.io/ssoo-apuntes/fonts/InkFree.woff");&#xa;}&#xa;</style></defs><g><rect x="310" y="650.5" width="190" height="41" fill="none" stroke="none" pointer-events="all"/><path d="M 310.16 650.31 C 310.16 650.31 310.16 650.31 310.16 650.31 M 310.16 650.31 C 310.16 650.31 310.16 650.31 310.16 650.31 M 310.3 662.35 C 313.9 657.71 318.19 655.68 320.79 650.28 M 310.3 662.35 C 313.34 660.45 314.23 657.36 320.79 650.28 M 309.77 675.15 C 318.39 665.2 327.32 654.93 331.42 650.24 M 309.77 675.15 C 315.03 668.62 319.85 662.05 331.42 650.24 M 309.91 687.19 C 323.85 671.08 333.07 659.09 342.05 650.21 M 309.91 687.19 C 322.4 674.39 333.02 659.61 342.05 650.21 M 313.98 694.7 C 325.46 677.77 338.79 664.71 352.68 650.18 M 313.98 694.7 C 329.48 677.31 343.37 660.65 352.68 650.18 M 324.61 694.67 C 334 681.98 345.08 668.85 363.31 650.14 M 324.61 694.67 C 339.08 677.63 355.47 659.13 363.31 650.14 M 335.24 694.63 C 347.81 680.48 357.41 667.15 373.29 650.86 M 335.24 694.63 C 346.12 681.7 356.09 669.22 373.29 650.86 M 345.87 694.6 C 358.74 679.7 368.94 669.71 383.92 650.83 M 345.87 694.6 C 354.4 684.89 360.87 676.04 383.92 650.83 M 356.5 694.57 C 370.03 680.79 380.62 664.85 394.55 650.79 M 356.5 694.57 C 368.04 681.21 380.57 666.44 394.55 650.79 M 367.13 694.53 C 383.37 678.79 395.06 660.61 405.18 650.76 M 367.13 694.53 C 377.18 684.37 386.07 673.02 405.18 650.76 M 377.76 694.5 C 384.37 684.63 395.94 674.59 415.81 650.72 M 377.76 694.5 C 387.99 683.2 397.33 670.54 415.81 650.72 M 387.73 695.22 C 397.78 682.64 407.17 673.82 426.44 650.69 M 387.73 695.22 C 400.22 680.26 414.31 664.09 426.44 650.69 M 398.36 695.18 C 415.87 677.57 428.48 661.04 437.07 650.65 M 398.36 695.18 C 408.11 683.37 420.12 670.01 437.07 650.65 M 408.99 695.15 C 426.08 676.23 440.86 661.28 447.7 650.62 M 408.99 695.15 C 418.52 683.23 428.92 674.45 447.7 650.62 M 419.62 695.11 C 435.06 677.54 450.9 659.79 458.33 650.59 M 419.62 695.11 C 427.03 685.65 435.43 677.34 458.33 650.59 M 430.25 695.08 C 444.79 677.38 457.45 659.8 468.96 650.55 M 430.25 695.08 C 443.61 680.3 455.65 666.06 468.96 650.55 M 440.88 695.04 C 452.2 683.18 460.68 671.1 479.59 650.52 M 440.88 695.04 C 449.07 684.38 457.64 675 479.59 650.52 M 451.51 695.01 C 462.69 682.44 476.85 667.16 490.22 650.48 M 451.51 695.01 C 462.12 681.85 474.24 669.33 490.22 650.48 M 462.14 694.98 C 474.08 678.77 488.46 663.02 500.19 651.2 M 462.14 694.98 C 470.47 684.65 479.33 675.93 500.19 651.2 M 472.77 694.94 C 482.01 682.05 495.42 672.77 500.32 663.24 M 472.77 694.94 C 480.81 686.72 487.31 678.45 500.32 663.24 M 483.4 694.91 C 488.4 685.87 496.62 682.02 500.46 675.28 M 483.4 694.91 C 487.4 691.49 489.22 686.42 500.46 675.28 M 494.03 694.87 C 495.01 693.03 497.83 690.67 500.59 687.32 M 494.03 694.87 C 495.91 692.56 497.34 691.37 500.59 687.32" fill="none" stroke="#c2bee6" stroke-linejoin="round" stroke-linecap="round" stroke-miterlimit="10" pointer-events="all"/><path d="M 310 650.5 C 377.26 649.98 447.35 649.53 500 650.5 M 310 650.5 C 356.17 649.32 402.3 649.84 500 650.5 M 500 650.5 C 500.05 660.24 499.99 671.8 500 691.5 M 500 650.5 C 500.75 662.86 499.41 675.45 500 691.5 M 500 691.5 C 429.43 689.47 360.12 691.07 310 691.5 M 500 691.5 C 424.63 694.14 350.47 692.9 310 691.5 M 310 691.5 C 308.84 681.24 309.35 669.38 310 650.5 M 310 691.5 C 309.75 680.83 310.83 670.57 310 650.5" fill="none" stroke="#324ab2" stroke-width="2" stroke-linejoin="round" stroke-linecap="round" stroke-miterlimit="10" pointer-events="all"/><rect x="485" y="60" width="185" height="250" fill="none" stroke="none" pointer-events="all"/><path d="M 485 60 C 536.67 56.91 590.85 58.46 670 60 M 485 60 C 546.33 62.2 608.37 61.52 670 60 M 670 60 C 669.07 142.98 668.24 224.58 670 310 M 670 60 C 671.12 136.85 671.52 215.12 670 310 M 670 310 C 601.13 309.67 533.17 311.37 485 310 M 670 310 C 606.45 311.07 543.31 310.25 485 310 M 485 310 C 483.72 235.91 483.55 161.46 485 60 M 485 310 C 486.89 216.47 485.66 122.94 485 60" fill="none" stroke="#324ab2" stroke-width="2" stroke-linejoin="round" stroke-linecap="round" stroke-miterlimit="10" pointer-events="all"/><rect x="495" y="110" width="165" height="191" fill="none" stroke="none" pointer-events="all"/><path d="M 494.97 110.03 C 494.97 110.03 494.97 110.03 494.97 110.03 M 494.97 110.03 C 494.97 110.03 494.97 110.03 494.97 110.03 M 495.1 122.07 C 496.77 118.1 498.42 117.4 505.6 110 M 495.1 122.07 C 497.4 117.89 501.68 114.66 505.6 110 M 495.24 134.12 C 502 125.72 511.73 115.95 516.23 109.96 M 495.24 134.12 C 501.89 124.54 510.55 115.79 516.23 109.96 M 494.71 146.91 C 503.36 133.03 514.75 122.49 526.86 109.93 M 494.71 146.91 C 502.16 137.49 509.73 128.85 526.86 109.93 M 494.85 158.95 C 512.64 140.08 525.85 119.83 537.49 109.9 M 494.85 158.95 C 511.31 139.79 526.74 121.07 537.49 109.9 M 494.98 170.99 C 509.41 153.47 521.9 139.78 548.12 109.86 M 494.98 170.99 C 506.83 158.98 518.13 145.35 548.12 109.86 M 495.11 183.03 C 521.19 154.99 543.55 127.77 558.75 109.83 M 495.11 183.03 C 519.85 154.89 543.53 127.38 558.75 109.83 M 495.25 195.07 C 519.57 170.2 542.03 144.14 569.38 109.79 M 495.25 195.07 C 513.66 172.74 531.37 152.66 569.38 109.79 M 494.72 207.87 C 526.49 167.7 560.61 130.25 580.01 109.76 M 494.72 207.87 C 515.21 183.74 537.72 157.35 580.01 109.76 M 494.86 219.91 C 525.93 183.79 558.46 148.2 590.64 109.72 M 494.86 219.91 C 524.74 186.84 554.02 152.98 590.64 109.72 M 494.99 231.95 C 522.28 202.17 547.45 172.25 601.27 109.69 M 494.99 231.95 C 531.34 190.79 568.91 148.44 601.27 109.69 M 495.12 243.99 C 531.34 201.55 573.42 154.96 611.9 109.65 M 495.12 243.99 C 538.14 193.08 583.09 143.73 611.9 109.65 M 495.26 256.03 C 542.39 200.96 591.21 146.86 621.88 110.37 M 495.26 256.03 C 526.91 221.66 555.73 186.7 621.88 110.37 M 494.73 268.83 C 533.42 223.05 576.92 178.37 632.51 110.34 M 494.73 268.83 C 547.96 206.85 600.95 144.26 632.51 110.34 M 494.87 280.87 C 548.45 217.37 604.34 157.19 643.14 110.31 M 494.87 280.87 C 540.61 226.86 587.87 171.66 643.14 110.31 M 495 292.91 C 542.62 238.82 588.79 186.74 653.77 110.27 M 495 292.91 C 541.82 239.08 588.83 183.62 653.77 110.27 M 497.1 302.69 C 539.71 254.34 579.29 210.06 662.43 112.5 M 497.1 302.69 C 537.48 257.15 577.04 210.81 662.43 112.5 M 507.73 302.65 C 565.21 237.61 621.38 171.78 662.56 124.54 M 507.73 302.65 C 541.71 266.05 572.2 228.73 662.56 124.54 M 518.36 302.62 C 573.55 238 629.29 174.16 662.69 136.58 M 518.36 302.62 C 556.02 258.87 593.06 215.54 662.69 136.58 M 528.99 302.58 C 570.38 253.85 609.19 210.1 662.83 148.62 M 528.99 302.58 C 560.69 265.03 591.06 230.18 662.83 148.62 M 539.62 302.55 C 565.78 273.11 590.69 243.6 662.3 161.42 M 539.62 302.55 C 578.14 257.82 616.75 213.94 662.3 161.42 M 550.25 302.51 C 575.81 273.75 602.01 243.08 662.44 173.46 M 550.25 302.51 C 576.98 271.52 602.86 242.65 662.44 173.46 M 560.88 302.48 C 586.67 268.52 613.6 238.7 662.57 185.5 M 560.88 302.48 C 589.84 269.58 620.84 235.07 662.57 185.5 M 571.51 302.45 C 608.33 263.13 641.39 224.55 662.7 197.54 M 571.51 302.45 C 599.5 269.38 626.29 238.88 662.7 197.54 M 582.14 302.41 C 611.57 267.24 639.35 235.95 662.84 209.58 M 582.14 302.41 C 599.19 282.19 617.62 262.81 662.84 209.58 M 592.12 303.13 C 606.82 285.21 622.07 269.02 662.31 222.38 M 592.12 303.13 C 610.46 283.36 628.9 261.44 662.31 222.38 M 602.75 303.1 C 613.82 289.38 628.16 273.96 662.45 234.42 M 602.75 303.1 C 616.92 287.37 632.17 270.88 662.45 234.42 M 613.38 303.06 C 624.73 290.01 634.22 277.43 662.58 246.46 M 613.38 303.06 C 630.74 281.73 649.77 260.1 662.58 246.46 M 624.01 303.03 C 634.01 291.26 641.19 282.86 662.71 258.5 M 624.01 303.03 C 633.71 293.45 642.88 282.41 662.71 258.5 M 634.64 302.99 C 645.44 292.3 651.87 282.85 662.85 270.54 M 634.64 302.99 C 640.23 295.92 647.09 287.77 662.85 270.54 M 645.27 302.96 C 649.1 295.63 654.55 290.62 662.32 283.34 M 645.27 302.96 C 650.4 297.95 653.55 294.18 662.32 283.34 M 655.9 302.92 C 657.48 300.9 659.48 298.32 662.46 295.38 M 655.9 302.92 C 656.93 300.99 659.22 299.64 662.46 295.38" fill="none" stroke="#c2bee6" stroke-linejoin="round" stroke-linecap="round" stroke-miterlimit="10" pointer-events="all"/><path d="M 495 110 C 555.97 111.6 615.83 111.62 660 110 M 495 110 C 553.24 109.78 608.67 110.55 660 110 M 660 110 C 658.37 165.46 656.75 220.49 660 301 M 660 110 C 659.54 154.74 660.33 198.21 660 301 M 660 301 C 608.24 303.04 556.5 299.76 495 301 M 660 301 C 600.37 300.11 539.73 300.15 495 301 M 495 301 C 495.61 249.91 493.51 201.34 495 110 M 495 301 C 494.98 229.47 496.42 159.47 495 110" fill="none" stroke="#324ab2" stroke-width="2" stroke-linejoin="round" stroke-linecap="round" stroke-miterlimit="10" pointer-events="all"/><rect x="495" y="70" width="165" height="40" fill="none" stroke="none" pointer-events="all"/><path d="M 495 70 C 544.31 72.83 592.22 69.78 660 70 M 495 70 C 547.41 71.05 599.39 70.72 660 70 M 660 70 C 660.36 77.64 658.76 86.11 660 110 M 660 70 C 660.5 85.11 660.29 99.92 660 110 M 660 110 C 610.4 109.36 565.95 110.57 495 110 M 660 110 C 623.8 109.64 588.68 108.15 495 110 M 495 110 C 494.21 99.22 496.42 86.52 495 70 M 495 110 C 495.64 97.64 495.63 83.51 495 70" fill="none" stroke="#324ab2" stroke-width="2" stroke-linejoin="round" stroke-linecap="round" stroke-miterlimit="10" pointer-events="all"/><g fill="#324AB2" font-family="Ink Free" font-weight="bold" text-anchor="middle" font-size="17px"><text x="577" y="94.5">Sistema Operativo</text></g><rect x="495" y="261" width="165" height="39" fill="none" stroke="none" pointer-events="all"/><path d="M 493.91 260.94 L 659.92 261.43 L 658.5 299.87 L 495.66 301.09" fill="#ffffff" stroke="none" pointer-events="all"/><path d="M 495 261 C 543.17 260.81 589.9 261.96 660 261 M 495 261 C 558.48 261.27 623.92 262.16 660 261 M 660 261 C 659.7 271.97 660.96 280.25 660 300 M 660 261 C 659.8 274.53 660.49 289.77 660 300 M 660 300 C 620.14 300.79 576.02 299.49 495 300 M 660 300 C 616.3 300.11 573.44 299.51 495 300 M 495 300 C 496.99 291.79 495.72 283.48 495 261 M 495 300 C 494.7 289.77 494.86 279.69 495 261" fill="none" stroke="#324ab2" stroke-width="2" stroke-linejoin="round" stroke-linecap="round" stroke-miterlimit="10" pointer-events="all"/><g fill="#324AB2" font-family="Ink Free" font-weight="bold" text-anchor="middle" font-size="17px"><text x="577" y="285">Trabajo 1</text></g><rect x="495" y="211" width="165" height="50" fill="none" stroke="none" pointer-events="all"/><path d="M 494.67 209.54 L 661.86 212.12 L 661.77 260.24 L 495.68 261.04" fill="#ffffff" stroke="none" pointer-events="all"/><path d="M 495 211 C 554.78 211.82 618.93 212.08 660 211 M 495 211 C 557.55 212.08 618.5 211.38 660 211 M 660 211 C 658.45 228.48 658.88 242.71 660 261 M 660 211 C 660.54 229.61 660.1 247.74 660 261 M 660 261 C 608.18 261.31 555.16 262.26 495 261 M 660 261 C 626.29 262.22 591.03 261.12 495 261 M 495 261 C 493.69 248.64 493.28 232.83 495 211 M 495 261 C 495.37 246.08 495.37 230.38 495 211" fill="none" stroke="#324ab2" stroke-width="2" stroke-linejoin="round" stroke-linecap="round" stroke-miterlimit="10" pointer-events="all"/><g fill="#324AB2" font-family="Ink Free" font-weight="bold" text-anchor="middle" font-size="17px"><text x="577" y="240.5">Trabajo 2</text></g><rect x="495" y="111" width="165" height="50" fill="none" stroke="none" pointer-events="all"/><path d="M 493.72 110 L 658.09 111.55 L 661.42 161.29 L 494.87 161.01" fill="#ffffff" stroke="none" pointer-events="all"/><path d="M 495 111 C 556.49 109.08 618.3 109.74 660 111 M 495 111 C 548.7 110.52 601.56 110.25 660 111 M 660 111 C 660.97 122.34 659.12 131.41 660 161 M 660 111 C 659.17 126.67 660.52 143.9 660 161 M 660 161 C 619.66 160.17 583.3 160.11 495 161 M 660 161 C 613.27 161.16 564.56 161.84 495 161 M 495 161 C 495.38 144.53 496.03 128.26 495 111 M 495 161 C 494.73 150.76 495.07 139.6 495 111" fill="none" stroke="#324ab2" stroke-width="2" stroke-linejoin="round" stroke-linecap="round" stroke-miterlimit="10" pointer-events="all"/><g fill="#324AB2" font-family="Ink Free" font-weight="bold" text-anchor="middle" font-size="17px"><text x="577" y="140.5">Trabajo 4</text></g><rect x="410" y="290" width="75" height="20" fill="none" stroke="none" pointer-events="all"/><g fill="#324AB2" font-family="Ink Free" font-weight="bold" text-anchor="end" font-size="17px"><text x="472.5" y="304.5">0x0000</text></g><rect x="410" y="60" width="75" height="20" fill="none" stroke="none" pointer-events="all"/><g fill="#324AB2" font-family="Ink Free" font-weight="bold" text-anchor="end" font-size="17px"><text x="472.5" y="74.5">MAX.</text></g><path d="M 160 136 C 160 162 320 162 320 136" fill="none" stroke="none" pointer-events="all"/><path d="M 160 149 C 160 175 320 175 320 149" fill="none" stroke="none" pointer-events="all"/><path d="M 160 162 C 160 188 320 188 320 162" fill="none" stroke="none" pointer-events="all"/><path d="M 160 136 C 160 101.33 320 101.33 320 136 L 320 284 C 320 318.67 160 318.67 160 284 Z" fill="none" stroke="none" pointer-events="all"/><path d="M 158.49 134.41 L 162.75 128.02 L 178.57 117.83 L 196.1 115.25 L 224.16 111.13 L 253.77 109.92 L 281.58 114.47 L 304.33 121.63 L 317.99 127.21 L 321.83 134.49 L 319.35 285.79 L 316.5 292.58 L 306.97 298.39 L 284.64 304.91 L 238.31 311.97 L 196.93 304.79 L 173.36 300.73 L 162.09 291.88 L 158.47 283.26 L 159.48 134.14" fill="#ffffff" stroke="none" pointer-events="all"/><path d="M 160 136 M 160 136 C 158.17 99.56 320 103.03 320 136 M 160 136 C 160.27 99.11 319.07 103.46 320 136 M 320 136 C 319.03 178.89 321.52 219.02 320 284 M 320 136 C 319.53 174.61 320.46 211.19 320 284 M 320 284 C 321.36 316.69 160.1 320.15 160 284 M 320 284 C 319.08 316.68 161.78 320.26 160 284 M 160 284 C 159.75 247.29 160.84 211.84 160 136 M 160 284 C 160.76 235.91 161.26 188.71 160 136" fill="none" stroke="#324ab2" stroke-width="2" stroke-linejoin="round" stroke-linecap="round" stroke-miterlimit="10" pointer-events="all"/><path d="M 160 136 M 160 136 C 158.49 160.41 318.79 162.86 320 136 M 160 136 C 158.79 161.55 318.84 163.84 320 136 M 160 136 M 160 136 C 159.08 162.73 318.85 161.52 320 136 M 160 136 C 158.5 162.93 318.96 163.69 320 136 M 160 136 M 160 136 C 161.95 162.05 321.83 160.49 320 136 M 160 136 C 159.25 164.06 320.52 161.7 320 136" fill="none" stroke="#324ab2" stroke-width="2" stroke-linejoin="round" stroke-linecap="round" stroke-miterlimit="10" pointer-events="all"/><path d="M 180 251 L 180 183 L 300 183 L 300 251 Z" fill="none" stroke="none" pointer-events="all"/><path d="M 180 251 L 180 246.36 L 300 246.36 L 300 251 Z" fill="none" stroke="none" pointer-events="all"/><rect x="180" y="183" width="0" height="0" fill="none" stroke="none" pointer-events="all"/><path d="M 274.04 225.78 L 274.04 205.03 L 285 215.39 Z M 253.78 239.34 L 253.78 191.45 L 266.57 191.45 L 266.57 239.34 Z M 233.5 239.34 L 233.5 191.45 L 246.28 191.45 L 246.28 239.34 Z M 213.24 239.34 L 213.24 191.45 L 226.02 191.45 L 226.02 239.34 Z M 194.78 225.78 L 194.78 205.03 L 205.74 215.39 Z" fill="none" stroke="none" pointer-events="all"/><path d="M 179.81 183.22 C 179.81 183.22 179.81 183.22 179.81 183.22 M 179.81 183.22 C 179.81 183.22 179.81 183.22 179.81 183.22 M 179.94 195.26 C 182.89 189.89 186.43 188.24 190.44 183.19 M 179.94 195.26 C 182.9 191.7 186.32 187.25 190.44 183.19 M 180.07 207.3 C 188.22 199.93 193.72 190.29 201.07 183.15 M 180.07 207.3 C 187.35 198.58 193.74 190.34 201.07 183.15 M 180.21 219.34 C 191.5 204.53 204.36 190.73 211.7 183.12 M 180.21 219.34 C 186.73 212.13 193.21 202.91 211.7 183.12 M 179.69 232.14 C 190.25 222.2 198.82 210.24 222.33 183.08 M 179.69 232.14 C 196.1 212.77 214.46 192.55 222.33 183.08 M 179.82 244.18 C 190.93 230.12 201.55 218.69 232.96 183.05 M 179.82 244.18 C 193 229.09 206.92 213.22 232.96 183.05 M 182.58 253.2 C 194.86 234.64 211.76 218.13 243.59 183.01 M 182.58 253.2 C 197.28 236.59 212.01 219.18 243.59 183.01 M 193.21 253.17 C 210.5 235.66 226.9 218.25 254.22 182.98 M 193.21 253.17 C 215.7 227.76 237.06 202.7 254.22 182.98 M 203.84 253.13 C 224.1 230.07 242.56 209.29 264.85 182.94 M 203.84 253.13 C 223.08 231.54 241.95 208.23 264.85 182.94 M 214.47 253.1 C 226.66 236.92 239.06 223.07 275.48 182.91 M 214.47 253.1 C 235.32 229.5 256.19 203.14 275.48 182.91 M 225.1 253.06 C 245.92 230.37 266.18 205.44 286.11 182.88 M 225.1 253.06 C 248.4 226.17 272.9 200.67 286.11 182.88 M 235.73 253.03 C 259.16 228.37 278.81 202.14 296.74 182.84 M 235.73 253.03 C 252.56 234.07 269.02 216.6 296.74 182.84 M 246.36 252.99 C 267.7 226.99 293.58 200.09 304.09 186.58 M 246.36 252.99 C 264.66 232.18 282.94 209.56 304.09 186.58 M 256.99 252.96 C 277.27 232.4 293.74 209.1 304.22 198.62 M 256.99 252.96 C 268.97 241.48 280.18 228.05 304.22 198.62 M 267.62 252.93 C 276.24 240.01 285.4 232.01 304.36 210.66 M 267.62 252.93 C 278.52 238.99 289.6 227.5 304.36 210.66 M 278.25 252.89 C 285.53 245.48 291.19 239.64 303.83 223.46 M 278.25 252.89 C 283.22 247.42 288.84 239.7 303.83 223.46 M 288.88 252.86 C 292.78 247.72 299.98 241.1 303.97 235.5 M 288.88 252.86 C 293.39 247.8 296.26 244.14 303.97 235.5" fill="none" stroke="#f8cecc" stroke-linejoin="round" stroke-linecap="round" stroke-miterlimit="10" pointer-events="all"/><path d="M 180 251 M 180 251 C 177.82 234.61 179.83 223.06 180 183 M 180 251 C 178.56 234.18 179.76 215.76 180 183 M 180 183 C 208.68 185.12 238.89 185.7 300 183 M 180 183 C 218.71 182.75 257.42 183.46 300 183 M 300 183 C 298.58 201.66 298.28 220.39 300 251 M 300 183 C 299.91 200.61 301.11 216.56 300 251 M 300 251 C 274.04 250.72 247.52 250.48 180 251 M 300 251 C 266.2 250.73 233.82 249.41 180 251" fill="none" stroke="#324ab2" stroke-width="2" stroke-linejoin="round" stroke-linecap="round" stroke-miterlimit="10" pointer-events="all"/><path d="M 179.69 246.72 C 179.69 246.72 179.69 246.72 179.69 246.72 M 179.69 246.72 C 179.69 246.72 179.69 246.72 179.69 246.72 M 183.76 254.23 C 185.6 250.87 187.81 249.84 190.32 246.68 M 183.76 254.23 C 185.61 252 187.74 249.22 190.32 246.68 M 194.39 254.2 C 197.17 252.05 198.58 248.77 200.95 246.65 M 194.39 254.2 C 196.7 251.35 198.59 248.74 200.95 246.65 M 205.02 254.16 C 207.12 250.83 210.04 247.96 211.58 246.61 M 205.02 254.16 C 206.38 252.81 207.64 250.47 211.58 246.61 M 215.65 254.13 C 217.52 253.04 218.43 250.94 222.21 246.58 M 215.65 254.13 C 217.95 251.35 221.22 248.02 222.21 246.58 M 226.28 254.09 C 227.5 252.19 228.51 251.41 232.84 246.54 M 226.28 254.09 C 227.93 252.22 229.85 250.09 232.84 246.54 M 236.91 254.06 C 237.54 251.45 240.32 249.71 243.47 246.51 M 236.91 254.06 C 238.6 252.49 240.32 250.29 243.47 246.51 M 247.54 254.02 C 249.73 252.37 251.72 250.82 254.1 246.48 M 247.54 254.02 C 250.08 251.4 252.18 248.75 254.1 246.48 M 258.17 253.99 C 260.48 251.08 262.1 249.45 264.73 246.44 M 258.17 253.99 C 260.17 251.88 261.98 248.99 264.73 246.44 M 268.8 253.95 C 269.81 251.71 270.8 250.77 275.36 246.41 M 268.8 253.95 C 270.94 251.67 272.93 248.2 275.36 246.41 M 279.43 253.92 C 281.93 252.1 283.88 249.04 285.99 246.37 M 279.43 253.92 C 281.68 250.79 284.77 248.59 285.99 246.37 M 290.06 253.88 C 293.08 251.1 294.48 247.67 296.62 246.34 M 290.06 253.88 C 292.03 251.61 293.94 250.13 296.62 246.34" fill="none" stroke="#000000" stroke-opacity="0.3" stroke-linejoin="round" stroke-linecap="round" stroke-miterlimit="10" pointer-events="all"/><path d="M 180 251 M 180 251 C 179.61 249.08 180.37 247.06 180 246.36 M 180 251 C 179.95 249.63 179.82 247.9 180 246.36 M 180 246.36 C 228.65 247.33 273.56 245.27 300 246.36 M 180 246.36 C 208.35 247.76 236.41 246.91 300 246.36 M 300 246.36 C 299.76 247.2 299.61 249.18 300 251 M 300 246.36 C 299.8 247.63 299.74 249.42 300 251 M 300 251 C 274.48 251.59 247.13 252.42 180 251 M 300 251 C 274.67 252.1 250.02 250.5 180 251" fill="none" stroke="#324ab2" stroke-opacity="0.3" stroke-width="2" stroke-linejoin="round" stroke-linecap="round" stroke-miterlimit="10" pointer-events="all"/><path d="M 180 183 C 180 183 180 183 180 183 M 180 183 C 180 183 180 183 180 183 M 180 183 C 180 183 180 183 180 183 M 180 183 C 180 183 180 183 180 183 M 180 183 C 180 183 180 183 180 183 M 180 183 C 180 183 180 183 180 183 M 180 183 C 180 183 180 183 180 183 M 180 183 C 180 183 180 183 180 183" fill="none" stroke="#324ab2" stroke-width="2" stroke-linejoin="round" stroke-linecap="round" stroke-miterlimit="10" pointer-events="all"/><path d="M 272.53 224.87 L 273.64 203.6 L 285.88 214.36 L 275.36 226.26" fill="#ffffff" stroke="none" pointer-events="all"/><path d="M 253.4 238.48 L 253.41 191.82 L 268.35 189.99 L 267.07 237.87 L 253.49 238.65" fill="#ffffff" stroke="none" pointer-events="all"/><path d="M 231.67 238.8 L 234.53 192.26 L 247.43 193.34 L 244.93 240.96 L 231.75 240.1" fill="#ffffff" stroke="none" pointer-events="all"/><path d="M 214.01 240.89 L 213.78 192.68 L 226.88 191.07 L 225.41 240.02 L 212.91 239.4" fill="#ffffff" stroke="none" pointer-events="all"/><path d="M 195.23 224.48 L 194.01 203.36 L 207.37 214.5 L 195.64 224.9" fill="#ffffff" stroke="none" pointer-events="all"/><path d="M 274.04 225.78 M 274.04 225.78 C 272.35 221.93 273.53 215.11 274.04 205.03 M 274.04 225.78 C 273.39 218.29 274.1 211.58 274.04 205.03 M 274.04 205.03 C 279.51 208.66 283.24 211.54 285 215.39 M 274.04 205.03 C 277.39 208.59 282.69 212.31 285 215.39 M 285 215.39 C 281.17 219.05 277.8 221.33 274.04 225.78 M 285 215.39 C 281.33 218.84 279.04 220.84 274.04 225.78 M 253.78 239.34 M 253.78 239.34 C 252.33 228.65 255.58 218.63 253.78 191.45 M 253.78 239.34 C 253.08 221.45 253.25 205.67 253.78 191.45 M 253.78 191.45 C 258.74 190.82 263.3 191.77 266.57 191.45 M 253.78 191.45 C 258.09 190.9 261.85 191.51 266.57 191.45 M 266.57 191.45 C 266.79 203.23 265.71 214.66 266.57 239.34 M 266.57 191.45 C 265.39 208.81 265.58 224.94 266.57 239.34 M 266.57 239.34 C 264.23 240.05 259.53 239 253.78 239.34 M 266.57 239.34 C 262.16 239.84 257.52 239.43 253.78 239.34 M 233.5 239.34 M 233.5 239.34 C 235.14 219.52 231.57 201.75 233.5 191.45 M 233.5 239.34 C 233.78 226.87 232.65 217.02 233.5 191.45 M 233.5 191.45 C 236.65 190.9 240.43 192.08 246.28 191.45 M 233.5 191.45 C 237.14 190.84 239.1 190.8 246.28 191.45 M 246.28 191.45 C 247.15 206.32 245.71 217.97 246.28 239.34 M 246.28 191.45 C 246.88 208.7 245.57 227.07 246.28 239.34 M 246.28 239.34 C 241.26 238.11 237.46 239.96 233.5 239.34 M 246.28 239.34 C 241.07 239.44 236.2 239 233.5 239.34 M 213.24 239.34 M 213.24 239.34 C 213.82 227.66 214.87 217.39 213.24 191.45 M 213.24 239.34 C 212.98 228.89 214.62 217.9 213.24 191.45 M 213.24 191.45 C 215.58 191.26 220.66 190.94 226.02 191.45 M 213.24 191.45 C 218.5 191.92 222.99 191.03 226.02 191.45 M 226.02 191.45 C 224.92 207.83 225.62 228.45 226.02 239.34 M 226.02 191.45 C 225.09 202.61 226.32 211.64 226.02 239.34 M 226.02 239.34 C 222.7 240.39 219.5 238.25 213.24 239.34 M 226.02 239.34 C 221.21 239.27 216.5 238.92 213.24 239.34 M 194.78 225.78 M 194.78 225.78 C 195.28 219.39 194.53 211.35 194.78 205.03 M 194.78 225.78 C 194.53 220 194.97 214.58 194.78 205.03 M 194.78 205.03 C 197.01 208.7 201.1 210.39 205.74 215.39 M 194.78 205.03 C 198.61 209.3 203.78 213.41 205.74 215.39 M 205.74 215.39 C 202.46 219.21 199.14 219.62 194.78 225.78 M 205.74 215.39 C 202.79 219.42 198.95 221.96 194.78 225.78" fill="none" stroke="#324ab2" stroke-width="2" stroke-linejoin="round" stroke-linecap="round" stroke-miterlimit="10" pointer-events="all"/><rect x="160" y="321" width="160" height="50" fill="none" stroke="none" transform="translate(240,0)scale(-1,1)translate(-240,0)" pointer-events="all"/><g fill="#324AB2" font-family="Ink Free" font-weight="bold" text-anchor="middle" font-size="17px"><text x="239.5" y="350.5">Disco duro</text></g><rect x="180" y="261" width="120" height="40" fill="none" stroke="none" transform="translate(240,0)scale(-1,1)translate(-240,0)" pointer-events="all"/><g fill="#324AB2" font-family="Ink Free" font-weight="bold" text-anchor="middle" font-size="17px"><text x="239.5" y="275.5">Cola de</text><text x="239.5" y="295.5">trabajos</text></g><path d="M 30 162 L 120 162 L 120 141 L 180 176 L 120 211 L 120 190 L 30 190 Z" fill="none" stroke="none" transform="rotate(15,105,176)" pointer-events="all"/><path d="M 29.9 162.11 C 29.9 162.11 29.9 162.11 29.9 162.11 M 29.9 162.11 C 29.9 162.11 29.9 162.11 29.9 162.11 M 30.03 174.15 C 34.92 170.41 37.22 165.05 40.53 162.08 M 30.03 174.15 C 33.2 170.22 36.47 166.75 40.53 162.08 M 30.17 186.2 C 36.44 179.1 38.84 173.86 51.16 162.05 M 30.17 186.2 C 35.86 180.09 39.35 173.63 51.16 162.05 M 34.24 193.71 C 42.38 185.17 49.33 177.72 61.79 162.01 M 34.24 193.71 C 42.07 182.95 51.7 174.18 61.79 162.01 M 44.87 193.67 C 52.51 183.15 61.66 178.11 72.42 161.98 M 44.87 193.67 C 54.14 182.56 63.36 171.66 72.42 161.98 M 55.5 193.64 C 64.03 181.94 73.77 173.31 83.05 161.94 M 55.5 193.64 C 65.94 180.49 77.36 169.26 83.05 161.94 M 66.13 193.6 C 74.91 181.93 86.21 170.03 93.68 161.91 M 66.13 193.6 C 77.93 181.18 87.39 168.75 93.68 161.91 M 76.76 193.57 C 87.73 181.84 95.46 171.29 104.31 161.87 M 76.76 193.57 C 84.57 183.04 94.44 173.34 104.31 161.87 M 121.37 142.25 C 121.37 142.25 121.37 142.25 121.37 142.25 M 121.37 142.25 C 121.37 142.25 121.37 142.25 121.37 142.25 M 87.39 193.54 C 94.56 183.26 103.98 176.83 114.94 161.84 M 87.39 193.54 C 96.35 182.23 106.18 172.56 114.94 161.84 M 121.5 154.29 C 124.24 152.02 126.97 148.21 128.72 145.99 M 121.5 154.29 C 123.51 151.51 127.03 147.73 128.72 145.99 M 98.02 193.5 C 105.98 183.59 114.14 172.8 135.41 150.48 M 98.02 193.5 C 108.51 181.85 118.02 170.96 135.41 150.48 M 108.65 193.47 C 115.63 184.84 124.53 174.72 142.76 154.22 M 108.65 193.47 C 116.5 182.59 125.84 173.46 142.76 154.22 M 121.25 191.17 C 131.68 182.24 138.72 171.59 149.46 158.72 M 121.25 191.17 C 127.44 185.21 133.48 177.84 149.46 158.72 M 121.38 203.21 C 133.51 186.65 146.66 171.22 156.81 162.45 M 121.38 203.21 C 133.9 189.19 145.78 174 156.81 162.45 M 122.82 213.74 C 130.88 204.26 139.29 195.22 163.5 166.95 M 122.82 213.74 C 132.78 201.48 143.55 191.22 163.5 166.95 M 144.61 200.88 C 156.2 190.77 166.02 176.5 170.85 170.69 M 144.61 200.88 C 151.9 192.12 160.18 182.6 170.85 170.69 M 165.73 188.77 C 169.16 185.56 174.55 178.9 177.54 175.18 M 165.73 188.77 C 170.22 184.8 173.84 180.41 177.54 175.18" fill="none" stroke="#f8cecc" stroke-linejoin="round" stroke-linecap="round" stroke-miterlimit="10" transform="rotate(15,105,176)" pointer-events="all"/><path d="M 30 162 M 30 162 C 51.84 160.11 76.86 161.98 120 162 M 30 162 C 49.26 161.68 67.61 161.98 120 162 M 120 162 C 118.69 153.07 121.01 148.01 120 141 M 120 162 C 120.11 158.39 119.01 152.26 120 141 M 120 141 C 137.41 154.1 157.69 162.53 180 176 M 120 141 C 138.69 151.12 156.83 163.2 180 176 M 180 176 C 161.75 188.33 141.74 200.75 120 211 M 180 176 C 162.95 185.72 147.25 194.76 120 211 M 120 211 C 120.26 202.09 121.26 195.83 120 190 M 120 211 C 119.6 205.78 120.29 202.48 120 190 M 120 190 C 99.11 188.71 76.07 191.97 30 190 M 120 190 C 87.75 189.62 55.57 191.23 30 190 M 30 190 C 31.05 181.67 31.41 168.91 30 162 M 30 190 C 29.81 178.64 30 168.1 30 162" fill="none" stroke="#324ab2" stroke-width="2" stroke-linejoin="round" stroke-linecap="round" stroke-miterlimit="10" transform="rotate(15,105,176)" pointer-events="all"/><path d="M 30 242 L 120 242 L 120 221 L 180 256 L 120 291 L 120 270 L 30 270 Z" fill="none" stroke="none" transform="rotate(-15,105,256)" pointer-events="all"/><path d="M 29.9 242.11 C 29.9 242.11 29.9 242.11 29.9 242.11 M 29.9 242.11 C 29.9 242.11 29.9 242.11 29.9 242.11 M 30.03 254.15 C 32.74 250.79 35.6 249.55 40.53 242.08 M 30.03 254.15 C 32.3 250.28 36.03 246.93 40.53 242.08 M 30.17 266.2 C 39.24 256.3 47.02 248.65 51.16 242.05 M 30.17 266.2 C 36.13 259.2 41.5 252.64 51.16 242.05 M 34.24 273.71 C 44.99 260.64 56.34 250.55 61.79 242.01 M 34.24 273.71 C 41.71 264.37 48.18 256.97 61.79 242.01 M 44.87 273.67 C 56.61 262.54 64.67 252.85 72.42 241.98 M 44.87 273.67 C 52.25 265.19 58.77 258.4 72.42 241.98 M 55.5 273.64 C 62.53 268.22 70.19 257.82 83.05 241.94 M 55.5 273.64 C 66.28 261.55 75.71 251.81 83.05 241.94 M 66.13 273.6 C 71.36 265.95 76.6 260.73 93.68 241.91 M 66.13 273.6 C 76.78 261.21 86.75 250.44 93.68 241.91 M 76.76 273.57 C 87.99 262.85 93.76 251.56 104.31 241.87 M 76.76 273.57 C 85.84 264.49 92.6 254.88 104.31 241.87 M 121.37 222.25 C 121.37 222.25 121.37 222.25 121.37 222.25 M 121.37 222.25 C 121.37 222.25 121.37 222.25 121.37 222.25 M 87.39 273.54 C 94.26 267.17 97.92 261.72 114.94 241.84 M 87.39 273.54 C 97.09 261.02 106.8 249.97 114.94 241.84 M 121.5 234.29 C 125.22 231 127.65 228.22 128.72 225.99 M 121.5 234.29 C 124.32 230.91 126.77 227.74 128.72 225.99 M 98.02 273.5 C 111.06 255.47 127.98 239.39 135.41 230.48 M 98.02 273.5 C 108.54 263.16 118.44 250.68 135.41 230.48 M 108.65 273.47 C 119.07 262.06 129.64 250.58 142.76 234.22 M 108.65 273.47 C 119.92 261.46 130.85 249.7 142.76 234.22 M 121.25 271.17 C 133.42 260.85 143.55 248.12 149.46 238.72 M 121.25 271.17 C 128.4 262.62 135.36 255.61 149.46 238.72 M 121.38 283.21 C 134.48 267.93 149.55 251.6 156.81 242.45 M 121.38 283.21 C 130.15 273.2 138.38 264.45 156.81 242.45 M 122.82 293.74 C 136.4 280.58 149.06 264.19 163.5 246.95 M 122.82 293.74 C 137.27 276.61 151.98 260.46 163.5 246.95 M 144.61 280.88 C 152.3 270.44 159.62 261.86 170.85 250.69 M 144.61 280.88 C 151.24 271.34 159.73 263.16 170.85 250.69 M 165.73 268.77 C 168.65 265.17 174.43 258.84 177.54 255.18 M 165.73 268.77 C 169.24 266.42 171.49 262.52 177.54 255.18" fill="none" stroke="#f8cecc" stroke-linejoin="round" stroke-linecap="round" stroke-miterlimit="10" transform="rotate(-15,105,256)" pointer-events="all"/><path d="M 30 242 M 30 242 C 57.74 241.38 80.83 241.84 120 242 M 30 242 C 63.08 241.9 97.64 240.9 120 242 M 120 242 C 119.7 235.18 120.16 232.66 120 221 M 120 242 C 120.32 236.26 119.98 232.5 120 221 M 120 221 C 135.78 230.92 153.89 240.21 180 256 M 120 221 C 142.06 234.05 162.12 245.16 180 256 M 180 256 C 163.12 267.69 145.82 274.11 120 291 M 180 256 C 157.17 270.63 134.61 283.55 120 291 M 120 291 C 119.03 284.76 118.19 279.65 120 270 M 120 291 C 120.89 282.59 119.57 275.31 120 270 M 120 270 C 97.47 271.84 71.08 271.06 30 270 M 120 270 C 97.6 269.91 74.25 269.32 30 270 M 30 270 C 28.17 258.07 29.37 248.53 30 242 M 30 270 C 29.55 261.16 29.12 254.48 30 242" fill="none" stroke="#324ab2" stroke-width="2" stroke-linejoin="round" stroke-linecap="round" stroke-miterlimit="10" transform="rotate(-15,105,256)" pointer-events="all"/><rect x="0" y="191" width="100" height="50" fill="none" stroke="none" transform="translate(50,0)scale(-1,1)translate(-50,0)" pointer-events="all"/><g fill="#324AB2" font-family="Ink Free" font-weight="bold" text-anchor="middle" font-size="17px"><text x="49.5" y="210.5">Nuevos</text><text x="49.5" y="230.5">trabajos</text></g><rect x="485" y="321" width="185" height="50" fill="none" stroke="none" transform="translate(577.5,0)scale(-1,1)translate(-577.5,0)" pointer-events="all"/><g fill="#324AB2" font-family="Ink Free" font-weight="bold" text-anchor="middle" font-size="17px"><text x="577" y="350.5">Memoría principal</text></g><path d="M 330 182 L 420 182 L 420 161 L 480 196 L 420 231 L 420 210 L 330 210 Z" fill="none" stroke="none" transform="rotate(-15,405,196)" pointer-events="all"/><path d="M 329.9 182.11 C 329.9 182.11 329.9 182.11 329.9 182.11 M 329.9 182.11 C 329.9 182.11 329.9 182.11 329.9 182.11 M 330.03 194.15 C 332.56 191.7 335.85 185.25 340.53 182.08 M 330.03 194.15 C 332.63 190.72 334.91 188.01 340.53 182.08 M 330.17 206.2 C 336.27 200.38 338.07 194.12 351.16 182.05 M 330.17 206.2 C 335.55 198.35 342.99 191.43 351.16 182.05 M 334.24 213.71 C 341.83 202.75 352.16 196.48 361.79 182.01 M 334.24 213.71 C 340.99 204.71 347.29 197.72 361.79 182.01 M 344.87 213.67 C 352.91 207.24 358.8 196.68 372.42 181.98 M 344.87 213.67 C 354.03 203.76 362.51 193.25 372.42 181.98 M 355.5 213.64 C 364.58 201.5 374.91 187.75 383.05 181.94 M 355.5 213.64 C 361.69 204.81 369.36 197.12 383.05 181.94 M 366.13 213.6 C 371.31 207.13 381.4 199.23 393.68 181.91 M 366.13 213.6 C 376.29 202.81 384.85 193 393.68 181.91 M 376.76 213.57 C 384.95 203.99 393.58 194.3 404.31 181.87 M 376.76 213.57 C 384.48 202.7 393.26 194.06 404.31 181.87 M 421.37 162.25 C 421.37 162.25 421.37 162.25 421.37 162.25 M 421.37 162.25 C 421.37 162.25 421.37 162.25 421.37 162.25 M 387.39 213.54 C 395.69 205 400.98 195.09 414.94 181.84 M 387.39 213.54 C 398.97 201.89 409.02 189.37 414.94 181.84 M 421.5 174.29 C 422.35 172.63 425.98 169.29 428.72 165.99 M 421.5 174.29 C 423.77 171.8 425.5 169.19 428.72 165.99 M 398.02 213.5 C 408.06 200.1 418.58 187.92 435.41 170.48 M 398.02 213.5 C 408.85 201.17 419.92 188.12 435.41 170.48 M 408.65 213.47 C 420.9 197.79 435.06 183.58 442.76 174.22 M 408.65 213.47 C 418.84 202.28 429.89 189.51 442.76 174.22 M 421.25 211.17 C 428.07 204.88 434.86 196.82 449.46 178.72 M 421.25 211.17 C 429.7 201.65 437.08 193.49 449.46 178.72 M 421.38 223.21 C 435.62 206.66 449.39 192.44 456.81 182.45 M 421.38 223.21 C 433.84 208.12 448 193.79 456.81 182.45 M 422.82 233.74 C 437.27 219.21 450.36 204.61 463.5 186.95 M 422.82 233.74 C 434.25 220.14 447.6 205.84 463.5 186.95 M 444.61 220.88 C 454.66 207.99 462.69 199.43 470.85 190.69 M 444.61 220.88 C 452.4 210.93 460.17 202.26 470.85 190.69 M 465.73 208.77 C 469.4 204.5 472.85 200.05 477.54 195.18 M 465.73 208.77 C 470.5 203.76 475.72 198.47 477.54 195.18" fill="none" stroke="#f8cecc" stroke-linejoin="round" stroke-linecap="round" stroke-miterlimit="10" transform="rotate(-15,405,196)" pointer-events="all"/><path d="M 330 182 M 330 182 C 361.18 180.06 392.08 181.33 420 182 M 330 182 C 364.68 181.2 400.29 181.64 420 182 M 420 182 C 419.12 177.73 421.24 172.47 420 161 M 420 182 C 420.73 177.92 419.47 174.07 420 161 M 420 161 C 438.06 173.27 458.06 180.93 480 196 M 420 161 C 432 168.01 446.26 176.88 480 196 M 480 196 C 457.75 207.63 435.99 220.94 420 231 M 480 196 C 460.29 206.91 442.26 219.02 420 231 M 420 231 C 421.08 224.48 422.04 220.57 420 210 M 420 231 C 420.9 226.68 419.15 222 420 210 M 420 210 C 392.43 209.88 366.46 212.19 330 210 M 420 210 C 389.77 210.08 359.05 210.62 330 210 M 330 210 C 331.55 199.25 329.73 189.45 330 182 M 330 210 C 329.49 202.58 329.39 194.7 330 182" fill="none" stroke="#324ab2" stroke-width="2" stroke-linejoin="round" stroke-linecap="round" stroke-miterlimit="10" transform="rotate(-15,405,196)" pointer-events="all"/><g fill="#324AB2" font-family="Ink Free" font-weight="bold" text-anchor="middle" font-size="15px" transform="rotate(-15,405,196)"><text x="404.5" y="202">Trabajo 5</text></g><rect x="495" y="159" width="165" height="51" fill="none" stroke="none" pointer-events="all"/><g fill="#C2BEE6" font-family="Ink Free" font-weight="bold" text-anchor="middle" font-size="17px"><text x="577" y="189">Trabajo 3</text></g><rect x="160" y="1" width="260" height="90" fill="none" stroke="none" pointer-events="all"/><g fill="#324AB2" font-family="Ink Free" font-weight="bold" font-size="17px"><text x="161.5" y="20.5">Cuando el Trabajo 3 termina,</text><text x="161.5" y="40.5">se carga otro desde la cola</text><text x="161.5" y="60.5">de trabajos, en el hueco liberado</text><text x="161.5" y="80.5">en la memoria.</text></g><rect x="140" y="511" width="280" height="60" fill="none" stroke="none" pointer-events="all"/><path d="M 140 511 C 240.45 509.63 342.32 511.17 420 511 M 140 511 C 226.6 511.23 312.11 512.24 420 511 M 420 511 C 420.16 532.56 420.35 552.49 420 571 M 420 511 C 419.95 528.21 419.66 546.52 420 571 M 420 571 C 321.18 569.84 220.54 571.13 140 571 M 420 571 C 310.14 569.88 200.6 568.86 140 571 M 140 571 C 140.31 552.45 138.13 535.3 140 511 M 140 571 C 139.82 552.81 140.24 533.83 140 511" fill="none" stroke="#324ab2" stroke-width="2" stroke-linejoin="round" stroke-linecap="round" stroke-miterlimit="10" pointer-events="all"/><rect x="300" y="641" width="211" height="60" fill="none" stroke="none" pointer-events="all"/><path d="M 300 641 C 376.94 640.46 451.93 639.06 511 641 M 300 641 C 352.28 639.25 405.74 639.04 511 641 M 511 641 C 510.73 655.12 512.65 668.6 511 701 M 511 641 C 511.62 654.78 511.12 669.69 511 701 M 511 701 C 452.09 702.57 392.12 699.65 300 701 M 511 701 C 453.5 701.13 396 699.75 300 701 M 300 701 C 302.13 677.52 301.02 659.1 300 641 M 300 701 C 299.2 688.46 299.96 674.98 300 641" fill="none" stroke="#324ab2" stroke-width="2" stroke-linejoin="round" stroke-linecap="round" stroke-miterlimit="10" pointer-events="all"/><g fill="#324AB2" font-family="Ink Free" font-weight="bold" text-anchor="middle" font-size="17px"><text x="405" y="675.5">Espera de E/S</text></g><path d="M 507.26 541 L 420 541" fill="none" stroke="none" pointer-events="stroke"/><path d="M 517.76 541 L 503.76 548 L 507.26 541 L 503.76 534 Z" fill="none" stroke="none" pointer-events="all"/><path d="M 507.26 541 M 507.26 541 C 476.01 540.17 445.68 539.56 420 541 M 507.26 541 C 484.51 540.44 462.57 540.65 420 541" fill="none" stroke="#324ab2" stroke-width="2" stroke-linejoin="round" stroke-linecap="round" stroke-miterlimit="10" pointer-events="stroke"/><path d="M 503.89 533.84 C 503.89 533.84 503.89 533.84 503.89 533.84 M 503.89 533.84 C 503.89 533.84 503.89 533.84 503.89 533.84 M 507.96 541.36 C 508.61 540.11 509.93 538.78 511.24 537.58 M 507.96 541.36 C 508.58 540.46 509.29 539.9 511.24 537.58" fill="none" stroke="#324ab2" stroke-linejoin="round" stroke-linecap="round" stroke-miterlimit="10" pointer-events="all"/><path d="M 517.76 541 M 517.76 541 C 513.9 541.83 509.69 545.75 503.76 548 M 517.76 541 C 513.1 543.38 508.82 545.95 503.76 548 M 503.76 548 C 505.15 546.77 506.2 543.49 507.26 541 M 503.76 548 C 504.28 546.76 505.37 545.19 507.26 541 M 507.26 541 C 506.02 539.05 506.11 537.96 503.76 534 M 507.26 541 C 506.16 538.61 505.09 536.85 503.76 534 M 503.76 534 C 506.9 534.68 511.13 539.31 517.76 541 M 503.76 534 C 507.4 536.44 509.67 536.45 517.76 541" fill="none" stroke="#324ab2" stroke-width="2" stroke-linejoin="round" stroke-linecap="round" stroke-miterlimit="10" pointer-events="all"/><path d="M 523.74 671 L 560 671 L 560 581" fill="none" stroke="none" pointer-events="stroke"/><path d="M 513.24 671 L 527.24 664 L 523.74 671 L 527.24 678 Z" fill="none" stroke="none" pointer-events="all"/><path d="M 523.74 671 M 523.74 671 C 537.68 670.45 548.45 670.44 560 671 M 523.74 671 C 534.14 671.09 542.49 670.96 560 671 M 560 671 C 562.27 654.9 560.29 635.97 560 581 M 560 671 C 558.82 640.77 559.44 608.03 560 581" fill="none" stroke="#324ab2" stroke-width="2" stroke-linejoin="round" stroke-linecap="round" stroke-miterlimit="10" pointer-events="stroke"/><path d="M 513.49 670.71 C 513.49 670.71 513.49 670.71 513.49 670.71 M 513.49 670.71 C 513.49 670.71 513.49 670.71 513.49 670.71 M 520.84 674.45 C 521.9 674.18 522.06 673.21 524.12 670.68 M 520.84 674.45 C 521.77 673.42 523.07 671.72 524.12 670.68" fill="none" stroke="#324ab2" stroke-linejoin="round" stroke-linecap="round" stroke-miterlimit="10" pointer-events="all"/><path d="M 513.24 671 M 513.24 671 C 515.22 670.65 519.78 668.19 527.24 664 M 513.24 671 C 515.51 670.1 519.28 668.01 527.24 664 M 527.24 664 C 526.33 666.84 524.38 668.22 523.74 671 M 527.24 664 C 526.01 665.98 525.65 667.51 523.74 671 M 523.74 671 C 524.76 673.4 526.11 674.97 527.24 678 M 523.74 671 C 525.34 673.94 526.78 676.53 527.24 678 M 527.24 678 C 521.53 676.11 515.84 672.84 513.24 671 M 527.24 678 C 523.2 676.61 518.89 673.74 513.24 671" fill="none" stroke="#324ab2" stroke-width="2" stroke-linejoin="round" stroke-linecap="round" stroke-miterlimit="10" pointer-events="all"/><ellipse cx="560" cy="541" rx="40" ry="40" fill="none" stroke="none" pointer-events="all"/><path d="M 545.24 501.68 C 552.17 498.44 562.77 498.66 570.52 500.79 C 578.27 502.93 586.75 508.42 591.74 514.47 C 596.72 520.52 599.78 529.22 600.43 537.1 C 601.08 544.98 599.6 554.76 595.65 561.77 C 591.71 568.77 584.03 575.68 576.76 579.11 C 569.49 582.54 559.92 584 552.04 582.35 C 544.16 580.7 535.05 575.31 529.48 569.23 C 523.91 563.15 519.37 553.99 518.6 545.88 C 517.84 537.77 520.7 527.55 524.88 520.58 C 529.07 513.61 539.69 507.4 543.72 504.05 C 547.75 500.71 547.8 501.07 549.04 500.5 C 550.27 499.92 551.18 499.9 551.12 500.6 M 552.19 501.69 C 559.66 499.98 570.08 501.47 577.19 504.76 C 584.29 508.04 590.78 514.81 594.83 521.4 C 598.88 527.98 601.89 536.3 601.47 544.27 C 601.06 552.24 597.48 563.28 592.34 569.24 C 587.19 575.2 578.43 578.12 570.59 580 C 562.75 581.89 552.94 583.36 545.3 580.54 C 537.65 577.73 529.25 570.35 524.71 563.11 C 520.16 555.86 517.3 545.29 518.04 537.08 C 518.77 528.86 523.98 519.6 529.11 513.8 C 534.25 508 545.21 504.57 548.86 502.28 C 552.5 499.99 550.48 500.26 550.96 500.08 C 551.43 499.9 551.39 500.37 551.7 501.18" fill="none" stroke="#324ab2" stroke-width="2" stroke-linejoin="round" stroke-linecap="round" stroke-miterlimit="10" pointer-events="all"/><g fill="#324AB2" font-family="Ink Free" font-weight="bold" text-anchor="middle" font-size="17px"><text x="559.5" y="545.5">T1</text></g><ellipse cx="180" cy="671" rx="40" ry="40" fill="none" stroke="none" pointer-events="all"/><path d="M 186.46 630.11 C 194.15 630.51 202.64 635.28 208.26 640.78 C 213.88 646.27 218.82 655.01 220.17 663.08 C 221.51 671.15 219.72 681.86 216.33 689.19 C 212.95 696.51 206.75 703.27 199.85 707.04 C 192.95 710.81 182.89 712.76 174.95 711.8 C 167.01 710.84 158.08 706.83 152.2 701.29 C 146.32 695.75 141.48 686.58 139.68 678.56 C 137.87 670.55 137.97 660.62 141.37 653.19 C 144.77 645.77 153.07 638.16 160.09 634.01 C 167.12 629.86 178.68 629.02 183.52 628.31 C 188.35 627.6 187.83 629.3 189.09 629.77 C 190.35 630.24 191.2 630.34 191.09 631.13 M 175.4 629.76 C 183.11 628.56 195.09 631.79 202.3 636.02 C 209.52 640.24 215.65 648.05 218.71 655.1 C 221.76 662.15 222.31 670.3 220.64 678.31 C 218.96 686.33 214.85 697.74 208.65 703.2 C 202.46 708.67 191.75 710.18 183.47 711.13 C 175.19 712.07 165.85 712.53 158.96 708.86 C 152.08 705.2 145.56 696.88 142.16 689.12 C 138.76 681.36 137.1 670.51 138.56 662.29 C 140.02 654.07 144.74 645.17 150.91 639.79 C 157.08 634.4 171.25 631.88 175.57 629.96 C 179.88 628.05 176.46 628.09 176.79 628.3 C 177.13 628.51 177.44 630.3 177.59 631.24" fill="none" stroke="#324ab2" stroke-width="2" stroke-linejoin="round" stroke-linecap="round" stroke-miterlimit="10" pointer-events="all"/><g fill="#324AB2" font-family="Ink Free" font-weight="bold" text-anchor="middle" font-size="17px"><text x="179.5" y="675.5">E/S</text></g><path d="M 232.74 671 L 300 671" fill="none" stroke="none" pointer-events="stroke"/><path d="M 222.24 671 L 236.24 664 L 232.74 671 L 236.24 678 Z" fill="none" stroke="none" pointer-events="all"/><path d="M 232.74 671 M 232.74 671 C 259.04 670.09 281.23 671.46 300 671 M 232.74 671 C 245.93 670.7 261.32 671.46 300 671" fill="none" stroke="#324ab2" stroke-width="2" stroke-linejoin="round" stroke-linecap="round" stroke-miterlimit="10" pointer-events="stroke"/><path d="M 222.43 670.78 C 222.43 670.78 222.43 670.78 222.43 670.78 M 222.43 670.78 C 222.43 670.78 222.43 670.78 222.43 670.78 M 229.78 674.52 C 230.81 673.33 231.77 671.79 233.06 670.74 M 229.78 674.52 C 230.83 673.65 231.46 672.24 233.06 670.74" fill="none" stroke="#324ab2" stroke-linejoin="round" stroke-linecap="round" stroke-miterlimit="10" pointer-events="all"/><path d="M 222.24 671 M 222.24 671 C 226.17 668.54 230.94 665.32 236.24 664 M 222.24 671 C 227.25 668.99 230.63 666.14 236.24 664 M 236.24 664 C 235.41 666.61 234.37 668.3 232.74 671 M 236.24 664 C 235.13 666.48 233.86 668.53 232.74 671 M 232.74 671 C 233.29 672.69 235.63 676.14 236.24 678 M 232.74 671 C 233.73 673.32 234.69 674.55 236.24 678 M 236.24 678 C 232.64 675.82 228.62 675.13 222.24 671 M 236.24 678 C 231.05 676.53 227.35 673.04 222.24 671" fill="none" stroke="#324ab2" stroke-width="2" stroke-linejoin="round" stroke-linecap="round" stroke-miterlimit="10" pointer-events="all"/><path d="M 127.26 541 L 100 541 L 100 671 L 140 671" fill="none" stroke="none" pointer-events="stroke"/><path d="M 137.76 541 L 123.76 548 L 127.26 541 L 123.76 534 Z" fill="none" stroke="none" pointer-events="all"/><path d="M 127.26 541 M 127.26 541 C 118.25 539.49 109.11 541.06 100 541 M 127.26 541 C 119.77 541.22 110.86 541.2 100 541 M 100 541 C 99.72 589.75 101.83 641.5 100 671 M 100 541 C 98.84 574.57 98.59 607.98 100 671 M 100 671 C 114.89 672.19 125.45 672.82 140 671 M 100 671 C 114.38 671.22 128.52 671.36 140 671" fill="none" stroke="#324ab2" stroke-width="2" stroke-linejoin="round" stroke-linecap="round" stroke-miterlimit="10" pointer-events="stroke"/><path d="M 123.44 534.37 C 123.44 534.37 123.44 534.37 123.44 534.37 M 123.44 534.37 C 123.44 534.37 123.44 534.37 123.44 534.37 M 128.16 541.13 C 129.16 539.37 130.95 538.37 131.44 537.36 M 128.16 541.13 C 128.93 540.28 129.7 539.41 131.44 537.36" fill="none" stroke="#324ab2" stroke-linejoin="round" stroke-linecap="round" stroke-miterlimit="10" pointer-events="all"/><path d="M 137.76 541 M 137.76 541 C 134.73 544.21 128.3 546.97 123.76 548 M 137.76 541 C 132.56 544.15 127.11 546.81 123.76 548 M 123.76 548 C 124.32 546.75 125.4 545.33 127.26 541 M 123.76 548 C 125.24 545.91 126.34 544.08 127.26 541 M 127.26 541 C 126.53 539.51 125.68 538.18 123.76 534 M 127.26 541 C 126.24 538.67 124.96 535.72 123.76 534 M 123.76 534 C 127.35 538.02 133.23 537.65 137.76 541 M 123.76 534 C 128.29 536.91 132.57 538.07 137.76 541" fill="none" stroke="#324ab2" stroke-width="2" stroke-linejoin="round" stroke-linecap="round" stroke-miterlimit="10" pointer-events="all"/><rect x="370" y="521" width="40" height="40" fill="none" stroke="none" pointer-events="all"/><path d="M 368.91 522.81 L 408.45 522.12 L 411.61 560.33 L 369.42 560.43" fill="#ffffff" stroke="none" pointer-events="all"/><path d="M 370 521 C 385.87 520.61 397.51 522.77 410 521 M 370 521 C 381.75 521.43 393.22 521.06 410 521 M 410 521 C 412.05 533.89 410.75 543.27 410 561 M 410 521 C 409.29 536 409.73 550.88 410 561 M 410 561 C 401.75 561.81 392.93 562.94 370 561 M 410 561 C 398.04 559.84 387.18 560.64 370 561 M 370 561 C 368.95 551.53 371.13 539.06 370 521 M 370 561 C 370.86 546.43 369.44 532.36 370 521" fill="none" stroke="#324ab2" stroke-width="2" stroke-linejoin="round" stroke-linecap="round" stroke-miterlimit="10" pointer-events="all"/><g fill="#324AB2" font-family="Ink Free" font-weight="bold" text-anchor="middle" font-size="17px"><text x="389.5" y="545.5">T2</text></g><rect x="330" y="521" width="40" height="40" fill="none" stroke="none" pointer-events="all"/><path d="M 330.44 521.04 L 368.56 519.83 L 369.44 562.86 L 329.01 562.41" fill="#ffffff" stroke="none" pointer-events="all"/><path d="M 330 521 C 344.73 519.09 359.19 521.46 370 521 M 330 521 C 343.83 522.2 359.75 521.05 370 521 M 370 521 C 371.38 533.47 368.94 546.92 370 561 M 370 521 C 370.59 534.78 369.92 548.46 370 561 M 370 561 C 354.68 563.01 341.37 561.64 330 561 M 370 561 C 357.65 560.06 344.18 561.75 330 561 M 330 561 C 330.93 553.88 329.64 545.59 330 521 M 330 561 C 329.13 548.29 329.88 535.99 330 521" fill="none" stroke="#324ab2" stroke-width="2" stroke-linejoin="round" stroke-linecap="round" stroke-miterlimit="10" pointer-events="all"/><g fill="#324AB2" font-family="Ink Free" font-weight="bold" text-anchor="middle" font-size="17px"><text x="349.5" y="545.5">T4</text></g><rect x="467.5" y="451" width="185" height="50" fill="none" stroke="none" transform="translate(560,0)scale(-1,1)translate(-560,0)" pointer-events="all"/><g fill="#324AB2" font-family="Ink Free" font-weight="bold" text-anchor="middle" font-size="17px"><text x="559.5" y="480.5">CPU</text></g><rect x="150" y="520" width="180" height="41" fill="none" stroke="none" pointer-events="all"/><path d="M 149.82 520.21 C 149.82 520.21 149.82 520.21 149.82 520.21 M 149.82 520.21 C 149.82 520.21 149.82 520.21 149.82 520.21 M 149.95 532.25 C 151.38 530.12 153.93 527.04 160.45 520.17 M 149.95 532.25 C 152.36 529.94 154.42 526.14 160.45 520.17 M 150.09 544.29 C 156.97 535.88 162.66 529.02 171.08 520.14 M 150.09 544.29 C 155.71 537.98 159.78 532.01 171.08 520.14 M 150.22 556.33 C 164.34 542.88 175.27 527.91 181.71 520.1 M 150.22 556.33 C 161.97 542.21 175.6 527.47 181.71 520.1 M 153.63 564.6 C 164.17 552.84 174.44 539.39 192.34 520.07 M 153.63 564.6 C 164.08 553.69 173.97 542.18 192.34 520.07 M 164.26 564.56 C 178.72 547.8 192.33 532.8 202.97 520.03 M 164.26 564.56 C 177.77 549.09 192 532.3 202.97 520.03 M 174.89 564.53 C 186.47 551.68 200.97 536.07 213.6 520 M 174.89 564.53 C 185 552.6 196.99 538.91 213.6 520 M 185.52 564.49 C 200.19 548.05 213.36 534.45 224.23 519.96 M 185.52 564.49 C 195.05 555.29 203.28 543.87 224.23 519.96 M 196.15 564.46 C 206.19 553.46 215.12 538.87 234.86 519.93 M 196.15 564.46 C 206.08 553.09 214.91 543.09 234.86 519.93 M 206.78 564.42 C 216.7 550.57 228.79 535.08 245.49 519.9 M 206.78 564.42 C 215.71 555.04 223.49 545.54 245.49 519.9 M 217.41 564.39 C 223.96 557.15 233.69 547.92 256.12 519.86 M 217.41 564.39 C 232.84 546.36 248.47 528.54 256.12 519.86 M 228.04 564.35 C 240.53 550.31 253.63 535.7 266.75 519.83 M 228.04 564.35 C 236.28 554.81 244.65 544.28 266.75 519.83 M 238.67 564.32 C 248.34 550.26 260.56 539.94 277.38 519.79 M 238.67 564.32 C 249.39 551.05 261.47 538.01 277.38 519.79 M 249.3 564.29 C 263.13 545.7 281.63 530.21 288.01 519.76 M 249.3 564.29 C 262.62 549.22 277.44 532.55 288.01 519.76 M 259.93 564.25 C 275.35 548.25 286.87 533.42 298.64 519.72 M 259.93 564.25 C 269.94 553.91 278.52 543.5 298.64 519.72 M 270.56 564.22 C 280.42 551.53 290.64 542.22 309.27 519.69 M 270.56 564.22 C 283.12 549.99 293.2 538.1 309.27 519.69 M 281.19 564.18 C 293.19 549.73 303.34 538.92 319.9 519.65 M 281.19 564.18 C 295.21 546.9 310.49 530.95 319.9 519.65 M 291.83 564.15 C 306.26 548.31 318.7 531.1 329.88 520.37 M 291.83 564.15 C 307.83 545.92 321.5 529.59 329.88 520.37 M 302.46 564.11 C 309.91 554.66 316.52 546.88 330.01 532.42 M 302.46 564.11 C 309.04 554.68 316.91 547.86 330.01 532.42 M 313.09 564.08 C 318.44 557.36 325.28 549.09 330.14 544.46 M 313.09 564.08 C 320.22 557.7 326.73 550.66 330.14 544.46 M 323.72 564.04 C 326.76 562.07 327.61 559.26 330.28 556.5 M 323.72 564.04 C 325.24 562.07 327.66 559.64 330.28 556.5" fill="none" stroke="#c2bee6" stroke-linejoin="round" stroke-linecap="round" stroke-miterlimit="10" pointer-events="all"/><path d="M 150 520 C 214.78 519.08 278.43 518.43 330 520 M 150 520 C 217.59 519.77 282.76 519.08 330 520 M 330 520 C 329.9 530.13 330.98 537.58 330 561 M 330 520 C 329.45 533.61 329.21 547.43 330 561 M 330 561 C 292.81 561.58 254.29 557.68 150 561 M 330 561 C 266.67 563.04 202.77 562.91 150 561 M 150 561 C 150.06 548.33 150.03 536.23 150 520 M 150 561 C 149.49 548.42 150.41 536.33 150 520" fill="none" stroke="#324ab2" stroke-width="2" stroke-linejoin="round" stroke-linecap="round" stroke-miterlimit="10" pointer-events="all"/><rect x="100" y="391" width="390" height="90" fill="none" stroke="none" pointer-events="all"/><g fill="#324AB2" font-family="Ink Free" font-weight="bold" font-size="17px"><text x="101.5" y="410.5">Mientras Trabajo 1 se ejecuta en la CPU, el resto de</text><text x="101.5" y="430.5">trabajos en la memoria esperan su oportunidad.</text><text x="101.5" y="450.5">Si Trabajo 1 termina o solicita una operación de E/S,</text><text x="101.5" y="470.5">otro ocupará su lugar en la CPU.</text></g></g></svg>