<?xml version="1.0" encoding="UTF-8"?>
<!DOCTYPE svg PUBLIC "-//W3C//DTD SVG 1.1//EN" "http://www.w3.org/Graphics/SVG/1.1/DTD/svg11.dtd">
<svg xmlns="http://www.w3.org/2000/svg" xmlns:xlink="http://www.w3.org/1999/xlink" version="1.1" width="307px" height="342px" viewBox="-0.5 -0.5 307 342"><defs><style type="text/css">@font-face {&#xa;font-family: "Ink Free";&#xa;src: url("https://ull-esit-sistemas-operativos.github.io/ssoo-apuntes/fonts/InkFree.woff");&#xa;}&#xa;</style></defs><g><rect x="75" y="1" width="230" height="340" fill="none" stroke="none" pointer-events="all"/><path d="M 74.38 0.5 C 142.48 2.45 207.52 0.24 305.73 1.36 M 74.94 1.51 C 149.24 0.23 221.9 0.28 305 1.3 M 304.01 1.75 C 307.24 111.79 306.35 224.84 305.7 339.86 M 305.59 0.92 C 303.55 110.87 302.9 219.07 305.37 341.53 M 304.63 339.36 C 211.87 342 120.12 341.46 75.49 341.85 M 305.01 340.21 C 221.25 338.53 137.33 338.82 75.16 341.03 M 76.04 341.57 C 72.56 268.31 73.7 198.78 75.32 1.61 M 75.28 340.86 C 75.85 241.51 74.73 142.49 74.99 1.57" fill="none" stroke="#324ab2" stroke-width="2" stroke-linejoin="round" stroke-linecap="round" stroke-miterlimit="10" pointer-events="all"/><rect x="85" y="11" width="210" height="80" fill="none" stroke="none" pointer-events="all"/><path d="M 84.85 10.61 C 144.32 9.65 207.88 10.51 295.03 9.99 M 85.46 10.59 C 135.13 10.4 182.9 10.71 295.28 10.42 M 295.36 11.13 C 295.64 33.08 295.55 50.96 294.49 92.76 M 294.7 10.07 C 294.42 31.07 295.35 51.65 295.93 90.39 M 294.42 90.05 C 222.86 92.79 154.79 90.62 86.09 89.78 M 294.81 90.69 C 240.63 92.29 186.18 91.78 85.39 90.88 M 85.44 92.98 C 83.21 70.41 83.87 49.62 83.12 12.73 M 84.55 90.8 C 85.46 72.54 85.75 53.16 85.22 11.9" fill="none" stroke="#324ab2" stroke-width="2" stroke-linejoin="round" stroke-linecap="round" stroke-miterlimit="10" pointer-events="all"/><g fill="#324AB2" font-family="Ink Free" font-weight="bold" text-anchor="middle" font-size="17px"><text x="189.5" y="45.5">Monitor del sistema</text><text x="189.5" y="65.5">(Sistema Operativo)</text></g><rect x="85" y="91" width="210" height="240" fill="none" stroke="none" pointer-events="all"/><path d="M 83.85 89.69 C 145.8 90.39 205.62 92.23 296.1 92.11 M 85.77 91.71 C 139.12 91.29 192.82 91.09 295.66 90.2 M 294.92 91.32 C 292.78 157.9 293.28 222.87 294.07 330.08 M 295.83 90.39 C 294.16 167.25 294.12 242.87 295.28 331.62 M 293.59 331.63 C 222.25 330.83 148.48 331.71 85.94 331.19 M 294.86 331.45 C 244.73 330 196.12 331.02 85.33 331.8 M 86.43 330.75 C 86.85 247.75 85.95 162.04 85.59 89.77 M 85.64 330.83 C 87.1 283.45 86.1 234.65 84.72 91.74" fill="none" stroke="#324ab2" stroke-width="2" stroke-linejoin="round" stroke-linecap="round" stroke-miterlimit="10" pointer-events="all"/><g fill="#324AB2" font-family="Ink Free" font-weight="bold" text-anchor="middle" font-size="17px"><text x="189.5" y="205.5">Área de los programas</text><text x="189.5" y="225.5">de usuario</text></g><rect x="0" y="321" width="75" height="20" fill="none" stroke="none" pointer-events="all"/><g fill="#324AB2" font-family="Ink Free" font-weight="bold" text-anchor="end" font-size="17px"><text x="62.5" y="335.5">0x0000</text></g><rect x="0" y="1" width="75" height="20" fill="none" stroke="none" pointer-events="all"/><g fill="#324AB2" font-family="Ink Free" font-weight="bold" text-anchor="end" font-size="17px"><text x="62.5" y="15.5">MAX.</text></g></g></svg>