<?xml version="1.0" encoding="UTF-8"?>
<!DOCTYPE svg PUBLIC "-//W3C//DTD SVG 1.1//EN" "http://www.w3.org/Graphics/SVG/1.1/DTD/svg11.dtd">
<svg xmlns="http://www.w3.org/2000/svg" xmlns:xlink="http://www.w3.org/1999/xlink" version="1.1" width="644px" height="473px" viewBox="-0.5 -0.5 644 473"><defs><style type="text/css">@font-face {&#xa;font-family: "Ink Free";&#xa;src: url("https://ull-esit-sistemas-operativos.github.io/ssoo-apuntes/fonts/InkFree.woff");&#xa;}&#xa;</style></defs><g><rect x="2" y="1" width="180" height="410" fill="none" stroke="none" pointer-events="all"/><path d="M 2 1 C 58.09 1.59 114.54 0.33 182 1 M 2 1 C 73.25 1.32 144.94 0.26 182 1 M 182 1 C 179.73 147.31 179.66 293.48 182 411 M 182 1 C 181.19 150.98 181.08 301.02 182 411 M 182 411 C 139.48 410.85 93.84 412.46 2 411 M 182 411 C 124.73 412.65 67.07 410.94 2 411 M 2 411 C 2.07 264.69 2.49 118.42 2 1 M 2 411 C 2.95 313.56 3.99 216.56 2 1" fill="none" stroke="#324ab2" stroke-width="2" stroke-linejoin="round" stroke-linecap="round" stroke-miterlimit="10" pointer-events="all"/><rect x="12" y="121" width="160" height="281" fill="none" stroke="none" pointer-events="all"/><path d="M 12.21 120.76 C 12.21 120.76 12.21 120.76 12.21 120.76 M 12.21 120.76 C 12.21 120.76 12.21 120.76 12.21 120.76 M 11.69 133.55 C 16.87 130.27 21.03 123.46 22.84 120.72 M 11.69 133.55 C 16 129.22 20.85 123.13 22.84 120.72 M 11.82 145.59 C 19.13 137.54 24.78 130.86 33.47 120.69 M 11.82 145.59 C 18.95 137.43 26.38 128.38 33.47 120.69 M 11.96 157.63 C 16.61 149.65 23.88 143.28 44.1 120.65 M 11.96 157.63 C 20.15 148.31 30.43 137.77 44.1 120.65 M 12.09 169.67 C 28.09 151.81 45.44 133.53 54.08 121.37 M 12.09 169.67 C 22.41 156.4 33.88 143 54.08 121.37 M 12.22 181.71 C 25.85 165.39 44.46 147.31 64.71 121.34 M 12.22 181.71 C 26.83 163.79 41.11 147.3 64.71 121.34 M 11.7 194.51 C 38.01 165.07 59.51 139.53 75.34 121.3 M 11.7 194.51 C 32.44 170.04 52.37 146.45 75.34 121.3 M 11.83 206.55 C 29.82 187.62 48.2 166.59 85.97 121.27 M 11.83 206.55 C 30.66 185.77 48.28 163.88 85.97 121.27 M 11.97 218.59 C 40.15 188.74 68 154.46 96.6 121.23 M 11.97 218.59 C 33.49 192.66 54.91 168.71 96.6 121.23 M 12.1 230.63 C 43.6 196.8 71.21 161.51 107.23 121.2 M 12.1 230.63 C 43.2 195.03 74.23 159.99 107.23 121.2 M 12.23 242.67 C 40.52 209.62 66.81 178.25 117.86 121.17 M 12.23 242.67 C 40 209.66 70.58 174.41 117.86 121.17 M 11.71 255.47 C 49.23 213.92 85.25 169.19 128.49 121.13 M 11.71 255.47 C 39.9 223.08 69.35 188.11 128.49 121.13 M 11.84 267.51 C 46.26 227.83 83.61 184.82 139.12 121.1 M 11.84 267.51 C 48.63 226.9 84.3 184.84 139.12 121.1 M 11.98 279.55 C 54.52 227.29 99.54 178.77 149.75 121.06 M 11.98 279.55 C 51.36 234.39 90.06 189.11 149.75 121.06 M 12.11 291.59 C 70.94 224.15 130.44 154.42 160.38 121.03 M 12.11 291.59 C 70.23 226.14 126.58 161.77 160.38 121.03 M 12.24 303.63 C 61.1 247.24 110.59 194.14 171.01 120.99 M 12.24 303.63 C 53.54 254.82 94.2 207.92 171.01 120.99 M 11.72 316.43 C 59.9 261.14 109.06 204.05 177.7 125.49 M 11.72 316.43 C 71.22 247.68 131.41 179.08 177.7 125.49 M 11.85 328.47 C 70.67 262.82 127.58 199.72 177.18 138.28 M 11.85 328.47 C 71.91 256.74 132.91 187.83 177.18 138.28 M 11.98 340.51 C 46.61 300.33 82.15 260.89 177.31 150.32 M 11.98 340.51 C 53.59 293.18 95.88 244.45 177.31 150.32 M 12.12 352.55 C 50.3 312.13 84.14 271.83 177.44 162.36 M 12.12 352.55 C 66.38 289.41 122.73 226.39 177.44 162.36 M 12.25 364.59 C 75.07 293.13 135.76 220.21 177.58 174.4 M 12.25 364.59 C 69.28 298.83 124.82 233.1 177.58 174.4 M 11.73 377.39 C 77.55 302.17 140.63 228.73 177.71 186.45 M 11.73 377.39 C 54.95 328.63 96.77 280.36 177.71 186.45 M 11.86 389.43 C 53.44 339.3 97.69 288.65 177.19 199.24 M 11.86 389.43 C 73.11 318.72 133.74 248.4 177.19 199.24 M 11.99 401.47 C 48.73 360.95 82.66 318.07 177.32 211.28 M 11.99 401.47 C 70.2 332.6 129.73 264.99 177.32 211.28 M 18.03 406.72 C 66.24 353.77 110.93 301.84 177.45 223.32 M 18.03 406.72 C 70.22 347.33 122.93 287.15 177.45 223.32 M 28.66 406.68 C 85.85 342.54 142.72 277.16 177.59 235.36 M 28.66 406.68 C 64.77 364.18 102.21 321.1 177.59 235.36 M 39.29 406.65 C 80.13 360.54 124.41 312.27 177.72 247.4 M 39.29 406.65 C 74.29 366.16 111.59 324.61 177.72 247.4 M 49.27 407.37 C 77.51 372.76 108.73 340.59 177.2 260.2 M 49.27 407.37 C 84.95 366.58 121.25 327.91 177.2 260.2 M 59.9 407.33 C 95.43 360.81 134.41 320.47 177.33 272.24 M 59.9 407.33 C 91.02 371.85 123.95 334.48 177.33 272.24 M 70.53 407.3 C 93.27 383.06 114.78 355.6 177.46 284.28 M 70.53 407.3 C 107.51 368.37 142.68 327.96 177.46 284.28 M 81.16 407.26 C 119.17 364.7 159.16 319.64 177.6 296.32 M 81.16 407.26 C 109.68 374.73 140.44 341.19 177.6 296.32 M 91.79 407.23 C 119.12 379.12 143.64 348.51 177.73 308.36 M 91.79 407.23 C 113.96 379.73 136.82 353.05 177.73 308.36 M 102.42 407.2 C 127.73 377.26 151.97 348.07 177.21 321.16 M 102.42 407.2 C 130.39 375.36 159.68 343.47 177.21 321.16 M 113.05 407.16 C 132.24 381.97 156.18 358.58 177.34 333.2 M 113.05 407.16 C 132.08 386.05 152.24 362.96 177.34 333.2 M 123.68 407.13 C 144.47 383 163.6 359.31 177.47 345.24 M 123.68 407.13 C 141.76 385.19 159.9 364.75 177.47 345.24 M 134.31 407.09 C 143.55 395.32 158.53 381.58 177.61 357.28 M 134.31 407.09 C 151.55 387.24 168.79 368.78 177.61 357.28 M 144.94 407.06 C 154.43 395.17 167.59 383.42 177.74 369.32 M 144.94 407.06 C 153.93 395.91 163.5 385.17 177.74 369.32 M 155.57 407.02 C 161.18 400.14 170.23 388.81 177.22 382.12 M 155.57 407.02 C 160.55 400.65 165.02 395.25 177.22 382.12 M 166.2 406.99 C 167.08 403.5 172.87 400.78 177.35 394.16 M 166.2 406.99 C 169.22 404.78 171.1 400.42 177.35 394.16" fill="none" stroke="#c2bee6" stroke-linejoin="round" stroke-linecap="round" stroke-miterlimit="10" pointer-events="all"/><path d="M 12 121 C 60.74 121.83 109.82 120.77 172 121 M 12 121 C 54.04 118.63 98.89 118.79 172 121 M 172 121 C 172.25 229.71 171.28 341.67 172 402 M 172 121 C 171.23 216.64 171.75 312.37 172 402 M 172 402 C 139.96 403.16 107.38 402.26 12 402 M 172 402 C 113.8 402.04 56.98 403.21 12 402 M 12 402 C 12.26 318.1 13.26 235.66 12 121 M 12 402 C 11.23 292.53 11.27 183.61 12 121" fill="none" stroke="#324ab2" stroke-width="2" stroke-linejoin="round" stroke-linecap="round" stroke-miterlimit="10" pointer-events="all"/><rect x="12" y="11" width="160" height="110" fill="none" stroke="none" pointer-events="all"/><path d="M 12 11 C 63.6 8.87 111.5 12.01 172 11 M 12 11 C 66.75 11.08 120.7 12.46 172 11 M 172 11 C 170.67 36.24 172.27 62.23 172 121 M 172 11 C 171.09 45.28 172.67 79.68 172 121 M 172 121 C 113.51 123.58 53.06 124.18 12 121 M 172 121 C 140.49 121.5 108.15 121.56 12 121 M 12 121 C 12.11 94.15 9.94 67.04 12 11 M 12 121 C 13.29 83.25 13.5 46.14 12 11" fill="none" stroke="#324ab2" stroke-width="2" stroke-linejoin="round" stroke-linecap="round" stroke-miterlimit="10" pointer-events="all"/><g fill="#324AB2" font-family="Ink Free" font-weight="bold" text-anchor="middle" font-size="17px"><text x="91.5" y="60.5">Sistema operativo</text><text x="91.5" y="80.5">(Núcleo)</text></g><rect x="12" y="241" width="160" height="40" fill="none" stroke="none" pointer-events="all"/><path d="M 12.5 242.62 L 172.46 239.05 L 173.34 279.19 L 13.48 282.47" fill="#ffffff" stroke="none" pointer-events="all"/><path d="M 12 241 C 62.46 243.11 113.18 242.45 172 241 M 12 241 C 45.47 240.33 80.51 240.93 172 241 M 172 241 C 171.13 249.91 171.58 260.06 172 281 M 172 241 C 172.54 251.91 171.03 264.95 172 281 M 172 281 C 119.05 277.79 66.75 279.9 12 281 M 172 281 C 133.19 281.96 95.33 282.91 12 281 M 12 281 C 11.31 265.11 13.67 250.8 12 241 M 12 281 C 12.97 268.94 11.35 257.45 12 241" fill="none" stroke="#324ab2" stroke-width="2" stroke-linejoin="round" stroke-linecap="round" stroke-miterlimit="10" pointer-events="all"/><g fill="#324AB2" font-family="Ink Free" font-weight="bold" text-anchor="middle" font-size="17px"><text x="91.5" y="265.5">Página B</text></g><rect x="12" y="201" width="160" height="40" fill="none" stroke="none" pointer-events="all"/><path d="M 10.07 199.65 L 170.95 200.73 L 173.47 242.79 L 12.5 242.14" fill="#ffffff" stroke="none" pointer-events="all"/><path d="M 12 201 C 61.33 199.58 110.18 199.3 172 201 M 12 201 C 75.2 202.19 138.32 201.59 172 201 M 172 201 C 170.86 208.63 174.25 220.36 172 241 M 172 201 C 171.5 215.06 171.72 229.53 172 241 M 172 241 C 125.12 238.59 79.79 237.67 12 241 M 172 241 C 116.51 240.5 63.17 240.97 12 241 M 12 241 C 10.9 228.84 12.94 218.49 12 201 M 12 241 C 12.92 231.8 12.96 223.47 12 201" fill="none" stroke="#324ab2" stroke-width="2" stroke-linejoin="round" stroke-linecap="round" stroke-miterlimit="10" pointer-events="all"/><g fill="#324AB2" font-family="Ink Free" font-weight="bold" text-anchor="middle" font-size="17px"><text x="91.5" y="225.5">Página A</text></g><rect x="12" y="281" width="160" height="40" fill="none" stroke="none" pointer-events="all"/><path d="M 11.59 281.88 L 171.07 282.44 L 171.3 321.32 L 12.1 320.12" fill="#ffffff" stroke="none" pointer-events="all"/><path d="M 12 281 C 60.19 283.82 111.86 283.74 172 281 M 12 281 C 55.92 281.44 98.13 280.06 172 281 M 172 281 C 170.19 292.21 172.44 304.01 172 321 M 172 281 C 172.8 293.84 171.92 307.11 172 321 M 172 321 C 134.67 320.01 93.47 320.59 12 321 M 172 321 C 111.21 320.96 50.34 320.32 12 321 M 12 321 C 13.68 311.19 12.25 305.02 12 281 M 12 321 C 11.19 305.66 11.4 291.11 12 281" fill="none" stroke="#324ab2" stroke-width="2" stroke-linejoin="round" stroke-linecap="round" stroke-miterlimit="10" pointer-events="all"/><g fill="#324AB2" font-family="Ink Free" font-weight="bold" text-anchor="middle" font-size="17px"><text x="91.5" y="305.5">Página C</text></g><rect x="462" y="1" width="180" height="410" fill="none" stroke="none" pointer-events="all"/><path d="M 462 1 C 519.25 0.77 571.95 0.88 642 1 M 462 1 C 523.44 0.57 583.56 0.4 642 1 M 642 1 C 641.12 125.5 639.53 250.6 642 411 M 642 1 C 642.36 123.21 642.37 245.67 642 411 M 642 411 C 606.07 411.31 568.87 409.38 462 411 M 642 411 C 601.45 411.39 562.6 411.63 462 411 M 462 411 C 460.98 264.95 460.48 119.72 462 1 M 462 411 C 462.65 276.11 462.85 141.6 462 1" fill="none" stroke="#324ab2" stroke-width="2" stroke-linejoin="round" stroke-linecap="round" stroke-miterlimit="10" pointer-events="all"/><rect x="472" y="121" width="160" height="280" fill="none" stroke="none" pointer-events="all"/><path d="M 471.7 121.35 C 471.7 121.35 471.7 121.35 471.7 121.35 M 471.7 121.35 C 471.7 121.35 471.7 121.35 471.7 121.35 M 471.83 133.39 C 473.68 130.32 477.32 126.93 482.33 121.32 M 471.83 133.39 C 474.77 131.55 476.8 127.49 482.33 121.32 M 471.96 145.43 C 477.67 140.87 481.58 134.52 492.96 121.28 M 471.96 145.43 C 477.11 138.72 482.32 131.76 492.96 121.28 M 472.1 157.47 C 483.64 145.69 495.88 132.52 503.59 121.25 M 472.1 157.47 C 480.5 149.02 486.22 140.03 503.59 121.25 M 472.23 169.51 C 480.6 156.21 494.23 143.9 514.22 121.21 M 472.23 169.51 C 483.33 157.28 492.39 146.78 514.22 121.21 M 471.71 182.31 C 484.69 169.77 495.65 155.21 524.85 121.18 M 471.71 182.31 C 491.04 160 511.7 136.64 524.85 121.18 M 471.84 194.35 C 489.41 177.11 504.23 159.25 535.48 121.14 M 471.84 194.35 C 486.35 176.08 502.81 158.65 535.48 121.14 M 471.97 206.39 C 491.02 184.76 509.5 165.17 546.11 121.11 M 471.97 206.39 C 490.46 184.61 510.38 162.56 546.11 121.11 M 472.11 218.43 C 499.86 188.2 522.41 161.93 556.74 121.07 M 472.11 218.43 C 505.42 180.56 538.96 142.52 556.74 121.07 M 472.24 230.47 C 500.82 199.52 530.04 166.13 567.37 121.04 M 472.24 230.47 C 494.07 204.79 517.21 181.27 567.37 121.04 M 471.72 243.27 C 507.24 206.37 538.87 168.08 578 121 M 471.72 243.27 C 510.1 199.35 547.77 155.04 578 121 M 471.85 255.31 C 509.59 210.19 547.82 168.28 588.63 120.97 M 471.85 255.31 C 495.83 226.41 521.11 197.82 588.63 120.97 M 471.98 267.35 C 499.46 238.32 525.43 206.88 599.26 120.94 M 471.98 267.35 C 504.62 229.74 536.87 193.49 599.26 120.94 M 472.11 279.39 C 523.83 224.01 572.33 165.16 609.89 120.9 M 472.11 279.39 C 504.55 244.25 536.69 208.16 609.89 120.9 M 472.25 291.43 C 520.44 235.43 569.19 180.79 620.52 120.87 M 472.25 291.43 C 522.58 233.78 571.53 176.84 620.52 120.87 M 471.73 304.23 C 518.84 251.11 566.09 193.7 631.15 120.83 M 471.73 304.23 C 518.97 251.02 565.18 197.69 631.15 120.83 M 471.86 316.27 C 513.9 265.28 557.01 215.74 637.19 126.08 M 471.86 316.27 C 523.55 258.69 573.39 201.54 637.19 126.08 M 471.99 328.31 C 526.06 267.57 577.06 207.12 637.32 138.12 M 471.99 328.31 C 524.9 268.52 577.57 207.19 637.32 138.12 M 472.12 340.35 C 504.13 302.62 538.51 262.19 637.45 150.16 M 472.12 340.35 C 505.76 301.94 539.98 263.58 637.45 150.16 M 472.26 352.39 C 520.65 294.85 567.53 239.29 637.58 162.2 M 472.26 352.39 C 508.36 312.44 543.98 271.6 637.58 162.2 M 471.73 365.19 C 509.58 322.03 547.47 277.45 637.72 174.24 M 471.73 365.19 C 529.39 301.44 585.23 237.01 637.72 174.24 M 471.87 377.23 C 527.6 311.19 587.13 244.53 637.19 187.04 M 471.87 377.23 C 534.59 304.5 598.45 231.66 637.19 187.04 M 472 389.27 C 534.95 318.04 593.72 250.48 637.33 199.08 M 472 389.27 C 525.83 325.89 581.48 263.26 637.33 199.08 M 472.13 401.31 C 529.87 335.45 586.43 271.97 637.46 211.12 M 472.13 401.31 C 507.18 358.69 544.26 316.31 637.46 211.12 M 482.76 401.27 C 536.43 337.44 591.76 274.44 637.59 223.16 M 482.76 401.27 C 525.59 352.61 569.39 302.59 637.59 223.16 M 493.39 401.24 C 540.79 347.02 589.72 293.18 637.73 235.2 M 493.39 401.24 C 525.21 365.53 557.11 329.21 637.73 235.2 M 504.02 401.2 C 543.63 357.2 580.01 315.22 637.2 248 M 504.02 401.2 C 557.54 341.7 612.02 280.56 637.2 248 M 514.65 401.17 C 555.99 355.26 593.89 304.21 637.34 260.04 M 514.65 401.17 C 548.13 362 581.94 324.12 637.34 260.04 M 525.28 401.14 C 565.04 355.51 604.31 310 637.47 272.08 M 525.28 401.14 C 567.51 353.88 610.64 305.3 637.47 272.08 M 535.91 401.1 C 575.03 355.69 613.61 309.06 637.6 284.12 M 535.91 401.1 C 573.65 358.73 610.49 315.83 637.6 284.12 M 546.54 401.07 C 575.87 369.07 604.15 332.49 637.74 296.16 M 546.54 401.07 C 565.68 377.41 585.86 356.2 637.74 296.16 M 557.17 401.03 C 575.93 376.31 595.96 355.1 637.21 308.96 M 557.17 401.03 C 578.98 375.87 600.61 350.59 637.21 308.96 M 567.81 401 C 581.17 382.44 598.48 364.76 637.35 321 M 567.81 401 C 594.54 369.71 623.14 337.41 637.35 321 M 578.44 400.96 C 597.92 377.43 617.89 356.32 637.48 333.04 M 578.44 400.96 C 595.35 381.89 611.44 364.32 637.48 333.04 M 589.07 400.93 C 603.65 385.73 616.61 368.78 637.61 345.08 M 589.07 400.93 C 603.97 383.5 619.55 365.51 637.61 345.08 M 599.7 400.89 C 610.91 385.11 626.5 369.96 637.75 357.12 M 599.7 400.89 C 608.22 391.35 615.57 381.73 637.75 357.12 M 610.33 400.86 C 617.05 392.21 624.11 385.61 637.22 369.92 M 610.33 400.86 C 617.56 392.36 622.78 386.22 637.22 369.92 M 620.96 400.83 C 623.73 398 629.84 391.74 637.36 381.96 M 620.96 400.83 C 626.5 396.14 631.53 389.91 637.36 381.96 M 630.93 401.55 C 633.29 399.72 634.28 396.62 637.49 394 M 630.93 401.55 C 633.34 399.27 636.09 396.39 637.49 394" fill="none" stroke="#c2bee6" stroke-linejoin="round" stroke-linecap="round" stroke-miterlimit="10" pointer-events="all"/><path d="M 472 121 C 521.91 121.1 571.22 121.42 632 121 M 472 121 C 505.35 123.14 539.75 122.19 632 121 M 632 121 C 634.05 216.96 634.03 311.08 632 401 M 632 121 C 632.14 197.24 632.84 273.82 632 401 M 632 401 C 573.77 398.84 512.84 398.42 472 401 M 632 401 C 590.6 401.88 546.69 401.02 472 401 M 472 401 C 471.24 317.35 474.02 236.24 472 121 M 472 401 C 471.2 322.26 470.08 244 472 121" fill="none" stroke="#324ab2" stroke-width="2" stroke-linejoin="round" stroke-linecap="round" stroke-miterlimit="10" pointer-events="all"/><rect x="472" y="11" width="160" height="110" fill="none" stroke="none" pointer-events="all"/><path d="M 472 11 C 520.76 8.14 572.9 8.66 632 11 M 472 11 C 518.06 10.39 563.56 10.66 632 11 M 632 11 C 632.77 51.25 631.61 93.58 632 121 M 632 11 C 633.04 37.61 632.86 66.69 632 121 M 632 121 C 579.32 120.26 526.52 121.34 472 121 M 632 121 C 583.3 120.35 533.87 120.37 472 121 M 472 121 C 473.85 93.73 474 67.6 472 11 M 472 121 C 471.91 95.02 472.62 69.6 472 11" fill="none" stroke="#324ab2" stroke-width="2" stroke-linejoin="round" stroke-linecap="round" stroke-miterlimit="10" pointer-events="all"/><g fill="#324AB2" font-family="Ink Free" font-weight="bold" text-anchor="middle" font-size="17px"><text x="551.5" y="60.5">Sistema operativo</text><text x="551.5" y="80.5">(Núcleo)</text></g><rect x="472" y="241" width="160" height="40" fill="none" stroke="none" pointer-events="all"/><path d="M 473.7 242.8 L 631.52 241.29 L 630.59 279.43 L 470.46 280.06" fill="#ffffff" stroke="none" pointer-events="all"/><path d="M 472 241 C 523.62 242.38 570.59 239.1 632 241 M 472 241 C 528.78 239.64 585.37 241.12 632 241 M 632 241 C 633.12 250.52 630.82 258.61 632 281 M 632 241 C 631.99 250.96 632.7 259.39 632 281 M 632 281 C 584.86 281.68 540.21 280.25 472 281 M 632 281 C 576 280.81 521.04 281.71 472 281 M 472 281 C 471.21 264.59 471.9 251.15 472 241 M 472 281 C 471.87 265.09 472.75 249.66 472 241" fill="none" stroke="#324ab2" stroke-width="2" stroke-linejoin="round" stroke-linecap="round" stroke-miterlimit="10" pointer-events="all"/><g fill="#324AB2" font-family="Ink Free" font-weight="bold" text-anchor="middle" font-size="17px"><text x="551.5" y="265.5">Página B</text></g><rect x="472" y="201" width="160" height="40" fill="none" stroke="none" pointer-events="all"/><path d="M 471.22 201.02 L 631.63 199 L 632.42 241.96 L 470.06 242.05" fill="#ffffff" stroke="none" pointer-events="all"/><path d="M 472 201 C 522.48 202.62 572.27 203.54 632 201 M 472 201 C 509.49 202.08 545.18 202.79 632 201 M 632 201 C 632.46 210.1 633.01 222.26 632 241 M 632 201 C 633.29 217.74 632.89 232.97 632 241 M 632 241 C 590.41 243.1 549.89 243.17 472 241 M 632 241 C 570.69 241.27 508.22 241.06 472 241 M 472 241 C 473.99 226.94 471.21 213.68 472 201 M 472 241 C 472.94 226.95 471.98 213.29 472 201" fill="none" stroke="#324ab2" stroke-width="2" stroke-linejoin="round" stroke-linecap="round" stroke-miterlimit="10" pointer-events="all"/><g fill="#324AB2" font-family="Ink Free" font-weight="bold" text-anchor="middle" font-size="17px"><text x="551.5" y="225.5">Página A</text></g><rect x="472" y="281" width="160" height="40" fill="none" stroke="none" pointer-events="all"/><path d="M 472.75 279.25 L 631.75 280.72 L 630.24 320.49 L 473.65 320.03" fill="#ffffff" stroke="none" pointer-events="all"/><path d="M 472 281 C 521.34 279.66 569.95 280.77 632 281 M 472 281 C 520.21 281.33 568.99 281.26 632 281 M 632 281 C 631.79 293.67 631.21 301.91 632 321 M 632 281 C 631.79 296.52 632.29 310.54 632 321 M 632 321 C 595.96 320.52 563.58 322.09 472 321 M 632 321 C 595.39 321.73 559.39 322.41 472 321 M 472 321 C 472.77 309.29 470.52 300.21 472 281 M 472 321 C 471.21 308.8 472.42 298.93 472 281" fill="none" stroke="#324ab2" stroke-width="2" stroke-linejoin="round" stroke-linecap="round" stroke-miterlimit="10" pointer-events="all"/><g fill="#324AB2" font-family="Ink Free" font-weight="bold" text-anchor="middle" font-size="17px"><text x="551.5" y="305.5">Página C</text></g><rect x="462" y="422" width="180" height="50" fill="none" stroke="none" transform="translate(552,0)scale(-1,1)translate(-552,0)" pointer-events="all"/><g fill="#324AB2" font-family="Ink Free" font-weight="bold" text-anchor="middle" font-size="17px"><text x="551.5" y="441.5">Espacio de direcciones</text><text x="551.5" y="461.5">del proceso 2</text></g><rect x="0" y="422" width="180" height="50" fill="none" stroke="none" transform="translate(90,0)scale(-1,1)translate(-90,0)" pointer-events="all"/><g fill="#324AB2" font-family="Ink Free" font-weight="bold" text-anchor="middle" font-size="17px"><text x="89.5" y="441.5">Espacio de direcciones</text><text x="89.5" y="461.5">del proceso 1</text></g><rect x="230" y="111" width="180" height="301" fill="none" stroke="none" pointer-events="all"/><path d="M 230 111 C 286.14 110.74 340.73 112.64 410 111 M 230 111 C 271.94 111.67 311.55 110.84 410 111 M 410 111 C 408.94 209.81 408.99 305.26 410 412 M 410 111 C 408.05 226.59 408.07 341.3 410 412 M 410 412 C 357.3 411.27 306.34 412.82 230 412 M 410 412 C 371.92 412.12 335.21 412.1 230 412 M 230 412 C 231.53 340.04 230.42 269.94 230 111 M 230 412 C 230.45 314.35 229.87 217.05 230 111" fill="none" stroke="#324ab2" stroke-width="2" stroke-linejoin="round" stroke-linecap="round" stroke-miterlimit="10" pointer-events="all"/><rect x="240" y="121" width="160" height="281" fill="none" stroke="none" pointer-events="all"/><path d="M 239.83 121.19 C 239.83 121.19 239.83 121.19 239.83 121.19 M 239.83 121.19 C 239.83 121.19 239.83 121.19 239.83 121.19 M 239.96 133.24 C 243.12 128.34 246.8 123.69 250.46 121.16 M 239.96 133.24 C 244.06 129.4 247.01 123.6 250.46 121.16 M 240.1 145.28 C 247.38 137.51 255.68 129.04 261.09 121.13 M 240.1 145.28 C 248.63 136.45 257.2 125.67 261.09 121.13 M 240.23 157.32 C 252.37 147.46 259.47 133.11 271.72 121.09 M 240.23 157.32 C 250.34 146.09 261.5 133.66 271.72 121.09 M 239.71 170.11 C 248.69 159.23 257.21 149.08 282.35 121.06 M 239.71 170.11 C 249.24 158.55 260.36 147.34 282.35 121.06 M 239.84 182.15 C 249.29 168.44 259.98 155.45 292.98 121.02 M 239.84 182.15 C 256.38 162.89 271.65 144.86 292.98 121.02 M 239.97 194.19 C 256.22 174.83 275.42 154.43 303.61 120.99 M 239.97 194.19 C 263.96 168.06 286.22 141.88 303.61 120.99 M 240.11 206.24 C 268.09 174.43 296.84 141.57 314.24 120.95 M 240.11 206.24 C 258.3 184.34 276.77 163.53 314.24 120.95 M 240.24 218.28 C 270.51 184.83 303.48 146.8 324.87 120.92 M 240.24 218.28 C 261.25 192.25 285.44 165.47 324.87 120.92 M 239.72 231.07 C 262.43 205.84 282.38 180.61 335.5 120.88 M 239.72 231.07 C 277.93 185.29 316.79 142.68 335.5 120.88 M 239.85 243.11 C 280.99 196.25 324.96 149.62 346.13 120.85 M 239.85 243.11 C 278.58 200.53 315.55 156.3 346.13 120.85 M 239.98 255.15 C 282.7 206.96 324.16 157.75 356.76 120.81 M 239.98 255.15 C 286.11 201.92 333.83 148.68 356.76 120.81 M 240.12 267.19 C 290.58 208.42 341.08 153.48 367.39 120.78 M 240.12 267.19 C 289.88 212.17 337.87 156.58 367.39 120.78 M 240.25 279.23 C 292.18 217.55 346.96 157.81 378.02 120.75 M 240.25 279.23 C 289.31 224.57 336.99 169.82 378.02 120.75 M 239.73 292.03 C 284.8 237.19 331.4 183.34 388.65 120.71 M 239.73 292.03 C 272.27 253.05 306.39 215.3 388.65 120.71 M 239.86 304.07 C 289.95 245.41 341.8 187.65 399.28 120.68 M 239.86 304.07 C 301.75 233.02 364.43 162.2 399.28 120.68 M 239.99 316.11 C 302.15 243.51 363.47 171.67 405.32 125.93 M 239.99 316.11 C 292.2 253.99 346.54 192.85 405.32 125.93 M 240.13 328.15 C 303.89 258.98 363.75 186.32 405.45 137.97 M 240.13 328.15 C 287.44 272.27 335.97 218.33 405.45 137.97 M 240.26 340.19 C 297.32 274.13 358.57 205.3 405.59 150.01 M 240.26 340.19 C 284.34 288.79 328.26 237.49 405.59 150.01 M 239.74 352.99 C 273.12 313.74 306.34 277.29 405.72 162.05 M 239.74 352.99 C 285.02 302.16 330.58 249.68 405.72 162.05 M 239.87 365.03 C 290.18 307.79 341.63 247.03 405.2 174.84 M 239.87 365.03 C 299.99 297.3 358.28 229.48 405.2 174.84 M 240 377.07 C 277.97 331.5 319.78 286.13 405.33 186.88 M 240 377.07 C 274.49 337.31 308.64 297.94 405.33 186.88 M 240.14 389.11 C 274.47 349.6 309.3 310.69 405.46 198.93 M 240.14 389.11 C 281.38 342.5 320.81 296.19 405.46 198.93 M 240.27 401.15 C 296.08 336.7 351.3 272.51 405.6 210.97 M 240.27 401.15 C 304.45 328.94 368.38 254.94 405.6 210.97 M 245.65 407.16 C 298.2 345.2 353.7 282.49 405.73 223.01 M 245.65 407.16 C 297.65 344.82 350.15 284.28 405.73 223.01 M 256.28 407.12 C 308.77 344.28 364.74 280.94 405.21 235.8 M 256.28 407.12 C 308.81 346.87 360.54 286.97 405.21 235.8 M 266.91 407.09 C 307.83 360.85 348.76 312.84 405.34 247.84 M 266.91 407.09 C 317.08 351.87 364.08 296.79 405.34 247.84 M 277.54 407.05 C 326.12 347.21 379.24 291.84 405.47 259.88 M 277.54 407.05 C 313.08 365.29 348.35 324.35 405.47 259.88 M 288.17 407.02 C 330.45 357.01 378.18 302.81 405.61 271.93 M 288.17 407.02 C 331.13 355.17 376.79 304.71 405.61 271.93 M 298.8 406.98 C 330.22 372.28 362.78 332.74 405.74 283.97 M 298.8 406.98 C 320.31 383.17 341.58 357.75 405.74 283.97 M 309.43 406.95 C 345.86 361.59 384.2 319.93 405.22 296.76 M 309.43 406.95 C 331.48 379.18 354.59 354.19 405.22 296.76 M 320.06 406.91 C 351.13 367.62 385.79 332.2 405.35 308.8 M 320.06 406.91 C 352.21 369.13 384.2 333.21 405.35 308.8 M 330.69 406.88 C 353.1 383.48 371.27 357.27 405.48 320.84 M 330.69 406.88 C 351.9 382.66 373.06 357.62 405.48 320.84 M 341.32 406.85 C 363.91 383.71 383.39 358.59 405.62 332.88 M 341.32 406.85 C 360.36 386.01 380.55 363.28 405.62 332.88 M 351.95 406.81 C 366.42 391.32 379.5 375.95 405.75 344.92 M 351.95 406.81 C 363.77 393.98 374.19 380.2 405.75 344.92 M 362.58 406.78 C 374.15 395.23 385.46 381.95 405.23 357.72 M 362.58 406.78 C 376.37 391.53 391.49 375.13 405.23 357.72 M 373.21 406.74 C 379.58 396.06 389.78 390.47 405.36 369.76 M 373.21 406.74 C 381.33 396.49 390.99 387.57 405.36 369.76 M 383.84 406.71 C 390.73 400.75 394.77 391.83 405.49 381.8 M 383.84 406.71 C 389.76 401.17 394.29 395.34 405.49 381.8 M 394.47 406.67 C 398.87 401.2 400.61 397.95 405.63 393.84 M 394.47 406.67 C 396.84 404.34 398.63 400.08 405.63 393.84" fill="none" stroke="#c2bee6" stroke-linejoin="round" stroke-linecap="round" stroke-miterlimit="10" pointer-events="all"/><path d="M 240 121 C 288.79 121.65 339.99 119.75 400 121 M 240 121 C 288.09 118.94 336.24 119.32 400 121 M 400 121 C 397.05 221.85 399.29 322.62 400 402 M 400 121 C 399.39 221.86 398.57 321.82 400 402 M 400 402 C 358.67 402.57 317.67 401.61 240 402 M 400 402 C 360.8 402.65 320.76 401.52 240 402 M 240 402 C 237.51 295.12 236.75 191.57 240 121 M 240 402 C 237.48 324.34 238.53 248.52 240 121" fill="none" stroke="#324ab2" stroke-width="2" stroke-linejoin="round" stroke-linecap="round" stroke-miterlimit="10" pointer-events="all"/><rect x="240" y="231" width="160" height="40" fill="none" stroke="none" pointer-events="all"/><path d="M 240.42 231.21 L 398.69 231.24 L 401.67 272.21 L 239.04 269.63" fill="#ffffff" stroke="none" pointer-events="all"/><path d="M 240 231 C 291.65 231.89 337.67 230.19 400 231 M 240 231 C 298.8 231.39 360.05 232.99 400 231 M 400 231 C 398.46 248.71 400.25 262.81 400 271 M 400 231 C 399.94 244.79 399.77 257.41 400 271 M 400 271 C 364.22 272.98 331.35 273.53 240 271 M 400 271 C 353.5 270.12 305.93 271.87 240 271 M 240 271 C 237.89 256.42 241.43 244.03 240 231 M 240 271 C 239.84 261.1 239.38 253.5 240 231" fill="none" stroke="#324ab2" stroke-width="2" stroke-linejoin="round" stroke-linecap="round" stroke-miterlimit="10" pointer-events="all"/><g fill="#324AB2" font-family="Ink Free" font-weight="bold" text-anchor="middle" font-size="17px"><text x="319.5" y="255.5">Página B</text></g><rect x="240" y="141" width="160" height="40" fill="none" stroke="none" pointer-events="all"/><path d="M 241.95 139.43 L 398.8 142.95 L 399.5 180.73 L 238.63 181.62" fill="#ffffff" stroke="none" pointer-events="all"/><path d="M 240 141 C 290.5 138.93 339.35 141.43 400 141 M 240 141 C 279.52 140.64 317.85 141.46 400 141 M 400 141 C 401.79 150.28 398.44 160.46 400 181 M 400 141 C 399.24 153.57 399.96 164.98 400 181 M 400 181 C 341.77 181.2 281.04 179.25 240 181 M 400 181 C 346.2 180.58 293.1 181.22 240 181 M 240 181 C 240.67 168.77 240.74 160.56 240 141 M 240 181 C 240.11 164.95 239.82 151.14 240 141" fill="none" stroke="#324ab2" stroke-width="2" stroke-linejoin="round" stroke-linecap="round" stroke-miterlimit="10" pointer-events="all"/><g fill="#324AB2" font-family="Ink Free" font-weight="bold" text-anchor="middle" font-size="17px"><text x="319.5" y="165.5">Página A</text></g><rect x="240" y="311" width="160" height="40" fill="none" stroke="none" pointer-events="all"/><path d="M 239.47 311.66 L 398.91 310.67 L 401.32 349.26 L 238.22 349.6" fill="#ffffff" stroke="none" pointer-events="all"/><path d="M 240 311 C 289.36 309.17 341.04 311.86 400 311 M 240 311 C 290.23 309.89 341.66 309.92 400 311 M 400 311 C 401.92 319.86 401.44 334.11 400 351 M 400 311 C 400.53 322.34 400.16 334.55 400 351 M 400 351 C 347.32 348.62 290.72 348.16 240 351 M 400 351 C 340.89 351.04 280.28 352.57 240 351 M 240 351 C 239.45 333.12 240.05 321.1 240 311 M 240 351 C 239.18 338.81 241.05 324.78 240 311" fill="none" stroke="#324ab2" stroke-width="2" stroke-linejoin="round" stroke-linecap="round" stroke-miterlimit="10" pointer-events="all"/><g fill="#324AB2" font-family="Ink Free" font-weight="bold" text-anchor="middle" font-size="17px"><text x="319.5" y="335.5">Página C</text></g><rect x="232" y="422" width="180" height="50" fill="none" stroke="none" transform="translate(322,0)scale(-1,1)translate(-322,0)" pointer-events="all"/><g fill="#324AB2" font-family="Ink Free" font-weight="bold" text-anchor="middle" font-size="17px"><text x="321.5" y="451.5">Memoria física</text></g><path d="M 227.78 204.59 L 172 221" fill="none" stroke="none" pointer-events="stroke"/><path d="M 237.85 201.63 L 226.4 212.3 L 227.78 204.59 L 222.45 198.87 Z" fill="none" stroke="none" pointer-events="all"/><path d="M 227.78 204.59 M 227.78 204.59 C 211.83 210.37 194.16 214.56 172 221 M 227.78 204.59 C 213.46 208.84 198.94 213.58 172 221" fill="none" stroke="#324ab2" stroke-width="2" stroke-linejoin="round" stroke-linecap="round" stroke-miterlimit="10" pointer-events="stroke"/><path d="M 222.47 198.85 C 222.47 198.85 222.47 198.85 222.47 198.85 M 222.47 198.85 C 222.47 198.85 222.47 198.85 222.47 198.85 M 227.85 204.85 C 229.44 202.95 229.93 201.72 231.78 200.33 M 227.85 204.85 C 228.46 203.67 229.8 202.75 231.78 200.33" fill="none" stroke="#324ab2" stroke-linejoin="round" stroke-linecap="round" stroke-miterlimit="10" pointer-events="all"/><path d="M 237.85 201.63 M 237.85 201.63 C 234.93 205.11 232.97 206.74 226.4 212.3 M 237.85 201.63 C 234.16 204.15 232.1 207.89 226.4 212.3 M 226.4 212.3 C 226.85 210.93 227.88 208.58 227.78 204.59 M 226.4 212.3 C 226.87 210.82 227.27 208.56 227.78 204.59 M 227.78 204.59 C 226.19 203.65 225.07 202.53 222.45 198.87 M 227.78 204.59 C 226.38 203.32 224.94 202.31 222.45 198.87 M 222.45 198.87 C 224.45 198.4 228.41 199.74 237.85 201.63 M 222.45 198.87 C 228.6 200.53 234.47 201.64 237.85 201.63" fill="none" stroke="#324ab2" stroke-width="2" stroke-linejoin="round" stroke-linecap="round" stroke-miterlimit="10" pointer-events="all"/><path d="M 227.41 252.94 L 172 261.5" fill="none" stroke="none" pointer-events="stroke"/><path d="M 237.79 251.34 L 225.02 260.4 L 227.41 252.94 L 222.89 246.56 Z" fill="none" stroke="none" pointer-events="all"/><path d="M 227.41 252.94 M 227.41 252.94 C 210.46 254.8 191.73 256.75 172 261.5 M 227.41 252.94 C 208.16 256.32 191.32 258.85 172 261.5" fill="none" stroke="#324ab2" stroke-width="2" stroke-linejoin="round" stroke-linecap="round" stroke-miterlimit="10" pointer-events="stroke"/><path d="M 222.71 246.76 C 222.71 246.76 222.71 246.76 222.71 246.76 M 222.71 246.76 C 222.71 246.76 222.71 246.76 222.71 246.76 M 227.44 253.52 C 229 252.05 230.49 250.27 231.37 248.99 M 227.44 253.52 C 228.31 252.36 229.23 251.48 231.37 248.99" fill="none" stroke="#324ab2" stroke-linejoin="round" stroke-linecap="round" stroke-miterlimit="10" pointer-events="all"/><path d="M 237.79 251.34 M 237.79 251.34 C 234.53 251.83 231.13 253.86 225.02 260.4 M 237.79 251.34 C 234.15 253.71 230.47 256.54 225.02 260.4 M 225.02 260.4 C 225.08 259.54 226.46 256.85 227.41 252.94 M 225.02 260.4 C 226.27 257.8 226.55 254.41 227.41 252.94 M 227.41 252.94 C 226.38 250.52 225.42 249.45 222.89 246.56 M 227.41 252.94 C 226.08 250.84 224.4 248.62 222.89 246.56 M 222.89 246.56 C 227.33 248.59 230.16 249.68 237.79 251.34 M 222.89 246.56 C 227.76 248.79 233.68 249.21 237.79 251.34" fill="none" stroke="#324ab2" stroke-width="2" stroke-linejoin="round" stroke-linecap="round" stroke-miterlimit="10" pointer-events="all"/><path d="M 228.35 325.86 L 172 301" fill="none" stroke="none" pointer-events="stroke"/><path d="M 237.95 330.1 L 222.32 330.85 L 228.35 325.86 L 227.97 318.04 Z" fill="none" stroke="none" pointer-events="all"/><path d="M 228.35 325.86 M 228.35 325.86 C 209.94 316.99 193.74 312.76 172 301 M 228.35 325.86 C 217.47 321.87 205.1 315.7 172 301" fill="none" stroke="#324ab2" stroke-width="2" stroke-linejoin="round" stroke-linecap="round" stroke-miterlimit="10" pointer-events="stroke"/><path d="M 228.19 317.78 C 228.19 317.78 228.19 317.78 228.19 317.78 M 228.19 317.78 C 228.19 317.78 228.19 317.78 228.19 317.78 M 225.05 333.6 C 226.72 331.09 227.71 330.62 232.92 324.54 M 225.05 333.6 C 227.7 329.65 231.45 326.19 232.92 324.54" fill="none" stroke="#324ab2" stroke-linejoin="round" stroke-linecap="round" stroke-miterlimit="10" pointer-events="all"/><path d="M 237.95 330.1 M 237.95 330.1 C 231.04 329.78 226.03 331.27 222.32 330.85 M 237.95 330.1 C 232.32 330.16 227.95 331.25 222.32 330.85 M 222.32 330.85 C 224.92 329.84 226.59 327.69 228.35 325.86 M 222.32 330.85 C 224.2 329.38 226.43 327.11 228.35 325.86 M 228.35 325.86 C 227.56 323.14 228.15 320.16 227.97 318.04 M 228.35 325.86 C 227.97 323.95 228.49 322.41 227.97 318.04 M 227.97 318.04 C 233.03 321.79 236.1 328.12 237.95 330.1 M 227.97 318.04 C 231.73 322.59 234.78 325.4 237.95 330.1" fill="none" stroke="#324ab2" stroke-width="2" stroke-linejoin="round" stroke-linecap="round" stroke-miterlimit="10" pointer-events="all"/><path d="M 409.78 169.15 L 472 221" fill="none" stroke="none" pointer-events="stroke"/><path d="M 401.72 162.43 L 416.95 166.02 L 409.78 169.15 L 407.99 176.77 Z" fill="none" stroke="none" pointer-events="all"/><path d="M 409.78 169.15 M 409.78 169.15 C 431.22 186.39 446.66 202.18 472 221 M 409.78 169.15 C 426.26 184.54 444.16 198.98 472 221" fill="none" stroke="#324ab2" stroke-width="2" stroke-linejoin="round" stroke-linecap="round" stroke-miterlimit="10" pointer-events="stroke"/><path d="M 401.66 162.5 C 401.66 162.5 401.66 162.5 401.66 162.5 M 401.66 162.5 C 401.66 162.5 401.66 162.5 401.66 162.5 M 405.08 170.76 C 406.27 169.78 408.26 167.12 410.32 164.73 M 405.08 170.76 C 407.19 168.96 409.12 166.71 410.32 164.73" fill="none" stroke="#324ab2" stroke-linejoin="round" stroke-linecap="round" stroke-miterlimit="10" pointer-events="all"/><path d="M 401.72 162.43 M 401.72 162.43 C 405.57 163.9 413.34 164.38 416.95 166.02 M 401.72 162.43 C 408.05 163.9 413.93 165.23 416.95 166.02 M 416.95 166.02 C 414.66 167.67 412.22 167.4 409.78 169.15 M 416.95 166.02 C 414.96 167.2 413.19 168.23 409.78 169.15 M 409.78 169.15 C 409.41 170.48 408.43 173.1 407.99 176.77 M 409.78 169.15 C 409.37 171.4 408.64 174.48 407.99 176.77 M 407.99 176.77 C 405.56 173.8 403.98 170.61 401.72 162.43 M 407.99 176.77 C 406.16 173.41 405.12 168.72 401.72 162.43" fill="none" stroke="#324ab2" stroke-width="2" stroke-linejoin="round" stroke-linecap="round" stroke-miterlimit="10" pointer-events="all"/><path d="M 412.61 252.75 L 472 261" fill="none" stroke="none" pointer-events="stroke"/><path d="M 402.21 251.31 L 417.04 246.3 L 412.61 252.75 L 415.12 260.17 Z" fill="none" stroke="none" pointer-events="all"/><path d="M 412.61 252.75 M 412.61 252.75 C 431.89 253.4 448.56 256.03 472 261 M 412.61 252.75 C 428.02 253.9 442.84 256.97 472 261" fill="none" stroke="#324ab2" stroke-width="2" stroke-linejoin="round" stroke-linecap="round" stroke-miterlimit="10" pointer-events="stroke"/><path d="M 401.99 251.56 C 401.99 251.56 401.99 251.56 401.99 251.56 M 401.99 251.56 C 401.99 251.56 401.99 251.56 401.99 251.56 M 408.69 256.05 C 410.28 254.62 412.59 252.29 417.22 246.24 M 408.69 256.05 C 410.28 253.84 412.02 252.37 417.22 246.24" fill="none" stroke="#324ab2" stroke-linejoin="round" stroke-linecap="round" stroke-miterlimit="10" pointer-events="all"/><path d="M 402.21 251.31 M 402.21 251.31 C 407.27 250.74 410.7 249.26 417.04 246.3 M 402.21 251.31 C 406.38 249.25 411.02 249.03 417.04 246.3 M 417.04 246.3 C 414.93 249.37 412.76 250.62 412.61 252.75 M 417.04 246.3 C 416.09 248.03 415.26 248.99 412.61 252.75 M 412.61 252.75 C 414.22 254.64 413.73 257.36 415.12 260.17 M 412.61 252.75 C 413.11 254.82 414.34 257.75 415.12 260.17 M 415.12 260.17 C 411.04 257.73 406.05 253.26 402.21 251.31 M 415.12 260.17 C 412.08 258.4 407.7 254.93 402.21 251.31" fill="none" stroke="#324ab2" stroke-width="2" stroke-linejoin="round" stroke-linecap="round" stroke-miterlimit="10" pointer-events="all"/><path d="M 411.76 326.1 L 472 301" fill="none" stroke="none" pointer-events="stroke"/><path d="M 402.06 330.14 L 412.29 318.29 L 411.76 326.1 L 417.68 331.22 Z" fill="none" stroke="none" pointer-events="all"/><path d="M 411.76 326.1 M 411.76 326.1 C 430.11 319.83 449.86 312.3 472 301 M 411.76 326.1 C 430.78 317.82 451.74 309.63 472 301" fill="none" stroke="#324ab2" stroke-width="2" stroke-linejoin="round" stroke-linecap="round" stroke-miterlimit="10" pointer-events="stroke"/><path d="M 412.03 318.59 C 412.03 318.59 412.03 318.59 412.03 318.59 M 412.03 318.59 C 412.03 318.59 412.03 318.59 412.03 318.59 M 408.23 335.16 C 409.29 333.02 410.58 332.37 414.13 328.36 M 408.23 335.16 C 410.91 332.3 412.65 329.99 414.13 328.36" fill="none" stroke="#324ab2" stroke-linejoin="round" stroke-linecap="round" stroke-miterlimit="10" pointer-events="all"/><path d="M 402.06 330.14 M 402.06 330.14 C 404.92 325.73 408.13 323.84 412.29 318.29 M 402.06 330.14 C 404.84 325.78 407.86 322.31 412.29 318.29 M 412.29 318.29 C 412.84 321.46 412.45 323.5 411.76 326.1 M 412.29 318.29 C 412.43 321.46 411.66 323.83 411.76 326.1 M 411.76 326.1 C 412.83 327.39 414.63 327.83 417.68 331.22 M 411.76 326.1 C 413.06 326.8 414 328.07 417.68 331.22 M 417.68 331.22 C 412.48 330.28 409.14 330.76 402.06 330.14 M 417.68 331.22 C 413.82 331.75 410.03 330.77 402.06 330.14" fill="none" stroke="#324ab2" stroke-width="2" stroke-linejoin="round" stroke-linecap="round" stroke-miterlimit="10" pointer-events="all"/><rect x="240" y="181" width="160" height="40" fill="none" stroke="none" pointer-events="all"/><path d="M 239.72 182.3 L 398.2 182.33 L 398.22 220.56 L 238.38 221.16" fill="#ffffff" stroke="none" pointer-events="all"/><path d="M 240 181 C 288.24 182.92 337.8 183.39 400 181 M 240 181 C 272.97 180.89 306.15 180.25 400 181 M 400 181 C 398.59 193.63 401.06 201.95 400 221 M 400 181 C 399.78 194.95 399.42 210.14 400 221 M 400 221 C 364.22 221.34 327.55 220.35 240 221 M 400 221 C 343.09 220.81 284.34 222.07 240 221 M 240 221 C 240.11 211.3 240.1 200.51 240 181 M 240 221 C 239.42 208.67 240.12 194.26 240 181" fill="none" stroke="#324ab2" stroke-width="2" stroke-linejoin="round" stroke-linecap="round" stroke-miterlimit="10" pointer-events="all"/><g fill="#324AB2" font-family="Ink Free" font-weight="bold" text-anchor="middle" font-size="17px"><text x="319.5" y="205.5">Copia de la página A</text></g></g></svg>