<?xml version="1.0" encoding="UTF-8"?>
<!DOCTYPE svg PUBLIC "-//W3C//DTD SVG 1.1//EN" "http://www.w3.org/Graphics/SVG/1.1/DTD/svg11.dtd">
<svg xmlns="http://www.w3.org/2000/svg" xmlns:xlink="http://www.w3.org/1999/xlink" version="1.1" width="644px" height="473px" viewBox="-0.5 -0.5 644 473"><defs><style type="text/css">@font-face {&#xa;font-family: "Ink Free";&#xa;src: url("https://ull-esit-sistemas-operativos.github.io/ssoo-apuntes/fonts/InkFree.woff");&#xa;}&#xa;</style></defs><g><rect x="2" y="1" width="180" height="410" fill="none" stroke="none" pointer-events="all"/><path d="M 2 1 C 53.37 1.15 107.27 2.5 182 1 M 2 1 C 49.5 0.42 97.33 0.53 182 1 M 182 1 C 183.11 120.49 183.18 240.98 182 411 M 182 1 C 183.2 138.06 182.97 276.07 182 411 M 182 411 C 144.69 409.21 105.69 409.41 2 411 M 182 411 C 128.28 411.57 73.19 409.85 2 411 M 2 411 C 0.35 265.06 -0.05 117.88 2 1 M 2 411 C 0.98 319.62 1.16 228.28 2 1" fill="none" stroke="#324ab2" stroke-width="2" stroke-linejoin="round" stroke-linecap="round" stroke-miterlimit="10" pointer-events="all"/><rect x="12" y="121" width="160" height="281" fill="none" stroke="none" pointer-events="all"/><path d="M 12.22 120.75 C 12.22 120.75 12.22 120.75 12.22 120.75 M 12.22 120.75 C 12.22 120.75 12.22 120.75 12.22 120.75 M 11.7 133.54 C 16.42 129.37 21.94 125.05 22.85 120.71 M 11.7 133.54 C 14.95 130.1 16.84 128.45 22.85 120.71 M 11.83 145.58 C 19.52 137.89 25.4 128.56 33.48 120.68 M 11.83 145.58 C 17.87 138.47 24.12 129.79 33.48 120.68 M 11.96 157.62 C 23.88 144.18 37.11 129.85 44.11 120.64 M 11.96 157.62 C 22.99 145.85 33.02 133.49 44.11 120.64 M 12.1 169.67 C 27.59 149.32 46.52 134.09 54.08 121.36 M 12.1 169.67 C 23.18 157.86 32.27 147.31 54.08 121.36 M 12.23 181.71 C 30.85 158.31 50.35 138.58 64.71 121.33 M 12.23 181.71 C 28.73 162.4 44.73 144.87 64.71 121.33 M 11.71 194.5 C 33.29 166.27 59.28 141.78 75.34 121.29 M 11.71 194.5 C 25.9 177.86 39.92 162.91 75.34 121.29 M 11.84 206.54 C 26.37 190.25 44.99 170.96 85.97 121.26 M 11.84 206.54 C 37.38 177.93 62.34 147.98 85.97 121.26 M 11.97 218.58 C 35.63 192.84 57.05 167.7 96.6 121.23 M 11.97 218.58 C 44.59 181.3 77.39 142.7 96.6 121.23 M 12.11 230.62 C 39.49 199.94 64.25 170.72 107.23 121.19 M 12.11 230.62 C 45.69 192.84 77.81 153.94 107.23 121.19 M 12.24 242.66 C 44.6 203.77 76.85 165.95 117.86 121.16 M 12.24 242.66 C 44.37 206.42 77.02 168.24 117.86 121.16 M 11.72 255.46 C 59.52 201.46 102.41 148.56 128.49 121.12 M 11.72 255.46 C 54.89 204.78 100.3 153.24 128.49 121.12 M 11.85 267.5 C 42.9 233.2 67.19 202.88 139.13 121.09 M 11.85 267.5 C 55.56 217.69 97.12 168.63 139.13 121.09 M 11.98 279.54 C 41.4 243.98 74.16 206.46 149.76 121.05 M 11.98 279.54 C 62.56 218.58 114.74 159.43 149.76 121.05 M 12.12 291.58 C 53.48 245 93.29 196.62 160.39 121.02 M 12.12 291.58 C 50.55 245.51 90.99 200.17 160.39 121.02 M 12.25 303.62 C 64.74 242.62 118.26 183.03 171.02 120.98 M 12.25 303.62 C 75.94 231.15 139.95 158 171.02 120.98 M 11.73 316.42 C 50.58 274.37 87.86 229.58 177.71 125.48 M 11.73 316.42 C 61.24 260.15 110.53 203.1 177.71 125.48 M 11.86 328.46 C 73.2 256.31 136.93 183.79 177.19 138.27 M 11.86 328.46 C 52.02 282.82 92.14 237.26 177.19 138.27 M 11.99 340.5 C 57.25 289.72 100.23 238.18 177.32 150.31 M 11.99 340.5 C 49.95 297.07 89.88 252.06 177.32 150.31 M 12.13 352.54 C 48.26 311.33 83.34 272.29 177.45 162.36 M 12.13 352.54 C 79.42 275.88 143.68 200.69 177.45 162.36 M 12.26 364.58 C 46.78 325.92 81.86 284.31 177.59 174.4 M 12.26 364.58 C 66.98 302.79 118.84 242.03 177.59 174.4 M 11.74 377.38 C 75.63 305.61 133.99 236.14 177.72 186.44 M 11.74 377.38 C 57.02 324.32 102.35 270.16 177.72 186.44 M 11.87 389.42 C 63.95 330.34 114.04 270.55 177.2 199.23 M 11.87 389.42 C 77.02 314.62 141.61 238.93 177.2 199.23 M 12 401.46 C 68.9 333.35 128.54 263.85 177.33 211.27 M 12 401.46 C 46.69 359.84 82.9 317.41 177.33 211.27 M 18.04 406.71 C 55.46 363.7 93.31 316.98 177.46 223.31 M 18.04 406.71 C 68.11 349.73 119.29 289.89 177.46 223.31 M 28.67 406.67 C 59.96 370.6 90.27 337.91 177.6 235.36 M 28.67 406.67 C 67.94 361.45 106.73 316.75 177.6 235.36 M 38.64 407.39 C 87.87 352.96 133.02 301.19 177.73 247.4 M 38.64 407.39 C 91.33 347.67 143.21 287.41 177.73 247.4 M 49.27 407.36 C 83.95 367.26 118.05 326.37 177.21 260.19 M 49.27 407.36 C 96.18 354.14 142.15 300.71 177.21 260.19 M 59.9 407.33 C 99.27 361.78 140.37 314.02 177.34 272.23 M 59.9 407.33 C 92.45 372.27 120.85 338.78 177.34 272.23 M 70.53 407.29 C 97.38 375.03 123.21 344.92 177.47 284.27 M 70.53 407.29 C 91.82 381.55 113.71 355.59 177.47 284.27 M 81.16 407.26 C 103.9 382.16 129.18 351.83 177.6 296.31 M 81.16 407.26 C 108.14 377.39 134.98 346.79 177.6 296.31 M 91.79 407.22 C 124.55 372.65 156.31 336.13 177.74 308.35 M 91.79 407.22 C 123.28 369.39 157.82 330.2 177.74 308.35 M 102.42 407.19 C 122.17 385.97 142.47 362.01 177.22 321.15 M 102.42 407.19 C 128.31 377.28 154.08 348.47 177.22 321.15 M 113.05 407.15 C 126.06 390.81 139.56 376.22 177.35 333.19 M 113.05 407.15 C 125.81 392.23 139.46 378.55 177.35 333.19 M 123.68 407.12 C 138.59 388.67 151.71 372.86 177.48 345.23 M 123.68 407.12 C 134.54 394.11 146.65 380.91 177.48 345.23 M 134.31 407.08 C 146.19 395.78 154.82 381.31 177.61 357.27 M 134.31 407.08 C 146.11 392.73 158.36 379.96 177.61 357.27 M 144.94 407.05 C 155.15 394.18 167.07 380.98 177.75 369.31 M 144.94 407.05 C 153.46 397.03 160.7 387.5 177.75 369.31 M 155.57 407.01 C 162.21 398.41 169.14 388.57 177.22 382.11 M 155.57 407.01 C 163.44 398.95 170.65 388.32 177.22 382.11 M 166.2 406.98 C 169.08 403.47 171.94 399.94 177.36 394.15 M 166.2 406.98 C 168.49 404.57 171.19 402.27 177.36 394.15" fill="none" stroke="#c2bee6" stroke-linejoin="round" stroke-linecap="round" stroke-miterlimit="10" pointer-events="all"/><path d="M 12 121 C 70.35 121.45 128.85 120.16 172 121 M 12 121 C 59.93 120.81 106.93 121.17 172 121 M 172 121 C 169.57 215.58 168.6 307.93 172 402 M 172 121 C 172.96 200.92 172.61 280.69 172 402 M 172 402 C 134.72 402.15 96.22 404.75 12 402 M 172 402 C 119.23 403.29 66.48 402.55 12 402 M 12 402 C 12.34 299.04 9.89 196.88 12 121 M 12 402 C 10.07 331.97 10.41 261.46 12 121" fill="none" stroke="#324ab2" stroke-width="2" stroke-linejoin="round" stroke-linecap="round" stroke-miterlimit="10" pointer-events="all"/><rect x="12" y="11" width="160" height="110" fill="none" stroke="none" pointer-events="all"/><path d="M 12 11 C 58.15 9.31 102.96 9.87 172 11 M 12 11 C 71.38 10.32 131.59 11.55 172 11 M 172 11 C 172.56 48.14 173.25 89.11 172 121 M 172 11 C 171.62 36.94 171.62 62.56 172 121 M 172 121 C 112.76 121.55 53.49 119.75 12 121 M 172 121 C 117.51 119.75 64.51 120.48 12 121 M 12 121 C 10.87 77.98 12.02 33.37 12 11 M 12 121 C 10.68 97.73 10.34 72.83 12 11" fill="none" stroke="#324ab2" stroke-width="2" stroke-linejoin="round" stroke-linecap="round" stroke-miterlimit="10" pointer-events="all"/><g fill="#324AB2" font-family="Ink Free" font-weight="bold" text-anchor="middle" font-size="17px"><text x="91.5" y="60.5">Sistema operativo</text><text x="91.5" y="80.5">(Núcleo)</text></g><rect x="12" y="241" width="160" height="40" fill="none" stroke="none" pointer-events="all"/><path d="M 11.86 240.48 L 171.69 242.01 L 170.85 279.82 L 13.47 282.13" fill="#ffffff" stroke="none" pointer-events="all"/><path d="M 12 241 C 57 239.55 104.65 240.3 172 241 M 12 241 C 52.1 239.57 91.4 240.01 172 241 M 172 241 C 173.02 257.07 172.57 273.46 172 281 M 172 241 C 171.2 249.33 172.1 257.35 172 281 M 172 281 C 118.3 278.96 67.17 278.67 12 281 M 172 281 C 112.2 280.21 51.69 279.83 12 281 M 12 281 C 12.43 267.87 10.1 254.98 12 241 M 12 281 C 12.37 266.79 12.19 250.87 12 241" fill="none" stroke="#324ab2" stroke-width="2" stroke-linejoin="round" stroke-linecap="round" stroke-miterlimit="10" pointer-events="all"/><g fill="#324AB2" font-family="Ink Free" font-weight="bold" text-anchor="middle" font-size="17px"><text x="91.5" y="265.5">Página B</text></g><rect x="12" y="201" width="160" height="40" fill="none" stroke="none" pointer-events="all"/><path d="M 12.09 200.51 L 170.52 201.96 L 173.69 242.84 L 12.03 239.08" fill="#ffffff" stroke="none" pointer-events="all"/><path d="M 12 201 C 71.49 201.21 131.17 199.72 172 201 M 12 201 C 47.21 201.56 83.12 200.7 172 201 M 172 201 C 171.62 212.63 171.51 224.83 172 241 M 172 201 C 172.75 213.91 171.4 226.62 172 241 M 172 241 C 129.17 239.73 86.53 240.84 12 241 M 172 241 C 124.53 241.83 79.31 242.2 12 241 M 12 241 C 11.35 231.88 11.61 221.98 12 201 M 12 241 C 11.15 229.28 11.42 217 12 201" fill="none" stroke="#324ab2" stroke-width="2" stroke-linejoin="round" stroke-linecap="round" stroke-miterlimit="10" pointer-events="all"/><g fill="#324AB2" font-family="Ink Free" font-weight="bold" text-anchor="middle" font-size="17px"><text x="91.5" y="225.5">Página A</text></g><rect x="12" y="281" width="160" height="40" fill="none" stroke="none" pointer-events="all"/><path d="M 11.04 280.92 L 172.98 281.37 L 170.86 321.38 L 10.5 321.35" fill="#ffffff" stroke="none" pointer-events="all"/><path d="M 12 281 C 68.22 279.61 121.97 277.99 172 281 M 12 281 C 64.4 280.88 117.27 281.31 172 281 M 172 281 C 171.57 292.68 172.24 300.93 172 321 M 172 281 C 173.38 293.98 172.27 306.6 172 321 M 172 321 C 136.09 319.63 96.73 319.19 12 321 M 172 321 C 134.9 319.8 96.64 320.34 12 321 M 12 321 C 10.17 311.62 13.26 301.1 12 281 M 12 321 C 11.72 310.5 12.8 301.4 12 281" fill="none" stroke="#324ab2" stroke-width="2" stroke-linejoin="round" stroke-linecap="round" stroke-miterlimit="10" pointer-events="all"/><g fill="#324AB2" font-family="Ink Free" font-weight="bold" text-anchor="middle" font-size="17px"><text x="91.5" y="305.5">Página C</text></g><rect x="462" y="1" width="180" height="410" fill="none" stroke="none" pointer-events="all"/><path d="M 462 1 C 523.86 -0.11 583.22 2.46 642 1 M 462 1 C 499.19 0.01 535.22 -0.34 642 1 M 642 1 C 640.39 120.58 640.13 240.76 642 411 M 642 1 C 640.22 126.38 640.11 252.67 642 411 M 642 411 C 571.82 411.08 500.77 412.14 462 411 M 642 411 C 592.11 410.22 542.84 409.65 462 411 M 462 411 C 463.52 327.55 463.31 242.27 462 1 M 462 411 C 460.77 325.45 460.36 240.63 462 1" fill="none" stroke="#324ab2" stroke-width="2" stroke-linejoin="round" stroke-linecap="round" stroke-miterlimit="10" pointer-events="all"/><rect x="472" y="121" width="160" height="280" fill="none" stroke="none" pointer-events="all"/><path d="M 471.7 121.34 C 471.7 121.34 471.7 121.34 471.7 121.34 M 471.7 121.34 C 471.7 121.34 471.7 121.34 471.7 121.34 M 471.84 133.38 C 475.18 130.76 479.06 126.59 482.33 121.31 M 471.84 133.38 C 474.32 131.06 475.62 128.61 482.33 121.31 M 471.97 145.42 C 476.13 140.86 479.95 133.53 492.96 121.27 M 471.97 145.42 C 478.49 138.24 483.36 132.14 492.96 121.27 M 472.1 157.46 C 482.37 144.28 493.16 133.06 503.59 121.24 M 472.1 157.46 C 478.93 148.43 486.44 140.39 503.59 121.24 M 472.24 169.5 C 480.42 159.49 490.34 147.72 514.22 121.2 M 472.24 169.5 C 482.61 158.42 493.88 145.17 514.22 121.2 M 471.71 182.3 C 491.76 158.81 512.03 132.91 524.85 121.17 M 471.71 182.3 C 488.55 163.12 504.67 144.11 524.85 121.17 M 471.85 194.34 C 489.28 175.3 504.83 155.63 535.48 121.13 M 471.85 194.34 C 487.39 177 501.59 161.18 535.48 121.13 M 471.98 206.38 C 499.41 175.07 529 140.87 546.11 121.1 M 471.98 206.38 C 488.75 187.64 506.49 168.49 546.11 121.1 M 472.11 218.42 C 496.96 192.24 521.04 164.87 556.74 121.07 M 472.11 218.42 C 493.76 195.74 513.67 174.01 556.74 121.07 M 472.25 230.46 C 495.09 205.25 516.18 178.71 567.37 121.03 M 472.25 230.46 C 495.21 202.13 520.61 172.61 567.37 121.03 M 471.72 243.26 C 498.68 209.21 529.43 177.89 578 121 M 471.72 243.26 C 494.55 217.69 516.43 192.69 578 121 M 471.86 255.3 C 501.2 222.03 533.65 183.77 588.63 120.96 M 471.86 255.3 C 511.26 210.74 548.49 167.82 588.63 120.96 M 471.99 267.34 C 506.81 226 542.98 187.45 599.26 120.93 M 471.99 267.34 C 519.25 211.98 567.45 159.28 599.26 120.93 M 472.12 279.38 C 521.78 222.1 567.11 166.9 609.89 120.89 M 472.12 279.38 C 512.69 234.58 553.49 188.56 609.89 120.89 M 472.26 291.42 C 509.32 247.16 546.32 205.12 620.52 120.86 M 472.26 291.42 C 503.05 257.26 533.38 221.34 620.52 120.86 M 471.73 304.22 C 523.98 244.36 574.39 185.35 631.15 120.82 M 471.73 304.22 C 508.42 261.63 545.45 218.39 631.15 120.82 M 471.87 316.26 C 537.14 245.28 598.55 170.61 637.19 126.07 M 471.87 316.26 C 522.13 259.32 571.17 202.58 637.19 126.07 M 472 328.3 C 536.62 253.27 599.85 179.72 637.33 138.11 M 472 328.3 C 538.17 254.22 602.09 180.13 637.33 138.11 M 472.13 340.34 C 525.45 275 580.05 213.51 637.46 150.15 M 472.13 340.34 C 525.85 278.27 580.38 215.7 637.46 150.15 M 472.27 352.38 C 523.83 293.98 574.88 235.28 637.59 162.19 M 472.27 352.38 C 505.15 313.61 540.12 273.88 637.59 162.19 M 471.74 365.18 C 507.58 325.49 545.18 283.9 637.73 174.24 M 471.74 365.18 C 512.72 320.58 551.37 275.02 637.73 174.24 M 471.88 377.22 C 509.48 335.51 547.26 292.33 637.2 187.03 M 471.88 377.22 C 522.4 320.43 572.02 262.67 637.2 187.03 M 472.01 389.26 C 514.4 341.94 553.52 298.86 637.34 199.07 M 472.01 389.26 C 514.55 339.62 558.03 289.91 637.34 199.07 M 472.14 401.3 C 507.37 357.27 545.49 315.16 637.47 211.11 M 472.14 401.3 C 519.34 348.22 566.33 296.2 637.47 211.11 M 482.77 401.27 C 523.35 356.57 562.22 313.62 637.6 223.15 M 482.77 401.27 C 534.66 344.33 583.77 287.34 637.6 223.15 M 493.4 401.23 C 547.31 336.55 605.28 273.77 637.73 235.19 M 493.4 401.23 C 540.44 348.12 585.92 296.11 637.73 235.19 M 504.03 401.2 C 552.06 342.49 602.41 287.52 637.21 247.99 M 504.03 401.2 C 532.84 366.3 562.36 333.35 637.21 247.99 M 514.66 401.16 C 553.58 356.37 594.73 310.02 637.35 260.03 M 514.66 401.16 C 565.02 345.04 613.31 287.8 637.35 260.03 M 525.29 401.13 C 571.54 349.2 616.1 298.24 637.48 272.07 M 525.29 401.13 C 553.99 368.13 583.88 333.92 637.48 272.07 M 535.92 401.09 C 564.2 369.33 588.9 339.64 637.61 284.11 M 535.92 401.09 C 564.98 368.8 592.96 337.55 637.61 284.11 M 546.55 401.06 C 580.39 361.27 617.66 322.74 637.74 296.15 M 546.55 401.06 C 582.36 359.91 618.02 317.66 637.74 296.15 M 557.18 401.02 C 585.31 370.39 609.92 342.53 637.22 308.95 M 557.18 401.02 C 580.19 374.7 602.42 347.81 637.22 308.95 M 567.81 400.99 C 582.18 384.54 598.68 366.12 637.35 320.99 M 567.81 400.99 C 588.01 376.55 609.25 352.57 637.35 320.99 M 578.44 400.95 C 593.07 383.64 609.03 365.97 637.49 333.03 M 578.44 400.95 C 600.41 375.57 621.56 351.94 637.49 333.03 M 589.07 400.92 C 607.16 383.93 621.46 363.65 637.62 345.07 M 589.07 400.92 C 604.58 382.8 619.69 366.82 637.62 345.07 M 599.7 400.89 C 615.21 386.16 627.01 369.61 637.75 357.11 M 599.7 400.89 C 614.02 383.43 629.05 365.53 637.75 357.11 M 610.33 400.85 C 620.25 390.44 631.43 380.31 637.23 369.91 M 610.33 400.85 C 617.78 392.38 624.5 385.22 637.23 369.91 M 620.31 401.57 C 624.98 395.68 628.93 388.27 637.36 381.95 M 620.31 401.57 C 624.83 395.36 631.58 389.56 637.36 381.95 M 630.94 401.54 C 633.11 400.74 632.75 399.39 637.5 393.99 M 630.94 401.54 C 632.44 399.66 634.14 398.07 637.5 393.99" fill="none" stroke="#c2bee6" stroke-linejoin="round" stroke-linecap="round" stroke-miterlimit="10" pointer-events="all"/><path d="M 472 121 C 525.94 124.09 581.34 122.87 632 121 M 472 121 C 515.83 122.58 560.89 121.44 632 121 M 632 121 C 632.68 214 634.51 305.13 632 401 M 632 121 C 630.14 199.33 630.67 278.94 632 401 M 632 401 C 575.19 402.47 520.1 401.02 472 401 M 632 401 C 582.29 400.72 530.99 401.04 472 401 M 472 401 C 469.59 305.06 469.71 207.98 472 121 M 472 401 C 473.73 299.96 473.28 199.88 472 121" fill="none" stroke="#324ab2" stroke-width="2" stroke-linejoin="round" stroke-linecap="round" stroke-miterlimit="10" pointer-events="all"/><rect x="472" y="11" width="160" height="110" fill="none" stroke="none" pointer-events="all"/><path d="M 472 11 C 524.8 11.13 579.02 10.11 632 11 M 472 11 C 528.55 11.82 582.7 11.91 632 11 M 632 11 C 630.39 50.79 631.64 92.63 632 121 M 632 11 C 632.13 38.31 631.71 67.3 632 121 M 632 121 C 580.74 119.89 529.78 119.94 472 121 M 632 121 C 574.99 121.18 518.17 120.39 472 121 M 472 121 C 473.57 90.62 470.24 56.58 472 11 M 472 121 C 471.04 86.28 470.63 52.73 472 11" fill="none" stroke="#324ab2" stroke-width="2" stroke-linejoin="round" stroke-linecap="round" stroke-miterlimit="10" pointer-events="all"/><g fill="#324AB2" font-family="Ink Free" font-weight="bold" text-anchor="middle" font-size="17px"><text x="551.5" y="60.5">Sistema operativo</text><text x="551.5" y="80.5">(Núcleo)</text></g><rect x="472" y="241" width="160" height="40" fill="none" stroke="none" pointer-events="all"/><path d="M 473.14 241.83 L 633.44 240.22 L 630.16 279.49 L 472.86 281.29" fill="#ffffff" stroke="none" pointer-events="all"/><path d="M 472 241 C 527.66 241.37 580.7 240.55 632 241 M 472 241 C 507.27 241.07 542.51 240.38 632 241 M 632 241 C 633.7 254.99 629.81 271.53 632 281 M 632 241 C 631.77 251.1 632.25 258.89 632 281 M 632 281 C 586.28 281.3 543.46 282.86 472 281 M 632 281 C 567.69 281.64 505.34 281.74 472 281 M 472 281 C 472.5 273.02 473.71 263.22 472 241 M 472 281 C 472.4 269.93 472.15 259.95 472 241" fill="none" stroke="#324ab2" stroke-width="2" stroke-linejoin="round" stroke-linecap="round" stroke-miterlimit="10" pointer-events="all"/><g fill="#324AB2" font-family="Ink Free" font-weight="bold" text-anchor="middle" font-size="17px"><text x="551.5" y="265.5">Página B</text></g><rect x="472" y="201" width="160" height="40" fill="none" stroke="none" pointer-events="all"/><path d="M 470.67 200.06 L 633.55 201.93 L 631.99 242.02 L 472.46 239.27" fill="#ffffff" stroke="none" pointer-events="all"/><path d="M 472 201 C 526.51 198.41 582.38 201.79 632 201 M 472 201 C 517.98 200.32 564.31 198.84 632 201 M 632 201 C 633.83 210.57 632.81 219.18 632 241 M 632 201 C 631.07 209.88 632.44 218.46 632 241 M 632 241 C 595.83 242.72 557.15 241.77 472 241 M 632 241 C 594.38 242.1 556.52 241.09 472 241 M 472 241 C 470.48 227.38 472.22 209.76 472 201 M 472 241 C 472.67 231.79 472.59 223.59 472 201" fill="none" stroke="#324ab2" stroke-width="2" stroke-linejoin="round" stroke-linecap="round" stroke-miterlimit="10" pointer-events="all"/><g fill="#324AB2" font-family="Ink Free" font-weight="bold" text-anchor="middle" font-size="17px"><text x="551.5" y="225.5">Página A</text></g><rect x="472" y="281" width="160" height="40" fill="none" stroke="none" pointer-events="all"/><path d="M 472.19 282.29 L 633.66 279.64 L 633.81 320.54 L 472.05 321.26" fill="#ffffff" stroke="none" pointer-events="all"/><path d="M 472 281 C 525.37 282.65 580.06 282.23 632 281 M 472 281 C 530.7 280.77 588.12 282.51 632 281 M 632 281 C 633.17 290.15 631 302.83 632 321 M 632 281 C 632.37 296.66 632.64 312.03 632 321 M 632 321 C 569.38 320.94 502.83 317.49 472 321 M 632 321 C 587.08 322.57 543.69 322.43 472 321 M 472 321 C 473.26 309.73 471.53 296.29 472 281 M 472 321 C 471.74 305.64 471.82 291.22 472 281" fill="none" stroke="#324ab2" stroke-width="2" stroke-linejoin="round" stroke-linecap="round" stroke-miterlimit="10" pointer-events="all"/><g fill="#324AB2" font-family="Ink Free" font-weight="bold" text-anchor="middle" font-size="17px"><text x="551.5" y="305.5">Página C</text></g><rect x="462" y="422" width="180" height="50" fill="none" stroke="none" transform="translate(552,0)scale(-1,1)translate(-552,0)" pointer-events="all"/><g fill="#324AB2" font-family="Ink Free" font-weight="bold" text-anchor="middle" font-size="17px"><text x="551.5" y="441.5">Espacio de direcciones</text><text x="551.5" y="461.5">del proceso 2</text></g><rect x="0" y="422" width="180" height="50" fill="none" stroke="none" transform="translate(90,0)scale(-1,1)translate(-90,0)" pointer-events="all"/><g fill="#324AB2" font-family="Ink Free" font-weight="bold" text-anchor="middle" font-size="17px"><text x="89.5" y="441.5">Espacio de direcciones</text><text x="89.5" y="461.5">del proceso 1</text></g><rect x="232" y="111" width="182" height="301" fill="none" stroke="none" pointer-events="all"/><path d="M 232 111 C 289.82 111.61 345.24 111.17 414 111 M 232 111 C 270.08 109.11 306.94 110.2 414 111 M 414 111 C 413.85 200.17 411.57 287.87 414 412 M 414 111 C 412.56 188.18 412.19 265.11 414 412 M 414 412 C 371.56 410.31 328.88 413.96 232 412 M 414 412 C 368.62 410.39 324.71 410.73 232 412 M 232 412 C 234.39 324.41 232.69 235.52 232 111 M 232 412 C 230.43 297.4 230.35 181.03 232 111" fill="none" stroke="#324ab2" stroke-width="2" stroke-linejoin="round" stroke-linecap="round" stroke-miterlimit="10" pointer-events="all"/><rect x="242" y="121" width="160" height="281" fill="none" stroke="none" pointer-events="all"/><path d="M 242.29 120.67 C 242.29 120.67 242.29 120.67 242.29 120.67 M 242.29 120.67 C 242.29 120.67 242.29 120.67 242.29 120.67 M 241.77 133.46 C 243.43 129.11 248.01 125.1 252.92 120.63 M 241.77 133.46 C 245.16 128.69 248.75 125.08 252.92 120.63 M 241.9 145.5 C 249.17 139.94 253.99 134.93 262.89 121.35 M 241.9 145.5 C 247.04 139.5 252.81 133.45 262.89 121.35 M 242.03 157.54 C 250.07 147.56 256.14 139.63 273.52 121.32 M 242.03 157.54 C 253.37 144.07 266.73 129.54 273.52 121.32 M 242.17 169.58 C 250.7 158.01 263.02 146.55 284.15 121.28 M 242.17 169.58 C 254.76 154.44 267.43 139.83 284.15 121.28 M 242.3 181.63 C 264.47 157.71 282.78 133.39 294.78 121.25 M 242.3 181.63 C 263.04 157.73 281.62 136.6 294.78 121.25 M 241.78 194.42 C 268.35 166.03 291.36 135.57 305.41 121.21 M 241.78 194.42 C 266.05 167.9 289.03 140.32 305.41 121.21 M 241.91 206.46 C 259.04 189.45 274.63 170.51 316.04 121.18 M 241.91 206.46 C 264.32 180.68 286.49 154.65 316.04 121.18 M 242.04 218.5 C 274.15 185.17 302.41 146.86 326.67 121.15 M 242.04 218.5 C 264.77 191.69 288.97 165.07 326.67 121.15 M 242.18 230.54 C 266.5 202.15 293.61 168.93 337.3 121.11 M 242.18 230.54 C 272.77 193.68 302.29 159.2 337.3 121.11 M 242.31 242.58 C 264.47 212.79 286.58 189 347.93 121.08 M 242.31 242.58 C 267.7 212.24 294.84 181.28 347.93 121.08 M 241.79 255.38 C 281.46 205.08 326.32 159.63 358.56 121.04 M 241.79 255.38 C 276.05 216.56 309.72 178.43 358.56 121.04 M 241.92 267.42 C 290.2 212.08 336.05 157.64 369.19 121.01 M 241.92 267.42 C 283.22 220.45 324.13 173.31 369.19 121.01 M 242.05 279.46 C 287.2 226.32 332.06 173.93 379.82 120.97 M 242.05 279.46 C 290.11 221.97 339.92 166.81 379.82 120.97 M 242.19 291.5 C 295.25 228.08 350.48 165.55 390.46 120.94 M 242.19 291.5 C 288.98 236.42 336 182.59 390.46 120.94 M 242.32 303.54 C 290.82 246.46 340.24 192.18 401.09 120.9 M 242.32 303.54 C 298.69 238.82 354.46 173.06 401.09 120.9 M 241.8 316.34 C 295.86 251.26 351.79 185.44 407.78 125.4 M 241.8 316.34 C 282.91 269.58 322.9 222.58 407.78 125.4 M 241.93 328.38 C 283.96 279.95 326.7 232.15 407.26 138.19 M 241.93 328.38 C 280.02 284.32 318 239.03 407.26 138.19 M 242.06 340.42 C 298.1 276.11 353.97 213.71 407.39 150.23 M 242.06 340.42 C 293.81 279.93 345.22 220.08 407.39 150.23 M 242.2 352.46 C 304.5 279.29 368.3 208.63 407.52 162.27 M 242.2 352.46 C 279.73 308.21 318.01 264.18 407.52 162.27 M 241.67 365.26 C 306.15 292.67 368.98 218.41 407.66 174.32 M 241.67 365.26 C 299.97 299.43 357.27 232.98 407.66 174.32 M 241.81 377.3 C 304.38 307.77 362.99 237.3 407.79 186.36 M 241.81 377.3 C 289.26 324.67 335.12 271.36 407.79 186.36 M 241.94 389.34 C 285.63 340.52 326.07 291.42 407.27 199.15 M 241.94 389.34 C 301.51 321.34 358.31 255.09 407.27 199.15 M 242.07 401.38 C 295.75 337.81 349.03 278.19 407.4 211.19 M 242.07 401.38 C 276.55 359.65 311.98 319.08 407.4 211.19 M 247.45 407.38 C 292.69 358.14 335.15 309.91 407.53 223.23 M 247.45 407.38 C 299.08 346.99 349.92 286.63 407.53 223.23 M 258.08 407.35 C 295.54 367.45 331.37 323.09 407.67 235.27 M 258.08 407.35 C 312.22 345.03 365.88 283.37 407.67 235.27 M 268.71 407.31 C 312.68 357.14 356.06 308.68 407.14 248.07 M 268.71 407.31 C 307.52 363.87 345.07 320.4 407.14 248.07 M 279.34 407.28 C 323.05 357.41 369.15 304.52 407.28 260.11 M 279.34 407.28 C 323.66 356.87 367.91 304.87 407.28 260.11 M 289.97 407.25 C 315.36 376.57 342.33 349.66 407.41 272.15 M 289.97 407.25 C 336.29 353.84 381.67 299.72 407.41 272.15 M 300.6 407.21 C 336.58 367.89 366.93 329.43 407.54 284.19 M 300.6 407.21 C 331.15 373.02 362.23 337.49 407.54 284.19 M 311.23 407.18 C 344.4 367.91 382.23 324.89 407.67 296.23 M 311.23 407.18 C 338.58 376.08 367.08 342.66 407.67 296.23 M 321.86 407.14 C 348.14 377.01 372.04 349.66 407.15 309.03 M 321.86 407.14 C 337.92 386.65 355.75 367.96 407.15 309.03 M 332.49 407.11 C 352.85 382.17 375.15 355.29 407.28 321.07 M 332.49 407.11 C 358.37 377.35 384.46 347.87 407.28 321.07 M 343.12 407.07 C 360.32 389.13 376.24 368.99 407.42 333.11 M 343.12 407.07 C 357.77 390.83 370.26 375.71 407.42 333.11 M 353.75 407.04 C 371.8 389.78 385.02 370.49 407.55 345.15 M 353.75 407.04 C 374.18 384.03 391.49 363.55 407.55 345.15 M 364.38 407 C 377.71 390.84 389.84 380.51 407.68 357.19 M 364.38 407 C 378.49 390.29 393.82 373.8 407.68 357.19 M 375.01 406.97 C 383.44 397.45 388.74 392.46 407.16 369.99 M 375.01 406.97 C 384.56 395.71 394.3 385.11 407.16 369.99 M 385.64 406.93 C 389.55 402.7 395.02 397.03 407.29 382.03 M 385.64 406.93 C 391.75 400.51 397.52 392.03 407.29 382.03 M 396.27 406.9 C 397.7 402.08 402.52 402.2 407.43 394.07 M 396.27 406.9 C 400.68 402.14 404.82 398.19 407.43 394.07" fill="none" stroke="#c2bee6" stroke-linejoin="round" stroke-linecap="round" stroke-miterlimit="10" pointer-events="all"/><path d="M 242 121 C 291.85 122.01 339.28 121.77 402 121 M 242 121 C 286.29 121.69 329.74 122 402 121 M 402 121 C 404.35 212.86 404.16 303.56 402 402 M 402 121 C 400.42 185.96 400.72 250.64 402 402 M 402 402 C 338.21 401.71 276.76 402.85 242 402 M 402 402 C 356.72 401.04 310.69 400.26 242 402 M 242 402 C 240.35 336.89 242.03 271.81 242 121 M 242 402 C 243.33 308.64 241.84 214.9 242 121" fill="none" stroke="#324ab2" stroke-width="2" stroke-linejoin="round" stroke-linecap="round" stroke-miterlimit="10" pointer-events="all"/><rect x="242" y="231" width="160" height="40" fill="none" stroke="none" pointer-events="all"/><path d="M 243.57 232.37 L 402.39 231.4 L 401.67 270.19 L 242.18 269.02" fill="#ffffff" stroke="none" pointer-events="all"/><path d="M 242 231 C 293.57 229.28 342.64 229.44 402 231 M 242 231 C 277.72 230.19 313.36 230.93 402 231 M 402 231 C 401.93 247.1 403.4 262.66 402 271 M 402 231 C 402.21 245.84 402.39 262.36 402 271 M 402 271 C 353.31 273.55 300.13 273.69 242 271 M 402 271 C 342.11 270.96 285.04 269.96 242 271 M 242 271 C 242.78 258.48 242.05 245.66 242 231 M 242 271 C 242.44 262.08 242.83 252.5 242 231" fill="none" stroke="#324ab2" stroke-width="2" stroke-linejoin="round" stroke-linecap="round" stroke-miterlimit="10" pointer-events="all"/><g fill="#324AB2" font-family="Ink Free" font-weight="bold" text-anchor="middle" font-size="17px"><text x="321.5" y="255.5">Página B</text></g><rect x="242" y="141" width="160" height="40" fill="none" stroke="none" pointer-events="all"/><path d="M 241.09 140.6 L 402.5 139.11 L 403.49 182.72 L 241.77 181.01" fill="#ffffff" stroke="none" pointer-events="all"/><path d="M 242 141 C 292.43 143.52 340.32 139.88 402 141 M 242 141 C 288.44 142.64 335.17 142.6 402 141 M 402 141 C 402.06 148.67 402.4 160.31 402 181 M 402 141 C 401.51 154.62 402.59 169.93 402 181 M 402 181 C 358.86 180.96 313.81 182.6 242 181 M 402 181 C 368.81 181.42 334.22 181.31 242 181 M 242 181 C 240.77 170.83 240.56 162.19 242 141 M 242 181 C 242.71 165.93 241.26 150.14 242 141" fill="none" stroke="#324ab2" stroke-width="2" stroke-linejoin="round" stroke-linecap="round" stroke-miterlimit="10" pointer-events="all"/><g fill="#324AB2" font-family="Ink Free" font-weight="bold" text-anchor="middle" font-size="17px"><text x="321.5" y="165.5">Página A</text></g><rect x="242" y="311" width="160" height="40" fill="none" stroke="none" pointer-events="all"/><path d="M 242.62 312.83 L 402.62 310.83 L 401.31 351.25 L 241.36 352.99" fill="#ffffff" stroke="none" pointer-events="all"/><path d="M 242 311 C 291.28 310.56 342 311.12 402 311 M 242 311 C 301.15 311.88 358.98 311.06 402 311 M 402 311 C 401.4 322.25 400.59 333.96 402 351 M 402 311 C 402.81 323.4 402.79 337.5 402 351 M 402 351 C 364.41 352.38 323.5 351.52 242 351 M 402 351 C 361.51 351.88 321.39 350.66 242 351 M 242 351 C 243.55 335.18 243.87 318.73 242 311 M 242 351 C 241.78 337.79 242.5 323.77 242 311" fill="none" stroke="#324ab2" stroke-width="2" stroke-linejoin="round" stroke-linecap="round" stroke-miterlimit="10" pointer-events="all"/><g fill="#324AB2" font-family="Ink Free" font-weight="bold" text-anchor="middle" font-size="17px"><text x="321.5" y="335.5">Página C</text></g><rect x="232" y="422" width="180" height="50" fill="none" stroke="none" transform="translate(322,0)scale(-1,1)translate(-322,0)" pointer-events="all"/><g fill="#324AB2" font-family="Ink Free" font-weight="bold" text-anchor="middle" font-size="17px"><text x="321.5" y="451.5">Memoria física</text></g><path d="M 232.33 169.29 L 172 221" fill="none" stroke="none" pointer-events="stroke"/><path d="M 240.3 162.46 L 234.23 176.88 L 232.33 169.29 L 225.12 166.25 Z" fill="none" stroke="none" pointer-events="all"/><path d="M 232.33 169.29 M 232.33 169.29 C 212.84 184.63 193.81 202.21 172 221 M 232.33 169.29 C 210.92 188.19 187.78 206.67 172 221" fill="none" stroke="#324ab2" stroke-width="2" stroke-linejoin="round" stroke-linecap="round" stroke-miterlimit="10" pointer-events="stroke"/><path d="M 224.9 166.5 C 224.9 166.5 224.9 166.5 224.9 166.5 M 224.9 166.5 C 224.9 166.5 224.9 166.5 224.9 166.5 M 232.91 169.49 C 234.16 166.66 237.43 164.15 238.81 162.69 M 232.91 169.49 C 234.51 167.08 236.55 165.55 238.81 162.69" fill="none" stroke="#324ab2" stroke-linejoin="round" stroke-linecap="round" stroke-miterlimit="10" pointer-events="all"/><path d="M 240.3 162.46 M 240.3 162.46 C 239.69 166.48 237.1 170.95 234.23 176.88 M 240.3 162.46 C 239.03 166.43 236.98 169.55 234.23 176.88 M 234.23 176.88 C 233.89 174.3 232.35 172.14 232.33 169.29 M 234.23 176.88 C 233.34 174.52 233.06 171.88 232.33 169.29 M 232.33 169.29 C 230.06 168.91 228.65 168.27 225.12 166.25 M 232.33 169.29 C 230.59 168.8 228.06 167.4 225.12 166.25 M 225.12 166.25 C 229.53 163.63 235.57 164.77 240.3 162.46 M 225.12 166.25 C 228.52 166.03 233.46 163.83 240.3 162.46" fill="none" stroke="#324ab2" stroke-width="2" stroke-linejoin="round" stroke-linecap="round" stroke-miterlimit="10" pointer-events="all"/><path d="M 229.4 252.89 L 172 261.5" fill="none" stroke="none" pointer-events="stroke"/><path d="M 239.79 251.33 L 226.98 260.33 L 229.4 252.89 L 224.91 246.49 Z" fill="none" stroke="none" pointer-events="all"/><path d="M 229.4 252.89 M 229.4 252.89 C 213.6 257.34 194.3 257.75 172 261.5 M 229.4 252.89 C 215.71 254.36 202.55 257.25 172 261.5" fill="none" stroke="#324ab2" stroke-width="2" stroke-linejoin="round" stroke-linecap="round" stroke-miterlimit="10" pointer-events="stroke"/><path d="M 225.15 246.22 C 225.15 246.22 225.15 246.22 225.15 246.22 M 225.15 246.22 C 225.15 246.22 225.15 246.22 225.15 246.22 M 229.87 252.97 C 231.54 251.77 232.19 249.91 233.15 249.2 M 229.87 252.97 C 230.99 251.66 231.76 250.84 233.15 249.2" fill="none" stroke="#324ab2" stroke-linejoin="round" stroke-linecap="round" stroke-miterlimit="10" pointer-events="all"/><path d="M 239.79 251.33 M 239.79 251.33 C 237.35 254.37 234.93 255.04 226.98 260.33 M 239.79 251.33 C 235.71 254.27 232.09 256.98 226.98 260.33 M 226.98 260.33 C 227.31 258.2 228.75 257.24 229.4 252.89 M 226.98 260.33 C 227.57 258.36 228.66 256.06 229.4 252.89 M 229.4 252.89 C 228.13 250.38 227.35 249.15 224.91 246.49 M 229.4 252.89 C 227.57 250.66 226.17 248.05 224.91 246.49 M 224.91 246.49 C 228.72 248.15 233.79 247.68 239.79 251.33 M 224.91 246.49 C 228.58 248.21 230.57 248.27 239.79 251.33" fill="none" stroke="#324ab2" stroke-width="2" stroke-linejoin="round" stroke-linecap="round" stroke-miterlimit="10" pointer-events="all"/><path d="M 230.34 326.63 L 172 301" fill="none" stroke="none" pointer-events="stroke"/><path d="M 239.95 330.85 L 224.32 331.63 L 230.34 326.63 L 229.95 318.81 Z" fill="none" stroke="none" pointer-events="all"/><path d="M 230.34 326.63 M 230.34 326.63 C 212.92 318.96 192.16 308.95 172 301 M 230.34 326.63 C 211.41 318.71 193.42 310.88 172 301" fill="none" stroke="#324ab2" stroke-width="2" stroke-linejoin="round" stroke-linecap="round" stroke-miterlimit="10" pointer-events="stroke"/><path d="M 229.71 319.08 C 229.71 319.08 229.71 319.08 229.71 319.08 M 229.71 319.08 C 229.71 319.08 229.71 319.08 229.71 319.08 M 227.22 334.14 C 229.78 331.69 231.74 330.32 235.09 325.09 M 227.22 334.14 C 229.22 332.22 231.42 329.17 235.09 325.09" fill="none" stroke="#324ab2" stroke-linejoin="round" stroke-linecap="round" stroke-miterlimit="10" pointer-events="all"/><path d="M 239.95 330.85 M 239.95 330.85 C 237.02 329.67 232.94 332.65 224.32 331.63 M 239.95 330.85 C 233.67 331.37 229.33 330.65 224.32 331.63 M 224.32 331.63 C 227.3 329.38 229.14 327.47 230.34 326.63 M 224.32 331.63 C 225.95 330.54 227.04 329.11 230.34 326.63 M 230.34 326.63 C 229.51 323.8 230.31 320.65 229.95 318.81 M 230.34 326.63 C 230.46 324.58 229.9 322.57 229.95 318.81 M 229.95 318.81 C 234.54 321.85 236.94 326.28 239.95 330.85 M 229.95 318.81 C 233.73 324.04 237.1 327.88 239.95 330.85" fill="none" stroke="#324ab2" stroke-width="2" stroke-linejoin="round" stroke-linecap="round" stroke-miterlimit="10" pointer-events="all"/><path d="M 411.67 169.29 L 472 221" fill="none" stroke="none" pointer-events="stroke"/><path d="M 403.7 162.46 L 418.88 166.25 L 411.67 169.29 L 409.77 176.88 Z" fill="none" stroke="none" pointer-events="all"/><path d="M 411.67 169.29 M 411.67 169.29 C 430.44 184.8 449.3 202.98 472 221 M 411.67 169.29 C 435.01 188.92 457.55 207.89 472 221" fill="none" stroke="#324ab2" stroke-width="2" stroke-linejoin="round" stroke-linecap="round" stroke-miterlimit="10" pointer-events="stroke"/><path d="M 403.47 162.73 C 403.47 162.73 403.47 162.73 403.47 162.73 M 403.47 162.73 C 403.47 162.73 403.47 162.73 403.47 162.73 M 406.88 170.99 C 408.67 170.04 409.7 168.38 412.13 164.96 M 406.88 170.99 C 407.76 169.84 409.46 167.87 412.13 164.96" fill="none" stroke="#324ab2" stroke-linejoin="round" stroke-linecap="round" stroke-miterlimit="10" pointer-events="all"/><path d="M 403.7 162.46 M 403.7 162.46 C 408.89 163.4 414.98 165.64 418.88 166.25 M 403.7 162.46 C 409.92 164.41 416.37 165.61 418.88 166.25 M 418.88 166.25 C 416.53 167.08 413.8 168.86 411.67 169.29 M 418.88 166.25 C 415.83 167.48 413.61 168.3 411.67 169.29 M 411.67 169.29 C 411.08 170.69 410.28 173.32 409.77 176.88 M 411.67 169.29 C 410.73 172.17 410.38 174.79 409.77 176.88 M 409.77 176.88 C 407.83 174.32 406.33 170.36 403.7 162.46 M 409.77 176.88 C 406.94 172.66 405.24 167.29 403.7 162.46" fill="none" stroke="#324ab2" stroke-width="2" stroke-linejoin="round" stroke-linecap="round" stroke-miterlimit="10" pointer-events="all"/><path d="M 414.61 252.8 L 472 261" fill="none" stroke="none" pointer-events="stroke"/><path d="M 404.21 251.32 L 419.06 246.37 L 414.61 252.8 L 417.08 260.23 Z" fill="none" stroke="none" pointer-events="all"/><path d="M 414.61 252.8 M 414.61 252.8 C 431.02 254.25 451.8 259.13 472 261 M 414.61 252.8 C 428.61 255.85 444.26 258.43 472 261" fill="none" stroke="#324ab2" stroke-width="2" stroke-linejoin="round" stroke-linecap="round" stroke-miterlimit="10" pointer-events="stroke"/><path d="M 404.46 251.04 C 404.46 251.04 404.46 251.04 404.46 251.04 M 404.46 251.04 C 404.46 251.04 404.46 251.04 404.46 251.04 M 411.15 255.53 C 413.76 252.73 414.91 251.53 419.02 246.47 M 411.15 255.53 C 413.18 253.85 414.88 252.18 419.02 246.47" fill="none" stroke="#324ab2" stroke-linejoin="round" stroke-linecap="round" stroke-miterlimit="10" pointer-events="all"/><path d="M 404.21 251.32 M 404.21 251.32 C 408.31 250.15 415.26 247.46 419.06 246.37 M 404.21 251.32 C 407.33 250.68 410.51 248.34 419.06 246.37 M 419.06 246.37 C 417.27 247.84 415.94 249.51 414.61 252.8 M 419.06 246.37 C 417.48 248.55 415.82 250.3 414.61 252.8 M 414.61 252.8 C 415.98 255.44 416.86 257.72 417.08 260.23 M 414.61 252.8 C 415.41 254.76 415.7 256.93 417.08 260.23 M 417.08 260.23 C 413.53 256.75 410.22 255.31 404.21 251.32 M 417.08 260.23 C 413.4 258.2 409.06 255.31 404.21 251.32" fill="none" stroke="#324ab2" stroke-width="2" stroke-linejoin="round" stroke-linecap="round" stroke-miterlimit="10" pointer-events="all"/><path d="M 413.71 325.98 L 472 301" fill="none" stroke="none" pointer-events="stroke"/><path d="M 404.06 330.12 L 414.17 318.17 L 413.71 325.98 L 419.68 331.04 Z" fill="none" stroke="none" pointer-events="all"/><path d="M 413.71 325.98 M 413.71 325.98 C 433.42 319.4 449.3 310.19 472 301 M 413.71 325.98 C 433.19 318.72 450.84 310.34 472 301" fill="none" stroke="#324ab2" stroke-width="2" stroke-linejoin="round" stroke-linecap="round" stroke-miterlimit="10" pointer-events="stroke"/><path d="M 414.36 317.95 C 414.36 317.95 414.36 317.95 414.36 317.95 M 414.36 317.95 C 414.36 317.95 414.36 317.95 414.36 317.95 M 409.9 335.27 C 412.18 333.67 414.8 329.73 416.46 327.72 M 409.9 335.27 C 412.35 332.4 415.36 329.57 416.46 327.72" fill="none" stroke="#324ab2" stroke-linejoin="round" stroke-linecap="round" stroke-miterlimit="10" pointer-events="all"/><path d="M 404.06 330.12 M 404.06 330.12 C 405.61 328.02 409.05 324.7 414.17 318.17 M 404.06 330.12 C 407.47 327.42 409.19 323.63 414.17 318.17 M 414.17 318.17 C 414.59 319.58 414.58 321.88 413.71 325.98 M 414.17 318.17 C 414.26 320.39 414.02 322.94 413.71 325.98 M 413.71 325.98 C 414.73 326.33 416.38 327.86 419.68 331.04 M 413.71 325.98 C 416.39 327.72 418.27 330.09 419.68 331.04 M 419.68 331.04 C 412.07 331.71 407.41 331.58 404.06 330.12 M 419.68 331.04 C 415.11 331.53 411.28 329.82 404.06 330.12" fill="none" stroke="#324ab2" stroke-width="2" stroke-linejoin="round" stroke-linecap="round" stroke-miterlimit="10" pointer-events="all"/></g></svg>