<?xml version="1.0" encoding="UTF-8"?>
<!DOCTYPE svg PUBLIC "-//W3C//DTD SVG 1.1//EN" "http://www.w3.org/Graphics/SVG/1.1/DTD/svg11.dtd">
<svg xmlns="http://www.w3.org/2000/svg" xmlns:xlink="http://www.w3.org/1999/xlink" version="1.1" width="521px" height="164px" viewBox="-0.5 -0.5 521 164"><defs><style type="text/css">@font-face {&#xa;font-family: "Ink Free";&#xa;src: url("https://ull-esit-sistemas-operativos.github.io/ssoo-apuntes/fonts/InkFree.woff");&#xa;}&#xa;</style></defs><g><rect x="0" y="0" width="520" height="40" fill="none" stroke="none" transform="translate(260,0)scale(-1,1)translate(-260,0)" pointer-events="all"/><g fill="#324AB2" font-family="Ink Free" font-weight="bold" font-size="17px"><text x="1.5" y="24.5">... 2 6 1 5 7 7 7 7 5 1 6 2 3 4 1 2 3 4 4 4 3 4 3 4 4 4 1 3 2 3 4 ...</text></g><path d="M 130 41.74 L 130 99" fill="none" stroke="none" pointer-events="stroke"/><path d="M 130 31.24 L 137 45.24 L 130 41.74 L 123 45.24 Z" fill="none" stroke="none" pointer-events="all"/><path d="M 130 41.74 M 130 41.74 C 130.21 64.28 127.73 84.4 130 99 M 130 41.74 C 131.04 62.64 130.02 83.3 130 99" fill="none" stroke="#324ab2" stroke-width="2" stroke-linejoin="round" stroke-linecap="round" stroke-miterlimit="10" pointer-events="stroke"/><path d="M 130.26 30.94 C 130.26 30.94 130.26 30.94 130.26 30.94 M 130.26 30.94 C 130.26 30.94 130.26 30.94 130.26 30.94 M 131.05 42.22 C 131.65 41.24 132.64 40.17 133.68 39.2 M 131.05 42.22 C 132 41.26 132.86 39.97 133.68 39.2" fill="none" stroke="#324ab2" stroke-linejoin="round" stroke-linecap="round" stroke-miterlimit="10" pointer-events="all"/><path d="M 130 31.24 M 130 31.24 C 132.05 35.96 134.47 39.62 137 45.24 M 130 31.24 C 131.64 35.63 134.15 41.51 137 45.24 M 137 45.24 C 134.95 43.3 131.4 42.05 130 41.74 M 137 45.24 C 134.32 44.23 132.4 42.91 130 41.74 M 130 41.74 C 126.69 43.88 124.89 44.04 123 45.24 M 130 41.74 C 127.96 42.96 126.39 43.52 123 45.24 M 123 45.24 C 126.02 42 125.05 37.66 130 31.24 M 123 45.24 C 125.6 39.51 128.47 34.03 130 31.24" fill="none" stroke="#324ab2" stroke-width="2" stroke-linejoin="round" stroke-linecap="round" stroke-miterlimit="10" pointer-events="all"/><path d="M 330 41.74 L 330 99" fill="none" stroke="none" pointer-events="stroke"/><path d="M 330 31.24 L 337 45.24 L 330 41.74 L 323 45.24 Z" fill="none" stroke="none" pointer-events="all"/><path d="M 330 41.74 M 330 41.74 C 329.17 63.25 329.51 83.56 330 99 M 330 41.74 C 330.32 55.53 330.87 68.07 330 99" fill="none" stroke="#324ab2" stroke-width="2" stroke-linejoin="round" stroke-linecap="round" stroke-miterlimit="10" pointer-events="stroke"/><path d="M 330.13 31.1 C 330.13 31.1 330.13 31.1 330.13 31.1 M 330.13 31.1 C 330.13 31.1 330.13 31.1 330.13 31.1 M 330.92 42.38 C 332.06 41.34 332.47 40.28 334.2 38.61 M 330.92 42.38 C 331.9 41.2 333.11 39.62 334.2 38.61" fill="none" stroke="#324ab2" stroke-linejoin="round" stroke-linecap="round" stroke-miterlimit="10" pointer-events="all"/><path d="M 330 31.24 M 330 31.24 C 331.29 36.29 334.99 37.45 337 45.24 M 330 31.24 C 333.08 36.3 335.11 41.88 337 45.24 M 337 45.24 C 334.81 43.51 331.88 43.18 330 41.74 M 337 45.24 C 334.94 44.37 333.43 43.16 330 41.74 M 330 41.74 C 328.27 42.6 326.09 43.01 323 45.24 M 330 41.74 C 327.6 43.28 324.59 44.54 323 45.24 M 323 45.24 C 324.73 39.5 328.33 36 330 31.24 M 323 45.24 C 324.79 40 328.19 35.29 330 31.24" fill="none" stroke="#324ab2" stroke-width="2" stroke-linejoin="round" stroke-linecap="round" stroke-miterlimit="10" pointer-events="all"/><path d="M 117.26 79 L 32.74 79" fill="none" stroke="none" pointer-events="stroke"/><path d="M 127.76 79 L 113.76 86 L 117.26 79 L 113.76 72 Z" fill="none" stroke="none" pointer-events="all"/><path d="M 22.24 79 L 36.24 72 L 32.74 79 L 36.24 86 Z" fill="none" stroke="none" pointer-events="all"/><path d="M 117.26 79 M 117.26 79 C 86.84 80.73 57.21 77.03 32.74 79 M 117.26 79 C 96.22 79.13 76.95 80.32 32.74 79" fill="none" stroke="#324ab2" stroke-width="2" stroke-linejoin="round" stroke-linecap="round" stroke-miterlimit="10" pointer-events="stroke"/><path d="M 113.64 72.14 C 113.64 72.14 113.64 72.14 113.64 72.14 M 113.64 72.14 C 113.64 72.14 113.64 72.14 113.64 72.14 M 117.71 79.65 C 118.93 78.83 119.83 77.37 120.99 75.87 M 117.71 79.65 C 118.85 78.58 119.5 77.62 120.99 75.87" fill="none" stroke="#324ab2" stroke-linejoin="round" stroke-linecap="round" stroke-miterlimit="10" pointer-events="all"/><path d="M 127.76 79 M 127.76 79 C 123.86 82.26 119.02 82.49 113.76 86 M 127.76 79 C 123.39 81.06 119.09 83.86 113.76 86 M 113.76 86 C 114.81 83 115.92 81.95 117.26 79 M 113.76 86 C 114.8 83.65 115.87 81.66 117.26 79 M 117.26 79 C 116.85 77.35 114.92 75.19 113.76 72 M 117.26 79 C 115.9 77.01 115.39 75.4 113.76 72 M 113.76 72 C 119.09 75.75 125.24 76.55 127.76 79 M 113.76 72 C 117.77 73.32 119.72 75.88 127.76 79" fill="none" stroke="#324ab2" stroke-width="2" stroke-linejoin="round" stroke-linecap="round" stroke-miterlimit="10" pointer-events="all"/><path d="M 22.34 78.89 C 22.34 78.89 22.34 78.89 22.34 78.89 M 22.34 78.89 C 22.34 78.89 22.34 78.89 22.34 78.89 M 29.69 82.63 C 30.9 81.81 31.8 80.36 32.97 78.86 M 29.69 82.63 C 30.82 81.56 31.47 80.6 32.97 78.86" fill="none" stroke="#324ab2" stroke-linejoin="round" stroke-linecap="round" stroke-miterlimit="10" pointer-events="all"/><path d="M 22.24 79 M 22.24 79 C 28.48 77.39 33.65 72.61 36.24 72 M 22.24 79 C 26.59 76.64 31.13 75.03 36.24 72 M 36.24 72 C 34.96 73.77 33.69 77.5 32.74 79 M 36.24 72 C 34.92 74.32 33.62 77.07 32.74 79 M 32.74 79 C 34.4 81.59 34.59 83.68 36.24 86 M 32.74 79 C 33.33 80.76 34.69 82.89 36.24 86 M 36.24 86 C 30.38 84.14 25.39 79.37 22.24 79 M 36.24 86 C 33.57 83.83 28.95 83.1 22.24 79" fill="none" stroke="#324ab2" stroke-width="2" stroke-linejoin="round" stroke-linecap="round" stroke-miterlimit="10" pointer-events="all"/><path d="M 317.26 79 L 232.74 79" fill="none" stroke="none" pointer-events="stroke"/><path d="M 327.76 79 L 313.76 86 L 317.26 79 L 313.76 72 Z" fill="none" stroke="none" pointer-events="all"/><path d="M 222.24 79 L 236.24 72 L 232.74 79 L 236.24 86 Z" fill="none" stroke="none" pointer-events="all"/><path d="M 317.26 79 M 317.26 79 C 285.69 79.02 254.89 79.52 232.74 79 M 317.26 79 C 291.33 78.16 263.55 78.57 232.74 79" fill="none" stroke="#324ab2" stroke-width="2" stroke-linejoin="round" stroke-linecap="round" stroke-miterlimit="10" pointer-events="stroke"/><path d="M 313.5 72.3 C 313.5 72.3 313.5 72.3 313.5 72.3 M 313.5 72.3 C 313.5 72.3 313.5 72.3 313.5 72.3 M 317.57 79.81 C 318.84 78.41 319.57 77.5 320.85 76.03 M 317.57 79.81 C 318.43 78.76 319.22 77.84 320.85 76.03" fill="none" stroke="#324ab2" stroke-linejoin="round" stroke-linecap="round" stroke-miterlimit="10" pointer-events="all"/><path d="M 327.76 79 M 327.76 79 C 324.05 79.77 318.17 84.03 313.76 86 M 327.76 79 C 322.17 81.48 318.1 83.7 313.76 86 M 313.76 86 C 314.07 83.4 315.18 81.91 317.26 79 M 313.76 86 C 314.82 83.95 315.78 82.24 317.26 79 M 317.26 79 C 315.61 75.97 315.29 73.97 313.76 72 M 317.26 79 C 315.89 76.24 314.29 73.51 313.76 72 M 313.76 72 C 318.66 73.5 320.92 75.54 327.76 79 M 313.76 72 C 319.42 74.42 324.45 78.4 327.76 79" fill="none" stroke="#324ab2" stroke-width="2" stroke-linejoin="round" stroke-linecap="round" stroke-miterlimit="10" pointer-events="all"/><path d="M 222.2 79.05 C 222.2 79.05 222.2 79.05 222.2 79.05 M 222.2 79.05 C 222.2 79.05 222.2 79.05 222.2 79.05 M 229.55 82.79 C 230.81 81.39 231.54 80.48 232.83 79.02 M 229.55 82.79 C 230.41 81.74 231.19 80.82 232.83 79.02" fill="none" stroke="#324ab2" stroke-linejoin="round" stroke-linecap="round" stroke-miterlimit="10" pointer-events="all"/><path d="M 222.24 79 M 222.24 79 C 227.33 75.39 230.38 75.18 236.24 72 M 222.24 79 C 226.62 76.43 232.54 73.67 236.24 72 M 236.24 72 C 234.54 73.36 233.69 75.81 232.74 79 M 236.24 72 C 235.4 73.96 234.34 76.3 232.74 79 M 232.74 79 C 233.85 81.27 236.2 84.58 236.24 86 M 232.74 79 C 234.01 81.31 234.97 83.71 236.24 86 M 236.24 86 C 233.2 83.54 227.51 81.62 222.24 79 M 236.24 86 C 230.69 82.73 224.57 81.13 222.24 79" fill="none" stroke="#324ab2" stroke-width="2" stroke-linejoin="round" stroke-linecap="round" stroke-miterlimit="10" pointer-events="all"/><rect x="20" y="49" width="110" height="31" fill="none" stroke="none" transform="translate(75,0)scale(-1,1)translate(-75,0)" pointer-events="all"/><g fill="#324AB2" font-family="Ink Free" font-weight="bold" text-anchor="middle" font-size="17px"><text x="74.5" y="69">Δ</text></g><rect x="220" y="49" width="110" height="31" fill="none" stroke="none" transform="translate(275,0)scale(-1,1)translate(-275,0)" pointer-events="all"/><g fill="#324AB2" font-family="Ink Free" font-weight="bold" text-anchor="middle" font-size="17px"><text x="274.5" y="69">Δ</text></g><g fill="#324AB2" font-family="Ink Free" font-weight="bold" pointer-events="none" text-anchor="middle" font-size="17px"><text x="129.5" y="119">t </text></g><g fill="#324AB2" font-family="Ink Free" font-weight="bold" pointer-events="none" text-anchor="middle" font-size="14px"><text x="135.5" y="122.5">1</text></g><g fill="#324AB2" font-family="Ink Free" font-weight="bold" pointer-events="none" text-anchor="middle" font-size="17px"><text x="329.5" y="116">t </text></g><g fill="#324AB2" font-family="Ink Free" font-weight="bold" pointer-events="none" text-anchor="middle" font-size="14px"><text x="335.5" y="119.5"> 2</text></g><g fill="#324AB2" font-family="Ink Free" font-weight="bold" pointer-events="none" font-size="17px"><text x="11.5" y="149.5">WSS  = {1,2,5,6,7}</text></g><g fill="#324AB2" font-family="Ink Free" font-weight="bold" pointer-events="none" font-size="14px"><text x="45.5" y="152.5">1</text></g><g fill="#324AB2" font-family="Ink Free" font-weight="bold" pointer-events="none" font-size="17px"><text x="211.5" y="148.5">WSS   = {1,2,3,4}</text></g><g fill="#324AB2" font-family="Ink Free" font-weight="bold" pointer-events="none" text-anchor="middle" font-size="14px"><text x="250.5" y="152.5">2</text></g></g></svg>