<?xml version="1.0" encoding="UTF-8" standalone="no"?>
<svg
   xmlns:ooo="http://xml.openoffice.org/svg/export"
   xmlns:dc="http://purl.org/dc/elements/1.1/"
   xmlns:cc="http://creativecommons.org/ns#"
   xmlns:rdf="http://www.w3.org/1999/02/22-rdf-syntax-ns#"
   xmlns:svg="http://www.w3.org/2000/svg"
   xmlns="http://www.w3.org/2000/svg"
   xmlns:sodipodi="http://sodipodi.sourceforge.net/DTD/sodipodi-0.dtd"
   xmlns:inkscape="http://www.inkscape.org/namespaces/inkscape"
   version="1.2"
   width="638.85828"
   height="409.11023"
   viewBox="0 0 18030.001 11546"
   preserveAspectRatio="xMidYMid"
   clip-path="url(#presentation_clip_path)"
   xml:space="preserve"
   id="svg2"
   inkscape:version="0.48.4 r9939"
   sodipodi:docname="estructura_msdos.svg"
   style="fill-rule:evenodd;stroke-width:28.22200012;stroke-linejoin:round"><metadata
     id="metadata203"><rdf:RDF><cc:Work
         rdf:about=""><dc:format>image/svg+xml</dc:format><dc:type
           rdf:resource="http://purl.org/dc/dcmitype/StillImage" /></cc:Work></rdf:RDF></metadata><sodipodi:namedview
     pagecolor="#ffffff"
     bordercolor="#666666"
     borderopacity="1"
     objecttolerance="10"
     gridtolerance="10"
     guidetolerance="10"
     inkscape:pageopacity="0"
     inkscape:pageshadow="2"
     inkscape:window-width="640"
     inkscape:window-height="480"
     id="namedview201"
     showgrid="false"
     fit-margin-top="0"
     fit-margin-left="0"
     fit-margin-right="0"
     fit-margin-bottom="0"
     inkscape:zoom="0.20813889"
     inkscape:cx="704.40944"
     inkscape:cy="-82.700786"
     inkscape:window-x="0"
     inkscape:window-y="0"
     inkscape:window-maximized="0"
     inkscape:current-layer="svg2" /><defs
     class="ClipPathGroup"
     id="defs4"><clipPath
       id="presentation_clip_path"
       clipPathUnits="userSpaceOnUse"><rect
         x="0"
         y="0"
         width="45000"
         height="32000"
         id="rect7" /></clipPath></defs><defs
     class="TextShapeIndex"
     id="defs9"><g
       ooo:slide="id1"
       ooo:id-list="id3 id4 id5 id6 id7 id8 id9 id10 id11 id12 id13 id14 id15 id16 id17"
       id="g11" /></defs><defs
     class="EmbeddedBulletChars"
     id="defs13"><g
       id="bullet-char-template(57356)"
       transform="scale(4.8828125e-4,-4.8828125e-4)"><path
         d="M 580,1141 1163,571 580,0 -4,571 580,1141 z"
         id="path16"
         inkscape:connector-curvature="0" /></g><g
       id="bullet-char-template(57354)"
       transform="scale(4.8828125e-4,-4.8828125e-4)"><path
         d="m 8,1128 1129,0 L 1137,0 8,0 8,1128 z"
         id="path19"
         inkscape:connector-curvature="0" /></g><g
       id="bullet-char-template(10146)"
       transform="scale(4.8828125e-4,-4.8828125e-4)"><path
         d="M 174,0 602,739 174,1481 1456,739 174,0 z m 1184,739 -1049,607 350,-607 699,0 z"
         id="path22"
         inkscape:connector-curvature="0" /></g><g
       id="bullet-char-template(10132)"
       transform="scale(4.8828125e-4,-4.8828125e-4)"><path
         d="M 2015,739 1276,0 717,0 l 543,543 -1086,0 0,393 1086,0 -543,545 557,0 741,-742 z"
         id="path25"
         inkscape:connector-curvature="0" /></g><g
       id="bullet-char-template(10007)"
       transform="scale(4.8828125e-4,-4.8828125e-4)"><path
         d="m 0,-2 c -7,16 -16,29 -25,39 l 381,530 c -94,256 -141,385 -141,387 0,25 13,38 40,38 9,0 21,-2 34,-5 21,4 42,12 65,25 l 27,-13 111,-251 280,301 64,-25 24,25 c 21,-10 41,-24 62,-43 C 886,937 835,863 770,784 769,783 710,716 594,584 L 774,223 c 0,-27 -21,-55 -63,-84 l 16,-20 C 717,90 699,76 672,76 641,76 570,178 457,381 L 164,-76 c -22,-34 -53,-51 -92,-51 -42,0 -63,17 -64,51 -7,9 -10,24 -10,44 0,9 1,19 2,30 z"
         id="path28"
         inkscape:connector-curvature="0" /></g><g
       id="bullet-char-template(10004)"
       transform="scale(4.8828125e-4,-4.8828125e-4)"><path
         d="M 285,-33 C 182,-33 111,30 74,156 52,228 41,333 41,471 c 0,78 14,145 41,201 34,71 87,106 158,106 53,0 88,-31 106,-94 l 23,-176 c 8,-64 28,-97 59,-98 l 735,706 c 11,11 33,17 66,17 42,0 63,-15 63,-46 l 0,-122 c 0,-36 -10,-64 -30,-84 L 442,47 C 390,-6 338,-33 285,-33 z"
         id="path31"
         inkscape:connector-curvature="0" /></g><g
       id="bullet-char-template(9679)"
       transform="scale(4.8828125e-4,-4.8828125e-4)"><path
         d="M 813,0 C 632,0 489,54 383,161 276,268 223,411 223,592 c 0,181 53,324 160,431 106,107 249,161 430,161 179,0 323,-54 432,-161 108,-107 162,-251 162,-431 0,-180 -54,-324 -162,-431 C 1136,54 992,0 813,0 z"
         id="path34"
         inkscape:connector-curvature="0" /></g><g
       id="bullet-char-template(8226)"
       transform="scale(4.8828125e-4,-4.8828125e-4)"><path
         d="m 346,457 c -73,0 -137,26 -191,78 -54,51 -81,114 -81,188 0,73 27,136 81,188 54,52 118,78 191,78 73,0 134,-26 185,-79 51,-51 77,-114 77,-187 0,-75 -25,-137 -76,-188 -50,-52 -112,-78 -186,-78 z"
         id="path37"
         inkscape:connector-curvature="0" /></g><g
       id="bullet-char-template(8211)"
       transform="scale(4.8828125e-4,-4.8828125e-4)"><path
         d="m -4,459 1139,0 0,147 -1139,0 0,-147 z"
         id="path40"
         inkscape:connector-curvature="0" /></g></defs><defs
     class="TextEmbeddedBitmaps"
     id="defs42" /><g
     id="g44"
     transform="translate(-2620,-2120.0004)"><g
       id="id2"
       class="Master_Slide"><g
         id="bg-id2"
         class="Background" /><g
         id="bo-id2"
         class="BackgroundObjects" /></g></g><g
     class="SlideGroup"
     id="g49"
     transform="translate(-2620,-2120.0004)"><g
       id="g51"><g
         id="id1"
         class="Slide"
         clip-path="url(#presentation_clip_path)"><g
           class="Page"
           id="g54"><g
             class="com.sun.star.drawing.RectangleShape"
             id="g56"><g
               id="id3"><path
                 d="m 11635,3651 8700,0 c 166,0 300,-134 300,-300 l 0,-916 c 0,-166 -134,-300 -300,-300 l -17400,0 c -166,0 -300,134 -300,300 l 0,916 c 0,166 134,300 300,300 l 8700,0 z"
                 id="path59"
                 inkscape:connector-curvature="0"
                 style="fill:#94bd5e;stroke:none" /><path
                 d="m 11635,3651 8700,0 c 166,0 300,-134 300,-300 l 0,-916 c 0,-166 -134,-300 -300,-300 l -17400,0 c -166,0 -300,134 -300,300 l 0,916 c 0,166 134,300 300,300 l 8700,0 z"
                 id="path61"
                 inkscape:connector-curvature="0"
                 style="fill:none;stroke:#000000;stroke-width:30" /><text
                 class="TextShape"
                 id="text63"><tspan
                   class="TextParagraph"
                   font-size="494px"
                   font-weight="400"
                   id="tspan65"
                   style="font-size:494px;font-weight:400;font-family:'Liberation Sans, sans-serif'"><tspan
                     class="TextPosition"
                     x="10769"
                     y="3065"
                     id="tspan67"><tspan
                       id="tspan69"
                       style="fill:#000000;stroke:none">aplicaciones</tspan></tspan></tspan></text>
</g></g><g
             class="com.sun.star.drawing.RectangleShape"
             id="g71"><g
               id="id4"><path
                 d="m 14090,6149 6245,0 c 166,0 300,-134 300,-300 l 0,-914 c 0,-166 -134,-300 -300,-300 l -12490,0 c -166,0 -300,134 -300,300 l 0,914 c 0,166 134,300 300,300 l 6245,0 z"
                 id="path74"
                 inkscape:connector-curvature="0"
                 style="fill:#ffff99;stroke:none" /><path
                 d="m 14090,6149 6245,0 c 166,0 300,-134 300,-300 l 0,-914 c 0,-166 -134,-300 -300,-300 l -12490,0 c -166,0 -300,134 -300,300 l 0,914 c 0,166 134,300 300,300 l 6245,0 z"
                 id="path76"
                 inkscape:connector-curvature="0"
                 style="fill:none;stroke:#000000;stroke-width:30" /><text
                 class="TextShape"
                 id="text78"><tspan
                   class="TextParagraph"
                   font-size="494px"
                   font-weight="400"
                   id="tspan80"
                   style="font-size:494px;font-weight:400;font-family:'Liberation Sans, sans-serif'"><tspan
                     class="TextPosition"
                     x="8810"
                     y="5564"
                     id="tspan82"><tspan
                       id="tspan84"
                       style="fill:#000000;stroke:none">programa residente del sistema</tspan></tspan></tspan></text>
</g></g><g
             class="com.sun.star.drawing.RectangleShape"
             id="g86"><g
               id="id5"><path
                 d="m 11408,8635 5427,0 c 166,0 300,-134 300,-300 l 0,-915 c 0,-166 -134,-300 -300,-300 l -10855,0 c -166,0 -300,134 -300,300 l 0,915 c 0,166 134,300 300,300 l 5428,0 z"
                 id="path89"
                 inkscape:connector-curvature="0"
                 style="fill:#ffff99;stroke:none" /><path
                 d="m 11408,8635 5427,0 c 166,0 300,-134 300,-300 l 0,-915 c 0,-166 -134,-300 -300,-300 l -10855,0 c -166,0 -300,134 -300,300 l 0,915 c 0,166 134,300 300,300 l 5428,0 z"
                 id="path91"
                 inkscape:connector-curvature="0"
                 style="fill:none;stroke:#000000;stroke-width:30" /><text
                 class="TextShape"
                 id="text93"><tspan
                   class="TextParagraph"
                   font-size="494px"
                   font-weight="400"
                   id="tspan95"
                   style="font-size:494px;font-weight:400;font-family:'Liberation Sans, sans-serif'"><tspan
                     class="TextPosition"
                     x="6945"
                     y="8049"
                     id="tspan97"><tspan
                       id="tspan99"
                       style="fill:#000000;stroke:none">drivers de dispositivo de MSDOS</tspan></tspan></tspan></text>
</g></g><g
             class="com.sun.star.drawing.RectangleShape"
             id="g101"><g
               id="id6"><path
                 d="m 11540,11151 7105,0 c 166,0 300,-134 300,-300 l 0,-916 c 0,-166 -134,-300 -300,-300 l -14210,0 c -166,0 -300,134 -300,300 l 0,916 c 0,166 134,300 300,300 l 7105,0 z"
                 id="path104"
                 inkscape:connector-curvature="0"
                 style="fill:#ffff99;stroke:none" /><path
                 d="m 11540,11151 7105,0 c 166,0 300,-134 300,-300 l 0,-916 c 0,-166 -134,-300 -300,-300 l -14210,0 c -166,0 -300,134 -300,300 l 0,916 c 0,166 134,300 300,300 l 7105,0 z"
                 id="path106"
                 inkscape:connector-curvature="0"
                 style="fill:none;stroke:#000000;stroke-width:30" /><text
                 class="TextShape"
                 id="text108"><tspan
                   class="TextParagraph"
                   font-size="494px"
                   font-weight="400"
                   id="tspan110"
                   style="font-size:494px;font-weight:400;font-family:'Liberation Sans, sans-serif'"><tspan
                     class="TextPosition"
                     x="5400"
                     y="10565"
                     id="tspan112"><tspan
                       id="tspan114"
                       style="fill:#000000;stroke:none">drivers de dispositivo de la BIOS</tspan></tspan></tspan></text>
</g></g><g
             class="com.sun.star.drawing.LineShape"
             id="g116"><g
               id="id7"><path
                 d="m 8135,3635 0,506"
                 id="path119"
                 inkscape:connector-curvature="0"
                 style="fill:none;stroke:#000000;stroke-width:30" /><path
                 d="m 8135,4635 173,-517 -345,0 172,517 z"
                 id="path121"
                 inkscape:connector-curvature="0"
                 style="fill:#000000;stroke:none" /></g></g><g
             class="com.sun.star.drawing.LineShape"
             id="g123"><g
               id="id8"><path
                 d="m 8135,6135 0,506"
                 id="path126"
                 inkscape:connector-curvature="0"
                 style="fill:none;stroke:#000000;stroke-width:30" /><path
                 d="m 8135,7135 173,-517 -345,0 172,517 z"
                 id="path128"
                 inkscape:connector-curvature="0"
                 style="fill:#000000;stroke:none" /></g></g><g
             class="com.sun.star.drawing.LineShape"
             id="g130"><g
               id="id9"><path
                 d="m 18135,6135 0,3006"
                 id="path133"
                 inkscape:connector-curvature="0"
                 style="fill:none;stroke:#000000;stroke-width:30" /><path
                 d="m 18135,9635 173,-517 -345,0 172,517 z"
                 id="path135"
                 inkscape:connector-curvature="0"
                 style="fill:#000000;stroke:none" /></g></g><g
             class="com.sun.star.drawing.LineShape"
             id="g137"><g
               id="id10"><path
                 d="m 4635,3635 0,5506"
                 id="path140"
                 inkscape:connector-curvature="0"
                 style="fill:none;stroke:#000000;stroke-width:30" /><path
                 d="m 4635,9635 173,-517 -345,0 172,517 z"
                 id="path142"
                 inkscape:connector-curvature="0"
                 style="fill:#000000;stroke:none" /></g></g><g
             class="com.sun.star.drawing.RectangleShape"
             id="g144"><g
               id="id11"><path
                 d="m 11635,13651 8700,0 c 166,0 300,-134 300,-300 l 0,-916 c 0,-166 -134,-300 -300,-300 l -17400,0 c -166,0 -300,134 -300,300 l 0,916 c 0,166 134,300 300,300 l 8700,0 z"
                 id="path147"
                 inkscape:connector-curvature="0"
                 style="fill:#9999ff;stroke:none" /><path
                 d="m 11635,13651 8700,0 c 166,0 300,-134 300,-300 l 0,-916 c 0,-166 -134,-300 -300,-300 l -17400,0 c -166,0 -300,134 -300,300 l 0,916 c 0,166 134,300 300,300 l 8700,0 z"
                 id="path149"
                 inkscape:connector-curvature="0"
                 style="fill:none;stroke:#000000;stroke-width:30" /><text
                 class="TextShape"
                 id="text151"><tspan
                   class="TextParagraph"
                   font-size="494px"
                   font-weight="400"
                   id="tspan153"
                   style="font-size:494px;font-weight:400;font-family:'Liberation Sans, sans-serif'"><tspan
                     class="TextPosition"
                     x="10602"
                     y="13065"
                     id="tspan155"><tspan
                       id="tspan157"
                       style="fill:#000000;stroke:none">hardware</tspan></tspan></tspan></text>
</g></g><g
             class="com.sun.star.drawing.LineShape"
             id="g159"><g
               id="id12"><path
                 d="m 8135,8635 0,506"
                 id="path162"
                 inkscape:connector-curvature="0"
                 style="fill:none;stroke:#000000;stroke-width:30" /><path
                 d="m 8135,9635 173,-517 -345,0 172,517 z"
                 id="path164"
                 inkscape:connector-curvature="0"
                 style="fill:#000000;stroke:none" /></g></g><g
             class="com.sun.star.drawing.LineShape"
             id="g166"><g
               id="id13"><path
                 d="m 8135,11135 0,506"
                 id="path169"
                 inkscape:connector-curvature="0"
                 style="fill:none;stroke:#000000;stroke-width:30" /><path
                 d="m 8135,12135 173,-517 -345,0 172,517 z"
                 id="path171"
                 inkscape:connector-curvature="0"
                 style="fill:#000000;stroke:none" /></g></g><g
             class="com.sun.star.drawing.LineShape"
             id="g173"><g
               id="id14"><path
                 d="m 3135,3635 0,8006"
                 id="path176"
                 inkscape:connector-curvature="0"
                 style="fill:none;stroke:#000000;stroke-width:30" /><path
                 d="m 3135,12135 173,-517 -345,0 172,517 z"
                 id="path178"
                 inkscape:connector-curvature="0"
                 style="fill:#000000;stroke:none" /></g></g><g
             class="com.sun.star.drawing.LineShape"
             id="g180"><g
               id="id15"><path
                 d="m 20135,6135 0,5506"
                 id="path183"
                 inkscape:connector-curvature="0"
                 style="fill:none;stroke:#000000;stroke-width:30" /><path
                 d="m 20135,12135 173,-517 -345,0 172,517 z"
                 id="path185"
                 inkscape:connector-curvature="0"
                 style="fill:#000000;stroke:none" /></g></g><g
             class="com.sun.star.drawing.LineShape"
             id="g187"><g
               id="id16"><path
                 d="m 6135,3635 0,3006"
                 id="path190"
                 inkscape:connector-curvature="0"
                 style="fill:none;stroke:#000000;stroke-width:30" /><path
                 d="m 6135,7135 173,-517 -345,0 172,517 z"
                 id="path192"
                 inkscape:connector-curvature="0"
                 style="fill:#000000;stroke:none" /></g></g><g
             class="com.sun.star.drawing.LineShape"
             id="g194"><g
               id="id17"><path
                 d="m 16135,8635 0,3006"
                 id="path197"
                 inkscape:connector-curvature="0"
                 style="fill:none;stroke:#000000;stroke-width:30" /><path
                 d="m 16135,12135 173,-517 -345,0 172,517 z"
                 id="path199"
                 inkscape:connector-curvature="0"
                 style="fill:#000000;stroke:none" /></g></g></g></g></g></g></svg>