<?xml version="1.0" encoding="UTF-8" standalone="no"?>
<svg
   xmlns:ooo="http://xml.openoffice.org/svg/export"
   xmlns:dc="http://purl.org/dc/elements/1.1/"
   xmlns:cc="http://creativecommons.org/ns#"
   xmlns:rdf="http://www.w3.org/1999/02/22-rdf-syntax-ns#"
   xmlns:svg="http://www.w3.org/2000/svg"
   xmlns="http://www.w3.org/2000/svg"
   xmlns:sodipodi="http://sodipodi.sourceforge.net/DTD/sodipodi-0.dtd"
   xmlns:inkscape="http://www.inkscape.org/namespaces/inkscape"
   version="1.2"
   width="692.00787"
   height="319.96063"
   viewBox="0 0 19530 9030"
   preserveAspectRatio="xMidYMid"
   clip-path="url(#presentation_clip_path)"
   xml:space="preserve"
   id="svg2"
   inkscape:version="0.48.4 r9939"
   sodipodi:docname="diagrama_estado_procesos.svg"
   style="fill-rule:evenodd;stroke-width:28.22200012;stroke-linejoin:round"><metadata
     id="metadata259"><rdf:RDF><cc:Work
         rdf:about=""><dc:format>image/svg+xml</dc:format><dc:type
           rdf:resource="http://purl.org/dc/dcmitype/StillImage" /></cc:Work></rdf:RDF></metadata><sodipodi:namedview
     pagecolor="#ffffff"
     bordercolor="#666666"
     borderopacity="1"
     objecttolerance="10"
     gridtolerance="10"
     guidetolerance="10"
     inkscape:pageopacity="0"
     inkscape:pageshadow="2"
     inkscape:window-width="640"
     inkscape:window-height="480"
     id="namedview257"
     showgrid="false"
     fit-margin-top="0"
     fit-margin-left="0"
     fit-margin-right="0"
     fit-margin-bottom="0"
     inkscape:zoom="0.20813889"
     inkscape:cx="739.84251"
     inkscape:cy="-171.85039"
     inkscape:window-x="0"
     inkscape:window-y="0"
     inkscape:window-maximized="0"
     inkscape:current-layer="svg2" /><defs
     class="ClipPathGroup"
     id="defs4"><clipPath
       id="presentation_clip_path"
       clipPathUnits="userSpaceOnUse"><rect
         x="0"
         y="0"
         width="45000"
         height="32000"
         id="rect7" /></clipPath></defs><defs
     class="TextShapeIndex"
     id="defs9"><g
       ooo:slide="id1"
       ooo:id-list="id3 id4 id5 id6 id7 id8 id9 id10 id11 id12 id13 id14 id15 id16 id17 id18 id19"
       id="g11" /></defs><defs
     class="EmbeddedBulletChars"
     id="defs13"><g
       id="bullet-char-template(57356)"
       transform="scale(4.8828125e-4,-4.8828125e-4)"><path
         d="M 580,1141 1163,571 580,0 -4,571 580,1141 z"
         id="path16"
         inkscape:connector-curvature="0" /></g><g
       id="bullet-char-template(57354)"
       transform="scale(4.8828125e-4,-4.8828125e-4)"><path
         d="m 8,1128 1129,0 L 1137,0 8,0 8,1128 z"
         id="path19"
         inkscape:connector-curvature="0" /></g><g
       id="bullet-char-template(10146)"
       transform="scale(4.8828125e-4,-4.8828125e-4)"><path
         d="M 174,0 602,739 174,1481 1456,739 174,0 z m 1184,739 -1049,607 350,-607 699,0 z"
         id="path22"
         inkscape:connector-curvature="0" /></g><g
       id="bullet-char-template(10132)"
       transform="scale(4.8828125e-4,-4.8828125e-4)"><path
         d="M 2015,739 1276,0 717,0 l 543,543 -1086,0 0,393 1086,0 -543,545 557,0 741,-742 z"
         id="path25"
         inkscape:connector-curvature="0" /></g><g
       id="bullet-char-template(10007)"
       transform="scale(4.8828125e-4,-4.8828125e-4)"><path
         d="m 0,-2 c -7,16 -16,29 -25,39 l 381,530 c -94,256 -141,385 -141,387 0,25 13,38 40,38 9,0 21,-2 34,-5 21,4 42,12 65,25 l 27,-13 111,-251 280,301 64,-25 24,25 c 21,-10 41,-24 62,-43 C 886,937 835,863 770,784 769,783 710,716 594,584 L 774,223 c 0,-27 -21,-55 -63,-84 l 16,-20 C 717,90 699,76 672,76 641,76 570,178 457,381 L 164,-76 c -22,-34 -53,-51 -92,-51 -42,0 -63,17 -64,51 -7,9 -10,24 -10,44 0,9 1,19 2,30 z"
         id="path28"
         inkscape:connector-curvature="0" /></g><g
       id="bullet-char-template(10004)"
       transform="scale(4.8828125e-4,-4.8828125e-4)"><path
         d="M 285,-33 C 182,-33 111,30 74,156 52,228 41,333 41,471 c 0,78 14,145 41,201 34,71 87,106 158,106 53,0 88,-31 106,-94 l 23,-176 c 8,-64 28,-97 59,-98 l 735,706 c 11,11 33,17 66,17 42,0 63,-15 63,-46 l 0,-122 c 0,-36 -10,-64 -30,-84 L 442,47 C 390,-6 338,-33 285,-33 z"
         id="path31"
         inkscape:connector-curvature="0" /></g><g
       id="bullet-char-template(9679)"
       transform="scale(4.8828125e-4,-4.8828125e-4)"><path
         d="M 813,0 C 632,0 489,54 383,161 276,268 223,411 223,592 c 0,181 53,324 160,431 106,107 249,161 430,161 179,0 323,-54 432,-161 108,-107 162,-251 162,-431 0,-180 -54,-324 -162,-431 C 1136,54 992,0 813,0 z"
         id="path34"
         inkscape:connector-curvature="0" /></g><g
       id="bullet-char-template(8226)"
       transform="scale(4.8828125e-4,-4.8828125e-4)"><path
         d="m 346,457 c -73,0 -137,26 -191,78 -54,51 -81,114 -81,188 0,73 27,136 81,188 54,52 118,78 191,78 73,0 134,-26 185,-79 51,-51 77,-114 77,-187 0,-75 -25,-137 -76,-188 -50,-52 -112,-78 -186,-78 z"
         id="path37"
         inkscape:connector-curvature="0" /></g><g
       id="bullet-char-template(8211)"
       transform="scale(4.8828125e-4,-4.8828125e-4)"><path
         d="m -4,459 1139,0 0,147 -1139,0 0,-147 z"
         id="path40"
         inkscape:connector-curvature="0" /></g></defs><defs
     class="TextEmbeddedBitmaps"
     id="defs42" /><g
     id="g44"
     transform="translate(-1620,-2120.0004)"><g
       id="id2"
       class="Master_Slide"><g
         id="bg-id2"
         class="Background" /><g
         id="bo-id2"
         class="BackgroundObjects" /></g></g><g
     class="SlideGroup"
     id="g49"
     transform="translate(-1620,-2120.0004)"><g
       id="g51"><g
         id="id1"
         class="Slide"
         clip-path="url(#presentation_clip_path)"><g
           class="Page"
           id="g54"><g
             class="com.sun.star.drawing.EllipseShape"
             id="g56"><g
               id="id3"><path
                 d="m 3385,3635 c -322,0 -596,-31 -875,-100 -279,-70 -479,-155 -641,-275 -161,-120 -234,-237 -234,-375 0,-138 73,-255 234,-375 162,-120 362,-205 641,-275 279,-69 553,-100 875,-100 322,0 596,31 875,100 279,70 479,155 641,275 161,120 234,237 234,375 0,138 -73,255 -234,375 -162,120 -362,205 -641,275 -279,69 -553,100 -875,100 l 0,0 z"
                 id="path59"
                 inkscape:connector-curvature="0"
                 style="fill:#ffff99;stroke:none" /><path
                 d="m 3385,3635 c -322,0 -596,-31 -875,-100 -279,-70 -479,-155 -641,-275 -161,-120 -234,-237 -234,-375 0,-138 73,-255 234,-375 162,-120 362,-205 641,-275 279,-69 553,-100 875,-100 322,0 596,31 875,100 279,70 479,155 641,275 161,120 234,237 234,375 0,138 -73,255 -234,375 -162,120 -362,205 -641,275 -279,69 -553,100 -875,100 l 0,0 z"
                 id="path61"
                 inkscape:connector-curvature="0"
                 style="fill:none;stroke:#000000;stroke-width:30" /><text
                 class="TextShape"
                 id="text63"><tspan
                   class="TextParagraph"
                   font-size="494px"
                   font-weight="400"
                   id="tspan65"
                   style="font-size:494px;font-weight:400;font-family:'Liberation Sans, sans-serif'"><tspan
                     class="TextPosition"
                     x="2710"
                     y="3057"
                     id="tspan67"><tspan
                       id="tspan69"
                       style="fill:#000000;stroke:none">nuevo</tspan></tspan></tspan></text>
</g></g><g
             class="com.sun.star.drawing.EllipseShape"
             id="g71"><g
               id="id4"><path
                 d="m 7385,6635 c -322,0 -596,-31 -875,-100 -279,-70 -479,-155 -641,-275 -161,-120 -234,-237 -234,-375 0,-138 73,-255 234,-375 162,-120 362,-205 641,-275 279,-69 553,-100 875,-100 322,0 596,31 875,100 279,70 479,155 641,275 161,120 234,237 234,375 0,138 -73,255 -234,375 -162,120 -362,205 -641,275 -279,69 -553,100 -875,100 l 0,0 z"
                 id="path74"
                 inkscape:connector-curvature="0"
                 style="fill:#94bd5e;stroke:none" /><path
                 d="m 7385,6635 c -322,0 -596,-31 -875,-100 -279,-70 -479,-155 -641,-275 -161,-120 -234,-237 -234,-375 0,-138 73,-255 234,-375 162,-120 362,-205 641,-275 279,-69 553,-100 875,-100 322,0 596,31 875,100 279,70 479,155 641,275 161,120 234,237 234,375 0,138 -73,255 -234,375 -162,120 -362,205 -641,275 -279,69 -553,100 -875,100 l 0,0 z"
                 id="path76"
                 inkscape:connector-curvature="0"
                 style="fill:none;stroke:#000000;stroke-width:30" /><text
                 class="TextShape"
                 id="text78"><tspan
                   class="TextParagraph"
                   font-size="494px"
                   font-weight="400"
                   id="tspan80"
                   style="font-size:494px;font-weight:400;font-family:'Liberation Sans, sans-serif'"><tspan
                     class="TextPosition"
                     x="6257"
                     y="6057"
                     id="tspan82"><tspan
                       id="tspan84"
                       style="fill:#000000;stroke:none">preparado</tspan></tspan></tspan></text>
</g></g><g
             class="com.sun.star.drawing.EllipseShape"
             id="g86"><g
               id="id5"><path
                 d="m 15385,6635 c -322,0 -596,-31 -875,-100 -279,-70 -479,-155 -641,-275 -161,-120 -234,-237 -234,-375 0,-138 73,-255 234,-375 162,-120 362,-205 641,-275 279,-69 553,-100 875,-100 322,0 596,31 875,100 279,70 479,155 641,275 161,120 234,237 234,375 0,138 -73,255 -234,375 -162,120 -362,205 -641,275 -279,69 -553,100 -875,100 l 0,0 z"
                 id="path89"
                 inkscape:connector-curvature="0"
                 style="fill:#9999ff;stroke:none" /><path
                 d="m 15385,6635 c -322,0 -596,-31 -875,-100 -279,-70 -479,-155 -641,-275 -161,-120 -234,-237 -234,-375 0,-138 73,-255 234,-375 162,-120 362,-205 641,-275 279,-69 553,-100 875,-100 322,0 596,31 875,100 279,70 479,155 641,275 161,120 234,237 234,375 0,138 -73,255 -234,375 -162,120 -362,205 -641,275 -279,69 -553,100 -875,100 l 0,0 z"
                 id="path91"
                 inkscape:connector-curvature="0"
                 style="fill:none;stroke:#000000;stroke-width:30" /><text
                 class="TextShape"
                 id="text93"><tspan
                   class="TextParagraph"
                   font-size="494px"
                   font-weight="400"
                   id="tspan95"
                   style="font-size:494px;font-weight:400;font-family:'Liberation Sans, sans-serif'"><tspan
                     class="TextPosition"
                     x="14172"
                     y="6057"
                     id="tspan97"><tspan
                       id="tspan99"
                       style="fill:#000000;stroke:none">ejecutando</tspan></tspan></tspan></text>
</g></g><g
             class="com.sun.star.drawing.EllipseShape"
             id="g101"><g
               id="id6"><path
                 d="m 19385,3635 c -322,0 -596,-31 -875,-100 -279,-70 -479,-155 -641,-275 -161,-120 -234,-237 -234,-375 0,-138 73,-255 234,-375 162,-120 362,-205 641,-275 279,-69 553,-100 875,-100 322,0 596,31 875,100 279,70 479,155 641,275 161,120 234,237 234,375 0,138 -73,255 -234,375 -162,120 -362,205 -641,275 -279,69 -553,100 -875,100 l 0,0 z"
                 id="path104"
                 inkscape:connector-curvature="0"
                 style="fill:#ffff99;stroke:none" /><path
                 d="m 19385,3635 c -322,0 -596,-31 -875,-100 -279,-70 -479,-155 -641,-275 -161,-120 -234,-237 -234,-375 0,-138 73,-255 234,-375 162,-120 362,-205 641,-275 279,-69 553,-100 875,-100 322,0 596,31 875,100 279,70 479,155 641,275 161,120 234,237 234,375 0,138 -73,255 -234,375 -162,120 -362,205 -641,275 -279,69 -553,100 -875,100 l 0,0 z"
                 id="path106"
                 inkscape:connector-curvature="0"
                 style="fill:none;stroke:#000000;stroke-width:30" /><text
                 class="TextShape"
                 id="text108"><tspan
                   class="TextParagraph"
                   font-size="494px"
                   font-weight="400"
                   id="tspan110"
                   style="font-size:494px;font-weight:400;font-family:'Liberation Sans, sans-serif'"><tspan
                     class="TextPosition"
                     x="18284"
                     y="3057"
                     id="tspan112"><tspan
                       id="tspan114"
                       style="fill:#000000;stroke:none">terminado</tspan></tspan></tspan></text>
</g></g><g
             class="com.sun.star.drawing.EllipseShape"
             id="g116"><g
               id="id7"><path
                 d="m 11385,11135 c -322,0 -596,-31 -875,-100 -279,-70 -479,-155 -641,-275 -161,-120 -234,-237 -234,-375 0,-138 73,-255 234,-375 162,-120 362,-205 641,-275 279,-69 553,-100 875,-100 322,0 596,31 875,100 279,70 479,155 641,275 161,120 234,237 234,375 0,138 -73,255 -234,375 -162,120 -362,205 -641,275 -279,69 -553,100 -875,100 l 0,0 z"
                 id="path119"
                 inkscape:connector-curvature="0"
                 style="fill:#94bd5e;stroke:none" /><path
                 d="m 11385,11135 c -322,0 -596,-31 -875,-100 -279,-70 -479,-155 -641,-275 -161,-120 -234,-237 -234,-375 0,-138 73,-255 234,-375 162,-120 362,-205 641,-275 279,-69 553,-100 875,-100 322,0 596,31 875,100 279,70 479,155 641,275 161,120 234,237 234,375 0,138 -73,255 -234,375 -162,120 -362,205 -641,275 -279,69 -553,100 -875,100 l 0,0 z"
                 id="path121"
                 inkscape:connector-curvature="0"
                 style="fill:none;stroke:#000000;stroke-width:30" /><text
                 class="TextShape"
                 id="text123"><tspan
                   class="TextParagraph"
                   font-size="494px"
                   font-weight="400"
                   id="tspan125"
                   style="font-size:494px;font-weight:400;font-family:'Liberation Sans, sans-serif'"><tspan
                     class="TextPosition"
                     x="10214"
                     y="10557"
                     id="tspan127"><tspan
                       id="tspan129"
                       style="fill:#000000;stroke:none">esperando</tspan></tspan></tspan></text>
</g></g><g
             class="com.sun.star.drawing.ConnectorShape"
             id="g131"><g
               id="id8"><path
                 d="m 5135,2885 c 1500,0 2066,586 2220,1758"
                 id="path134"
                 inkscape:connector-curvature="0"
                 style="fill:none;stroke:#000000;stroke-width:30" /><path
                 d="m 7385,5135 139,-528 -345,23 206,505 z"
                 id="path136"
                 inkscape:connector-curvature="0"
                 style="fill:#000000;stroke:none" /></g></g><g
             class="com.sun.star.drawing.ConnectorShape"
             id="g138"><g
               id="id9"><path
                 d="m 15385,5135 c 0,-772 -6134,-760 -7660,-252"
                 id="path141"
                 inkscape:connector-curvature="0"
                 style="fill:none;stroke:#000000;stroke-width:30" /><path
                 d="m 7385,5135 521,-162 -201,-280 -320,442 z"
                 id="path143"
                 inkscape:connector-curvature="0"
                 style="fill:#000000;stroke:none" /></g></g><g
             class="com.sun.star.drawing.ConnectorShape"
             id="g145"><g
               id="id10"><path
                 d="m 15385,5135 c 0,-1500 586,-2066 1758,-2220"
                 id="path148"
                 inkscape:connector-curvature="0"
                 style="fill:none;stroke:#000000;stroke-width:30" /><path
                 d="m 17635,2885 -528,-139 23,345 505,-206 z"
                 id="path150"
                 inkscape:connector-curvature="0"
                 style="fill:#000000;stroke:none" /></g></g><g
             class="com.sun.star.drawing.ConnectorShape"
             id="g152"><g
               id="id11"><path
                 d="m 7385,6635 c 0,772 6134,760 7660,252"
                 id="path155"
                 inkscape:connector-curvature="0"
                 style="fill:none;stroke:#000000;stroke-width:30" /><path
                 d="m 15385,6635 -521,162 201,280 320,-442 z"
                 id="path157"
                 inkscape:connector-curvature="0"
                 style="fill:#000000;stroke:none" /></g></g><g
             class="com.sun.star.drawing.ConnectorShape"
             id="g159"><g
               id="id12"><path
                 d="m 15385,6635 c 0,2500 -587,3446 -1762,3700"
                 id="path162"
                 inkscape:connector-curvature="0"
                 style="fill:none;stroke:#000000;stroke-width:30" /><path
                 d="m 13135,10385 533,116 -37,-343 -496,227 z"
                 id="path164"
                 inkscape:connector-curvature="0"
                 style="fill:#000000;stroke:none" /></g></g><g
             class="com.sun.star.drawing.ConnectorShape"
             id="g166"><g
               id="id13"><path
                 d="M 9635,10385 C 8135,10385 7492,9301 7396,7132"
                 id="path169"
                 inkscape:connector-curvature="0"
                 style="fill:none;stroke:#000000;stroke-width:30" /><path
                 d="m 7385,6635 -161,521 345,-7 -184,-514 z"
                 id="path171"
                 inkscape:connector-curvature="0"
                 style="fill:#000000;stroke:none" /></g></g><g
             class="com.sun.star.drawing.TextShape"
             id="g173"><g
               id="id14"><text
                 class="TextShape"
                 id="text176"><tspan
                   class="TextParagraph"
                   font-size="494px"
                   font-weight="400"
                   id="tspan178"
                   style="font-size:494px;font-weight:400;font-family:'Liberation Sans, sans-serif'"><tspan
                     class="TextPosition"
                     x="7008"
                     y="3307"
                     id="tspan180"><tspan
                       id="tspan182"
                       style="fill:#000000;stroke:none">admitido</tspan></tspan></tspan></text>
</g></g><g
             class="com.sun.star.drawing.TextShape"
             id="g184"><g
               id="id15"><text
                 class="TextShape"
                 id="text187"><tspan
                   class="TextParagraph"
                   font-size="494px"
                   font-weight="400"
                   id="tspan189"
                   style="font-size:494px;font-weight:400;font-family:'Liberation Sans, sans-serif'"><tspan
                     class="TextPosition"
                     x="9939"
                     y="4210"
                     id="tspan191"><tspan
                       id="tspan193"
                       style="fill:#000000;stroke:none">temporizador</tspan></tspan></tspan></text>
</g></g><g
             class="com.sun.star.drawing.TextShape"
             id="g195"><g
               id="id16"><text
                 class="TextShape"
                 id="text198"><tspan
                   class="TextParagraph"
                   font-size="494px"
                   font-weight="400"
                   id="tspan200"
                   style="font-size:494px;font-weight:400;font-family:'Liberation Sans, sans-serif'"><tspan
                     class="TextPosition"
                     x="14617"
                     y="3307"
                     id="tspan202"><tspan
                       id="tspan204"
                       style="fill:#000000;stroke:none">salida</tspan></tspan></tspan></text>
</g></g><g
             class="com.sun.star.drawing.TextShape"
             id="g206"><g
               id="id17"><text
                 class="TextShape"
                 id="text209"><tspan
                   class="TextParagraph"
                   font-size="494px"
                   font-weight="400"
                   id="tspan211"
                   style="font-size:494px;font-weight:400;font-family:'Liberation Sans, sans-serif'"><tspan
                     class="TextPosition"
                     x="4381"
                     y="8710"
                     id="tspan213"><tspan
                       id="tspan215"
                       style="fill:#000000;stroke:none">E/S o evento</tspan></tspan></tspan><tspan
                   class="TextParagraph"
                   font-size="494px"
                   font-weight="400"
                   id="tspan217"
                   style="font-size:494px;font-weight:400;font-family:'Liberation Sans, sans-serif'"><tspan
                     class="TextPosition"
                     x="4523"
                     y="9265"
                     id="tspan219"><tspan
                       id="tspan221"
                       style="fill:#000000;stroke:none">completado</tspan></tspan></tspan></text>
</g></g><g
             class="com.sun.star.drawing.TextShape"
             id="g223"><g
               id="id18"><text
                 class="TextShape"
                 id="text226"><tspan
                   class="TextParagraph"
                   font-size="494px"
                   font-weight="400"
                   id="tspan228"
                   style="font-size:494px;font-weight:400;font-family:'Liberation Sans, sans-serif'"><tspan
                     class="TextPosition"
                     x="9510"
                     y="7979"
                     id="tspan230"><tspan
                       id="tspan232"
                       style="fill:#000000;stroke:none">asignación por el</tspan></tspan></tspan><tspan
                   class="TextParagraph"
                   font-size="494px"
                   font-weight="400"
                   id="tspan234"
                   style="font-size:494px;font-weight:400;font-family:'Liberation Sans, sans-serif'"><tspan
                     class="TextPosition"
                     x="8915"
                     y="8534"
                     id="tspan236"><tspan
                       id="tspan238"
                       style="fill:#000000;stroke:none">planificador de la CPU</tspan></tspan></tspan></text>
</g></g><g
             class="com.sun.star.drawing.TextShape"
             id="g240"><g
               id="id19"><text
                 class="TextShape"
                 id="text243"><tspan
                   class="TextParagraph"
                   font-size="494px"
                   font-weight="400"
                   id="tspan245"
                   style="font-size:494px;font-weight:400;font-family:'Liberation Sans, sans-serif'"><tspan
                     class="TextPosition"
                     x="15885"
                     y="8710"
                     id="tspan247"><tspan
                       id="tspan249"
                       style="fill:#000000;stroke:none">a la espera de un </tspan></tspan></tspan><tspan
                   class="TextParagraph"
                   font-size="494px"
                   font-weight="400"
                   id="tspan251"
                   style="font-size:494px;font-weight:400;font-family:'Liberation Sans, sans-serif'"><tspan
                     class="TextPosition"
                     x="16450"
                     y="9265"
                     id="tspan253"><tspan
                       id="tspan255"
                       style="fill:#000000;stroke:none">evento o E/S</tspan></tspan></tspan></text>
</g></g></g></g></g></g></svg>