<?xml version="1.0" encoding="UTF-8" standalone="no"?>
<svg
   xmlns:ooo="http://xml.openoffice.org/svg/export"
   xmlns:dc="http://purl.org/dc/elements/1.1/"
   xmlns:cc="http://creativecommons.org/ns#"
   xmlns:rdf="http://www.w3.org/1999/02/22-rdf-syntax-ns#"
   xmlns:svg="http://www.w3.org/2000/svg"
   xmlns="http://www.w3.org/2000/svg"
   xmlns:sodipodi="http://sodipodi.sourceforge.net/DTD/sodipodi-0.dtd"
   xmlns:inkscape="http://www.inkscape.org/namespaces/inkscape"
   version="1.2"
   width="308.20004"
   height="395.595"
   viewBox="0 0 8698.0903 11164.57"
   preserveAspectRatio="xMidYMid"
   clip-path="url(#presentation_clip_path)"
   xml:space="preserve"
   id="svg2"
   inkscape:version="0.48.4 r9939"
   sodipodi:docname="proceso_en_memoria.svg"
   style="fill-rule:evenodd;stroke-width:28.22200012;stroke-linejoin:round"><metadata
     id="metadata210"><rdf:RDF><cc:Work
         rdf:about=""><dc:format>image/svg+xml</dc:format><dc:type
           rdf:resource="http://purl.org/dc/dcmitype/StillImage" /></cc:Work></rdf:RDF></metadata><sodipodi:namedview
     pagecolor="#ffffff"
     bordercolor="#666666"
     borderopacity="1"
     objecttolerance="10"
     gridtolerance="10"
     guidetolerance="10"
     inkscape:pageopacity="0"
     inkscape:pageshadow="2"
     inkscape:window-width="640"
     inkscape:window-height="480"
     id="namedview208"
     showgrid="false"
     fit-margin-top="0"
     fit-margin-left="0"
     fit-margin-right="0"
     fit-margin-bottom="0"
     inkscape:zoom="0.20813889"
     inkscape:cx="674.9323"
     inkscape:cy="-87.242447"
     inkscape:window-x="223"
     inkscape:window-y="154"
     inkscape:window-maximized="0"
     inkscape:current-layer="svg2" /><defs
     class="ClipPathGroup"
     id="defs4"><clipPath
       id="presentation_clip_path"
       clipPathUnits="userSpaceOnUse"><rect
         x="0"
         y="0"
         width="45000"
         height="32000"
         id="rect7" /></clipPath></defs><defs
     class="TextShapeIndex"
     id="defs9"><g
       ooo:slide="id1"
       ooo:id-list="id3 id4 id5 id6 id7 id8 id9 id10 id11 id12 id13 id14 id15 id16 id17 id18"
       id="g11" /></defs><defs
     class="EmbeddedBulletChars"
     id="defs13"><g
       id="bullet-char-template(57356)"
       transform="scale(4.8828125e-4,-4.8828125e-4)"><path
         d="M 580,1141 1163,571 580,0 -4,571 580,1141 z"
         id="path16"
         inkscape:connector-curvature="0" /></g><g
       id="bullet-char-template(57354)"
       transform="scale(4.8828125e-4,-4.8828125e-4)"><path
         d="m 8,1128 1129,0 L 1137,0 8,0 8,1128 z"
         id="path19"
         inkscape:connector-curvature="0" /></g><g
       id="bullet-char-template(10146)"
       transform="scale(4.8828125e-4,-4.8828125e-4)"><path
         d="M 174,0 602,739 174,1481 1456,739 174,0 z m 1184,739 -1049,607 350,-607 699,0 z"
         id="path22"
         inkscape:connector-curvature="0" /></g><g
       id="bullet-char-template(10132)"
       transform="scale(4.8828125e-4,-4.8828125e-4)"><path
         d="M 2015,739 1276,0 717,0 l 543,543 -1086,0 0,393 1086,0 -543,545 557,0 741,-742 z"
         id="path25"
         inkscape:connector-curvature="0" /></g><g
       id="bullet-char-template(10007)"
       transform="scale(4.8828125e-4,-4.8828125e-4)"><path
         d="m 0,-2 c -7,16 -16,29 -25,39 l 381,530 c -94,256 -141,385 -141,387 0,25 13,38 40,38 9,0 21,-2 34,-5 21,4 42,12 65,25 l 27,-13 111,-251 280,301 64,-25 24,25 c 21,-10 41,-24 62,-43 C 886,937 835,863 770,784 769,783 710,716 594,584 L 774,223 c 0,-27 -21,-55 -63,-84 l 16,-20 C 717,90 699,76 672,76 641,76 570,178 457,381 L 164,-76 c -22,-34 -53,-51 -92,-51 -42,0 -63,17 -64,51 -7,9 -10,24 -10,44 0,9 1,19 2,30 z"
         id="path28"
         inkscape:connector-curvature="0" /></g><g
       id="bullet-char-template(10004)"
       transform="scale(4.8828125e-4,-4.8828125e-4)"><path
         d="M 285,-33 C 182,-33 111,30 74,156 52,228 41,333 41,471 c 0,78 14,145 41,201 34,71 87,106 158,106 53,0 88,-31 106,-94 l 23,-176 c 8,-64 28,-97 59,-98 l 735,706 c 11,11 33,17 66,17 42,0 63,-15 63,-46 l 0,-122 c 0,-36 -10,-64 -30,-84 L 442,47 C 390,-6 338,-33 285,-33 z"
         id="path31"
         inkscape:connector-curvature="0" /></g><g
       id="bullet-char-template(9679)"
       transform="scale(4.8828125e-4,-4.8828125e-4)"><path
         d="M 813,0 C 632,0 489,54 383,161 276,268 223,411 223,592 c 0,181 53,324 160,431 106,107 249,161 430,161 179,0 323,-54 432,-161 108,-107 162,-251 162,-431 0,-180 -54,-324 -162,-431 C 1136,54 992,0 813,0 z"
         id="path34"
         inkscape:connector-curvature="0" /></g><g
       id="bullet-char-template(8226)"
       transform="scale(4.8828125e-4,-4.8828125e-4)"><path
         d="m 346,457 c -73,0 -137,26 -191,78 -54,51 -81,114 -81,188 0,73 27,136 81,188 54,52 118,78 191,78 73,0 134,-26 185,-79 51,-51 77,-114 77,-187 0,-75 -25,-137 -76,-188 -50,-52 -112,-78 -186,-78 z"
         id="path37"
         inkscape:connector-curvature="0" /></g><g
       id="bullet-char-template(8211)"
       transform="scale(4.8828125e-4,-4.8828125e-4)"><path
         d="m -4,459 1139,0 0,147 -1139,0 0,-147 z"
         id="path40"
         inkscape:connector-curvature="0" /></g></defs><defs
     class="TextEmbeddedBitmaps"
     id="defs42" /><g
     id="g44"
     transform="translate(-3451.9102,-2373.2543)"><g
       id="id2"
       class="Master_Slide"><g
         id="bg-id2"
         class="Background" /><g
         id="bo-id2"
         class="BackgroundObjects" /></g></g><g
     class="SlideGroup"
     id="g49"
     transform="translate(-3451.9102,-2373.2543)"><g
       id="g51"><g
         id="id1"
         class="Slide"
         clip-path="url(#presentation_clip_path)"><g
           class="Page"
           id="g54"><g
             class="com.sun.star.drawing.TextShape"
             id="g56"><g
               id="id3"><text
                 class="TextShape"
                 id="text59"><tspan
                   class="TextParagraph"
                   font-size="494px"
                   font-weight="400"
                   id="tspan61"
                   style="font-size:494px;font-weight:400;font-family:'Liberation Sans, sans-serif'"><tspan
                     class="TextPosition"
                     x="5064"
                     y="2737"
                     id="tspan63"><tspan
                       id="tspan65"
                       style="fill:#000000;stroke:none">Máx.</tspan></tspan></tspan></text>
</g></g><g
             class="com.sun.star.drawing.RectangleShape"
             id="g67"><g
               id="id4"><path
                 d="m 9385,4996 2450,0 c 166,0 300,-134 300,-300 l 0,-1900 c 0,-166 -134,-300 -300,-300 l -4900,0 c -166,0 -300,134 -300,300 l 0,1900 c 0,166 134,300 300,300 l 2450,0 z"
                 id="path70"
                 inkscape:connector-curvature="0"
                 style="fill:#ffff99;stroke:none" /><path
                 d="m 9385,4996 2450,0 c 166,0 300,-134 300,-300 l 0,-1900 c 0,-166 -134,-300 -300,-300 l -4900,0 c -166,0 -300,134 -300,300 l 0,1900 c 0,166 134,300 300,300 l 2450,0 z"
                 id="path72"
                 inkscape:connector-curvature="0"
                 style="fill:none;stroke:#000000;stroke-width:30" /><text
                 class="TextShape"
                 id="text74"><tspan
                   class="TextParagraph"
                   font-size="494px"
                   font-weight="400"
                   id="tspan76"
                   style="font-size:494px;font-weight:400;font-family:'Liberation Sans, sans-serif'"><tspan
                     class="TextPosition"
                     x="7440"
                     y="3918"
                     id="tspan78"><tspan
                       id="tspan80"
                       style="fill:#000000;stroke:none">sistema operativo</tspan></tspan></tspan></text>
</g></g><g
             class="com.sun.star.drawing.RectangleShape"
             id="g82"><g
               id="id5"><path
                 d="m 9385,13496 2450,0 c 166,0 300,-134 300,-300 l 0,-7900 c 0,-166 -134,-300 -300,-300 l -4900,0 c -166,0 -300,134 -300,300 l 0,7900 c 0,166 134,300 300,300 l 2450,0 z"
                 id="path85"
                 inkscape:connector-curvature="0"
                 style="fill:#94bd5e;stroke:none" /><path
                 d="m 9385,13496 2450,0 c 166,0 300,-134 300,-300 l 0,-7900 c 0,-166 -134,-300 -300,-300 l -4900,0 c -166,0 -300,134 -300,300 l 0,7900 c 0,166 134,300 300,300 l 2450,0 z"
                 id="path87"
                 inkscape:connector-curvature="0"
                 style="fill:none;stroke:#000000;stroke-width:30" /></g></g><g
             class="com.sun.star.drawing.TextShape"
             id="g89"><g
               id="id6"><text
                 class="TextShape"
                 id="text92"><tspan
                   class="TextParagraph"
                   font-size="494px"
                   font-weight="400"
                   id="tspan94"
                   style="font-size:494px;font-weight:400;font-family:'Liberation Sans, sans-serif'"><tspan
                     class="TextPosition"
                     x="8655"
                     y="12918"
                     id="tspan96"><tspan
                       id="tspan98"
                       style="fill:#000000;stroke:none">código</tspan></tspan></tspan></text>
</g></g><g
             class="com.sun.star.drawing.TextShape"
             id="g100"><g
               id="id7"><text
                 class="TextShape"
                 id="text103"><tspan
                   class="TextParagraph"
                   font-size="494px"
                   font-weight="400"
                   id="tspan105"
                   style="font-size:494px;font-weight:400;font-family:'Liberation Sans, sans-serif'"><tspan
                     class="TextPosition"
                     x="8778"
                     y="11418"
                     id="tspan107"><tspan
                       id="tspan109"
                       style="fill:#000000;stroke:none">datos</tspan></tspan></tspan></text>
</g></g><g
             class="com.sun.star.drawing.TextShape"
             id="g111"><g
               id="id8"><text
                 class="TextShape"
                 id="text114"><tspan
                   class="TextParagraph"
                   font-size="494px"
                   font-weight="400"
                   id="tspan116"
                   style="font-size:494px;font-weight:400;font-family:'Liberation Sans, sans-serif'"><tspan
                     class="TextPosition"
                     x="8560"
                     y="9918"
                     id="tspan118"><tspan
                       id="tspan120"
                       style="fill:#000000;stroke:none">montón</tspan></tspan></tspan></text>
</g></g><g
             class="com.sun.star.drawing.CustomShape"
             id="g122"><g
               id="id9"><path
                 d="m 9385,8996 -2750,0 0,-2500 5500,0 0,2500 -2750,0 z"
                 id="path125"
                 inkscape:connector-curvature="0"
                 style="fill:#ffffff;stroke:none" /></g></g><g
             class="com.sun.star.drawing.TextShape"
             id="g127"><g
               id="id10"><text
                 class="TextShape"
                 id="text130"><tspan
                   class="TextParagraph"
                   font-size="494px"
                   font-weight="400"
                   id="tspan132"
                   style="font-size:494px;font-weight:400;font-family:'Liberation Sans, sans-serif'"><tspan
                     class="TextPosition"
                     x="9000"
                     y="5918"
                     id="tspan134"><tspan
                       id="tspan136"
                       style="fill:#000000;stroke:none">pila</tspan></tspan></tspan></text>
</g></g><g
             class="com.sun.star.drawing.LineShape"
             id="g138"><g
               id="id11"><path
                 d="m 6635,10496 5500,0"
                 id="path141"
                 inkscape:connector-curvature="0"
                 style="fill:none;stroke:#000000;stroke-width:30" /></g></g><g
             class="com.sun.star.drawing.LineShape"
             id="g143"><g
               id="id12"><path
                 d="m 6635,11996 5500,0"
                 id="path146"
                 inkscape:connector-curvature="0"
                 style="fill:none;stroke:#000000;stroke-width:30" /></g></g><g
             class="com.sun.star.drawing.LineShape"
             id="g148"><g
               id="id13"><path
                 d="m 6635,8996 508,0"
                 id="path151"
                 inkscape:connector-curvature="0"
                 style="fill:none;stroke:#000000;stroke-width:30" /><path
                 d="m 7651,8996 508,0"
                 id="path153"
                 inkscape:connector-curvature="0"
                 style="fill:none;stroke:#000000;stroke-width:30" /><path
                 d="m 8667,8996 508,0"
                 id="path155"
                 inkscape:connector-curvature="0"
                 style="fill:none;stroke:#000000;stroke-width:30" /><path
                 d="m 9683,8996 508,0"
                 id="path157"
                 inkscape:connector-curvature="0"
                 style="fill:none;stroke:#000000;stroke-width:30" /><path
                 d="m 10699,8996 508,0"
                 id="path159"
                 inkscape:connector-curvature="0"
                 style="fill:none;stroke:#000000;stroke-width:30" /><path
                 d="m 11715,8996 420,0"
                 id="path161"
                 inkscape:connector-curvature="0"
                 style="fill:none;stroke:#000000;stroke-width:30" /></g></g><g
             class="com.sun.star.drawing.LineShape"
             id="g163"><g
               id="id14"><path
                 d="m 6635,6496 508,0"
                 id="path166"
                 inkscape:connector-curvature="0"
                 style="fill:none;stroke:#000000;stroke-width:30" /><path
                 d="m 7651,6496 508,0"
                 id="path168"
                 inkscape:connector-curvature="0"
                 style="fill:none;stroke:#000000;stroke-width:30" /><path
                 d="m 8667,6496 508,0"
                 id="path170"
                 inkscape:connector-curvature="0"
                 style="fill:none;stroke:#000000;stroke-width:30" /><path
                 d="m 9683,6496 508,0"
                 id="path172"
                 inkscape:connector-curvature="0"
                 style="fill:none;stroke:#000000;stroke-width:30" /><path
                 d="m 10699,6496 508,0"
                 id="path174"
                 inkscape:connector-curvature="0"
                 style="fill:none;stroke:#000000;stroke-width:30" /><path
                 d="m 11715,6496 420,0"
                 id="path176"
                 inkscape:connector-curvature="0"
                 style="fill:none;stroke:#000000;stroke-width:30" /></g></g><g
             class="com.sun.star.drawing.LineShape"
             id="g178"><g
               id="id15"><path
                 d="m 9385,6496 0,498"
                 id="path181"
                 inkscape:connector-curvature="0"
                 style="fill:none;stroke:#000000;stroke-width:30" /><path
                 d="m 9385,7496 175,-525 -350,0 175,525 z"
                 id="path183"
                 inkscape:connector-curvature="0"
                 style="fill:#000000;stroke:none" /></g></g><g
             class="com.sun.star.drawing.LineShape"
             id="g185"><g
               id="id16"><path
                 d="m 9385,8996 0,-498"
                 id="path188"
                 inkscape:connector-curvature="0"
                 style="fill:none;stroke:#000000;stroke-width:30" /><path
                 d="m 9385,7996 -175,525 350,0 -175,-525 z"
                 id="path190"
                 inkscape:connector-curvature="0"
                 style="fill:#000000;stroke:none" /></g></g><g
             class="com.sun.star.drawing.TextShape"
             id="g192"><g
               id="id17"><text
                 class="TextShape"
                 id="text195"><tspan
                   class="TextParagraph"
                   font-size="494px"
                   font-weight="400"
                   id="tspan197"
                   style="font-size:494px;font-weight:400;font-family:'Liberation Mono, monospace'"><tspan
                     class="TextPosition"
                     x="3422"
                     y="13533"
                     id="tspan199"><tspan
                       id="tspan201"
                       style="fill:#000000;stroke:none">0x00000000</tspan></tspan></tspan></text>
</g></g><g
             class="com.sun.star.drawing.RectangleShape"
             id="g203"><g
               id="id18"><path
                 d="m 9385,13496 2450,0 c 166,0 300,-134 300,-300 l 0,-10400 c 0,-166 -134,-300 -300,-300 l -4900,0 c -166,0 -300,134 -300,300 l 0,10400 c 0,166 134,300 300,300 l 2450,0 z"
                 id="path206"
                 inkscape:connector-curvature="0"
                 style="fill:none;stroke:#000000;stroke-width:30" /></g></g></g></g></g></g></svg>