<?xml version="1.0" encoding="UTF-8" standalone="no"?>
<svg
   xmlns:ooo="http://xml.openoffice.org/svg/export"
   xmlns:dc="http://purl.org/dc/elements/1.1/"
   xmlns:cc="http://creativecommons.org/ns#"
   xmlns:rdf="http://www.w3.org/1999/02/22-rdf-syntax-ns#"
   xmlns:svg="http://www.w3.org/2000/svg"
   xmlns="http://www.w3.org/2000/svg"
   xmlns:sodipodi="http://sodipodi.sourceforge.net/DTD/sodipodi-0.dtd"
   xmlns:inkscape="http://www.inkscape.org/namespaces/inkscape"
   version="1.2"
   width="521.95453"
   height="342.90405"
   viewBox="0 0 14730.717 9677.5143"
   preserveAspectRatio="xMidYMid"
   clip-path="url(#presentation_clip_path)"
   xml:space="preserve"
   id="svg2"
   inkscape:version="0.48.4 r9939"
   sodipodi:docname="hiperpaginación.svg"
   style="fill-rule:evenodd;stroke-width:28.22200012;stroke-linejoin:round"><metadata
     id="metadata128"><rdf:RDF><cc:Work
         rdf:about=""><dc:format>image/svg+xml</dc:format><dc:type
           rdf:resource="http://purl.org/dc/dcmitype/StillImage" /></cc:Work></rdf:RDF></metadata><sodipodi:namedview
     pagecolor="#ffffff"
     bordercolor="#666666"
     borderopacity="1"
     objecttolerance="10"
     gridtolerance="10"
     guidetolerance="10"
     inkscape:pageopacity="0"
     inkscape:pageshadow="2"
     inkscape:window-width="1920"
     inkscape:window-height="1025"
     id="namedview126"
     showgrid="false"
     fit-margin-top="0"
     fit-margin-left="0"
     fit-margin-right="0"
     fit-margin-bottom="0"
     inkscape:zoom="0.83255555"
     inkscape:cx="246.52097"
     inkscape:cy="-67.897147"
     inkscape:window-x="-3"
     inkscape:window-y="-3"
     inkscape:window-maximized="1"
     inkscape:current-layer="svg2" /><defs
     class="ClipPathGroup"
     id="defs4"><clipPath
       id="presentation_clip_path"
       clipPathUnits="userSpaceOnUse"><rect
         x="0"
         y="0"
         width="45000"
         height="32000"
         id="rect7" /></clipPath></defs><defs
     class="TextShapeIndex"
     id="defs9"><g
       ooo:slide="id1"
       ooo:id-list="id3 id4 id5 id6 id7 id8 id9 id10 id11 id12"
       id="g11" /></defs><defs
     class="EmbeddedBulletChars"
     id="defs13"><g
       id="bullet-char-template(57356)"
       transform="scale(4.8828125e-4,-4.8828125e-4)"><path
         d="M 580,1141 1163,571 580,0 -4,571 580,1141 z"
         id="path16"
         inkscape:connector-curvature="0" /></g><g
       id="bullet-char-template(57354)"
       transform="scale(4.8828125e-4,-4.8828125e-4)"><path
         d="m 8,1128 1129,0 L 1137,0 8,0 8,1128 z"
         id="path19"
         inkscape:connector-curvature="0" /></g><g
       id="bullet-char-template(10146)"
       transform="scale(4.8828125e-4,-4.8828125e-4)"><path
         d="M 174,0 602,739 174,1481 1456,739 174,0 z m 1184,739 -1049,607 350,-607 699,0 z"
         id="path22"
         inkscape:connector-curvature="0" /></g><g
       id="bullet-char-template(10132)"
       transform="scale(4.8828125e-4,-4.8828125e-4)"><path
         d="M 2015,739 1276,0 717,0 l 543,543 -1086,0 0,393 1086,0 -543,545 557,0 741,-742 z"
         id="path25"
         inkscape:connector-curvature="0" /></g><g
       id="bullet-char-template(10007)"
       transform="scale(4.8828125e-4,-4.8828125e-4)"><path
         d="m 0,-2 c -7,16 -16,29 -25,39 l 381,530 c -94,256 -141,385 -141,387 0,25 13,38 40,38 9,0 21,-2 34,-5 21,4 42,12 65,25 l 27,-13 111,-251 280,301 64,-25 24,25 c 21,-10 41,-24 62,-43 C 886,937 835,863 770,784 769,783 710,716 594,584 L 774,223 c 0,-27 -21,-55 -63,-84 l 16,-20 C 717,90 699,76 672,76 641,76 570,178 457,381 L 164,-76 c -22,-34 -53,-51 -92,-51 -42,0 -63,17 -64,51 -7,9 -10,24 -10,44 0,9 1,19 2,30 z"
         id="path28"
         inkscape:connector-curvature="0" /></g><g
       id="bullet-char-template(10004)"
       transform="scale(4.8828125e-4,-4.8828125e-4)"><path
         d="M 285,-33 C 182,-33 111,30 74,156 52,228 41,333 41,471 c 0,78 14,145 41,201 34,71 87,106 158,106 53,0 88,-31 106,-94 l 23,-176 c 8,-64 28,-97 59,-98 l 735,706 c 11,11 33,17 66,17 42,0 63,-15 63,-46 l 0,-122 c 0,-36 -10,-64 -30,-84 L 442,47 C 390,-6 338,-33 285,-33 z"
         id="path31"
         inkscape:connector-curvature="0" /></g><g
       id="bullet-char-template(9679)"
       transform="scale(4.8828125e-4,-4.8828125e-4)"><path
         d="M 813,0 C 632,0 489,54 383,161 276,268 223,411 223,592 c 0,181 53,324 160,431 106,107 249,161 430,161 179,0 323,-54 432,-161 108,-107 162,-251 162,-431 0,-180 -54,-324 -162,-431 C 1136,54 992,0 813,0 z"
         id="path34"
         inkscape:connector-curvature="0" /></g><g
       id="bullet-char-template(8226)"
       transform="scale(4.8828125e-4,-4.8828125e-4)"><path
         d="m 346,457 c -73,0 -137,26 -191,78 -54,51 -81,114 -81,188 0,73 27,136 81,188 54,52 118,78 191,78 73,0 134,-26 185,-79 51,-51 77,-114 77,-187 0,-75 -25,-137 -76,-188 -50,-52 -112,-78 -186,-78 z"
         id="path37"
         inkscape:connector-curvature="0" /></g><g
       id="bullet-char-template(8211)"
       transform="scale(4.8828125e-4,-4.8828125e-4)"><path
         d="m -4,459 1139,0 0,147 -1139,0 0,-147 z"
         id="path40"
         inkscape:connector-curvature="0" /></g></defs><defs
     class="TextEmbeddedBitmaps"
     id="defs42" /><g
     id="g44"
     transform="translate(-1404.2825,-1635.0004)"><g
       id="id2"
       class="Master_Slide"><g
         id="bg-id2"
         class="Background" /><g
         id="bo-id2"
         class="BackgroundObjects" /></g></g><g
     class="com.sun.star.drawing.TextShape"
     id="g56"
     transform="translate(-1404.2825,-1635.0004)"><g
       id="id3"><text
         class="TextShape"
         id="text59"><tspan
           class="TextParagraph"
           font-size="494px"
           font-weight="400"
           id="tspan61"
           style="font-size:494px;font-weight:400;font-family:'Liberation Sans, sans-serif'"><tspan
             class="TextPosition"
             x="6051"
             y="11210"
             id="tspan63"><tspan
               id="tspan65"
               style="fill:#000000;stroke:none">grado de multiprogramación</tspan></tspan></tspan></text>
</g></g><g
     class="com.sun.star.drawing.LineShape"
     id="g67"
     transform="translate(-1404.2825,-1635.0004)"><g
       id="id4"><path
         d="m 2635,10135 0,-8005"
         id="path70"
         inkscape:connector-curvature="0"
         style="fill:none;stroke:#000000;stroke-width:30" /><path
         d="m 2635,1635 -172,518 345,0 -173,-518 z"
         id="path72"
         inkscape:connector-curvature="0"
         style="fill:#000000;stroke:none" /></g></g><g
     class="com.sun.star.drawing.LineShape"
     id="g74"
     transform="translate(-1404.2825,-1635.0004)"><g
       id="id5"><path
         d="m 2635,10135 13006,0"
         id="path77"
         inkscape:connector-curvature="0"
         style="fill:none;stroke:#000000;stroke-width:30" /><path
         d="m 16135,10135 -517,-172 0,345 517,-173 z"
         id="path79"
         inkscape:connector-curvature="0"
         style="fill:#000000;stroke:none" /></g></g><g
     class="com.sun.star.drawing.TextShape"
     id="g81"
     transform="matrix(0.01628321,-0.99986742,0.99986742,0.01628321,-7425.6135,7907.3191)"><g
       id="id6"><text
         class="TextShape"
         id="text84"><tspan
           class="TextParagraph"
           font-size="494px"
           font-weight="400"
           id="tspan86"
           style="font-size:494px;font-weight:400;font-family:'Liberation Sans, sans-serif'"><tspan
             class="TextPosition"
             x="1904"
             y="7738"
             transform="matrix(0,-1,1,0,-5834,9642)"
             id="tspan88"><tspan
               id="tspan90"
               style="fill:#000000;stroke:none">uso de la CPU</tspan></tspan></tspan></text>
</g></g><g
     class="com.sun.star.drawing.TextShape"
     id="g92"
     transform="translate(-1404.2825,-1635.0004)"><g
       id="id7" /></g><g
     class="com.sun.star.drawing.TextShape"
     id="g95"
     transform="translate(-1404.2825,-1635.0004)"><g
       id="id8" /></g><g
     class="com.sun.star.drawing.LineShape"
     id="g98"
     transform="translate(-1404.2825,-1635.0004)"><g
       id="id9"><path
         d="m 11635,4135 2506,0"
         id="path101"
         inkscape:connector-curvature="0"
         style="fill:none;stroke:#000000;stroke-width:30" /><path
         d="m 14635,4135 -517,-172 0,345 517,-173 z"
         id="path103"
         inkscape:connector-curvature="0"
         style="fill:#000000;stroke:none" /></g></g><g
     class="com.sun.star.drawing.LineShape"
     id="g105"
     transform="translate(-1404.2825,-1635.0004)"><g
       id="id10"><path
         d="m 11635,3635 0,1000"
         id="path108"
         inkscape:connector-curvature="0"
         style="fill:none;stroke:#000000;stroke-width:30" /></g></g><g
     class="com.sun.star.drawing.OpenBezierShape"
     id="g110"
     transform="translate(-1404.2825,-1635.0004)"><g
       id="id11"><path
         d="M 2831,10107 C 5331,7607 5138,7858 5556,7541 6535,6800 7355,6350 8043,6086 c 914,-350 1684,-539 2619,-476 768,52 816,383 900,529 212,370 433,2458 573,2996 88,337 118,405 221,549 132,185 450,397 264,291 0,0 186,159 503,159"
         id="path113"
         inkscape:connector-curvature="0"
         style="fill:none;stroke:#000000;stroke-width:30" /></g></g><g
     class="com.sun.star.drawing.TextShape"
     id="g115"
     transform="translate(-1404.2825,-1635.0004)"><g
       id="id12"><text
         class="TextShape"
         id="text118"><tspan
           class="TextParagraph"
           font-size="494px"
           font-weight="400"
           id="tspan120"
           style="font-size:494px;font-weight:400;font-family:'Liberation Sans, sans-serif'"><tspan
             class="TextPosition"
             x="11885"
             y="5210"
             id="tspan122"><tspan
               id="tspan124"
               style="fill:#000000;stroke:none">hiperpaginación</tspan></tspan></tspan></text>
</g></g></svg>