<?xml version="1.0" encoding="UTF-8"?>
<!DOCTYPE svg PUBLIC "-//W3C//DTD SVG 1.1//EN" "http://www.w3.org/Graphics/SVG/1.1/DTD/svg11.dtd">
<svg xmlns="http://www.w3.org/2000/svg" xmlns:xlink="http://www.w3.org/1999/xlink" version="1.1" width="536px" height="492px" viewBox="-0.5 -0.5 536 492"><defs><style type="text/css">@font-face {&#xa;font-family: "Ink Free";&#xa;src: url("https://ull-esit-sistemas-operativos.github.io/ssoo-apuntes/fonts/InkFree.woff");&#xa;}&#xa;</style></defs><g><rect x="75" y="1" width="320" height="490" fill="none" stroke="none" pointer-events="all"/><path d="M 75 0.52 C 193.94 -0.15 312.82 0.84 396.18 0.39 M 74.35 0.84 C 155.65 -0.41 235.83 -0.35 394.43 1.56 M 395.56 0.61 C 396.63 151.37 396.73 303.24 395.2 490.69 M 394.91 1.26 C 395.48 143.31 394.85 284.74 395.14 491.01 M 395.23 490.07 C 301.95 490.37 206.68 489.02 74.58 490.53 M 395.45 490.68 C 328.26 491.02 261.65 490.57 75.51 490.4 M 75.08 491.33 C 75.47 328.66 74.52 164.98 75.61 1.23 M 75.4 491.32 C 75.55 384.27 75.28 277.27 75.25 0.64" fill="none" stroke="#324ab2" stroke-width="2" stroke-linejoin="round" stroke-linecap="round" stroke-miterlimit="10" pointer-events="all"/><rect x="85" y="121" width="300" height="360" fill="none" stroke="none" pointer-events="all"/><path d="M 85.33 120.62 C 85.33 120.62 85.33 120.62 85.33 120.62 M 85.33 120.62 C 85.33 120.62 85.33 120.62 85.33 120.62 M 85.84 132.86 C 87.51 131.17 89.4 129.96 94.96 122.37 M 84.83 133.4 C 87.84 130.11 91.12 125.94 95.91 121.64 M 84.13 146.84 C 90.78 140.38 97.33 130.88 104.84 122.15 M 85.3 146.01 C 90.19 139.05 95.65 132.8 105.31 120.98 M 83.71 156.76 C 92.11 147.75 101.44 137.21 115.94 123.18 M 84.26 157.72 C 97.12 144.48 107.94 130.76 115.74 120.66 M 86.3 168.46 C 99.47 154.97 111.77 138.85 129.17 120.15 M 84.26 169.11 C 99.21 153.24 113.49 136.99 127.75 120.81 M 83.19 183.4 C 101.81 165.53 115.09 146.17 137.19 120.04 M 84.43 182.97 C 100.66 164.54 117.18 145.67 136.85 121.48 M 83.82 192.85 C 101.38 176.25 115.6 158.12 147.99 121.72 M 84.74 194.06 C 108.04 167.95 131.96 142.41 148.31 120.58 M 83.46 205.73 C 103.17 185.64 119.9 165.16 158.59 121.22 M 84.72 205.54 C 103.94 185.08 123.07 163.71 158.87 120.74 M 83.6 218.88 C 115.99 181.85 151.06 141.99 170.73 119.12 M 85.74 218.74 C 117.39 181.47 149.48 147.2 169.35 121.13 M 86.92 229.16 C 114.85 197.66 148.31 161.21 180.55 121.77 M 85.03 229.82 C 105.52 208.21 125.3 185.18 180.33 120.29 M 86.37 243.48 C 112.3 211.06 143.11 176 190.29 120.66 M 84.65 243.31 C 105.07 218.55 126.86 195.07 190.78 122.01 M 83.44 255.13 C 130.33 200.85 176.92 148.67 201.97 121.74 M 84.8 254.96 C 125.43 209.08 164.12 165.37 201.74 120.16 M 85.96 265.58 C 117.22 230.5 149.58 193.38 213.07 120.68 M 85.5 267.12 C 113.79 234.39 141.87 202.27 212.99 120.52 M 86.2 280.66 C 133.52 224.01 182.9 166.96 222.29 120.31 M 85.82 279.53 C 122.92 234.04 161.64 189.01 222.68 121.56 M 86.48 293.13 C 125.3 245.87 164.82 201 232.98 121.44 M 85.33 291.08 C 118.2 252.68 151.72 214.12 233.86 120.73 M 85.6 302.81 C 141.93 237.99 201.14 171.13 243.28 121.3 M 85.12 303.99 C 125.95 257.53 167.44 212.26 244.55 120.38 M 83.67 316.24 C 127.94 264.52 173.63 211.97 253.41 119.86 M 85.21 316.15 C 139.2 253.19 194.41 189.9 254.15 120.41 M 84.23 327.64 C 124.65 280.11 165.62 236.15 266.59 120.46 M 84.67 329 C 148.42 257.84 210.05 185.55 266.05 120.81 M 85.22 340.14 C 123.63 297.28 161.14 252.83 276.31 119.73 M 85.34 340.44 C 132.51 283.59 181.41 227.66 275.41 120.08 M 84.91 352.95 C 127.54 302.53 171.24 255.84 286.54 121.19 M 85.46 353.12 C 128.65 302.42 171.94 252.23 286.23 120.38 M 85.18 366.45 C 130.39 315.85 173.06 265.07 298.57 119.7 M 85.03 365.32 C 143.91 296.79 203.25 228.39 297.77 121.29 M 85.15 375.94 C 133.62 320.82 183.04 264.74 307.3 119.95 M 84.36 376.65 C 174.2 276.01 261.01 175.58 307.78 120.75 M 84.32 390.46 C 145.16 321.7 203.41 254.07 316.89 122.11 M 85.41 388.7 C 149.07 315.98 212.08 241.84 317.75 121.23 M 84.58 402.46 C 140.26 335.94 195.99 272.92 327.89 120.57 M 85.51 401.93 C 180.2 291.01 276.37 181.44 328.3 121.56 M 85.48 413.63 C 152.29 335.58 220.84 256.67 338.77 120.62 M 85.71 413.44 C 149.45 338.5 213.4 264.55 339.71 121.62 M 83.82 426.74 C 146.42 353.16 210.06 282.62 349.61 120.9 M 84.23 426.25 C 188.13 306.5 292.36 187.41 349.53 121.18 M 84.17 438.89 C 146.83 365.54 210.75 292.52 361.06 121.36 M 84.65 438.1 C 154.88 359.8 223.1 281.73 360.52 121.54 M 85.25 450.52 C 181.5 341.35 274.29 233.51 370.98 121.72 M 85.46 450.68 C 183 334.42 283.97 218.6 371.15 121.48 M 84.27 462.8 C 163.96 369.17 244.5 276.41 380.79 121.12 M 85.12 462.7 C 147.43 390.86 208.93 320.45 381.71 120.71 M 85.82 474.03 C 146.12 404.36 209.65 331.73 388.4 124.52 M 85.61 473.9 C 174.89 373.17 263.14 272.44 388.68 124.73 M 87.84 483.11 C 200.33 354.87 311.4 225.87 389.07 137.16 M 87.92 483.01 C 181.23 374.07 275.13 266.39 389.46 136.9 M 98.54 483.53 C 170.44 399.43 244.41 314.49 390.08 148.07 M 99.09 483.09 C 160.14 411.52 223.13 338.47 389.49 149.22 M 108.31 483.98 C 181.89 399.25 255.57 316.41 390.06 160.28 M 109.72 482.88 C 182.77 398.23 256.57 314.6 389.67 161.41 M 120.38 483.7 C 192.31 398.9 266.89 312.57 388.87 173.82 M 119.93 483.64 C 173.95 418.66 229.03 355.9 389.73 172.92 M 131.38 482.28 C 216.46 384.61 300.63 287.13 389.55 185.21 M 130.59 483.34 C 228.65 370.85 326.78 257.11 388.8 185.83 M 141.53 484.13 C 232.36 377.72 324.13 273.32 388.34 198.68 M 141.47 483.03 C 215.21 397.37 289 312.31 389.01 198.06 M 151.61 482.79 C 224.7 396.15 299.3 311.37 388.59 210.01 M 152.04 483.07 C 228.9 397.8 303.83 311.01 389.72 209.73 M 162.2 485.01 C 216.38 424.17 268.91 365.12 388.26 222.89 M 161.15 483.61 C 212.67 424.6 264.32 364.21 389.69 222.09 M 172.06 484.08 C 257.87 385.06 343.53 286.46 387.95 235.47 M 172.18 483.26 C 246.48 397.39 320.51 311.76 388.74 235.25 M 181.69 484.14 C 237.15 422.64 292.83 359.47 389.73 245.5 M 183.02 483.74 C 239.07 417.03 296.96 349.36 389.05 246.67 M 195.07 482.31 C 253.83 412.33 316.26 340.17 389.93 257.65 M 193.57 483.17 C 242.16 428.29 291.16 370.79 388.82 258.58 M 203.93 482.9 C 253.41 426.51 302.49 369.7 388.41 270.22 M 204.37 483.8 C 247.13 433.77 289.71 385.63 388.82 271.44 M 215.31 483.99 C 262.98 429.55 312.1 374.56 388.29 283.68 M 214.87 483.98 C 259.03 432.21 304.53 379.82 389.5 282.77 M 224.68 482.22 C 282.61 417.29 340.64 353.5 387.4 296.43 M 225.36 483.86 C 261.5 442.3 296.94 401.32 388.28 296.32 M 235.56 483.89 C 267.48 445.7 297.42 410.71 389.94 307.43 M 236.88 483.03 C 281.97 428.79 329.89 374.64 389.14 307.96 M 246.68 485.02 C 275.84 447.76 307.84 412.61 390.77 318.93 M 246.64 483.8 C 284.18 441.36 320.5 399.37 388.65 320.55 M 256.28 485.2 C 298.92 438.98 336.9 393.64 391 332.93 M 257.92 483.4 C 307.13 428.88 355.85 372.25 389.11 332.49 M 269.29 483.9 C 300.04 444.61 333.31 405.92 388.61 342.01 M 268.66 484.19 C 310.49 436.73 351.85 387.81 389.11 344.28 M 280.48 485.43 C 311.06 444.28 345.51 404.25 388.77 355.32 M 277.73 483.55 C 315.05 441.89 350.43 401.22 388.7 357.45 M 288.83 483.17 C 319.4 446.26 353.86 409.15 389.04 370.66 M 290.32 483.32 C 321.7 445.88 354.43 407.86 389.92 368.57 M 299.86 484.1 C 322.03 462.05 340.31 436.88 390.42 381.6 M 299.31 482.73 C 325.61 454.13 351.11 423.46 389.5 381.4 M 309.18 484.34 C 331.72 457.63 354.34 430.65 389.85 391.92 M 309.99 484.27 C 330.6 458.4 350.41 435.7 389.16 392.76 M 320.19 482.46 C 334.41 465.36 349.21 449.98 391.24 403.61 M 321.73 482.48 C 342.87 460.11 361.47 436.98 389.57 405.16 M 331.73 482.76 C 347.23 466.12 363.22 447.06 390.49 419.02 M 332.59 483.85 C 345.69 467.59 359.58 451.25 389.37 418.34 M 343.82 484.61 C 355.09 470.22 366.19 458.36 389.8 429.1 M 343.03 483.6 C 352.74 473.08 361.33 461.97 388.47 430.19 M 353.31 481.77 C 365.11 471.07 374.61 456.14 387.46 443.23 M 352.54 483.58 C 366.23 468.66 378.46 453.83 389.74 442.02 M 363.58 483.69 C 371.74 475.44 378.1 463.55 388.1 453.56 M 363.28 483.1 C 374.33 472.34 385.06 459.36 390.28 453.44 M 376.23 482.8 C 378.8 477.96 384.17 470.68 387.78 465.06 M 374.77 482.74 C 379.71 476.32 384.92 470.97 388.48 465.98" fill="none" stroke="#c2bee6" stroke-linejoin="round" stroke-linecap="round" stroke-miterlimit="10" pointer-events="all"/><path d="M 84.16 121.38 C 197.26 120.02 307.8 118.38 385.17 120.82 M 85.59 120.7 C 181.32 120.65 277.57 120.33 385.31 120.53 M 384.46 121.37 C 386.75 225.18 386.41 332.74 384.4 481.08 M 385.21 120.4 C 382.79 262.9 382.15 405 384.56 480.85 M 384.63 482.45 C 313.44 479.73 243.67 478.35 84.85 479.87 M 384.91 481.28 C 301.46 482.05 217.61 481.6 84.55 481.04 M 85.22 480.11 C 85.55 393.39 85.31 305.76 84.03 119.74 M 84.84 481.46 C 87.27 401.41 86.31 322.02 85.18 121.55" fill="none" stroke="#324ab2" stroke-width="2" stroke-linejoin="round" stroke-linecap="round" stroke-miterlimit="10" pointer-events="all"/><rect x="85" y="11" width="300" height="110" fill="none" stroke="none" pointer-events="all"/><path d="M 86.26 10.62 C 195.56 11.16 308.86 10.33 386.05 9.64 M 84.38 11.63 C 187.32 11.76 289.71 12.49 385.61 10.35 M 383.68 11.84 C 386.41 46.42 386.56 81.1 383.45 122.26 M 384.63 10.25 C 384.69 39.84 384.71 69.75 385.71 120.12 M 383.93 120.83 C 308.02 118.1 231.56 119.25 84.73 121.04 M 384.96 120.44 C 307.89 119.56 231.91 120.38 84.51 120.34 M 86.63 121.31 C 85.15 84.37 87.03 48.97 86.07 9.81 M 85.97 121.73 C 83.21 78.93 84.2 36.61 84.73 11.86" fill="none" stroke="#324ab2" stroke-width="2" stroke-linejoin="round" stroke-linecap="round" stroke-miterlimit="10" pointer-events="all"/><g fill="#324AB2" font-family="Ink Free" font-weight="bold" text-anchor="middle" font-size="17px"><text x="234.5" y="60.5">Sistema operativo</text><text x="234.5" y="80.5">(Núcleo)</text></g><path d="M 86.88 130.71 L 386.53 132.83 L 384.01 149.71 L 84.8 149.5" fill="#ffffff" stroke="none" pointer-events="all"/><path d="M 85.42 129.86 C 196.79 132.3 306.98 132.28 384 131.4 M 84.63 131.09 C 193.31 132.88 303.32 133.19 384.45 131.64 M 383.22 132.09 C 384.36 138.08 385.2 142.3 386.84 149.39 M 385.93 130.45 C 385.51 137.68 384.55 144.18 385.11 151.47 M 386.17 152.14 C 305.54 149.4 222.39 150.16 84.61 152.21 M 385 151.07 C 315.79 151.48 246.22 152.09 84.46 151.11 M 83.91 149.03 C 84.12 146.67 84.26 140.8 84.66 130.6 M 85.19 151.73 C 84.31 144.63 85.81 137.4 84.17 131.85" fill="none" stroke="#324ab2" stroke-width="2" stroke-linejoin="round" stroke-linecap="round" stroke-miterlimit="10" pointer-events="all"/><g fill="#324AB2" font-family="Ink Free" font-weight="bold" text-anchor="middle" font-size="17px"><text x="234.5" y="145.5">Pila principal</text></g><path d="M 83.68 329.56 L 384.62 332.45 L 384.52 380.18 L 86.65 382.57" fill="#ffffff" stroke="none" pointer-events="all"/><path d="M 83.75 331.27 C 196.33 330.18 309.1 331.79 385.77 331.97 M 85.15 331.48 C 146.77 330.7 209.07 331.64 385.07 331.27 M 386.3 332.59 C 386.94 348.12 385.17 366.19 385.62 381.66 M 384.52 330.85 C 384.2 344.74 385.29 357.79 385.93 380.17 M 384.78 381.83 C 294.72 379.07 204.05 379.03 84.37 381.62 M 385.08 380.86 C 270.11 382.37 154.82 382.58 84.37 381.17 M 86.46 382.47 C 86.12 362.47 82.79 340.88 85.84 332.19 M 85.63 381.73 C 84.99 366.49 85.5 353.94 85.05 331.82" fill="none" stroke="#324ab2" stroke-width="2" stroke-linejoin="round" stroke-linecap="round" stroke-miterlimit="10" pointer-events="all"/><g fill="#324AB2" font-family="Ink Free" font-weight="bold" text-anchor="middle" font-size="17px"><text x="234.5" y="360.5">Montón</text></g><path d="M 84.08 380.98 L 383.66 382.27 L 386.77 420.41 L 85.57 422.1" fill="#ffffff" stroke="none" pointer-events="all"/><path d="M 85.84 380.51 C 197.56 379.86 307.23 379.34 383.72 380.79 M 85.41 380.94 C 152.76 381.82 221.21 382.34 385.38 381.09 M 385.83 382.84 C 385.4 394.43 384.31 410.69 385.01 422.79 M 385.82 381.05 C 385.14 394.93 385.25 406.93 385.33 421.53 M 384.09 420.2 C 289.31 420.37 194.88 419.93 84.25 419.85 M 385.12 421.48 C 278.01 421.34 170.59 421.36 84.33 420.46 M 83.74 420.19 C 85.57 411.36 84.51 399.9 84.43 382.98 M 84.84 421.73 C 85.34 411.04 84.36 402.46 84.49 381.81" fill="none" stroke="#324ab2" stroke-width="2" stroke-linejoin="round" stroke-linecap="round" stroke-miterlimit="10" pointer-events="all"/><g fill="#324AB2" font-family="Ink Free" font-weight="bold" text-anchor="middle" font-size="17px"><text x="234.5" y="405.5">Datos</text></g><path d="M 84.48 422.4 L 386.71 422.08 L 385.03 460.64 L 84.5 461.63" fill="#ffffff" stroke="none" pointer-events="all"/><path d="M 85 419.75 C 195.86 421 308.29 421.29 384.61 419.62 M 85.67 420.4 C 160.22 420 234.82 420.1 385.69 420.91 M 385.37 419.09 C 384.71 438.36 384.32 452.45 384.4 459.92 M 385.12 421.25 C 384.91 429.81 386.04 437.43 384.74 460.88 M 386.32 461.51 C 286.83 458.74 185.71 457.9 84.13 461.03 M 385.16 460.65 C 284.43 463.26 184.9 463.08 84.29 461.23 M 85.02 461.9 C 84.94 448.36 86.15 431.13 83.03 419.78 M 84.06 461.72 C 84.92 452.84 84.45 445.45 85.93 421.8" fill="none" stroke="#324ab2" stroke-width="2" stroke-linejoin="round" stroke-linecap="round" stroke-miterlimit="10" pointer-events="all"/><g fill="#324AB2" font-family="Ink Free" font-weight="bold" text-anchor="middle" font-size="17px"><text x="234.5" y="445.5">Código</text></g><path d="M 235 151 L 235 158.3" fill="none" stroke="none" pointer-events="stroke"/><path d="M 235 168.8 L 228 154.8 L 235 158.3 L 242 154.8 Z" fill="none" stroke="none" pointer-events="all"/><path d="M 236.43 152.79 M 235.33 150.85 C 234.23 153.12 235.2 154.61 234.78 157.63 M 235.08 151.24 C 234.86 153.4 234.71 155.5 234.69 158.37" fill="none" stroke="#324ab2" stroke-width="2" stroke-linejoin="round" stroke-linecap="round" stroke-miterlimit="10" pointer-events="stroke"/><path d="M 228.13 154.66 C 228.13 154.66 228.13 154.66 228.13 154.66 M 228.13 154.66 C 228.13 154.66 228.13 154.66 228.13 154.66 M 232.17 161.75 C 232.63 161.55 233.41 160.56 235.17 158.41 M 232.05 162.28 C 233.28 161.35 234.22 159.89 235.26 158.2" fill="none" stroke="#324ab2" stroke-linejoin="round" stroke-linecap="round" stroke-miterlimit="10" pointer-events="all"/><path d="M 235.95 168.64 M 235.77 169.97 C 233.66 165.71 231 164.24 228.16 155.64 M 235.47 168.38 C 233.25 165.27 231.42 159.72 227.6 154.77 M 227.72 154.15 C 229.59 156.39 232.36 156.73 235.53 158.75 M 228.21 154.93 C 230.59 156.25 232.87 157.41 234.98 158.07 M 234.95 157.68 C 237.41 157.4 238.93 155.96 242.46 155.51 M 234.98 158.52 C 237.11 157.16 239.5 155.81 242.22 154.61 M 242.25 154.9 C 239.01 160 236.98 163.85 233.78 169.14 M 242.55 154.84 C 239.92 160.29 236.86 166.19 234.31 169.28" fill="none" stroke="#324ab2" stroke-width="2" stroke-linejoin="round" stroke-linecap="round" stroke-miterlimit="10" pointer-events="all"/><path d="M 235 303.66 L 235 331" fill="none" stroke="none" pointer-events="stroke"/><path d="M 235 293.16 L 242 307.16 L 235 303.66 L 228 307.16 Z" fill="none" stroke="none" pointer-events="all"/><path d="M 236.43 301.79 M 233.58 302.42 C 234.68 314.75 237.11 321.98 234.83 330.71 M 234.65 304.14 C 235.75 310.27 234.67 317.28 234.33 331.73" fill="none" stroke="#324ab2" stroke-width="2" stroke-linejoin="round" stroke-linecap="round" stroke-miterlimit="10" pointer-events="stroke"/><path d="M 235.01 293.14 C 235.01 293.14 235.01 293.14 235.01 293.14 M 235.01 293.14 C 235.01 293.14 235.01 293.14 235.01 293.14 M 235.66 304.08 C 236.05 303.51 237.06 302.74 238.63 300.95 M 235.98 304.59 C 236.95 303.37 237.87 301.88 239.22 300.8" fill="none" stroke="#324ab2" stroke-linejoin="round" stroke-linecap="round" stroke-miterlimit="10" pointer-events="all"/><path d="M 236.27 291.53 M 235.01 292.62 C 236.84 296.87 236.69 298.3 241.79 306.06 M 234.61 293.73 C 236.86 296.23 238.81 299.64 242.28 306.92 M 241.43 306.69 C 239.44 305.62 236.31 304.61 235.24 303.81 M 242.3 307.42 C 239.15 306.28 236.77 304.93 235.06 303.71 M 235.04 304.19 C 232.86 305.11 231.05 305.67 227.88 306.72 M 235.05 303.76 C 232.66 304.86 230.13 306.03 227.96 306.79 M 227.75 308.58 C 229.91 303.44 234.01 297.04 234.46 294.52 M 228 307.11 C 230.16 304.17 230.97 299.55 234.46 293.83" fill="none" stroke="#324ab2" stroke-width="2" stroke-linejoin="round" stroke-linecap="round" stroke-miterlimit="10" pointer-events="all"/><rect x="0" y="1" width="75" height="20" fill="none" stroke="none" pointer-events="all"/><g fill="#324AB2" font-family="Ink Free" font-weight="bold" text-anchor="end" font-size="17px"><text x="62.5" y="15.5">MAX.</text></g><rect x="0" y="471" width="75" height="20" fill="none" stroke="none" pointer-events="all"/><g fill="#324AB2" font-family="Ink Free" font-weight="bold" text-anchor="end" font-size="17px"><text x="62.5" y="485.5">0x0000</text></g><path d="M 405.39 10.24 L 424.56 11.06 L 424.67 122.38 L 404.96 119" fill="none" stroke="none" transform="translate(414,0)scale(-1,1)translate(-414,0)" pointer-events="all"/><path d="M 422.6 10.52 M 422.9 11.74 C 419.79 10.31 417.68 11.6 413.42 11.84 M 423.11 11.16 C 420.59 11.12 417.72 11.13 414.34 10.59 M 412.53 10.99 C 413.45 35.01 412.86 54.73 415.12 119.81 M 413.21 11.41 C 412.49 38.04 412.39 65.27 413.56 121.15 M 413.76 120.52 C 416.45 121.21 417.82 121.21 422.57 120.15 M 414.35 121.44 C 416.11 120.72 417.44 120.58 423.25 120.82" fill="none" stroke="#324ab2" stroke-width="2" stroke-linejoin="round" stroke-linecap="round" stroke-miterlimit="10" transform="translate(414,0)scale(-1,1)translate(-414,0)" pointer-events="all"/><path d="M 404.6 65.52 M 404.9 66.74 C 406.76 65.41 409.64 66.71 413.42 66.84 M 405.11 66.16 C 407.61 66.27 409.75 66.27 414.34 65.59" fill="none" stroke="#324ab2" stroke-width="2" stroke-linejoin="round" stroke-linecap="round" stroke-miterlimit="10" transform="translate(414,0)scale(-1,1)translate(-414,0)" pointer-events="all"/><path d="M 405.79 121.66 L 423.6 120.87 L 422.92 482.61 L 403.89 482.53" fill="none" stroke="none" transform="translate(414,0)scale(-1,1)translate(-414,0)" pointer-events="all"/><path d="M 422.6 120.86 M 423.65 121.37 C 419.35 120.57 416.06 121.01 413.62 120.74 M 422.85 121.07 C 420.69 120.89 418.93 121.13 414.42 120.83 M 415.03 120.5 C 413.55 236.98 415.46 355.57 413.04 481.91 M 414.29 121.35 C 415.1 222.62 415.76 325.18 413.82 480.62 M 413.32 481.33 C 416.59 481.88 417.72 480.23 422.35 480.84 M 413.86 481.11 C 417.02 481.27 419.41 481.15 422.74 480.69" fill="none" stroke="#324ab2" stroke-width="2" stroke-linejoin="round" stroke-linecap="round" stroke-miterlimit="10" transform="translate(414,0)scale(-1,1)translate(-414,0)" pointer-events="all"/><path d="M 404.6 300.86 M 405.65 301.37 C 408.49 300.4 412.35 300.85 413.62 300.74 M 404.85 301.07 C 406.69 300.81 408.92 301.05 414.42 300.83" fill="none" stroke="#324ab2" stroke-width="2" stroke-linejoin="round" stroke-linecap="round" stroke-miterlimit="10" transform="translate(414,0)scale(-1,1)translate(-414,0)" pointer-events="all"/><rect x="435" y="281" width="100" height="40" fill="none" stroke="none" transform="translate(485,0)scale(-1,1)translate(-485,0)" pointer-events="all"/><g fill="#324AB2" font-family="Ink Free" font-weight="bold" font-size="17px"><text x="436.5" y="295.5">Espacio</text><text x="436.5" y="315.5">de usuario</text></g><rect x="435" y="46" width="100" height="40" fill="none" stroke="none" transform="translate(485,0)scale(-1,1)translate(-485,0)" pointer-events="all"/><g fill="#324AB2" font-family="Ink Free" font-weight="bold" font-size="17px"><text x="436.5" y="60.5">Espacio</text><text x="436.5" y="80.5">de núcleo</text></g><path d="M 83.79 180.77 L 384.83 179.93 L 384.19 279.78 L 86.52 280.2" fill="#ffffff" stroke="none" pointer-events="all"/><path d="M 84.41 181.46 C 170.36 179.3 252.29 178.99 383.89 180.86 M 84.29 181.56 C 194.87 179.61 304 180.09 384.95 181.7 M 386.93 182.56 C 386.44 208.51 387.11 237.15 383.82 282.91 M 384.11 181.41 C 384.96 216.88 385.12 254.8 384.57 280.06 M 383.63 281.42 C 281.34 280.76 174.27 279.63 83.57 279.7 M 385.38 280.91 C 293.01 280.8 200.22 280.01 84.36 280.6 M 86.11 279.83 C 86.11 251.52 85.56 225.52 86.51 179.4 M 84.73 281.32 C 84.71 258.45 85.11 237.6 84.82 181.36" fill="none" stroke="#324ab2" stroke-width="2" stroke-linejoin="round" stroke-linecap="round" stroke-miterlimit="10" pointer-events="all"/><g fill="#324AB2" font-family="Ink Free" font-weight="bold" text-anchor="middle" font-size="17px"><text x="234.5" y="205.5">Memoria mapeada (mmap)</text><text x="234.5" y="225.5">Archivos mapeados, librerías</text><text x="234.5" y="245.5">dinámicas, memoria compartida,</text><text x="234.5" y="265.5">pilas de hilos, memoria reservada, ...</text></g></g></svg>