<?xml version="1.0" encoding="UTF-8"?>
<!DOCTYPE svg PUBLIC "-//W3C//DTD SVG 1.1//EN" "http://www.w3.org/Graphics/SVG/1.1/DTD/svg11.dtd">
<svg xmlns="http://www.w3.org/2000/svg" xmlns:xlink="http://www.w3.org/1999/xlink" version="1.1" width="536px" height="492px" viewBox="-0.5 -0.5 536 492"><defs><style type="text/css">@font-face {&#xa;font-family: "Ink Free";&#xa;src: url("https://ull-esit-sistemas-operativos.github.io/ssoo-apuntes/fonts/InkFree.woff");&#xa;}&#xa;</style></defs><g><rect x="75" y="1" width="317" height="490" fill="none" stroke="none" pointer-events="all"/><path d="M 74.48 0.59 C 167.51 2.46 257.99 0.62 392.61 1.3 M 74.95 1.42 C 176.99 0.17 277.67 0.22 392 1.25 M 391.38 1.47 C 393.93 161.61 393.37 323.64 392.44 490.29 M 392.37 0.95 C 390.62 158.91 390.22 315.78 392.23 491.33 M 391.69 489.64 C 264.36 491.89 137.86 491.44 75.41 491.71 M 392.01 490.35 C 276.5 488.39 160.85 488.63 75.14 491.02 M 75.65 491.36 C 72.94 387.13 73.66 285.23 75.2 1.38 M 75.18 490.91 C 75.6 347.66 74.9 204.62 74.99 1.36" fill="none" stroke="#324ab2" stroke-width="2" stroke-linejoin="round" stroke-linecap="round" stroke-miterlimit="10" pointer-events="all"/><rect x="85" y="121" width="297" height="360" fill="none" stroke="none" pointer-events="all"/><path d="M 84.86 121.17 C 84.86 121.17 84.86 121.17 84.86 121.17 M 84.86 121.17 C 84.86 121.17 84.86 121.17 84.86 121.17 M 83.6 132.1 C 86.62 128.56 91.38 128.32 94.36 119.57 M 85.3 133.07 C 88.5 129.38 91.18 125.79 95.1 120.73 M 84.6 145.18 C 91.21 135.96 101.16 128.24 105.95 121.2 M 85.61 144.38 C 89.36 140.52 94.47 134.28 106.9 121.06 M 83.6 158.83 C 93.01 150.46 99.77 140.56 115.99 120.52 M 84.87 156.35 C 95.31 146.39 105.16 134.6 116.75 121.95 M 85.35 168.46 C 94.75 157.22 104.48 146.83 128.72 119.64 M 85.66 169.87 C 101.42 153 115.17 135.24 127.57 121.98 M 83.15 183.1 C 101.36 165.2 116.13 146.06 138.98 122.56 M 85.77 182.85 C 98.78 164.79 113.29 149.59 138.63 121.13 M 85.65 192.54 C 98.77 177.45 118.43 156.08 147.05 121.61 M 85.86 194.25 C 105.5 170.1 127.39 144.94 148.96 120.21 M 86.61 207.14 C 114.08 173.93 138.28 143.85 157.83 120.38 M 85.47 206.63 C 108.61 176.98 134.8 148.62 158.75 120.47 M 83.39 217.52 C 108.12 187.91 134.38 160.08 171.89 120.55 M 85.81 218.46 C 108.19 191.23 132.22 164.56 170.85 121.13 M 83.38 230.14 C 116.16 193.04 147.85 158.31 180.66 120.77 M 84.57 230.45 C 105.04 206.91 125.77 182.93 180.1 120.95 M 85.79 243.19 C 111.97 210.77 141.04 178.15 189.51 119.57 M 83.95 242.09 C 123.21 198.9 160.03 155.64 190.89 121.78 M 84.79 253.96 C 110.6 221.56 137.73 190.83 200.9 122.2 M 84.16 255.73 C 111.78 224.24 137.01 193.86 202.48 120.17 M 83.31 266.74 C 118.36 229.72 154.32 188.65 213.49 119.5 M 85.52 267.12 C 114.88 232.94 144.03 200.7 212.56 120.86 M 83.7 280.28 C 133.47 223.83 177.4 170.58 221.49 119.04 M 85.2 279.71 C 114.23 243.56 143.7 210.12 222.61 120.44 M 85.09 292.1 C 140.08 227.62 197.84 164.79 232.86 119.1 M 84.1 291.33 C 119.02 254.71 150.32 217.98 233.25 120.7 M 83.73 304.86 C 127.83 256.02 167.63 210.41 245.58 120.5 M 84.52 303.66 C 119.17 265.04 153.63 224.92 243.9 120.6 M 84.52 315.91 C 118.9 275.09 154.1 237.09 254.65 122.28 M 84.44 315.75 C 134.82 255.9 187.46 196.89 253.48 121.96 M 85.85 327.02 C 129.07 275.7 172.54 226.18 263.66 121.41 M 84.68 327.65 C 125.39 283.97 165.07 239.68 264.16 121.13 M 85.46 340.46 C 127.22 293.81 169.2 243.71 276.18 122.48 M 86.01 340.56 C 146.1 267.18 210.01 194.06 275.28 121.22 M 85.03 353.05 C 139.64 290.29 192.66 227.93 285.78 121.38 M 85.16 352.72 C 161.68 266.89 237.5 179.28 285.66 120.76 M 85.86 364.58 C 134.51 308.77 183.58 251.49 296.13 120.57 M 84.64 365.11 C 129.75 313.04 175.85 259.77 297 121.8 M 84.75 377.99 C 162.72 287.96 240.92 198.11 307.92 121.81 M 85.05 376.75 C 132.83 323.36 179.91 269.85 307.62 120.9 M 84.24 390.33 C 142.79 323.06 199.56 256.55 318.81 120.38 M 84.78 388.6 C 165.93 294.12 248.26 200.92 317.83 121.48 M 85.56 401.12 C 141.37 340.21 195.85 276.4 328.39 120.47 M 85.69 401.09 C 140.12 339.74 192.48 278.61 329.25 121.15 M 85.25 414.43 C 148.11 339.96 211.84 266.24 339.72 120.94 M 84.36 413.48 C 177.98 305.59 271.3 199.27 339.47 120.83 M 84.97 425.4 C 158.5 337.94 234.84 252.12 349.06 120.23 M 84.38 425.56 C 149.42 351.45 213.83 276.55 350.44 121.59 M 84.25 438.4 C 146.62 369.94 207.94 298.2 359.71 120.23 M 84.59 438.12 C 187.89 315.98 293.6 195.94 360.85 121.17 M 84.75 449.7 C 152.64 373.37 219.07 296.79 371.89 120.81 M 85.07 449.93 C 173.82 348.32 263.62 244.64 371.59 120.58 M 84.98 462.92 C 176.81 355.98 269.82 249.28 381.02 121.65 M 85.14 462.52 C 196.41 336.34 307.32 209.52 382.14 121.25 M 85.44 474.67 C 157.48 391.41 228.28 309.07 388.59 127.1 M 84.43 474.53 C 148.25 400.35 212.22 327.12 387.85 126.33 M 88.3 483.05 C 171.13 390.06 252.72 296.15 387.94 138.48 M 88.36 483.49 C 202.91 351.05 318.14 219.58 388.34 138.33 M 99.16 483.81 C 201.37 364.39 306.1 245.53 388.92 150.66 M 97.95 483.45 C 179.33 387.72 262.13 293.12 388.48 150.46 M 108.55 483.03 C 170.65 411.64 233.97 340.5 388.54 163.82 M 108.58 483.69 C 198.86 381.04 289.21 277.77 387.97 163.2 M 119.07 482.86 C 213.15 379.06 304.22 272.62 388.45 174.65 M 119.87 484.15 C 188.08 405.82 255.73 327.47 387.79 175.28 M 130.54 484.39 C 201 402.16 271.54 319.28 389.04 186.88 M 130.4 484.12 C 222.9 376.8 315.14 269.61 388.04 186.96 M 140.24 482.76 C 194.02 422.66 247.26 361.58 389.12 199.08 M 141.22 484.02 C 238.45 370.32 336.47 257.84 388.05 198.95 M 151.99 482.79 C 227.74 395.75 304.78 308.39 389.36 211.16 M 150.97 484.17 C 233.17 391.3 314.49 298.02 387.59 210.65 M 161.16 484.66 C 228.16 409.02 295.05 334.83 388.76 224.78 M 161.62 483.1 C 244.88 389.49 327.04 294.78 387.24 224.28 M 171.51 484.73 C 228.02 420.49 282.36 358.75 386.5 236.94 M 171.91 483.75 C 253.35 391.03 334.8 298.49 388.21 236.52 M 182.05 482.61 C 259.49 398.41 333.55 312.71 388.43 248.99 M 183.39 484.11 C 260.65 395.3 336.06 307.83 387.72 247.72 M 194.25 483.95 C 257.8 410.88 317.69 340.11 387.06 260.22 M 193.17 483.24 C 236.68 434.4 279.8 384.56 388.18 260.38 M 205.74 482.31 C 261.84 416.92 320.45 351.35 388.18 273.64 M 204.91 484.27 C 276.06 399.33 348.11 315.49 387.83 272.41 M 215.28 484.57 C 281.49 410 344.95 333.51 386.65 283.79 M 215.3 483.69 C 272.07 419.27 328.86 353.52 388.35 284.65 M 225.48 482.86 C 277.26 425.84 328.16 367.49 389.39 297.49 M 225.49 482.88 C 285.03 412.54 346.98 342.29 387.9 297.85 M 236.05 484.97 C 274.66 439.12 314.04 392.74 388.71 309.31 M 236.3 483.61 C 295.71 414.74 354.6 347.66 387.65 308.77 M 245.94 484.49 C 277.35 450.39 304.72 415.68 386.57 319.71 M 247.67 484.08 C 279.64 447.18 312.61 409.46 387.75 321.44 M 255.9 482.68 C 309.3 425.1 358.49 370.14 387.33 332.11 M 258.03 483.49 C 306.81 426.26 355.72 370.09 387.63 332.54 M 268.87 481.44 C 309.6 438.04 349.72 390.99 385.77 346.21 M 268.98 483.49 C 294.67 452.28 322.1 419.03 386.77 345.77 M 279.83 482.25 C 316.23 441.82 355.12 397.69 386.37 359.7 M 279.69 482.57 C 314.95 444.41 350.56 403.19 388.62 357.28 M 287.62 484.54 C 318.02 448.47 348.78 412.07 387.65 368.7 M 289.86 483.07 C 311.12 457.66 334.9 432.46 388.26 369.47 M 301.9 484.72 C 329.54 450.43 356.41 417.43 387.79 383.47 M 299.25 482.87 C 329.14 449.44 357.41 416.52 388.41 381.6 M 310.3 483.07 C 327.13 463.69 345.96 441.87 387.02 395.96 M 311.07 482.95 C 326.29 464.97 341.46 446.33 388.22 394.08 M 321.53 482.58 C 340.82 459.33 363.29 436.54 386.13 407.51 M 321.51 482.98 C 345.91 455.26 368.8 429.22 388.04 406.83 M 331.84 484.6 C 345.97 464.42 364.37 444.48 388.21 420.65 M 330.42 483.6 C 351.24 460.33 371.9 436.48 387.5 419.76 M 342.8 484.72 C 354.28 468.75 366.13 456.76 389.83 430.54 M 341.47 482.95 C 353.28 469.97 363.69 457.99 387.02 430.93 M 352.45 484.13 C 363.75 470.21 378.41 455.75 386.81 444.84 M 353.56 482.84 C 359.91 474.51 369.24 466.89 387.81 443.05 M 365.07 485.49 C 369.38 477.14 375.76 467.82 388.69 455.27 M 362.95 483.2 C 370.85 476.2 378.07 466.93 388.74 455.8 M 373.66 484.58 C 377.13 480.6 380.88 475.26 389.14 469.33 M 374 484.45 C 377.39 479.06 381.12 474.92 387.05 468.17" fill="none" stroke="#c2bee6" stroke-linejoin="round" stroke-linecap="round" stroke-miterlimit="10" pointer-events="all"/><path d="M 84.75 120.88 C 193.55 120.77 302.83 121.25 382.58 121.52 M 85.23 120.34 C 187.03 119 290.03 118.53 382.36 120.88 M 382.45 120.23 C 383.52 246.2 383.36 373.73 381.93 480.6 M 381.4 121.32 C 384.51 203.4 384.8 285.03 382.42 481.23 M 380.73 481.58 C 294.22 482.05 206.55 480.48 85.17 481.27 M 381.5 480.51 C 304.58 483.04 227.38 482.93 85.09 481.48 M 86.25 482.21 C 82.5 387.46 83.78 294.99 85.97 122.22 M 85.63 480.41 C 86.99 406.58 86.79 331.49 84.93 121.21" fill="none" stroke="#324ab2" stroke-width="2" stroke-linejoin="round" stroke-linecap="round" stroke-miterlimit="10" pointer-events="all"/><rect x="85" y="11" width="297" height="110" fill="none" stroke="none" pointer-events="all"/><path d="M 84.88 10.67 C 169.74 9.37 258.03 10.09 382.03 10.16 M 85.38 10.66 C 155.42 10.13 223.86 10.38 382.24 10.51 M 382.36 11.13 C 382.85 40.86 382.75 66.51 381.49 122.76 M 381.7 10.07 C 381.41 38.51 382.34 66.53 382.93 120.39 M 381.52 120.21 C 280.82 122.58 183.04 120.76 85.91 119.98 M 381.84 120.74 C 304.84 122.48 227.62 122.06 85.32 120.9 M 85.44 122.98 C 83.23 92.51 83.88 63.82 83.12 12.73 M 84.55 120.8 C 85.63 95.41 85.92 68.91 85.22 11.9" fill="none" stroke="#324ab2" stroke-width="2" stroke-linejoin="round" stroke-linecap="round" stroke-miterlimit="10" pointer-events="all"/><g fill="#324AB2" font-family="Ink Free" font-weight="bold" text-anchor="middle" font-size="17px"><text x="233" y="60.5">Sistema operativo</text><text x="233" y="80.5">(Núcleo)</text></g><path d="M 84.07 421.56 L 381.96 420.56 L 382.6 459.31 L 86.59 461.06" fill="#ffffff" stroke="none" pointer-events="all"/><path d="M 84.03 419.91 C 170.98 420.51 256.14 422.04 382.92 421.92 M 85.64 421.59 C 161.35 421.24 237.35 421.07 382.55 420.33 M 381.9 421.38 C 380.88 432.64 381.48 441.98 380.88 459.89 M 382.99 420.27 C 382.39 434.03 382.34 446.31 382.34 461.74 M 380.82 461.53 C 278.41 460.94 173.97 461.67 85.79 461.16 M 381.89 461.37 C 311.19 460 241.77 460.85 85.28 461.67 M 86.72 460.7 C 86.56 447.95 85.48 431.93 85.71 419.53 M 85.77 460.8 C 85.61 453.83 84.4 445.14 84.66 421.89" fill="none" stroke="#324ab2" stroke-width="2" stroke-linejoin="round" stroke-linecap="round" stroke-miterlimit="10" pointer-events="all"/><g fill="#324AB2" font-family="Ink Free" font-weight="bold" text-anchor="middle" font-size="17px"><text x="233" y="445.5">Código</text></g><rect x="0" y="471" width="75" height="20" fill="none" stroke="none" pointer-events="all"/><g fill="#324AB2" font-family="Ink Free" font-weight="bold" text-anchor="end" font-size="17px"><text x="62.5" y="485.5">0x0000</text></g><rect x="0" y="1" width="75" height="20" fill="none" stroke="none" pointer-events="all"/><g fill="#324AB2" font-family="Ink Free" font-weight="bold" text-anchor="end" font-size="17px"><text x="62.5" y="15.5">MAX.</text></g><path d="M 84.83 379.2 L 381.8 381.2 L 383.14 420.26 L 85 422.09" fill="#ffffff" stroke="none" pointer-events="all"/><path d="M 85.6 381.65 C 195.26 379.64 301.76 379.31 381.69 379.75 M 84.97 380.89 C 181.1 382.27 276.54 382.23 382.05 381.06 M 383.17 379.53 C 383.87 393.72 382.93 408.23 382.5 419.24 M 381.75 381.31 C 381.04 395.72 382.47 410.48 381.25 420.02 M 381.43 420.27 C 299.59 420.74 218.58 419.57 85.29 420.09 M 381.46 421.36 C 298.23 421.14 213.22 419.75 85.13 420.71 M 85.7 421.19 C 83.6 405.31 83.35 390.07 83.95 382.13 M 84.78 420.07 C 85.42 411.18 84.6 400.9 85.45 381.34" fill="none" stroke="#324ab2" stroke-width="2" stroke-linejoin="round" stroke-linecap="round" stroke-miterlimit="10" pointer-events="all"/><g fill="#324AB2" font-family="Ink Free" font-weight="bold" text-anchor="middle" font-size="17px"><text x="233" y="405.5">Datos</text></g><path d="M 86.03 329.46 L 382.94 330.63 L 381.9 380.96 L 85.78 380.69" fill="#ffffff" stroke="none" pointer-events="all"/><path d="M 86.02 332.31 C 193.08 331.59 302.01 330.76 381.41 332.1 M 84.27 330.74 C 200.36 331.21 314.05 331.38 381.51 330.51 M 381.78 330.28 C 380.96 351.36 382.09 371.21 380.67 382.63 M 381.64 331.91 C 382.71 350 381.2 367.27 381.47 380.07 M 382.28 381.27 C 286.43 381.72 188.39 379.35 84.93 380.68 M 381.58 380.3 C 318.76 379.55 255.69 379.04 84.99 381.54 M 85.54 382.35 C 85.7 369.98 84.26 359.12 83.72 330.51 M 84.44 380.07 C 85.7 365.22 84.4 347.2 85.77 331.3" fill="none" stroke="#324ab2" stroke-width="2" stroke-linejoin="round" stroke-linecap="round" stroke-miterlimit="10" pointer-events="all"/><g fill="#324AB2" font-family="Ink Free" font-weight="bold" text-anchor="middle" font-size="17px"><text x="233" y="360.5">Montón</text></g><path d="M 86.43 130.88 L 381.99 130.44 L 380.16 181.19 L 84.7 180.22" fill="#ffffff" stroke="none" pointer-events="all"/><path d="M 85.18 131.54 C 194.32 132.73 303.07 132.71 382.3 130.91 M 84.53 131.67 C 146.89 132.32 208.73 133.55 381.82 130.33 M 381.32 130.53 C 380.33 141.47 382.15 149.32 380.06 179.76 M 382.94 130.11 C 382.61 143.56 382.12 155.14 382.88 181.43 M 381.58 179.64 C 281.06 180.07 179.32 180.25 84.81 181.85 M 381.62 180.93 C 267.19 181.45 151.05 180.73 84.95 180.83 M 86.82 180.06 C 85.1 166.11 85.92 148.61 86.31 131.31 M 85.65 180.07 C 84.12 165.38 85.33 150.93 85.21 131.29" fill="none" stroke="#324ab2" stroke-width="2" stroke-linejoin="round" stroke-linecap="round" stroke-miterlimit="10" pointer-events="all"/><g fill="#324AB2" font-family="Ink Free" font-weight="bold" text-anchor="middle" font-size="17px"><text x="233" y="160.5">Pila</text></g><path d="M 233.5 181 L 233.87 218.26" fill="none" stroke="none" pointer-events="stroke"/><path d="M 233.98 228.76 L 226.84 214.83 L 233.87 218.26 L 240.84 214.69 Z" fill="none" stroke="none" pointer-events="all"/><path d="M 234.84 179.26 M 233.38 179.37 C 233.11 191.38 232.88 201.29 232.88 217.54 M 232.53 181.72 C 234.04 191.27 234.33 203.63 233.25 217.33" fill="none" stroke="#324ab2" stroke-width="2" stroke-linejoin="round" stroke-linecap="round" stroke-miterlimit="10" pointer-events="stroke"/><path d="M 226.54 215.18 C 226.54 215.18 226.54 215.18 226.54 215.18 M 226.54 215.18 C 226.54 215.18 226.54 215.18 226.54 215.18 M 230.2 222.7 C 231.55 221.49 232.13 220.59 234.1 219.17 M 230.49 222.57 C 231.99 221.08 233.1 220.1 233.81 218.7" fill="none" stroke="#324ab2" stroke-linejoin="round" stroke-linecap="round" stroke-miterlimit="10" pointer-events="all"/><path d="M 235.41 226.85 M 232.53 227.7 C 231.59 226.22 229.3 221.07 227.46 215.8 M 234.23 229.15 C 232.2 224.72 228.97 219.03 226.79 214.23 M 226.26 214.06 C 228.5 215.69 229.67 217.29 233.29 217.75 M 226.69 214.83 C 228.59 215.78 230.13 216.79 233.52 218.01 M 234.13 218.87 C 234.64 217.92 237.29 217.34 240.59 215.38 M 234.12 218.55 C 235.61 217.16 238.22 216.35 240.97 214.73 M 240.5 213.57 C 238.44 218.27 238.66 220.87 234.11 229.08 M 240.23 215.46 C 238.95 218.59 236.21 223.33 233.8 228.23" fill="none" stroke="#324ab2" stroke-width="2" stroke-linejoin="round" stroke-linecap="round" stroke-miterlimit="10" pointer-events="all"/><path d="M 233.87 293.74 L 233.5 331" fill="none" stroke="none" pointer-events="stroke"/><path d="M 233.98 283.24 L 240.84 297.31 L 233.87 293.74 L 226.84 297.17 Z" fill="none" stroke="none" pointer-events="all"/><path d="M 235.21 292.34 M 235.43 295.27 C 234.47 308.87 233.77 321.39 232.94 331.82 M 234.34 294.28 C 233.43 303.13 232.86 311.89 233.05 330.61" fill="none" stroke="#324ab2" stroke-width="2" stroke-linejoin="round" stroke-linecap="round" stroke-miterlimit="10" pointer-events="stroke"/><path d="M 234.3 282.87 C 234.3 282.87 234.3 282.87 234.3 282.87 M 234.3 282.87 C 234.3 282.87 234.3 282.87 234.3 282.87 M 235.47 294.22 C 235.69 293.02 236.34 292.47 237.76 290.77 M 235.25 294.1 C 235.66 293.28 236.4 292.68 237.53 291.24" fill="none" stroke="#324ab2" stroke-linejoin="round" stroke-linecap="round" stroke-miterlimit="10" pointer-events="all"/><path d="M 235.72 283.85 M 234.9 283.6 C 236.02 286.57 237.37 292.86 241.08 296.35 M 233.38 283.06 C 236.14 286.79 237.24 291.1 241.47 298.06 M 241.53 296.73 C 239.01 295.38 236.55 294.4 234.57 294.49 M 240.78 297.44 C 239 296.22 236.94 295.24 233.6 293.77 M 234.22 293.93 C 232.06 295.53 228.71 296.7 227.57 296.71 M 234.19 293.91 C 231.43 294.7 229.41 295.48 226.71 297.03 M 226 297.36 C 228.6 293.15 231.15 286.89 234.79 284.57 M 227.26 297.86 C 229.29 292.18 232.27 287.42 233.95 282.91" fill="none" stroke="#324ab2" stroke-width="2" stroke-linejoin="round" stroke-linecap="round" stroke-miterlimit="10" pointer-events="all"/><path d="M 404.03 122.57 L 423.17 119.69 L 422.17 482.13 L 404.4 482.35" fill="none" stroke="none" transform="translate(414,0)scale(-1,1)translate(-414,0)" pointer-events="all"/><path d="M 424.34 119.94 M 422.66 121.31 C 419.38 121.52 418.09 121.68 413.94 120.26 M 422.96 121.16 C 419.82 120.88 415.87 121.04 413.88 121.07 M 413.19 121.8 C 415.24 244.68 415.43 368.55 414.09 481.24 M 413.44 120.65 C 414.75 200.35 414.62 278.44 413.38 480.73 M 414.09 480.22 C 416.73 481.09 418.74 480.74 422.92 481.13 M 414.06 480.56 C 417.47 481.5 420.47 481.03 422.85 481.31" fill="none" stroke="#324ab2" stroke-width="2" stroke-linejoin="round" stroke-linecap="round" stroke-miterlimit="10" transform="translate(414,0)scale(-1,1)translate(-414,0)" pointer-events="all"/><path d="M 406.34 299.94 M 404.66 301.31 C 406.85 301.47 411.03 301.63 413.94 300.26 M 404.96 301.16 C 408.7 300.88 411.62 301.05 413.88 301.07" fill="none" stroke="#324ab2" stroke-width="2" stroke-linejoin="round" stroke-linecap="round" stroke-miterlimit="10" transform="translate(414,0)scale(-1,1)translate(-414,0)" pointer-events="all"/><rect x="435" y="281" width="100" height="40" fill="none" stroke="none" transform="translate(485,0)scale(-1,1)translate(-485,0)" pointer-events="all"/><g fill="#324AB2" font-family="Ink Free" font-weight="bold" font-size="17px"><text x="436.5" y="295.5">Espacio</text><text x="436.5" y="315.5">de usuario</text></g><path d="M 403.36 12.73 L 422.19 11.89 L 424.84 121.42 L 404.33 119.92" fill="none" stroke="none" transform="translate(414,0)scale(-1,1)translate(-414,0)" pointer-events="all"/><path d="M 424.41 10.4 M 422.15 11.07 C 420.54 11.28 417.03 11.4 413.52 10.16 M 423.27 11 C 419.76 11.05 417.02 11.12 414.31 10.76 M 413.83 11.19 C 415.35 37.98 416.47 64.32 414.02 121.5 M 413.32 10.22 C 413.28 37.76 413.59 64.03 414.67 120.59 M 413.66 120.34 C 416.44 120.47 419.11 121.03 422.36 121.68 M 414.41 121.21 C 417.78 121.32 421.41 121.25 423.45 120.83" fill="none" stroke="#324ab2" stroke-width="2" stroke-linejoin="round" stroke-linecap="round" stroke-miterlimit="10" transform="translate(414,0)scale(-1,1)translate(-414,0)" pointer-events="all"/><path d="M 406.41 65.4 M 404.15 66.07 C 407.71 66.24 409.38 66.36 413.52 65.16 M 405.27 66 C 408.09 66.19 411.68 66.26 414.31 65.76" fill="none" stroke="#324ab2" stroke-width="2" stroke-linejoin="round" stroke-linecap="round" stroke-miterlimit="10" transform="translate(414,0)scale(-1,1)translate(-414,0)" pointer-events="all"/><rect x="435" y="46" width="100" height="40" fill="none" stroke="none" transform="translate(485,0)scale(-1,1)translate(-485,0)" pointer-events="all"/><g fill="#324AB2" font-family="Ink Free" font-weight="bold" font-size="17px"><text x="436.5" y="60.5">Espacio</text><text x="436.5" y="80.5">de núcleo</text></g><rect x="85" y="240" width="297" height="31" fill="none" stroke="none" pointer-events="all"/><g fill="#324AB2" font-family="Ink Free" font-weight="bold" text-anchor="middle" font-size="17px"><text x="233" y="260">Espacio no reservado</text></g></g></svg>