<?xml version="1.0" encoding="UTF-8"?>
<!DOCTYPE svg PUBLIC "-//W3C//DTD SVG 1.1//EN" "http://www.w3.org/Graphics/SVG/1.1/DTD/svg11.dtd">
<svg xmlns="http://www.w3.org/2000/svg" xmlns:xlink="http://www.w3.org/1999/xlink" version="1.1" width="523px" height="482px" viewBox="-0.5 -0.5 523 482"><defs/><g><rect x="0" y="251" width="100" height="40" fill="none" stroke="none" pointer-events="all"/><g fill="#324ab2" font-family="Ink Free" font-weight="bold" text-anchor="end" font-size="17px"><text x="97.5" y="265.5">Modo</text><text x="97.5" y="285.5">privilegiado</text></g><ellipse cx="308.5" cy="401" rx="40" ry="40" fill="none" stroke="none" pointer-events="all"/><path d="M 274.53 382.42 C 274.53 382.42 274.53 382.42 274.53 382.42 M 274.53 382.42 C 274.53 382.42 274.53 382.42 274.53 382.42 M 271.68 396.93 C 279.69 388.12 290.11 376.04 296.56 368.42 M 272.35 399.11 C 282.13 386.1 289.81 376.6 296.67 370.21 M 271.47 407.65 C 284.59 395.74 297.4 380.3 306.92 368.43 M 273.73 409.76 C 280.74 400.96 287.56 390.56 308.44 369.38 M 275.22 418.04 C 287.56 402.55 299.79 389.24 321.28 365.47 M 277.44 416.75 C 286.02 405.4 296.41 393 320.37 365.63 M 280.64 423.37 C 292.23 409.26 306.44 392.79 329.12 370.61 M 279.45 424.78 C 290.15 412.05 301.15 401.34 328.21 370.03 M 286.22 432.95 C 297.98 413.78 311.99 396.73 333.54 375.56 M 283.91 432.68 C 299.5 413.44 316.31 395.87 334.72 374.85 M 289.8 437.11 C 303.71 423.42 315.92 410 342.05 378.02 M 292.43 436.1 C 301.73 422.91 313.53 409.7 342.27 377.66 M 297.14 440.65 C 315.44 423.21 329.05 403.51 345.74 387.37 M 298.47 439.71 C 309.65 428.73 319.57 417.01 344.72 386.68 M 304.91 443.51 C 321.16 426.59 337.22 406.18 350.85 392.25 M 307.14 443.55 C 315.33 432.35 326.36 420.14 348.87 393.11 M 317.2 441.15 C 327.55 432.81 335.63 423.97 354.1 399.87 M 317.4 442.15 C 329.82 429.71 340.44 416.66 354.5 400.14" fill="none" stroke="#c2bee6" stroke-linejoin="round" stroke-linecap="round" stroke-miterlimit="10" pointer-events="all"/><path d="M 317.32 363.24 C 324.34 364.09 331.43 369.19 336.58 374.66 C 341.74 380.13 347.12 388.4 348.26 396.06 C 349.41 403.72 347.27 413.92 343.44 420.64 C 339.61 427.35 332.42 433.38 325.28 436.35 C 318.13 439.33 308.03 439.84 300.6 438.49 C 293.16 437.14 285.76 433.59 280.66 428.25 C 275.55 422.91 270.99 414.11 269.99 406.45 C 268.99 398.79 271.15 389.1 274.66 382.27 C 278.16 375.44 284.21 368.62 290.99 365.48 C 297.77 362.33 310.62 363.64 315.35 363.39 C 320.07 363.15 318.5 363.72 319.35 364.03 C 320.21 364.34 320.76 364.79 320.47 365.25 M 327.11 365.99 C 333.72 369.19 339.86 377.61 343.28 384.67 C 346.7 391.74 348.91 400.87 347.62 408.37 C 346.33 415.87 341.26 424.53 335.54 429.68 C 329.83 434.83 320.76 438.35 313.34 439.26 C 305.92 440.17 297.38 438.34 291.04 435.15 C 284.7 431.96 278.88 426.73 275.31 420.14 C 271.73 413.55 268.87 403.47 269.57 395.6 C 270.27 387.73 274.28 378.59 279.48 372.93 C 284.69 367.27 293.09 362.95 300.78 361.64 C 308.47 360.33 321.2 364.18 325.64 365.08 C 330.07 365.97 327.28 366.87 327.41 367.01 C 327.53 367.16 326.82 365.43 326.37 365.97" fill="none" stroke="#324ab2" stroke-width="2" stroke-linejoin="round" stroke-linecap="round" stroke-miterlimit="10" pointer-events="all"/><g fill="#324ab2" font-family="Ink Free" font-weight="bold" text-anchor="middle" font-size="17px"><text x="308" y="405.5">Hilo</text></g><ellipse cx="160" cy="121" rx="40" ry="40" fill="none" stroke="none" pointer-events="all"/><path d="M 177.24 85.43 C 183.75 88.04 189.48 94.12 193.01 100.74 C 196.55 107.35 199.26 117.35 198.46 125.13 C 197.66 132.91 193.23 141.54 188.21 147.43 C 183.19 153.32 175.51 158.69 168.35 160.49 C 161.18 162.28 152.17 161.42 145.21 158.21 C 138.24 154.99 130.7 147.84 126.57 141.18 C 122.45 134.53 119.78 125.77 120.45 118.25 C 121.12 110.74 125.68 102.18 130.6 96.11 C 135.51 90.03 142.72 83.91 149.94 81.82 C 157.15 79.73 168.93 82.95 173.89 83.54 C 178.86 84.13 178.56 84.49 179.72 85.38 C 180.88 86.26 181.24 88.19 180.86 88.84 M 163.84 81.26 C 171.28 81.38 181 85.33 186.86 90.67 C 192.72 96.01 197.46 105.52 199 113.31 C 200.55 121.09 199 130.29 196.14 137.37 C 193.29 144.46 188.22 151.88 181.87 155.81 C 175.52 159.74 165.96 161.86 158.03 160.94 C 150.11 160.01 140.36 155.34 134.31 150.25 C 128.27 145.15 123.57 137.58 121.77 130.39 C 119.98 123.2 120.7 114.09 123.53 107.09 C 126.37 100.08 132.24 92.66 138.78 88.37 C 145.33 84.08 158.83 82.53 162.81 81.36 C 166.79 80.19 162.64 81.2 162.65 81.34 C 162.66 81.47 162.82 81.72 162.88 82.18" fill="none" stroke="#324ab2" stroke-width="2" stroke-linejoin="round" stroke-linecap="round" stroke-miterlimit="10" pointer-events="all"/><g fill="#324ab2" font-family="Ink Free" font-weight="bold" text-anchor="middle" font-size="17px"><text x="159.5" y="125.5">Hilo</text></g><ellipse cx="460" cy="121" rx="40" ry="40" fill="none" stroke="none" pointer-events="all"/><path d="M 466.32 82.18 C 473.54 82.87 482.17 87.91 487.52 93.47 C 492.88 99.03 497.13 107.89 498.43 115.55 C 499.73 123.2 498.88 132.56 495.33 139.42 C 491.77 146.27 483.86 153.2 477.1 156.69 C 470.33 160.19 462.24 161.54 454.75 160.41 C 447.25 159.28 437.8 155.17 432.13 149.9 C 426.46 144.63 422.13 136.46 420.73 128.78 C 419.32 121.11 420.42 111.09 423.68 103.86 C 426.95 96.64 433.66 89.37 440.32 85.45 C 446.98 81.52 458.04 80.8 463.65 80.32 C 469.25 79.84 471.46 81.32 473.96 82.57 C 476.45 83.83 478.77 86.98 478.61 87.86 M 470.52 82.8 C 478.01 84.64 487.9 91.73 492.66 98 C 497.42 104.27 499.1 112.82 499.07 120.42 C 499.05 128.02 496.6 137.18 492.53 143.6 C 488.46 150.02 481.99 156.35 474.65 158.93 C 467.32 161.52 455.94 161.45 448.51 159.1 C 441.09 156.76 434.6 151 430.11 144.85 C 425.61 138.7 421.83 129.82 421.54 122.22 C 421.25 114.63 424.13 105.83 428.38 99.29 C 432.63 92.75 439.97 86.14 447.03 83.01 C 454.1 79.88 466.66 80.76 470.79 80.52 C 474.92 80.28 471.93 81.32 471.83 81.57 C 471.74 81.81 470.54 81.09 470.23 81.97" fill="none" stroke="#324ab2" stroke-width="2" stroke-linejoin="round" stroke-linecap="round" stroke-miterlimit="10" pointer-events="all"/><g fill="#324ab2" font-family="Ink Free" font-weight="bold" text-anchor="middle" font-size="17px"><text x="459.5" y="125.5">Hilo</text></g><path d="M 310 241 L 520 241" fill="none" stroke="none" pointer-events="stroke"/><path d="M 309.1 241.59 M 310.64 241.89 C 393.24 243.04 475.59 241.12 520.01 240.11 M 309.49 241.13 C 370.95 240.82 431 241.22 520.6 240.63" fill="none" stroke="#324ab2" stroke-width="2" stroke-linejoin="round" stroke-linecap="round" stroke-miterlimit="10" stroke-dasharray="6 6" pointer-events="stroke"/><ellipse cx="210" cy="381" rx="40" ry="40" fill="none" stroke="none" pointer-events="all"/><path d="M 177.1 360.01 C 177.1 360.01 177.1 360.01 177.1 360.01 M 177.1 360.01 C 177.1 360.01 177.1 360.01 177.1 360.01 M 172.47 376.79 C 181.54 365.8 190.38 356.71 201.87 344.35 M 173.62 375.84 C 182.19 365.12 190.54 355.62 200.26 344.9 M 174.39 388.82 C 186.89 371.63 198.93 359.27 212.01 344.47 M 173.3 388.84 C 184.68 375.66 194.13 363.43 211.12 344.66 M 175.7 396.23 C 194.46 376.6 209.7 355.3 222.9 342.28 M 177.3 396.86 C 189.13 383.61 200.63 368.77 223.28 343.39 M 182.57 404.59 C 192.94 394.58 200.77 380.28 229.01 348.8 M 180.66 404.23 C 197.65 385.8 213.95 367.15 230.81 347.91 M 186.45 411.94 C 201.43 394.4 215.83 377.95 237.13 353.71 M 184.61 412.72 C 198.98 395.75 213.93 378.8 236.71 352.51 M 189.82 418.27 C 204.85 402.34 217.22 387.45 244.42 357.81 M 191.31 415.6 C 209.57 395.42 229.77 372.9 242.95 356.92 M 197.99 421.7 C 212.64 403.58 228.69 386.67 245.31 368.04 M 197.57 421.35 C 210.54 406.52 224.24 391.58 246.35 365.85 M 205.98 425.43 C 216 414.83 224.09 401.19 248.44 374.46 M 204.71 425.14 C 222.1 406.08 240.09 384.98 247.44 375.56 M 218.17 424.84 C 227.09 416.29 236.53 402.91 252.43 382.69 M 216.24 425.45 C 223.93 415.49 232.83 404.74 253.26 382.74" fill="none" stroke="#c2bee6" stroke-linejoin="round" stroke-linecap="round" stroke-miterlimit="10" pointer-events="all"/><path d="M 195.8 341.62 C 202.69 338.36 214 338.34 221.5 340.7 C 229 343.06 236.34 349.25 240.81 355.78 C 245.29 362.32 248.09 371.87 248.36 379.92 C 248.63 387.97 246.46 397.58 242.44 404.06 C 238.43 410.55 231.32 415.95 224.27 418.84 C 217.22 421.73 207.38 423.18 200.13 421.41 C 192.88 419.64 185.61 414.34 180.78 408.22 C 175.95 402.09 171.69 392.75 171.13 384.65 C 170.57 376.55 173.45 366.44 177.42 359.64 C 181.38 352.84 191.02 346.97 194.92 343.87 C 198.81 340.76 199.09 341.44 200.79 341 C 202.48 340.56 204.93 340.63 205.08 341.25 M 198.48 342.3 C 205.19 339.67 214.65 340.81 222.12 343.56 C 229.58 346.3 238.63 352.37 243.27 358.79 C 247.9 365.21 249.99 374.54 249.93 382.06 C 249.87 389.59 247.73 397.46 242.9 403.94 C 238.07 410.41 228.36 418.35 220.96 420.92 C 213.57 423.48 205.67 422.07 198.52 419.33 C 191.37 416.59 182.57 410.84 178.06 404.47 C 173.55 398.09 171.39 388.93 171.45 381.09 C 171.51 373.26 173.97 363.73 178.43 357.46 C 182.89 351.19 194.81 346.15 198.21 343.48 C 201.61 340.81 198.45 341.84 198.8 341.43 C 199.15 341.03 200.23 340.26 200.31 341.04" fill="none" stroke="#324ab2" stroke-width="2" stroke-linejoin="round" stroke-linecap="round" stroke-miterlimit="10" pointer-events="all"/><g fill="#324ab2" font-family="Ink Free" font-weight="bold" text-anchor="middle" font-size="17px"><text x="209.5" y="385.5">Hilo</text></g><ellipse cx="410" cy="381" rx="40" ry="40" fill="none" stroke="none" pointer-events="all"/><path d="M 380.14 354.98 C 380.14 354.98 380.14 354.98 380.14 354.98 M 380.14 354.98 C 380.14 354.98 380.14 354.98 380.14 354.98 M 370.72 375.3 C 382.05 367.49 391.6 354.34 401.18 341.56 M 372.62 377.17 C 379.97 368.55 387.2 358.8 400.95 342.57 M 375.7 382.14 C 386.32 371.73 396.16 357.8 410.63 341.79 M 376.72 382.14 C 387.53 370.16 400.06 357.93 412.33 343.52 M 378.08 393.1 C 395.28 371.76 413.23 355.74 425.06 340.44 M 378.91 393.38 C 396.4 375.2 412.03 356.79 423.66 343.04 M 381.23 402.99 C 399.17 380.89 416.29 360.01 429.65 347.65 M 380.2 404.34 C 392.68 389.85 404.37 375.77 430.24 347.38 M 385.46 409.12 C 403.29 390.18 420.65 367.17 435.73 349.98 M 385.05 410.41 C 400.04 392.9 415.91 374.31 436.05 352.69 M 390.26 415.11 C 412.6 390.79 430.58 368.46 439.71 357.52 M 391.56 414.83 C 406.34 397.87 421.06 382.85 440.63 358.2 M 398.7 420.57 C 410.77 406.24 427.91 386.55 448.31 361.86 M 395.98 420.32 C 409.46 406.1 422.01 392.2 446.35 362.09 M 405.44 420.55 C 424.84 403.49 440.65 381.32 451.34 372.38 M 406.59 422.54 C 416.2 411.25 427.22 400.13 449.17 371.85 M 416.96 423.67 C 423.17 411.51 432.9 404.94 450.84 385.15 M 418.02 422.21 C 428.06 408.06 439.98 394.83 449.74 383.16" fill="none" stroke="#c2bee6" stroke-linejoin="round" stroke-linecap="round" stroke-miterlimit="10" pointer-events="all"/><path d="M 424.83 342.14 C 431.6 344.65 438.6 352.78 442.7 359.57 C 446.81 366.36 449.75 375.03 449.44 382.88 C 449.13 390.72 445.63 400.22 440.86 406.61 C 436.08 413 428.29 418.93 420.78 421.22 C 413.26 423.51 402.85 423.43 395.77 420.36 C 388.69 417.3 382.37 409.83 378.31 402.83 C 374.24 395.82 371.11 386.26 371.37 378.34 C 371.63 370.41 375.15 361.46 379.86 355.3 C 384.57 349.14 392.5 343.58 399.65 341.39 C 406.8 339.21 418.28 341.87 422.77 342.22 C 427.26 342.56 425.77 342.89 426.6 343.45 C 427.42 344 427.85 344.76 427.71 345.54 M 408.19 340.66 C 415.02 339.23 423.39 341.32 429.74 345.37 C 436.08 349.43 443 357.67 446.25 364.99 C 449.5 372.32 450.7 381.39 449.24 389.33 C 447.78 397.28 443.3 407.17 437.51 412.66 C 431.71 418.15 422.48 421.62 414.49 422.26 C 406.5 422.9 396.16 420.67 389.57 416.51 C 382.98 412.35 378.14 404.66 374.94 397.3 C 371.74 389.94 369.21 380.3 370.35 372.34 C 371.49 364.39 375.83 355.03 381.78 349.55 C 387.73 344.07 401.68 341.31 406.06 339.47 C 410.43 337.62 407.75 338.27 408.02 338.48 C 408.29 338.69 407.99 339.96 407.69 340.72" fill="none" stroke="#324ab2" stroke-width="2" stroke-linejoin="round" stroke-linecap="round" stroke-miterlimit="10" pointer-events="all"/><g fill="#324ab2" font-family="Ink Free" font-weight="bold" text-anchor="middle" font-size="17px"><text x="409.5" y="385.5">Hilo</text></g><rect x="228.5" y="1" width="160" height="20" fill="none" stroke="none" pointer-events="all"/><g fill="#324ab2" font-family="Ink Free" font-weight="bold" text-anchor="middle" font-size="17px"><text x="308" y="15.5">Hilos de usuario</text></g><rect x="228.5" y="461" width="160" height="20" fill="none" stroke="none" pointer-events="all"/><g fill="#324ab2" font-family="Ink Free" font-weight="bold" text-anchor="middle" font-size="17px"><text x="308" y="475.5">Hilos de núcleo</text></g><rect x="30" y="196" width="70" height="35" fill="none" stroke="none" pointer-events="all"/><g fill="#324ab2" font-family="Ink Free" font-weight="bold" text-anchor="end" font-size="17px"><text x="97.5" y="208">Modo</text><text x="97.5" y="228">usuario</text></g><path d="M 10 241 L 310 241" fill="none" stroke="none" pointer-events="stroke"/><path d="M 9.12 241.63 M 11.32 241.71 C 128.94 239.2 247.11 241.08 310.98 240.37 M 9.75 240.74 C 128.45 242.02 245.99 240.76 309.6 240.95" fill="none" stroke="#324ab2" stroke-width="2" stroke-linejoin="round" stroke-linecap="round" stroke-miterlimit="10" stroke-dasharray="6 6" pointer-events="stroke"/><path d="M 309.5 361 L 310 241" fill="none" stroke="none" pointer-events="stroke"/><path d="M 308.62 360.85 M 310.75 362.36 C 310.24 317.62 310.73 274.71 309.44 239.07 M 308.66 360.5 C 310.47 322.8 310.26 285.8 309.24 240.7" fill="none" stroke="#324ab2" stroke-width="2" stroke-linejoin="round" stroke-linecap="round" stroke-miterlimit="10" pointer-events="stroke"/><path d="M 235.04 347 L 310 241" fill="none" stroke="none" pointer-events="stroke"/><path d="M 234.16 347.19 M 233.97 347.52 C 254.85 316.71 276.14 285.45 309.86 240.61 M 235.64 346.31 C 254.08 317.9 274.58 291.88 309.41 241.24" fill="none" stroke="#324ab2" stroke-width="2" stroke-linejoin="round" stroke-linecap="round" stroke-miterlimit="10" pointer-events="stroke"/><path d="M 310 241 L 381.72 352.72" fill="none" stroke="none" pointer-events="stroke"/><path d="M 309.12 241.53 M 310.61 240.69 C 324.99 264.06 339.41 287.62 382.01 353.87 M 310.04 240.12 C 326.23 264.07 339.14 286.93 381.31 353.5" fill="none" stroke="#324ab2" stroke-width="2" stroke-linejoin="round" stroke-linecap="round" stroke-miterlimit="10" pointer-events="stroke"/><path d="M 190 151 L 310 241" fill="none" stroke="none" pointer-events="stroke"/><path d="M 189.12 151.87 M 188.29 149.85 C 229.97 181.16 268.39 209.25 310.72 239.7 M 189.48 151.94 C 232.5 182.62 273.76 214.45 309.76 240.32" fill="none" stroke="#324ab2" stroke-width="2" stroke-linejoin="round" stroke-linecap="round" stroke-miterlimit="10" pointer-events="stroke"/><path d="M 310 241 L 431.72 149.28" fill="none" stroke="none" pointer-events="stroke"/><path d="M 309.12 241.35 M 309.25 241.44 C 355.77 205.38 399.19 173.19 429.83 149.93 M 309.15 241.84 C 345.34 215.79 382.41 188.39 431.33 148.44" fill="none" stroke="#324ab2" stroke-width="2" stroke-linejoin="round" stroke-linecap="round" stroke-miterlimit="10" pointer-events="stroke"/><ellipse cx="260" cy="81" rx="40" ry="40" fill="none" stroke="none" pointer-events="all"/><path d="M 276.12 46.4 C 282.91 49.23 290.12 56.45 294 62.94 C 297.87 69.42 300.26 78.08 299.4 85.31 C 298.54 92.54 294.07 100.87 288.84 106.34 C 283.62 111.81 275.56 116.54 268.04 118.13 C 260.52 119.73 250.73 118.87 243.72 115.92 C 236.71 112.98 229.91 106.71 225.97 100.44 C 222.03 94.17 219.19 85.62 220.09 78.32 C 220.99 71.02 226.12 62.63 231.35 56.64 C 236.58 50.65 244.17 44.47 251.49 42.39 C 258.81 40.31 270.74 43.23 275.28 44.16 C 279.81 45.08 277.68 46.97 278.71 47.93 C 279.74 48.89 281.58 49.33 281.45 49.91 M 262.72 43.59 C 269.9 43.66 278.59 46.69 284.51 51.56 C 290.44 56.43 296.23 65.39 298.29 72.81 C 300.35 80.23 299.7 89.14 296.88 96.09 C 294.05 103.05 288.18 110.74 281.33 114.52 C 274.49 118.31 263.46 119.45 255.81 118.79 C 248.16 118.13 240.88 115.33 235.45 110.55 C 230.02 105.77 225.31 97.53 223.22 90.11 C 221.14 82.69 220.38 73.01 222.94 66.02 C 225.49 59.02 232.29 51.94 238.54 48.12 C 244.8 44.3 256.3 44.02 260.49 43.1 C 264.67 42.17 262.98 42.45 263.66 42.56 C 264.33 42.68 264.5 43.06 264.54 43.8" fill="none" stroke="#324ab2" stroke-width="2" stroke-linejoin="round" stroke-linecap="round" stroke-miterlimit="10" pointer-events="all"/><g fill="#324ab2" font-family="Ink Free" font-weight="bold" text-anchor="middle" font-size="17px"><text x="259.5" y="85.5">Hilo</text></g><ellipse cx="360" cy="81" rx="40" ry="40" fill="none" stroke="none" pointer-events="all"/><path d="M 367.23 43.11 C 374.43 43.74 383.24 48.35 388.62 53.83 C 393.99 59.32 398.59 68.56 399.5 76.03 C 400.41 83.5 397.85 91.9 394.08 98.66 C 390.3 105.41 383.65 112.99 376.84 116.58 C 370.04 120.16 360.47 121.44 353.23 120.18 C 345.99 118.91 338.59 114.6 333.42 109 C 328.25 103.39 323.75 94.04 322.23 86.55 C 320.72 79.06 321.05 70.86 324.32 64.07 C 327.58 57.27 335.02 49.31 341.81 45.78 C 348.6 42.25 360.62 43.2 365.06 42.87 C 369.5 42.55 367.5 43.75 368.44 43.84 C 369.38 43.93 370.87 42.89 370.71 43.4 M 372.4 45.08 C 379.13 46.83 385.99 52.96 390.32 58.72 C 394.64 64.49 397.87 72.45 398.36 79.69 C 398.85 86.92 397.31 95.8 393.26 102.11 C 389.22 108.42 381.44 114.56 374.11 117.54 C 366.78 120.52 356.93 122.03 349.29 120 C 341.64 117.96 333.12 111.63 328.24 105.33 C 323.35 99.02 320.07 89.99 319.99 82.18 C 319.91 74.36 323.32 64.49 327.78 58.43 C 332.25 52.38 340.02 48.57 346.8 45.87 C 353.58 43.17 364.13 42.75 368.47 42.23 C 372.81 41.71 372.28 42.52 372.85 42.74 C 373.42 42.96 372.24 42.89 371.9 43.54" fill="none" stroke="#324ab2" stroke-width="2" stroke-linejoin="round" stroke-linecap="round" stroke-miterlimit="10" pointer-events="all"/><g fill="#324ab2" font-family="Ink Free" font-weight="bold" text-anchor="middle" font-size="17px"><text x="359.5" y="85.5">Hilo</text></g><path d="M 271.04 119 L 310 241" fill="none" stroke="none" pointer-events="stroke"/><path d="M 270.16 118.42 M 269.42 119.91 C 283.08 151.07 293.26 178.55 311.95 239.54 M 271.14 118.16 C 285.57 165.96 301.54 213.33 309.19 241" fill="none" stroke="#324ab2" stroke-width="2" stroke-linejoin="round" stroke-linecap="round" stroke-miterlimit="10" pointer-events="stroke"/><path d="M 310 241 L 345.04 119" fill="none" stroke="none" pointer-events="stroke"/><path d="M 309.12 239.9 M 309.34 239.5 C 321.61 203.79 331.27 166.96 344.39 119.5 M 309.77 240.06 C 321.78 199.55 333.81 158.26 344.08 118.84" fill="none" stroke="#324ab2" stroke-width="2" stroke-linejoin="round" stroke-linecap="round" stroke-miterlimit="10" pointer-events="stroke"/></g></svg>