<?xml version="1.0" encoding="UTF-8"?>
<!DOCTYPE svg PUBLIC "-//W3C//DTD SVG 1.1//EN" "http://www.w3.org/Graphics/SVG/1.1/DTD/svg11.dtd">
<svg xmlns="http://www.w3.org/2000/svg" xmlns:xlink="http://www.w3.org/1999/xlink" version="1.1" width="673px" height="522px" viewBox="-0.5 -0.5 673 522"><defs><style type="text/css">@font-face {&#xa;font-family: "Ink Free";&#xa;src: url("https://ull-esit-sistemas-operativos.github.io/ssoo-apuntes/fonts/InkFree.woff");&#xa;}&#xa;</style></defs><g><rect x="22" y="141" width="110" height="290" fill="none" stroke="none" pointer-events="all"/><path d="M 22 141 C 59.77 139.28 97.16 138.61 132 141 M 22 141 C 43.57 141.94 67.8 141.45 132 141 M 132 141 C 132.55 253.51 132.79 365.66 132 431 M 132 141 C 129.71 231.3 130.55 319.95 132 431 M 132 431 C 100.48 431.84 70.1 431.74 22 431 M 132 431 C 105.37 431.77 77.88 431.85 22 431 M 22 431 C 19.26 352.94 21.5 274.87 22 141 M 22 431 C 20.55 344.6 19.87 258.83 22 141" fill="none" stroke="#d6b656" stroke-width="2" stroke-linejoin="round" stroke-linecap="round" stroke-miterlimit="10" stroke-dasharray="6 6" pointer-events="all"/><rect x="2" y="81" width="670" height="360" fill="none" stroke="none" pointer-events="all"/><path d="M 2 81 C 164.16 82.55 325.39 82.68 672 81 M 2 81 C 233.48 79 465.63 79.39 672 81 M 672 81 C 671.51 190.2 670.59 300.32 672 441 M 672 81 C 671.94 159.91 671.05 239.82 672 441 M 672 441 C 517.65 439.05 363.36 438.37 2 441 M 672 441 C 483.69 443.05 296.42 443.7 2 441 M 2 441 C 1.36 357.44 0.2 274.53 2 81 M 2 441 C 2.17 360.51 2.21 281.21 2 81" fill="none" stroke="#324ab2" stroke-width="2" stroke-linejoin="round" stroke-linecap="round" stroke-miterlimit="10" pointer-events="all"/><rect x="2" y="1" width="670" height="50" fill="none" stroke="none" pointer-events="all"/><path d="M 2 1 C 210.29 -1.83 418.01 -1.32 672 1 M 2 1 C 268.49 2.12 534.66 1.58 672 1 M 672 1 C 671.31 12.4 673.98 27.21 672 51 M 672 1 C 672.55 15.16 671.84 29.41 672 51 M 672 51 C 530.35 48.99 388.88 47.82 2 51 M 672 51 C 508.44 53.14 344.85 53.52 2 51 M 2 51 C -0.19 33.76 -0.09 15.9 2 1 M 2 51 C 1.8 32.88 2.98 16.83 2 1" fill="none" stroke="#324ab2" stroke-width="2" stroke-linejoin="round" stroke-linecap="round" stroke-miterlimit="10" pointer-events="all"/><g fill="#324AB2" font-family="Ink Free" font-weight="bold" text-anchor="middle" font-size="17px"><text x="336.5" y="30.5">Aplicaciones</text></g><rect x="12" y="91" width="650" height="60" fill="none" stroke="none" pointer-events="all"/><path d="M 12 91 C 213.85 91.27 416.69 92.11 662 91 M 12 91 C 197.24 90.56 382.77 91.17 662 91 M 662 91 C 663.34 114 661.46 138.37 662 151 M 662 91 C 660.75 115.21 661.63 137.56 662 151 M 662 151 C 495.26 151.14 328.05 150.77 12 151 M 662 151 C 527.34 150.18 392.32 150.38 12 151 M 12 151 C 12.19 132.35 10.41 112.39 12 91 M 12 151 C 12.61 130.72 12.46 108.2 12 91" fill="none" stroke="#324ab2" stroke-width="2" stroke-linejoin="round" stroke-linecap="round" stroke-miterlimit="10" pointer-events="all"/><g fill="#324AB2" font-family="Ink Free" font-weight="bold" text-anchor="middle" font-size="17px"><text x="336.5" y="125.5">Interfaz de programación de aplicaciones (API)</text></g><rect x="32" y="341" width="90" height="80" fill="none" stroke="none" pointer-events="all"/><path d="M 32 341 C 51.8 339.36 74.18 342.49 122 341 M 32 341 C 56.6 342.23 80.99 341.55 122 341 M 122 341 C 121.9 370.43 122.06 404.47 122 421 M 122 341 C 122.28 361.24 121.55 382.74 122 421 M 122 421 C 100.7 419.92 80.27 423.25 32 421 M 122 421 C 103.37 420.34 83.01 420.9 32 421 M 32 421 C 32.62 391.19 33.01 362.85 32 341 M 32 421 C 32.71 397.59 32.44 376.04 32 341" fill="none" stroke="#324ab2" stroke-width="2" stroke-linejoin="round" stroke-linecap="round" stroke-miterlimit="10" pointer-events="all"/><g fill="#324AB2" font-family="Ink Free" font-weight="bold" text-anchor="middle" font-size="17px"><text x="76.5" y="375.5">Gestor de</text><text x="76.5" y="395.5">procesos</text></g><rect x="1" y="471" width="670" height="50" fill="none" stroke="none" pointer-events="all"/><path d="M 1 471 C 163.61 470.83 325.31 470.88 671 471 M 1 471 C 184.57 470.53 368.65 470.43 671 471 M 671 471 C 669.28 484.89 672.95 499.74 671 521 M 671 471 C 670.41 482.65 670.12 495.88 671 521 M 671 521 C 491.11 518.12 310.24 518.44 1 521 M 671 521 C 510.41 522.46 350.13 522.75 1 521 M 1 521 C 0.67 505.99 2.32 490.19 1 471 M 1 521 C 1.28 506.61 1.17 494.16 1 471" fill="none" stroke="#324ab2" stroke-width="2" stroke-linejoin="round" stroke-linecap="round" stroke-miterlimit="10" pointer-events="all"/><g fill="#324AB2" font-family="Ink Free" font-weight="bold" text-anchor="middle" font-size="17px"><text x="335.5" y="500.5">Hardware</text></g><rect x="522" y="151" width="130" height="110" fill="none" stroke="none" pointer-events="all"/><g fill="#B85450" font-family="Ink Free" font-weight="bold" text-anchor="middle" font-size="17px"><text x="586.5" y="170.5">Servicio de</text><text x="586.5" y="190.5">manipulación</text><text x="586.5" y="210.5">de</text><text x="586.5" y="230.5">sistemas de</text><text x="586.5" y="250.5">archivos</text></g><rect x="142" y="341" width="100" height="80" fill="none" stroke="none" pointer-events="all"/><path d="M 142 341 C 160.86 338.31 181.43 340.02 242 341 M 142 341 C 178.5 340.7 215.94 341.52 242 341 M 242 341 C 243.13 365.43 242.95 392.78 242 421 M 242 341 C 242.3 372.49 241.89 405.64 242 421 M 242 421 C 205.16 420.61 166.17 421.88 142 421 M 242 421 C 207.65 421.82 174.6 422.42 142 421 M 142 421 C 144.01 395.26 144.01 372.06 142 341 M 142 421 C 142.74 393.6 141.99 364.67 142 341" fill="none" stroke="#324ab2" stroke-width="2" stroke-linejoin="round" stroke-linecap="round" stroke-miterlimit="10" pointer-events="all"/><g fill="#324AB2" font-family="Ink Free" font-weight="bold" text-anchor="middle" font-size="17px"><text x="191.5" y="375.5">Gestor de</text><text x="191.5" y="395.5">memoria</text></g><rect x="262" y="341" width="100" height="80" fill="none" stroke="none" pointer-events="all"/><path d="M 262 341 C 283.71 342.07 303.12 339.98 362 341 M 262 341 C 286.89 340.31 311.11 340.35 362 341 M 362 341 C 362.16 370.42 360.85 399.24 362 421 M 362 341 C 361.67 370.29 362.15 401.23 362 421 M 362 421 C 328.4 421.92 295.23 420.69 262 421 M 362 421 C 324.8 420.16 284.68 419.65 262 421 M 262 421 C 263.05 399.98 263.58 379.34 262 341 M 262 421 C 260.65 397.39 262.06 372.19 262 341" fill="none" stroke="#324ab2" stroke-width="2" stroke-linejoin="round" stroke-linecap="round" stroke-miterlimit="10" pointer-events="all"/><g fill="#324AB2" font-family="Ink Free" font-weight="bold" text-anchor="middle" font-size="17px"><text x="311.5" y="375.5">Gestor de</text><text x="311.5" y="395.5">E/S</text></g><rect x="382" y="341" width="140" height="80" fill="none" stroke="none" pointer-events="all"/><path d="M 382 341 C 410.76 342.17 441.18 340.28 522 341 M 382 341 C 425.93 342.18 469.56 341.43 522 341 M 522 341 C 521.2 371.4 522.75 405.7 522 421 M 522 341 C 523.03 368.08 522.42 396.83 522 421 M 522 421 C 479.45 423.6 435.91 423.87 382 421 M 522 421 C 491.05 420.23 458.96 420.61 382 421 M 382 421 C 380.49 388.71 381.55 358.61 382 341 M 382 421 C 382.16 401.19 381.74 381.7 382 341" fill="none" stroke="#324ab2" stroke-width="2" stroke-linejoin="round" stroke-linecap="round" stroke-miterlimit="10" pointer-events="all"/><g fill="#324AB2" font-family="Ink Free" font-weight="bold" text-anchor="middle" font-size="17px"><text x="451.5" y="365.5">Gestor de</text><text x="451.5" y="385.5">almacenamiento</text><text x="451.5" y="405.5">secundario</text></g><rect x="542" y="341" width="100" height="80" fill="none" stroke="none" pointer-events="all"/><path d="M 542 341 C 561.43 339.59 582.48 341.9 642 341 M 542 341 C 581.68 341.53 619.45 342.01 642 341 M 642 341 C 641.84 360.38 642.24 376.16 642 421 M 642 341 C 640.8 367.87 641.09 392.42 642 421 M 642 421 C 614.88 418.54 589.36 420.31 542 421 M 642 421 C 615.1 420.84 588.85 420.11 542 421 M 542 421 C 543.53 393.43 541.12 365.89 542 341 M 542 421 C 542.07 404.99 541.81 389.22 542 341" fill="none" stroke="#324ab2" stroke-width="2" stroke-linejoin="round" stroke-linecap="round" stroke-miterlimit="10" pointer-events="all"/><g fill="#324AB2" font-family="Ink Free" font-weight="bold" text-anchor="middle" font-size="17px"><text x="591.5" y="365.5">Gestor del</text><text x="591.5" y="385.5">sistema de</text><text x="591.5" y="405.5">archivos</text></g><path d="M 522 331 L 522 141" fill="none" stroke="none" pointer-events="stroke"/><path d="M 522 331 M 522 331 C 522.78 292.96 520.99 252.76 522 141 M 522 331 C 522.53 268.85 522.64 204.67 522 141" fill="none" stroke="#b85450" stroke-width="2" stroke-linejoin="round" stroke-linecap="round" stroke-miterlimit="10" stroke-dasharray="6 6" pointer-events="stroke"/><path d="M 522 331 L 132 331 L 132 431 L 652 431 L 652 331 L 652 141 L 522 141" fill="none" stroke="none" pointer-events="stroke"/><path d="M 522 331 M 522 331 C 441.84 330.83 362.57 330.2 132 331 M 522 331 C 442.71 329.99 362.97 330.06 132 331 M 132 331 C 130.63 364 131.61 398.87 132 431 M 132 331 C 130.83 356.25 131.81 381.23 132 431 M 132 431 C 315.13 432.48 497.22 431.79 652 431 M 132 431 C 332.47 431.05 533.74 431.02 652 431 M 652 431 C 653.09 394.46 652.28 359.44 652 331 M 652 431 C 653.13 405.25 653.38 379.5 652 331 M 652 331 C 651.87 262.8 654.3 195.39 652 141 M 652 331 C 652.54 261.41 651.2 191.48 652 141 M 652 141 C 599.08 141.35 551.15 138.76 522 141 M 652 141 C 615.65 141.47 577.97 140.93 522 141" fill="none" stroke="#b85450" stroke-width="2" stroke-linejoin="round" stroke-linecap="round" stroke-miterlimit="10" stroke-dasharray="6 6" pointer-events="stroke"/><path d="M 252 321 L 132 321 L 132 431 L 372 431 L 372 331 L 372 141 L 252 141 L 252 321" fill="none" stroke="none" pointer-events="stroke"/><path d="M 252 321 M 252 321 C 228.66 323.22 202.76 322.53 132 321 M 252 321 C 211.1 321.75 168.18 322.31 132 321 M 132 321 C 134.5 343.4 133.2 364.67 132 431 M 132 321 C 131.64 342.86 132.41 364.47 132 431 M 132 431 C 198.13 431.08 263.04 432.13 372 431 M 132 431 C 196.03 429.14 261.35 430.56 372 431 M 372 431 C 373.43 406.28 369.68 382.74 372 331 M 372 431 C 372.59 394.78 373.16 358.41 372 331 M 372 331 C 374.86 271.46 374.92 212.59 372 141 M 372 331 C 372.51 261.16 373.31 191.34 372 141 M 372 141 C 329.44 142.31 282.92 140.94 252 141 M 372 141 C 345.63 142.29 321.5 140.44 252 141 M 252 141 C 253.11 202.97 252.23 265.84 252 321 M 252 141 C 251.92 210.97 252.91 281.86 252 321" fill="none" stroke="#82b366" stroke-width="2" stroke-linejoin="round" stroke-linecap="round" stroke-miterlimit="10" stroke-dasharray="6 6" pointer-events="stroke"/><rect x="252" y="151" width="120" height="70" fill="none" stroke="none" pointer-events="all"/><g fill="#82B366" font-family="Ink Free" font-weight="bold" text-anchor="middle" font-size="17px"><text x="311.5" y="170.5">Servicio de</text><text x="311.5" y="190.5">operaciones</text><text x="311.5" y="210.5">de E/S</text></g><rect x="22" y="151" width="110" height="90" fill="none" stroke="none" pointer-events="all"/><g fill="#D6B656" font-family="Ink Free" font-weight="bold" text-anchor="middle" font-size="17px"><text x="76.5" y="170.5">Servicio de</text><text x="76.5" y="190.5">asignación</text><text x="76.5" y="210.5">de recursos:</text><text x="76.5" y="230.5">CPU</text></g></g></svg>