<?xml version="1.0" encoding="UTF-8" standalone="no"?>
<svg
   xmlns:ooo="http://xml.openoffice.org/svg/export"
   xmlns:dc="http://purl.org/dc/elements/1.1/"
   xmlns:cc="http://creativecommons.org/ns#"
   xmlns:rdf="http://www.w3.org/1999/02/22-rdf-syntax-ns#"
   xmlns:svg="http://www.w3.org/2000/svg"
   xmlns="http://www.w3.org/2000/svg"
   xmlns:sodipodi="http://sodipodi.sourceforge.net/DTD/sodipodi-0.dtd"
   xmlns:inkscape="http://www.inkscape.org/namespaces/inkscape"
   version="1.2"
   width="390.82675"
   height="497.12598"
   viewBox="0 0 11030 14030"
   preserveAspectRatio="xMidYMid"
   clip-path="url(#presentation_clip_path)"
   xml:space="preserve"
   id="svg2"
   inkscape:version="0.48.4 r9939"
   sodipodi:docname="estructura_sistema_de_archivos.svg"
   style="fill-rule:evenodd;stroke-width:28.22200012;stroke-linejoin:round"><metadata
     id="metadata183"><rdf:RDF><cc:Work
         rdf:about=""><dc:format>image/svg+xml</dc:format><dc:type
           rdf:resource="http://purl.org/dc/dcmitype/StillImage" /></cc:Work></rdf:RDF></metadata><sodipodi:namedview
     pagecolor="#ffffff"
     bordercolor="#666666"
     borderopacity="1"
     objecttolerance="10"
     gridtolerance="10"
     guidetolerance="10"
     inkscape:pageopacity="0"
     inkscape:pageshadow="2"
     inkscape:window-width="640"
     inkscape:window-height="480"
     id="namedview181"
     showgrid="false"
     fit-margin-top="0"
     fit-margin-left="0"
     fit-margin-right="0"
     fit-margin-bottom="0"
     inkscape:zoom="0.20813889"
     inkscape:cx="668.97637"
     inkscape:cy="-12.401575"
     inkscape:window-x="0"
     inkscape:window-y="0"
     inkscape:window-maximized="0"
     inkscape:current-layer="svg2" /><defs
     class="ClipPathGroup"
     id="defs4"><clipPath
       id="presentation_clip_path"
       clipPathUnits="userSpaceOnUse"><rect
         x="0"
         y="0"
         width="45000"
         height="32000"
         id="rect7" /></clipPath></defs><defs
     class="TextShapeIndex"
     id="defs9"><g
       ooo:slide="id1"
       ooo:id-list="id3 id4 id5 id6 id7 id8 id9 id10 id11 id12 id13"
       id="g11" /></defs><defs
     class="EmbeddedBulletChars"
     id="defs13"><g
       id="bullet-char-template(57356)"
       transform="scale(4.8828125e-4,-4.8828125e-4)"><path
         d="M 580,1141 1163,571 580,0 -4,571 580,1141 z"
         id="path16"
         inkscape:connector-curvature="0" /></g><g
       id="bullet-char-template(57354)"
       transform="scale(4.8828125e-4,-4.8828125e-4)"><path
         d="m 8,1128 1129,0 L 1137,0 8,0 8,1128 z"
         id="path19"
         inkscape:connector-curvature="0" /></g><g
       id="bullet-char-template(10146)"
       transform="scale(4.8828125e-4,-4.8828125e-4)"><path
         d="M 174,0 602,739 174,1481 1456,739 174,0 z m 1184,739 -1049,607 350,-607 699,0 z"
         id="path22"
         inkscape:connector-curvature="0" /></g><g
       id="bullet-char-template(10132)"
       transform="scale(4.8828125e-4,-4.8828125e-4)"><path
         d="M 2015,739 1276,0 717,0 l 543,543 -1086,0 0,393 1086,0 -543,545 557,0 741,-742 z"
         id="path25"
         inkscape:connector-curvature="0" /></g><g
       id="bullet-char-template(10007)"
       transform="scale(4.8828125e-4,-4.8828125e-4)"><path
         d="m 0,-2 c -7,16 -16,29 -25,39 l 381,530 c -94,256 -141,385 -141,387 0,25 13,38 40,38 9,0 21,-2 34,-5 21,4 42,12 65,25 l 27,-13 111,-251 280,301 64,-25 24,25 c 21,-10 41,-24 62,-43 C 886,937 835,863 770,784 769,783 710,716 594,584 L 774,223 c 0,-27 -21,-55 -63,-84 l 16,-20 C 717,90 699,76 672,76 641,76 570,178 457,381 L 164,-76 c -22,-34 -53,-51 -92,-51 -42,0 -63,17 -64,51 -7,9 -10,24 -10,44 0,9 1,19 2,30 z"
         id="path28"
         inkscape:connector-curvature="0" /></g><g
       id="bullet-char-template(10004)"
       transform="scale(4.8828125e-4,-4.8828125e-4)"><path
         d="M 285,-33 C 182,-33 111,30 74,156 52,228 41,333 41,471 c 0,78 14,145 41,201 34,71 87,106 158,106 53,0 88,-31 106,-94 l 23,-176 c 8,-64 28,-97 59,-98 l 735,706 c 11,11 33,17 66,17 42,0 63,-15 63,-46 l 0,-122 c 0,-36 -10,-64 -30,-84 L 442,47 C 390,-6 338,-33 285,-33 z"
         id="path31"
         inkscape:connector-curvature="0" /></g><g
       id="bullet-char-template(9679)"
       transform="scale(4.8828125e-4,-4.8828125e-4)"><path
         d="M 813,0 C 632,0 489,54 383,161 276,268 223,411 223,592 c 0,181 53,324 160,431 106,107 249,161 430,161 179,0 323,-54 432,-161 108,-107 162,-251 162,-431 0,-180 -54,-324 -162,-431 C 1136,54 992,0 813,0 z"
         id="path34"
         inkscape:connector-curvature="0" /></g><g
       id="bullet-char-template(8226)"
       transform="scale(4.8828125e-4,-4.8828125e-4)"><path
         d="m 346,457 c -73,0 -137,26 -191,78 -54,51 -81,114 -81,188 0,73 27,136 81,188 54,52 118,78 191,78 73,0 134,-26 185,-79 51,-51 77,-114 77,-187 0,-75 -25,-137 -76,-188 -50,-52 -112,-78 -186,-78 z"
         id="path37"
         inkscape:connector-curvature="0" /></g><g
       id="bullet-char-template(8211)"
       transform="scale(4.8828125e-4,-4.8828125e-4)"><path
         d="m -4,459 1139,0 0,147 -1139,0 0,-147 z"
         id="path40"
         inkscape:connector-curvature="0" /></g></defs><defs
     class="TextEmbeddedBitmaps"
     id="defs42" /><g
     id="g44"
     transform="translate(-3620,-1620.0004)"><g
       id="id2"
       class="Master_Slide"><g
         id="bg-id2"
         class="Background" /><g
         id="bo-id2"
         class="BackgroundObjects" /></g></g><g
     class="SlideGroup"
     id="g49"
     transform="translate(-3620,-1620.0004)"><g
       id="g51"><g
         id="id1"
         class="Slide"
         clip-path="url(#presentation_clip_path)"><g
           class="Page"
           id="g54"><g
             class="com.sun.star.drawing.RectangleShape"
             id="g56"><g
               id="id3"><path
                 d="m 9135,10635 5200,0 c 166,0 300,-134 300,-300 l 0,-900 c 0,-166 -134,-300 -300,-300 l -10400,0 c -166,0 -300,134 -300,300 l 0,900 c 0,166 134,300 300,300 l 5200,0 z"
                 id="path59"
                 inkscape:connector-curvature="0"
                 style="fill:#ffcc99;stroke:none" /><path
                 d="m 9135,10635 5200,0 c 166,0 300,-134 300,-300 l 0,-900 c 0,-166 -134,-300 -300,-300 l -10400,0 c -166,0 -300,134 -300,300 l 0,900 c 0,166 134,300 300,300 l 5200,0 z"
                 id="path61"
                 inkscape:connector-curvature="0"
                 style="fill:none;stroke:#000000;stroke-width:30" /><text
                 class="TextShape"
                 id="text63"><tspan
                   class="TextParagraph"
                   font-size="494px"
                   font-weight="400"
                   id="tspan65"
                   style="font-size:494px;font-weight:400;font-family:'Liberation Sans, sans-serif'"><tspan
                     class="TextPosition"
                     x="6152"
                     y="10057"
                     id="tspan67"><tspan
                       id="tspan69"
                       style="fill:#000000;stroke:none">sistema básico de archivos</tspan></tspan></tspan></text>
</g></g><g
             class="com.sun.star.drawing.RectangleShape"
             id="g71"><g
               id="id4"><path
                 d="m 9135,13135 5200,0 c 166,0 300,-134 300,-300 l 0,-900 c 0,-166 -134,-300 -300,-300 l -10400,0 c -166,0 -300,134 -300,300 l 0,900 c 0,166 134,300 300,300 l 5200,0 z"
                 id="path74"
                 inkscape:connector-curvature="0"
                 style="fill:#ffcc99;stroke:none" /><path
                 d="m 9135,13135 5200,0 c 166,0 300,-134 300,-300 l 0,-900 c 0,-166 -134,-300 -300,-300 l -10400,0 c -166,0 -300,134 -300,300 l 0,900 c 0,166 134,300 300,300 l 5200,0 z"
                 id="path76"
                 inkscape:connector-curvature="0"
                 style="fill:none;stroke:#000000;stroke-width:30" /><text
                 class="TextShape"
                 id="text78"><tspan
                   class="TextParagraph"
                   font-size="494px"
                   font-weight="400"
                   id="tspan80"
                   style="font-size:494px;font-weight:400;font-family:'Liberation Sans, sans-serif'"><tspan
                     class="TextPosition"
                     x="7575"
                     y="12557"
                     id="tspan82"><tspan
                       id="tspan84"
                       style="fill:#000000;stroke:none">control de E/S</tspan></tspan></tspan></text>
</g></g><g
             class="com.sun.star.drawing.RectangleShape"
             id="g86"><g
               id="id5"><path
                 d="m 9135,8135 5200,0 c 166,0 300,-134 300,-300 l 0,-900 c 0,-166 -134,-300 -300,-300 l -10400,0 c -166,0 -300,134 -300,300 l 0,900 c 0,166 134,300 300,300 l 5200,0 z"
                 id="path89"
                 inkscape:connector-curvature="0"
                 style="fill:#ffcc99;stroke:none" /><path
                 d="m 9135,8135 5200,0 c 166,0 300,-134 300,-300 l 0,-900 c 0,-166 -134,-300 -300,-300 l -10400,0 c -166,0 -300,134 -300,300 l 0,900 c 0,166 134,300 300,300 l 5200,0 z"
                 id="path91"
                 inkscape:connector-curvature="0"
                 style="fill:none;stroke:#000000;stroke-width:30" /><text
                 class="TextShape"
                 id="text93"><tspan
                   class="TextParagraph"
                   font-size="494px"
                   font-weight="400"
                   id="tspan95"
                   style="font-size:494px;font-weight:400;font-family:'Liberation Sans, sans-serif'"><tspan
                     class="TextPosition"
                     x="5164"
                     y="7557"
                     id="tspan97"><tspan
                       id="tspan99"
                       style="fill:#000000;stroke:none">módulo de organización de archivos</tspan></tspan></tspan></text>
</g></g><g
             class="com.sun.star.drawing.RectangleShape"
             id="g101"><g
               id="id6"><path
                 d="m 9135,5635 5200,0 c 166,0 300,-134 300,-300 l 0,-900 c 0,-166 -134,-300 -300,-300 l -10400,0 c -166,0 -300,134 -300,300 l 0,900 c 0,166 134,300 300,300 l 5200,0 z"
                 id="path104"
                 inkscape:connector-curvature="0"
                 style="fill:#ffcc99;stroke:none" /><path
                 d="m 9135,5635 5200,0 c 166,0 300,-134 300,-300 l 0,-900 c 0,-166 -134,-300 -300,-300 l -10400,0 c -166,0 -300,134 -300,300 l 0,900 c 0,166 134,300 300,300 l 5200,0 z"
                 id="path106"
                 inkscape:connector-curvature="0"
                 style="fill:none;stroke:#000000;stroke-width:30" /><text
                 class="TextShape"
                 id="text108"><tspan
                   class="TextParagraph"
                   font-size="494px"
                   font-weight="400"
                   id="tspan110"
                   style="font-size:494px;font-weight:400;font-family:'Liberation Sans, sans-serif'"><tspan
                     class="TextPosition"
                     x="6222"
                     y="5057"
                     id="tspan112"><tspan
                       id="tspan114"
                       style="fill:#000000;stroke:none">sistema lógico de archivos</tspan></tspan></tspan></text>
</g></g><g
             class="com.sun.star.drawing.RectangleShape"
             id="g116"><g
               id="id7"><path
                 d="m 9135,3135 5200,0 c 166,0 300,-134 300,-300 l 0,-900 c 0,-166 -134,-300 -300,-300 l -10400,0 c -166,0 -300,134 -300,300 l 0,900 c 0,166 134,300 300,300 l 5200,0 z"
                 id="path119"
                 inkscape:connector-curvature="0"
                 style="fill:#94bd5e;stroke:none" /><path
                 d="m 9135,3135 5200,0 c 166,0 300,-134 300,-300 l 0,-900 c 0,-166 -134,-300 -300,-300 l -10400,0 c -166,0 -300,134 -300,300 l 0,900 c 0,166 134,300 300,300 l 5200,0 z"
                 id="path121"
                 inkscape:connector-curvature="0"
                 style="fill:none;stroke:#000000;stroke-width:30" /><text
                 class="TextShape"
                 id="text123"><tspan
                   class="TextParagraph"
                   font-size="494px"
                   font-weight="400"
                   id="tspan125"
                   style="font-size:494px;font-weight:400;font-family:'Liberation Sans, sans-serif'"><tspan
                     class="TextPosition"
                     x="6434"
                     y="2557"
                     id="tspan127"><tspan
                       id="tspan129"
                       style="fill:#000000;stroke:none">programas de aplicación</tspan></tspan></tspan></text>
</g></g><g
             class="com.sun.star.drawing.RectangleShape"
             id="g131"><g
               id="id8"><path
                 d="m 9135,15635 5200,0 c 166,0 300,-134 300,-300 l 0,-900 c 0,-166 -134,-300 -300,-300 l -10400,0 c -166,0 -300,134 -300,300 l 0,900 c 0,166 134,300 300,300 l 5200,0 z"
                 id="path134"
                 inkscape:connector-curvature="0"
                 style="fill:#9999ff;stroke:none" /><path
                 d="m 9135,15635 5200,0 c 166,0 300,-134 300,-300 l 0,-900 c 0,-166 -134,-300 -300,-300 l -10400,0 c -166,0 -300,134 -300,300 l 0,900 c 0,166 134,300 300,300 l 5200,0 z"
                 id="path136"
                 inkscape:connector-curvature="0"
                 style="fill:none;stroke:#000000;stroke-width:30" /><text
                 class="TextShape"
                 id="text138"><tspan
                   class="TextParagraph"
                   font-size="494px"
                   font-weight="400"
                   id="tspan140"
                   style="font-size:494px;font-weight:400;font-family:'Liberation Sans, sans-serif'"><tspan
                     class="TextPosition"
                     x="7850"
                     y="15057"
                     id="tspan142"><tspan
                       id="tspan144"
                       style="fill:#000000;stroke:none">dispositivos</tspan></tspan></tspan></text>
</g></g><g
             class="com.sun.star.drawing.ConnectorShape"
             id="g146"><g
               id="id9"><path
                 d="m 9135,3135 0,506"
                 id="path149"
                 inkscape:connector-curvature="0"
                 style="fill:none;stroke:#000000;stroke-width:30" /><path
                 d="m 9135,4135 173,-517 -345,0 172,517 z"
                 id="path151"
                 inkscape:connector-curvature="0"
                 style="fill:#000000;stroke:none" /></g></g><g
             class="com.sun.star.drawing.ConnectorShape"
             id="g153"><g
               id="id10"><path
                 d="m 9135,5635 0,506"
                 id="path156"
                 inkscape:connector-curvature="0"
                 style="fill:none;stroke:#000000;stroke-width:30" /><path
                 d="m 9135,6635 173,-517 -345,0 172,517 z"
                 id="path158"
                 inkscape:connector-curvature="0"
                 style="fill:#000000;stroke:none" /></g></g><g
             class="com.sun.star.drawing.ConnectorShape"
             id="g160"><g
               id="id11"><path
                 d="m 9135,8135 0,506"
                 id="path163"
                 inkscape:connector-curvature="0"
                 style="fill:none;stroke:#000000;stroke-width:30" /><path
                 d="m 9135,9135 173,-517 -345,0 172,517 z"
                 id="path165"
                 inkscape:connector-curvature="0"
                 style="fill:#000000;stroke:none" /></g></g><g
             class="com.sun.star.drawing.ConnectorShape"
             id="g167"><g
               id="id12"><path
                 d="m 9135,10635 0,506"
                 id="path170"
                 inkscape:connector-curvature="0"
                 style="fill:none;stroke:#000000;stroke-width:30" /><path
                 d="m 9135,11635 173,-517 -345,0 172,517 z"
                 id="path172"
                 inkscape:connector-curvature="0"
                 style="fill:#000000;stroke:none" /></g></g><g
             class="com.sun.star.drawing.ConnectorShape"
             id="g174"><g
               id="id13"><path
                 d="m 9135,13135 0,506"
                 id="path177"
                 inkscape:connector-curvature="0"
                 style="fill:none;stroke:#000000;stroke-width:30" /><path
                 d="m 9135,14135 173,-517 -345,0 172,517 z"
                 id="path179"
                 inkscape:connector-curvature="0"
                 style="fill:#000000;stroke:none" /></g></g></g></g></g></g></svg>