<?xml version="1.0" encoding="UTF-8" standalone="no"?>
<svg
   xmlns:ooo="http://xml.openoffice.org/svg/export"
   xmlns:dc="http://purl.org/dc/elements/1.1/"
   xmlns:cc="http://creativecommons.org/ns#"
   xmlns:rdf="http://www.w3.org/1999/02/22-rdf-syntax-ns#"
   xmlns:svg="http://www.w3.org/2000/svg"
   xmlns="http://www.w3.org/2000/svg"
   xmlns:sodipodi="http://sodipodi.sourceforge.net/DTD/sodipodi-0.dtd"
   xmlns:inkscape="http://www.inkscape.org/namespaces/inkscape"
   version="1.2"
   width="443.79639"
   height="399.23727"
   viewBox="0 0 12524.92 11267.363"
   preserveAspectRatio="xMidYMid"
   clip-path="url(#presentation_clip_path)"
   xml:space="preserve"
   id="svg2"
   inkscape:version="0.48.4 r9939"
   sodipodi:docname="disco_duro_lógico.svg"
   style="fill-rule:evenodd;stroke-width:28.22200012;stroke-linejoin:round"><metadata
     id="metadata219"><rdf:RDF><cc:Work
         rdf:about=""><dc:format>image/svg+xml</dc:format><dc:type
           rdf:resource="http://purl.org/dc/dcmitype/StillImage" /></cc:Work></rdf:RDF></metadata><sodipodi:namedview
     pagecolor="#ffffff"
     bordercolor="#666666"
     borderopacity="1"
     objecttolerance="10"
     gridtolerance="10"
     guidetolerance="10"
     inkscape:pageopacity="0"
     inkscape:pageshadow="2"
     inkscape:window-width="640"
     inkscape:window-height="480"
     id="namedview217"
     showgrid="false"
     fit-margin-top="0"
     fit-margin-left="0"
     fit-margin-right="0"
     fit-margin-bottom="0"
     inkscape:zoom="0.20813889"
     inkscape:cx="704.40944"
     inkscape:cy="-83.09055"
     inkscape:window-x="0"
     inkscape:window-y="0"
     inkscape:window-maximized="0"
     inkscape:current-layer="svg2" /><defs
     class="ClipPathGroup"
     id="defs4"><clipPath
       id="presentation_clip_path"
       clipPathUnits="userSpaceOnUse"><rect
         x="0"
         y="0"
         width="45000"
         height="32000"
         id="rect7" /></clipPath></defs><defs
     class="TextShapeIndex"
     id="defs9"><g
       ooo:slide="id1"
       ooo:id-list="id3 id4 id5 id6 id7 id8 id9 id10 id11 id12 id13 id14 id15 id16 id17 id18 id19 id20 id21 id22 id23 id24 id25"
       id="g11" /></defs><defs
     class="EmbeddedBulletChars"
     id="defs13"><g
       id="bullet-char-template(57356)"
       transform="scale(4.8828125e-4,-4.8828125e-4)"><path
         d="M 580,1141 1163,571 580,0 -4,571 580,1141 z"
         id="path16"
         inkscape:connector-curvature="0" /></g><g
       id="bullet-char-template(57354)"
       transform="scale(4.8828125e-4,-4.8828125e-4)"><path
         d="m 8,1128 1129,0 L 1137,0 8,0 8,1128 z"
         id="path19"
         inkscape:connector-curvature="0" /></g><g
       id="bullet-char-template(10146)"
       transform="scale(4.8828125e-4,-4.8828125e-4)"><path
         d="M 174,0 602,739 174,1481 1456,739 174,0 z m 1184,739 -1049,607 350,-607 699,0 z"
         id="path22"
         inkscape:connector-curvature="0" /></g><g
       id="bullet-char-template(10132)"
       transform="scale(4.8828125e-4,-4.8828125e-4)"><path
         d="M 2015,739 1276,0 717,0 l 543,543 -1086,0 0,393 1086,0 -543,545 557,0 741,-742 z"
         id="path25"
         inkscape:connector-curvature="0" /></g><g
       id="bullet-char-template(10007)"
       transform="scale(4.8828125e-4,-4.8828125e-4)"><path
         d="m 0,-2 c -7,16 -16,29 -25,39 l 381,530 c -94,256 -141,385 -141,387 0,25 13,38 40,38 9,0 21,-2 34,-5 21,4 42,12 65,25 l 27,-13 111,-251 280,301 64,-25 24,25 c 21,-10 41,-24 62,-43 C 886,937 835,863 770,784 769,783 710,716 594,584 L 774,223 c 0,-27 -21,-55 -63,-84 l 16,-20 C 717,90 699,76 672,76 641,76 570,178 457,381 L 164,-76 c -22,-34 -53,-51 -92,-51 -42,0 -63,17 -64,51 -7,9 -10,24 -10,44 0,9 1,19 2,30 z"
         id="path28"
         inkscape:connector-curvature="0" /></g><g
       id="bullet-char-template(10004)"
       transform="scale(4.8828125e-4,-4.8828125e-4)"><path
         d="M 285,-33 C 182,-33 111,30 74,156 52,228 41,333 41,471 c 0,78 14,145 41,201 34,71 87,106 158,106 53,0 88,-31 106,-94 l 23,-176 c 8,-64 28,-97 59,-98 l 735,706 c 11,11 33,17 66,17 42,0 63,-15 63,-46 l 0,-122 c 0,-36 -10,-64 -30,-84 L 442,47 C 390,-6 338,-33 285,-33 z"
         id="path31"
         inkscape:connector-curvature="0" /></g><g
       id="bullet-char-template(9679)"
       transform="scale(4.8828125e-4,-4.8828125e-4)"><path
         d="M 813,0 C 632,0 489,54 383,161 276,268 223,411 223,592 c 0,181 53,324 160,431 106,107 249,161 430,161 179,0 323,-54 432,-161 108,-107 162,-251 162,-431 0,-180 -54,-324 -162,-431 C 1136,54 992,0 813,0 z"
         id="path34"
         inkscape:connector-curvature="0" /></g><g
       id="bullet-char-template(8226)"
       transform="scale(4.8828125e-4,-4.8828125e-4)"><path
         d="m 346,457 c -73,0 -137,26 -191,78 -54,51 -81,114 -81,188 0,73 27,136 81,188 54,52 118,78 191,78 73,0 134,-26 185,-79 51,-51 77,-114 77,-187 0,-75 -25,-137 -76,-188 -50,-52 -112,-78 -186,-78 z"
         id="path37"
         inkscape:connector-curvature="0" /></g><g
       id="bullet-char-template(8211)"
       transform="scale(4.8828125e-4,-4.8828125e-4)"><path
         d="m -4,459 1139,0 0,147 -1139,0 0,-147 z"
         id="path40"
         inkscape:connector-curvature="0" /></g></defs><defs
     class="TextEmbeddedBitmaps"
     id="defs42" /><g
     id="g44"
     transform="translate(-2620,-2387.6371)"><g
       id="id2"
       class="Master_Slide"><g
         id="bg-id2"
         class="Background" /><g
         id="bo-id2"
         class="BackgroundObjects" /></g></g><g
     class="SlideGroup"
     id="g49"
     transform="translate(-2620,-2387.6371)"><g
       id="g51"><g
         id="id1"
         class="Slide"
         clip-path="url(#presentation_clip_path)"><g
           class="Page"
           id="g54"><g
             class="com.sun.star.drawing.CustomShape"
             id="g56"><g
               id="id3"><path
                 d="m 7635,3640 c 2835,0 5000,2165 5000,5000 0,2835 -2165,5000 -5000,5000 -2835,0 -5000,-2165 -5000,-5000 0,-2835 2165,-5000 5000,-5000 z m -5000,0 0,0 z m 10001,10001 0,0 z"
                 id="path59"
                 inkscape:connector-curvature="0"
                 style="fill:#ffff99;stroke:none" /><path
                 d="m 7635,3640 c 2835,0 5000,2165 5000,5000 0,2835 -2165,5000 -5000,5000 -2835,0 -5000,-2165 -5000,-5000 0,-2835 2165,-5000 5000,-5000 z"
                 id="path61"
                 inkscape:connector-curvature="0"
                 style="fill:none;stroke:#000000;stroke-width:30" /></g></g><g
             class="com.sun.star.drawing.CustomShape"
             id="g63"><g
               id="id4"><path
                 d="m 7635,4140 c 2551,0 4500,1949 4500,4500 0,2551 -1949,4500 -4500,4500 -2551,0 -4500,-1949 -4500,-4500 0,-2551 1949,-4500 4500,-4500 z"
                 id="path66"
                 inkscape:connector-curvature="0"
                 style="fill:none;stroke:#000000;stroke-width:30" /></g></g><g
             class="com.sun.star.drawing.CustomShape"
             id="g68"><g
               id="id5"><path
                 d="m 7635,4640 c 2268,0 4000,1732 4000,4000 0,2268 -1732,4000 -4000,4000 -2268,0 -4000,-1732 -4000,-4000 0,-2268 1732,-4000 4000,-4000 z"
                 id="path71"
                 inkscape:connector-curvature="0"
                 style="fill:none;stroke:#000000;stroke-width:30" /></g></g><g
             class="com.sun.star.drawing.CustomShape"
             id="g73"><g
               id="id6"><path
                 d="m 7635,5140 c 1984,0 3500,1516 3500,3500 0,1984 -1516,3500 -3500,3500 -1984,0 -3500,-1516 -3500,-3500 0,-1984 1516,-3500 3500,-3500 z m -3500,0 0,0 z m 7001,7001 0,0 z"
                 id="path76"
                 inkscape:connector-curvature="0"
                 style="fill:#9999ff;stroke:none" /><path
                 d="m 7635,5140 c 1984,0 3500,1516 3500,3500 0,1984 -1516,3500 -3500,3500 -1984,0 -3500,-1516 -3500,-3500 0,-1984 1516,-3500 3500,-3500 z"
                 id="path78"
                 inkscape:connector-curvature="0"
                 style="fill:none;stroke:#000000;stroke-width:30" /></g></g><g
             class="com.sun.star.drawing.CustomShape"
             id="g80"><g
               id="id7"><path
                 d="m 7635,5640 c 1701,0 3000,1299 3000,3000 0,1701 -1299,3000 -3000,3000 -1701,0 -3000,-1299 -3000,-3000 0,-1701 1299,-3000 3000,-3000 z m -3000,0 0,0 z m 6001,6001 0,0 z"
                 id="path83"
                 inkscape:connector-curvature="0"
                 style="fill:#ffff99;stroke:none" /><path
                 d="m 7635,5640 c 1701,0 3000,1299 3000,3000 0,1701 -1299,3000 -3000,3000 -1701,0 -3000,-1299 -3000,-3000 0,-1701 1299,-3000 3000,-3000 z"
                 id="path85"
                 inkscape:connector-curvature="0"
                 style="fill:none;stroke:#000000;stroke-width:30" /></g></g><g
             class="com.sun.star.drawing.CustomShape"
             id="g87"><g
               id="id8"><path
                 d="m 7635,6140 c 1417,0 2500,1083 2500,2500 0,1417 -1083,2500 -2500,2500 -1417,0 -2500,-1083 -2500,-2500 0,-1417 1083,-2500 2500,-2500 z"
                 id="path90"
                 inkscape:connector-curvature="0"
                 style="fill:none;stroke:#000000;stroke-width:30" /></g></g><g
             class="com.sun.star.drawing.CustomShape"
             id="g92"><g
               id="id9"><path
                 d="m 7634,6640 c 1134,0 2000,865 2000,1999 0,1134 -866,2000 -2000,2000 -1134,0 -1999,-866 -1999,-2000 0,-1134 865,-1999 1999,-1999 z"
                 id="path95"
                 inkscape:connector-curvature="0"
                 style="fill:none;stroke:#000000;stroke-width:30" /></g></g><g
             class="com.sun.star.drawing.LineShape"
             id="g97"><g
               id="id10"><path
                 d="m 7635,10140 0,3500"
                 id="path100"
                 inkscape:connector-curvature="0"
                 style="fill:none;stroke:#000000;stroke-width:30" /></g></g><g
             class="com.sun.star.drawing.LineShape"
             id="g102"><g
               id="id11"><path
                 d="m 9135,8640 3500,0"
                 id="path105"
                 inkscape:connector-curvature="0"
                 style="fill:none;stroke:#000000;stroke-width:30" /></g></g><g
             class="com.sun.star.drawing.LineShape"
             id="g107"><g
               id="id12"><path
                 d="m 7635,7140 0,-3500"
                 id="path110"
                 inkscape:connector-curvature="0"
                 style="fill:none;stroke:#000000;stroke-width:30" /></g></g><g
             class="com.sun.star.drawing.LineShape"
             id="g112"><g
               id="id13"><path
                 d="m 6135,8640 -3500,0"
                 id="path115"
                 inkscape:connector-curvature="0"
                 style="fill:none;stroke:#000000;stroke-width:30" /></g></g><g
             class="com.sun.star.drawing.ConnectorShape"
             id="g117"><g
               id="id14"><path
                 d="M 8696,7579 11171,5104"
                 id="path120"
                 inkscape:connector-curvature="0"
                 style="fill:none;stroke:#000000;stroke-width:30" /></g></g><g
             class="com.sun.star.drawing.ConnectorShape"
             id="g122"><g
               id="id15"><path
                 d="m 8696,9701 2475,2475"
                 id="path125"
                 inkscape:connector-curvature="0"
                 style="fill:none;stroke:#000000;stroke-width:30" /></g></g><g
             class="com.sun.star.drawing.ConnectorShape"
             id="g127"><g
               id="id16"><path
                 d="M 6574,9701 4099,12176"
                 id="path130"
                 inkscape:connector-curvature="0"
                 style="fill:none;stroke:#000000;stroke-width:30" /></g></g><g
             class="com.sun.star.drawing.ConnectorShape"
             id="g132"><g
               id="id17"><path
                 d="M 6574,7579 4099,5104"
                 id="path135"
                 inkscape:connector-curvature="0"
                 style="fill:none;stroke:#000000;stroke-width:30" /></g></g><g
             class="com.sun.star.drawing.CustomShape"
             id="g137"><g
               id="id18"><path
                 d="m 7635,7140 c 850,0 1500,650 1500,1500 0,850 -650,1500 -1500,1500 -850,0 -1500,-650 -1500,-1500 0,-850 650,-1500 1500,-1500 z m -1500,0 0,0 z m 3001,3001 0,0 z"
                 id="path140"
                 inkscape:connector-curvature="0"
                 style="fill:#ffffff;stroke:none" /><path
                 d="m 7635,7140 c 850,0 1500,650 1500,1500 0,850 -650,1500 -1500,1500 -850,0 -1500,-650 -1500,-1500 0,-850 650,-1500 1500,-1500 z"
                 id="path142"
                 inkscape:connector-curvature="0"
                 style="fill:none;stroke:#000000;stroke-width:30" /></g></g><g
             class="com.sun.star.drawing.PolyPolygonShape"
             id="g144"><g
               id="id19"><path
                 d="m 8701,7574 2504,-2506 -2,4 -352,-319 -383,-283 -412,-246 -439,-206 -463,-165 -485,-119 -506,-74 -523,-25 0,0 0,3500 0,0 157,8 151,22 146,36 139,49 132,62 123,73 115,86 106,95 -8,8 z"
                 id="path147"
                 inkscape:connector-curvature="0"
                 style="fill:#94bd5e;fill-opacity:0.69800002;stroke:#ffffff;stroke-opacity:0.69800002" /><path
                 d="m 8701,7574 2504,-2506 -2,4 -352,-319 -383,-283 -412,-246 -439,-206 -463,-165 -485,-119 -506,-74 -523,-25 0,0 0,3500 0,0 157,8 151,22 146,36 139,49 132,62 123,73 115,86 106,95 -8,8 z"
                 id="path149"
                 inkscape:connector-curvature="0"
                 style="fill:none;stroke:#000000;stroke-width:30" /></g></g><g
             class="com.sun.star.drawing.LineShape"
             id="g151"><g
               id="id20"><path
                 d="m 13235,6535 -2138,822"
                 id="path154"
                 inkscape:connector-curvature="0"
                 style="fill:none;stroke:#000000;stroke-width:30" /><path
                 d="m 10635,7535 545,-25 -124,-322 -421,347 z"
                 id="path156"
                 inkscape:connector-curvature="0"
                 style="fill:#000000;stroke:none" /></g></g><g
             class="com.sun.star.drawing.LineShape"
             id="g158"><g
               id="id21"><path
                 d="m 10835,2935 -466,865"
                 id="path161"
                 inkscape:connector-curvature="0"
                 style="fill:none;stroke:#000000;stroke-width:30" /><path
                 d="m 10135,4235 397,-374 -304,-163 -93,537 z"
                 id="path163"
                 inkscape:connector-curvature="0"
                 style="fill:#000000;stroke:none" /></g></g><g
             class="com.sun.star.drawing.LineShape"
             id="g165"><g
               id="id22"><path
                 d="M 11235,3935 9935,5642"
                 id="path168"
                 inkscape:connector-curvature="0"
                 style="fill:none;stroke:#000000;stroke-width:30" /><path
                 d="m 9635,6035 451,-307 -275,-209 -176,516 z"
                 id="path170"
                 inkscape:connector-curvature="0"
                 style="fill:#000000;stroke:none" /></g></g><g
             class="com.sun.star.drawing.TextShape"
             id="g172"><g
               id="id23"><text
                 class="TextShape"
                 id="text175"><tspan
                   class="TextParagraph"
                   font-size="494px"
                   font-weight="400"
                   id="tspan177"
                   style="font-size:494px;font-weight:400;font-family:'Liberation Sans, sans-serif'"><tspan
                     class="TextPosition"
                     x="13599"
                     y="6379"
                     id="tspan179"><tspan
                       id="tspan181"
                       style="fill:#000000;stroke:none">pista /</tspan></tspan></tspan><tspan
                   class="TextParagraph"
                   font-size="494px"
                   font-weight="400"
                   id="tspan183"
                   style="font-size:494px;font-weight:400;font-family:'Liberation Sans, sans-serif'"><tspan
                     class="TextPosition"
                     x="13599"
                     y="6934"
                     id="tspan185"><tspan
                       id="tspan187"
                       style="fill:#000000;stroke:none">cilindro</tspan></tspan></tspan></text>
</g></g><g
             class="com.sun.star.drawing.TextShape"
             id="g189"><g
               id="id24"><text
                 class="TextShape"
                 id="text192"><tspan
                   class="TextParagraph"
                   font-size="494px"
                   font-weight="400"
                   id="tspan194"
                   style="font-size:494px;font-weight:400;font-family:'Liberation Sans, sans-serif'"><tspan
                     class="TextPosition"
                     x="11439"
                     y="3779"
                     id="tspan196"><tspan
                       id="tspan198"
                       style="fill:#000000;stroke:none">sector de</tspan></tspan></tspan><tspan
                   class="TextParagraph"
                   font-size="494px"
                   font-weight="400"
                   id="tspan200"
                   style="font-size:494px;font-weight:400;font-family:'Liberation Sans, sans-serif'"><tspan
                     class="TextPosition"
                     x="11454"
                     y="4334"
                     id="tspan202"><tspan
                       id="tspan204"
                       style="fill:#000000;stroke:none">una pista</tspan></tspan></tspan></text>
</g></g><g
             class="com.sun.star.drawing.TextShape"
             id="g206"><g
               id="id25"><text
                 class="TextShape"
                 id="text209"><tspan
                   class="TextParagraph"
                   font-size="494px"
                   font-weight="400"
                   id="tspan211"
                   style="font-size:494px;font-weight:400;font-family:'Liberation Sans, sans-serif'"><tspan
                     class="TextPosition"
                     x="10907"
                     y="2707"
                     id="tspan213"><tspan
                       id="tspan215"
                       style="fill:#000000;stroke:none">sector</tspan></tspan></tspan></text>
</g></g></g></g></g></g></svg>