<?xml version="1.0" encoding="UTF-8"?>
<!DOCTYPE svg PUBLIC "-//W3C//DTD SVG 1.1//EN" "http://www.w3.org/Graphics/SVG/1.1/DTD/svg11.dtd">
<svg xmlns="http://www.w3.org/2000/svg" xmlns:xlink="http://www.w3.org/1999/xlink" version="1.1" width="307px" height="342px" viewBox="-0.5 -0.5 307 342"><defs/><g><rect x="75" y="1" width="230" height="340" fill="none" stroke="none" pointer-events="all"/><path d="M 75 1 C 139.98 -1.93 207.09 -0.61 305 1 M 75 1 C 151.47 3.24 228.56 2.66 305 1 M 305 1 C 304.16 113.29 303.48 224.46 305 341 M 305 1 C 306.2 105.94 306.52 212.05 305 341 M 305 341 C 219.2 340.77 134.18 342.22 75 341 M 305 341 C 226.13 341.94 147.62 341.24 75 341 M 75 341 C 73.86 240.17 73.73 139.04 75 1 M 75 341 C 76.91 213.71 75.9 86.42 75 1" fill="none" stroke="#324ab2" stroke-width="2" stroke-linejoin="round" stroke-linecap="round" stroke-miterlimit="10" pointer-events="all"/><rect x="85" y="301" width="210" height="30" fill="none" stroke="none" pointer-events="all"/><path d="M 85 301 C 147.15 303.82 208.07 301.13 295 301 M 85 301 C 151.77 302.24 218.17 301.94 295 301 M 295 301 C 295.35 306.42 293.75 312.67 295 331 M 295 301 C 295.51 312.26 295.3 323.23 295 331 M 295 331 C 232.55 330.28 174.64 331.34 85 331 M 295 331 C 248.97 330.48 203.88 329.16 85 331 M 85 331 C 84.22 322.97 86.43 313.01 85 301 M 85 331 C 85.71 321.85 85.7 310.92 85 301" fill="none" stroke="#324ab2" stroke-width="2" stroke-linejoin="round" stroke-linecap="round" stroke-miterlimit="10" pointer-events="all"/><g fill="#324AB2" font-family="Ink Free" font-weight="bold" text-anchor="middle" font-size="17px"><text x="189.5" y="320.5">Sistema Operativo</text></g><rect x="85" y="251" width="210" height="50" fill="none" stroke="none" pointer-events="all"/><path d="M 85 251 C 146.14 250.68 206.03 251.7 295 251 M 85 251 C 166.18 251.31 249.08 252.09 295 251 M 295 251 C 294.62 264.8 295.89 275.92 295 301 M 295 251 C 294.81 268.49 295.5 287.69 295 301 M 295 301 C 243.62 301.61 188.48 300.46 85 301 M 295 301 C 239.71 300.97 185.16 300.44 85 301 M 85 301 C 87.05 290.42 85.78 279.74 85 251 M 85 301 C 84.75 287.78 84.91 274.71 85 251" fill="none" stroke="#324ab2" stroke-width="2" stroke-linejoin="round" stroke-linecap="round" stroke-miterlimit="10" pointer-events="all"/><g fill="#324AB2" font-family="Ink Free" font-weight="bold" text-anchor="middle" font-size="17px"><text x="189.5" y="280.5">Partici贸n 1</text></g><rect x="85" y="171" width="210" height="80" fill="none" stroke="none" pointer-events="all"/><path d="M 85 171 C 161.73 171.72 242.33 171.95 295 171 M 85 171 C 164.42 172.18 242.42 171.55 295 171 M 295 171 C 293.67 198.53 294.1 222.8 295 251 M 295 171 C 295.39 200.75 294.95 230.03 295 251 M 295 251 C 229.16 251.4 162.26 252.23 85 251 M 295 251 C 251.96 252.17 207.55 251.2 85 251 M 85 251 C 83.59 230.69 83.18 206.92 85 171 M 85 251 C 85.19 226.66 85.19 201.55 85 171" fill="none" stroke="#324ab2" stroke-width="2" stroke-linejoin="round" stroke-linecap="round" stroke-miterlimit="10" pointer-events="all"/><g fill="#324AB2" font-family="Ink Free" font-weight="bold" text-anchor="middle" font-size="17px"><text x="189.5" y="215.5">Partici贸n 2</text></g><rect x="85" y="51" width="210" height="120" fill="none" stroke="none" pointer-events="all"/><path d="M 85 51 C 164.25 52.29 240.28 52.69 295 51 M 85 51 C 136.82 51.25 189.34 51.7 295 51 M 295 51 C 296.7 94.32 295.99 138.86 295 171 M 295 51 C 294.62 92.41 295.08 133.37 295 171 M 295 171 C 236.7 172.73 179.63 171.36 85 171 M 295 171 C 242.7 172.67 190.6 172.48 85 171 M 85 171 C 86.76 147.18 86.88 121.73 85 51 M 85 171 C 84.9 139.84 85.07 107.83 85 51" fill="none" stroke="#324ab2" stroke-width="2" stroke-linejoin="round" stroke-linecap="round" stroke-miterlimit="10" pointer-events="all"/><g fill="#324AB2" font-family="Ink Free" font-weight="bold" text-anchor="middle" font-size="17px"><text x="189.5" y="115.5">Partici贸n 3</text></g><rect x="85" y="11" width="210" height="40" fill="none" stroke="none" pointer-events="all"/><path d="M 85 11 C 163.25 9.14 241.77 9.72 295 11 M 85 11 C 153 10.32 220.26 10.08 295 11 M 295 11 C 296.05 20.29 294.2 27.31 295 51 M 295 11 C 294.19 23.45 295.54 37.46 295 51 M 295 51 C 244.25 50.53 197.01 50.48 85 51 M 295 51 C 235.2 51.4 173.66 51.99 85 51 M 85 51 C 85.28 38 85.93 25.19 85 11 M 85 51 C 84.78 42.93 85.11 33.93 85 11" fill="none" stroke="#324ab2" stroke-width="2" stroke-linejoin="round" stroke-linecap="round" stroke-miterlimit="10" pointer-events="all"/><g fill="#324AB2" font-family="Ink Free" font-weight="bold" text-anchor="middle" font-size="17px"><text x="189.5" y="35.5">Partici贸n 4</text></g><rect x="0" y="321" width="75" height="20" fill="none" stroke="none" pointer-events="all"/><g fill="#324AB2" font-family="Ink Free" font-weight="bold" text-anchor="end" font-size="17px"><text x="62.5" y="335.5">0x0000</text></g><rect x="0" y="1" width="75" height="20" fill="none" stroke="none" pointer-events="all"/><g fill="#324AB2" font-family="Ink Free" font-weight="bold" text-anchor="end" font-size="17px"><text x="62.5" y="15.5">MAX.</text></g></g></svg>