<?xml version="1.0" encoding="UTF-8"?>
<!DOCTYPE svg PUBLIC "-//W3C//DTD SVG 1.1//EN" "http://www.w3.org/Graphics/SVG/1.1/DTD/svg11.dtd">
<svg xmlns="http://www.w3.org/2000/svg" xmlns:xlink="http://www.w3.org/1999/xlink" version="1.1" width="655px" height="402px" viewBox="-0.5 -0.5 655 402"><defs><style type="text/css">@font-face {&#xa;font-family: "Ink Free";&#xa;src: url("https://ull-esit-sistemas-operativos.github.io/ssoo-apuntes/fonts/InkFree.woff");&#xa;}&#xa;</style></defs><g><rect x="355" y="1" width="174" height="340" fill="none" stroke="none" pointer-events="all"/><path d="M 355 1 C 404.63 1.13 456.8 2.48 529 1 M 355 1 C 400.92 0.45 447.18 0.55 529 1 M 529 1 C 530.07 99.9 530.15 200.01 529 341 M 529 1 C 530.32 114.5 530.04 229.16 529 341 M 529 341 C 492.97 339.21 455.25 339.41 355 341 M 529 341 C 477.08 341.57 423.79 339.86 355 341 M 355 341 C 353.38 220.01 352.89 97.52 355 1 M 355 341 C 354 265.28 354.22 189.62 355 1" fill="none" stroke="#324ab2" stroke-width="2" stroke-linejoin="round" stroke-linecap="round" stroke-miterlimit="10" pointer-events="all"/><rect x="365" y="91" width="154" height="240" fill="none" stroke="none" pointer-events="all"/><path d="M 364.72 91.33 C 364.72 91.33 364.72 91.33 364.72 91.33 M 364.72 91.33 C 364.72 91.33 364.72 91.33 364.72 91.33 M 364.85 103.37 C 369.29 99.44 374.49 95.37 375.35 91.29 M 364.85 103.37 C 367.91 100.12 369.69 98.58 375.35 91.29 M 364.98 115.41 C 372.46 107.96 378.13 98.87 385.98 91.26 M 364.98 115.41 C 370.83 108.52 376.88 100.07 385.98 91.26 M 365.12 127.45 C 376.79 114.28 389.78 100.23 396.61 91.22 M 365.12 127.45 C 375.92 115.93 385.73 103.82 396.61 91.22 M 365.25 139.49 C 380.75 119.15 399.68 103.92 407.24 91.19 M 365.25 139.49 C 376.34 127.68 385.43 117.13 407.24 91.19 M 364.73 152.28 C 383.59 128.6 403.33 108.6 417.87 91.15 M 364.73 152.28 C 381.44 132.74 397.63 114.99 417.87 91.15 M 364.86 164.32 C 386.45 136.1 412.43 111.6 428.5 91.12 M 364.86 164.32 C 379.05 147.69 393.07 132.74 428.5 91.12 M 364.99 176.37 C 379.52 160.08 398.14 140.78 439.13 91.08 M 364.99 176.37 C 390.53 147.75 415.49 117.8 439.13 91.08 M 365.13 188.41 C 388.78 162.67 410.2 137.53 449.76 91.05 M 365.13 188.41 C 397.75 151.12 430.55 112.52 449.76 91.05 M 365.26 200.45 C 392.64 169.76 417.4 140.55 460.39 91.01 M 365.26 200.45 C 398.85 162.66 430.96 123.77 460.39 91.01 M 364.74 213.24 C 397.3 174.11 429.76 136.04 471.02 90.98 M 364.74 213.24 C 397.07 176.77 429.92 138.36 471.02 90.98 M 364.87 225.28 C 412.67 171.28 455.56 118.38 481.65 90.95 M 364.87 225.28 C 408.05 174.6 453.45 123.06 481.65 90.95 M 365 237.32 C 396.05 203.03 420.35 172.71 492.28 90.91 M 365 237.32 C 408.72 187.52 450.27 138.45 492.28 90.91 M 365.14 249.37 C 394.55 213.8 427.31 176.29 502.91 90.88 M 365.14 249.37 C 415.71 188.41 467.9 129.25 502.91 90.88 M 365.27 261.41 C 406.63 214.83 446.44 166.45 513.54 90.84 M 365.27 261.41 C 403.7 215.33 444.15 169.99 513.54 90.84 M 364.75 274.2 C 416.57 213.93 469.45 155.09 521.54 93.83 M 364.75 274.2 C 427.65 202.63 490.88 130.39 521.54 93.83 M 364.88 286.24 C 401.67 246.66 436.81 204.27 521.68 105.87 M 364.88 286.24 C 411.63 233.08 458.19 179.15 521.68 105.87 M 365.01 298.28 C 423.09 229.86 483.6 161.06 521.81 117.91 M 365.01 298.28 C 403.07 254.99 441.15 211.8 521.81 117.91 M 365.15 310.32 C 408.11 262.19 448.73 213.32 521.94 129.95 M 365.15 310.32 C 401.09 269.2 439.02 226.51 521.94 129.95 M 365.28 322.37 C 399.61 283.2 432.95 246.2 522.08 141.99 M 365.28 322.37 C 429.19 249.62 490.04 178.32 522.08 141.99 M 366.72 332.9 C 398.97 296.83 431.78 257.79 521.55 154.79 M 366.72 332.9 C 418.06 274.99 466.53 218.09 521.55 154.79 M 377.35 332.86 C 433.27 270.18 483.42 209.99 521.69 166.83 M 377.35 332.86 C 416.73 286.79 455.97 239.5 521.69 166.83 M 387.98 332.83 C 430.18 285.12 470.36 236.52 521.82 178.87 M 387.98 332.83 C 440.81 272.31 492.96 210.78 521.82 178.87 M 398.61 332.79 C 440.14 281.87 484.64 229.58 521.95 190.91 M 398.61 332.79 C 424.24 301.86 451.32 269.75 521.95 190.91 M 409.24 332.76 C 435.32 302.98 461.57 268.96 522.09 202.95 M 409.24 332.76 C 444.26 292.95 480.59 250 522.09 202.95 M 419.87 332.72 C 440.99 307.55 461.42 286.61 521.56 215.74 M 419.87 332.72 C 446.59 301.78 473.11 271.17 521.56 215.74 M 430.5 332.69 C 463.65 296.85 492.55 263.8 521.7 227.79 M 430.5 332.69 C 465.13 293.41 498.89 253.91 521.7 227.79 M 441.13 332.66 C 463.21 307 484.47 280.87 521.83 239.83 M 441.13 332.66 C 470.68 299.13 499.41 265.54 521.83 239.83 M 451.77 332.62 C 475.31 305.69 500.47 276.27 521.96 251.87 M 451.77 332.62 C 471.59 311.39 487.79 291.94 521.96 251.87 M 462.4 332.59 C 477.79 313.95 491.82 297.4 522.1 263.91 M 462.4 332.59 C 474.3 317.85 486.29 303.28 522.1 263.91 M 473.03 332.55 C 483.95 320.82 497.74 303.7 521.57 276.7 M 473.03 332.55 C 486.46 317.58 500.21 302.03 521.57 276.7 M 483.66 332.52 C 498.63 318.09 512.56 302.08 521.71 288.74 M 483.66 332.52 C 497.2 316.19 513.27 298.25 521.71 288.74 M 494.29 332.48 C 501.47 325.5 509.27 315.91 521.84 300.79 M 494.29 332.48 C 503.98 321.3 513.37 311.33 521.84 300.79 M 504.92 332.45 C 507.88 327.47 511.72 324 521.97 312.83 M 504.92 332.45 C 507.79 328.12 511.94 325.37 521.97 312.83 M 515.55 332.41 C 517.52 329.48 518.6 327.88 522.11 324.87 M 515.55 332.41 C 516.73 330.89 518.33 329.41 522.11 324.87" fill="none" stroke="#c2bee6" stroke-linejoin="round" stroke-linecap="round" stroke-miterlimit="10" pointer-events="all"/><path d="M 365 91 C 421.15 91.43 477.45 90.14 519 91 M 365 91 C 411.14 90.83 456.36 91.19 519 91 M 519 91 C 516.65 172.13 515.6 250.83 519 331 M 519 91 C 519.88 159.32 519.49 227.48 519 331 M 519 331 C 483.11 331.12 446 333.73 365 331 M 519 331 C 468.22 332.26 417.47 331.52 365 331 M 365 331 C 365.49 243.04 362.82 155.95 365 91 M 365 331 C 363.17 271.21 363.54 210.89 365 91" fill="none" stroke="#324ab2" stroke-width="2" stroke-linejoin="round" stroke-linecap="round" stroke-miterlimit="10" pointer-events="all"/><rect x="365" y="11" width="154" height="80" fill="none" stroke="none" pointer-events="all"/><path d="M 365 11 C 409.41 9.36 452.49 9.91 519 11 M 365 11 C 422.13 10.32 480.09 11.55 519 11 M 519 11 C 519.7 37.57 520.39 67.98 519 91 M 519 11 C 518.74 29.91 518.74 48.51 519 91 M 519 91 C 461.96 91.59 404.89 89.8 365 91 M 519 91 C 466.53 89.8 415.56 90.54 365 91 M 365 91 C 363.69 59.78 364.83 26.98 365 11 M 365 91 C 363.95 74.24 363.61 55.86 365 11" fill="none" stroke="#324ab2" stroke-width="2" stroke-linejoin="round" stroke-linecap="round" stroke-miterlimit="10" pointer-events="all"/><g fill="#324AB2" font-family="Ink Free" font-weight="bold" text-anchor="middle" font-size="17px"><text x="441.5" y="45.5">Sistema operativo</text><text x="441.5" y="65.5">(Núcleo)</text></g><rect x="280" y="321" width="75" height="20" fill="none" stroke="none" pointer-events="all"/><g fill="#324AB2" font-family="Ink Free" font-weight="bold" text-anchor="end" font-size="17px"><text x="342.5" y="335.5">0x0000</text></g><rect x="280" y="1" width="75" height="20" fill="none" stroke="none" pointer-events="all"/><g fill="#324AB2" font-family="Ink Free" font-weight="bold" text-anchor="end" font-size="17px"><text x="342.5" y="15.5">MAX.</text></g><path d="M 243.34 165.62 L 356.66 296.38" fill="none" stroke="none" pointer-events="stroke"/><path d="M 236.46 157.69 L 250.92 163.68 L 243.34 165.62 L 240.34 172.85 Z" fill="none" stroke="none" pointer-events="all"/><path d="M 363.54 304.31 L 349.08 298.32 L 356.66 296.38 L 359.66 289.15 Z" fill="none" stroke="none" pointer-events="all"/><path d="M 243.34 165.62 M 243.34 165.62 C 284.8 214.26 327.12 262.13 356.66 296.38 M 243.34 165.62 C 280.73 208.38 318.93 251.11 356.66 296.38" fill="none" stroke="#324ab2" stroke-width="2" stroke-linejoin="round" stroke-linecap="round" stroke-miterlimit="10" pointer-events="stroke"/><path d="M 236.61 157.52 C 236.61 157.52 236.61 157.52 236.61 157.52 M 236.61 157.52 C 236.61 157.52 236.61 157.52 236.61 157.52 M 238.71 167.29 C 240.9 164.8 242.65 162.34 243.96 161.25 M 238.71 167.29 C 240.19 165.68 242.31 163.19 243.96 161.25" fill="none" stroke="#324ab2" stroke-linejoin="round" stroke-linecap="round" stroke-miterlimit="10" pointer-events="all"/><path d="M 236.46 157.69 M 236.46 157.69 C 239.54 157.52 241.31 161.54 250.92 163.68 M 236.46 157.69 C 241.87 159.46 247.8 162.18 250.92 163.68 M 250.92 163.68 C 249.58 164.05 247.97 164.37 243.34 165.62 M 250.92 163.68 C 248.02 164.23 245.87 165.13 243.34 165.62 M 243.34 165.62 C 242.96 166.73 241.69 169.52 240.34 172.85 M 243.34 165.62 C 242.74 168.18 241.67 170.29 240.34 172.85 M 240.34 172.85 C 240.09 166.64 238.64 162.36 236.46 157.69 M 240.34 172.85 C 238.92 166.2 237.05 161.3 236.46 157.69" fill="none" stroke="#324ab2" stroke-width="2" stroke-linejoin="round" stroke-linecap="round" stroke-miterlimit="10" pointer-events="all"/><path d="M 349.4 297.96 C 349.4 297.96 349.4 297.96 349.4 297.96 M 349.4 297.96 C 349.4 297.96 349.4 297.96 349.4 297.96 M 356.74 301.7 C 359.75 298.27 362.17 294.89 363.96 293.39 M 356.74 301.7 C 358.77 299.47 361.7 296.06 363.96 293.39" fill="none" stroke="#324ab2" stroke-linejoin="round" stroke-linecap="round" stroke-miterlimit="10" pointer-events="all"/><path d="M 363.54 304.31 M 363.54 304.31 C 360.82 301.6 356.77 303.2 349.08 298.32 M 363.54 304.31 C 357.92 301.47 352.92 299.66 349.08 298.32 M 349.08 298.32 C 350.9 297.74 352.49 297.25 356.66 296.38 M 349.08 298.32 C 351.61 297.48 354.89 296.99 356.66 296.38 M 356.66 296.38 C 357.78 294.06 357.94 293.4 359.66 289.15 M 356.66 296.38 C 357.89 294.57 358.61 292.36 359.66 289.15 M 359.66 289.15 C 362.09 292.43 363.06 297.58 363.54 304.31 M 359.66 289.15 C 361.56 294.33 362.71 301.24 363.54 304.31" fill="none" stroke="#324ab2" stroke-width="2" stroke-linejoin="round" stroke-linecap="round" stroke-miterlimit="10" pointer-events="all"/><rect x="539" y="91" width="18" height="241" fill="none" stroke="none" transform="translate(548,0)scale(-1,1)translate(-548,0)" pointer-events="all"/><path d="M 557 91 L 548 91 L 548 332 L 557 332" fill="none" stroke="none" transform="translate(548,0)scale(-1,1)translate(-548,0)" pointer-events="all"/><path d="M 539 211.5 L 548 211.5" fill="none" stroke="none" transform="translate(548,0)scale(-1,1)translate(-548,0)" pointer-events="all"/><path d="M 539.3 92.34 L 556.43 89.66 L 557.29 330.06 L 539.76 333.96" fill="none" stroke="none" transform="translate(548,0)scale(-1,1)translate(-548,0)" pointer-events="all"/><path d="M 557 91 M 557 91 C 553.55 91.27 550.06 91.32 548 91 M 557 91 C 555.51 91.03 553.01 91.42 548 91 M 548 91 C 548.51 182.87 547.49 271.86 548 332 M 548 91 C 547.82 166.42 547.67 240.09 548 332 M 548 332 C 551.1 331.7 554.59 332.19 557 332 M 548 332 C 549.57 331.76 552.26 332.42 557 332" fill="none" stroke="#324ab2" stroke-width="2" stroke-linejoin="round" stroke-linecap="round" stroke-miterlimit="10" transform="translate(548,0)scale(-1,1)translate(-548,0)" pointer-events="all"/><path d="M 539 211.5 M 539 211.5 C 542.15 211.76 545.26 211.81 548 211.5 M 539 211.5 C 541.14 211.41 542.26 211.81 548 211.5" fill="none" stroke="#324ab2" stroke-width="2" stroke-linejoin="round" stroke-linecap="round" stroke-miterlimit="10" transform="translate(548,0)scale(-1,1)translate(-548,0)" pointer-events="all"/><rect x="569" y="196" width="85" height="40" fill="none" stroke="none" transform="translate(611.5,0)scale(-1,1)translate(-611.5,0)" pointer-events="all"/><g fill="#324AB2" font-family="Ink Free" font-weight="bold" font-size="17px"><text x="570.5" y="210.5">Espacio</text><text x="570.5" y="230.5">de usuario</text></g><rect x="539" y="11" width="18" height="80" fill="none" stroke="none" transform="translate(548,0)scale(-1,1)translate(-548,0)" pointer-events="all"/><path d="M 557 11 L 548 11 L 548 91 L 557 91" fill="none" stroke="none" transform="translate(548,0)scale(-1,1)translate(-548,0)" pointer-events="all"/><path d="M 539 51 L 548 51" fill="none" stroke="none" transform="translate(548,0)scale(-1,1)translate(-548,0)" pointer-events="all"/><path d="M 540.5 13 L 556.82 12.76 L 558.83 91.92 L 539.79 92.79" fill="none" stroke="none" transform="translate(548,0)scale(-1,1)translate(-548,0)" pointer-events="all"/><path d="M 557 11 M 557 11 C 554.17 11.18 549.49 11.06 548 11 M 557 11 C 554.37 10.68 550.93 11.15 548 11 M 548 11 C 547.37 34.81 547.91 60.85 548 91 M 548 11 C 547.94 39.12 547.91 65.57 548 91 M 548 91 C 551.5 91.35 553.58 91.19 557 91 M 548 91 C 549.87 90.7 552.13 91.1 557 91" fill="none" stroke="#324ab2" stroke-width="2" stroke-linejoin="round" stroke-linecap="round" stroke-miterlimit="10" transform="translate(548,0)scale(-1,1)translate(-548,0)" pointer-events="all"/><path d="M 539 51 M 539 51 C 542.84 51.21 544.82 51.08 548 51 M 539 51 C 542.01 50.84 544.23 51.31 548 51" fill="none" stroke="#324ab2" stroke-width="2" stroke-linejoin="round" stroke-linecap="round" stroke-miterlimit="10" transform="translate(548,0)scale(-1,1)translate(-548,0)" pointer-events="all"/><rect x="569" y="31" width="75" height="40" fill="none" stroke="none" transform="translate(606.5,0)scale(-1,1)translate(-606.5,0)" pointer-events="all"/><g fill="#324AB2" font-family="Ink Free" font-weight="bold" font-size="17px"><text x="570.5" y="45.5">Espacio</text><text x="570.5" y="65.5">de núcleo</text></g><rect x="365" y="291" width="154" height="30" fill="none" stroke="none" pointer-events="all"/><path d="M 363.9 289.27 L 519.74 291.84 L 520.25 319.3 L 366.32 322.81" fill="#ffffff" stroke="none" pointer-events="all"/><path d="M 365 291 C 407.91 291.36 450.55 289.65 519 291 M 365 291 C 396.14 290.44 426.19 291.54 519 291 M 519 291 C 517.25 300.76 518.17 312.17 519 321 M 519 291 C 519.75 299.39 518.27 307.49 519 321 M 519 321 C 483.8 320.94 452.81 319.6 365 321 M 519 321 C 483.84 319.5 449.65 320.04 365 321 M 365 321 C 364.47 311.26 365.04 303.62 365 291 M 365 321 C 365.73 311.63 365.47 300.27 365 291" fill="none" stroke="#324ab2" stroke-width="2" stroke-linejoin="round" stroke-linecap="round" stroke-miterlimit="10" pointer-events="all"/><g fill="#324AB2" font-family="Ink Free" font-weight="bold" text-anchor="middle" font-size="17px"><text x="441.5" y="310.5">Proceso 2</text></g><rect x="365" y="351" width="160" height="50" fill="none" stroke="none" transform="translate(445,0)scale(-1,1)translate(-445,0)" pointer-events="all"/><g fill="#324AB2" font-family="Ink Free" font-weight="bold" text-anchor="middle" font-size="17px"><text x="444.5" y="370.5">Espacio de direcciones</text><text x="444.5" y="390.5">del proceso 2</text></g><rect x="75" y="111" width="170" height="230" fill="none" stroke="none" pointer-events="all"/><path d="M 75 111 C 120 111.9 168.66 114.59 245 111 M 75 111 C 134.23 112.18 193.14 111.71 245 111 M 245 111 C 244.48 164.59 243.33 220.43 245 341 M 245 111 C 245.11 162.22 245.37 213.21 245 341 M 245 341 C 188.17 339.72 128.72 341.38 75 341 M 245 341 C 192.83 340.37 141.19 340.69 75 341 M 75 341 C 75.44 294.47 76.83 249.44 75 111 M 75 341 C 72.92 286.69 72.99 232.26 75 111" fill="none" stroke="#324ab2" stroke-width="2" stroke-linejoin="round" stroke-linecap="round" stroke-miterlimit="10" pointer-events="all"/><rect x="0" y="321" width="75" height="20" fill="none" stroke="none" pointer-events="all"/><g fill="#324AB2" font-family="Ink Free" font-weight="bold" text-anchor="end" font-size="17px"><text x="62.5" y="335.5">0x0000</text></g><rect x="85" y="121" width="150" height="130" fill="none" stroke="none" pointer-events="all"/><path d="M 84.94 121.07 C 84.94 121.07 84.94 121.07 84.94 121.07 M 84.94 121.07 C 84.94 121.07 84.94 121.07 84.94 121.07 M 85.07 133.11 C 86.61 128.75 89.77 127.97 95.57 121.04 M 85.07 133.11 C 87.4 129.78 89.91 128.04 95.57 121.04 M 85.21 145.15 C 88.95 141.86 92.86 133.75 106.2 121 M 85.21 145.15 C 89.39 140.97 93.31 134.44 106.2 121 M 84.68 157.95 C 93.89 148.62 104.41 137.26 116.83 120.97 M 84.68 157.95 C 93.34 148.01 101.92 139.47 116.83 120.97 M 84.82 169.99 C 96.37 157 109.51 141.81 127.46 120.93 M 84.82 169.99 C 93.13 159.03 102.8 148.07 127.46 120.93 M 84.95 182.03 C 95.54 167.09 110.61 152.83 138.09 120.9 M 84.95 182.03 C 97.2 166.57 109.7 151.62 138.09 120.9 M 85.08 194.07 C 106.17 168.8 126.99 145.8 148.72 120.86 M 85.08 194.07 C 103.27 173.88 121.34 153.45 148.72 120.86 M 85.22 206.11 C 102.54 183.78 124.02 162.42 159.35 120.83 M 85.22 206.11 C 113.48 174.87 141.83 141.81 159.35 120.83 M 84.69 218.91 C 116.24 182.09 150.85 143.4 169.98 120.79 M 84.69 218.91 C 116.74 182.24 147.69 144.55 169.98 120.79 M 84.83 230.95 C 111.4 198.24 138.53 165.37 180.61 120.76 M 84.83 230.95 C 120.66 191.27 153.73 151.88 180.61 120.76 M 84.96 242.99 C 121.5 202.68 153.61 161.49 191.24 120.73 M 84.96 242.99 C 126.57 195.17 168.58 147.71 191.24 120.73 M 87.06 252.76 C 119.32 217.62 151.33 178.87 201.87 120.69 M 87.06 252.76 C 129.98 203.02 173.98 153.54 201.87 120.69 M 97.69 252.73 C 130.31 213.21 163.63 175.19 212.5 120.66 M 97.69 252.73 C 134.97 208.22 173.35 166.33 212.5 120.66 M 108.32 252.7 C 153.73 205.04 195.61 155.54 222.47 121.38 M 108.32 252.7 C 141.93 213.58 176.73 172.9 222.47 121.38 M 118.95 252.66 C 158.35 207.14 199.78 161.54 233.1 121.34 M 118.95 252.66 C 148.31 217.62 177.6 183.43 233.1 121.34 M 129.58 252.63 C 166.64 211.91 203.19 167.44 240.45 125.08 M 129.58 252.63 C 168.37 208.18 204.48 166.09 240.45 125.08 M 140.21 252.59 C 165.71 224.08 189.51 198.84 239.93 137.88 M 140.21 252.59 C 176.15 213.39 210.53 172.08 239.93 137.88 M 150.84 252.56 C 179.49 221.67 207.88 184.55 240.06 149.92 M 150.84 252.56 C 181.27 218.43 209.54 184.85 240.06 149.92 M 161.47 252.52 C 185.02 227.55 202.89 204.58 240.2 161.96 M 161.47 252.52 C 184.36 224.73 208.13 197.89 240.2 161.96 M 172.1 252.49 C 194.24 226.64 213.22 202.15 240.33 174 M 172.1 252.49 C 190.03 231.86 207.02 211.65 240.33 174 M 182.73 252.45 C 204.94 228.11 225.94 202.65 239.81 186.79 M 182.73 252.45 C 197.39 236.76 209.13 221.99 239.81 186.79 M 193.36 252.42 C 206.31 234.8 219.58 220.53 239.94 198.84 M 193.36 252.42 C 210.14 232.73 228.7 211.6 239.94 198.84 M 203.33 253.14 C 211.32 242.45 223.77 229.49 240.07 210.88 M 203.33 253.14 C 212.11 244.41 220.17 234.68 240.07 210.88 M 213.96 253.11 C 219.33 244.62 226.54 238.98 240.21 222.92 M 213.96 253.11 C 219.22 246.09 225.41 239.47 240.21 222.92 M 224.59 253.07 C 229.88 247.67 232.1 242.6 240.34 234.96 M 224.59 253.07 C 227.28 248.5 232.52 244.47 240.34 234.96" fill="none" stroke="#c2bee6" stroke-linejoin="round" stroke-linecap="round" stroke-miterlimit="10" pointer-events="all"/><path d="M 85 121 C 127.62 122.89 166.9 122.66 235 121 M 85 121 C 141.91 121.81 199.32 120.94 235 121 M 235 121 C 234.53 164.52 235.17 207.87 235 251 M 235 121 C 235.2 153.63 234.43 185.8 235 251 M 235 251 C 197.56 252.12 156.28 253.31 85 251 M 235 251 C 183.5 250.71 129.81 249.97 85 251 M 85 251 C 84.07 216.66 85.13 185.14 85 121 M 85 251 C 85.56 221.96 84.84 191.57 85 121" fill="none" stroke="#324ab2" stroke-width="2" stroke-linejoin="round" stroke-linecap="round" stroke-miterlimit="10" pointer-events="all"/><rect x="85" y="141" width="150" height="30" fill="none" stroke="none" pointer-events="all"/><path d="M 83.38 140.27 L 234.58 142.03 L 233.53 170.42 L 85.32 169.33" fill="#ffffff" stroke="none" pointer-events="all"/><path d="M 85 141 C 126.48 143.05 168.58 143.02 235 141 M 85 141 C 123.9 141.12 161.69 141.47 235 141 M 235 141 C 233.55 150.58 233.05 164.48 235 171 M 235 141 C 234.73 147.38 234.85 155.32 235 171 M 235 171 C 202.72 170.52 169.19 169.21 85 171 M 235 171 C 176.6 171.15 117.8 171.29 85 171 M 85 171 C 85.73 157.86 83.33 145.37 85 141 M 85 171 C 85.46 159.98 84.9 147.53 85 141" fill="none" stroke="#324ab2" stroke-width="2" stroke-linejoin="round" stroke-linecap="round" stroke-miterlimit="10" pointer-events="all"/><g fill="#324AB2" font-family="Ink Free" font-weight="bold" text-anchor="middle" font-size="17px"><text x="159.5" y="160.5">Proceso 2</text></g><rect x="85" y="251" width="150" height="80" fill="none" stroke="none" pointer-events="all"/><path d="M 85 251 C 125.34 250.21 166.26 250.38 235 251 M 85 251 C 133.9 250.42 184.06 250 235 251 M 235 251 C 234.01 267.9 236.38 281.62 235 331 M 235 251 C 236.06 266.57 235.08 283.71 235 331 M 235 331 C 177.88 331.93 122.11 328.11 85 331 M 235 331 C 199.71 331.59 165.79 330.62 85 331 M 85 331 C 84.32 302.83 86.45 277.14 85 251 M 85 331 C 84.75 304.88 86.36 279.25 85 251" fill="none" stroke="#324ab2" stroke-width="2" stroke-linejoin="round" stroke-linecap="round" stroke-miterlimit="10" pointer-events="all"/><g fill="#324AB2" font-family="Ink Free" font-weight="bold" text-anchor="middle" font-size="17px"><text x="159.5" y="285.5">Sistema operativo</text><text x="159.5" y="305.5">(Núcleo)</text></g><rect x="85" y="192" width="150" height="27.5" fill="none" stroke="none" pointer-events="all"/><path d="M 86.43 191.73 L 234.81 192.45 L 233.18 219.98 L 84.51 217.8" fill="#ffffff" stroke="none" pointer-events="all"/><path d="M 85 192 C 124.19 191.37 167.94 191.74 235 192 M 85 192 C 145.89 193.73 204.43 192.53 235 192 M 235 192 C 236.95 197.44 234.18 204.19 235 219.5 M 235 192 C 235.28 201.49 235.2 212.56 235 219.5 M 235 219.5 C 183.05 217.83 131.02 219.51 85 219.5 M 235 219.5 C 194.81 220.53 153.79 220.45 85 219.5 M 85 219.5 C 83.16 210.57 85.81 205.95 85 192 M 85 219.5 C 84.78 211.93 84.56 204.77 85 192" fill="none" stroke="#324ab2" stroke-width="2" stroke-linejoin="round" stroke-linecap="round" stroke-miterlimit="10" pointer-events="all"/><g fill="#324AB2" font-family="Ink Free" font-weight="bold" text-anchor="middle" font-size="17px"><text x="159.5" y="210.25">Proceso 1</text></g><rect x="85" y="351" width="150" height="50" fill="none" stroke="none" transform="translate(160,0)scale(-1,1)translate(-160,0)" pointer-events="all"/><g fill="#324AB2" font-family="Ink Free" font-weight="bold" text-anchor="middle" font-size="17px"><text x="159.5" y="380.5">Memoria física</text></g></g></svg>