<?xml version="1.0" encoding="UTF-8" standalone="no"?>
<svg
   version="1.2"
   width="596.81848"
   height="851.46063"
   viewBox="0 0 16843.544 24030.111"
   preserveAspectRatio="xMidYMid"
   clip-path="url(#presentation_clip_path)"
   xml:space="preserve"
   id="svg2"
   inkscape:version="1.2 (dc2aedaf03, 2022-05-15)"
   sodipodi:docname="etapas_de_un_programa_de_usuario.svg"
   style="fill-rule:evenodd;stroke-width:28.22200012;stroke-linejoin:round"
   xmlns:inkscape="http://www.inkscape.org/namespaces/inkscape"
   xmlns:sodipodi="http://sodipodi.sourceforge.net/DTD/sodipodi-0.dtd"
   xmlns="http://www.w3.org/2000/svg"
   xmlns:svg="http://www.w3.org/2000/svg"
   xmlns:rdf="http://www.w3.org/1999/02/22-rdf-syntax-ns#"
   xmlns:cc="http://creativecommons.org/ns#"
   xmlns:dc="http://purl.org/dc/elements/1.1/"
   xmlns:ooo="http://xml.openoffice.org/svg/export"><metadata
     id="metadata457"><rdf:RDF><cc:Work
         rdf:about=""><dc:format>image/svg+xml</dc:format><dc:type
           rdf:resource="http://purl.org/dc/dcmitype/StillImage" /></cc:Work></rdf:RDF></metadata><sodipodi:namedview
     pagecolor="#ffffff"
     bordercolor="#666666"
     borderopacity="1"
     objecttolerance="10"
     gridtolerance="10"
     guidetolerance="10"
     inkscape:pageopacity="0"
     inkscape:pageshadow="2"
     inkscape:window-width="683"
     inkscape:window-height="480"
     id="namedview455"
     showgrid="false"
     fit-margin-top="0"
     fit-margin-left="0"
     fit-margin-right="0"
     fit-margin-bottom="0"
     inkscape:zoom="0.20813889"
     inkscape:cx="720.67262"
     inkscape:cy="343.52062"
     inkscape:window-x="0"
     inkscape:window-y="0"
     inkscape:window-maximized="0"
     inkscape:current-layer="svg2"
     inkscape:showpageshadow="0"
     inkscape:pagecheckerboard="0"
     inkscape:deskcolor="#d1d1d1" /><defs
     class="ClipPathGroup"
     id="defs4"><clipPath
       id="presentation_clip_path"
       clipPathUnits="userSpaceOnUse"><rect
         x="0"
         y="0"
         width="45000"
         height="32000"
         id="rect7" /></clipPath></defs><defs
     class="TextShapeIndex"
     id="defs9"><g
       ooo:slide="id1"
       ooo:id-list="id3 id4 id5 id6 id7 id8 id9 id10 id11 id12 id13 id14 id15 id16 id17 id18 id19 id20 id21 id22 id23 id24 id25 id26 id27 id28 id29"
       id="g11" /></defs><defs
     class="EmbeddedBulletChars"
     id="defs13"><g
       id="bullet-char-template(57356)"
       transform="scale(4.8828125e-4,-4.8828125e-4)"><path
         d="M 580,1141 1163,571 580,0 -4,571 580,1141 z"
         id="path16"
         inkscape:connector-curvature="0" /></g><g
       id="bullet-char-template(57354)"
       transform="scale(4.8828125e-4,-4.8828125e-4)"><path
         d="m 8,1128 1129,0 L 1137,0 8,0 8,1128 z"
         id="path19"
         inkscape:connector-curvature="0" /></g><g
       id="bullet-char-template(10146)"
       transform="scale(4.8828125e-4,-4.8828125e-4)"><path
         d="M 174,0 602,739 174,1481 1456,739 174,0 z m 1184,739 -1049,607 350,-607 699,0 z"
         id="path22"
         inkscape:connector-curvature="0" /></g><g
       id="bullet-char-template(10132)"
       transform="scale(4.8828125e-4,-4.8828125e-4)"><path
         d="M 2015,739 1276,0 717,0 l 543,543 -1086,0 0,393 1086,0 -543,545 557,0 741,-742 z"
         id="path25"
         inkscape:connector-curvature="0" /></g><g
       id="bullet-char-template(10007)"
       transform="scale(4.8828125e-4,-4.8828125e-4)"><path
         d="m 0,-2 c -7,16 -16,29 -25,39 l 381,530 c -94,256 -141,385 -141,387 0,25 13,38 40,38 9,0 21,-2 34,-5 21,4 42,12 65,25 l 27,-13 111,-251 280,301 64,-25 24,25 c 21,-10 41,-24 62,-43 C 886,937 835,863 770,784 769,783 710,716 594,584 L 774,223 c 0,-27 -21,-55 -63,-84 l 16,-20 C 717,90 699,76 672,76 641,76 570,178 457,381 L 164,-76 c -22,-34 -53,-51 -92,-51 -42,0 -63,17 -64,51 -7,9 -10,24 -10,44 0,9 1,19 2,30 z"
         id="path28"
         inkscape:connector-curvature="0" /></g><g
       id="bullet-char-template(10004)"
       transform="scale(4.8828125e-4,-4.8828125e-4)"><path
         d="M 285,-33 C 182,-33 111,30 74,156 52,228 41,333 41,471 c 0,78 14,145 41,201 34,71 87,106 158,106 53,0 88,-31 106,-94 l 23,-176 c 8,-64 28,-97 59,-98 l 735,706 c 11,11 33,17 66,17 42,0 63,-15 63,-46 l 0,-122 c 0,-36 -10,-64 -30,-84 L 442,47 C 390,-6 338,-33 285,-33 z"
         id="path31"
         inkscape:connector-curvature="0" /></g><g
       id="bullet-char-template(9679)"
       transform="scale(4.8828125e-4,-4.8828125e-4)"><path
         d="M 813,0 C 632,0 489,54 383,161 276,268 223,411 223,592 c 0,181 53,324 160,431 106,107 249,161 430,161 179,0 323,-54 432,-161 108,-107 162,-251 162,-431 0,-180 -54,-324 -162,-431 C 1136,54 992,0 813,0 z"
         id="path34"
         inkscape:connector-curvature="0" /></g><g
       id="bullet-char-template(8226)"
       transform="scale(4.8828125e-4,-4.8828125e-4)"><path
         d="m 346,457 c -73,0 -137,26 -191,78 -54,51 -81,114 -81,188 0,73 27,136 81,188 54,52 118,78 191,78 73,0 134,-26 185,-79 51,-51 77,-114 77,-187 0,-75 -25,-137 -76,-188 -50,-52 -112,-78 -186,-78 z"
         id="path37"
         inkscape:connector-curvature="0" /></g><g
       id="bullet-char-template(8211)"
       transform="scale(4.8828125e-4,-4.8828125e-4)"><path
         d="m -4,459 1139,0 0,147 -1139,0 0,-147 z"
         id="path40"
         inkscape:connector-curvature="0" /></g></defs><defs
     class="TextEmbeddedBitmaps"
     id="defs42" /><g
     id="g44"
     transform="translate(-2120,-1620.0004)"><g
       id="id2"
       class="Master_Slide"><g
         id="bg-id2"
         class="Background" /><g
         id="bo-id2"
         class="BackgroundObjects" /></g></g><g
     class="SlideGroup"
     id="g49"
     transform="translate(-2120,-1620.0004)"><g
       id="g51"><g
         id="id1"
         class="Slide"
         clip-path="url(#presentation_clip_path)"><g
           class="Page"
           id="g54"><g
             class="com.sun.star.drawing.LineShape"
             id="g56"><g
               id="id3"><path
                 d="m 4635,21135 4570,2742"
                 id="path59"
                 inkscape:connector-curvature="0"
                 style="fill:none;stroke:#000000" /><path
                 d="m 9635,24135 -360,-420 -180,300 540,120 z"
                 id="path61"
                 inkscape:connector-curvature="0"
                 style="fill:#000000;stroke:none" /></g></g><g
             class="com.sun.star.drawing.LineShape"
             id="g63"><g
               id="id4"><path
                 d="m 4635,21135 4501,-450"
                 id="path66"
                 inkscape:connector-curvature="0"
                 style="fill:none;stroke:#000000" /><path
                 d="m 9635,20635 -540,-122 35,348 505,-226 z"
                 id="path68"
                 inkscape:connector-curvature="0"
                 style="fill:#000000;stroke:none" /></g></g><g
             class="com.sun.star.drawing.EllipseShape"
             id="g70"><g
               id="id5"><path
   d="m 11635,4635 c -276,0 -511,-63 -750,-201 -239,-138 -411,-310 -549,-549 -138,-239 -201,-474 -201,-750 0,-276 63,-511 201,-750 138,-239 310,-411 549,-549 239,-138 474,-201 750,-201 276,0 511,63 750,201 239,138 411,310 549,549 138,239 201,474 201,750 0,276 -63,511 -201,750 -138,239 -310,411 -549,549 -239,138 -474,201 -750,201 l 0,0 z"
   id="path73"
   inkscape:connector-curvature="0"
   style="fill:#ffcc99;stroke:none" /><path
   d="m 11635,4635 c -276,0 -511,-63 -750,-201 -239,-138 -411,-310 -549,-549 -138,-239 -201,-474 -201,-750 0,-276 63,-511 201,-750 138,-239 310,-411 549,-549 239,-138 474,-201 750,-201 276,0 511,63 750,201 239,138 411,310 549,549 138,239 201,474 201,750 0,276 -63,511 -201,750 -138,239 -310,411 -549,549 -239,138 -474,201 -750,201 l 0,0 z"
   id="path75"
   inkscape:connector-curvature="0"
   style="fill:none;stroke:#000000;stroke-width:30" /><text
   class="TextShape"
   id="text77"
   style="line-height:0%"><tspan
     class="TextParagraph"
     font-size="494px"
     font-weight="400"
     id="tspan79"
     style="font-weight:400;font-size:494px;font-family:'\'Liberation Sans', 'sans-serif\''"><tspan
       class="TextPosition"
       x="10904"
       y="3029"
       id="tspan81"><tspan
         id="tspan83"
         style="fill:#000000;stroke:none">código</tspan></tspan></tspan><tspan
     class="TextParagraph"
     font-size="494px"
     font-weight="400"
     id="tspan85"
     style="font-weight:400;font-size:494px;font-family:'\'Liberation Sans', 'sans-serif\''"><tspan
       class="TextPosition"
       x="10945"
       y="3584"
       id="tspan87"><tspan
         id="tspan89"
         style="fill:#000000;stroke:none">fuente</tspan></tspan></tspan></text>
</g></g><g
             class="com.sun.star.drawing.EllipseShape"
             id="g91"><g
               id="id6"><path
   d="m 11635,18635 c -276,0 -511,-63 -750,-201 -239,-138 -411,-310 -549,-549 -138,-239 -201,-474 -201,-750 0,-276 63,-511 201,-750 138,-239 310,-411 549,-549 239,-138 474,-201 750,-201 276,0 511,63 750,201 239,138 411,310 549,549 138,239 201,474 201,750 0,276 -63,511 -201,750 -138,239 -310,411 -549,549 -239,138 -474,201 -750,201 l 0,0 z"
   id="path94"
   inkscape:connector-curvature="0"
   style="fill:#ffcc99;stroke:none" /><path
   d="m 11635,18635 c -276,0 -511,-63 -750,-201 -239,-138 -411,-310 -549,-549 -138,-239 -201,-474 -201,-750 0,-276 63,-511 201,-750 138,-239 310,-411 549,-549 239,-138 474,-201 750,-201 276,0 511,63 750,201 239,138 411,310 549,549 138,239 201,474 201,750 0,276 -63,511 -201,750 -138,239 -310,411 -549,549 -239,138 -474,201 -750,201 l 0,0 z"
   id="path96"
   inkscape:connector-curvature="0"
   style="fill:none;stroke:#000000;stroke-width:30" /><text
   class="TextShape"
   id="text98"
   style="line-height:0%"><tspan
     class="TextParagraph"
     font-size="494px"
     font-weight="400"
     id="tspan100"
     style="font-weight:400;font-size:494px;font-family:'\'Liberation Sans', 'sans-serif\''"><tspan
       class="TextPosition"
       x="10824"
       y="17029"
       id="tspan102"><tspan
         id="tspan104"
         style="fill:#000000;stroke:none">modulo</tspan></tspan></tspan><tspan
     class="TextParagraph"
     font-size="494px"
     font-weight="400"
     id="tspan106"
     style="font-weight:400;font-size:494px;font-family:'\'Liberation Sans', 'sans-serif\''"><tspan
       class="TextPosition"
       x="10504"
       y="17584"
       id="tspan108"><tspan
         id="tspan110"
         style="fill:#000000;stroke:none">ejecutable</tspan></tspan></tspan></text>
</g></g><g
             class="com.sun.star.drawing.EllipseShape"
             id="g112"><g
               id="id7"><path
   d="m 5635,15135 c -276,0 -511,-63 -750,-201 -239,-138 -411,-310 -549,-549 -138,-239 -201,-474 -201,-750 0,-276 63,-511 201,-750 138,-239 310,-411 549,-549 239,-138 474,-201 750,-201 276,0 511,63 750,201 239,138 411,310 549,549 138,239 201,474 201,750 0,276 -63,511 -201,750 -138,239 -310,411 -549,549 -239,138 -474,201 -750,201 l 0,0 z"
   id="path115"
   inkscape:connector-curvature="0"
   style="fill:#ffff99;stroke:none" /><path
   d="m 5635,15135 c -276,0 -511,-63 -750,-201 -239,-138 -411,-310 -549,-549 -138,-239 -201,-474 -201,-750 0,-276 63,-511 201,-750 138,-239 310,-411 549,-549 239,-138 474,-201 750,-201 276,0 511,63 750,201 239,138 411,310 549,549 138,239 201,474 201,750 0,276 -63,511 -201,750 -138,239 -310,411 -549,549 -239,138 -474,201 -750,201 l 0,0 z"
   id="path117"
   inkscape:connector-curvature="0"
   style="fill:none;stroke:#000000;stroke-width:30" /><text
   class="TextShape"
   id="text119"
   style="line-height:0%"><tspan
     class="TextParagraph"
     font-size="494px"
     font-weight="400"
     id="tspan121"
     style="font-weight:400;font-size:494px;font-family:'\'Liberation Sans', 'sans-serif\''"><tspan
       class="TextPosition"
       x="5082"
       y="13252"
       id="tspan123"><tspan
         id="tspan125"
         style="fill:#000000;stroke:none">otros</tspan></tspan></tspan><tspan
     class="TextParagraph"
     font-size="494px"
     font-weight="400"
     id="tspan127"
     style="font-weight:400;font-size:494px;font-family:'\'Liberation Sans', 'sans-serif\''"><tspan
       class="TextPosition"
       x="4699"
       y="13807"
       id="tspan129"><tspan
         id="tspan131"
         style="fill:#000000;stroke:none">módulos</tspan></tspan></tspan><tspan
     class="TextParagraph"
     font-size="494px"
     font-weight="400"
     id="tspan133"
     style="font-weight:400;font-size:494px;font-family:'\'Liberation Sans', 'sans-serif\''"><tspan
       class="TextPosition"
       x="4960"
       y="14362"
       id="tspan135"><tspan
         id="tspan137"
         style="fill:#000000;stroke:none">objeto</tspan></tspan></tspan></text>
</g></g><g
             class="com.sun.star.drawing.EllipseShape"
             id="g139"><g
               id="id8"><path
   d="m 11635,11635 c -276,0 -511,-63 -750,-201 -239,-138 -411,-310 -549,-549 -138,-239 -201,-474 -201,-750 0,-276 63,-511 201,-750 138,-239 310,-411 549,-549 239,-138 474,-201 750,-201 276,0 511,63 750,201 239,138 411,310 549,549 138,239 201,474 201,750 0,276 -63,511 -201,750 -138,239 -310,411 -549,549 -239,138 -474,201 -750,201 l 0,0 z"
   id="path142"
   inkscape:connector-curvature="0"
   style="fill:#ffcc99;stroke:none" /><path
   d="m 11635,11635 c -276,0 -511,-63 -750,-201 -239,-138 -411,-310 -549,-549 -138,-239 -201,-474 -201,-750 0,-276 63,-511 201,-750 138,-239 310,-411 549,-549 239,-138 474,-201 750,-201 276,0 511,63 750,201 239,138 411,310 549,549 138,239 201,474 201,750 0,276 -63,511 -201,750 -138,239 -310,411 -549,549 -239,138 -474,201 -750,201 l 0,0 z"
   id="path144"
   inkscape:connector-curvature="0"
   style="fill:none;stroke:#000000;stroke-width:30" /><text
   class="TextShape"
   id="text146"
   style="line-height:0%"><tspan
     class="TextParagraph"
     font-size="494px"
     font-weight="400"
     id="tspan148"
     style="font-weight:400;font-size:494px;font-family:'\'Liberation Sans', 'sans-serif\''"><tspan
       class="TextPosition"
       x="10824"
       y="10029"
       id="tspan150"><tspan
         id="tspan152"
         style="fill:#000000;stroke:none">código</tspan></tspan></tspan><tspan
     class="TextParagraph"
     font-size="494px"
     font-weight="400"
     id="tspan154"
     style="font-weight:400;font-size:494px;font-family:'\'Liberation Sans', 'sans-serif\''"><tspan
       class="TextPosition"
       x="10960"
       y="10584"
       id="tspan156"><tspan
         id="tspan158"
         style="fill:#000000;stroke:none">objeto</tspan></tspan></tspan></text>
</g></g><g
             class="com.sun.star.drawing.EllipseShape"
             id="g160"><g
               id="id9"><path
   d="m 4635,23635 c -460,0 -851,-105 -1250,-335 -399,-230 -685,-516 -915,-915 -230,-399 -335,-790 -335,-1250 0,-460 105,-851 335,-1250 230,-399 516,-685 915,-915 399,-230 790,-335 1250,-335 460,0 851,105 1250,335 399,230 685,516 915,915 230,399 335,790 335,1250 0,460 -105,851 -335,1250 -230,399 -516,685 -915,915 -399,230 -790,335 -1250,335 l 0,0 z"
   id="path163"
   inkscape:connector-curvature="0"
   style="fill:#ffff99;stroke:none" /><path
   d="m 4635,23635 c -460,0 -851,-105 -1250,-335 -399,-230 -685,-516 -915,-915 -230,-399 -335,-790 -335,-1250 0,-460 105,-851 335,-1250 230,-399 516,-685 915,-915 399,-230 790,-335 1250,-335 460,0 851,105 1250,335 399,230 685,516 915,915 230,399 335,790 335,1250 0,460 -105,851 -335,1250 -230,399 -516,685 -915,915 -399,230 -790,335 -1250,335 l 0,0 z"
   id="path165"
   inkscape:connector-curvature="0"
   style="fill:none;stroke:#000000;stroke-width:30" /><text
   class="TextShape"
   id="text167"
   style="line-height:0%"><tspan
     class="TextParagraph"
     font-size="494px"
     font-weight="400"
     id="tspan169"
     style="font-weight:400;font-size:494px;font-family:'\'Liberation Sans', 'sans-serif\''"><tspan
       class="TextPosition"
       x="3477"
       y="20474"
       id="tspan171"><tspan
         id="tspan173"
         style="fill:#000000;stroke:none">librería del</tspan></tspan></tspan><tspan
     class="TextParagraph"
     font-size="494px"
     font-weight="400"
     id="tspan175"
     style="font-weight:400;font-size:494px;font-family:'\'Liberation Sans', 'sans-serif\''"><tspan
       class="TextPosition"
       x="2963"
       y="21029"
       id="tspan177"><tspan
         id="tspan179"
         style="fill:#000000;stroke:none">sistema y otras</tspan></tspan></tspan><tspan
     class="TextParagraph"
     font-size="494px"
     font-weight="400"
     id="tspan181"
     style="font-weight:400;font-size:494px;font-family:'\'Liberation Sans', 'sans-serif\''"><tspan
       class="TextPosition"
       x="2607"
       y="21584"
       id="tspan183"><tspan
         id="tspan185"
         style="fill:#000000;stroke:none">librerías de enlace</tspan></tspan></tspan><tspan
     class="TextParagraph"
     font-size="494px"
     font-weight="400"
     id="tspan187"
     style="font-weight:400;font-size:494px;font-family:'\'Liberation Sans', 'sans-serif\''"><tspan
       class="TextPosition"
       x="3645"
       y="22139"
       id="tspan189"><tspan
         id="tspan191"
         style="fill:#000000;stroke:none">dinámico</tspan></tspan></tspan></text>
</g></g><g
             class="com.sun.star.drawing.CustomShape"
             id="g193"><g
               id="id10"><path
                 d="m 14635,5135 c 250,0 500,186 500,372 l 0,4174 c 0,187 250,373 501,373 -251,0 -501,187 -501,373 l 0,3836 c 0,186 -250,373 -500,373"
                 id="path196"
                 inkscape:connector-curvature="0"
                 style="fill:none;stroke:#000000" /><path
                 d="m 14635,5135 0,0 z"
                 id="path198"
                 inkscape:connector-curvature="0"
                 style="fill:none;stroke:#000000" /><path
                 d="m 15636,14636 0,0 z"
                 id="path200"
                 inkscape:connector-curvature="0"
                 style="fill:none;stroke:#000000" /></g></g><g
             class="com.sun.star.drawing.CustomShape"
             id="g202"><g
               id="id11"><path
                 d="m 14635,22635 c 250,0 500,197 500,395 l 0,709 c 0,198 250,396 501,396 -251,0 -501,198 -501,396 l 0,709 c 0,198 -250,396 -500,396"
                 id="path205"
                 inkscape:connector-curvature="0"
                 style="fill:none;stroke:#000000" /><path
                 d="m 14635,22635 0,0 z"
                 id="path207"
                 inkscape:connector-curvature="0"
                 style="fill:none;stroke:#000000" /><path
                 d="m 15636,25636 0,0 z"
                 id="path209"
                 inkscape:connector-curvature="0"
                 style="fill:none;stroke:#000000" /></g></g><g
             class="com.sun.star.drawing.CustomShape"
             id="g211"><g
               id="id12"><path
                 d="m 14635,15635 c 250,0 500,184 500,369 l 0,2195 c 0,185 250,370 501,370 -251,0 -501,185 -501,370 l 0,2327 c 0,185 -250,370 -500,370"
                 id="path214"
                 inkscape:connector-curvature="0"
                 style="fill:none;stroke:#000000" /><path
                 d="m 14635,15635 0,0 z"
                 id="path216"
                 inkscape:connector-curvature="0"
                 style="fill:none;stroke:#000000" /><path
                 d="m 15636,21636 0,0 z"
                 id="path218"
                 inkscape:connector-curvature="0"
                 style="fill:none;stroke:#000000" /></g></g><g
             class="com.sun.star.drawing.ConnectorShape"
             id="g220"><g
               id="id13"><path
                 d="m 11635,4635 0,498"
                 id="path223"
                 inkscape:connector-curvature="0"
                 style="fill:none;stroke:#000000" /><path
                 d="m 11635,5635 175,-525 -350,0 175,525 z"
                 id="path225"
                 inkscape:connector-curvature="0"
                 style="fill:#000000;stroke:none" /></g></g><g
             class="com.sun.star.drawing.ConnectorShape"
             id="g227"><g
               id="id14"><path
                 d="m 11635,7635 0,498"
                 id="path230"
                 inkscape:connector-curvature="0"
                 style="fill:none;stroke:#000000" /><path
                 d="m 11635,8635 175,-525 -350,0 175,525 z"
                 id="path232"
                 inkscape:connector-curvature="0"
                 style="fill:#000000;stroke:none" /></g></g><g
             class="com.sun.star.drawing.ConnectorShape"
             id="g234"><g
               id="id15"><path
                 d="m 11635,11635 0,498"
                 id="path237"
                 inkscape:connector-curvature="0"
                 style="fill:none;stroke:#000000" /><path
                 d="m 11635,12635 175,-525 -350,0 175,525 z"
                 id="path239"
                 inkscape:connector-curvature="0"
                 style="fill:#000000;stroke:none" /></g></g><g
             class="com.sun.star.drawing.ConnectorShape"
             id="g241"><g
               id="id16"><path
                 d="m 11635,14635 0,498"
                 id="path244"
                 inkscape:connector-curvature="0"
                 style="fill:none;stroke:#000000" /><path
                 d="m 11635,15635 175,-525 -350,0 175,525 z"
                 id="path246"
                 inkscape:connector-curvature="0"
                 style="fill:#000000;stroke:none" /></g></g><g
             class="com.sun.star.drawing.ConnectorShape"
             id="g248"><g
               id="id17"><path
                 d="m 11635,18635 0,498"
                 id="path251"
                 inkscape:connector-curvature="0"
                 style="fill:none;stroke:#000000" /><path
                 d="m 11635,19635 175,-525 -350,0 175,525 z"
                 id="path253"
                 inkscape:connector-curvature="0"
                 style="fill:#000000;stroke:none" /></g></g><g
             class="com.sun.star.drawing.ConnectorShape"
             id="g255"><g
               id="id18"><path
                 d="m 11635,21635 0,498"
                 id="path258"
                 inkscape:connector-curvature="0"
                 style="fill:none;stroke:#000000" /><path
                 d="m 11635,22635 175,-525 -350,0 175,525 z"
                 id="path260"
                 inkscape:connector-curvature="0"
                 style="fill:#000000;stroke:none" /></g></g><g
             class="com.sun.star.drawing.LineShape"
             id="g262"><g
               id="id19"><path
                 d="m 7135,13635 1998,0"
                 id="path265"
                 inkscape:connector-curvature="0"
                 style="fill:none;stroke:#000000" /><path
                 d="m 9635,13635 -525,-175 0,350 525,-175 z"
                 id="path267"
                 inkscape:connector-curvature="0"
                 style="fill:#000000;stroke:none" /></g></g><g
             class="com.sun.star.drawing.TextShape"
             id="g269"><g
               id="id20"><text
   class="TextShape"
   id="text272"
   style="line-height:0%"><tspan
     class="TextParagraph"
     font-size="494px"
     font-weight="400"
     id="tspan274"
     style="font-weight:400;font-size:494px;font-family:'\'Liberation Sans', 'sans-serif\''"><tspan
       class="TextPosition"
       x="7385"
       y="19779"
       id="tspan276"><tspan
         id="tspan278"
         style="fill:#000000;stroke:none">enlazado</tspan></tspan></tspan><tspan
     class="TextParagraph"
     font-size="494px"
     font-weight="400"
     id="tspan280"
     style="font-weight:400;font-size:494px;font-family:'\'Liberation Sans', 'sans-serif\''"><tspan
       class="TextPosition"
       x="7385"
       y="20334"
       id="tspan282"><tspan
         id="tspan284"
         style="fill:#000000;stroke:none">dinámico</tspan></tspan></tspan></text>
</g></g><g
             class="com.sun.star.drawing.TextShape"
             id="g286"><g
               id="id21"><text
   class="TextShape"
   id="text289"
   style="line-height:0%"><tspan
     class="TextParagraph"
     font-size="494px"
     font-weight="400"
     id="tspan291"
     style="font-weight:400;font-size:494px;font-family:'\'Liberation Sans', 'sans-serif\''"><tspan
       class="TextPosition"
       x="16385"
       y="9779"
       id="tspan293"><tspan
         id="tspan295"
         style="fill:#000000;stroke:none">tiempo de</tspan></tspan></tspan><tspan
     class="TextParagraph"
     font-size="494px"
     font-weight="400"
     id="tspan297"
     style="font-weight:400;font-size:494px;font-family:'\'Liberation Sans', 'sans-serif\''"><tspan
       class="TextPosition"
       x="16385"
       y="10334"
       id="tspan299"><tspan
         id="tspan301"
         style="fill:#000000;stroke:none">compilación</tspan></tspan></tspan></text>
</g></g><g
             class="com.sun.star.drawing.TextShape"
             id="g303"><g
               id="id22"><text
   class="TextShape"
   id="text306"
   style="line-height:0%"><tspan
     class="TextParagraph"
     font-size="494px"
     font-weight="400"
     id="tspan308"
     style="font-weight:400;font-size:494px;font-family:'\'Liberation Sans', 'sans-serif\''"><tspan
       class="TextPosition"
       x="16461"
       y="18529"
       id="tspan310"><tspan
         id="tspan312"
         style="fill:#000000;stroke:none">tiempo</tspan></tspan></tspan><tspan
     class="TextParagraph"
     font-size="494px"
     font-weight="400"
     id="tspan314"
     style="font-weight:400;font-size:494px;font-family:'\'Liberation Sans', 'sans-serif\''"><tspan
       class="TextPosition"
       x="16461"
       y="19084"
       id="tspan316"><tspan
         id="tspan318"
         style="fill:#000000;stroke:none">de carga</tspan></tspan></tspan></text>
</g></g><g
             class="com.sun.star.drawing.TextShape"
             id="g320"><g
               id="id23"><text
   class="TextShape"
   id="text323"
   style="line-height:0%"><tspan
     class="TextParagraph"
     font-size="494px"
     font-weight="400"
     id="tspan325"
     style="font-weight:400;font-size:494px;font-family:'\'Liberation Sans', 'sans-serif\''"><tspan
       class="TextPosition"
       x="16385"
       y="24029"
       id="tspan327"><tspan
         id="tspan329"
         style="fill:#000000;stroke:none">tiempo de</tspan></tspan></tspan><tspan
     class="TextParagraph"
     font-size="494px"
     font-weight="400"
     id="tspan331"
     style="font-weight:400;font-size:494px;font-family:'\'Liberation Sans', 'sans-serif\''"><tspan
       class="TextPosition"
       x="16385"
       y="24584"
       id="tspan333"><tspan
         id="tspan335"
         style="fill:#000000;stroke:none">ejecución</tspan></tspan></tspan></text>
</g></g><g
             class="com.sun.star.drawing.TextShape"
             id="g337"><g
               id="id24"><text
   class="TextShape"
   id="text340"
   style="line-height:0%"><tspan
     class="TextParagraph"
     font-size="494px"
     font-weight="400"
     id="tspan342"
     style="font-weight:400;font-size:494px;font-family:'\'Liberation Sans', 'sans-serif\''"><tspan
       class="TextPosition"
       x="5885"
       y="23752"
       id="tspan344"><tspan
         id="tspan346"
         style="fill:#000000;stroke:none">enlazado</tspan></tspan></tspan><tspan
     class="TextParagraph"
     font-size="494px"
     font-weight="400"
     id="tspan348"
     style="font-weight:400;font-size:494px;font-family:'\'Liberation Sans', 'sans-serif\''"><tspan
       class="TextPosition"
       x="5885"
       y="24307"
       id="tspan350"><tspan
         id="tspan352"
         style="fill:#000000;stroke:none">dinámico con</tspan></tspan></tspan><tspan
     class="TextParagraph"
     font-size="494px"
     font-weight="400"
     id="tspan354"
     style="font-weight:400;font-size:494px;font-family:'\'Liberation Sans', 'sans-serif\''"><tspan
       class="TextPosition"
       x="5885"
       y="24862"
       id="tspan356"><tspan
         id="tspan358"
         style="fill:#000000;stroke:none">carga diferida</tspan></tspan></tspan></text>
</g></g><g
             class="com.sun.star.drawing.TextShape"
             id="g360"><g
               id="id25"><text
   class="TextShape"
   id="text363"
   style="line-height:0%"><tspan
     class="TextParagraph"
     font-size="494px"
     font-weight="400"
     id="tspan365"
     style="font-weight:400;font-size:494px;font-family:'\'Liberation Sans', 'sans-serif\''"><tspan
       class="TextPosition"
       x="7372"
       y="12779"
       id="tspan367"><tspan
         id="tspan369"
         style="fill:#000000;stroke:none">enlazado</tspan></tspan></tspan><tspan
     class="TextParagraph"
     font-size="494px"
     font-weight="400"
     id="tspan371"
     style="font-weight:400;font-size:494px;font-family:'\'Liberation Sans', 'sans-serif\''"><tspan
       class="TextPosition"
       x="7372"
       y="13334"
       id="tspan373"><tspan
         id="tspan375"
         style="fill:#000000;stroke:none">estático</tspan></tspan></tspan></text>
</g></g><g
             class="com.sun.star.drawing.RectangleShape"
             id="g377"><g
               id="id26"><path
   d="m 11635,7635 1700,0 c 166,0 300,-134 300,-300 l 0,-1400 c 0,-166 -134,-300 -300,-300 l -3400,0 c -166,0 -300,134 -300,300 l 0,1400 c 0,166 134,300 300,300 l 1700,0 z"
   id="path380"
   inkscape:connector-curvature="0"
   style="fill:#94bd5e;stroke:none" /><path
   d="m 11635,7635 1700,0 c 166,0 300,-134 300,-300 l 0,-1400 c 0,-166 -134,-300 -300,-300 l -3400,0 c -166,0 -300,134 -300,300 l 0,1400 c 0,166 134,300 300,300 l 1700,0 z"
   id="path382"
   inkscape:connector-curvature="0"
   style="fill:none;stroke:#000000;stroke-width:30" /><text
   class="TextShape"
   id="text384"
   style="line-height:0%"><tspan
     class="TextParagraph"
     font-size="494px"
     font-weight="400"
     id="tspan386"
     style="font-weight:400;font-size:494px;font-family:'\'Liberation Sans', 'sans-serif\''"><tspan
       class="TextPosition"
       x="10217"
       y="6529"
       id="tspan388"><tspan
         id="tspan390"
         style="fill:#000000;stroke:none">compilador o</tspan></tspan></tspan><tspan
     class="TextParagraph"
     font-size="494px"
     font-weight="400"
     id="tspan392"
     style="font-weight:400;font-size:494px;font-family:'\'Liberation Sans', 'sans-serif\''"><tspan
       class="TextPosition"
       x="10204"
       y="7084"
       id="tspan394"><tspan
         id="tspan396"
         style="fill:#000000;stroke:none">ensamblador</tspan></tspan></tspan></text>
</g></g><g
             class="com.sun.star.drawing.RectangleShape"
             id="g398"><g
               id="id27"><path
   d="m 11635,14635 1700,0 c 166,0 300,-134 300,-300 l 0,-1400 c 0,-166 -134,-300 -300,-300 l -3400,0 c -166,0 -300,134 -300,300 l 0,1400 c 0,166 134,300 300,300 l 1700,0 z"
   id="path401"
   inkscape:connector-curvature="0"
   style="fill:#94bd5e;stroke:none" /><path
   d="m 11635,14635 1700,0 c 166,0 300,-134 300,-300 l 0,-1400 c 0,-166 -134,-300 -300,-300 l -3400,0 c -166,0 -300,134 -300,300 l 0,1400 c 0,166 134,300 300,300 l 1700,0 z"
   id="path403"
   inkscape:connector-curvature="0"
   style="fill:none;stroke:#000000;stroke-width:30" /><text
   class="TextShape"
   id="text405"
   style="line-height:0%"><tspan
     class="TextParagraph"
     font-size="494px"
     font-weight="400"
     id="tspan407"
     style="font-weight:400;font-size:494px;font-family:'\'Liberation Sans', 'sans-serif\''"><tspan
       class="TextPosition"
       x="10547"
       y="13807"
       id="tspan409"><tspan
         id="tspan411"
         style="fill:#000000;stroke:none">enlazador</tspan></tspan></tspan></text>
</g></g><g
             class="com.sun.star.drawing.RectangleShape"
             id="g413"><g
               id="id28"><path
   d="m 11635,21635 1700,0 c 166,0 300,-134 300,-300 l 0,-1400 c 0,-166 -134,-300 -300,-300 l -3400,0 c -166,0 -300,134 -300,300 l 0,1400 c 0,166 134,300 300,300 l 1700,0 z"
   id="path416"
   inkscape:connector-curvature="0"
   style="fill:#94bd5e;stroke:none" /><path
   d="m 11635,21635 1700,0 c 166,0 300,-134 300,-300 l 0,-1400 c 0,-166 -134,-300 -300,-300 l -3400,0 c -166,0 -300,134 -300,300 l 0,1400 c 0,166 134,300 300,300 l 1700,0 z"
   id="path418"
   inkscape:connector-curvature="0"
   style="fill:none;stroke:#000000;stroke-width:30" /><text
   class="TextShape"
   id="text420"
   style="line-height:0%"><tspan
     class="TextParagraph"
     font-size="494px"
     font-weight="400"
     id="tspan422"
     style="font-weight:400;font-size:494px;font-family:'\'Liberation Sans', 'sans-serif\''"><tspan
       class="TextPosition"
       x="10657"
       y="20807"
       id="tspan424"><tspan
         id="tspan426"
         style="fill:#000000;stroke:none">cargador</tspan></tspan></tspan></text>
</g></g><g
             class="com.sun.star.drawing.RectangleShape"
             id="g428"><g
               id="id29"><path
   d="m 11635,25635 1700,0 c 166,0 300,-134 300,-300 l 0,-2400 c 0,-166 -134,-300 -300,-300 l -3400,0 c -166,0 -300,134 -300,300 l 0,2400 c 0,166 134,300 300,300 l 1700,0 z"
   id="path431"
   inkscape:connector-curvature="0"
   style="fill:#9999ff;stroke:none" /><path
   d="m 11635,25635 1700,0 c 166,0 300,-134 300,-300 l 0,-2400 c 0,-166 -134,-300 -300,-300 l -3400,0 c -166,0 -300,134 -300,300 l 0,2400 c 0,166 134,300 300,300 l 1700,0 z"
   id="path433"
   inkscape:connector-curvature="0"
   style="fill:none;stroke:#000000;stroke-width:30" /><text
   class="TextShape"
   id="text435"
   style="line-height:0%"><tspan
     class="TextParagraph"
     font-size="494px"
     font-weight="400"
     id="tspan437"
     style="font-weight:400;font-size:494px;font-family:'\'Liberation Sans', 'sans-serif\''"><tspan
       class="TextPosition"
       x="10824"
       y="23752"
       id="tspan439"><tspan
         id="tspan441"
         style="fill:#000000;stroke:none">imagen</tspan></tspan></tspan><tspan
     class="TextParagraph"
     font-size="494px"
     font-weight="400"
     id="tspan443"
     style="font-weight:400;font-size:494px;font-family:'\'Liberation Sans', 'sans-serif\''"><tspan
       class="TextPosition"
       x="10547"
       y="24307"
       id="tspan445"><tspan
         id="tspan447"
         style="fill:#000000;stroke:none">binaria en</tspan></tspan></tspan><tspan
     class="TextParagraph"
     font-size="494px"
     font-weight="400"
     id="tspan449"
     style="font-weight:400;font-size:494px;font-family:'\'Liberation Sans', 'sans-serif\''"><tspan
       class="TextPosition"
       x="10411"
       y="24862"
       id="tspan451"><tspan
         id="tspan453"
         style="fill:#000000;stroke:none">la memoria</tspan></tspan></tspan></text>
</g></g></g></g></g></g></svg>
