<?xml version="1.0" encoding="UTF-8"?>
<!DOCTYPE svg PUBLIC "-//W3C//DTD SVG 1.1//EN" "http://www.w3.org/Graphics/SVG/1.1/DTD/svg11.dtd">
<svg xmlns="http://www.w3.org/2000/svg" xmlns:xlink="http://www.w3.org/1999/xlink" version="1.1" width="641px" height="712px" viewBox="-0.5 -0.5 641 712"><defs><style type="text/css">@font-face {&#xa;font-family: "Ink Free";&#xa;src: url("https://ull-esit-sistemas-operativos.github.io/ssoo-apuntes/fonts/InkFree.woff");&#xa;}&#xa;</style></defs><g><rect x="139" y="441" width="500" height="270" fill="none" stroke="none" pointer-events="all"/><path d="M 138.25 441.51 C 277.14 439.47 416.05 439.21 639.37 441.05 M 138.96 441.38 C 267.59 439.15 396.08 439.76 639.1 441.25 M 637.53 441.41 C 639.1 497.12 640.01 551.74 637.53 710.36 M 638.47 440.3 C 640.55 520.88 639.89 602.49 639.7 711.61 M 638.68 710.32 C 537.74 710.05 436.75 711.36 139.31 711.79 M 639.1 711 C 469.58 710.08 300.06 709.85 139.09 711.31 M 139.72 711.29 C 139.74 605.85 138.6 501.45 138.35 440.36 M 139.45 711.47 C 140.11 635.95 139.34 559.26 138.42 441.61" fill="none" stroke="#324ab2" stroke-width="2" stroke-linejoin="round" stroke-linecap="round" stroke-miterlimit="10" pointer-events="all"/><rect x="149" y="441" width="480" height="60" fill="none" stroke="none" pointer-events="all"/><g fill="#324AB2" font-family="Ink Free" font-weight="bold" text-anchor="middle" font-size="17px"><text x="388.5" y="475.5">· · ·</text></g><rect x="269" y="621" width="60" height="40" fill="none" stroke="none" pointer-events="all"/><path d="M 268.82 620.14 C 289.77 622.09 310.06 619.72 327.4 622.9 M 268.59 620.02 C 287.79 620.23 307.17 620.13 329.14 621.12 M 328.92 619.01 C 328.48 630.16 329.15 642.59 327.7 660.53 M 328.26 621.52 C 329.25 631.27 330.03 642.65 328.45 660.64 M 327.98 662.32 C 316.1 662.06 303.39 658.64 270.12 661.17 M 328.38 661.47 C 313.75 661.02 296.77 661.41 269.52 661.28 M 268.33 659.7 C 267.7 646.57 269.01 632.33 270.16 621.46 M 268.42 660.16 C 268.86 650.97 270.15 639.32 269.76 621.76" fill="none" stroke="#c2bee6" stroke-width="2" stroke-linejoin="round" stroke-linecap="round" stroke-miterlimit="10" pointer-events="all"/><g fill="#324AB2" font-family="Ink Free" font-weight="bold" text-anchor="middle" font-size="17px"><text x="298.5" y="645.5">JPG</text></g><rect x="149" y="621" width="120" height="40" fill="none" stroke="none" pointer-events="all"/><path d="M 147.67 619.11 C 192.26 620.38 233.12 619.12 268.6 621.29 M 148.94 621.28 C 188.85 620.78 229.5 622.1 269.56 620.88 M 268.46 619.26 C 267.79 634.09 269.15 644.35 267.09 661.66 M 269.56 621.72 C 268.21 634.14 270.02 647.15 269.86 661.99 M 267.04 660.11 C 239.83 659.46 213.11 659.5 149.96 662.77 M 268.44 660.33 C 239.46 661.78 210.16 661.91 149.46 660.32 M 149.61 661.41 C 151.07 651.56 150.65 643.56 148.75 622.26 M 149.64 660.16 C 148.43 652.76 148.23 642.31 149.2 621.75" fill="none" stroke="#c2bee6" stroke-width="2" stroke-linejoin="round" stroke-linecap="round" stroke-miterlimit="10" pointer-events="all"/><g fill="#324AB2" font-family="Ink Free" font-weight="bold" text-anchor="middle" font-size="17px"><text x="208.5" y="645.5">BAR1</text></g><rect x="149" y="501" width="120" height="40" fill="none" stroke="none" pointer-events="all"/><path d="M 148.81 501.16 C 191.52 501.7 231.33 500.35 269.62 499.92 M 148.75 500.61 C 186.8 501.6 225.39 501.45 269.39 500.05 M 269.89 499.99 C 269.28 516.11 270.59 529.33 268.76 540.87 M 269.92 501.9 C 268.14 514.75 268.27 528.68 269.06 540.78 M 270.5 540.3 C 222.49 539.44 177.01 539.23 150.7 540.47 M 268.8 541.5 C 227.18 540.74 186.43 540.74 149.23 540.11 M 148.5 539.58 C 148.53 526.59 150.35 513.74 149.59 499.23 M 148.32 540.21 C 148.27 530.69 149.39 519.37 149.42 500.09" fill="none" stroke="#c2bee6" stroke-width="2" stroke-linejoin="round" stroke-linecap="round" stroke-miterlimit="10" pointer-events="all"/><g fill="#C2BEE6" font-family="Ink Free" font-weight="bold" text-anchor="middle" font-size="17px"><text x="208.5" y="525.5">FOO1</text></g><rect x="269" y="501" width="60" height="40" fill="none" stroke="none" pointer-events="all"/><path d="M 267.67 500.12 C 288.39 499.77 311.17 499.51 330.82 502.31 M 269.11 501.88 C 290.33 501.66 310.66 500.94 329.81 501.8 M 329.43 500.24 C 328.59 516.04 330.59 531.09 328.15 542 M 329.22 500.1 C 329.11 509.62 328.26 519.18 328.46 540.13 M 329.56 542.08 C 315.67 541.44 305.62 540.7 270.54 542.06 M 328.85 540.35 C 310.1 540.84 290.23 540.57 269.16 541.15 M 269.78 541.29 C 267.9 531.59 267.98 524.98 268.18 500.03 M 269.54 540.21 C 268.65 530.49 268.27 522.36 268.86 500.08" fill="none" stroke="#c2bee6" stroke-width="2" stroke-linejoin="round" stroke-linecap="round" stroke-miterlimit="10" pointer-events="all"/><g fill="#C2BEE6" font-family="Ink Free" font-weight="bold" text-anchor="middle" font-size="17px"><text x="298.5" y="525.5">TXT</text></g><rect x="329" y="501" width="180" height="40" fill="none" stroke="none" pointer-events="all"/><path d="M 330.53 499.08 C 391.68 499.68 451.82 500.54 508.03 500.7 M 329.46 501.14 C 394.55 499.78 459.31 500.48 508.23 501.55 M 508.97 500.49 C 507.91 507.97 510.6 516.85 507.54 539.13 M 508.52 500.3 C 508.88 512.5 509.05 523.67 509.87 541.48 M 508.61 539.87 C 471.82 538.8 432.18 541.51 330.37 539.66 M 508.91 541.21 C 455.12 541.52 402.24 540.98 329.1 540.19 M 327.06 539.01 C 330.47 528.58 328.82 516.21 330.77 500.82 M 328.76 540.21 C 329.02 532.29 329.16 525.36 328.3 500.07" fill="none" stroke="#c2bee6" stroke-width="2" stroke-linejoin="round" stroke-linecap="round" stroke-miterlimit="10" pointer-events="all"/><g fill="#C2BEE6" font-family="Ink Free" font-weight="bold" text-anchor="middle" font-size="17px"><text x="418.5" y="525.5">· · ·</text></g><rect x="509" y="501" width="60" height="40" fill="none" stroke="none" pointer-events="all"/><path d="M 509.39 502.05 C 531.76 501.85 550.05 499.81 569.24 499.09 M 509.81 500.4 C 531.77 500.77 555.96 500.91 568.65 501.3 M 568.5 500.74 C 571.22 511.9 570.6 518.61 570.93 540.26 M 569.82 500.5 C 569.85 515.38 569.04 530.17 569.28 540.84 M 567.66 541.66 C 555.85 541.04 542.5 539.21 510.21 541.26 M 568.97 540.07 C 552.82 540.3 535.61 539.49 509.04 541.23 M 508.34 540.73 C 509.84 525.58 510.46 511.45 509.36 501.61 M 509.98 540.21 C 508.6 526.08 509.24 512.36 509.74 500.06" fill="none" stroke="#c2bee6" stroke-width="2" stroke-linejoin="round" stroke-linecap="round" stroke-miterlimit="10" pointer-events="all"/><rect x="569" y="501" width="60" height="40" fill="none" stroke="none" pointer-events="all"/><path d="M 568.24 501.01 C 589.44 501.49 611.49 500.56 630.44 501.49 M 568.16 501.67 C 580.49 500.92 593.61 500.49 629.07 501.06 M 628.04 500.99 C 629.73 511.83 629.81 520.37 630.32 541.39 M 629.11 500.7 C 628.82 510.25 629.03 518.67 628.68 540.19 M 630.72 539.44 C 613.94 538.85 600.93 540.47 570.05 542.85 M 629.02 540.92 C 615.17 540.24 600.29 541.15 568.98 540.27 M 569.62 542.45 C 569.21 530.58 568.1 518.68 567.96 502.41 M 569.19 540.2 C 568.98 527.88 568.13 515.36 569.18 500.05" fill="none" stroke="#c2bee6" stroke-width="2" stroke-linejoin="round" stroke-linecap="round" stroke-miterlimit="10" pointer-events="all"/><g fill="#C2BEE6" font-family="Ink Free" font-weight="bold" text-anchor="middle" font-size="17px"><text x="598.5" y="525.5">· · ·</text></g><rect x="569" y="621" width="60" height="40" fill="none" stroke="none" pointer-events="all"/><path d="M 567.1 619.97 C 591.12 621.13 608.93 621.31 627.65 619.88 M 568.51 620.93 C 583.21 619.88 595.26 620.88 629.49 620.81 M 627.58 621.24 C 629.05 631.76 629.81 642.13 629.72 662.52 M 628.41 620.9 C 628.58 633.13 629.82 645.17 628.09 661.54 M 629.77 661.23 C 612.03 660.65 599.37 661.72 569.88 660.45 M 629.08 661.78 C 615.53 660.97 602.98 659.61 568.92 661.32 M 570.9 660.17 C 568.58 647.58 569.74 633.92 570.55 619.2 M 568.41 660.2 C 569.36 649.67 569.01 638.36 568.62 620.03" fill="none" stroke="#c2bee6" stroke-width="2" stroke-linejoin="round" stroke-linecap="round" stroke-miterlimit="10" pointer-events="all"/><g fill="#C2BEE6" font-family="Ink Free" font-weight="bold" text-anchor="middle" font-size="17px"><text x="598.5" y="645.5">· · ·</text></g><rect x="329" y="621" width="180" height="40" fill="none" stroke="none" pointer-events="all"/><path d="M 329.96 622.94 C 390.41 618.87 453.59 620.16 508.86 622.27 M 328.86 620.2 C 373.68 619.52 418.4 619.95 509.91 620.56 M 507.11 621.49 C 508.36 631.69 509.82 643.89 509.11 659.65 M 509.71 621.1 C 509.55 636 509.82 649.67 509.5 660.89 M 508.82 659.02 C 460.66 661.96 406.88 658.49 329.72 662.05 M 509.13 660.64 C 438.11 661.4 366.11 661.77 328.86 660.36 M 328.18 661.89 C 327.95 652.58 327.37 641.15 329.14 620 M 329.63 660.2 C 329.74 651.47 329.89 639.36 328.06 620.02" fill="none" stroke="#c2bee6" stroke-width="2" stroke-linejoin="round" stroke-linecap="round" stroke-miterlimit="10" pointer-events="all"/><g fill="#C2BEE6" font-family="Ink Free" font-weight="bold" text-anchor="middle" font-size="17px"><text x="418.5" y="645.5">· · ·</text></g><rect x="509" y="621" width="60" height="40" fill="none" stroke="none" pointer-events="all"/><path d="M 510.53 622.07 C 529.13 620.17 548.94 620.01 569.81 619.69 M 509.29 620.55 C 531.23 621.34 552.47 620.1 569.98 620.63 M 567.99 619.51 C 570.3 634.02 568.36 646.11 570.48 662.79 M 568.85 621.92 C 569.18 629.02 568.01 637.65 569.26 661.35 M 570.09 661.89 C 552.28 661.66 540.26 661.15 509.79 660.36 M 568.49 661.19 C 556.47 660.48 542.14 660.34 509.39 661.36 M 510.89 659.13 C 510.44 648.56 508.29 634.8 507.34 619.05 M 508.86 660.16 C 508.81 644.56 509.11 629.31 508.64 621.73" fill="none" stroke="#c2bee6" stroke-width="2" stroke-linejoin="round" stroke-linecap="round" stroke-miterlimit="10" pointer-events="all"/><g fill="#C2BEE6" font-family="Ink Free" font-weight="bold" text-anchor="middle" font-size="17px"><text x="538.5" y="645.5">01FE</text></g><rect x="209" y="231" width="60" height="40" fill="none" stroke="none" pointer-events="all"/><path d="M 209.55 230.24 C 220.11 232.87 232.69 230.47 270.87 230.09 M 209.98 230.26 C 222.47 231.61 235.11 231.76 269.9 231.88 M 270.18 230.65 C 270.01 241.83 266.83 249.56 270.17 270.66 M 269.9 231.77 C 270.13 242.06 268.99 250.66 269.27 271.98 M 270.26 272.97 C 254.48 270.24 242.79 269.7 210.7 270.66 M 268.6 271.82 C 251.19 269.62 234.29 270.58 208.61 271.31 M 210.82 272.85 C 210.61 260.34 207.96 248.97 207 231.67 M 208.42 270.65 C 208.97 260.3 209.15 250.3 209.91 231.19" fill="none" stroke="#c2bee6" stroke-width="2" stroke-linejoin="round" stroke-linecap="round" stroke-miterlimit="10" pointer-events="all"/><g fill="#324AB2" font-family="Ink Free" font-weight="bold" text-anchor="middle" font-size="17px"/><rect x="269" y="231" width="60" height="40" fill="none" stroke="none" pointer-events="all"/><path d="M 268.4 229.2 C 281.79 231.31 294.13 230.02 328.08 232.48 M 268.33 231.53 C 283.19 231.77 296.76 231.35 328.32 231.63 M 329.72 230.9 C 329.33 241.76 330.83 251.32 329.56 271.79 M 329.2 231.97 C 329.1 242.93 328.98 257.16 328.68 271.33 M 329.31 270.76 C 312.57 272.04 301.23 270.95 270.54 272.26 M 328.66 270.68 C 313.55 271.55 296.97 270.24 268.55 270.35 M 268.1 270.57 C 269.99 257.34 269.6 240.21 269.6 232.46 M 269.64 270.64 C 269.35 262.1 268.04 253.29 269.35 231.18" fill="none" stroke="#c2bee6" stroke-width="2" stroke-linejoin="round" stroke-linecap="round" stroke-miterlimit="10" pointer-events="all"/><g fill="#324AB2" font-family="Ink Free" font-weight="bold" text-anchor="middle" font-size="17px"/><rect x="329" y="231" width="60" height="40" fill="none" stroke="none" pointer-events="all"/><path d="M 327.26 232.17 C 339.47 230.95 351.58 230.77 389.29 230.87 M 328.68 230.79 C 343.91 230.72 360.41 229.73 388.74 231.39 M 389.26 231.15 C 388.64 241.7 390.84 253.08 388.95 272.92 M 388.49 230.17 C 388.07 245.81 388.97 261.66 388.08 270.69 M 388.36 272.54 C 374.66 269.84 359.66 272.21 330.37 269.85 M 388.72 271.54 C 373.91 270.29 359.66 270.7 328.49 271.39 M 329.38 272.29 C 328.56 262.34 330.43 251.44 328.19 229.26 M 328.85 270.64 C 329.72 255.89 328.92 240.29 328.79 231.16" fill="none" stroke="#c2bee6" stroke-width="2" stroke-linejoin="round" stroke-linecap="round" stroke-miterlimit="10" pointer-events="all"/><g fill="#324AB2" font-family="Ink Free" font-weight="bold" text-anchor="middle" font-size="17px"/><rect x="389" y="231" width="60" height="40" fill="none" stroke="none" pointer-events="all"/><path d="M 390.12 231.13 C 401.15 229.39 413.02 230.32 450.49 229.26 M 389.03 230.06 C 406.63 230.88 422.06 231.32 449.16 231.14 M 448.79 231.4 C 447.95 241.63 450.84 254.84 448.35 270.05 M 449.79 230.37 C 449.83 240.69 449.76 252.16 449.49 270.04 M 447.42 270.33 C 432.75 271.64 418.1 269.47 390.21 271.45 M 448.77 270.39 C 436.26 270.22 424.35 270.37 388.43 270.43 M 390.66 270 C 387.93 255.34 388.07 242.68 390.78 230.05 M 388.07 270.64 C 390.1 255.69 389.81 241.29 388.23 231.15" fill="none" stroke="#c2bee6" stroke-width="2" stroke-linejoin="round" stroke-linecap="round" stroke-miterlimit="10" pointer-events="all"/><g fill="#324AB2" font-family="Ink Free" font-weight="bold" text-anchor="middle" font-size="17px"/><rect x="449" y="231" width="60" height="40" fill="none" stroke="none" pointer-events="all"/><path d="M 448.24 230.26 C 469.67 229.6 489.41 232.92 510 230.74 M 449.7 230.82 C 463.45 232.24 480.07 231.8 508.13 230.79 M 507.28 229.24 C 508.14 242.32 507.37 258.05 510.59 271.48 M 508.03 231.29 C 508.44 244.12 509.49 259.18 508.84 270.72 M 509.35 272.94 C 487.31 272.24 467.88 269.67 447.19 269.68 M 508.63 270.93 C 496.67 271.51 483.49 270.32 449.41 270.98 M 448.67 272.42 C 450.42 261.59 449.43 250.04 449.81 230.85 M 448.67 270.22 C 449.93 255.31 449.54 240.37 449.1 230.13" fill="none" stroke="#c2bee6" stroke-width="2" stroke-linejoin="round" stroke-linecap="round" stroke-miterlimit="10" pointer-events="all"/><g fill="#324AB2" font-family="Ink Free" font-weight="bold" text-anchor="middle" font-size="17px"/><rect x="509" y="231" width="60" height="40" fill="none" stroke="none" pointer-events="all"/><path d="M 507.1 229.23 C 531.35 232.04 550.85 228.47 567.2 229.13 M 508.05 230.08 C 526.17 231.19 541.72 230.18 568.55 230.54 M 570.82 229.49 C 567.45 246.25 567.37 259.81 569.98 272.61 M 569.33 231.49 C 569.41 239 569.48 247.68 568.24 270.08 M 568.4 270.72 C 549.4 270.04 526.32 270.93 507.03 271.27 M 568.68 271.79 C 545.03 270.24 522.17 270.78 509.35 270.02 M 509.95 270.14 C 509.79 258.59 507.07 241.27 508.4 231.64 M 509.89 270.21 C 509.51 257.1 509.62 243.37 508.54 230.12" fill="none" stroke="#c2bee6" stroke-width="2" stroke-linejoin="round" stroke-linecap="round" stroke-miterlimit="10" pointer-events="all"/><g fill="#324AB2" font-family="Ink Free" font-weight="bold" text-anchor="middle" font-size="17px"/><rect x="569" y="231" width="60" height="40" fill="none" stroke="none" pointer-events="all"/><path d="M 569.96 232.19 C 589.03 231.68 612.29 229.22 628.41 231.52 M 568.4 231.35 C 586.89 231.35 605.36 229.77 628.97 230.29 M 630.36 229.74 C 630.76 246.18 627.38 257.57 629.37 269.74 M 628.63 231.7 C 629.18 241.87 630.28 254.18 629.65 271.43 M 627.45 272.51 C 607.49 271.84 584.75 272.18 570.86 272.87 M 628.74 270.64 C 607.39 272.17 584.86 270.45 569.29 271.06 M 567.23 271.86 C 569.16 259.59 568.71 252.51 571 232.44 M 569.1 270.21 C 567.89 258.9 568.5 246.37 569.98 230.11" fill="none" stroke="#c2bee6" stroke-width="2" stroke-linejoin="round" stroke-linecap="round" stroke-miterlimit="10" pointer-events="all"/><g fill="#324AB2" font-family="Ink Free" font-weight="bold" text-anchor="middle" font-size="17px"/><rect x="149" y="231" width="60" height="40" fill="none" stroke="none" pointer-events="all"/><path d="M 150.69 231.27 C 162.43 229.22 175.25 229.72 209.67 231.7 M 149.63 231 C 173.75 231.46 197.46 230.18 209.48 230.13 M 210.65 230.4 C 207.5 241.9 207.62 247.8 210.78 269.53 M 208.6 231.57 C 208.36 247.18 208.2 262.16 209.86 270.63 M 207.21 271.18 C 196.39 272.43 184.35 272.44 150.86 269.06 M 208.55 270.97 C 190.83 270.89 171.6 270.12 148.67 270.26 M 149.55 271.13 C 147.24 263.34 150.32 253.74 148.41 230.88 M 149.2 270.65 C 148.59 258.51 148.27 247.3 148.47 231.2" fill="none" stroke="#c2bee6" stroke-width="2" stroke-linejoin="round" stroke-linecap="round" stroke-miterlimit="10" pointer-events="all"/><g fill="#324AB2" font-family="Ink Free" font-weight="bold" text-anchor="middle" font-size="17px"/><rect x="569" y="541" width="60" height="40" fill="none" stroke="none" pointer-events="all"/><path d="M 570.72 542.44 C 592.41 540.13 613.64 541.74 629 542.21 M 568.73 541.47 C 583.11 541.48 595.97 540.44 628.7 541.07 M 628.82 539.38 C 630.46 553.68 629.33 568.34 628.04 579.55 M 628.22 540.11 C 629.51 554.96 628.35 568.66 629.12 581.74 M 630.71 581.46 C 618.08 581.99 606.73 580.29 569.07 582.48 M 629.47 581.85 C 605.1 580.34 582 580.61 568.12 581.15 M 568.04 580.3 C 568.17 568.15 567.52 550.25 567.85 541.64 M 568.5 581.9 C 568.54 572.55 570.13 564.03 568.25 540.14" fill="none" stroke="#324ab2" stroke-width="2" stroke-linejoin="round" stroke-linecap="round" stroke-miterlimit="10" pointer-events="all"/><g fill="#324AB2" font-family="Ink Free" font-weight="bold" text-anchor="middle" font-size="17px"><text x="598.5" y="565.5">· · ·</text></g><rect x="569" y="581" width="60" height="40" fill="none" stroke="none" pointer-events="all"/><path d="M 568.44 581.33 C 592.93 579.31 613.52 580.09 628.75 579.96 M 568.95 580.23 C 585.08 580.78 599.75 580.75 628.79 581.81 M 628.97 580.92 C 629.08 591.69 627.43 603.65 627.62 620.78 M 629.82 581.37 C 627.96 590.27 628.81 599.57 628.11 620.03 M 629.26 619.11 C 609.82 622.03 588.2 621.59 567.01 619.77 M 628.34 621.49 C 609.84 620.93 589.03 619.86 568.86 620.75 M 570.07 620.1 C 568.43 610.08 566.79 600.48 570.74 581.92 M 569.25 621.75 C 569.46 608.96 568.57 597.87 568.16 581.11" fill="none" stroke="#324ab2" stroke-width="2" stroke-linejoin="round" stroke-linecap="round" stroke-miterlimit="10" pointer-events="all"/><g fill="#324AB2" font-family="Ink Free" font-weight="bold" text-anchor="middle" font-size="17px"><text x="598.5" y="605.5">· · ·</text></g><rect x="139" y="1" width="500" height="40" fill="none" stroke="none" pointer-events="all"/><path d="M 138.68 0.38 C 259.93 -0.51 380.17 -0.36 638.47 1.17 M 139.16 1.21 C 296.16 0.61 453.87 0.09 638.87 1.38 M 640.84 0.18 C 638 14.47 637.72 23.26 638.02 41.87 M 639.04 0.07 C 639.56 13.93 638.36 27.95 639.72 41.17 M 638.66 41.73 C 459.2 40.99 278.19 40.45 139.77 41.15 M 638.9 41.18 C 503.04 40.98 367.85 41.03 138.82 40.78 M 137.5 41.64 C 139.17 31.67 140.29 23.27 139.72 1.55 M 138 41.15 C 139.68 28.03 137.95 13.96 138.97 1.13" fill="none" stroke="#324ab2" stroke-width="2" stroke-linejoin="round" stroke-linecap="round" stroke-miterlimit="10" pointer-events="all"/><g fill="#324AB2" font-family="Ink Free" font-weight="bold" text-anchor="middle" font-size="17px"><text x="388.5" y="25.5">Información del volumen y código de arranque del sistema</text></g><rect x="139" y="61" width="500" height="260" fill="none" stroke="none" pointer-events="all"/><path d="M 139.13 60.79 C 259.26 62.23 381.19 61.93 639.59 60.21 M 139.02 60.7 C 285.7 59.55 432.08 59.25 638.7 60.68 M 637.65 60.14 C 638.32 130.96 637.53 202.05 638.7 320.79 M 639.59 61.7 C 636.31 130.39 637.72 201.65 638.45 321.65 M 639.04 321.01 C 465.82 320.29 293.73 319.97 138.24 320.51 M 638.88 320.83 C 491.43 323.05 343.85 323.2 138.85 321.17 M 139.97 320.14 C 141.94 228.61 141.03 135.97 137.5 60.8 M 138.83 321.12 C 138.06 222.33 137.86 123.25 139.42 61.11" fill="none" stroke="#324ab2" stroke-width="2" stroke-linejoin="round" stroke-linecap="round" stroke-miterlimit="10" pointer-events="all"/><rect x="149" y="71" width="60" height="40" fill="none" stroke="none" pointer-events="all"/><path d="M 149.19 70.78 C 149.19 70.78 149.19 70.78 149.19 70.78 M 149.19 70.78 C 149.19 70.78 149.19 70.78 149.19 70.78 M 150.65 81.23 C 152.32 78.55 155.11 76.3 158.92 72.28 M 149.51 82.14 C 153.65 77.7 156.91 73.83 159.65 70.12 M 147.42 95.29 C 155.46 86.92 161.97 80.6 170.69 69 M 149.7 95.97 C 154.73 89.52 160.57 82.65 170.72 70.24 M 149.44 108.09 C 156.42 97.99 164.33 88.21 179.24 70.62 M 149.41 108.01 C 161.13 92.35 175.68 77.82 181.55 70.3 M 155.54 113.99 C 167.11 98.35 176.75 87.25 190.78 70.32 M 154.28 115.24 C 164.39 100.96 174.63 88.67 190.81 69.85 M 163.91 113.68 C 177.39 98.01 190.35 82.58 200.64 70.27 M 162.75 115.66 C 176.56 100.56 188.85 84.54 200.88 71.66 M 174.57 116.97 C 180.67 104.24 192.03 95.07 212.44 71.38 M 173.58 114.4 C 189.47 99.31 201.71 82.81 211.6 73.15 M 184.57 115.2 C 193.23 104.5 201.73 96.27 212.95 84.9 M 185.54 114.19 C 191.99 105.17 200.5 96.35 210.55 84.95 M 196.82 113.93 C 199.93 109.76 204.95 102 212.38 97.07 M 195.54 115.12 C 201.45 107.85 206.5 102.49 211.76 97.73" fill="none" stroke="#c2bee6" stroke-linejoin="round" stroke-linecap="round" stroke-miterlimit="10" pointer-events="all"/><path d="M 148.2 69.8 C 168.52 72.07 186.03 70.23 209.17 70.26 M 149.88 70.99 C 163.47 71.09 178.33 70.14 209.43 71.92 M 210.37 71.05 C 208.27 79.47 207.52 89.2 210.21 112.82 M 209.92 70.73 C 210.1 85.18 210.09 100.16 209.19 111.03 M 207.43 110.64 C 187.57 109.37 162.38 111.3 150.78 110.85 M 208.81 111.59 C 194.48 110.82 179.53 111.23 149.68 110.46 M 149.91 109.09 C 150.5 99.92 149.87 91.33 150.47 72.22 M 148.68 111.45 C 148.36 95.85 147.96 81.48 149.98 70.67" fill="none" stroke="#324ab2" stroke-width="2" stroke-linejoin="round" stroke-linecap="round" stroke-miterlimit="10" pointer-events="all"/><rect x="149" y="281" width="480" height="30" fill="none" stroke="none" pointer-events="all"/><g fill="#324AB2" font-family="Ink Free" font-weight="bold" text-anchor="middle" font-size="17px"><text x="388.5" y="300.5">· · ·</text></g><path d="M 108.32 -0.48 L 125.17 0.7 L 126.57 39.39 L 108.6 42.86" fill="none" stroke="none" pointer-events="all"/><path d="M 125.84 2.3 M 126.73 1.58 C 124 0.96 120.38 1.56 118.52 1.01 M 127.16 1.18 C 125.24 0.89 123.24 1.12 118.12 0.72 M 119.08 1.29 C 116.36 14.89 119.98 28.5 117.49 42.92 M 118.91 0.71 C 118.01 9.14 117.79 18.14 118.92 41.75 M 117.79 41.4 C 120.69 40.24 123.61 40.74 126.31 40.31 M 117.55 41.12 C 120.89 40.91 123.63 40.78 126.62 41.1" fill="none" stroke="#324ab2" stroke-width="2" stroke-linejoin="round" stroke-linecap="round" stroke-miterlimit="10" pointer-events="all"/><path d="M 107.84 22.3 M 108.73 21.58 C 113.11 20.92 116.6 21.53 118.52 21.01 M 109.16 21.18 C 111.23 21.07 113.21 21.29 118.12 20.72" fill="none" stroke="#324ab2" stroke-width="2" stroke-linejoin="round" stroke-linecap="round" stroke-miterlimit="10" pointer-events="all"/><path d="M 108.72 60.94 L 128.22 60.52 L 128.82 279.62 L 107.52 282.39" fill="none" stroke="none" pointer-events="all"/><path d="M 125.84 62.64 M 127.49 61.2 C 123.57 61.03 120.56 60.79 118.71 61.7 M 126.91 61.09 C 123.54 60.67 120.86 61.13 118.2 60.96 M 118.16 60.59 C 120.14 122.08 119.46 183.28 118.74 281.48 M 118.14 60.87 C 117.88 113.89 118.68 168.65 117.2 281.01 M 117.35 280.42 C 120.82 280.91 123.52 281.56 127.89 280.99 M 117.96 280.79 C 120 281.46 122.01 281.35 127.01 280.98" fill="none" stroke="#324ab2" stroke-width="2" stroke-linejoin="round" stroke-linecap="round" stroke-miterlimit="10" pointer-events="all"/><path d="M 107.84 172.64 M 109.49 171.2 C 111.25 171.09 113.91 170.85 118.71 171.7 M 108.91 171.09 C 112.1 170.61 115.98 171.07 118.2 170.96" fill="none" stroke="#324ab2" stroke-width="2" stroke-linejoin="round" stroke-linecap="round" stroke-miterlimit="10" pointer-events="all"/><rect x="19" y="3.5" width="79" height="35" fill="none" stroke="none" pointer-events="all"/><g fill="#324AB2" font-family="Ink Free" font-weight="bold" text-anchor="end" font-size="17px"><text x="95.5" y="15.5">Sector de</text><text x="95.5" y="35.5">arranque</text></g><rect x="9" y="151" width="89" height="40" fill="none" stroke="none" pointer-events="all"/><g fill="#324AB2" font-family="Ink Free" font-weight="bold" text-anchor="end" font-size="17px"><text x="95.5" y="175.5">FAT 1</text></g><rect x="209" y="71" width="60" height="40" fill="none" stroke="none" pointer-events="all"/><path d="M 208.95 71.06 C 208.95 71.06 208.95 71.06 208.95 71.06 M 208.95 71.06 C 208.95 71.06 208.95 71.06 208.95 71.06 M 207.76 82.62 C 212.21 80.73 215.01 77.68 218 69.85 M 209.29 83.75 C 212.22 79.97 214.93 77.37 219.4 71.28 M 209.96 93.65 C 213.8 90.71 216.45 85.63 228.52 71.08 M 209.91 94.52 C 217.28 86.66 222.79 78.05 230.5 71.29 M 209.99 106.92 C 216.85 98.12 225.7 90.74 240.75 71.95 M 208.09 107.42 C 217.59 97.66 226.35 87.88 239.93 70.79 M 214.44 113.37 C 224.99 100.26 239.73 83.67 249.77 71.59 M 214.29 114.13 C 223.86 104 233.26 92.08 251.79 70.02 M 225.55 115.08 C 237.41 99.14 253.43 84.41 261.27 70.8 M 224.5 114.08 C 232.81 104.58 240.29 95.63 261.17 71.83 M 236.19 116.03 C 245.19 103.37 253.26 97.09 269.78 71.39 M 235.63 114.49 C 242.56 106.97 249.44 97.12 270.93 72.41 M 246.95 113.18 C 251.55 106.86 258.95 98.26 272.68 84.56 M 244.69 114.33 C 252.18 105.27 260.46 98 271.68 84.55 M 256.87 112.61 C 260.81 109.59 261.32 104.98 270.49 97.67 M 255.56 115.38 C 260.02 108.97 263.14 104.2 270.18 97.36" fill="none" stroke="#c2bee6" stroke-linejoin="round" stroke-linecap="round" stroke-miterlimit="10" pointer-events="all"/><path d="M 209.01 71.76 C 227.85 71.24 247.22 70.81 269.68 70.73 M 209.11 70.05 C 225.32 72.47 241.85 71.32 269.64 70.47 M 267.81 72.91 C 269.71 79.4 270.56 86.99 270.84 111.22 M 269.71 70.39 C 270.32 83.47 270.27 94.74 269.69 111.62 M 270.3 109.07 C 249.11 109.93 227.83 110.72 210.84 110.36 M 268.09 110.5 C 254.25 111.01 241.37 112.17 208.33 111.44 M 208.04 109.72 C 208.48 96.54 209.02 85.45 207.61 69.35 M 209.04 111.8 C 209.32 98.55 209.5 87.71 209.02 71.15" fill="none" stroke="#324ab2" stroke-width="2" stroke-linejoin="round" stroke-linecap="round" stroke-miterlimit="10" pointer-events="all"/><rect x="269" y="71" width="60" height="40" fill="none" stroke="none" pointer-events="all"/><path d="M 268.71 71.33 C 268.71 71.33 268.71 71.33 268.71 71.33 M 268.71 71.33 C 268.71 71.33 268.71 71.33 268.71 71.33 M 269.35 84.77 C 272.94 77.67 277.95 75.2 279.52 72.78 M 269.36 82.69 C 271.8 79.58 275.21 77.18 279.8 70.65 M 270.37 94.31 C 273.25 89.18 279.14 84.78 291.35 70.01 M 269.55 94.84 C 273.89 89.5 279.59 84.15 289.54 71.72 M 269.96 109.34 C 280.97 92.87 295.95 78.56 301.4 72.32 M 268.94 107.54 C 275.19 100.68 282.44 92.19 301.37 71.78 M 272.8 116.84 C 282.27 103.67 287.9 97.79 313.04 72.62 M 274.07 114.1 C 284.39 104.19 294.75 90.58 311.78 70.97 M 281.99 113.44 C 296.2 102.5 308.91 86.59 321.89 70.52 M 284.75 114.84 C 297.56 99.38 310.54 85.6 322.17 71.13 M 294.21 114.92 C 300.16 105.74 308.86 97.19 331.47 72.25 M 295.36 115.48 C 309.73 98.69 322.37 81.92 331.63 71.69 M 304.45 116.09 C 310.61 108.27 317.94 100.11 330.92 84.76 M 304.61 115.51 C 314.64 104.32 322.46 95.23 330.75 85.12 M 314.36 114.48 C 320.91 110.48 323.11 107.07 330.87 99.4 M 316.02 115.18 C 321.4 107.89 328.15 102.25 330.63 97.05" fill="none" stroke="#c2bee6" stroke-linejoin="round" stroke-linecap="round" stroke-miterlimit="10" pointer-events="all"/><path d="M 267.87 70.73 C 289.53 70.89 308.66 71.56 330.89 69.12 M 269.47 71.31 C 288.04 71.43 305.5 69.71 328.06 70.22 M 327.35 69.16 C 328.23 79.33 329.76 88.75 330.23 112.35 M 329.01 70.59 C 329.28 86.34 328.26 101.24 329.09 110.97 M 329.35 110.85 C 307.2 111.74 286.26 111.97 270.68 111.95 M 328.15 111.35 C 316.61 111.74 304.06 110.63 268.27 110.48 M 269.32 111.44 C 267.85 101.54 270.66 92.69 270.2 70.15 M 268.25 111.8 C 268.89 100.34 269.58 90.71 268.46 71.14" fill="none" stroke="#324ab2" stroke-width="2" stroke-linejoin="round" stroke-linecap="round" stroke-miterlimit="10" pointer-events="all"/><rect x="329" y="71" width="60" height="40" fill="none" stroke="none" pointer-events="all"/><path d="M 329.13 70.85 C 329.13 70.85 329.13 70.85 329.13 70.85 M 329.13 70.85 C 329.13 70.85 329.13 70.85 329.13 70.85 M 328.38 82.97 C 331.99 79.26 337.1 76.59 338.5 71.76 M 328.48 82.47 C 332.28 78.43 336.38 74.62 339.26 70.86 M 326.78 94.97 C 332.86 87.89 338.15 83.99 350.83 72.2 M 329.19 95.15 C 337.42 86.81 343.75 77.63 351.24 71.39 M 329.28 108.51 C 341.8 94.53 353 80.08 362.7 71.94 M 329.14 108.42 C 338.83 95.38 349.28 84.48 361.46 70.02 M 331.82 115.55 C 344.69 101.56 356.83 89.64 372.96 68.91 M 334.51 115.32 C 345.57 100.87 356.89 87.57 372.44 71.17 M 343.08 115.06 C 355.65 101.86 365.05 92.77 383.15 69.49 M 343.66 114.84 C 354.22 102.94 365.1 91.08 381.83 71.68 M 352.89 113.05 C 366.72 100.07 383.02 85.26 392.5 73.87 M 355.74 113.71 C 367.83 99.27 380.51 84.46 391.67 73.72 M 365.95 115 C 369.49 109.88 376.56 102.38 392.51 85.72 M 364.53 114.7 C 374.3 105.07 383.48 94.37 391.17 84.45 M 375.84 116.35 C 380.29 107.91 387.43 101.95 391.9 96.37 M 374.49 114.99 C 379.97 109.75 385.54 104.47 391.74 97.98" fill="none" stroke="#c2bee6" stroke-linejoin="round" stroke-linecap="round" stroke-miterlimit="10" pointer-events="all"/><path d="M 330.73 69.69 C 347.21 69.33 366.1 71.1 388.1 71.52 M 329.82 70.58 C 348.76 71.58 367.15 71.29 388.48 71.97 M 390.88 69.41 C 387.54 79.26 389.77 90.51 389.62 109.48 M 388.3 70.79 C 388.25 81.22 388.25 89.74 388.5 110.33 M 388.41 112.64 C 365.29 109.54 344.7 113.23 330.52 109.55 M 388.2 110.21 C 366.96 111.68 342.74 112.29 328.21 111.52 M 330.6 109.16 C 331.23 98.54 328.3 87.92 328.8 70.94 M 329.47 111.8 C 329.27 102.14 328.47 93.71 329.9 71.12" fill="none" stroke="#324ab2" stroke-width="2" stroke-linejoin="round" stroke-linecap="round" stroke-miterlimit="10" pointer-events="all"/><rect x="389" y="71" width="60" height="40" fill="none" stroke="none" pointer-events="all"/><path d="M 388.89 71.12 C 388.89 71.12 388.89 71.12 388.89 71.12 M 388.89 71.12 C 388.89 71.12 388.89 71.12 388.89 71.12 M 389.37 83.08 C 393.07 79.28 395.2 76.38 399.45 71.27 M 388.63 83.83 C 392.85 78.22 397.43 73 399.53 70.86 M 388.37 96.09 C 393.29 89.74 398.89 81.53 411.08 72.83 M 389.85 94.85 C 395.62 89.18 400.33 81.22 410.35 70.96 M 390.31 105.55 C 400.83 92.09 412.16 80.64 420.41 70.41 M 388.47 106.98 C 398.37 96.49 409.69 85.32 420.99 71.08 M 392.18 113.83 C 405.42 102.93 415.54 88.8 431.54 71.42 M 393.22 115.64 C 409.51 97.59 424.69 79.2 431.7 70.76 M 404.16 112.86 C 420.76 99.19 432.07 79.77 441.47 69.02 M 403.74 115.12 C 416.03 100.68 427.29 88.72 441.73 70.28 M 414.1 112.89 C 427.22 101.54 440.92 85.02 450.93 71.41 M 414.51 113.97 C 424.96 102.91 436.92 89.97 451.91 72.23 M 423.51 116.17 C 429.79 108.28 436.58 100.94 450.85 84.34 M 424.46 114.98 C 434 105.75 441.74 95.68 450.62 84.42 M 437.26 116.22 C 441.71 109.67 447.79 104.43 452.73 96.7 M 436.25 114.88 C 440.62 109.24 443.76 106.36 451.88 97.83" fill="none" stroke="#c2bee6" stroke-linejoin="round" stroke-linecap="round" stroke-miterlimit="10" pointer-events="all"/><path d="M 389.96 71.33 C 404.97 72.7 423.15 69.26 448.89 69.64 M 388.55 71.95 C 407.49 71.99 425.47 70.54 449.67 70.75 M 450.44 71.65 C 449.02 84.43 447.98 96.54 447.02 110.05 M 448.95 71.34 C 448.15 80.74 449.05 90 448.16 110.23 M 447.42 110.9 C 429.89 110.34 412.44 110.81 390.26 112.96 M 448.64 110.06 C 431.28 112.32 411.64 112.27 388.83 111.43 M 388.61 112.14 C 389.19 100.75 390.07 91.64 390.19 69.14 M 389.97 112 C 389.64 96.1 389.8 81.26 388.98 70.45" fill="none" stroke="#324ab2" stroke-width="2" stroke-linejoin="round" stroke-linecap="round" stroke-miterlimit="10" pointer-events="all"/><rect x="449" y="71" width="60" height="40" fill="none" stroke="none" pointer-events="all"/><path d="M 449.31 70.64 C 449.31 70.64 449.31 70.64 449.31 70.64 M 449.31 70.64 C 449.31 70.64 449.31 70.64 449.31 70.64 M 447.75 82.03 C 453.56 79.21 457.89 73.69 457.77 71 M 448.7 82.77 C 451.94 80.24 453.51 77.63 459.93 71.83 M 448.78 96.76 C 452.74 88.21 461.58 84.68 469.9 71.77 M 449.49 95.17 C 456.91 87.19 464.02 77.65 469.39 71.39 M 449.63 108.72 C 457.43 94.65 468.74 83.33 481.05 70.78 M 448.66 107.86 C 455.51 100.05 463.51 91.95 480.42 72.07 M 454.55 113.3 C 467.19 101.57 479.81 85.41 490.81 72.45 M 452.99 115.61 C 462.43 105.77 470.96 94.45 491.69 71.71 M 464.6 115.23 C 475.55 99.31 487.55 86.7 502.08 72.75 M 463.99 115.88 C 473.17 104.23 480.31 94.2 502.73 71.58 M 476.12 115.78 C 486.03 100.81 496.21 90.2 511.96 73.03 M 474.24 114.96 C 484.64 103.24 494.88 91.98 511.95 72.26 M 485.01 115.08 C 494.06 103.69 505.99 90.81 513.09 84.54 M 484.37 114.17 C 494.46 104.78 503.77 94.87 511.69 85 M 494.74 114.09 C 501.82 110.86 505.58 102.83 509.11 98.43 M 494.71 114.68 C 501.65 107.86 506.42 102.11 510.33 97.52" fill="none" stroke="#b8d5ce" stroke-linejoin="round" stroke-linecap="round" stroke-miterlimit="10" pointer-events="all"/><path d="M 448.82 70.29 C 466.65 72.34 480.59 70.01 510.09 72.04 M 448.91 71.21 C 468.21 70.95 487.12 70.92 508.09 70.51 M 509.97 71.9 C 508.34 84.36 507.99 98.3 510.42 111.18 M 508.24 71.54 C 509.92 83.62 509.85 96.5 509.57 111.58 M 510.47 112.69 C 487.98 112.14 470.88 112.07 450.09 110.55 M 508.7 110.92 C 491.63 111.05 474.33 110.73 448.77 110.48 M 449.89 109.86 C 448.56 97.75 447.71 86.88 448.79 69.93 M 449.19 111.99 C 450.02 97.9 448.69 84.26 448.42 70.44" fill="none" stroke="#108473" stroke-width="2" stroke-linejoin="round" stroke-linecap="round" stroke-miterlimit="10" pointer-events="all"/><g fill="#108473" font-family="Ink Free" font-weight="bold" text-anchor="middle" font-size="17px"><text x="478.5" y="95.5">000B</text></g><rect x="509" y="71" width="60" height="40" fill="none" stroke="none" pointer-events="all"/><path d="M 509.07 70.92 C 509.07 70.92 509.07 70.92 509.07 70.92 M 509.07 70.92 C 509.07 70.92 509.07 70.92 509.07 70.92 M 509.99 83.43 C 512.84 77.81 517.28 75.29 519.95 69.99 M 509.43 82.55 C 512.41 79.09 514.69 76.68 519.39 70.44 M 509.18 97.42 C 516.38 90.46 520.64 83.41 529.38 69.95 M 509.13 95.48 C 513.7 89.39 521.19 80.91 531.09 71.06 M 508.95 107.89 C 518.2 96.38 525.67 88.97 542.36 70.4 M 508.86 108.73 C 519.9 94.73 531.11 82.21 540.51 70.3 M 513.57 116.01 C 521.12 104.22 528.64 94.77 550.73 72.74 M 513.43 114.83 C 523.61 103.21 533.1 92.2 552.35 69.91 M 525.7 112.84 C 535 101.9 543.69 92.12 563.34 71.72 M 524.9 113.88 C 537.45 99.04 552.1 82.17 562.38 70.13 M 534.8 113.92 C 545.31 102.8 555.8 90.32 569 74.65 M 534.63 115.19 C 544.81 103.74 553.17 94.35 569.99 72.3 M 547.16 113.24 C 553.35 104.83 564.8 92.88 570.68 85.5 M 544.95 114.6 C 554.54 103.07 564.96 91.83 570.11 84.32 M 556.88 115.2 C 558.58 110.99 564.02 104.17 570.14 95.4 M 555.83 113.73 C 560.67 109.5 564.05 104.35 571.44 96.45" fill="none" stroke="#c2bee6" stroke-linejoin="round" stroke-linecap="round" stroke-miterlimit="10" pointer-events="all"/><path d="M 507.67 69.26 C 524.33 70.78 542.03 69.55 567.3 70.43 M 509.26 70.48 C 528.93 71.1 548.77 70.51 568.5 70.26 M 569.51 72.15 C 566.85 84.29 567.19 96.06 569.81 112.31 M 569.54 71.74 C 568.89 86.5 569.84 101 568.97 110.94 M 569.53 110.48 C 550.07 109.94 529.32 109.32 509.93 112.15 M 568.75 111.77 C 553.99 109.78 537.01 111.19 508.71 111.52 M 507.17 111.58 C 507.93 102.75 509.35 94.11 507.38 70.72 M 508.4 111.99 C 509.59 99.69 508.77 87.25 509.86 70.43" fill="none" stroke="#324ab2" stroke-width="2" stroke-linejoin="round" stroke-linecap="round" stroke-miterlimit="10" pointer-events="all"/><rect x="569" y="71" width="60" height="40" fill="none" stroke="none" pointer-events="all"/><path d="M 568.83 71.19 C 568.83 71.19 568.83 71.19 568.83 71.19 M 568.83 71.19 C 568.83 71.19 568.83 71.19 568.83 71.19 M 568.37 82.38 C 571.47 80.15 572.82 77.43 578.27 69.72 M 569.5 83.09 C 572 78.91 576.57 75.09 579.79 71.41 M 570.25 93.33 C 576.3 88.39 583.61 82.23 588.21 72.89 M 569.42 95.05 C 577.47 86.85 585.18 77.01 590.13 71.49 M 568.92 106.31 C 576.01 98.39 583.29 91.32 599 70.78 M 569.71 106.85 C 577.47 98.43 585.13 89.24 599.94 71.29 M 571.93 115.47 C 582.01 102.87 596.04 91.38 609.99 69.77 M 573.21 114.8 C 584.14 102.64 594.58 89.94 612.35 70.86 M 582.13 115.21 C 593.79 106.02 599.18 95.06 623.96 71.44 M 583.15 114.64 C 594.58 103.36 605.12 90.4 621.38 71.43 M 592.82 112.8 C 604.3 105.86 611.45 95.08 630.68 71.51 M 594.35 114.18 C 602.66 105.89 611.46 96 630.69 71.58 M 604.66 116.15 C 612.24 106.43 623.46 95.11 632.27 86.45 M 604.86 113.79 C 614.78 102.36 626.53 91.54 630.53 85.65 M 614.37 113.07 C 618.69 112.18 621.8 106.57 630.52 97.12 M 616.3 115.54 C 619.03 111.59 623.02 107.04 631.88 98.14" fill="none" stroke="#c2bee6" stroke-linejoin="round" stroke-linecap="round" stroke-miterlimit="10" pointer-events="all"/><path d="M 570.53 72.22 C 586.01 70.42 603.47 70.3 628.5 72.82 M 569.61 71.74 C 589.65 71.26 612.41 72.09 628.92 70.01 M 629.05 72.4 C 630.16 84.22 627.2 97.82 629.2 109.44 M 628.84 71.94 C 627.86 81.37 627.83 91.5 628.38 110.29 M 628.58 112.26 C 608.16 111.74 587.75 110.58 569.77 109.75 M 628.81 110.63 C 614.35 111.72 599.7 110.85 568.65 110.56 M 568.45 109.3 C 567.3 99.74 570.98 89.35 569.97 71.52 M 569.62 111.99 C 567.97 101.49 569.66 90.25 569.3 70.42" fill="none" stroke="#324ab2" stroke-width="2" stroke-linejoin="round" stroke-linecap="round" stroke-miterlimit="10" pointer-events="all"/><rect x="149" y="111" width="60" height="40" fill="none" stroke="none" pointer-events="all"/><path d="M 149.31 110.64 C 149.31 110.64 149.31 110.64 149.31 110.64 M 149.31 110.64 C 149.31 110.64 149.31 110.64 149.31 110.64 M 148.4 124.52 C 152.69 118.31 155.77 114.22 159.69 109.79 M 148.95 123.21 C 151.73 120.83 152.97 117.4 159.57 111.63 M 149.46 137.24 C 156.08 127.84 160 120.67 167.96 112.96 M 149.55 134.53 C 156.37 128.67 162.78 119.01 170.35 112.32 M 147.38 149.4 C 157.04 137.21 167.93 127.15 181.39 110 M 148.56 147.09 C 161.73 133.02 173.77 119.91 179.91 111 M 153.86 155.36 C 163.82 143.15 172.96 129.95 190.9 112.82 M 153.53 155.97 C 161.55 144.39 172.26 134.07 191.25 111.44 M 162.3 154.2 C 170.38 147.2 181.03 138.11 201.28 111.15 M 163.65 155.34 C 171.37 144.89 180.4 135.19 202.31 110.43 M 172.43 155.45 C 182.57 144.12 192.95 136.42 212.61 112.05 M 175.18 155.77 C 186.29 140.87 198.89 127.68 210.89 112.6 M 184.62 155.4 C 189.55 147.41 197.24 141.33 211.54 126.38 M 185.37 155.38 C 192.06 147.78 196.48 140.75 210.66 124.75 M 193.88 153.16 C 198.6 150.22 203.11 143.49 208.8 136.87 M 195.14 155.66 C 198.72 151.1 203.28 144.93 210.33 136.74" fill="none" stroke="#c2bee6" stroke-linejoin="round" stroke-linecap="round" stroke-miterlimit="10" pointer-events="all"/><path d="M 148.25 109.14 C 164.43 109.27 182.69 110.35 208.7 112.59 M 148.15 111.68 C 161.27 111.1 173.87 110.84 209.51 110.6 M 207.15 111.92 C 207.19 122.13 208.97 134.6 210.91 151.36 M 209.77 111.96 C 209.69 123.64 208.37 134.47 208.59 150.86 M 208.16 149.86 C 194.87 149.76 180.82 152.29 148.86 149.64 M 208.51 150.32 C 189.07 151.29 170.29 150.28 148.81 151.81 M 150.83 152.85 C 149.22 137.72 148.93 126.4 147.72 111.33 M 148.16 151.94 C 148.52 137.35 149.38 122.2 148.52 110.06" fill="none" stroke="#324ab2" stroke-width="2" stroke-linejoin="round" stroke-linecap="round" stroke-miterlimit="10" pointer-events="all"/><rect x="209" y="111" width="60" height="40" fill="none" stroke="none" pointer-events="all"/><path d="M 209.08 110.91 C 209.08 110.91 209.08 110.91 209.08 110.91 M 209.08 110.91 C 209.08 110.91 209.08 110.91 209.08 110.91 M 210.64 122.72 C 211.97 119.9 215.16 115.61 218.67 111.97 M 209.67 122.99 C 211.97 119.68 215.51 116.45 219.03 110.25 M 209.86 133.9 C 215.72 130.51 223.07 119.81 231.44 111.14 M 209.18 134.85 C 213.62 130.91 218.38 124.34 230.05 109.99 M 210.7 148.57 C 217.81 138.95 224.85 128.81 242.7 109.62 M 208.76 147.97 C 219.8 136.98 228.72 124.72 240 111.23 M 212.88 154.07 C 225.36 137.04 241.01 121.81 250.82 109.11 M 213.96 155.19 C 222.73 143.07 234.4 131.06 251.9 111.64 M 223.4 155.82 C 237.44 141.04 252.39 126.02 262.55 110.12 M 224.56 155.34 C 237.64 139.7 250.18 125.16 261.96 110.98 M 235.11 153.58 C 249.12 137.76 263.07 119.82 269.65 113.67 M 235.57 154.01 C 246.42 142.68 257.11 129.39 270.93 112.64 M 246.78 153.56 C 254.07 142.53 266.51 131.37 269.13 123.34 M 245.95 153.81 C 252.21 146.5 257.82 140.06 271.08 124.08 M 256.02 154.28 C 259.36 150.65 265.55 145.14 269.83 137.84 M 256.26 154.71 C 259.74 150.44 262.91 146.87 271.44 137.68" fill="none" stroke="#ebbbb6" stroke-linejoin="round" stroke-linecap="round" stroke-miterlimit="10" pointer-events="all"/><path d="M 207.11 112.1 C 226.11 112.91 244.13 111.1 269.9 110.98 M 208.5 110.94 C 221.99 111.25 235.52 110.43 269.93 110.35 M 270.69 112.17 C 270.5 122.06 268.98 136.36 270.3 152.49 M 269.07 110.16 C 268.66 126.52 268.36 140.97 269.99 150.21 M 267.22 151.65 C 252.96 151.56 239.26 149.55 208.7 151.24 M 268.56 151.17 C 251.43 151.22 234.98 151.94 208.75 150.86 M 208.11 150.57 C 208.59 134.72 210.56 121.64 210.31 112.13 M 209.38 151.94 C 208.9 137.14 208.27 125.2 209.96 110.05" fill="none" stroke="#ac3235" stroke-width="2" stroke-linejoin="round" stroke-linecap="round" stroke-miterlimit="10" pointer-events="all"/><g fill="#ac3235" font-family="Ink Free" font-weight="bold" text-anchor="middle" font-size="17px"><text x="238.5" y="135.5">000A</text></g><rect x="269" y="111" width="60" height="40" fill="none" stroke="none" pointer-events="all"/><path d="M 268.84 111.19 C 268.84 111.19 268.84 111.19 268.84 111.19 M 268.84 111.19 C 268.84 111.19 268.84 111.19 268.84 111.19 M 269.02 121.67 C 272.7 120.04 278.09 113.13 280.19 111.71 M 269.74 123.53 C 271.55 119.5 275.79 116.46 279.43 111.22 M 270.93 133.81 C 275.63 128.44 282.03 118.64 290.27 110.08 M 269.48 134.41 C 276.93 128.33 283.94 118.36 291.09 110.42 M 270.67 146.98 C 275.62 140.96 282.47 131.14 299.34 109.99 M 269.61 148.09 C 275.39 140.01 282.79 131.06 301.43 110.22 M 275.25 153.54 C 283.52 145.2 290.06 136.68 310.08 110.14 M 273.74 155.16 C 284.14 140.5 296.76 128.81 311.9 110.6 M 283.84 154.18 C 296.23 141.16 303.87 128.96 323.16 109.85 M 284.81 154.1 C 294.78 143.25 303.21 130.63 322.96 110.28 M 293.13 156.47 C 308.19 140.72 322.88 124.39 331.33 110.53 M 295.29 154.99 C 304.3 142.78 315.47 130.95 331.63 111.92 M 304.28 156.47 C 312.97 144.13 325.18 133.6 330.72 124.29 M 305.86 155 C 312.45 145.8 319.39 137.77 331.5 125.41 M 317.5 156.15 C 319.47 151.84 323.34 147.53 330.21 135.56 M 316.72 154.52 C 321.12 149.06 325.92 142.62 331.89 137.36" fill="none" stroke="#ebbbb6" stroke-linejoin="round" stroke-linecap="round" stroke-miterlimit="10" pointer-events="all"/><path d="M 269.96 111.06 C 283.79 111.35 301.57 110.65 327.11 109.38 M 268.85 110.21 C 282.71 111.41 299.17 112.01 328.35 110.1 M 330.22 112.42 C 329.02 121.99 328.18 134.12 329.69 149.62 M 328.36 110.36 C 329.63 121.39 328.36 129.47 329.4 151.56 M 330.27 149.43 C 315.05 149.36 297.69 150.8 268.53 152.83 M 328.62 150.03 C 313.79 149.96 297.66 150.4 268.69 151.9 M 269.39 152.29 C 267.96 139.72 268.2 128.88 268.91 112.92 M 268.6 151.93 C 269.27 138.94 269.15 128.2 269.4 110.03" fill="none" stroke="#ac3235" stroke-width="2" stroke-linejoin="round" stroke-linecap="round" stroke-miterlimit="10" pointer-events="all"/><g fill="#ac3235" font-family="Ink Free" font-weight="bold" text-anchor="middle" font-size="17px"><text x="298.5" y="135.5">0015</text></g><rect x="329" y="111" width="60" height="40" fill="none" stroke="none" pointer-events="all"/><path d="M 329.25 110.71 C 329.25 110.71 329.25 110.71 329.25 110.71 M 329.25 110.71 C 329.25 110.71 329.25 110.71 329.25 110.71 M 327.32 123.84 C 331.24 118.91 337.08 114.76 339.13 110.69 M 328.18 124.11 C 333.24 118.83 336.78 114.11 340.52 111.48 M 327.34 134.48 C 335.29 126.66 341.15 121.3 349.75 112.26 M 329.12 134.73 C 334.19 130.56 339.55 123.68 350.79 110.09 M 329.99 146.15 C 342.51 135.64 351.65 118.71 359.99 110.37 M 329.8 146.96 C 338.83 134.96 351.21 123.83 360.86 111.21 M 333.61 157 C 344.4 143.85 353.46 129.29 369.35 111.18 M 333.52 155.13 C 344.67 139.93 358.25 126.55 371.9 111.55 M 344.28 156.55 C 351.03 144.51 359.36 135.14 379.77 109.57 M 343.06 154.86 C 358.4 138.81 374.34 121.36 381.96 111.58 M 355.15 155.36 C 367 139.99 378.17 125.57 392.37 112.15 M 355.02 155.98 C 363.98 143.85 373.43 133.71 391.67 111.95 M 365.78 155.38 C 372.09 145.46 384.28 135.31 392.96 124.49 M 365.78 154.19 C 372.31 144.33 380.79 136.48 390.57 123.99 M 374.99 154.02 C 379.73 152.56 381.42 145.29 391.24 136.53 M 375.19 154.32 C 379.64 151.28 383.2 145.25 390.99 136.3" fill="none" stroke="#b8d5ce" stroke-linejoin="round" stroke-linecap="round" stroke-miterlimit="10" pointer-events="all"/><path d="M 328.82 110.03 C 345.47 110.99 363.01 111.39 388.32 111.77 M 329.2 111.47 C 345.43 111.56 360.82 111.6 388.77 111.85 M 389.76 112.67 C 388.33 125.92 388.19 135.88 389.08 150.75 M 389.66 110.57 C 389.4 124.27 389.15 135.97 388.81 150.91 M 389.32 151.22 C 373.14 151.16 356.13 152.06 328.37 150.43 M 388.68 150.89 C 374.14 150.69 360.35 150.86 328.63 150.94 M 330.67 150.01 C 330.53 136.72 329.04 124.11 327.5 109.72 M 329.82 151.93 C 329.65 140.74 330.04 131.19 328.85 110.02" fill="none" stroke="#108473" stroke-width="2" stroke-linejoin="round" stroke-linecap="round" stroke-miterlimit="10" pointer-events="all"/><g fill="#108473" font-family="Ink Free" font-weight="bold" text-anchor="middle" font-size="17px"><text x="358.5" y="135.5">000C</text></g><rect x="389" y="111" width="60" height="40" fill="none" stroke="none" pointer-events="all"/><path d="M 389.02 110.98 C 389.02 110.98 389.02 110.98 389.02 110.98 M 389.02 110.98 C 389.02 110.98 389.02 110.98 389.02 110.98 M 389.64 122.02 C 390.38 120.77 395.98 116.66 400.69 110.43 M 388.93 122.25 C 393.21 117.96 397.25 113.71 399.28 110.8 M 388.4 134.39 C 395.19 128.62 404.07 120.19 408.57 111.2 M 389.41 134.29 C 395.5 127.57 403.09 119.3 409.83 110.52 M 389.3 149.32 C 399.33 137.32 408.67 124.26 421.29 109.99 M 388 147.84 C 396.87 138.32 406.1 128.07 420.95 111.45 M 392.63 155.71 C 406.82 137.75 422.39 125.14 433.27 111.46 M 393.95 154.35 C 405.85 138.61 420.39 123.54 430.55 111.75 M 405.37 154.17 C 418.08 139.11 430.72 123.81 441.04 112.54 M 403.97 154.86 C 416.19 140.38 428.02 126.84 441.61 110.13 M 413.83 153.49 C 426.27 142 437.73 129.71 449.4 113.77 M 415.41 154.21 C 422.17 145.61 431.74 135.32 451.71 113.99 M 423.93 153.53 C 435.41 146.56 443.15 137.3 450.55 125.45 M 426.35 154.62 C 435 145.12 442.61 133.92 450.98 125.32 M 437.13 155.13 C 443.36 149.69 449.6 140.33 451.62 138.26 M 436.3 155.37 C 441.52 147.32 446.55 142.61 451.44 137.98" fill="none" stroke="#b8d5ce" stroke-linejoin="round" stroke-linecap="round" stroke-miterlimit="10" pointer-events="all"/><path d="M 387.68 112.99 C 407.15 109.44 420.45 110.94 449.52 110.16 M 389.55 110.74 C 406.15 110.52 422.47 109.98 449.19 111.61 M 449.3 112.92 C 447.65 125.85 448.19 137.64 448.48 151.88 M 448.96 110.77 C 448.37 125.15 449.14 140.47 448.21 150.27 M 448.38 149.01 C 431.23 148.96 414.57 149.32 388.2 152.03 M 448.73 151.74 C 436.5 150.62 423.04 150.52 388.57 151.98 M 387.95 151.73 C 389.9 141.72 390.68 131.35 390.09 110.51 M 389.03 151.93 C 390.03 142.53 388.92 134.19 388.29 110.01" fill="none" stroke="#108473" stroke-width="2" stroke-linejoin="round" stroke-linecap="round" stroke-miterlimit="10" pointer-events="all"/><g fill="#108473" font-family="Ink Free" font-weight="bold" text-anchor="middle" font-size="17px"><text x="418.5" y="135.5">000D</text></g><rect x="449" y="111" width="60" height="40" fill="none" stroke="none" pointer-events="all"/><path d="M 448.78 111.26 C 448.78 111.26 448.78 111.26 448.78 111.26 M 448.78 111.26 C 448.78 111.26 448.78 111.26 448.78 111.26 M 448.03 124.17 C 454.31 117.5 455.71 113.97 459.01 110.16 M 449 122.79 C 450.69 120.19 453.33 116.95 459.68 111.77 M 448.81 135.05 C 454.63 127.09 462.76 119.34 471.4 110.14 M 449.05 134.61 C 454.59 130.41 460.39 123.39 470.87 110.95 M 449.28 147.74 C 457.09 135.39 466.2 126.7 481.94 110.37 M 448.85 147.96 C 460.79 132.71 472.83 120.49 480.38 110.44 M 455 155.17 C 460.1 145.15 470.56 135.26 492.53 112.5 M 453.73 154.32 C 467.26 138.8 482.75 122.04 490.55 110.7 M 465.81 156.53 C 476 142.47 485.33 129.98 501.65 112.27 M 464.22 155.62 C 474.2 143.93 481.93 134.31 502.61 111.43 M 475.85 156.38 C 485.27 145.04 493.41 134.45 511.08 110.63 M 475.14 155.2 C 482 145.76 490.01 136.99 510.4 113.27 M 485.43 156.44 C 494.5 143.94 502.2 135.09 512.79 125.65 M 484.27 153.81 C 494.89 144.13 504.08 133.08 512.06 123.89 M 494.61 153 C 499.47 146.57 507.39 142.42 512 135.99 M 494.77 155.18 C 499.88 149.42 503.53 145.3 509.89 137.67" fill="none" stroke="#b8d5ce" stroke-linejoin="round" stroke-linecap="round" stroke-miterlimit="10" pointer-events="all"/><path d="M 450.53 111.96 C 464.83 109.08 481.89 111.69 510.73 112.55 M 449.91 110 C 466.87 110.67 486.12 111.57 509.61 111.36 M 508.83 109.17 C 510.96 125.78 508.2 139.39 507.87 149.01 M 508.26 110.97 C 509.33 120.02 509.13 130.97 509.62 151.62 M 507.43 150.79 C 489.32 150.76 473 150.58 448.04 149.62 M 508.79 150.6 C 484.86 151.35 461.72 150.98 448.51 151.02 M 449.23 149.44 C 449.27 138.72 448.32 126.58 448.68 111.3 M 448.25 151.93 C 449.61 136.33 449 121.19 449.73 112" fill="none" stroke="#108473" stroke-width="2" stroke-linejoin="round" stroke-linecap="round" stroke-miterlimit="10" pointer-events="all"/><g fill="#108473" font-family="Ink Free" font-weight="bold" text-anchor="middle" font-size="17px"><text x="478.5" y="135.5">00012</text></g><rect x="509" y="111" width="60" height="40" fill="none" stroke="none" pointer-events="all"/><path d="M 509.19 110.78 C 509.19 110.78 509.19 110.78 509.19 110.78 M 509.19 110.78 C 509.19 110.78 509.19 110.78 509.19 110.78 M 510.09 123.4 C 512.94 118.06 518.54 112.42 519.75 110.65 M 509.78 123.32 C 513.47 117.52 518.29 113.85 519.75 110.56 M 510.78 135.91 C 516.82 127.52 524.07 116.18 531.23 112.23 M 508.1 135.82 C 516.81 126.14 523.36 117.46 531.45 109.86 M 507.24 147.73 C 520.79 137.37 529.25 122.95 541.84 112.1 M 508.16 147.46 C 521.57 134.63 533.56 120.59 541.57 109.73 M 512.69 152.87 C 524.81 141.97 537.16 128.45 550.01 108.77 M 514.51 155.22 C 526.1 138.33 539.82 124.7 552.16 111.17 M 524.49 154.86 C 537.94 137.56 551.77 121.88 560.11 112.45 M 522.75 154.53 C 538.33 139 552.19 122.79 561.58 112.3 M 533.33 154.18 C 544.6 142.07 556.75 127.71 570.79 112.48 M 534.17 155.17 C 544.87 142.59 557.08 129.5 570.31 112.28 M 543.43 154.69 C 554.58 143.05 564.53 134.48 572.74 124.95 M 545.47 154.17 C 554.73 142.89 563.98 132.67 570.23 125.38 M 556.27 156.39 C 559.04 149.31 565.08 145.11 569.95 135.44 M 555.95 155.12 C 562.25 147.99 566.76 141.57 571.43 136.28" fill="none" stroke="#c2bee6" stroke-linejoin="round" stroke-linecap="round" stroke-miterlimit="10" pointer-events="all"/><path d="M 509.39 109.16 C 525.8 110.39 541.58 109.35 569.27 109.18 M 509.63 111.82 C 530.72 110.87 554.39 111.24 568.84 111.92 M 570.64 110.68 C 571.07 124.25 567.52 138.1 570.46 149.89 M 568.81 111.38 C 569.03 125.29 569.34 139.94 568.57 151.37 M 570.59 150.1 C 555.3 150.37 538.59 150.23 508.44 152.75 M 568.04 151.44 C 552.72 151.47 536.82 151.13 509.17 151.94 M 509.38 151.25 C 509.02 140.7 509.95 133.76 509.7 112.77 M 509.05 151.89 C 508.73 135.83 509.26 119.15 509.42 111.74" fill="none" stroke="#324ab2" stroke-width="2" stroke-linejoin="round" stroke-linecap="round" stroke-miterlimit="10" pointer-events="all"/><rect x="569" y="111" width="60" height="40" fill="none" stroke="none" pointer-events="all"/><path d="M 568.96 111.05 C 568.96 111.05 568.96 111.05 568.96 111.05 M 568.96 111.05 C 568.96 111.05 568.96 111.05 568.96 111.05 M 568.47 122.36 C 571.58 120.61 574.08 114.77 578.07 110.39 M 569.85 123.86 C 570.96 119.54 574.37 116.89 580.15 111.52 M 567.85 135.82 C 576.67 125.52 586.92 115.15 590.06 111.17 M 568.39 135.39 C 573.84 128.07 580.36 122.91 590.49 110.29 M 570.56 146.9 C 577.36 139.33 585.77 129.07 602.49 112.48 M 568.36 148.34 C 578.65 136.89 587.27 127.98 601 110.72 M 575.06 156.33 C 585.7 141.38 600.56 125.81 613.27 109.81 M 574.29 155.19 C 587.5 138.52 602.18 123.21 612.16 110.12 M 585.59 156.47 C 597.39 140.92 607.91 128.06 621.38 111.42 M 583.65 154.53 C 595 142.56 606.75 128.27 621.23 110.84 M 596 156.31 C 603.87 144.8 616.32 132.57 631.82 114.1 M 594.55 155.4 C 605.02 142.38 615.34 131.17 630.35 112.31 M 605.58 152.84 C 613.9 144.17 623.38 136.5 630.32 125.9 M 606.04 154.6 C 610.26 147.61 615.49 141.98 630.65 124.71 M 614.41 153.51 C 619.62 149.96 623.16 147.18 630.33 137.16 M 615.06 154.17 C 621.02 149.6 625.89 144.07 631.88 137.97" fill="none" stroke="#c2bee6" stroke-linejoin="round" stroke-linecap="round" stroke-miterlimit="10" pointer-events="all"/><path d="M 568.25 112.13 C 587.48 110.03 603.02 110.1 630.48 111.58 M 569.99 111.09 C 593.44 109.83 616.03 109.62 629.26 111.67 M 630.18 110.93 C 629.59 124.18 626.73 139.86 629.85 151.02 M 628.1 111.58 C 628 120.16 629.33 128.44 629.98 150.72 M 629.64 151.88 C 613.39 152.17 597.02 151.49 568.28 150.34 M 628.09 150.29 C 615.08 151.4 599.51 150.79 569.1 150.99 M 570.66 152.97 C 568.39 137.7 567.59 124.99 568.29 109.56 M 568.26 151.89 C 569.11 137.62 568.14 122.15 568.86 111.72" fill="none" stroke="#324ab2" stroke-width="2" stroke-linejoin="round" stroke-linecap="round" stroke-miterlimit="10" pointer-events="all"/><rect x="149" y="151" width="60" height="40" fill="none" stroke="none" pointer-events="all"/><path d="M 148.78 151.25 C 148.78 151.25 148.78 151.25 148.78 151.25 M 148.78 151.25 C 148.78 151.25 148.78 151.25 148.78 151.25 M 150.12 164.44 C 150.03 159.68 152.64 156.84 159.66 150.05 M 148.38 162.72 C 152.2 159.07 154.71 156.61 159.01 150.82 M 148.32 176.41 C 151.99 168.74 157.28 163.88 168.94 150.03 M 148.1 175.63 C 157.2 165.58 164.11 156.85 169.59 150.65 M 150.59 189.24 C 154.5 181.27 162.72 171.34 179.2 152.78 M 149.27 186.38 C 155.05 179.83 162.17 172.22 180.5 151.64 M 153.49 195.72 C 159.92 184.71 169.67 175.86 192.6 150.77 M 154.13 195.09 C 168.1 177.88 183.73 160.88 192.22 151 M 162.09 194.77 C 172.25 184.2 183.46 174.16 202.06 151.07 M 163.97 195.21 C 172.2 184.04 181.84 173.67 202.3 152.07 M 174.09 195.13 C 182.09 183.05 191.21 172.52 209.57 150.89 M 174.34 194.31 C 182.95 185.17 193.73 173.44 211.11 153.52 M 183.15 195.68 C 192.85 185.69 202.1 174.66 211.97 166.79 M 186.02 195.72 C 191.98 188.83 196.53 181.61 211.13 165.96 M 195.96 195.31 C 199.79 191.07 201.01 185.5 210.77 178.81 M 195.59 193.91 C 199.45 191.62 202.93 186.69 210.39 177.59" fill="none" stroke="#c2bee6" stroke-linejoin="round" stroke-linecap="round" stroke-miterlimit="10" pointer-events="all"/><path d="M 147.11 151.09 C 165.17 149.68 180.46 150.85 207.68 149.97 M 148.34 150.35 C 162.16 149.98 175.68 151.21 209.68 151.43 M 209.71 151.18 C 208.9 168.11 210.74 181.62 209.24 192.15 M 209.4 151.78 C 209.76 163.04 210.13 172.94 209.39 190.07 M 208.7 189.67 C 191.48 189.97 175.46 192.74 148.12 191.94 M 208.15 191.15 C 195.43 190.13 182.2 191.25 149.04 190.03 M 147.94 190.69 C 147.76 182.7 149.23 172.23 150.88 150.36 M 149.48 191.89 C 149.48 179.42 149.02 165.15 148.3 151.71" fill="none" stroke="#324ab2" stroke-width="2" stroke-linejoin="round" stroke-linecap="round" stroke-miterlimit="10" pointer-events="all"/><rect x="209" y="151" width="60" height="40" fill="none" stroke="none" pointer-events="all"/><path d="M 209.2 150.77 C 209.2 150.77 209.2 150.77 209.2 150.77 M 209.2 150.77 C 209.2 150.77 209.2 150.77 209.2 150.77 M 208.49 163.38 C 214.29 159.36 216 153.56 218.56 152.33 M 208.44 163.24 C 212.23 160.29 215.64 156.19 220.08 151.05 M 208.73 177.08 C 216.08 171.03 220.76 162.68 232.43 152.22 M 209.73 175.95 C 213.98 168.21 221.27 162.54 231.29 150.32 M 209.91 188.42 C 222.38 171.67 233.13 158.33 240.5 152.4 M 209.47 187.26 C 218.7 176.54 229.01 164.51 240.59 149.87 M 212.51 194.43 C 225.46 182.6 233.73 167.71 252.52 151.05 M 214.57 194.31 C 221.67 185.31 230.65 175.38 250.87 151.2 M 222.53 193.13 C 238.65 179.55 254.16 159.59 262.67 150.8 M 224.22 195.97 C 237.82 179.6 250.96 164.4 261.29 151.37 M 236.11 194.02 C 240.9 186.32 250.5 177.7 270.6 152.51 M 234.07 195.3 C 242.63 185.5 251.69 175.45 271.15 153.55 M 244.65 194.59 C 251.93 187.07 261.14 176.45 270.22 162.99 M 243.94 194.91 C 252.39 187.93 258.46 178.93 270.2 164.54 M 257.45 193.18 C 263.17 188.2 269.34 180.08 271.8 175.79 M 256.05 195.71 C 261.06 188.29 266.39 182.23 271.49 176.52" fill="none" stroke="#c2bee6" stroke-linejoin="round" stroke-linecap="round" stroke-miterlimit="10" pointer-events="all"/><path d="M 209.97 150.05 C 226.85 152.12 241.9 150.4 268.89 152.36 M 208.69 151.62 C 222.88 152.14 237.33 150.79 268.1 151.18 M 269.25 151.44 C 268.22 160.04 270.74 167.38 268.63 189.28 M 268.7 151.98 C 268.73 165.91 268.12 179.44 268.79 191.42 M 267.75 191.46 C 249.57 191.77 233.89 190 207.95 189.53 M 268.21 190 C 245.79 190.87 220.88 189.71 208.98 191.07 M 209.21 192.41 C 211.13 179.7 210.87 167.46 209.48 151.15 M 208.7 191.88 C 209.86 179.21 209.91 168.15 209.75 151.7" fill="none" stroke="#324ab2" stroke-width="2" stroke-linejoin="round" stroke-linecap="round" stroke-miterlimit="10" pointer-events="all"/><rect x="269" y="151" width="60" height="40" fill="none" stroke="none" pointer-events="all"/><path d="M 268.96 151.05 C 268.96 151.05 268.96 151.05 268.96 151.05 M 268.96 151.05 C 268.96 151.05 268.96 151.05 268.96 151.05 M 267.54 161.59 C 273.25 158 274.96 155.53 280.16 151.97 M 269.18 163.04 C 272.26 159.34 276.17 154.07 278.87 150.4 M 269.79 176.99 C 276.03 168.92 279.79 161.43 291.25 151.15 M 270.03 175.51 C 277.76 165.24 285.27 156.2 290.33 150.75 M 269.23 187.59 C 278.94 173.63 289.65 164.45 301.15 152.77 M 269.66 188.13 C 275.78 178.8 284.72 169.91 300.02 150.86 M 274.87 193.9 C 286.35 177.25 301.12 164.31 311.78 152.09 M 274.34 194.28 C 282.2 184.74 292.14 173.12 310.87 150.15 M 283.62 194.75 C 298.1 178.15 310.3 165.01 323.93 149.77 M 283.12 193.98 C 293.61 183.16 304.65 169.88 322.95 149.92 M 294.79 196.15 C 307.46 179.95 320.64 161.07 331.64 154.13 M 294.46 195.53 C 310.05 176.94 324.47 160.42 331.19 153.59 M 306.8 192.74 C 311.3 188.13 320.08 178.36 331.81 163.95 M 304.51 195.34 C 312.52 186.15 319.75 177.77 330.62 165.87 M 315.59 194.29 C 319.33 188.92 326.92 182.3 332.18 177.51 M 315.17 194.76 C 319.84 189.88 323.57 184.68 331.94 176.21" fill="none" stroke="#b8d5ce" stroke-linejoin="round" stroke-linecap="round" stroke-miterlimit="10" pointer-events="all"/><path d="M 268.82 149.02 C 284.53 151.76 303.34 151.14 330.1 150.75 M 269.04 150.88 C 285.6 152.29 300.98 152.38 328.52 150.93 M 328.79 151.69 C 327.53 159.97 330.75 169.14 328.02 190.41 M 330 150.19 C 329.7 160.79 328.11 167.94 328.2 190.78 M 330.8 189.24 C 311.66 189.58 292.33 191.26 267.79 191.13 M 328.26 190.86 C 306.15 190.8 285.57 191.37 268.92 190.11 M 270.49 190.13 C 270.5 176.7 268.51 158.7 268.07 151.95 M 269.92 191.88 C 269.44 181.01 267.99 171.14 269.19 151.69" fill="none" stroke="#108473" stroke-width="2" stroke-linejoin="round" stroke-linecap="round" stroke-miterlimit="10" pointer-events="all"/><g fill="#108473" font-family="Ink Free" font-weight="bold" text-anchor="middle" font-size="17px"><text x="298.5" y="175.5">0013</text></g><rect x="329" y="151" width="60" height="40" fill="none" stroke="none" pointer-events="all"/><path d="M 328.72 151.32 C 328.72 151.32 328.72 151.32 328.72 151.32 M 328.72 151.32 C 328.72 151.32 328.72 151.32 328.72 151.32 M 329.12 163.74 C 331.88 160.55 333.7 157.89 338.48 151.71 M 329.25 163.58 C 331.34 161.36 333.85 158.7 339.27 151.37 M 330.2 173.65 C 335.47 167.81 342.48 161 350.08 150.09 M 329.67 175.83 C 334.37 168.08 340.08 162.3 349.37 151.18 M 329.2 186 C 340.7 175.71 347.17 166.9 361.79 153.15 M 328.52 188.26 C 340.45 174.53 352.21 161.65 361.45 151.86 M 333.24 193.36 C 340.51 184.65 350.17 174.43 371.05 153.13 M 334.12 194.25 C 343.6 182.18 354.5 170.87 370.87 151.11 M 344.06 193.11 C 352.89 182.27 365.79 171.94 380.55 149.49 M 343.38 194.73 C 351.62 186.72 358.55 177.35 381.95 151.22 M 352.81 195.04 C 366.52 178.92 380.43 165.67 389.32 151 M 354.18 194.52 C 368 179.7 382.96 162.56 391.88 152.87 M 364.3 195.65 C 370.34 189.54 379.05 180.24 390.05 164.15 M 364.43 194.53 C 372.97 185.2 381.75 175 391.69 164.44 M 377.07 196.16 C 379.44 189.81 384.71 184.39 392.56 179.24 M 375.63 194.57 C 380.88 188.51 386.23 180.43 390.39 177.9" fill="none" stroke="#b8d5ce" stroke-linejoin="round" stroke-linecap="round" stroke-miterlimit="10" pointer-events="all"/><path d="M 327.68 151.98 C 346.21 150.2 360.78 150.69 387.3 149.15 M 329.39 150.14 C 346.33 151.25 362.63 150.76 388.94 150.69 M 388.32 151.94 C 390.05 159.9 389.95 170.9 387.41 191.54 M 389.29 150.39 C 389.47 163.67 388.9 174.44 389.61 190.13 M 389.85 191.03 C 369.75 191.38 350.77 192.51 327.63 192.73 M 388.32 191.72 C 368.51 191.53 348.26 189.83 328.86 191.15 M 327.77 191.84 C 329.07 181.7 329.34 169.93 330.66 152.74 M 329.14 191.88 C 329.82 182.8 328.88 174.14 328.63 151.68" fill="none" stroke="#108473" stroke-width="2" stroke-linejoin="round" stroke-linecap="round" stroke-miterlimit="10" pointer-events="all"/><g fill="#108473" font-family="Ink Free" font-weight="bold" text-anchor="middle" font-size="17px"><text x="358.5" y="175.5">0014</text></g><rect x="389" y="151" width="60" height="40" fill="none" stroke="none" pointer-events="all"/><path d="M 389.14 150.84 C 389.14 150.84 389.14 150.84 389.14 150.84 M 389.14 150.84 C 389.14 150.84 389.14 150.84 389.14 150.84 M 388.16 161.94 C 393.02 159.72 397.05 154.44 400.65 150.69 M 389.97 163.36 C 391.82 160.42 395.03 156.36 400.32 151.58 M 390.6 174.32 C 395.12 170.06 401.55 159.72 409.56 152.27 M 389.3 176.14 C 397.92 165.37 406.28 155.73 411.07 150.85 M 388.51 189.17 C 397.47 177.45 404.09 168.58 419.1 148.77 M 388.71 187.13 C 397.76 178.52 406.39 168.51 421.54 150.09 M 392.26 196.07 C 406.05 183.31 414.23 171.04 430.97 149.41 M 394.56 195.47 C 404.79 180.85 416.64 167.85 431.52 151.3 M 405.16 194.73 C 412.34 184.86 421.93 177.36 441.81 152.46 M 404.28 194.74 C 417.02 179.53 429.46 165.32 441.6 149.77 M 415.49 193.18 C 425.78 181.67 435.96 166.57 450.36 152.62 M 414.57 194.75 C 428.1 179.54 441.11 164.36 451.92 152.9 M 425.8 194.56 C 429.22 187.16 437.68 182.5 451.64 165.11 M 424.35 195.71 C 434.64 184.48 442.77 174.67 450.11 165.77 M 434.55 194.04 C 439.74 190.78 442.87 186.35 449.59 176.21 M 436.1 194.37 C 439.43 190.36 445.6 184.66 451.5 176.83" fill="none" stroke="#b8d5ce" stroke-linejoin="round" stroke-linecap="round" stroke-miterlimit="10" pointer-events="all"/><path d="M 390.54 150.94 C 403.89 149.84 422.22 151.44 448.51 151.54 M 389.74 151.41 C 407.05 151.4 426.28 150.35 449.36 150.44 M 447.86 152.19 C 449.36 159.83 449.96 172.66 450.8 192.67 M 448.59 150.59 C 448.44 164.54 448.89 178.94 449.01 191.48 M 448.91 192.82 C 427.84 189.18 409.2 189.77 387.46 190.32 M 448.37 190.57 C 428.86 191.46 410.94 191.49 388.8 190.2 M 389.05 189.56 C 388.44 174.7 386.98 161.17 389.25 149.53 M 388.35 191.88 C 388.2 176.6 389.76 161.14 388.07 151.66" fill="none" stroke="#108473" stroke-width="2" stroke-linejoin="round" stroke-linecap="round" stroke-miterlimit="10" pointer-events="all"/><g fill="#108473" font-family="Ink Free" font-weight="bold" text-anchor="middle" font-size="17px"><text x="418.5" y="175.5">FFFF</text></g><rect x="449" y="151" width="60" height="40" fill="none" stroke="none" pointer-events="all"/><path d="M 448.9 151.11 C 448.9 151.11 448.9 151.11 448.9 151.11 M 448.9 151.11 C 448.9 151.11 448.9 151.11 448.9 151.11 M 449.74 164.09 C 451.65 158.86 455.78 156.58 458.98 150.42 M 448.44 163.9 C 451.4 160.02 455.31 156.16 459.12 150.95 M 447.67 174.23 C 455.03 167.99 460.52 158.55 468.38 151.21 M 449.6 175.71 C 454.93 167.32 461.24 161.23 470.11 151.28 M 448.49 187.59 C 454.56 179.45 461 170.89 479.74 149.14 M 449.56 187.25 C 461.68 172.92 473.1 158.94 480.97 151.08 M 454.62 195.53 C 467.82 177.95 478.5 163.65 490.23 150.44 M 454.33 195.44 C 465.32 181.05 478.13 166.36 491.52 150.26 M 465.6 193.09 C 478.74 180.22 492.63 162.79 502.43 152.19 M 464.53 195.49 C 473.04 183.84 483.36 173.55 502.6 151.07 M 473.51 196.06 C 484.79 183.97 495.67 170.54 512.04 153.48 M 474.3 193.74 C 486.01 180.34 499.54 166.58 510.62 152.18 M 483.96 192.72 C 493.75 182.27 506.95 172.53 509.23 166.06 M 484.92 194.15 C 495.3 182.76 504.55 171.64 510.53 165.1 M 496.7 195.15 C 500.31 191.13 504.93 184.13 509.96 177.93 M 495.21 195.42 C 498.25 190.24 502.83 187.37 511.95 176.52" fill="none" stroke="#ebbbb6" stroke-linejoin="round" stroke-linecap="round" stroke-miterlimit="10" pointer-events="all"/><path d="M 449.4 149.91 C 465.57 153.48 483.66 152.19 509.71 149.93 M 448.09 150.67 C 467.77 151.56 487.93 151.93 509.78 150.19 M 507.4 152.44 C 508.67 163.76 509.97 174.42 510.19 189.8 M 509.89 150.79 C 509.4 159.42 508.88 169.44 508.42 190.83 M 507.96 190.6 C 485.93 190.98 467.64 191.03 447.3 191.92 M 508.43 191.43 C 491.22 190.2 473.63 189.95 448.74 191.24 M 450.33 191.28 C 447.81 179.7 448.62 172.4 447.84 150.33 M 449.57 191.88 C 448.57 178.39 448.65 164.14 449.51 151.65" fill="none" stroke="#ac3235" stroke-width="2" stroke-linejoin="round" stroke-linecap="round" stroke-miterlimit="10" pointer-events="all"/><g fill="#ac3235" font-family="Ink Free" font-weight="bold" text-anchor="middle" font-size="17px"><text x="478.5" y="175.5">0019</text></g><rect x="509" y="151" width="60" height="40" fill="none" stroke="none" pointer-events="all"/><path d="M 509.32 150.63 C 509.32 150.63 509.32 150.63 509.32 150.63 M 509.32 150.63 C 509.32 150.63 509.32 150.63 509.32 150.63 M 508.12 163.04 C 510.28 161.21 514.52 158.73 520.5 150.16 M 508.51 162.84 C 512.58 159.63 515.59 155.96 519.52 151.92 M 508.08 174.89 C 514.48 166.46 523.2 157.7 531.21 150.15 M 509.24 176.02 C 518.23 165.32 524.93 155.67 529.16 151.71 M 507.8 186.76 C 522.18 174.14 530.9 162.46 540.39 149.52 M 509.76 188.13 C 519.54 176.48 529.65 165.58 540.41 152.07 M 512.99 195 C 521.09 185.36 530.67 177.76 549.5 151.48 M 514.11 195.42 C 525.85 180.48 539.61 164.1 551.51 151.21 M 522.04 195.46 C 532.65 183.58 547.24 168.97 563.04 151.91 M 522.78 194.25 C 537.78 178.64 551.61 161.52 561.6 150.37 M 535.53 194.95 C 543.6 183.24 550.96 175.72 573.08 151.1 M 534.02 194.73 C 545.69 182.68 557.5 168.59 570.66 152.22 M 545.46 195.63 C 552.88 183.07 566.09 173.69 571.47 166.27 M 544.84 195.33 C 549.97 187.79 555.56 182.81 571.6 165.68 M 554.18 193.02 C 560.42 192.32 562.72 186.52 570.34 175.66 M 555.68 195.23 C 561.63 188.86 565.84 183.12 570.4 178.2" fill="none" stroke="#c2bee6" stroke-linejoin="round" stroke-linecap="round" stroke-miterlimit="10" pointer-events="all"/><path d="M 508.25 152.87 C 527.25 151.92 541.1 151.74 570.92 152.32 M 508.45 151.94 C 530.49 150.51 551.57 150.32 568.2 151.94 M 570.93 152.69 C 567.19 163.69 569.17 176.18 569.58 190.93 M 569.19 150.99 C 569.17 162.29 569.68 173.93 569.83 190.19 M 567.01 192.39 C 548.02 188.78 526.07 192.29 507.13 189.52 M 568.49 190.29 C 553.58 192.13 536.31 191.62 508.68 190.28 M 507.61 189 C 507.18 176.7 510.26 163.64 510.44 151.12 M 508.79 191.88 C 508.95 178.19 509.53 167.14 508.95 151.64" fill="none" stroke="#324ab2" stroke-width="2" stroke-linejoin="round" stroke-linecap="round" stroke-miterlimit="10" pointer-events="all"/><rect x="569" y="151" width="60" height="40" fill="none" stroke="none" pointer-events="all"/><path d="M 569.08 150.91 C 569.08 150.91 569.08 150.91 569.08 150.91 M 569.08 150.91 C 569.08 150.91 569.08 150.91 569.08 150.91 M 570.36 164.44 C 574.87 157.39 578.11 152.29 579.48 152.34 M 569.24 162.62 C 573.06 158.48 576.76 153.41 578.98 150.53 M 568.48 175.55 C 574.15 169.09 582.35 156.75 590.69 152.33 M 568.88 176.34 C 575.04 167.51 582.12 160.89 590.85 151.38 M 567.12 185.93 C 578.99 175.82 587.91 164.03 601.69 149.14 M 567.95 187 C 576.83 180.5 583.77 170.51 600.5 150.31 M 572.01 193.71 C 583.51 183.25 595.6 169.61 613.42 151.76 M 574.55 194.64 C 587.91 177.16 602.63 161.09 612.17 151.41 M 583.13 193.07 C 592.1 182.94 603.38 175.15 620.3 150.88 M 583.69 194.25 C 596.45 182.2 608.17 169 621.25 150.91 M 594.2 193.09 C 602.92 185.19 610.62 175.75 630.11 152.72 M 594.41 194.96 C 605.84 182.47 615.74 170.29 630.7 152.25 M 603.61 193.78 C 612.2 184.19 620.93 175.73 629.06 163.22 M 605.41 193.77 C 610.14 188.48 616.94 180.08 632.02 165 M 616.32 194.14 C 620.2 188.98 627.2 180.92 631.37 176.63 M 616.79 194.28 C 620.65 190.2 623.47 185.06 631.5 177.14" fill="none" stroke="#c2bee6" stroke-linejoin="round" stroke-linecap="round" stroke-miterlimit="10" pointer-events="all"/><path d="M 567.11 151.84 C 584.93 151.57 602.54 152.49 628.13 150.72 M 568.8 151.2 C 591.21 150.66 613.22 149.9 628.62 151.7 M 630.47 152.94 C 630.5 163.62 629.18 173.94 628.97 192.06 M 628.48 151.19 C 628.14 165.17 629.67 180.43 629.23 191.54 M 630.07 190.17 C 606.11 190.58 580.51 189.54 570.97 191.11 M 628.54 191.14 C 613.94 190.86 599 190.08 568.62 191.32 M 568.89 190.72 C 570.56 181.69 567.9 174.87 569.03 151.92 M 568.01 191.87 C 568.53 179.98 569.61 170.13 568.39 151.63" fill="none" stroke="#324ab2" stroke-width="2" stroke-linejoin="round" stroke-linecap="round" stroke-miterlimit="10" pointer-events="all"/><rect x="149" y="191" width="60" height="40" fill="none" stroke="none" pointer-events="all"/><path d="M 148.9 191.11 C 148.9 191.11 148.9 191.11 148.9 191.11 M 148.9 191.11 C 148.9 191.11 148.9 191.11 148.9 191.11 M 148.63 204.35 C 152.91 198.64 157.15 194.62 159.62 190.31 M 149.42 203.83 C 152.91 199.12 156.69 194.43 160.05 191.6 M 147.18 215.59 C 156.58 204.82 163.43 197.44 169.93 191.1 M 148.64 214.73 C 153.34 209.74 158.57 204.77 170.84 190.98 M 149.8 229.09 C 158.98 213.46 170.83 200.42 181 191.56 M 149.99 227.68 C 155.94 220.04 162.44 212.67 181.09 190.28 M 153.11 236.08 C 166.75 220.75 180.73 203.49 190.3 192.72 M 152.74 234.21 C 167.03 220.13 179.98 205.2 191.18 190.56 M 165.88 235.33 C 174.11 221.95 185.89 206.97 202.83 190.99 M 164.28 235.09 C 173.03 223.95 181.27 214.92 202.28 191.71 M 175.74 234.81 C 186.46 222.71 194.32 213.34 210.53 193.74 M 175.5 234.85 C 188.12 219.01 200.41 204.29 211.32 192.44 M 185.67 235.96 C 191.77 229.18 197.6 222.91 209.07 206.44 M 184.67 234.05 C 190.63 227.18 197.48 219.62 210.25 204.42 M 194.05 233.45 C 199.65 228.15 204.6 224.26 212.74 216.76 M 196.04 234.15 C 200.84 228.97 206.27 221.81 210.45 216.43" fill="none" stroke="#c2bee6" stroke-linejoin="round" stroke-linecap="round" stroke-miterlimit="10" pointer-events="all"/><path d="M 149.97 189.04 C 165.9 192.88 182.23 190.15 210.67 191.35 M 148.53 191.02 C 163.06 190.87 177.49 191.57 209.85 190.26 M 208.28 190.45 C 210.61 202.09 208.5 212.64 207.56 232.94 M 209.03 191.61 C 209.03 202.43 209.08 213.41 208.19 231.29 M 209.23 229.48 C 188.09 230.19 170.09 229.2 147.37 230.24 M 209.79 231.98 C 189.8 230.98 170.1 230.22 149.27 230.24 M 149.04 232.53 C 150.31 219.68 149.53 206.05 150.05 189.38 M 148.8 231.83 C 149.65 221.48 147.87 210.1 148.09 191.36" fill="none" stroke="#324ab2" stroke-width="2" stroke-linejoin="round" stroke-linecap="round" stroke-miterlimit="10" pointer-events="all"/><rect x="209" y="191" width="60" height="40" fill="none" stroke="none" pointer-events="all"/><path d="M 209.32 190.63 C 209.32 190.63 209.32 190.63 209.32 190.63 M 209.32 190.63 C 209.32 190.63 209.32 190.63 209.32 190.63 M 210.21 203.3 C 211.54 200.98 215.88 196.76 217.94 190.05 M 209.49 202.77 C 212.5 198.72 216.97 194.24 218.85 190.97 M 207.59 216.25 C 216.03 207.28 226.12 196.59 228.75 190.04 M 208.28 215.05 C 216.15 207.74 221.77 201.2 229.88 191.41 M 209.12 228.26 C 219.58 216.02 227.42 207.11 241.65 191.93 M 208.18 226.55 C 219.38 214.35 230.86 202.82 240.52 191.27 M 211.47 235.55 C 220.91 224.92 229.78 214.36 249.56 189.76 M 212.51 234.18 C 227.56 219.56 241.47 202.94 251.18 191.51 M 222.31 233.69 C 232.9 226.07 241.37 213.91 263.44 190.71 M 224.53 235.85 C 238.65 218.75 252.4 202.88 261.28 191.01 M 233.76 233.7 C 245.27 225.24 253.61 213.79 271.56 191.36 M 235.23 235.84 C 245.8 219.35 258.37 206.31 271.36 192.47 M 243.17 234.86 C 256.04 224.59 267.01 212.78 271.31 206.65 M 244.59 235.24 C 252.46 226.27 258.82 218.93 271.33 204.99 M 255.53 235.33 C 259.76 229.04 262.38 226.36 269.11 218.49 M 256.5 233.96 C 259.2 229.07 263.25 224.5 270.9 218.12" fill="none" stroke="#ebbbb6" stroke-linejoin="round" stroke-linecap="round" stroke-miterlimit="10" pointer-events="all"/><path d="M 208.83 192.01 C 227.58 192.52 243.67 190.9 267.87 189.74 M 208.88 190.29 C 223.78 191.02 241.14 191.16 268.27 190.01 M 267.81 190.7 C 269.93 202.02 268.51 214.4 270.96 230.07 M 268.33 191.81 C 268.8 205.31 269.87 217.91 269.59 230.64 M 268.28 231.27 C 246.18 231.99 228.53 230.45 207.21 231.83 M 269.85 230.84 C 252.16 229.71 232.79 230.68 209.21 231.28 M 210.32 230.24 C 209.68 220.68 211.17 213.28 208.64 190.18 M 208.02 231.83 C 208.03 221.28 208.75 213.09 209.53 191.35" fill="none" stroke="#ac3235" stroke-width="2" stroke-linejoin="round" stroke-linecap="round" stroke-miterlimit="10" pointer-events="all"/><g fill="#ac3235" font-family="Ink Free" font-weight="bold" text-anchor="middle" font-size="17px"><text x="238.5" y="215.5">FFFF</text></g><rect x="269" y="191" width="60" height="40" fill="none" stroke="none" pointer-events="all"/><path d="M 269.08 190.9 C 269.08 190.9 269.08 190.9 269.08 190.9 M 269.08 190.9 C 269.08 190.9 269.08 190.9 269.08 190.9 M 269.25 201.5 C 270.59 199.37 275.03 198.15 280.12 192.23 M 268.62 202.55 C 272.23 199.99 273.71 198.11 279.91 191.19 M 267.99 216.91 C 271.41 210.43 276.67 205.1 292.24 192.22 M 267.92 215.36 C 273.39 210 277.35 204.56 289.58 191.08 M 268.43 227.43 C 277.09 217.76 285.08 208.76 302.95 191.55 M 268.38 227.43 C 276.68 218.35 285.01 209.7 300.61 191.51 M 274.5 234.26 C 282.45 222.81 293.83 210.22 313.48 190.04 M 272.95 235.4 C 288.75 218.24 303.61 199.93 311.83 191.71 M 283.41 235.31 C 299.96 215.91 312.73 201.82 320.71 189.68 M 283.44 233.85 C 294.44 222.31 306.08 208.36 322.94 191.55 M 296.44 235.83 C 304.59 223.92 309.27 218.53 332.6 192.98 M 295.62 234.07 C 305.93 221.9 318.57 208.79 331.4 192.51 M 305.33 233.02 C 315.33 221.73 325.81 214.85 332.9 203.6 M 305.16 233.67 C 313.18 225.02 320.7 216.29 331.74 204.32 M 317.67 232.44 C 320.53 229.47 324.82 224 330.15 215.46 M 315.62 235.01 C 320.22 230.4 322.87 226.44 332 217.05" fill="none" stroke="#c2bee6" stroke-linejoin="round" stroke-linecap="round" stroke-miterlimit="10" pointer-events="all"/><path d="M 267.68 190.97 C 285.26 190.96 301.11 190.44 329.08 192.13 M 269.23 191.55 C 286.5 189.98 302.79 191.54 328.69 191.76 M 327.35 190.95 C 329.24 205.95 328.51 216.16 330.35 231.2 M 329.63 190.01 C 329.77 200.19 329.86 208.41 329 231.99 M 327.33 229.05 C 308.27 229.79 286.97 231.71 267.05 229.43 M 329.9 231.69 C 312.51 231.64 297.48 230.34 269.15 230.33 M 267.6 231.96 C 269.05 217.68 268.81 208.52 267.23 190.97 M 269.24 231.83 C 268.41 215.07 269.64 200.09 268.97 191.34" fill="none" stroke="#324ab2" stroke-width="2" stroke-linejoin="round" stroke-linecap="round" stroke-miterlimit="10" pointer-events="all"/><rect x="329" y="191" width="60" height="40" fill="none" stroke="none" pointer-events="all"/><path d="M 328.85 191.18 C 328.85 191.18 328.85 191.18 328.85 191.18 M 328.85 191.18 C 328.85 191.18 328.85 191.18 328.85 191.18 M 327.63 203.65 C 331.32 199.29 337.97 195.46 338.44 191.97 M 328.69 203.09 C 332.06 199.8 334.23 196.53 338.71 190.56 M 329.06 216.82 C 335.38 208.3 339.76 203.8 351.06 191.16 M 328.22 214.93 C 334.72 206.99 342.93 200.14 350.62 191.51 M 328.41 225.85 C 334.16 219.77 341.97 211.1 359.6 191.93 M 329.23 227.55 C 341.34 214.73 352.48 200.1 360.04 190.5 M 332.86 233.72 C 348.22 217.46 362.11 202.82 372.75 191.07 M 332.73 235.37 C 341.66 224.42 349.88 215.18 371.83 190.66 M 343.85 233.67 C 354.75 220.02 368.22 208.75 381.32 189.41 M 343.69 234.61 C 352.45 226.63 359.99 216.6 381.93 190.85 M 354.46 234.72 C 366.89 217.84 383.54 201.76 390.28 193.84 M 355.34 235.06 C 365.81 222 376.95 210.32 392.1 191.79 M 366.82 235.93 C 374.23 223.32 384.47 213.08 390.49 204.56 M 365.08 234.86 C 372.83 225.8 381.69 215.49 390.16 205.65 M 375.16 234.31 C 380.63 230.36 382.61 226.1 390.52 217.18 M 376.08 234.81 C 381.6 229.33 385.88 224.5 390.45 216.74" fill="none" stroke="#c2bee6" stroke-linejoin="round" stroke-linecap="round" stroke-miterlimit="10" pointer-events="all"/><path d="M 330.54 189.93 C 346.94 190.61 362.55 191.19 390.29 190.52 M 329.58 190.82 C 347.22 190.13 364.44 191.13 389.11 191.52 M 390.89 191.2 C 387.76 205.88 387.72 217.92 389.74 232.33 M 388.93 190.21 C 389.54 201.06 388.65 212.91 388.41 231.34 M 390.39 230.84 C 366.36 231.59 341.4 228.97 330.88 231.03 M 389.96 230.55 C 374.87 230.37 360.16 230.8 329.09 231.37 M 328.88 229.68 C 327.62 214.68 329.65 199.76 329.82 191.76 M 328.46 231.83 C 328.78 216.87 328.52 203.09 328.41 191.33" fill="none" stroke="#324ab2" stroke-width="2" stroke-linejoin="round" stroke-linecap="round" stroke-miterlimit="10" pointer-events="all"/><rect x="389" y="191" width="60" height="40" fill="none" stroke="none" pointer-events="all"/><path d="M 389.26 190.7 C 389.26 190.7 389.26 190.7 389.26 190.7 M 389.26 190.7 C 389.26 190.7 389.26 190.7 389.26 190.7 M 389.25 202.55 C 393.43 198.34 397.2 194.06 400.66 190.97 M 388.76 203.64 C 391.82 199.15 394.87 195.88 399.76 190.78 M 389.46 217.49 C 395.48 211.01 399.25 203.02 410.54 189.34 M 389.85 215.24 C 393.96 209.66 398.52 203.9 410.32 191.18 M 387.72 229.02 C 401.06 214.45 411.15 198.67 420.24 192.3 M 389.43 228.42 C 398.48 216.3 406.3 206.74 421.48 191.49 M 391.23 233.18 C 401.5 224.86 410.28 216.94 432.01 192.11 M 392.5 235.35 C 403.07 223.85 412.24 212.93 431.83 191.62 M 404.29 236.04 C 413.54 223.38 423.7 210.93 441.93 193.13 M 403.94 235.37 C 415.2 219.43 428.24 204.56 440.93 192.16 M 412.48 233.61 C 424.85 221.11 437.99 206.94 451.32 191.46 M 415.07 234.05 C 423.49 222.33 434.91 212.34 450.14 191.82 M 424.32 234.84 C 433.33 224.68 443.55 214.83 452.73 204.76 M 425 234.05 C 435.3 224.82 443.73 214.66 451.23 204.23 M 436.64 236.18 C 440.02 227.79 446.94 220.97 451.56 218.15 M 436.54 234.62 C 440.13 231.24 443.19 226.82 451.56 217.67" fill="none" stroke="#c2bee6" stroke-linejoin="round" stroke-linecap="round" stroke-miterlimit="10" pointer-events="all"/><path d="M 389.4 192.9 C 404.62 189.05 423.99 190.74 447.49 192.92 M 389.93 190.08 C 407.94 192.29 428.09 190.71 449.53 191.27 M 450.42 191.45 C 447.07 205.81 447.73 219.68 449.13 229.46 M 448.22 190.41 C 448.51 203.94 448.65 219.41 449.81 230.7 M 449.44 232.63 C 424.45 229.39 399.84 230.22 390.72 232.62 M 448.02 231.4 C 435.23 232.31 422.85 230.46 389.03 230.41 M 390.16 231.4 C 386.99 219.67 387.28 206.99 388.41 192.56 M 389.67 231.83 C 388.36 218.66 388.6 206.09 389.85 191.32" fill="none" stroke="#324ab2" stroke-width="2" stroke-linejoin="round" stroke-linecap="round" stroke-miterlimit="10" pointer-events="all"/><rect x="449" y="191" width="60" height="40" fill="none" stroke="none" pointer-events="all"/><path d="M 449.02 190.97 C 449.02 190.97 449.02 190.97 449.02 190.97 M 449.02 190.97 C 449.02 190.97 449.02 190.97 449.02 190.97 M 448.25 204 C 452.44 200.23 452.9 196 458.94 190.69 M 449.48 203.41 C 453.47 198.26 457.05 193.77 460.16 190.14 M 450.53 213.4 C 455.42 208.9 458.27 201.77 469.37 192.28 M 450.15 214.81 C 455.28 206.65 462.09 199.49 469.36 191.61 M 447.04 228.19 C 458.61 216.13 468.89 204.22 481.55 191.92 M 449.62 227.3 C 456.48 220.33 463.13 213.7 481.57 191.72 M 454.25 235.89 C 463.92 223.52 475.21 209.55 491.93 192.39 M 452.94 234.57 C 464.25 222.53 474.38 209.91 492.48 191.82 M 465.39 233.65 C 480.6 217.98 495.06 199.6 503.2 192.1 M 464.85 235.37 C 473.87 222.99 484.8 212.04 502.59 190.7 M 475.16 235.75 C 484.12 223.86 497.54 207.83 512.35 193.08 M 475.46 234.28 C 484.5 224.83 494.04 214.71 510.18 193.86 M 486.48 232.99 C 492.67 225.76 502.45 216.79 510.32 205.72 M 485.57 234.48 C 495.37 223.63 504.91 212.15 511.65 205.56 M 494.78 233.3 C 500.52 228.21 508.87 222.89 511.93 215.88 M 495.66 233.67 C 502 227.29 506.52 222.19 512 217.36" fill="none" stroke="#c2bee6" stroke-linejoin="round" stroke-linecap="round" stroke-miterlimit="10" pointer-events="all"/><path d="M 448.26 191.86 C 466.3 192.69 481.43 191.49 508.7 191.31 M 448.28 191.35 C 470.66 191.24 489.74 191.1 509.95 191.02 M 509.96 191.7 C 510.39 205.74 507.73 221.44 508.52 230.59 M 509.52 190.61 C 509.47 198.81 508.64 207.91 509.22 230.05 M 508.49 230.41 C 494.54 231.19 482.27 231.48 450.56 230.22 M 508.07 230.26 C 485.59 231.04 461.53 230.92 448.97 231.45 M 447.43 229.12 C 450.36 216.67 448.92 202.23 447.01 189.35 M 448.89 231.83 C 448.74 220.46 449.49 209.09 449.29 191.3" fill="none" stroke="#324ab2" stroke-width="2" stroke-linejoin="round" stroke-linecap="round" stroke-miterlimit="10" pointer-events="all"/><rect x="509" y="191" width="60" height="40" fill="none" stroke="none" pointer-events="all"/><path d="M 508.79 191.25 C 508.79 191.25 508.79 191.25 508.79 191.25 M 508.79 191.25 C 508.79 191.25 508.79 191.25 508.79 191.25 M 509.84 202.96 C 512.93 200.16 515.59 193.31 520.46 190.42 M 509.55 203.95 C 513.3 197.87 517.57 193.58 518.96 191.11 M 510.94 214.06 C 514.87 207.36 520.96 200.92 528.2 191.22 M 509.79 215.12 C 514.37 209.48 519.38 203.58 530.4 192.04 M 511.01 226.61 C 519.64 218.2 525.69 206.66 542.19 192.3 M 508.47 227.42 C 518.43 216.68 529.93 204.03 541 190.72 M 512.61 235.36 C 524.81 218.16 538.61 202.16 551.2 189.43 M 512.72 234.54 C 524.78 222.72 535.87 208.42 550.48 190.77 M 525.82 236.02 C 534.52 221.33 549.67 205.78 563.81 191.83 M 523.1 234.13 C 539.49 218.55 553.92 200.76 561.58 192 M 533.18 234.64 C 543.12 222.16 553.23 211.81 570.03 193.95 M 535.18 235.27 C 542.36 224.98 552.33 216.36 570.88 193.14 M 543.98 235.9 C 551.57 227.35 557.11 219.02 571.91 206.68 M 545.49 235.67 C 549.9 228.81 555.66 223.64 570.07 204.89 M 556.26 235.17 C 560.28 229.4 566.3 225.29 572.31 217.61 M 556.12 235.47 C 560.01 229.38 565.15 224.88 570.45 217.05" fill="none" stroke="#c2bee6" stroke-linejoin="round" stroke-linecap="round" stroke-miterlimit="10" pointer-events="all"/><path d="M 507.11 190.83 C 523.98 192.33 542.87 192.24 569.91 189.7 M 508.63 190.61 C 531.38 191.4 553.38 190.68 568.37 190.78 M 569.5 191.95 C 569.7 205.67 567.74 223.2 567.91 231.72 M 568.82 190.81 C 569.24 201.69 569.43 214.41 568.63 231.4 M 567.54 232.2 C 556.63 228.99 540.71 228.74 510.39 231.81 M 568.13 231.12 C 545.94 230.97 524.22 232.59 508.91 230.49 M 508.71 230.84 C 509.73 221.67 510.56 209.46 509.6 190.15 M 508.11 231.82 C 509.12 220.26 508.37 212.08 508.73 191.29" fill="none" stroke="#324ab2" stroke-width="2" stroke-linejoin="round" stroke-linecap="round" stroke-miterlimit="10" pointer-events="all"/><rect x="569" y="191" width="60" height="40" fill="none" stroke="none" pointer-events="all"/><path d="M 569.2 190.77 C 569.2 190.77 569.2 190.77 569.2 190.77 M 569.2 190.77 C 569.2 190.77 569.2 190.77 569.2 190.77 M 568.19 205.2 C 571.74 199.26 574.68 195.17 579.41 189.32 M 567.98 202.85 C 570.91 199.88 573.96 198.1 580.03 191.36 M 567.34 214.73 C 574.51 209.6 580.04 199.62 591.68 189.4 M 569.42 215.44 C 575.4 206.82 583.02 199.09 590.1 189.72 M 570.33 225.78 C 577.13 219.94 583.33 208.34 599.5 191.92 M 568.67 228.3 C 575.73 218.05 584.06 210.3 601.09 190.95 M 575.63 234.07 C 583.62 224.81 592.31 215.52 611.12 189.71 M 573.15 233.76 C 585.97 219.4 598.01 205.41 611.13 190.97 M 582.26 234.39 C 593.31 221.45 605.16 212.71 620.42 191.55 M 583.35 234.88 C 594.62 222.11 606.95 208.24 622.58 191.3 M 595.2 233.53 C 601.93 225.44 612.52 213 631.07 191.57 M 594.91 234.26 C 602.04 225.31 610.29 218.37 630.92 193.17 M 605.48 234.81 C 610.63 228.77 616.09 220.88 630.15 202.88 M 605.4 234.86 C 610.3 227.41 617.54 220.48 631.14 205.46 M 613.75 233.04 C 620.58 230.37 624.47 223.25 629.34 218.58 M 614.58 235.28 C 618.5 231.62 622.39 227.56 631.56 215.98" fill="none" stroke="#c2bee6" stroke-linejoin="round" stroke-linecap="round" stroke-miterlimit="10" pointer-events="all"/><path d="M 569.97 189.79 C 585.66 190.77 600.31 191.78 627.11 192.09 M 568.99 191.88 C 592.1 191.55 615.03 190.27 628.79 190.53 M 629.03 192.2 C 628.21 197.6 626.94 208.96 627.3 232.85 M 628.12 191.01 C 628.21 204.56 629.42 218.9 628.03 230.75 M 630.6 229.99 C 614.72 230.79 599.14 230 570.23 229.41 M 628.19 231.97 C 608.3 231.7 586.91 231.05 568.85 231.53 M 569.99 232.56 C 569.1 218.67 568.2 204.7 568.19 190.94 M 569.33 231.82 C 569.5 222.05 569.26 215.08 568.17 191.28" fill="none" stroke="#324ab2" stroke-width="2" stroke-linejoin="round" stroke-linecap="round" stroke-miterlimit="10" pointer-events="all"/><rect x="28" y="343.5" width="70" height="35" fill="none" stroke="none" pointer-events="all"/><g fill="#324AB2" font-family="Ink Free" font-weight="bold" text-anchor="end" font-size="17px"><text x="95.5" y="365.5">FAT 2</text></g><path d="M 109.88 342.8 L 125.13 340.17 L 125.06 380.59 L 110.92 379.2" fill="none" stroke="none" pointer-events="all"/><path d="M 126.55 339.24 M 126.72 340.23 C 124.08 341.71 120.56 341.88 117.38 341.2 M 127.31 341.02 C 123.53 340.78 120.72 340.51 117.77 341.11 M 119.75 341.47 C 119.68 351.38 118.9 358.89 117.72 382.76 M 117.59 340.88 C 118.74 351.53 117.73 362.44 117.74 380.56 M 117.26 380.94 C 119.96 381.95 122.41 381.79 127.02 380.11 M 118.06 380.62 C 120.78 380.92 123.89 381.22 127.06 380.66" fill="none" stroke="#324ab2" stroke-width="2" stroke-linejoin="round" stroke-linecap="round" stroke-miterlimit="10" pointer-events="all"/><path d="M 108.55 359.24 M 108.72 360.23 C 112.75 361.65 115.91 361.81 117.38 361.2 M 109.31 361.02 C 112.1 360.89 115.85 360.62 117.77 361.11" fill="none" stroke="#324ab2" stroke-width="2" stroke-linejoin="round" stroke-linecap="round" stroke-miterlimit="10" pointer-events="all"/><rect x="139" y="341" width="500" height="40" fill="none" stroke="none" pointer-events="all"/><path d="M 139.62 341.77 C 277.83 342.62 416.62 342.45 638.63 340.4 M 139.17 340.69 C 289.56 340.69 439.65 341.11 638.94 340.84 M 639.92 340.22 C 640.96 349.93 640.28 361.18 638.67 381.99 M 639.26 341.83 C 639.84 357.58 639.62 372.88 639.8 381.21 M 638.55 381.74 C 529.98 382.82 419.69 383.68 139.52 381.29 M 639.22 380.81 C 453.11 383.1 266.67 382.63 139.15 380.82 M 138.7 379.8 C 137.59 372.65 139.11 364.34 140.39 339.99 M 138.56 381.78 C 138.57 367.14 138.48 353.04 138.75 340.99" fill="none" stroke="#324ab2" stroke-width="2" stroke-linejoin="round" stroke-linecap="round" stroke-miterlimit="10" pointer-events="all"/><g fill="#324AB2" font-family="Ink Free" font-weight="bold" text-anchor="middle" font-size="17px"><text x="388.5" y="365.5">· · ·</text></g><rect x="139" y="381" width="500" height="60" fill="none" stroke="none" pointer-events="all"/><g fill="#324AB2" font-family="Ink Free" font-weight="bold" text-anchor="middle" font-size="17px"><text x="388.5" y="415.5">· · ·</text></g><rect x="149" y="661" width="480" height="50" fill="none" stroke="none" pointer-events="all"/><g fill="#324AB2" font-family="Ink Free" font-weight="bold" text-anchor="middle" font-size="17px"><text x="388.5" y="690.5">· · ·</text></g><path d="M 108.63 439.77 L 128.83 440.39 L 128.35 713 L 108.97 712.47" fill="none" stroke="none" pointer-events="all"/><path d="M 126.56 441.24 M 126.27 440.67 C 125.01 441.55 123.34 441.72 118.63 440.7 M 127.13 441.3 C 124.78 441.16 123.34 441.25 117.65 440.71 M 119.01 440.46 C 116.21 514.01 116.55 588.38 118.63 711.24 M 118.14 441.35 C 118.91 514.78 119.51 589.45 118.61 711.74 M 117.92 711.67 C 119.67 710.81 123.15 711.08 127.55 710.25 M 118.09 711.43 C 120.63 710.88 124.04 710.85 126.88 711.41" fill="none" stroke="#324ab2" stroke-width="2" stroke-linejoin="round" stroke-linecap="round" stroke-miterlimit="10" pointer-events="all"/><path d="M 108.56 576.24 M 108.27 575.67 C 111.51 576.51 114.34 576.68 118.63 575.7 M 109.13 576.3 C 110.58 576.29 112.94 576.38 117.65 575.71" fill="none" stroke="#324ab2" stroke-width="2" stroke-linejoin="round" stroke-linecap="round" stroke-miterlimit="10" pointer-events="all"/><rect x="0" y="556" width="98" height="40" fill="none" stroke="none" pointer-events="all"/><g fill="#324AB2" font-family="Ink Free" font-weight="bold" text-anchor="end" font-size="17px"><text x="95.5" y="570.5">Datos de un</text><text x="95.5" y="590.5">directorio</text></g><rect x="149" y="541" width="120" height="40" fill="none" stroke="none" pointer-events="all"/><path d="M 150.71 541.69 C 195.55 540.53 241.38 538.39 268.55 541.47 M 148.27 540.62 C 182.54 540.95 215.38 541.9 269.76 540.8 M 268.06 541.62 C 268.86 550.16 266.89 560.03 268.3 579.63 M 269.13 540.7 C 269.14 552.83 268.81 563.16 269.27 580.28 M 269.35 580.96 C 233.93 581.01 198.65 579.11 150.22 579.3 M 269.08 581.86 C 224.66 581.68 181.31 581.86 148.54 581.86 M 147.09 580.28 C 149.38 565.15 148.86 551.6 149.7 540.08 M 149.98 581.92 C 148.69 569.99 148.74 559.04 148.17 540.22" fill="none" stroke="#324ab2" stroke-width="2" stroke-linejoin="round" stroke-linecap="round" stroke-miterlimit="10" pointer-events="all"/><g fill="#324AB2" font-family="Ink Free" font-weight="bold" text-anchor="middle" font-size="17px"><text x="208.5" y="565.5">FOO</text></g><rect x="329" y="541" width="180" height="40" fill="none" stroke="none" pointer-events="all"/><path d="M 329 540.51 C 398.87 539.81 466.41 539.21 510.59 541.43 M 328.03 540.94 C 397.43 540.08 466.2 540.18 509.86 541.57 M 509.74 542.87 C 508.63 553.82 510.12 568.83 509.26 581.29 M 509.62 541.71 C 508.78 549.21 509.56 557.66 508.3 581.04 M 508.61 581.89 C 441.46 581.57 376.98 580.95 329.4 579.28 M 509.36 580.14 C 464.96 581.3 419.76 580.12 328.24 581.07 M 329.48 580.87 C 330.23 566.15 329.05 547.78 330.66 540.05 M 328.06 581.91 C 329.78 568.96 328.36 558.03 329.37 540.16" fill="none" stroke="#324ab2" stroke-width="2" stroke-linejoin="round" stroke-linecap="round" stroke-miterlimit="10" pointer-events="all"/><g fill="#324AB2" font-family="Ink Free" font-weight="bold" text-anchor="middle" font-size="17px"><text x="418.5" y="565.5">· · ·</text></g><rect x="509" y="541" width="60" height="40" fill="none" stroke="none" pointer-events="all"/><path d="M 508.88 541.13 C 508.88 541.13 508.88 541.13 508.88 541.13 M 508.88 541.13 C 508.88 541.13 508.88 541.13 508.88 541.13 M 508.25 554.77 C 513.76 549.28 516.38 545.53 519.15 541.32 M 508.85 552.54 C 510.55 549.96 513.43 548.34 519.5 541.26 M 507.53 565.57 C 513.88 558.32 522.37 552.2 530.28 542.78 M 509.53 565.79 C 514.8 559.72 520.66 553.24 529.91 540.81 M 508.57 577.57 C 515.7 566.76 522.13 560.56 542.05 541.15 M 510.26 578.23 C 520.04 563.48 532.88 551.65 541.74 540.99 M 512.01 586.55 C 522.67 577.74 527.74 566.45 551.49 540.31 M 512.7 584.44 C 527.99 567.74 541.86 551.68 552.34 540.46 M 523.79 586.14 C 540.48 567.11 553.66 549.13 561.34 541.62 M 524.26 585.14 C 531.64 576.41 540.83 566.14 562.46 541.91 M 536.28 584.04 C 548.62 570.12 560.18 558.86 571.92 544.15 M 535.51 584.66 C 546.82 572.38 558.83 558.15 572.26 542.23 M 545.29 586.65 C 550.71 575.76 558.46 569.46 572.46 554.29 M 545.34 585.47 C 553.92 575.15 563.9 564.4 570.81 555.94 M 556.78 585.35 C 558.39 578.25 565.6 574.27 572.6 566.28 M 555.76 584.37 C 558.92 580.72 561.7 576.99 571.71 567.6" fill="none" stroke="#ebbbb6" stroke-linejoin="round" stroke-linecap="round" stroke-miterlimit="10" pointer-events="all"/><path d="M 507.86 539.47 C 530.73 540.49 556.2 540.99 567.79 539.82 M 508.38 540.21 C 520.39 541.32 534.32 540.85 568.28 541.32 M 569.28 539.12 C 567.95 553.75 570.13 570.59 568.65 582.42 M 568.92 541.91 C 568.55 552.09 568.36 564.16 569.71 580.39 M 567.66 579.68 C 543.99 580.19 524.3 579.03 509.24 580.88 M 569.41 580.99 C 554.74 581.6 543.31 582.15 508.18 580.11 M 510.76 582.59 C 508.8 571.15 509.88 559.01 509.26 540.85 M 509.28 581.9 C 510.16 570.76 509.24 561.03 508.81 540.15" fill="none" stroke="#ac3235" stroke-width="2" stroke-linejoin="round" stroke-linecap="round" stroke-miterlimit="10" pointer-events="all"/><g fill="#ac3235" font-family="Ink Free" font-weight="bold" text-anchor="middle" font-size="17px"><text x="538.5" y="565.5">0009</text></g><rect x="269" y="541" width="60" height="40" fill="none" stroke="none" pointer-events="all"/><path d="M 270.15 540.27 C 293.24 541.83 316.07 541.83 329.38 541.75 M 269.81 541.35 C 286.34 540.36 304.89 541.14 329.88 540.24 M 329.02 542.41 C 328.51 549.5 328.88 557.91 327.47 579.39 M 328.08 540.15 C 329.59 551.51 327.84 562.59 329.53 580.88 M 329.88 580.66 C 307.48 583.22 288.88 580.91 267.26 582.27 M 328.87 581.23 C 308.54 580.69 287.18 580.67 268.45 581.66 M 268.8 579.42 C 268 564.1 267.4 552.36 267.36 541.27 M 269.58 581.8 C 269.62 572.28 269.58 561.92 268.7 541.42" fill="none" stroke="#324ab2" stroke-width="2" stroke-linejoin="round" stroke-linecap="round" stroke-miterlimit="10" pointer-events="all"/><g fill="#324AB2" font-family="Ink Free" font-weight="bold" text-anchor="middle" font-size="17px"><text x="298.5" y="565.5">TXT</text></g><rect x="149" y="581" width="120" height="40" fill="none" stroke="none" pointer-events="all"/><path d="M 149.01 579.23 C 193.85 579.89 239.36 581 270.59 580.15 M 148.17 580.61 C 188.66 583.05 227.72 581.26 268.3 581.99 M 268.55 582.66 C 267.83 589.43 268.88 599.67 270.86 620.52 M 269.38 580.35 C 269.36 594.38 268.63 607.09 268.94 620.23 M 268.94 622.45 C 224.11 621.4 184.39 622.55 147.1 619.86 M 268.92 620.08 C 229.24 621.36 190.54 621.08 148.39 620.7 M 150.08 621.14 C 147.37 609.1 149.04 599.6 149.95 582.07 M 148.8 621.79 C 150 612.07 148.46 604.92 148.14 581.41" fill="none" stroke="#324ab2" stroke-width="2" stroke-linejoin="round" stroke-linecap="round" stroke-miterlimit="10" pointer-events="all"/><g fill="#324AB2" font-family="Ink Free" font-weight="bold" text-anchor="middle" font-size="17px"><text x="208.5" y="605.5">BAR</text></g><rect x="269" y="581" width="60" height="40" fill="none" stroke="none" pointer-events="all"/><path d="M 267.87 582.2 C 292.6 579.91 314.95 582.13 327.8 582.54 M 268.52 581.88 C 289.78 581.47 310.18 581.11 328.72 581.75 M 328.09 582.91 C 331.14 589.36 328.89 601.43 330.25 621.65 M 328.67 580.56 C 328.33 597.26 328.62 611.59 328.34 621.58 M 327.99 620.23 C 307.66 622.82 285.75 619.42 270.93 621.46 M 328.98 620.94 C 311.26 620.15 292.55 619.6 268.33 621.75 M 267.36 622.85 C 270.74 606.1 270.68 594.83 268.54 582.86 M 268.01 621.79 C 268.38 605.87 269.35 591.92 269.58 581.4" fill="none" stroke="#324ab2" stroke-width="2" stroke-linejoin="round" stroke-linecap="round" stroke-miterlimit="10" pointer-events="all"/><g fill="#324AB2" font-family="Ink Free" font-weight="bold" text-anchor="middle" font-size="17px"><text x="298.5" y="605.5">PNG</text></g><rect x="329" y="581" width="180" height="40" fill="none" stroke="none" pointer-events="all"/><path d="M 330.72 581.16 C 396.14 584.71 468.1 584.04 509 580.93 M 328.87 581.14 C 394.81 581.66 462.45 580.73 509.14 581.5 M 507.63 579.16 C 510.46 593.29 508.89 603.19 509.64 622.78 M 509.97 580.76 C 509.29 592.13 508.61 602.09 509.75 620.93 M 507.04 622.02 C 439.07 621.36 370.81 621.42 330.77 619.06 M 509.04 621.79 C 458.07 620.24 408.14 621.41 328.27 620.79 M 328.64 620.57 C 330.11 611.1 328.32 602.07 327.13 579.66 M 329.23 621.79 C 327.96 607.67 329.43 594.91 329.02 581.38" fill="none" stroke="#324ab2" stroke-width="2" stroke-linejoin="round" stroke-linecap="round" stroke-miterlimit="10" pointer-events="all"/><g fill="#324AB2" font-family="Ink Free" font-weight="bold" text-anchor="middle" font-size="17px"><text x="418.5" y="605.5">· · ·</text></g><rect x="509" y="581" width="60" height="40" fill="none" stroke="none" pointer-events="all"/><path d="M 509.01 580.99 C 509.01 580.99 509.01 580.99 509.01 580.99 M 509.01 580.99 C 509.01 580.99 509.01 580.99 509.01 580.99 M 508.29 591.89 C 512.87 590.21 515.17 583.49 518.48 581.42 M 509.76 593.55 C 511.43 590.34 514.34 587.28 519.53 581.43 M 509.65 606.79 C 516.36 596.05 522.26 591.34 529.58 579.7 M 509.64 604.43 C 513.85 597.86 520.7 591.56 531.24 580.7 M 507.09 618.44 C 521.75 602.63 533.88 591.55 539.73 579.55 M 507.94 617.92 C 515.59 609.66 522.72 603.21 540.5 581.43 M 513.36 625.74 C 524.78 611.13 541.01 594.98 551.29 581.68 M 513.9 624.72 C 522.37 614 531.96 603.01 551.81 580.47 M 523.99 626.05 C 532.03 613.85 542.8 600.97 560.72 581.75 M 524.19 624.42 C 535.14 612.12 547.61 599.68 562.97 580.51 M 535.29 625.85 C 547.99 610.69 559.54 594.96 569.95 584.15 M 535.48 624.87 C 549.05 609.13 563.8 591 569.87 583.29 M 546.38 625.79 C 551.41 616.35 560.91 608.26 571.3 594.52 M 545.61 624.67 C 554.39 614.51 563.19 603.87 571.52 594.38 M 556.88 624.96 C 560.42 622.04 562.81 617.88 572.72 608.48 M 555.44 623.72 C 561.82 617.65 566.81 612.73 570.52 607.33" fill="none" stroke="#b8d5ce" stroke-linejoin="round" stroke-linecap="round" stroke-miterlimit="10" pointer-events="all"/><path d="M 509.58 580.12 C 531.96 581.99 553.83 582.43 570.21 579.32 M 509.22 580.41 C 533.22 581.78 555.48 582.28 569.56 581.25 M 567.16 579.41 C 568.97 593.22 568.1 604.95 569.03 619.91 M 569.27 580.96 C 569.06 595.01 569.4 606.59 569.16 620.29 M 570.09 619.8 C 555.84 622.42 542.62 621.93 510.6 620.65 M 569.09 620.65 C 553.97 620.82 537.93 619.72 508.21 621.83 M 509.92 622.29 C 508.68 608.1 509.16 593.3 509.72 580.45 M 508.45 621.79 C 508.34 609.46 508.32 597.91 508.46 581.37" fill="none" stroke="#108473" stroke-width="2" stroke-linejoin="round" stroke-linecap="round" stroke-miterlimit="10" pointer-events="all"/><g fill="#108473" font-family="Ink Free" font-weight="bold" text-anchor="middle" font-size="17px"><text x="538.5" y="605.5">0005</text></g><path d="M 529.39 489.61 L 547.42 492.35 L 547.19 551.67 L 529.6 550.62" fill="none" stroke="none" transform="rotate(90,539,521)" pointer-events="all"/><path d="M 546.09 491.2 M 548.05 491.36 C 545.47 491.86 542.18 491.66 539.29 491.23 M 548.3 490.68 C 545 490.89 541.95 490.96 539.34 491.41 M 539.99 491.12 C 537.75 515.27 538.32 535.62 540.6 549.57 M 538.94 491.35 C 539.53 513.45 539.47 536.98 539.64 551.57 M 538.52 550.98 C 541.67 551.77 543.88 551.63 548.73 551.35 M 538.84 551.07 C 542.35 551.14 545.35 551.12 548.19 551.22" fill="none" stroke="#324ab2" stroke-width="2" stroke-linejoin="round" stroke-linecap="round" stroke-miterlimit="10" transform="rotate(90,539,521)" pointer-events="all"/><path d="M 528.09 521.2 M 530.05 521.36 C 533.76 521.92 536.76 521.71 539.29 521.23 M 530.3 520.68 C 532.7 520.86 535.35 520.92 539.34 521.41" fill="none" stroke="#324ab2" stroke-width="2" stroke-linejoin="round" stroke-linecap="round" stroke-miterlimit="10" transform="rotate(90,539,521)" pointer-events="all"/><rect x="494.5" y="461" width="89" height="40" fill="none" stroke="none" pointer-events="all"/><g fill="#324AB2" font-family="Ink Free" font-weight="bold" text-anchor="middle" font-size="17px"><text x="538.5" y="485.5">Primer clúster</text></g></g></svg>