<?xml version="1.0" encoding="UTF-8"?>
<!DOCTYPE svg PUBLIC "-//W3C//DTD SVG 1.1//EN" "http://www.w3.org/Graphics/SVG/1.1/DTD/svg11.dtd">
<svg xmlns="http://www.w3.org/2000/svg" xmlns:xlink="http://www.w3.org/1999/xlink" version="1.1" width="902px" height="872px" viewBox="-0.5 -0.5 902 872"><defs/><g><rect x="71" y="287.75" width="320" height="481" fill="none" stroke="none" pointer-events="all"/><path d="M 71.21 288.49 C 149.53 290.14 228.81 288.3 389.97 288.41 M 71.04 287.72 C 158.57 287.46 247.44 287.5 391.13 288.4 M 390.27 287.33 C 388.6 412.65 388.37 537.5 391.47 768.44 M 391.21 287.99 C 389.49 434.4 389.2 581.15 391.04 768.77 M 391.48 768.92 C 264.41 765.98 136.73 765.47 69.98 767.87 M 391.34 768.08 C 299.37 766.84 209.39 766.77 70.46 768.84 M 70.64 769.56 C 71.35 649.74 71.28 532.54 71.51 287.52 M 70.88 768.34 C 68.57 662.74 69.41 556.8 71.28 287.49" fill="none" stroke="#324ab2" stroke-width="2" stroke-linejoin="round" stroke-linecap="round" stroke-miterlimit="10" pointer-events="all"/><rect x="91" y="470" width="280" height="20" fill="none" stroke="none" pointer-events="all"/><path d="M 91.22 468.72 C 161.26 469.45 226.97 469.17 369.86 468.64 M 90.94 470.22 C 183.83 469.94 275.73 469.89 370.8 470.38 M 370.5 469.25 C 370.81 476.99 370.72 484.28 370.49 490.04 M 371.73 469.9 C 371.49 476.94 370.34 485.03 370.47 490.85 M 371.28 489.77 C 313.61 490.38 253.43 488.47 91.65 488.59 M 371.7 489.31 C 314.19 492.34 257.49 491.58 90.29 490.38 M 89.56 491.6 C 89.82 483.56 90.8 475.43 92.91 471.45 M 91.99 489.16 C 92.08 484.05 92.14 477.57 90.87 470.15" fill="none" stroke="#c2bee6" stroke-width="2" stroke-linejoin="round" stroke-linecap="round" stroke-miterlimit="10" pointer-events="all"/><rect x="91" y="410" width="280" height="20" fill="none" stroke="none" pointer-events="all"/><path d="M 91.66 410.18 C 159.69 410.29 226.91 410.28 371.28 408.79 M 90.34 410.51 C 202.38 410 313.44 410.14 370.43 410.52 M 370.08 410.99 C 369.45 415.48 372.07 421.79 369.73 429.78 M 371.29 410.89 C 370.27 415.24 371.52 420.96 371.3 429.05 M 371.03 429.26 C 311.5 430.05 248.92 429.36 91.72 428.66 M 370.62 429.77 C 314.49 431.41 257.11 432.79 91.46 430.35 M 89.58 428.64 C 92.13 427.18 92.42 419.74 92.11 411.6 M 91.54 429.2 C 90.15 425.28 91.56 420.85 90.85 410.45" fill="none" stroke="#c2bee6" stroke-width="2" stroke-linejoin="round" stroke-linecap="round" stroke-miterlimit="10" pointer-events="all"/><rect x="91.5" y="430" width="280" height="20" fill="none" stroke="none" pointer-events="all"/><path d="M 90.41 428.59 C 159.7 431.21 229.62 429.82 370.56 429.39 M 91.38 429.39 C 157.98 427.86 225.99 428.66 371.57 430.14 M 369.65 431.49 C 372.36 438.64 372.37 443.91 373.01 448.04 M 372.39 429.29 C 371.38 434.26 370.68 438.48 370.61 449.75 M 370.08 448.93 C 301.74 449.71 232.35 451.25 91.97 451.11 M 371.21 449.55 C 272.35 448.02 172.27 448.98 91.87 450.41 M 92.64 448.07 C 91.26 440.65 92.09 433.15 89.8 429.19 M 92.48 449.2 C 91.25 443.43 91.67 435.95 92.23 430.43" fill="none" stroke="#c2bee6" stroke-width="2" stroke-linejoin="round" stroke-linecap="round" stroke-miterlimit="10" pointer-events="all"/><rect x="91" y="450" width="280" height="20" fill="none" stroke="none" pointer-events="all"/><path d="M 92.1 449.51 C 159.97 448.38 228.93 450.32 372.01 449.87 M 90.67 449.25 C 178.28 448.86 264.47 449.25 370.48 450.57 M 370.96 449 C 372 457.41 371.22 463.22 371.1 468.91 M 370.44 449.7 C 370.39 457.43 370.21 463.27 371.06 469.5 M 372 471.46 C 259.68 469.02 149.97 470.59 91.78 470.43 M 371.66 470.19 C 308.28 468.98 244.15 469.96 90.34 469.58 M 92.28 469.88 C 90.51 464.83 89.22 456.72 90.32 450.66 M 90.77 469.16 C 91.77 462.98 91.33 456.02 91.43 450.16" fill="none" stroke="#c2bee6" stroke-width="2" stroke-linejoin="round" stroke-linecap="round" stroke-miterlimit="10" pointer-events="all"/><rect x="91" y="490" width="280" height="20" fill="none" stroke="none" pointer-events="all"/><path d="M 90.35 490.99 C 159.48 489.29 228.08 486.8 370.79 490.48 M 91.21 489.65 C 189.38 491.02 288.52 492.06 371.13 490.2 M 370.03 489.5 C 370.02 496.57 370.62 505.34 369.88 511.17 M 371.03 490.1 C 370.6 494.44 370.47 500.8 371.87 510.21 M 370.55 511.14 C 308.48 508.67 244.9 509.41 91.53 509.82 M 371.75 509.97 C 265.63 509.88 158.82 510.44 90.25 509.65 M 90.84 509.32 C 92.74 506.3 91.98 498.14 91.5 488.25 M 91.21 509.15 C 89.98 505.12 90.55 499.12 90.31 490.14" fill="none" stroke="#c2bee6" stroke-width="2" stroke-linejoin="round" stroke-linecap="round" stroke-miterlimit="10" pointer-events="all"/><rect x="91.5" y="407.75" width="280" height="162.25" fill="none" stroke="none" pointer-events="all"/><path d="M 91.72 407.25 C 159.38 409.13 230.22 406.56 372.07 407.17 M 91.56 408.42 C 184.7 408.81 278.64 408.72 371.5 407.31 M 371.97 407.99 C 372.76 452.55 373.31 496.48 372.05 570.39 M 371.9 408.03 C 370.32 452.44 370.51 499.37 371.57 570.99 M 370.64 571.28 C 268.33 569.03 163.02 569.59 92.59 571.12 M 370.99 569.33 C 294.2 568.69 216.08 569.16 92.1 569.48 M 90.24 571.48 C 89.54 513.65 91.03 456.97 92.84 406.97 M 92.39 569.21 C 92.16 518.9 92.06 467.85 91.03 408.24" fill="none" stroke="#324ab2" stroke-width="2" stroke-linejoin="round" stroke-linecap="round" stroke-miterlimit="10" pointer-events="all"/><g fill="#324AB2" font-family="Ink Free" font-weight="bold" text-anchor="middle" font-size="17px"><text x="231" y="483.38">Punteros a bloques de datos</text></g><rect x="91" y="330" width="280" height="40" fill="none" stroke="none" pointer-events="all"/><path d="M 92.1 329.11 C 161.29 329.07 229.71 329.07 372.35 329.46 M 91.12 329.65 C 147.83 329.13 205.5 328.07 371.54 329.58 M 370.53 330.54 C 372.91 343.34 372.54 359.98 372.44 368.06 M 371.27 329.75 C 370.74 343.28 370.21 355.31 371.54 370.16 M 370.24 369.21 C 288.6 370.54 209.25 370.54 92.2 370.24 M 371.63 370.14 C 276.27 369.36 180.16 369.58 91.66 370.29 M 89.84 370.18 C 90.56 356.97 92 339.57 91.74 330.23 M 90.03 369.03 C 91.13 361.88 90.11 354.33 90.28 329.32" fill="none" stroke="#c2bee6" stroke-width="2" stroke-linejoin="round" stroke-linecap="round" stroke-miterlimit="10" pointer-events="all"/><g fill="#C2BEE6" font-family="Ink Free" font-weight="bold" text-anchor="middle" font-size="17px"><text x="230.5" y="354.5">Puntero triplemente indirecto</text></g><rect x="91" y="690" width="280" height="37.75" fill="none" stroke="none" pointer-events="all"/><path d="M 91.67 691.49 C 160.49 691.38 229.46 691.9 369.58 690.09 M 90.31 689.81 C 185.65 688.66 280.66 688.91 370.57 690.14 M 371.92 689.79 C 371.75 702.84 369.31 713.29 370.27 726.42 M 371.38 689.15 C 371.06 701.96 371.46 714.41 371.32 727.85 M 372.41 728.98 C 303.99 730.33 234.86 728.52 89.51 727.39 M 371.5 727.45 C 311.48 728.68 252.16 727.99 90.27 727.18 M 90 726.77 C 93.23 716.41 91.86 704.99 91.97 691.85 M 90.38 726.79 C 90.79 716.94 90.25 704.49 91.96 689.36" fill="none" stroke="#c2bee6" stroke-width="2" stroke-linejoin="round" stroke-linecap="round" stroke-miterlimit="10" pointer-events="all"/><g fill="#C2BEE6" font-family="Ink Free" font-weight="bold" text-anchor="middle" font-size="17px"><text x="230.5" y="713.38">Metadatos</text></g><rect x="1" y="32.5" width="520" height="197.5" fill="none" stroke="none" pointer-events="all"/><path d="M 0.25 33.01 C 144.7 30.92 289.16 30.66 521.37 32.55 M 0.96 32.88 C 134.74 30.59 268.38 31.2 521.1 32.75 M 519.12 33.03 C 520.8 74.31 521.97 114.22 519.12 229.18 M 520.33 31.6 C 522.55 90.54 521.7 150.8 521.89 230.78 M 520.68 229.32 C 415.71 229.04 310.68 230.35 1.31 230.79 M 521.1 230 C 344.79 229.04 168.49 228.8 1.09 230.31 M 1.92 230.37 C 1.59 153.16 0.13 77.27 0.16 31.68 M 1.57 230.6 C 2.15 175.39 1.17 118.68 0.26 33.28" fill="none" stroke="#324ab2" stroke-width="2" stroke-linejoin="round" stroke-linecap="round" stroke-miterlimit="10" pointer-events="all"/><rect x="11" y="32.5" width="500" height="37.5" fill="none" stroke="none" pointer-events="all"/><g fill="#324AB2" font-family="Ink Free" font-weight="bold" text-anchor="middle" font-size="17px"><text x="260.5" y="55.75">· · ·</text></g><rect x="331" y="151.25" width="180" height="38.75" fill="none" stroke="none" pointer-events="all"/><path d="M 329.28 151.79 C 389.46 151.9 450.18 151.34 511.94 150.92 M 330.17 151.42 C 392.23 150.75 453.34 150.98 510.91 152.09 M 511.02 152.35 C 511.47 162.17 509.01 170.6 509.25 191.83 M 511.39 151.28 C 511.27 162.1 509.97 171.64 510.84 190.27 M 511.04 188.76 C 461.18 188.67 412.32 188.44 331.53 191.87 M 511.75 190.11 C 470.12 191.84 426.54 191.09 331.02 190.73 M 332.5 189.18 C 331.72 182.21 331.95 171.43 329.98 149.73 M 330.37 189.97 C 329.98 175.21 331.01 160.72 331.32 152" fill="none" stroke="#c2bee6" stroke-width="2" stroke-linejoin="round" stroke-linecap="round" stroke-miterlimit="10" pointer-events="all"/><g fill="#C2BEE6" font-family="Ink Free" font-weight="bold" text-anchor="middle" font-size="17px"><text x="420.5" y="175.13">· · ·</text></g><rect x="141" y="150" width="190" height="40" fill="none" stroke="none" pointer-events="all"/><path d="M 142.13 149.5 C 204.45 151.26 268.23 151.81 329.14 148.06 M 140.52 149.43 C 209.12 150.4 277.33 152.07 331.33 150.59 M 330.56 151.35 C 330.79 161.19 333.02 171.78 332.64 188.96 M 330.69 150.23 C 330.24 164.05 329.96 175.54 330.25 189.62 M 330.1 190.55 C 274.47 190.46 221.14 189.68 141.37 189.46 M 331.8 190.96 C 291.29 189.51 252.85 190.48 140.96 189.77 M 139.78 190.9 C 141.09 174.9 139.58 162.04 142.57 149.28 M 141.58 189.97 C 140.35 176.53 139.88 162.75 140.76 150.74" fill="none" stroke="#c2bee6" stroke-width="2" stroke-linejoin="round" stroke-linecap="round" stroke-miterlimit="10" pointer-events="all"/><g fill="#C2BEE6" font-family="Ink Free" font-weight="bold" text-anchor="middle" font-size="17px"><text x="235.5" y="174.5">· · ·</text></g><rect x="11" y="150" width="130" height="40" fill="none" stroke="none" pointer-events="all"/><path d="M 10.99 148.46 C 52.3 151.41 96.01 153.06 140.35 150.45 M 10.87 150.69 C 61.67 149.96 110.64 149.06 141.75 150.34 M 140.1 151.6 C 140.1 161.12 143.02 173.54 142.03 190.09 M 141.98 150.43 C 142.01 166.93 140.75 182.04 141.65 190.97 M 139.15 188.34 C 99.02 188.28 62.49 190.96 11.21 191.06 M 141.86 189.82 C 91.82 189.64 41.87 188.34 10.89 190.81 M 11.06 188.61 C 10.46 179.9 11.22 173.28 11.16 150.07 M 10.8 189.96 C 10.72 178.32 10.77 165.75 10.2 150.73" fill="none" stroke="#c2bee6" stroke-width="2" stroke-linejoin="round" stroke-linecap="round" stroke-miterlimit="10" pointer-events="all"/><g fill="#C2BEE6" font-family="Ink Free" font-weight="bold" text-anchor="middle" font-size="17px"><text x="75.5" y="174.5">· · ·</text></g><rect x="11" y="70" width="130" height="40" fill="none" stroke="none" pointer-events="all"/><path d="M 12.71 69.64 C 55.89 71.61 96.8 71.73 142.32 70.49 M 11.12 70.37 C 46.59 70.4 83.45 70.34 141.65 69.58 M 142.41 70.35 C 140.33 77.46 139.79 88.74 141.08 108.44 M 141.5 69.43 C 141.57 80.55 141.19 91.55 140.62 110.21 M 139.88 111.4 C 110.05 111.31 81.29 108.71 12.03 111.08 M 141.58 109.54 C 101.6 109.88 61.57 109.94 11.2 109.6 M 12.66 108.02 C 10.4 94.9 11.83 77.1 10.2 70.1 M 10.71 109.97 C 11.63 97.34 11.15 86.76 11 70.79" fill="none" stroke="#c2bee6" stroke-width="2" stroke-linejoin="round" stroke-linecap="round" stroke-miterlimit="10" pointer-events="all"/><g fill="#C2BEE6" font-family="Ink Free" font-weight="bold" text-anchor="middle" font-size="17px"><text x="75.5" y="94.5">· · ·</text></g><rect x="331" y="71.25" width="180" height="38.75" fill="none" stroke="none" pointer-events="all"/><path d="M 331.56 69.86 C 390.1 70.31 451.3 71.53 509.52 70.13 M 331.47 70.89 C 383.66 72.68 437.79 72.05 510.07 70.58 M 511.95 71.85 C 509.63 78.36 509.79 91.17 510.47 109.57 M 510.79 70.88 C 510.54 84.27 511.19 96.48 510.02 109.56 M 512.94 109.19 C 468.76 109.1 422.97 109.95 331.86 108.67 M 511.63 110.39 C 459.63 110.9 409.61 110.69 331.14 110.65 M 329.94 109.74 C 328.99 100.25 328.68 89.02 332.79 72.15 M 331.93 109.97 C 332.01 99.46 332.03 90.4 330.44 72.02" fill="none" stroke="#c2bee6" stroke-width="2" stroke-linejoin="round" stroke-linecap="round" stroke-miterlimit="10" pointer-events="all"/><g fill="#C2BEE6" font-family="Ink Free" font-weight="bold" text-anchor="middle" font-size="17px"><text x="420.5" y="95.13">· · ·</text></g><rect x="141" y="70" width="190" height="40" fill="none" stroke="none" pointer-events="all"/><path d="M 140.42 71.57 C 205.08 69.7 265.35 72.04 330.73 71.27 M 141.82 70.9 C 202.13 68.62 262.93 69.42 330.49 69.08 M 331.49 70.85 C 332.16 81.33 329.01 88.26 329.86 110.7 M 330.09 69.83 C 330.3 86.3 331.97 100.54 331.43 110.91 M 331.99 110.98 C 282.36 110.88 232.42 111.19 141.7 110.27 M 331.69 109.25 C 282.31 108.55 232.95 110.06 141.08 109.69 M 141.22 111.46 C 142.35 96.9 140.3 79.57 141.39 71.69 M 141.15 109.97 C 140.39 100.94 140.92 92.75 141.88 70.76" fill="none" stroke="#c2bee6" stroke-width="2" stroke-linejoin="round" stroke-linecap="round" stroke-miterlimit="10" pointer-events="all"/><g fill="#C2BEE6" font-family="Ink Free" font-weight="bold" text-anchor="middle" font-size="17px"><text x="235.5" y="94.5">· · ·</text></g><rect x="91" y="510" width="279.5" height="60" fill="none" stroke="none" pointer-events="all"/><g fill="#324AB2" font-family="Ink Free" font-weight="bold" text-anchor="middle" font-size="17px"><text x="230.25" y="544.5">· · ·</text></g><rect x="1" y="0" width="520" height="20" fill="none" stroke="none" pointer-events="all"/><g fill="#324AB2" font-family="Ink Free" font-weight="bold" text-anchor="middle" font-size="17px"><text x="260.5" y="14.5">Directorio</text></g><rect x="12" y="110" width="129" height="40" fill="none" stroke="none" pointer-events="all"/><path d="M 13.71 110.69 C 61.99 109.45 111.25 107.32 140.55 110.47 M 11.27 109.62 C 48.01 109.97 83.33 110.92 141.76 109.8 M 140.06 110.62 C 140.86 119.16 138.89 129.03 140.3 148.63 M 141.13 109.7 C 141.14 121.83 140.81 132.16 141.27 149.28 M 141.35 149.96 C 103.3 149.95 65.39 148.05 13.22 148.3 M 141.08 150.86 C 93.37 150.69 46.72 150.87 11.54 150.86 M 10.09 149.28 C 12.38 134.15 11.86 120.6 12.7 109.08 M 12.98 150.92 C 11.69 138.99 11.74 128.04 11.17 109.22" fill="none" stroke="#324ab2" stroke-width="2" stroke-linejoin="round" stroke-linecap="round" stroke-miterlimit="10" pointer-events="all"/><g fill="#324AB2" font-family="Ink Free" font-weight="bold" text-anchor="middle" font-size="17px"><text x="76" y="134.5">Nº de Inodo</text></g><rect x="331" y="111.25" width="180" height="38.75" fill="none" stroke="none" pointer-events="all"/><path d="M 331 110.76 C 400.87 110.06 468.41 109.46 512.59 111.68 M 330.03 111.19 C 399.43 110.33 468.2 110.43 511.86 111.82 M 511.74 113.12 C 510.63 123.65 512.12 138.25 511.26 150.29 M 511.62 111.96 C 510.78 119.19 511.57 127.36 510.3 150.04 M 510.61 150.89 C 443.46 150.57 378.98 149.95 331.4 148.28 M 511.36 149.14 C 466.96 150.3 421.76 149.12 330.24 150.07 M 331.48 149.87 C 332.22 135.64 331.03 117.76 332.66 110.3 M 330.06 150.91 C 331.78 138.32 330.36 127.75 331.37 110.41" fill="none" stroke="#324ab2" stroke-width="2" stroke-linejoin="round" stroke-linecap="round" stroke-miterlimit="10" pointer-events="all"/><g fill="#324AB2" font-family="Ink Free" font-weight="bold" text-anchor="middle" font-size="17px"><text x="420.5" y="135.13">Nombre de archivo</text></g><rect x="141" y="110" width="190" height="40" fill="none" stroke="none" pointer-events="all"/><path d="M 142.15 109.27 C 214.91 111.57 287.42 111.58 331.38 110.75 M 141.81 110.35 C 198.02 109.78 256.24 110.57 331.88 109.24 M 331.02 111.41 C 330.51 118.5 330.88 126.91 329.47 148.39 M 330.08 109.15 C 331.59 120.51 329.84 131.59 331.53 149.88 M 331.88 149.66 C 265.02 153.07 201.95 150.75 139.26 151.27 M 330.87 150.23 C 264.81 150.71 197.7 150.7 140.45 150.66 M 140.8 148.42 C 140 133.1 139.4 121.36 139.36 110.27 M 141.58 150.8 C 141.62 141.28 141.58 130.92 140.7 110.42" fill="none" stroke="#324ab2" stroke-width="2" stroke-linejoin="round" stroke-linecap="round" stroke-miterlimit="10" pointer-events="all"/><g fill="#324AB2" font-family="Ink Free" font-weight="bold" text-anchor="middle" font-size="17px"><text x="235.5" y="134.5">Longitud del nombre</text></g><rect x="91" y="570" width="280" height="40" fill="none" stroke="none" pointer-events="all"/><path d="M 90.12 571.09 C 183.55 568.88 276.49 567.93 371.43 569.11 M 91.17 569.97 C 148.36 570.16 204.58 569.02 370.36 570.07 M 369.63 571.85 C 372.61 581.05 372.23 595.3 371.42 611.23 M 371.28 570.63 C 370.97 579.81 370.74 590.54 371.06 610.32 M 371.92 610.09 C 281.15 609.98 191.09 608.55 91.03 608.97 M 371.7 610.52 C 269.97 610.5 169.86 610.83 90.87 609.89 M 92.34 610.33 C 89.83 596.9 92.86 584.51 89.75 570.87 M 90.02 609.96 C 91.1 598.12 91.65 588.75 91.64 570.71" fill="none" stroke="#324ab2" stroke-width="2" stroke-linejoin="round" stroke-linecap="round" stroke-miterlimit="10" pointer-events="all"/><g fill="#324AB2" font-family="Ink Free" font-weight="bold" text-anchor="middle" font-size="17px"><text x="230.5" y="594.5">Puntero a bloque indirecto</text></g><rect x="91.5" y="610" width="280" height="40" fill="none" stroke="none" pointer-events="all"/><path d="M 91.28 608.81 C 161.65 609.39 229.97 610.42 372.36 610.05 M 90.75 609.3 C 166.52 610.59 241.8 610.28 372.06 610.13 M 373.36 609.48 C 371.59 618.3 370.06 628.04 369.88 650.99 M 372.01 609.68 C 371.25 621.71 370.36 631.41 371.35 650.93 M 372.82 650.24 C 280.66 651.08 191.69 649.82 92.97 650.51 M 370.86 650.43 C 273.4 650.26 176.08 649.82 92.24 650.15 M 90.4 650.33 C 93.21 637.04 91.9 628.04 93.06 610.84 M 90.73 649.21 C 91.81 640.33 92.19 632.51 90.71 610.52" fill="none" stroke="#324ab2" stroke-width="2" stroke-linejoin="round" stroke-linecap="round" stroke-miterlimit="10" pointer-events="all"/><g fill="#324AB2" font-family="Ink Free" font-weight="bold" text-anchor="middle" font-size="17px"><text x="231" y="634.5">Puntero doblemente indirecto</text></g><rect x="91.5" y="370" width="280" height="40" fill="none" stroke="none" pointer-events="all"/><path d="M 90.4 371.08 C 159.87 370.46 228.01 369.27 370.22 368.82 M 91.02 370.27 C 172.07 367.38 254.59 368.16 370.85 369.94 M 372.89 369.74 C 370.9 378.23 370.07 389.8 373.27 408.12 M 371.3 369.88 C 371.02 384.59 371.15 397.91 370.76 410.29 M 372.09 408.54 C 275.53 409.38 180.09 410.77 92.85 408.67 M 370.9 409.55 C 280.84 409.33 189.41 408.68 92.2 409.42 M 91.68 408.04 C 92.58 394.04 93.53 379.28 91.65 371.64 M 91.95 409.21 C 91.39 394.13 90.27 379.51 92.15 370.51" fill="none" stroke="#324ab2" stroke-width="2" stroke-linejoin="round" stroke-linecap="round" stroke-miterlimit="10" pointer-events="all"/><g fill="#324AB2" font-family="Ink Free" font-weight="bold" text-anchor="middle" font-size="17px"><text x="231" y="394.5">Metadatos</text></g><rect x="91.5" y="650" width="280" height="40" fill="none" stroke="none" pointer-events="all"/><path d="M 90.84 648.7 C 160.67 652.45 228.26 650.73 372.99 651.25 M 91.83 650.11 C 190.25 652.14 289.9 651.61 371.82 649.37 M 371.5 650.49 C 372.05 662.02 373.29 671.08 371.45 691.52 M 371.2 650.48 C 372.72 663.21 371.93 677.41 370.98 690.34 M 372.98 689.59 C 263.2 690.4 154.49 690.54 92.47 689.28 M 371.03 689.99 C 301.64 692.05 230.94 690.78 92.06 690.28 M 91.52 689.2 C 89.89 681.04 89.65 672.98 91.43 650.02 M 91.61 689.2 C 92.52 679.52 90.92 666.5 92.47 650.47" fill="none" stroke="#324ab2" stroke-width="2" stroke-linejoin="round" stroke-linecap="round" stroke-miterlimit="10" pointer-events="all"/><g fill="#324AB2" font-family="Ink Free" font-weight="bold" text-anchor="middle" font-size="17px"><text x="231" y="674.5">Puntero triplemente indirecto</text></g><rect x="71" y="257.75" width="320" height="20" fill="none" stroke="none" pointer-events="all"/><g fill="#324AB2" font-family="Ink Free" font-weight="bold" text-anchor="middle" font-size="17px"><text x="230.5" y="272.25">Tabla de inodos</text></g><rect x="791" y="810" width="110" height="60" fill="none" stroke="none" pointer-events="all"/><path d="M 790.72 808.19 C 818.72 808.54 844.84 808.61 900.34 809.8 M 790.32 809.34 C 814.85 811.31 838.29 810.97 900.42 809.51 M 902.64 810.25 C 900.94 824.42 899.61 838.72 902.05 870.57 M 900.92 810.71 C 900.14 825.75 901.08 841.66 900.09 870.26 M 901.57 868.84 C 872.85 870.18 842.08 869.51 791.19 870.55 M 900.15 870.53 C 866.65 869.04 834.33 868.97 791.83 870.66 M 790.68 870.47 C 790.67 849.52 792.72 832.29 791.27 810.63 M 790.86 869.15 C 791.01 848.01 791.1 827.12 790.63 810.1" fill="none" stroke="#324ab2" stroke-width="2" stroke-linejoin="round" stroke-linecap="round" stroke-miterlimit="10" pointer-events="all"/><g fill="#324AB2" font-family="Ink Free" font-weight="bold" text-anchor="middle" font-size="17px"><text x="845.5" y="844.5">Datos</text></g><rect x="451" y="630" width="110" height="80" fill="none" stroke="none" pointer-events="all"/><path d="M 449.58 631.15 C 476.4 628.58 506.28 629.76 561.55 628.19 M 450.67 630.61 C 476.63 631.75 504.08 630.84 560.84 629.27 M 562.18 630.51 C 560.31 649.6 559.68 670.99 561.44 711.7 M 560.22 630.91 C 562.34 656.76 562.3 684.42 561.5 709.62 M 560.62 710.63 C 530.16 707.97 498.95 710.76 451.03 708.14 M 560.2 709.38 C 530.21 709.53 499.43 711.18 451.77 709.71 M 451.96 708.19 C 450.15 692.56 450.46 675.59 449.87 631.42 M 450.08 709.15 C 451.61 684.09 452.2 658.69 450.07 630.09" fill="none" stroke="#324ab2" stroke-width="2" stroke-linejoin="round" stroke-linecap="round" stroke-miterlimit="10" pointer-events="all"/><g fill="#324AB2" font-family="Ink Free" font-weight="bold" text-anchor="middle" font-size="17px"><text x="505.5" y="654.5">Bloque de</text><text x="505.5" y="674.5">Punteros</text><text x="505.5" y="694.5">indirectos</text></g><rect x="621" y="640" width="110" height="80" fill="none" stroke="none" pointer-events="all"/><path d="M 622.43 640.11 C 648.08 640.42 673.72 638.7 732.76 640.58 M 621.03 639.87 C 650.42 639.99 677.86 638.5 731.26 639.02 M 731.72 640.76 C 729.84 660.23 729.9 680.15 730.83 718.83 M 731.52 639.11 C 731.04 656.37 732.02 672.39 730.91 720.97 M 729.68 718.42 C 697.46 719.77 665.82 718.01 620.87 719.74 M 730.26 720.24 C 701.77 719.82 674.52 719.2 621.71 720.75 M 619.24 719.91 C 619.63 696.08 622.21 673.88 622.46 638.22 M 621.3 719.15 C 620.54 697.34 619.64 674.59 621.52 640.08" fill="none" stroke="#324ab2" stroke-width="2" stroke-linejoin="round" stroke-linecap="round" stroke-miterlimit="10" pointer-events="all"/><g fill="#324AB2" font-family="Ink Free" font-weight="bold" text-anchor="middle" font-size="17px"><text x="675.5" y="664.5">Bloque de</text><text x="675.5" y="684.5">Punteros</text><text x="675.5" y="704.5">directos</text></g><rect x="621" y="750" width="110" height="80" fill="none" stroke="none" pointer-events="all"/><path d="M 620.15 748.04 C 647.44 750.5 676.6 751 731.17 751.37 M 621.73 750.4 C 654 750.87 687.43 750.24 730.1 750.52 M 730.79 751.26 C 731.3 775.49 728.75 796.47 729.61 831.09 M 730.11 749.51 C 732.03 777.59 731.06 804.33 731.72 829.67 M 731.78 831.99 C 696.08 829.36 655.56 830.52 620.54 828.93 M 730.37 829.95 C 708.9 830.6 684.71 829.44 621.59 830.83 M 621.8 829.35 C 620.99 809.14 620.11 788.47 619.64 749.8 M 621.74 829.14 C 621.61 813.83 621.72 796.38 620.4 750.05" fill="none" stroke="#324ab2" stroke-width="2" stroke-linejoin="round" stroke-linecap="round" stroke-miterlimit="10" pointer-events="all"/><g fill="#324AB2" font-family="Ink Free" font-weight="bold" text-anchor="middle" font-size="17px"><text x="675.5" y="774.5">Bloque de</text><text x="675.5" y="794.5">Punteros</text><text x="675.5" y="814.5">directos</text></g><rect x="491" y="520" width="110" height="80" fill="none" stroke="none" pointer-events="all"/><path d="M 489.01 519.25 C 518.42 521.59 546.3 518.43 599.71 522 M 491.46 520.22 C 531.34 519.12 572.67 519.96 601.33 519.09 M 602.6 518.77 C 601.35 543.36 602.01 563.98 602.21 601.96 M 600.66 519.93 C 600.49 539.05 600.04 559.69 600.67 599.42 M 600.94 601.29 C 570.82 598.85 540.66 600.05 490.94 598.06 M 601.62 600.79 C 571.26 600.98 538.81 599.84 490.25 599.75 M 491.95 601.16 C 490.75 568.73 491.76 540.86 490.66 521.27 M 490.53 599.1 C 490.91 583.21 492.16 566.12 490.09 519.79" fill="none" stroke="#324ab2" stroke-width="2" stroke-linejoin="round" stroke-linecap="round" stroke-miterlimit="10" pointer-events="all"/><g fill="#324AB2" font-family="Ink Free" font-weight="bold" text-anchor="middle" font-size="17px"><text x="545.5" y="544.5">Bloque de</text><text x="545.5" y="564.5">Punteros</text><text x="545.5" y="584.5">directos</text></g><rect x="791" y="720" width="110" height="60" fill="none" stroke="none" pointer-events="all"/><path d="M 791.86 718.21 C 816.1 719.43 843.74 717.38 900.92 720.39 M 791.81 719.49 C 835.13 719.56 876.46 719.83 901.75 720.84 M 902.13 719.02 C 900.93 737.99 902.28 755.13 901.6 779.09 M 901.96 720.13 C 901.37 738.33 899.95 757 900.08 780.77 M 900 779.08 C 868.13 780.65 837.53 781.31 790.78 779.65 M 901.67 779.65 C 872.82 779.26 843.9 779.86 790.19 780.79 M 789.22 778.87 C 790.36 763.62 789.63 747.89 789.25 718.06 M 791.75 779.1 C 791.3 758.05 791.05 735.21 791.53 719.78" fill="none" stroke="#324ab2" stroke-width="2" stroke-linejoin="round" stroke-linecap="round" stroke-miterlimit="10" pointer-events="all"/><g fill="#324AB2" font-family="Ink Free" font-weight="bold" text-anchor="middle" font-size="17px"><text x="845.5" y="754.5">Datos</text></g><rect x="791" y="640" width="110" height="60" fill="none" stroke="none" pointer-events="all"/><path d="M 790.72 641.18 C 817.78 639.47 845.18 638.52 902.12 638.78 M 790.16 640.75 C 814.91 640 838.24 639.7 900.17 640.59 M 901.67 639.27 C 900.35 658.27 902.39 677.59 900.99 700.22 M 901.26 640.33 C 901.4 662.58 901 686.24 901.49 700.13 M 899.05 700.87 C 865.43 698.44 834.4 698.56 790.62 701.25 M 901.73 700.5 C 876.38 699.75 851 700.08 790.12 699.84 M 790.5 700.59 C 789.78 678.89 791.32 655.65 791.84 638.86 M 790.97 699.1 C 790.55 678.57 790.81 659.65 790.97 639.77" fill="none" stroke="#324ab2" stroke-width="2" stroke-linejoin="round" stroke-linecap="round" stroke-miterlimit="10" pointer-events="all"/><g fill="#324AB2" font-family="Ink Free" font-weight="bold" text-anchor="middle" font-size="17px"><text x="845.5" y="674.5">Datos</text></g><rect x="791" y="530" width="110" height="60" fill="none" stroke="none" pointer-events="all"/><path d="M 789.58 530.14 C 819.46 529.51 846.62 529.67 899.33 531.18 M 790.51 530.02 C 816.7 530.44 842.02 531.57 900.59 530.34 M 901.21 529.52 C 899.77 548.55 902.5 570.05 900.38 591.36 M 900.56 530.53 C 900.23 544.82 900.85 559.47 900.89 589.48 M 902.1 588.65 C 866.74 590.24 827.27 589.81 790.45 588.85 M 901.79 589.36 C 877.94 590.04 856.09 590.1 790.06 590.88 M 791.78 588.31 C 789.21 576.15 789.02 561.41 790.44 529.65 M 790.18 589.1 C 791.01 571.09 789.77 554.1 790.42 529.76" fill="none" stroke="#324ab2" stroke-width="2" stroke-linejoin="round" stroke-linecap="round" stroke-miterlimit="10" pointer-events="all"/><g fill="#324AB2" font-family="Ink Free" font-weight="bold" text-anchor="middle" font-size="17px"><text x="845.5" y="564.5">Datos</text></g><rect x="791" y="780" width="110" height="30" fill="none" stroke="none" pointer-events="all"/><g fill="#324AB2" font-family="Ink Free" font-weight="bold" text-anchor="middle" font-size="17px"><text x="845.5" y="799.5">· · ·</text></g><rect x="791" y="587.75" width="110" height="52.25" fill="none" stroke="none" pointer-events="all"/><g fill="#324AB2" font-family="Ink Free" font-weight="bold" text-anchor="middle" font-size="17px"><text x="845.5" y="618.38">· · ·</text></g><rect x="791" y="420" width="110" height="60" fill="none" stroke="none" pointer-events="all"/><path d="M 790.15 421.03 C 816.5 421.43 846.94 420.91 902.95 420.35 M 791.57 419.81 C 824.07 421.55 857.38 420.98 901.85 419.6 M 899.82 420.27 C 900.84 443.39 901.64 467.43 902.55 480.75 M 900.45 419.13 C 899.93 435.55 901.62 451.18 901.12 479.54 M 899.26 480.01 C 858.66 477.62 817.87 479.56 789.96 479.64 M 901.96 479.93 C 864.63 481.31 827.38 480.55 791.88 480 M 791.62 479.47 C 791.48 459.94 790.09 442.7 790.21 418.03 M 791.84 479.09 C 792.38 456.65 790.66 431.44 790.74 419.72" fill="none" stroke="#324ab2" stroke-width="2" stroke-linejoin="round" stroke-linecap="round" stroke-miterlimit="10" pointer-events="all"/><g fill="#324AB2" font-family="Ink Free" font-weight="bold" text-anchor="middle" font-size="17px"><text x="845.5" y="444.5">Datos</text><text x="845.5" y="464.5">Bloque 2</text></g><rect x="791" y="480" width="110" height="50" fill="none" stroke="none" pointer-events="all"/><g fill="#324AB2" font-family="Ink Free" font-weight="bold" text-anchor="middle" font-size="17px"><text x="845.5" y="509.5">· · ·</text></g><rect x="791" y="350" width="110" height="60" fill="none" stroke="none" pointer-events="all"/><path d="M 791.87 348.96 C 819.86 349.31 845.82 351 901.36 351.14 M 790.27 350.34 C 827.64 350.23 866.94 350.52 900.69 349.11 M 902.89 350.77 C 902.48 361.95 900.67 378.35 901.33 409.01 M 901.05 349.53 C 900.79 374.04 900.53 397.64 901.93 410.24 M 901.37 409.59 C 879.27 411.21 855.61 408.07 789.63 408.83 M 900.07 409.64 C 869.75 409.89 837.57 408.59 791.76 410.09 M 790.18 408.9 C 789.13 392.47 792.28 376.23 791.4 349.62 M 790.27 409.09 C 790.09 389.69 791.38 370.34 791.62 349.7" fill="none" stroke="#324ab2" stroke-width="2" stroke-linejoin="round" stroke-linecap="round" stroke-miterlimit="10" pointer-events="all"/><g fill="#324AB2" font-family="Ink Free" font-weight="bold" text-anchor="middle" font-size="17px"><text x="845.5" y="374.5">Datos</text><text x="845.5" y="394.5">Bloque 1</text></g><rect x="12" y="190" width="499" height="37.5" fill="none" stroke="none" pointer-events="all"/><g fill="#324AB2" font-family="Ink Free" font-weight="bold" text-anchor="middle" font-size="17px"><text x="261" y="213.25">· · ·</text></g><rect x="91" y="727.75" width="280" height="40" fill="none" stroke="none" pointer-events="all"/><g fill="#324AB2" font-family="Ink Free" font-weight="bold" text-anchor="middle" font-size="17px"><text x="230.5" y="752.25">· · ·</text></g><rect x="91" y="287.75" width="280" height="42.25" fill="none" stroke="none" pointer-events="all"/><g fill="#324AB2" font-family="Ink Free" font-weight="bold" text-anchor="middle" font-size="17px"><text x="230.5" y="313.38">· · ·</text></g><path d="M 44.25 150 L 44 368 L 78.78 369.46" fill="none" stroke="none" pointer-events="stroke"/><path d="M 89.27 369.91 L 74.98 376.31 L 78.78 369.46 L 75.57 362.32 Z" fill="none" stroke="none" pointer-events="all"/><path d="M 43.17 148.99 M 42.74 150.55 C 42.29 204.95 41.12 261.93 44.29 368.98 M 44.41 150.28 C 45.71 194.09 45.94 239.01 44.74 367.26 M 44.19 368.25 C 53.59 370.01 61.15 370.22 79.92 370.61 M 43.94 368.02 C 54.83 368.99 66.03 369.33 78.45 369.26" fill="none" stroke="#324ab2" stroke-width="2" stroke-linejoin="round" stroke-linecap="round" stroke-miterlimit="10" pointer-events="stroke"/><path d="M 75.34 362.58 C 75.34 362.58 75.34 362.58 75.34 362.58 M 75.34 362.58 C 75.34 362.58 75.34 362.58 75.34 362.58 M 79.52 369.73 C 80.76 368.71 82.08 367.54 82.4 366.62 M 79.27 370.23 C 80.55 368.75 81.73 367.58 82.77 366.47" fill="none" stroke="#324ab2" stroke-linejoin="round" stroke-linecap="round" stroke-miterlimit="10" pointer-events="all"/><path d="M 88.61 369.5 M 88.88 370.98 C 84.87 372.67 79.97 373.71 75.95 377.64 M 89.61 370.17 C 84.64 372.3 78.95 373.95 74.59 376.01 M 75.72 376.69 C 76.85 373.77 76.98 371.55 79.04 369.01 M 74.89 376.43 C 76.19 375.07 76.66 372.74 78.44 369.28 M 79.02 369.15 C 77.85 367.56 77.31 366.23 75.27 361.81 M 78.39 369.43 C 77.91 367.78 77.05 365.71 75.82 362.13 M 76.5 363.64 C 79.84 365.27 84.85 367.6 88.62 371.16 M 75.77 362.76 C 78.7 364.82 83.05 366.35 89.74 369.88" fill="none" stroke="#324ab2" stroke-width="2" stroke-linejoin="round" stroke-linecap="round" stroke-miterlimit="10" pointer-events="all"/><path d="M 731 650 L 778.44 642.09" fill="none" stroke="none" pointer-events="stroke"/><path d="M 788.79 640.37 L 776.14 649.57 L 778.44 642.09 L 773.83 635.76 Z" fill="none" stroke="none" pointer-events="all"/><path d="M 729.92 650.01 M 730.3 648.12 C 741.61 648.56 749.89 646.74 780.05 643.85 M 731.51 649.76 C 741.86 647.3 753.32 647.21 777.82 642.86" fill="none" stroke="#324ab2" stroke-width="2" stroke-linejoin="round" stroke-linecap="round" stroke-miterlimit="10" pointer-events="stroke"/><path d="M 773.78 635.82 C 773.78 635.82 773.78 635.82 773.78 635.82 M 773.78 635.82 C 773.78 635.82 773.78 635.82 773.78 635.82 M 778.21 642.37 C 779.85 642.11 780.28 639.98 782.74 638.22 M 778.3 642.33 C 779.81 641.09 781.56 639.27 782.6 638.25" fill="none" stroke="#324ab2" stroke-linejoin="round" stroke-linecap="round" stroke-miterlimit="10" pointer-events="all"/><path d="M 789.07 639.53 M 789.26 639.43 C 782.71 643.79 780.46 646.63 775.97 648.22 M 788.14 640.47 C 785.1 642.13 781.14 645.82 776.23 650.19 M 776.02 648.94 C 775.91 648.75 776.53 647.16 777.85 642.3 M 776.31 649.31 C 776.55 646.79 777.73 644.24 778.33 641.96 M 778.96 642.08 C 776.38 640.59 775.29 638.48 773.34 636.49 M 778.25 642.48 C 776.8 640.47 775.39 638.39 774.1 635.82 M 773.27 634.76 C 778.69 635.63 781.61 637.35 790.17 641.54 M 773.96 635.95 C 777.46 636.24 781.36 638.63 788.14 640.93" fill="none" stroke="#324ab2" stroke-width="2" stroke-linejoin="round" stroke-linecap="round" stroke-miterlimit="10" pointer-events="all"/><path d="M 371 590 L 480 526.42" fill="none" stroke="none" pointer-events="stroke"/><path d="M 489.07 521.13 L 480.5 534.23 L 480 526.42 L 473.45 522.13 Z" fill="none" stroke="none" pointer-events="all"/><path d="M 369.92 590.35 M 371.98 591.28 C 408.95 567.89 443.41 544.52 478.04 525.72 M 370.94 589.58 C 412.97 565.2 453.81 541.45 479.55 525.73" fill="none" stroke="#324ab2" stroke-width="2" stroke-linejoin="round" stroke-linecap="round" stroke-miterlimit="10" pointer-events="stroke"/><path d="M 473.6 521.95 C 473.6 521.95 473.6 521.95 473.6 521.95 M 473.6 521.95 C 473.6 521.95 473.6 521.95 473.6 521.95 M 479.79 526.29 C 481.71 525.48 482.53 523.31 485.02 521.77 M 480.51 526.23 C 481.68 525.44 482.09 524.32 484.87 521.17" fill="none" stroke="#324ab2" stroke-linejoin="round" stroke-linecap="round" stroke-miterlimit="10" pointer-events="all"/><path d="M 489.67 522.81 M 488.78 521.6 C 484.71 527.05 483.6 531.56 479.96 534.07 M 489.13 520.65 C 485.43 526.31 481.76 531.04 481.27 534.64 M 480.09 533.78 C 480.35 531.88 480.77 528.95 480.69 526.33 M 480.76 534.11 C 480.32 531.16 480.06 528.98 479.97 526.57 M 480.61 525.99 C 479.05 525.86 477.2 524.36 473.94 521.7 M 479.88 526.69 C 477.89 525.29 476.38 524.01 473.47 522.01 M 472.39 522.45 C 479.61 520.62 485 519.89 488 520.18 M 473.04 522.24 C 477.85 521.85 482.16 521.4 488.57 521.89" fill="none" stroke="#324ab2" stroke-width="2" stroke-linejoin="round" stroke-linecap="round" stroke-miterlimit="10" pointer-events="all"/><path d="M 731 660 L 781.99 710.99" fill="none" stroke="none" pointer-events="stroke"/><path d="M 789.42 718.42 L 774.57 713.47 L 781.99 710.99 L 784.47 703.57 Z" fill="none" stroke="none" pointer-events="all"/><path d="M 729.92 660.69 M 729.66 660.44 C 743.35 673.42 757.99 686.65 780.45 711.84 M 730.38 659.39 C 747.42 675.75 764.78 692.9 781.72 710.84" fill="none" stroke="#324ab2" stroke-width="2" stroke-linejoin="round" stroke-linecap="round" stroke-miterlimit="10" pointer-events="stroke"/><path d="M 774.63 713.4 C 774.63 713.4 774.63 713.4 774.63 713.4 M 774.63 713.4 C 774.63 713.4 774.63 713.4 774.63 713.4 M 781.58 716.28 C 784.44 714.36 786.24 711.42 789.72 707.45 M 782.58 716.15 C 784.94 714.29 786.63 711.34 789.49 707.74" fill="none" stroke="#324ab2" stroke-linejoin="round" stroke-linecap="round" stroke-miterlimit="10" pointer-events="all"/><path d="M 790.33 718.62 M 788.37 717.17 C 783 715.46 779.23 713.63 773.65 714.51 M 790.2 718.93 C 784.4 716.04 779.71 715.75 774.45 713.66 M 773.87 713.21 C 778.04 711.85 780.37 711.3 782.4 710.6 M 774.92 713.48 C 777.7 712.2 780.04 711.82 782.04 710.63 M 782.69 711.71 C 783.01 710.25 782.78 708.13 784.38 703.56 M 781.94 711.14 C 782.82 708.92 783.72 706.88 784.24 703.27 M 782.92 702.07 C 787.7 708.4 788.24 715.85 789.03 718.49 M 785.08 703.59 C 785.85 709.2 788.34 714.17 789.07 717.81" fill="none" stroke="#324ab2" stroke-width="2" stroke-linejoin="round" stroke-linecap="round" stroke-miterlimit="10" pointer-events="all"/><path d="M 730.01 762 L 780.99 802.12" fill="none" stroke="none" pointer-events="stroke"/><path d="M 789.24 808.62 L 773.91 805.46 L 780.99 802.12 L 782.57 794.46 Z" fill="none" stroke="none" pointer-events="all"/><path d="M 728.93 763.03 M 730.35 761.61 C 749.68 777.99 770.22 791.37 779.88 800.51 M 730.83 761.2 C 744.72 773.6 756.51 783.49 780.89 802.5" fill="none" stroke="#324ab2" stroke-width="2" stroke-linejoin="round" stroke-linecap="round" stroke-miterlimit="10" pointer-events="stroke"/><path d="M 782.55 794.49 C 782.55 794.49 782.55 794.49 782.55 794.49 M 782.55 794.49 C 782.55 794.49 782.55 794.49 782.55 794.49 M 780.29 810.33 C 780.79 807.76 783.09 805.3 786.15 801.99 M 778.96 810.18 C 781.68 807.69 784.42 804.65 787.03 802.4" fill="none" stroke="#324ab2" stroke-linejoin="round" stroke-linecap="round" stroke-miterlimit="10" pointer-events="all"/><path d="M 790.46 807.35 M 790.56 808.79 C 782.92 807.44 778.62 806.53 772.61 804.56 M 789.17 808.55 C 785.28 807.96 781.91 806.97 774.47 805.44 M 774.48 805.38 C 775.5 804.64 777.37 803.57 781.11 801.43 M 773.56 805.61 C 775.25 804.46 777.33 804.25 781.12 802.04 M 780.22 802.42 C 781.89 798.81 782.78 796.83 781.9 794.86 M 781 802.15 C 781.65 799.94 781.99 797.22 782.87 794.77 M 783.65 794.28 C 782.78 797.25 784.44 801.48 789.52 809.7 M 782.64 794.4 C 784.67 799.7 787.49 805.3 789.03 808.21" fill="none" stroke="#324ab2" stroke-width="2" stroke-linejoin="round" stroke-linecap="round" stroke-miterlimit="10" pointer-events="all"/><path d="M 600.01 528 L 778.26 529.87" fill="none" stroke="none" pointer-events="stroke"/><path d="M 788.76 529.98 L 774.69 536.83 L 778.26 529.87 L 774.84 522.83 Z" fill="none" stroke="none" pointer-events="all"/><path d="M 598.93 529.37 M 598.03 526.77 C 651.02 530.78 705.09 531.71 777.58 529.8 M 600.27 527.02 C 637 527.05 673.61 527.23 778.34 530.79" fill="none" stroke="#324ab2" stroke-width="2" stroke-linejoin="round" stroke-linecap="round" stroke-miterlimit="10" pointer-events="stroke"/><path d="M 774.86 522.81 C 774.86 522.81 774.86 522.81 774.86 522.81 M 774.86 522.81 C 774.86 522.81 774.86 522.81 774.86 522.81 M 779.22 530.4 C 780.38 528.87 780.65 527.96 781.85 526.82 M 779.06 530.31 C 779.87 529.15 780.44 528.49 782.25 526.56" fill="none" stroke="#324ab2" stroke-linejoin="round" stroke-linecap="round" stroke-miterlimit="10" pointer-events="all"/><path d="M 790.3 531.23 M 789.32 528.43 C 783.2 533.27 778.99 536.25 776.15 537.12 M 789.4 529.34 C 784.96 531.56 780.41 535.07 774.36 536.59 M 774.97 536.94 C 776.28 533.58 777.89 531.83 778.1 530.44 M 774.43 537.11 C 775.57 534.85 776.47 533.55 778.47 530.07 M 777.58 529.75 C 777.38 527.31 776.16 525.69 775.15 522.07 M 778.34 529.77 C 777.49 527.83 776 525.47 774.88 522.96 M 775.42 523.96 C 777.61 524.81 783.14 526.93 789.72 528.95 M 774.36 522.68 C 778.94 524.81 782.03 526.66 788.7 529.77" fill="none" stroke="#324ab2" stroke-width="2" stroke-linejoin="round" stroke-linecap="round" stroke-miterlimit="10" pointer-events="all"/><path d="M 561 639.04 L 609.26 639.8" fill="none" stroke="none" pointer-events="stroke"/><path d="M 619.75 639.96 L 605.65 646.74 L 609.26 639.8 L 605.87 632.75 Z" fill="none" stroke="none" pointer-events="all"/><path d="M 559.92 640.75 M 560.7 640.97 C 571 640.15 582.35 638.82 609 641.28 M 560.7 639.87 C 577.05 638.53 594.95 639.1 609.51 639.26" fill="none" stroke="#324ab2" stroke-width="2" stroke-linejoin="round" stroke-linecap="round" stroke-miterlimit="10" pointer-events="stroke"/><path d="M 605.77 632.87 C 605.77 632.87 605.77 632.87 605.77 632.87 M 605.77 632.87 C 605.77 632.87 605.77 632.87 605.77 632.87 M 610.01 640.52 C 611.17 638.69 611.68 638.01 613.6 636.17 M 609.79 640.42 C 610.84 639.04 611.89 638.34 613.01 636.46" fill="none" stroke="#324ab2" stroke-linejoin="round" stroke-linecap="round" stroke-miterlimit="10" pointer-events="all"/><path d="M 621.6 639.73 M 619.55 639.83 C 614.41 641.2 609.83 644.41 606.73 648.23 M 619.54 640.31 C 617.04 641.53 613.83 642.89 606 646.29 M 605.64 647.03 C 607.43 645.12 607.52 643.58 608.82 640.07 M 605.48 646.37 C 606.99 644.58 607.52 643.01 609.54 639.5 M 608.67 639.26 C 608.38 637.74 606.82 636.24 605.59 632.41 M 609.41 639.58 C 607.81 637.67 606.8 635.49 605.66 632.7 M 605.96 632.07 C 609.58 635.33 614.18 636.97 618.26 639.94 M 606.41 632.52 C 610.48 634.16 615.28 636.5 619.84 639.95" fill="none" stroke="#324ab2" stroke-width="2" stroke-linejoin="round" stroke-linecap="round" stroke-miterlimit="10" pointer-events="all"/><path d="M 561 650 L 614.45 739.08" fill="none" stroke="none" pointer-events="stroke"/><path d="M 619.85 748.08 L 606.64 739.68 L 614.45 739.08 L 618.65 732.48 Z" fill="none" stroke="none" pointer-events="all"/><path d="M 559.92 651.2 M 561.67 649.52 C 574.13 673.04 587.93 697.69 615.59 738.51 M 560.37 650.73 C 575.31 677.44 591.68 703.69 614.55 738.38" fill="none" stroke="#324ab2" stroke-width="2" stroke-linejoin="round" stroke-linecap="round" stroke-miterlimit="10" pointer-events="stroke"/><path d="M 606.67 739.65 C 606.67 739.65 606.67 739.65 606.67 739.65 M 606.67 739.65 C 606.67 739.65 606.67 739.65 606.67 739.65 M 612.47 742.99 C 616.56 741.99 617.19 738.58 621.55 734.56 M 613.57 744.5 C 614.52 742.35 616.61 740.06 621.54 734.6" fill="none" stroke="#324ab2" stroke-linejoin="round" stroke-linecap="round" stroke-miterlimit="10" pointer-events="all"/><path d="M 620.6 747.34 M 618.61 747.75 C 614.31 743.82 611.49 741.21 605.69 739.26 M 619.69 748.27 C 616.25 745.61 611.9 743.79 606.29 739.2 M 606.53 739.34 C 609.12 739.7 612.18 738.89 614.03 738.99 M 606.84 739.95 C 608.61 739.45 609.6 739.62 614.11 739.42 M 614.31 738.68 C 615.98 737 615.98 736.2 618.04 731.8 M 614.5 739.31 C 615.84 736.7 618.06 733.95 618.36 732.41 M 617.2 732.56 C 617.8 736.23 618.75 742.98 620.72 748.5 M 618.19 731.95 C 618.95 738.63 619.94 744.29 620.06 747.72" fill="none" stroke="#324ab2" stroke-width="2" stroke-linejoin="round" stroke-linecap="round" stroke-miterlimit="10" pointer-events="all"/><path d="M 371.5 630 L 438.26 630" fill="none" stroke="none" pointer-events="stroke"/><path d="M 448.76 630 L 434.76 637 L 438.26 630 L 434.76 623 Z" fill="none" stroke="none" pointer-events="all"/><path d="M 370.42 631.54 M 369.85 628.69 C 397.72 628.94 422.82 628.26 439.83 630.98 M 372.31 630.55 C 387.87 630.45 403.78 630.46 438.54 629.84" fill="none" stroke="#324ab2" stroke-width="2" stroke-linejoin="round" stroke-linecap="round" stroke-miterlimit="10" pointer-events="stroke"/><path d="M 434.59 623.19 C 434.59 623.19 434.59 623.19 434.59 623.19 M 434.59 623.19 C 434.59 623.19 434.59 623.19 434.59 623.19 M 438.17 630.29 C 439.81 629.58 441.3 628.37 441.92 626.99 M 438.57 630.9 C 439.71 629.72 440.56 628.73 441.92 627.07" fill="none" stroke="#324ab2" stroke-linejoin="round" stroke-linecap="round" stroke-miterlimit="10" pointer-events="all"/><path d="M 449.82 631.78 M 449.89 631.09 C 443.17 632.05 439.73 634.9 433.43 637.78 M 449.31 629.62 C 443.19 633.37 437.17 635.25 435.09 636.31 M 434.36 636.84 C 435.97 634.96 436.05 633.75 437.56 629.61 M 435.04 636.62 C 435.44 635.26 436.68 633.79 438 629.83 M 438.21 630.74 C 437.35 626.96 436.27 624.81 435.13 622.73 M 438.38 630.11 C 436.8 627.44 435.77 624.72 435 622.75 M 435.94 624.4 C 438.98 624.72 446.27 628.18 450.31 631.43 M 435.32 622.39 C 437.55 623.94 440.67 625.46 449.12 629.84" fill="none" stroke="#324ab2" stroke-width="2" stroke-linejoin="round" stroke-linecap="round" stroke-miterlimit="10" pointer-events="all"/><path d="M 372.06 421.05 L 778.44 352.13" fill="none" stroke="none" pointer-events="stroke"/><path d="M 788.8 350.37 L 776.16 359.62 L 778.44 352.13 L 773.82 345.81 Z" fill="none" stroke="none" pointer-events="all"/><path d="M 370.98 422.93 M 372.08 422.06 C 494.18 399.11 619.42 378.96 779.53 351.32 M 372.2 421.25 C 528.8 393.11 686.45 366.75 778.69 352.34" fill="none" stroke="#324ab2" stroke-width="2" stroke-linejoin="round" stroke-linecap="round" stroke-miterlimit="10" pointer-events="stroke"/><path d="M 773.89 345.73 C 773.89 345.73 773.89 345.73 773.89 345.73 M 773.89 345.73 C 773.89 345.73 773.89 345.73 773.89 345.73 M 779.01 352.13 C 779.57 351.06 781.29 350.07 781.72 349.06 M 778.85 352.74 C 779.64 351.34 780.97 349.81 781.73 348.69" fill="none" stroke="#324ab2" stroke-linejoin="round" stroke-linecap="round" stroke-miterlimit="10" pointer-events="all"/><path d="M 790.17 350.67 M 789.17 349.74 C 784.06 354.01 780.71 357.87 777.58 358.46 M 788.5 350.98 C 784.74 353.15 780.5 356.72 775.6 360.28 M 775.47 359.65 C 776.43 357.59 778.43 355.03 779.02 351.44 M 776.53 359.37 C 776.96 357.57 777.47 355.68 778.25 352.24 M 778.49 352.45 C 777.18 349.88 775.41 348.07 773.61 345.96 M 778.62 352.12 C 776.65 349.74 774.87 347.46 773.81 346.16 M 774.5 345.39 C 776.55 346.42 780.35 347.42 787.9 349.69 M 773.84 345.11 C 777.4 347.02 782.53 348.3 789.3 350.41" fill="none" stroke="#324ab2" stroke-width="2" stroke-linejoin="round" stroke-linecap="round" stroke-miterlimit="10" pointer-events="all"/><path d="M 371.5 440 L 778.28 420.61" fill="none" stroke="none" pointer-events="stroke"/><path d="M 788.77 420.11 L 775.12 427.77 L 778.28 420.61 L 774.45 413.78 Z" fill="none" stroke="none" pointer-events="all"/><path d="M 370.42 438.22 M 372.45 440.56 C 462.35 435.96 552.95 431.37 777.4 420.65 M 371.33 440.1 C 505.79 434.64 640.12 427.7 778.63 421.12" fill="none" stroke="#324ab2" stroke-width="2" stroke-linejoin="round" stroke-linecap="round" stroke-miterlimit="10" pointer-events="stroke"/><path d="M 774.44 413.79 C 774.44 413.79 774.44 413.79 774.44 413.79 M 774.44 413.79 C 774.44 413.79 774.44 413.79 774.44 413.79 M 778.79 421.01 C 779.28 419.64 781.23 418.87 781.47 417.16 M 778.57 421.1 C 779.45 420.67 780.1 419.86 781.97 417.34" fill="none" stroke="#324ab2" stroke-linejoin="round" stroke-linecap="round" stroke-miterlimit="10" pointer-events="all"/><path d="M 790.46 418.94 M 788.39 420.89 C 783.9 421.19 779.85 424.76 776.17 427.81 M 789.19 420.14 C 785.45 422.61 782.21 423.48 775.24 428.21 M 775.71 427.98 C 775.89 425.93 776.69 425.26 778.57 421.18 M 774.8 427.66 C 776.46 425.6 776.82 423.54 778.17 421 M 778.42 420.51 C 777.26 418.68 776.98 416.83 775.22 414.34 M 778.53 420.48 C 776.89 418.02 775.11 414.94 774.18 413.95 M 774.64 414.68 C 778.03 415.32 783.9 416.19 788.54 420.44 M 773.92 413 C 779.83 416.72 784.95 418.93 789.42 420.35" fill="none" stroke="#324ab2" stroke-width="2" stroke-linejoin="round" stroke-linecap="round" stroke-miterlimit="10" pointer-events="all"/></g></svg>