<?xml version="1.0" encoding="UTF-8" standalone="no"?>
<svg
   version="1.2"
   width="568.02753"
   height="216.98312"
   viewBox="0 0 16030.999 6123.7459"
   preserveAspectRatio="xMidYMid"
   clip-path="url(#presentation_clip_path)"
   xml:space="preserve"
   id="svg2"
   inkscape:version="1.2 (dc2aedaf03, 2022-05-15)"
   sodipodi:docname="dirección_virtual_paginación.svg"
   style="fill-rule:evenodd;stroke-width:28.22200012;stroke-linejoin:round"
   xmlns:inkscape="http://www.inkscape.org/namespaces/inkscape"
   xmlns:sodipodi="http://sodipodi.sourceforge.net/DTD/sodipodi-0.dtd"
   xmlns="http://www.w3.org/2000/svg"
   xmlns:svg="http://www.w3.org/2000/svg"
   xmlns:rdf="http://www.w3.org/1999/02/22-rdf-syntax-ns#"
   xmlns:cc="http://creativecommons.org/ns#"
   xmlns:dc="http://purl.org/dc/elements/1.1/"
   xmlns:ooo="http://xml.openoffice.org/svg/export"><metadata
     id="metadata176"><rdf:RDF><cc:Work
         rdf:about=""><dc:format>image/svg+xml</dc:format><dc:type
           rdf:resource="http://purl.org/dc/dcmitype/StillImage" /></cc:Work></rdf:RDF></metadata><sodipodi:namedview
     pagecolor="#ffffff"
     bordercolor="#666666"
     borderopacity="1"
     objecttolerance="10"
     gridtolerance="10"
     guidetolerance="10"
     inkscape:pageopacity="0"
     inkscape:pageshadow="2"
     inkscape:window-width="683"
     inkscape:window-height="480"
     id="namedview174"
     showgrid="false"
     fit-margin-top="0"
     fit-margin-left="0"
     fit-margin-right="0"
     fit-margin-bottom="0"
     inkscape:zoom="0.20813889"
     inkscape:cx="739.89056"
     inkscape:cy="-276.25784"
     inkscape:window-x="0"
     inkscape:window-y="0"
     inkscape:window-maximized="0"
     inkscape:current-layer="svg2"
     inkscape:showpageshadow="0"
     inkscape:pagecheckerboard="0"
     inkscape:deskcolor="#d1d1d1" /><defs
     class="ClipPathGroup"
     id="defs4"><clipPath
       id="presentation_clip_path"
       clipPathUnits="userSpaceOnUse"><rect
         x="0"
         y="0"
         width="45000"
         height="32000"
         id="rect7" /></clipPath></defs><defs
     class="TextShapeIndex"
     id="defs9"><g
       ooo:slide="id1"
       ooo:id-list="id3 id4 id5 id6 id7 id8 id9 id10 id11 id12 id13 id14"
       id="g11" /></defs><defs
     class="EmbeddedBulletChars"
     id="defs13"><g
       id="bullet-char-template(57356)"
       transform="scale(4.8828125e-4,-4.8828125e-4)"><path
         d="M 580,1141 1163,571 580,0 -4,571 580,1141 z"
         id="path16"
         inkscape:connector-curvature="0" /></g><g
       id="bullet-char-template(57354)"
       transform="scale(4.8828125e-4,-4.8828125e-4)"><path
         d="m 8,1128 1129,0 L 1137,0 8,0 8,1128 z"
         id="path19"
         inkscape:connector-curvature="0" /></g><g
       id="bullet-char-template(10146)"
       transform="scale(4.8828125e-4,-4.8828125e-4)"><path
         d="M 174,0 602,739 174,1481 1456,739 174,0 z m 1184,739 -1049,607 350,-607 699,0 z"
         id="path22"
         inkscape:connector-curvature="0" /></g><g
       id="bullet-char-template(10132)"
       transform="scale(4.8828125e-4,-4.8828125e-4)"><path
         d="M 2015,739 1276,0 717,0 l 543,543 -1086,0 0,393 1086,0 -543,545 557,0 741,-742 z"
         id="path25"
         inkscape:connector-curvature="0" /></g><g
       id="bullet-char-template(10007)"
       transform="scale(4.8828125e-4,-4.8828125e-4)"><path
         d="m 0,-2 c -7,16 -16,29 -25,39 l 381,530 c -94,256 -141,385 -141,387 0,25 13,38 40,38 9,0 21,-2 34,-5 21,4 42,12 65,25 l 27,-13 111,-251 280,301 64,-25 24,25 c 21,-10 41,-24 62,-43 C 886,937 835,863 770,784 769,783 710,716 594,584 L 774,223 c 0,-27 -21,-55 -63,-84 l 16,-20 C 717,90 699,76 672,76 641,76 570,178 457,381 L 164,-76 c -22,-34 -53,-51 -92,-51 -42,0 -63,17 -64,51 -7,9 -10,24 -10,44 0,9 1,19 2,30 z"
         id="path28"
         inkscape:connector-curvature="0" /></g><g
       id="bullet-char-template(10004)"
       transform="scale(4.8828125e-4,-4.8828125e-4)"><path
         d="M 285,-33 C 182,-33 111,30 74,156 52,228 41,333 41,471 c 0,78 14,145 41,201 34,71 87,106 158,106 53,0 88,-31 106,-94 l 23,-176 c 8,-64 28,-97 59,-98 l 735,706 c 11,11 33,17 66,17 42,0 63,-15 63,-46 l 0,-122 c 0,-36 -10,-64 -30,-84 L 442,47 C 390,-6 338,-33 285,-33 z"
         id="path31"
         inkscape:connector-curvature="0" /></g><g
       id="bullet-char-template(9679)"
       transform="scale(4.8828125e-4,-4.8828125e-4)"><path
         d="M 813,0 C 632,0 489,54 383,161 276,268 223,411 223,592 c 0,181 53,324 160,431 106,107 249,161 430,161 179,0 323,-54 432,-161 108,-107 162,-251 162,-431 0,-180 -54,-324 -162,-431 C 1136,54 992,0 813,0 z"
         id="path34"
         inkscape:connector-curvature="0" /></g><g
       id="bullet-char-template(8226)"
       transform="scale(4.8828125e-4,-4.8828125e-4)"><path
         d="m 346,457 c -73,0 -137,26 -191,78 -54,51 -81,114 -81,188 0,73 27,136 81,188 54,52 118,78 191,78 73,0 134,-26 185,-79 51,-51 77,-114 77,-187 0,-75 -25,-137 -76,-188 -50,-52 -112,-78 -186,-78 z"
         id="path37"
         inkscape:connector-curvature="0" /></g><g
       id="bullet-char-template(8211)"
       transform="scale(4.8828125e-4,-4.8828125e-4)"><path
         d="m -4,459 1139,0 0,147 -1139,0 0,-147 z"
         id="path40"
         inkscape:connector-curvature="0" /></g></defs><defs
     class="TextEmbeddedBitmaps"
     id="defs42" /><g
     id="g44"
     transform="translate(-1619,-2193.2543)"><g
       id="id2"
       class="Master_Slide"><g
         id="bg-id2"
         class="Background" /><g
         id="bo-id2"
         class="BackgroundObjects" /></g></g><g
     class="SlideGroup"
     id="g49"
     transform="translate(-1619,-2193.2543)"><g
       id="g51"><g
         id="id1"
         class="Slide"
         clip-path="url(#presentation_clip_path)"><g
           class="Page"
           id="g54"><g
             class="com.sun.star.drawing.TextShape"
             id="g56"><g
               id="id3"><text
   class="TextShape"
   id="text59"
   style="line-height:0%"><tspan
     class="TextParagraph"
     font-size="494px"
     font-weight="400"
     id="tspan61"
     style="font-weight:400;font-size:494px;font-family:'\'Liberation Sans', 'sans-serif\''"><tspan
       class="TextPosition"
       x="4639"
       y="2557"
       id="tspan63"><tspan
         id="tspan65"
         style="fill:#000000;stroke:none">número de página</tspan></tspan></tspan></text>
</g></g><g
             class="com.sun.star.drawing.TextShape"
             id="g67"><g
               id="id4"><text
   class="TextShape"
   id="text70"
   style="line-height:0%"><tspan
     class="TextParagraph"
     font-size="494px"
     font-weight="400"
     id="tspan72"
     style="font-weight:400;font-size:494px;font-family:'\'Liberation Sans', 'sans-serif\''"><tspan
       class="TextPosition"
       x="12899"
       y="2557"
       id="tspan74"><tspan
         id="tspan76"
         style="fill:#000000;stroke:none">desplazamiento</tspan></tspan></tspan></text>
</g></g><g
             class="com.sun.star.drawing.TextShape"
             id="g78"><g
               id="id5"><text
   class="TextShape"
   id="text81"
   style="line-height:0%"><tspan
     class="TextParagraph"
     font-size="494px"
     font-weight="400"
     id="tspan83"
     style="font-weight:400;font-size:494px;font-family:'\'Liberation Sans', 'sans-serif\''"><tspan
       class="TextPosition"
       x="6070"
       y="6307"
       id="tspan85"><tspan
         id="tspan87"
         style="fill:#000000;stroke:none">m - n</tspan></tspan></tspan></text>
</g></g><g
             class="com.sun.star.drawing.TextShape"
             id="g89"><g
               id="id6"><text
   class="TextShape"
   id="text92"
   style="line-height:0%"><tspan
     class="TextParagraph"
     font-size="494px"
     font-weight="400"
     id="tspan94"
     style="font-weight:400;font-size:494px;font-family:'\'Liberation Sans', 'sans-serif\''"><tspan
       class="TextPosition"
       x="14497"
       y="6297"
       id="tspan96"><tspan
         id="tspan98"
         style="fill:#000000;stroke:none">n</tspan></tspan></tspan></text>
</g></g><g
             class="com.sun.star.drawing.CustomShape"
             id="g100"><g
               id="id7"><path
                 d="m 11635,4637 c 0,250 -210,500 -421,500 l -4158,0 c -210,0 -421,250 -421,501 0,-251 -211,-501 -421,-501 l -4158,0 c -211,0 -422,-250 -422,-500"
                 id="path103"
                 inkscape:connector-curvature="0"
                 style="fill:none;stroke:#000000;stroke-width:30" /><path
                 d="m 11635,4637 0,0 z"
                 id="path105"
                 inkscape:connector-curvature="0"
                 style="fill:none;stroke:#000000;stroke-width:30" /><path
                 d="m 1634,5638 0,0 z"
                 id="path107"
                 inkscape:connector-curvature="0"
                 style="fill:none;stroke:#000000;stroke-width:30" /></g></g><g
             class="com.sun.star.drawing.CustomShape"
             id="g109"><g
               id="id8"><path
                 d="m 17635,4634 c 0,250 -174,500 -348,500 l -2303,0 c -175,0 -349,250 -349,501 0,-251 -174,-501 -349,-501 l -2303,0 c -174,0 -349,-250 -349,-500"
                 id="path112"
                 inkscape:connector-curvature="0"
                 style="fill:none;stroke:#000000" /><path
                 d="m 17635,4634 0,0 z"
                 id="path114"
                 inkscape:connector-curvature="0"
                 style="fill:none;stroke:#000000" /><path
                 d="m 11634,5635 0,0 z"
                 id="path116"
                 inkscape:connector-curvature="0"
                 style="fill:none;stroke:#000000" /></g></g><g
             class="com.sun.star.drawing.CustomShape"
             id="g118"><g
               id="id9"><path
                 d="m 17635,6638 c 0,250 -174,500 -349,500 l -7302,0 c -175,0 -349,250 -349,501 0,-251 -175,-501 -349,-501 l -7303,0 c -174,0 -349,-250 -349,-500"
                 id="path121"
                 inkscape:connector-curvature="0"
                 style="fill:none;stroke:#000000;stroke-width:30" /><path
                 d="m 17635,6638 0,0 z"
                 id="path123"
                 inkscape:connector-curvature="0"
                 style="fill:none;stroke:#000000;stroke-width:30" /><path
                 d="m 1634,7639 0,0 z"
                 id="path125"
                 inkscape:connector-curvature="0"
                 style="fill:none;stroke:#000000;stroke-width:30" /></g></g><g
             class="com.sun.star.drawing.TextShape"
             id="g127"><g
               id="id10"><text
   class="TextShape"
   id="text130"
   style="line-height:0%"><tspan
     class="TextParagraph"
     font-size="494px"
     font-weight="400"
     id="tspan132"
     style="font-weight:400;font-size:494px;font-family:'\'Liberation Sans', 'sans-serif\''"><tspan
       class="TextPosition"
       x="9429"
       y="8317"
       id="tspan134"><tspan
         id="tspan136"
         style="fill:#000000;stroke:none">m</tspan></tspan></tspan></text>
</g></g><g
             class="com.sun.star.drawing.ClosedBezierShape"
             id="g138"><g
               id="id11"><path
                 d="m 11635,3135 c 1904,0 3796,-12 5700,0 165,0 300,135 300,300 0,133 0,267 0,400 0,165 -135,300 -300,300 -1904,-14 -3796,0 -5700,0 l 0,-1000 z"
                 id="path141"
                 inkscape:connector-curvature="0"
                 style="fill:#94bd5e;stroke:none" /><path
                 d="m 11635,3135 c 1904,0 3796,-12 5700,0 165,0 300,135 300,300 0,133 0,267 0,400 0,165 -135,300 -300,300 -1904,-14 -3796,0 -5700,0 l 0,-1000 z"
                 id="path143"
                 inkscape:connector-curvature="0"
                 style="fill:none;stroke:#000000;stroke-width:30" /></g></g><g
             class="com.sun.star.drawing.ClosedBezierShape"
             id="g145"><g
               id="id12"><path
                 d="m 11635,3140 0,1000 c -2828,0 -6628,-26 -9700,0 -165,0 -300,-135 -300,-300 0,-133 0,-267 0,-400 0,-165 135,-300 300,-300 3230,-12 6470,0 9700,0 z"
                 id="path148"
                 inkscape:connector-curvature="0"
                 style="fill:#ffff99;stroke:none" /><path
                 d="m 11635,3140 0,1000 c -2828,0 -6628,-26 -9700,0 -165,0 -300,-135 -300,-300 0,-133 0,-267 0,-400 0,-165 135,-300 300,-300 3230,-12 6470,0 9700,0 z"
                 id="path150"
                 inkscape:connector-curvature="0"
                 style="fill:none;stroke:#000000;stroke-width:30" /></g></g><g
             class="com.sun.star.drawing.TextShape"
             id="g152"><g
               id="id13"><text
   class="TextShape"
   id="text155"
   style="line-height:0%"><tspan
     class="TextParagraph"
     font-size="494px"
     font-weight="400"
     id="tspan157"
     style="font-weight:400;font-size:494px;font-family:'\'Liberation Sans', 'sans-serif\''"><tspan
       class="TextPosition"
       x="14498"
       y="3807"
       id="tspan159"><tspan
         id="tspan161"
         style="fill:#000000;stroke:none">d</tspan></tspan></tspan></text>
</g></g><g
             class="com.sun.star.drawing.TextShape"
             id="g163"><g
               id="id14"><text
   class="TextShape"
   id="text166"
   style="line-height:0%"><tspan
     class="TextParagraph"
     font-size="494px"
     font-weight="400"
     id="tspan168"
     style="font-weight:400;font-size:494px;font-family:'\'Liberation Sans', 'sans-serif\''"><tspan
       class="TextPosition"
       x="6498"
       y="3807"
       id="tspan170"><tspan
         id="tspan172"
         style="fill:#000000;stroke:none">p</tspan></tspan></tspan></text>
</g></g></g></g></g></g></svg>
