<?xml version="1.0" encoding="UTF-8" standalone="no"?>
<svg
   xmlns:ooo="http://xml.openoffice.org/svg/export"
   xmlns:dc="http://purl.org/dc/elements/1.1/"
   xmlns:cc="http://creativecommons.org/ns#"
   xmlns:rdf="http://www.w3.org/1999/02/22-rdf-syntax-ns#"
   xmlns:svg="http://www.w3.org/2000/svg"
   xmlns="http://www.w3.org/2000/svg"
   xmlns:sodipodi="http://sodipodi.sourceforge.net/DTD/sodipodi-0.dtd"
   xmlns:inkscape="http://www.inkscape.org/namespaces/inkscape"
   version="1.2"
   width="687.47144"
   height="569.28595"
   viewBox="0 0 19401.972 16066.514"
   preserveAspectRatio="xMidYMid"
   clip-path="url(#presentation_clip_path)"
   xml:space="preserve"
   id="svg2"
   inkscape:version="0.48.4 r9939"
   sodipodi:docname="paginación.svg"
   style="fill-rule:evenodd;stroke-width:28.22200012;stroke-linejoin:round"><metadata
     id="metadata466"><rdf:RDF><cc:Work
         rdf:about=""><dc:format>image/svg+xml</dc:format><dc:type
           rdf:resource="http://purl.org/dc/dcmitype/StillImage" /></cc:Work></rdf:RDF></metadata><sodipodi:namedview
     pagecolor="#ffffff"
     bordercolor="#666666"
     borderopacity="1"
     objecttolerance="10"
     gridtolerance="10"
     guidetolerance="10"
     inkscape:pageopacity="0"
     inkscape:pageshadow="2"
     inkscape:window-width="640"
     inkscape:window-height="480"
     id="namedview464"
     showgrid="false"
     fit-margin-top="0"
     fit-margin-left="0"
     fit-margin-right="0"
     fit-margin-bottom="0"
     inkscape:zoom="0.20813889"
     inkscape:cx="704.40944"
     inkscape:cy="95.191462"
     inkscape:window-x="0"
     inkscape:window-y="0"
     inkscape:window-maximized="0"
     inkscape:current-layer="svg2" /><defs
     class="ClipPathGroup"
     id="defs4"><clipPath
       id="presentation_clip_path"
       clipPathUnits="userSpaceOnUse"><rect
         x="0"
         y="0"
         width="45000"
         height="32000"
         id="rect7" /></clipPath></defs><defs
     class="TextShapeIndex"
     id="defs9"><g
       ooo:slide="id1"
       ooo:id-list="id3 id4 id5 id6 id7 id8 id9 id10 id11 id12 id13 id14 id15 id16 id17 id18 id19 id20 id21 id22 id23 id24 id25 id26 id27 id28 id29 id30 id31 id32 id33 id34 id35 id36"
       id="g11" /></defs><defs
     class="EmbeddedBulletChars"
     id="defs13"><g
       id="bullet-char-template(57356)"
       transform="scale(4.8828125e-4,-4.8828125e-4)"><path
         d="M 580,1141 1163,571 580,0 -4,571 580,1141 z"
         id="path16"
         inkscape:connector-curvature="0" /></g><g
       id="bullet-char-template(57354)"
       transform="scale(4.8828125e-4,-4.8828125e-4)"><path
         d="m 8,1128 1129,0 L 1137,0 8,0 8,1128 z"
         id="path19"
         inkscape:connector-curvature="0" /></g><g
       id="bullet-char-template(10146)"
       transform="scale(4.8828125e-4,-4.8828125e-4)"><path
         d="M 174,0 602,739 174,1481 1456,739 174,0 z m 1184,739 -1049,607 350,-607 699,0 z"
         id="path22"
         inkscape:connector-curvature="0" /></g><g
       id="bullet-char-template(10132)"
       transform="scale(4.8828125e-4,-4.8828125e-4)"><path
         d="M 2015,739 1276,0 717,0 l 543,543 -1086,0 0,393 1086,0 -543,545 557,0 741,-742 z"
         id="path25"
         inkscape:connector-curvature="0" /></g><g
       id="bullet-char-template(10007)"
       transform="scale(4.8828125e-4,-4.8828125e-4)"><path
         d="m 0,-2 c -7,16 -16,29 -25,39 l 381,530 c -94,256 -141,385 -141,387 0,25 13,38 40,38 9,0 21,-2 34,-5 21,4 42,12 65,25 l 27,-13 111,-251 280,301 64,-25 24,25 c 21,-10 41,-24 62,-43 C 886,937 835,863 770,784 769,783 710,716 594,584 L 774,223 c 0,-27 -21,-55 -63,-84 l 16,-20 C 717,90 699,76 672,76 641,76 570,178 457,381 L 164,-76 c -22,-34 -53,-51 -92,-51 -42,0 -63,17 -64,51 -7,9 -10,24 -10,44 0,9 1,19 2,30 z"
         id="path28"
         inkscape:connector-curvature="0" /></g><g
       id="bullet-char-template(10004)"
       transform="scale(4.8828125e-4,-4.8828125e-4)"><path
         d="M 285,-33 C 182,-33 111,30 74,156 52,228 41,333 41,471 c 0,78 14,145 41,201 34,71 87,106 158,106 53,0 88,-31 106,-94 l 23,-176 c 8,-64 28,-97 59,-98 l 735,706 c 11,11 33,17 66,17 42,0 63,-15 63,-46 l 0,-122 c 0,-36 -10,-64 -30,-84 L 442,47 C 390,-6 338,-33 285,-33 z"
         id="path31"
         inkscape:connector-curvature="0" /></g><g
       id="bullet-char-template(9679)"
       transform="scale(4.8828125e-4,-4.8828125e-4)"><path
         d="M 813,0 C 632,0 489,54 383,161 276,268 223,411 223,592 c 0,181 53,324 160,431 106,107 249,161 430,161 179,0 323,-54 432,-161 108,-107 162,-251 162,-431 0,-180 -54,-324 -162,-431 C 1136,54 992,0 813,0 z"
         id="path34"
         inkscape:connector-curvature="0" /></g><g
       id="bullet-char-template(8226)"
       transform="scale(4.8828125e-4,-4.8828125e-4)"><path
         d="m 346,457 c -73,0 -137,26 -191,78 -54,51 -81,114 -81,188 0,73 27,136 81,188 54,52 118,78 191,78 73,0 134,-26 185,-79 51,-51 77,-114 77,-187 0,-75 -25,-137 -76,-188 -50,-52 -112,-78 -186,-78 z"
         id="path37"
         inkscape:connector-curvature="0" /></g><g
       id="bullet-char-template(8211)"
       transform="scale(4.8828125e-4,-4.8828125e-4)"><path
         d="m -4,459 1139,0 0,147 -1139,0 0,-147 z"
         id="path40"
         inkscape:connector-curvature="0" /></g></defs><defs
     class="TextEmbeddedBitmaps"
     id="defs42" /><g
     id="g44"
     transform="translate(-2620,-2620.0004)"><g
       id="id2"
       class="Master_Slide"><g
         id="bg-id2"
         class="Background" /><g
         id="bo-id2"
         class="BackgroundObjects" /></g></g><g
     class="SlideGroup"
     id="g49"
     transform="translate(-2620,-2620.0004)"><g
       id="g51"><g
         id="id1"
         class="Slide"
         clip-path="url(#presentation_clip_path)"><g
           class="Page"
           id="g54"><g
             class="com.sun.star.drawing.RectangleShape"
             id="g56"><g
               id="id3"><path
                 d="m 10885,17135 950,0 c 166,0 300,-134 300,-300 l 0,-6400 c 0,-166 -134,-300 -300,-300 l -1900,0 c -166,0 -300,134 -300,300 l 0,6400 c 0,166 134,300 300,300 l 950,0 z"
                 id="path59"
                 inkscape:connector-curvature="0"
                 style="fill:#ffff99;stroke:none" /><path
                 d="m 10885,17135 950,0 c 166,0 300,-134 300,-300 l 0,-6400 c 0,-166 -134,-300 -300,-300 l -1900,0 c -166,0 -300,134 -300,300 l 0,6400 c 0,166 134,300 300,300 l 950,0 z"
                 id="path61"
                 inkscape:connector-curvature="0"
                 style="fill:none;stroke:#000000;stroke-width:30" /></g></g><g
             class="com.sun.star.drawing.ConnectorShape"
             id="g63"><g
               id="id4"><path
                 d="m 4635,8635 506,0"
                 id="path66"
                 inkscape:connector-curvature="0"
                 style="fill:none;stroke:#000000;stroke-width:30" /><path
                 d="m 5635,8635 -517,-172 0,345 517,-173 z"
                 id="path68"
                 inkscape:connector-curvature="0"
                 style="fill:#000000;stroke:none" /></g></g><g
             class="com.sun.star.drawing.RectangleShape"
             id="g70"><g
               id="id5"><text
                 class="TextShape"
                 id="text73"><tspan
                   class="TextParagraph"
                   font-size="494px"
                   font-weight="700"
                   id="tspan75"
                   style="font-size:494px;font-weight:700;font-family:'Liberation Sans, sans-serif'"><tspan
                     class="TextPosition"
                     x="10815"
                     y="14752"
                     id="tspan77"><tspan
                       id="tspan79"
                       style="fill:#000000;stroke:none">·</tspan></tspan></tspan><tspan
                   class="TextParagraph"
                   font-size="494px"
                   font-weight="700"
                   id="tspan81"
                   style="font-size:494px;font-weight:700;font-family:'Liberation Sans, sans-serif'"><tspan
                     class="TextPosition"
                     x="10815"
                     y="15307"
                     id="tspan83"><tspan
                       id="tspan85"
                       style="fill:#000000;stroke:none">·</tspan></tspan><tspan
                     class="TextPosition"
                     x="10815"
                     y="15862"
                     id="tspan87"><tspan
                       id="tspan89"
                       style="fill:#000000;stroke:none">·</tspan></tspan></tspan></text>
</g></g><g
             class="com.sun.star.drawing.LineShape"
             id="g91"><g
               id="id6"><path
                 d="m 15135,8635 506,0"
                 id="path94"
                 inkscape:connector-curvature="0"
                 style="fill:none;stroke:#000000;stroke-width:30" /><path
                 d="m 16135,8635 -517,-172 0,345 517,-173 z"
                 id="path96"
                 inkscape:connector-curvature="0"
                 style="fill:#000000;stroke:none" /></g></g><g
             class="com.sun.star.drawing.TextShape"
             id="g98"><g
               id="id7"><text
                 class="TextShape"
                 id="text101"><tspan
                   class="TextParagraph"
                   font-size="494px"
                   font-weight="400"
                   id="tspan103"
                   style="font-size:494px;font-weight:400;font-family:'Liberation Sans, sans-serif'"><tspan
                     class="TextPosition"
                     x="21884"
                     y="4557"
                     id="tspan105"><tspan
                       id="tspan107"
                       style="fill:#000000;stroke:none">f</tspan></tspan></tspan></text>
</g></g><g
             class="com.sun.star.drawing.CustomShape"
             id="g109"><g
               id="id8"><path
                 d="m 20635,2635 c 250,0 500,200 500,400 l 0,944 c 0,201 250,401 501,401 -251,0 -501,201 -501,401 l 0,954 c 0,200 -250,401 -500,401"
                 id="path112"
                 inkscape:connector-curvature="0"
                 style="fill:none;stroke:#000000;stroke-width:30" /><path
                 d="m 20635,2635 0,0 z"
                 id="path114"
                 inkscape:connector-curvature="0"
                 style="fill:none;stroke:#000000;stroke-width:30" /><path
                 d="m 21636,6136 0,0 z"
                 id="path116"
                 inkscape:connector-curvature="0"
                 style="fill:none;stroke:#000000;stroke-width:30" /></g></g><g
             class="com.sun.star.drawing.TextShape"
             id="g118"><g
               id="id9"><text
                 class="TextShape"
                 id="text121"><tspan
                   class="TextParagraph"
                   font-size="494px"
                   font-weight="400"
                   id="tspan123"
                   style="font-size:494px;font-weight:400;font-family:'Liberation Sans, sans-serif'"><tspan
                     class="TextPosition"
                     x="5892"
                     y="6279"
                     id="tspan125"><tspan
                       id="tspan127"
                       style="fill:#000000;stroke:none">dirección</tspan></tspan></tspan><tspan
                   class="TextParagraph"
                   font-size="494px"
                   font-weight="400"
                   id="tspan129"
                   style="font-size:494px;font-weight:400;font-family:'Liberation Sans, sans-serif'"><tspan
                     class="TextPosition"
                     x="6222"
                     y="6834"
                     id="tspan131"><tspan
                       id="tspan133"
                       style="fill:#000000;stroke:none">virtual</tspan></tspan></tspan></text>
</g></g><g
             class="com.sun.star.drawing.TextShape"
             id="g135"><g
               id="id10"><text
                 class="TextShape"
                 id="text138"><tspan
                   class="TextParagraph"
                   font-size="494px"
                   font-weight="400"
                   id="tspan140"
                   style="font-size:494px;font-weight:400;font-family:'Liberation Sans, sans-serif'"><tspan
                     class="TextPosition"
                     x="12885"
                     y="6279"
                     id="tspan142"><tspan
                       id="tspan144"
                       style="fill:#000000;stroke:none">dirección</tspan></tspan></tspan><tspan
                   class="TextParagraph"
                   font-size="494px"
                   font-weight="400"
                   id="tspan146"
                   style="font-size:494px;font-weight:400;font-family:'Liberation Sans, sans-serif'"><tspan
                     class="TextPosition"
                     x="13296"
                     y="6834"
                     id="tspan148"><tspan
                       id="tspan150"
                       style="fill:#000000;stroke:none">física</tspan></tspan></tspan></text>
</g></g><g
             class="com.sun.star.drawing.TextShape"
             id="g152"><g
               id="id11"><text
                 class="TextShape"
                 id="text155"><tspan
                   class="TextParagraph"
                   font-size="494px"
                   font-weight="400"
                   id="tspan157"
                   style="font-size:494px;font-weight:400;font-family:'Liberation Sans, sans-serif'"><tspan
                     class="TextPosition"
                     x="10002"
                     y="18029"
                     id="tspan159"><tspan
                       id="tspan161"
                       style="fill:#000000;stroke:none">tabla de</tspan></tspan></tspan><tspan
                   class="TextParagraph"
                   font-size="494px"
                   font-weight="400"
                   id="tspan163"
                   style="font-size:494px;font-weight:400;font-family:'Liberation Sans, sans-serif'"><tspan
                     class="TextPosition"
                     x="10017"
                     y="18584"
                     id="tspan165"><tspan
                       id="tspan167"
                       style="fill:#000000;stroke:none">páginas</tspan></tspan></tspan></text>
</g></g><g
             class="com.sun.star.drawing.TextShape"
             id="g169"><g
               id="id12"><text
                 class="TextShape"
                 id="text172"><tspan
                   class="TextParagraph"
                   font-size="494px"
                   font-weight="400"
                   id="tspan174"
                   style="font-size:494px;font-weight:400;font-family:'Liberation Sans, sans-serif'"><tspan
                     class="TextPosition"
                     x="16522"
                     y="16057"
                     id="tspan176"><tspan
                       id="tspan178"
                       style="fill:#000000;stroke:none">memoria física</tspan></tspan></tspan></text>
</g></g><g
             class="com.sun.star.drawing.CustomShape"
             id="g180"><g
               id="id13"><path
                 d="m 9135,10135 c -170,0 -339,203 -339,406 l 0,677 c 0,203 -170,407 -339,407 169,0 339,203 339,406 l 0,698 c 0,203 169,407 339,407"
                 id="path183"
                 inkscape:connector-curvature="0"
                 style="fill:none;stroke:#000000;stroke-width:30" /><path
                 d="m 8457,10135 0,0 z"
                 id="path185"
                 inkscape:connector-curvature="0"
                 style="fill:none;stroke:#000000;stroke-width:30" /><path
                 d="m 9135,13136 0,0 z"
                 id="path187"
                 inkscape:connector-curvature="0"
                 style="fill:none;stroke:#000000;stroke-width:30" /></g></g><g
             class="com.sun.star.drawing.TextShape"
             id="g189"><g
               id="id14"><text
                 class="TextShape"
                 id="text192"><tspan
                   class="TextParagraph"
                   font-size="494px"
                   font-weight="400"
                   id="tspan194"
                   style="font-size:494px;font-weight:400;font-family:'Liberation Sans, sans-serif'"><tspan
                     class="TextPosition"
                     x="7885"
                     y="11904"
                     id="tspan196"><tspan
                       id="tspan198"
                       style="fill:#000000;stroke:none">p</tspan></tspan></tspan></text>
</g></g><g
             class="com.sun.star.drawing.RectangleShape"
             id="g200"><g
               id="id15"><path
                 d="m 3635,9635 700,0 c 166,0 300,-134 300,-300 l 0,-1400 c 0,-166 -134,-300 -300,-300 l -1400,0 c -166,0 -300,134 -300,300 l 0,1400 c 0,166 134,300 300,300 l 700,0 z"
                 id="path203"
                 inkscape:connector-curvature="0"
                 style="fill:#9999ff;stroke:none" /><path
                 d="m 3635,9635 700,0 c 166,0 300,-134 300,-300 l 0,-1400 c 0,-166 -134,-300 -300,-300 l -1400,0 c -166,0 -300,134 -300,300 l 0,1400 c 0,166 134,300 300,300 l 700,0 z"
                 id="path205"
                 inkscape:connector-curvature="0"
                 style="fill:none;stroke:#000000;stroke-width:30" /><text
                 class="TextShape"
                 id="text207"><tspan
                   class="TextParagraph"
                   font-size="494px"
                   font-weight="400"
                   id="tspan209"
                   style="font-size:494px;font-weight:400;font-family:'Liberation Sans, sans-serif'"><tspan
                     class="TextPosition"
                     x="3110"
                     y="8807"
                     id="tspan211"><tspan
                       id="tspan213"
                       style="fill:#000000;stroke:none">CPU</tspan></tspan></tspan></text>
</g></g><g
             class="com.sun.star.drawing.RectangleShape"
             id="g215"><g
               id="id16"><path
                 d="m 18135,15135 1700,0 c 166,0 300,-134 300,-300 l 0,-11900 c 0,-166 -134,-300 -300,-300 l -3400,0 c -166,0 -300,134 -300,300 l 0,11900 c 0,166 134,300 300,300 l 1700,0 z"
                 id="path218"
                 inkscape:connector-curvature="0"
                 style="fill:#ffff99;stroke:none" /><path
                 d="m 18135,15135 1700,0 c 166,0 300,-134 300,-300 l 0,-11900 c 0,-166 -134,-300 -300,-300 l -3400,0 c -166,0 -300,134 -300,300 l 0,11900 c 0,166 134,300 300,300 l 1700,0 z"
                 id="path220"
                 inkscape:connector-curvature="0"
                 style="fill:none;stroke:#000000;stroke-width:30" /></g></g><g
             class="com.sun.star.drawing.RectangleShape"
             id="g222"><g
               id="id17"><path
                 d="m 18135,7135 -2000,0 0,-1000 4000,0 0,1000 -2000,0 z"
                 id="path225"
                 inkscape:connector-curvature="0"
                 style="fill:#ffffff;stroke:none" /><path
                 d="m 18135,7135 -2000,0 0,-1000 4000,0 0,1000 -2000,0 z"
                 id="path227"
                 inkscape:connector-curvature="0"
                 style="fill:none;stroke:#000000;stroke-width:30" /><text
                 class="TextShape"
                 id="text229"><tspan
                   class="TextParagraph"
                   font-size="494px"
                   font-weight="400"
                   id="tspan231"
                   style="font-size:494px;font-weight:400;font-family:'Liberation Sans, sans-serif'"><tspan
                     class="TextPosition"
                     x="16956"
                     y="6807"
                     id="tspan233"><tspan
                       id="tspan235"
                       style="fill:#000000;stroke:none">f   00. . .00</tspan></tspan></tspan></text>
</g></g><g
             class="com.sun.star.drawing.RectangleShape"
             id="g237"><g
               id="id18"><path
                 d="m 18135,11635 -2000,0 0,-1000 4000,0 0,1000 -2000,0 z"
                 id="path240"
                 inkscape:connector-curvature="0"
                 style="fill:#ffffff;stroke:none" /><path
                 d="m 18135,11635 -2000,0 0,-1000 4000,0 0,1000 -2000,0 z"
                 id="path242"
                 inkscape:connector-curvature="0"
                 style="fill:none;stroke:#000000;stroke-width:30" /><text
                 class="TextShape"
                 id="text244"><tspan
                   class="TextParagraph"
                   font-size="494px"
                   font-weight="400"
                   id="tspan246"
                   style="font-size:494px;font-weight:400;font-family:'Liberation Sans, sans-serif'"><tspan
                     class="TextPosition"
                     x="16886"
                     y="11307"
                     id="tspan248"><tspan
                       id="tspan250"
                       style="fill:#000000;stroke:none">f   11. . . 11</tspan></tspan></tspan></text>
</g></g><g
             class="com.sun.star.drawing.RectangleShape"
             id="g252"><g
               id="id19"><path
                 d="m 18135,10635 -2000,0 0,-3500 4000,0 0,3500 -2000,0 z"
                 id="path255"
                 inkscape:connector-curvature="0"
                 style="fill:#ffffff;stroke:none" /><path
                 d="m 18135,10635 -2000,0 0,-3500 4000,0 0,3500 -2000,0 z"
                 id="path257"
                 inkscape:connector-curvature="0"
                 style="fill:none;stroke:#000000;stroke-width:30" /><text
                 class="TextShape"
                 id="text259"><tspan
                   class="TextParagraph"
                   font-size="494px"
                   font-weight="700"
                   id="tspan261"
                   style="font-size:494px;font-weight:700;font-family:'Liberation Sans, sans-serif'"><tspan
                     class="TextPosition"
                     x="18065"
                     y="8502"
                     id="tspan263"><tspan
                       id="tspan265"
                       style="fill:#000000;stroke:none">·</tspan></tspan></tspan><tspan
                   class="TextParagraph"
                   font-size="494px"
                   font-weight="700"
                   id="tspan267"
                   style="font-size:494px;font-weight:700;font-family:'Liberation Sans, sans-serif'"><tspan
                     class="TextPosition"
                     x="18065"
                     y="9057"
                     id="tspan269"><tspan
                       id="tspan271"
                       style="fill:#000000;stroke:none">·</tspan></tspan></tspan><tspan
                   class="TextParagraph"
                   font-size="494px"
                   font-weight="700"
                   id="tspan273"
                   style="font-size:494px;font-weight:700;font-family:'Liberation Sans, sans-serif'"><tspan
                     class="TextPosition"
                     x="18065"
                     y="9612"
                     id="tspan275"><tspan
                       id="tspan277"
                       style="fill:#000000;stroke:none">·</tspan></tspan></tspan></text>
</g></g><g
             class="com.sun.star.drawing.RectangleShape"
             id="g279"><g
               id="id20"><text
                 class="TextShape"
                 id="text282"><tspan
                   class="TextParagraph"
                   font-size="494px"
                   font-weight="700"
                   id="tspan284"
                   style="font-size:494px;font-weight:700;font-family:'Liberation Sans, sans-serif'"><tspan
                     class="TextPosition"
                     x="18065"
                     y="4002"
                     id="tspan286"><tspan
                       id="tspan288"
                       style="fill:#000000;stroke:none">·</tspan></tspan></tspan><tspan
                   class="TextParagraph"
                   font-size="494px"
                   font-weight="700"
                   id="tspan290"
                   style="font-size:494px;font-weight:700;font-family:'Liberation Sans, sans-serif'"><tspan
                     class="TextPosition"
                     x="18065"
                     y="4557"
                     id="tspan292"><tspan
                       id="tspan294"
                       style="fill:#000000;stroke:none">·</tspan></tspan></tspan><tspan
                   class="TextParagraph"
                   font-size="494px"
                   font-weight="700"
                   id="tspan296"
                   style="font-size:494px;font-weight:700;font-family:'Liberation Sans, sans-serif'"><tspan
                     class="TextPosition"
                     x="18065"
                     y="5112"
                     id="tspan298"><tspan
                       id="tspan300"
                       style="fill:#000000;stroke:none">·</tspan></tspan></tspan></text>
</g></g><g
             class="com.sun.star.drawing.RectangleShape"
             id="g302"><g
               id="id21"><text
                 class="TextShape"
                 id="text305"><tspan
                   class="TextParagraph"
                   font-size="494px"
                   font-weight="700"
                   id="tspan307"
                   style="font-size:494px;font-weight:700;font-family:'Liberation Sans, sans-serif'"><tspan
                     class="TextPosition"
                     x="18065"
                     y="13002"
                     id="tspan309"><tspan
                       id="tspan311"
                       style="fill:#000000;stroke:none">·</tspan></tspan></tspan><tspan
                   class="TextParagraph"
                   font-size="494px"
                   font-weight="700"
                   id="tspan313"
                   style="font-size:494px;font-weight:700;font-family:'Liberation Sans, sans-serif'"><tspan
                     class="TextPosition"
                     x="18065"
                     y="13557"
                     id="tspan315"><tspan
                       id="tspan317"
                       style="fill:#000000;stroke:none">·</tspan></tspan></tspan><tspan
                   class="TextParagraph"
                   font-size="494px"
                   font-weight="700"
                   id="tspan319"
                   style="font-size:494px;font-weight:700;font-family:'Liberation Sans, sans-serif'"><tspan
                     class="TextPosition"
                     x="18065"
                     y="14112"
                     id="tspan321"><tspan
                       id="tspan323"
                       style="fill:#000000;stroke:none">·</tspan></tspan></tspan></text>
</g></g><g
             class="com.sun.star.drawing.RectangleShape"
             id="g325"><g
               id="id22"><path
                 d="m 10885,14135 -1250,0 0,-1000 2500,0 0,1000 -1250,0 z"
                 id="path328"
                 inkscape:connector-curvature="0"
                 style="fill:#ffffff;stroke:none" /><path
                 d="m 10885,14135 -1250,0 0,-1000 2500,0 0,1000 -1250,0 z"
                 id="path330"
                 inkscape:connector-curvature="0"
                 style="fill:none;stroke:#000000;stroke-width:30" /><text
                 class="TextShape"
                 id="text332"><tspan
                   class="TextParagraph"
                   font-size="494px"
                   font-weight="400"
                   id="tspan334"
                   style="font-size:494px;font-weight:400;font-family:'Liberation Sans, sans-serif'"><tspan
                     class="TextPosition"
                     x="10815"
                     y="13807"
                     id="tspan336"><tspan
                       id="tspan338"
                       style="fill:#000000;stroke:none">f</tspan></tspan></tspan></text>
</g></g><g
             class="com.sun.star.drawing.RectangleShape"
             id="g340"><g
               id="id23"><text
                 class="TextShape"
                 id="text343"><tspan
                   class="TextParagraph"
                   font-size="494px"
                   font-weight="700"
                   id="tspan345"
                   style="font-size:494px;font-weight:700;font-family:'Liberation Sans, sans-serif'"><tspan
                     class="TextPosition"
                     x="10815"
                     y="11752"
                     id="tspan347"><tspan
                       id="tspan349"
                       style="fill:#000000;stroke:none">·</tspan></tspan></tspan><tspan
                   class="TextParagraph"
                   font-size="494px"
                   font-weight="700"
                   id="tspan351"
                   style="font-size:494px;font-weight:700;font-family:'Liberation Sans, sans-serif'"><tspan
                     class="TextPosition"
                     x="10815"
                     y="12307"
                     id="tspan353"><tspan
                       id="tspan355"
                       style="fill:#000000;stroke:none">·</tspan></tspan><tspan
                     class="TextPosition"
                     x="10815"
                     y="12862"
                     id="tspan357"><tspan
                       id="tspan359"
                       style="fill:#000000;stroke:none">·</tspan></tspan></tspan></text>
</g></g><g
             class="com.sun.star.drawing.LineShape"
             id="g361"><g
               id="id24"><path
                 d="m 9635,11135 2500,0"
                 id="path364"
                 inkscape:connector-curvature="0"
                 style="fill:none;stroke:#000000;stroke-width:30" /></g></g><g
             class="com.sun.star.drawing.LineShape"
             id="g366"><g
               id="id25"><path
                 d="m 9635,16135 2500,0"
                 id="path369"
                 inkscape:connector-curvature="0"
                 style="fill:none;stroke:#000000;stroke-width:30" /></g></g><g
             class="com.sun.star.drawing.ClosedBezierShape"
             id="g371"><g
               id="id26"><path
                 d="m 7135,9135 c -387,0 -813,-47 -1200,0 -165,0 -300,-135 -300,-300 0,-133 0,-267 0,-400 0,-165 135,-300 300,-300 402,-45 798,0 1200,0 l 0,1000 z"
                 id="path374"
                 inkscape:connector-curvature="0"
                 style="fill:#ffff99;stroke:none" /><path
                 d="m 7135,9135 c -387,0 -813,-47 -1200,0 -165,0 -300,-135 -300,-300 0,-133 0,-267 0,-400 0,-165 135,-300 300,-300 402,-45 798,0 1200,0 l 0,1000 z"
                 id="path376"
                 inkscape:connector-curvature="0"
                 style="fill:none;stroke:#000000;stroke-width:30" /></g></g><g
             class="com.sun.star.drawing.ClosedBezierShape"
             id="g378"><g
               id="id27"><path
                 d="m 7135,8135 c 231,0 469,-45 700,0 165,0 300,135 300,300 0,133 0,267 0,400 0,165 -135,300 -300,300 -246,-47 -454,0 -700,0 l 0,-1000 z"
                 id="path381"
                 inkscape:connector-curvature="0"
                 style="fill:#94bd5e;stroke:none" /><path
                 d="m 7135,8135 c 231,0 469,-45 700,0 165,0 300,135 300,300 0,133 0,267 0,400 0,165 -135,300 -300,300 -246,-47 -454,0 -700,0 l 0,-1000 z"
                 id="path383"
                 inkscape:connector-curvature="0"
                 style="fill:none;stroke:#000000;stroke-width:30" /></g></g><g
             class="com.sun.star.drawing.RectangleShape"
             id="g385"><g
               id="id28"><text
                 class="TextShape"
                 id="text388"><tspan
                   class="TextParagraph"
                   font-size="494px"
                   font-weight="400"
                   id="tspan390"
                   style="font-size:494px;font-weight:400;font-family:'Liberation Sans, sans-serif'"><tspan
                     class="TextPosition"
                     x="6247"
                     y="8807"
                     id="tspan392"><tspan
                       id="tspan394"
                       style="fill:#000000;stroke:none">p</tspan></tspan></tspan></text>
</g></g><g
             class="com.sun.star.drawing.RectangleShape"
             id="g396"><g
               id="id29"><text
                 class="TextShape"
                 id="text399"><tspan
                   class="TextParagraph"
                   font-size="494px"
                   font-weight="400"
                   id="tspan401"
                   style="font-size:494px;font-weight:400;font-family:'Liberation Sans, sans-serif'"><tspan
                     class="TextPosition"
                     x="7497"
                     y="8807"
                     id="tspan403"><tspan
                       id="tspan405"
                       style="fill:#000000;stroke:none">d</tspan></tspan></tspan></text>
</g></g><g
             class="com.sun.star.drawing.ClosedBezierShape"
             id="g407"><g
               id="id30"><path
                 d="m 14135,9155 c -387,0 -813,-47 -1200,0 -165,0 -300,-135 -300,-300 0,-133 0,-267 0,-400 0,-165 135,-300 300,-300 402,-45 798,0 1200,0 l 0,1000 z"
                 id="path410"
                 inkscape:connector-curvature="0"
                 style="fill:#ffff99;stroke:none" /><path
                 d="m 14135,9155 c -387,0 -813,-47 -1200,0 -165,0 -300,-135 -300,-300 0,-133 0,-267 0,-400 0,-165 135,-300 300,-300 402,-45 798,0 1200,0 l 0,1000 z"
                 id="path412"
                 inkscape:connector-curvature="0"
                 style="fill:none;stroke:#000000;stroke-width:30" /></g></g><g
             class="com.sun.star.drawing.ClosedBezierShape"
             id="g414"><g
               id="id31"><path
                 d="m 14135,8155 c 231,0 469,-45 700,0 165,0 300,135 300,300 0,133 0,267 0,400 0,165 -135,300 -300,300 -246,-47 -454,0 -700,0 l 0,-1000 z"
                 id="path417"
                 inkscape:connector-curvature="0"
                 style="fill:#94bd5e;stroke:none" /><path
                 d="m 14135,8155 c 231,0 469,-45 700,0 165,0 300,135 300,300 0,133 0,267 0,400 0,165 -135,300 -300,300 -246,-47 -454,0 -700,0 l 0,-1000 z"
                 id="path419"
                 inkscape:connector-curvature="0"
                 style="fill:none;stroke:#000000;stroke-width:30" /></g></g><g
             class="com.sun.star.drawing.RectangleShape"
             id="g421"><g
               id="id32"><text
                 class="TextShape"
                 id="text424"><tspan
                   class="TextParagraph"
                   font-size="494px"
                   font-weight="400"
                   id="tspan426"
                   style="font-size:494px;font-weight:400;font-family:'Liberation Sans, sans-serif'"><tspan
                     class="TextPosition"
                     x="13315"
                     y="8827"
                     id="tspan428"><tspan
                       id="tspan430"
                       style="fill:#000000;stroke:none">f</tspan></tspan></tspan></text>
</g></g><g
             class="com.sun.star.drawing.RectangleShape"
             id="g432"><g
               id="id33"><text
                 class="TextShape"
                 id="text435"><tspan
                   class="TextParagraph"
                   font-size="494px"
                   font-weight="400"
                   id="tspan437"
                   style="font-size:494px;font-weight:400;font-family:'Liberation Sans, sans-serif'"><tspan
                     class="TextPosition"
                     x="14497"
                     y="8827"
                     id="tspan439"><tspan
                       id="tspan441"
                       style="fill:#000000;stroke:none">d</tspan></tspan></tspan></text>
</g></g><g
             class="com.sun.star.drawing.ConnectorShape"
             id="g443"><g
               id="id34"><path
                 d="m 6634,9135 0,4500 2507,0"
                 id="path446"
                 inkscape:connector-curvature="0"
                 style="fill:none;stroke:#000000;stroke-width:30" /><path
                 d="m 9635,13635 -517,-172 0,345 517,-173 z"
                 id="path448"
                 inkscape:connector-curvature="0"
                 style="fill:#000000;stroke:none" /></g></g><g
             class="com.sun.star.drawing.ConnectorShape"
             id="g450"><g
               id="id35"><path
                 d="m 12135,13635 1499,0 0,-4005"
                 id="path453"
                 inkscape:connector-curvature="0"
                 style="fill:none;stroke:#000000;stroke-width:30" /><path
                 d="m 13634,9135 -172,518 345,0 -173,-518 z"
                 id="path455"
                 inkscape:connector-curvature="0"
                 style="fill:#000000;stroke:none" /></g></g><g
             class="com.sun.star.drawing.ConnectorShape"
             id="g457"><g
               id="id36"><path
                 d="m 7635,8135 0,-500 7000,0 0,26"
                 id="path460"
                 inkscape:connector-curvature="0"
                 style="fill:none;stroke:#000000;stroke-width:30" /><path
                 d="m 14635,8155 173,-517 -345,0 172,517 z"
                 id="path462"
                 inkscape:connector-curvature="0"
                 style="fill:#000000;stroke:none" /></g></g></g></g></g></g></svg>