<?xml version="1.0" encoding="UTF-8"?>
<!DOCTYPE svg PUBLIC "-//W3C//DTD SVG 1.1//EN" "http://www.w3.org/Graphics/SVG/1.1/DTD/svg11.dtd">
<svg xmlns="http://www.w3.org/2000/svg" xmlns:xlink="http://www.w3.org/1999/xlink" version="1.1" width="642px" height="512px" viewBox="-0.5 -0.5 642 512"><defs><style type="text/css">@font-face {&#xa;font-family: "Ink Free";&#xa;src: url("https://ull-esit-sistemas-operativos.github.io/ssoo-apuntes/fonts/InkFree.woff");&#xa;}&#xa;</style></defs><g><rect x="471" y="1" width="170" height="340" fill="none" stroke="none" pointer-events="all"/><path d="M 471 1 C 519.47 1.11 570.48 2.46 641 1 M 471 1 C 515.87 0.47 561.08 0.57 641 1 M 641 1 C 642.07 99.9 642.15 200.01 641 341 M 641 1 C 642.32 114.5 642.04 229.16 641 341 M 641 341 C 605.82 339.21 568.96 339.42 471 341 M 641 341 C 590.29 341.58 538.2 339.87 471 341 M 471 341 C 469.38 220.01 468.89 97.52 471 1 M 471 341 C 470 265.28 470.22 189.62 471 1" fill="none" stroke="#324ab2" stroke-width="2" stroke-linejoin="round" stroke-linecap="round" stroke-miterlimit="10" pointer-events="all"/><rect x="481" y="11" width="150" height="320" fill="none" stroke="none" pointer-events="all"/><path d="M 481.19 10.78 C 481.19 10.78 481.19 10.78 481.19 10.78 M 481.19 10.78 C 481.19 10.78 481.19 10.78 481.19 10.78 M 481.33 22.82 C 485.77 18.89 490.97 14.82 491.82 10.74 M 481.33 22.82 C 484.39 19.57 486.17 18.03 491.82 10.74 M 480.8 35.61 C 488.49 27.92 494.37 18.59 502.45 10.71 M 480.8 35.61 C 486.85 28.5 493.1 19.82 502.45 10.71 M 480.94 47.65 C 492.86 34.21 506.09 19.87 513.08 10.67 M 480.94 47.65 C 491.96 35.88 501.99 23.52 513.08 10.67 M 481.07 59.69 C 496.83 39.06 516.01 23.54 523.71 10.64 M 481.07 59.69 C 492.32 47.71 501.56 36.99 523.71 10.64 M 481.2 71.74 C 499.82 48.34 519.32 28.61 533.69 11.36 M 481.2 71.74 C 497.71 52.42 513.7 34.9 533.69 11.36 M 480.68 84.53 C 502.27 56.3 528.25 31.81 544.32 11.32 M 480.68 84.53 C 494.88 67.89 508.89 52.94 544.32 11.32 M 480.81 96.57 C 495.35 80.28 513.96 60.99 554.95 11.29 M 480.81 96.57 C 506.35 67.96 531.31 38 554.95 11.29 M 480.95 108.61 C 504.6 82.87 526.02 57.73 565.58 11.26 M 480.95 108.61 C 513.57 71.33 546.37 32.73 565.58 11.26 M 481.08 120.65 C 508.46 89.97 533.22 60.75 576.21 11.22 M 481.08 120.65 C 514.67 82.87 546.78 43.97 576.21 11.22 M 481.21 132.69 C 513.58 93.8 545.82 55.98 586.84 11.19 M 481.21 132.69 C 513.35 96.45 546 58.27 586.84 11.19 M 480.69 145.49 C 528.49 91.49 571.38 38.59 597.47 11.15 M 480.69 145.49 C 523.87 94.81 569.27 43.27 597.47 11.15 M 480.82 157.53 C 511.87 123.23 536.17 92.91 608.1 11.12 M 480.82 157.53 C 524.54 107.72 566.09 58.66 608.1 11.12 M 480.96 169.57 C 510.37 134.01 543.13 96.49 618.73 11.08 M 480.96 169.57 C 531.54 108.61 583.72 49.46 618.73 11.08 M 481.09 181.61 C 522.46 135.03 562.26 86.65 629.36 11.05 M 481.09 181.61 C 519.52 135.54 559.97 90.2 629.36 11.05 M 481.22 193.65 C 532.38 134.12 584.63 76.02 636.05 15.54 M 481.22 193.65 C 543.33 122.99 605.78 51.65 636.05 15.54 M 480.7 206.45 C 517.2 167.22 552.04 125.17 636.19 27.58 M 480.7 206.45 C 527.06 153.73 573.23 100.25 636.19 27.58 M 480.83 218.49 C 538.4 150.64 598.42 82.41 636.32 39.62 M 480.83 218.49 C 518.57 175.56 556.33 132.73 636.32 39.62 M 480.97 230.53 C 523.58 182.8 563.84 134.34 636.45 51.66 M 480.97 230.53 C 516.6 189.76 554.23 147.43 636.45 51.66 M 481.1 242.57 C 515.02 203.87 547.96 167.35 635.93 64.46 M 481.1 242.57 C 544.23 170.73 604.29 100.32 635.93 64.46 M 481.23 254.61 C 513.48 218.55 546.29 179.51 636.06 76.5 M 481.23 254.61 C 532.57 196.7 581.04 139.81 636.06 76.5 M 480.71 267.41 C 540.74 200.05 595.12 135.07 636.2 88.54 M 480.71 267.41 C 523.13 217.73 565.51 166.9 636.2 88.54 M 480.84 279.45 C 529.84 223.92 576.83 167.63 636.33 100.58 M 480.84 279.45 C 542.14 209.11 602.84 137.84 636.33 100.58 M 480.98 291.49 C 534.08 227.68 589.94 162.5 635.81 113.38 M 480.98 291.49 C 513.41 252.54 547.34 212.71 635.81 113.38 M 481.11 303.53 C 517.41 261.82 554.13 216.37 635.94 125.42 M 481.11 303.53 C 529.7 248.24 579.42 190.08 635.94 125.42 M 481.24 315.57 C 513.79 278.13 545.34 243.98 636.07 137.46 M 481.24 315.57 C 522.07 268.57 562.4 222.1 636.07 137.46 M 480.72 328.37 C 535.43 267.58 586.15 209.4 636.21 149.5 M 480.72 328.37 C 539.59 261.62 597.67 194.24 636.21 149.5 M 485.45 335.12 C 526.28 288 566.71 240.07 636.34 161.54 M 485.45 335.12 C 540.75 272.25 595.22 209.13 636.34 161.54 M 496.08 335.09 C 542.95 280.77 591.4 224.61 635.82 174.34 M 496.08 335.09 C 534.32 293.51 568.72 253.23 635.82 174.34 M 506.71 335.06 C 538.97 296.36 570.37 259.84 635.95 186.38 M 506.71 335.06 C 532.42 304.11 558.99 272.77 635.95 186.38 M 517.34 335.02 C 545.58 303.7 576.2 267.22 636.08 198.42 M 517.34 335.02 C 550.62 298.22 583.55 260.61 636.08 198.42 M 527.97 334.99 C 569 291.03 609.07 244.95 636.22 210.46 M 527.97 334.99 C 567.81 287.14 610.95 238.05 636.22 210.46 M 538.6 334.95 C 564.45 306.82 590.82 275.86 636.35 222.5 M 538.6 334.95 C 572.36 295.95 606.09 257.98 636.35 222.5 M 549.23 334.92 C 566.98 313.2 585.04 293.37 635.83 235.3 M 549.23 334.92 C 566.65 314.99 584.79 296.15 635.83 235.3 M 559.86 334.88 C 580.77 309.54 599.9 286.82 635.96 247.34 M 559.86 334.88 C 575.36 316.42 592.36 297.59 635.96 247.34 M 570.49 334.85 C 587.64 317.18 601.75 296.42 636.09 259.38 M 570.49 334.85 C 588.32 313.49 606.8 293.56 636.09 259.38 M 581.12 334.81 C 599.25 313.15 618.88 291.09 636.23 271.42 M 581.12 334.81 C 595.22 318.28 607.97 302.42 636.23 271.42 M 591.75 334.78 C 606.12 317.26 620.6 298.74 636.36 283.46 M 591.75 334.78 C 608 317.14 623.43 297.05 636.36 283.46 M 602.38 334.75 C 610.25 325.3 618.07 316.03 635.84 296.26 M 602.38 334.75 C 609.25 327.17 616.51 319.77 635.84 296.26 M 613.01 334.71 C 616.55 327.5 624.51 324.34 635.97 308.3 M 613.01 334.71 C 619.2 327.55 627.18 319.03 635.97 308.3 M 623.64 334.68 C 627.55 331.81 629.17 328.41 636.1 320.34 M 623.64 334.68 C 626.85 331.4 629.89 327.58 636.1 320.34" fill="none" stroke="#c2bee6" stroke-linejoin="round" stroke-linecap="round" stroke-miterlimit="10" pointer-events="all"/><path d="M 481 11 C 535.68 11.41 590.51 10.12 631 11 M 481 11 C 525.95 10.85 569.98 11.2 631 11 M 631 11 C 628.53 118.38 627.65 223.7 631 331 M 631 11 C 632.02 101.95 631.7 192.76 631 331 M 631 331 C 596.04 331.1 559.86 333.71 481 331 M 631 331 C 581.55 332.24 532.13 331.5 481 331 M 481 331 C 481.21 213.77 478.97 97.28 481 11 M 481 331 C 479.01 251.23 479.32 171.02 481 11" fill="none" stroke="#324ab2" stroke-width="2" stroke-linejoin="round" stroke-linecap="round" stroke-miterlimit="10" pointer-events="all"/><rect x="481" y="111" width="150" height="80" fill="none" stroke="none" pointer-events="all"/><path d="M 479.33 112.25 L 630.58 110.3 L 632.03 191.29 L 482.88 190.14" fill="#ffffff" stroke="none" pointer-events="all"/><path d="M 481 111 C 524.25 109.39 566.18 109.94 631 111 M 481 111 C 536.64 110.32 593.09 111.55 631 111 M 631 111 C 631.7 137.57 632.39 167.98 631 191 M 631 111 C 630.74 129.91 630.74 148.51 631 191 M 631 191 C 575.43 191.62 519.83 189.83 481 191 M 631 191 C 579.88 189.84 530.25 190.58 481 191 M 481 191 C 479.69 159.78 480.83 126.98 481 111 M 481 191 C 479.95 174.24 479.61 155.86 481 111" fill="none" stroke="#324ab2" stroke-width="2" stroke-linejoin="round" stroke-linecap="round" stroke-miterlimit="10" pointer-events="all"/><g fill="#324AB2" font-family="Ink Free" font-weight="bold" text-anchor="middle" font-size="17px"><text x="555.5" y="145.5">Datos de</text><text x="555.5" y="165.5">la página p</text></g><rect x="391" y="321" width="75" height="20" fill="none" stroke="none" pointer-events="all"/><g fill="#324AB2" font-family="Ink Free" font-weight="bold" text-anchor="end" font-size="17px"><text x="453.5" y="335.5">0x0000</text></g><rect x="481" y="351" width="150" height="50" fill="none" stroke="none" transform="translate(556,0)scale(-1,1)translate(-556,0)" pointer-events="all"/><g fill="#324AB2" font-family="Ink Free" font-weight="bold" text-anchor="middle" font-size="17px"><text x="555.5" y="380.5">Memoria física</text></g><rect x="231" y="221" width="100" height="231" fill="none" stroke="none" pointer-events="all"/><path d="M 231 221 C 256.86 221.21 286.39 223.9 331 221 M 231 221 C 266.05 221.81 300.77 221.34 331 221 M 331 221 C 330.48 274.83 329.33 330.9 331 452 M 331 221 C 331.11 272.44 331.38 323.66 331 452 M 331 452 C 298.1 450.88 262.58 452.54 231 452 M 331 452 C 300.26 451.47 270.05 451.79 231 452 M 231 452 C 231.44 405.27 232.83 360.03 231 221 M 231 452 C 228.92 397.45 228.98 342.78 231 221" fill="none" stroke="#324ab2" stroke-width="2" stroke-linejoin="round" stroke-linecap="round" stroke-miterlimit="10" pointer-events="all"/><rect x="241" y="231" width="80" height="211" fill="none" stroke="none" pointer-events="all"/><path d="M 240.86 231.16 C 240.86 231.16 240.86 231.16 240.86 231.16 M 240.86 231.16 C 240.86 231.16 240.86 231.16 240.86 231.16 M 240.99 243.2 C 242.53 238.84 245.69 238.06 251.49 231.13 M 240.99 243.2 C 243.32 239.87 245.83 238.14 251.49 231.13 M 241.13 255.24 C 244.87 251.95 248.78 243.84 262.12 231.09 M 241.13 255.24 C 245.31 251.06 249.24 244.53 262.12 231.09 M 241.26 267.28 C 250.28 258.17 260.62 247.02 272.75 231.06 M 241.26 267.28 C 249.75 257.54 258.15 249.21 272.75 231.06 M 240.74 280.08 C 252.29 267.09 265.43 251.9 283.38 231.02 M 240.74 280.08 C 249.05 269.12 258.72 258.16 283.38 231.02 M 240.87 292.12 C 251.46 277.18 266.54 262.92 294.01 230.99 M 240.87 292.12 C 253.12 276.67 265.62 261.71 294.01 230.99 M 241 304.16 C 262.09 278.89 282.91 255.89 304.64 230.95 M 241 304.16 C 259.19 283.98 277.26 263.54 304.64 230.95 M 241.14 316.2 C 258.47 293.87 279.94 272.51 315.27 230.92 M 241.14 316.2 C 269.4 284.96 297.75 251.91 315.27 230.92 M 241.27 328.24 C 271.82 292.58 305.45 255.03 323.93 233.15 M 241.27 328.24 C 272.34 292.72 302.32 256.15 323.93 233.15 M 240.75 341.04 C 263.54 312.76 286.88 284.26 323.41 245.94 M 240.75 341.04 C 271.8 306.83 300.19 272.82 323.41 245.94 M 240.88 353.08 C 269.46 321.86 293.84 289.56 323.54 257.99 M 240.88 353.08 C 273.28 315.95 306.07 279.11 323.54 257.99 M 241.01 365.12 C 264.39 339.96 287.52 311.42 323.68 270.03 M 241.01 365.12 C 271.78 329.37 303.87 293.6 323.68 270.03 M 241.15 377.16 C 264.71 348.4 288.92 320.86 323.81 282.07 M 241.15 377.16 C 267.91 344.89 295.82 315.06 323.81 282.07 M 241.28 389.2 C 274.64 354.82 304.84 318.76 323.94 294.11 M 241.28 389.2 C 265.51 361.07 290.75 331.4 323.94 294.11 M 240.76 402 C 269.4 369.27 299.8 336.37 323.42 306.9 M 240.76 402 C 261.78 376.53 282.98 351.64 323.42 306.9 M 240.89 414.04 C 268.27 384.07 295.45 350.39 323.55 318.94 M 240.89 414.04 C 270.02 380.66 296.76 349.35 323.55 318.94 M 241.02 426.08 C 262.43 402.37 282.12 381.85 323.69 330.99 M 241.02 426.08 C 270.91 393.75 299.2 359.45 323.69 330.99 M 241.16 438.12 C 267.61 409.64 293.86 374.98 323.82 343.03 M 241.16 438.12 C 269.42 406.46 295.53 375.35 323.82 343.03 M 245.22 445.63 C 268.78 420.66 286.65 397.68 323.95 355.07 M 245.22 445.63 C 268.12 417.84 291.89 391 323.95 355.07 M 255.85 445.6 C 277.79 420 296.56 395.75 323.43 367.86 M 255.85 445.6 C 273.61 425.15 290.44 405.14 323.43 367.86 M 266.48 445.56 C 288.69 421.22 309.69 395.76 323.56 379.9 M 266.48 445.56 C 281.14 429.87 292.88 415.1 323.56 379.9 M 277.12 445.53 C 290.07 427.91 303.33 413.64 323.7 391.94 M 277.12 445.53 C 293.9 425.84 312.46 404.71 323.7 391.94 M 287.75 445.49 C 295.56 435.01 307.84 422.25 323.83 403.99 M 287.75 445.49 C 296.37 436.94 304.28 427.38 323.83 403.99 M 298.38 445.46 C 303.58 437.15 310.64 431.69 323.96 416.03 M 298.38 445.46 C 303.48 438.62 309.52 432.17 323.96 416.03 M 309.01 445.43 C 313.92 440.46 315.75 435.83 323.44 428.82 M 309.01 445.43 C 311.39 441.19 316.34 437.49 323.44 428.82" fill="none" stroke="#c2bee6" stroke-linejoin="round" stroke-linecap="round" stroke-miterlimit="10" pointer-events="all"/><path d="M 241 231 C 264.4 232.88 284.47 232.65 321 231 M 241 231 C 271.07 231.53 301.65 230.67 321 231 M 321 231 C 320.86 301.34 321.43 371.53 321 442 M 321 231 C 321.01 284.12 320.32 336.84 321 442 M 321 442 C 301.53 442.43 278.22 443.61 241 442 M 321 442 C 293.96 441.91 264.73 441.16 241 442 M 241 442 C 240.5 387.2 241.43 334.88 241 231 M 241 442 C 241.83 394.57 241.19 345.95 241 231" fill="none" stroke="#324ab2" stroke-width="2" stroke-linejoin="round" stroke-linecap="round" stroke-miterlimit="10" pointer-events="all"/><rect x="241" y="342" width="80" height="30" fill="none" stroke="none" pointer-events="all"/><path d="M 239.38 341.27 L 320.58 343.03 L 319.53 371.42 L 241.32 370.33" fill="#ffffff" stroke="none" pointer-events="all"/><path d="M 241 342 C 263.26 343.48 286.15 343.45 321 342 M 241 342 C 262.03 342.26 281.94 342.62 321 342 M 321 342 C 319.55 351.58 319.05 365.48 321 372 M 321 342 C 320.73 348.38 320.85 356.32 321 372 M 321 372 C 304 372.1 285.75 370.78 241 372 M 321 372 C 289.93 372.21 258.45 372.35 241 372 M 241 372 C 241.73 358.86 239.33 346.37 241 342 M 241 372 C 241.46 360.98 240.9 348.53 241 342" fill="none" stroke="#324ab2" stroke-width="2" stroke-linejoin="round" stroke-linecap="round" stroke-miterlimit="10" pointer-events="all"/><g fill="#324AB2" font-family="Ink Free" font-weight="bold" text-anchor="middle" font-size="17px"><text x="280.5" y="361.5">f</text></g><rect x="201" y="461" width="160" height="50" fill="none" stroke="none" transform="translate(281,0)scale(-1,1)translate(-281,0)" pointer-events="all"/><g fill="#324AB2" font-family="Ink Free" font-weight="bold" text-anchor="middle" font-size="17px"><text x="280.5" y="490.5">Tabla de páginas</text></g><path d="M 186 131 L 186 101 L 386 101 L 386 118.26" fill="none" stroke="none" pointer-events="stroke"/><path d="M 386 128.76 L 379 114.76 L 386 118.26 L 393 114.76 Z" fill="none" stroke="none" pointer-events="all"/><path d="M 186 131 M 186 131 C 187.21 124.34 184.47 114.57 186 101 M 186 131 C 187.12 119.73 186.56 109.5 186 101 M 186 101 C 237.45 101.61 286.42 103.75 386 101 M 186 101 C 239.57 100.29 292.1 101.03 386 101 M 386 101 C 386.31 103.16 386.91 107.83 386 118.26 M 386 101 C 385.44 108.13 386.24 114.19 386 118.26" fill="none" stroke="#324ab2" stroke-width="2" stroke-linejoin="round" stroke-linecap="round" stroke-miterlimit="10" pointer-events="stroke"/><path d="M 378.69 115.12 C 378.69 115.12 378.69 115.12 378.69 115.12 M 378.69 115.12 C 378.69 115.12 378.69 115.12 378.69 115.12 M 382.76 122.63 C 383.9 121.54 384.37 121.19 386.04 118.86 M 382.76 122.63 C 383.71 121.59 384.39 120.79 386.04 118.86" fill="none" stroke="#324ab2" stroke-linejoin="round" stroke-linecap="round" stroke-miterlimit="10" pointer-events="all"/><path d="M 386 128.76 M 386 128.76 C 384.87 124.62 383.96 122.71 379 114.76 M 386 128.76 C 382.62 123.87 380.67 117.99 379 114.76 M 379 114.76 C 380.23 114.83 382.67 116.86 386 118.26 M 379 114.76 C 381.41 115.6 383.69 116.61 386 118.26 M 386 118.26 C 387.37 117.82 389.8 116.37 393 114.76 M 386 118.26 C 388.35 117.09 390.32 115.6 393 114.76 M 393 114.76 C 392.41 120.08 388.45 123.85 386 128.76 M 393 114.76 C 390.43 118.5 389.26 122.75 386 128.76" fill="none" stroke="#324ab2" stroke-width="2" stroke-linejoin="round" stroke-linecap="round" stroke-miterlimit="10" pointer-events="all"/><rect x="381" y="179" width="85" height="21" fill="none" stroke="none" transform="translate(423.5,0)scale(-1,1)translate(-423.5,0)" pointer-events="all"/><g fill="#B85450" font-family="Ink Free" font-weight="bold" text-anchor="middle" font-size="14px"><text x="423" y="192.5">f | 000...00b</text></g><path d="M 401 146 L 457.24 145.87" fill="none" stroke="none" pointer-events="stroke"/><path d="M 467.74 145.85 L 453.76 152.88 L 457.24 145.87 L 453.73 138.88 Z" fill="none" stroke="none" pointer-events="all"/><path d="M 401 146 M 401 146 C 416.31 146.13 431.74 145.89 457.24 145.87 M 401 146 C 419.55 146.75 436.59 147.22 457.24 145.87" fill="none" stroke="#324ab2" stroke-width="2" stroke-linejoin="round" stroke-linecap="round" stroke-miterlimit="10" pointer-events="stroke"/><path d="M 453.53 139.11 C 453.53 139.11 453.53 139.11 453.53 139.11 M 453.53 139.11 C 453.53 139.11 453.53 139.11 453.53 139.11 M 457.6 146.62 C 458.19 145.3 459.16 145.37 460.88 142.85 M 457.6 146.62 C 458.81 145.54 459.86 144.18 460.88 142.85" fill="none" stroke="#324ab2" stroke-linejoin="round" stroke-linecap="round" stroke-miterlimit="10" pointer-events="all"/><path d="M 467.74 145.85 M 467.74 145.85 C 465.74 147.3 461.62 149.41 453.76 152.88 M 467.74 145.85 C 461.81 147.92 456.42 150.48 453.76 152.88 M 453.76 152.88 C 454.9 150 456.42 147.92 457.24 145.87 M 453.76 152.88 C 454.63 151.34 456 149.06 457.24 145.87 M 457.24 145.87 C 455.81 143.36 455.22 141.33 453.73 138.88 M 457.24 145.87 C 456.7 144.58 455.74 142.9 453.73 138.88 M 453.73 138.88 C 459.63 141.42 463.44 144.12 467.74 145.85 M 453.73 138.88 C 457.41 140.76 461.69 142.95 467.74 145.85" fill="none" stroke="#324ab2" stroke-width="2" stroke-linejoin="round" stroke-linecap="round" stroke-miterlimit="10" pointer-events="all"/><rect x="141" y="131" width="30" height="30" fill="none" stroke="none" pointer-events="all"/><path d="M 141.14 132.55 L 171.01 130.88 L 171.05 160.31 L 142.14 161.39" fill="#ffffff" stroke="none" pointer-events="all"/><path d="M 141 131 C 149.39 132.44 157.8 128.83 171 131 M 141 131 C 151.36 130.33 161.33 130.5 171 131 M 171 131 C 169.52 141.69 170.99 151.37 171 161 M 171 131 C 170.99 139.09 171.36 146.21 171 161 M 171 161 C 161.53 160.41 153.06 161.67 141 161 M 171 161 C 160.83 160.68 152.63 161.13 141 161 M 141 161 C 140.76 149.03 139.42 140.64 141 131 M 141 161 C 140.52 151.99 140.13 140.8 141 131" fill="none" stroke="#324ab2" stroke-width="2" stroke-linejoin="round" stroke-linecap="round" stroke-miterlimit="10" pointer-events="all"/><g fill="#324AB2" font-family="Ink Free" font-weight="bold" text-anchor="middle" font-size="17px"><text x="155.5" y="150.5">p</text></g><rect x="171" y="131" width="30" height="30" fill="none" stroke="none" pointer-events="all"/><path d="M 170.32 129.41 L 202.71 132.67 L 201.72 161.98 L 171.86 160.14" fill="#ffffff" stroke="none" pointer-events="all"/><path d="M 171 131 C 177.58 132.39 187.66 132.66 201 131 M 171 131 C 178.83 129.98 186.95 131.48 201 131 M 201 131 C 200.56 139.05 201.98 148.98 201 161 M 201 131 C 200.7 138.28 200.78 147.39 201 161 M 201 161 C 188.45 160.61 177.44 159.93 171 161 M 201 161 C 192.92 162.23 185.31 160.63 171 161 M 171 161 C 171.3 150.27 171.64 140.75 171 131 M 171 161 C 170.91 151.28 171.53 141.32 171 131" fill="none" stroke="#324ab2" stroke-width="2" stroke-linejoin="round" stroke-linecap="round" stroke-miterlimit="10" pointer-events="all"/><g fill="#324AB2" font-family="Ink Free" font-weight="bold" text-anchor="middle" font-size="17px"><text x="185.5" y="150.5">d</text></g><rect x="371" y="131" width="30" height="30" fill="none" stroke="none" pointer-events="all"/><path d="M 369.9 129.27 L 401.74 131.84 L 402.25 159.3 L 372.32 162.81" fill="#ffffff" stroke="none" pointer-events="all"/><path d="M 371 131 C 380 132.11 388.75 130.4 401 131 M 371 131 C 377.15 130.77 382.22 131.87 401 131 M 401 131 C 399.25 140.76 400.17 152.17 401 161 M 401 131 C 401.75 139.39 400.27 147.49 401 161 M 401 161 C 392.94 161.68 389.09 160.34 371 161 M 401 161 C 393.66 160.17 387.28 160.71 371 161 M 371 161 C 370.47 151.26 371.04 143.62 371 131 M 371 161 C 371.73 151.63 371.47 140.27 371 131" fill="none" stroke="#324ab2" stroke-width="2" stroke-linejoin="round" stroke-linecap="round" stroke-miterlimit="10" pointer-events="all"/><g fill="#324AB2" font-family="Ink Free" font-weight="bold" text-anchor="middle" font-size="17px"><text x="385.5" y="150.5">d</text></g><rect x="341" y="131" width="30" height="30" fill="none" stroke="none" pointer-events="all"/><path d="M 342.46 132.95 L 370.22 130.89 L 370.28 162.61 L 340.99 159.5" fill="#ffffff" stroke="none" pointer-events="all"/><path d="M 341 131 C 349.39 131.82 358.04 130.81 371 131 M 341 131 C 347.86 130.3 353.69 129.94 371 131 M 371 131 C 371.87 141.1 369.32 146.74 371 161 M 371 131 C 370.62 137.9 370.71 145.75 371 161 M 371 161 C 359.72 160.72 347.32 159.49 341 161 M 371 161 C 364.73 161.88 357.95 162.11 341 161 M 341 161 C 342.94 148.72 341.89 139.22 341 131 M 341 161 C 340.2 152.39 340.64 146.13 341 131" fill="none" stroke="#324ab2" stroke-width="2" stroke-linejoin="round" stroke-linecap="round" stroke-miterlimit="10" pointer-events="all"/><g fill="#324AB2" font-family="Ink Free" font-weight="bold" text-anchor="middle" font-size="17px"><text x="355.5" y="150.5">f</text></g><rect x="391" y="100" width="75" height="21" fill="none" stroke="none" transform="translate(428.5,0)scale(-1,1)translate(-428.5,0)" pointer-events="all"/><g fill="#B85450" font-family="Ink Free" font-weight="bold" text-anchor="middle" font-size="14px"><text x="428" y="113.5">f | 111...11b</text></g><rect x="241" y="231" width="80" height="30" fill="none" stroke="none" pointer-events="all"/><path d="M 241 231 C 260.78 229.58 279.96 230.44 321 231 M 241 231 C 262.82 230.56 286.06 231.72 321 231 M 321 231 C 319.38 240.73 321.38 253.82 321 261 M 321 231 C 319.94 243.36 320.71 255.59 321 261 M 321 261 C 300.98 259.17 278.25 258.99 241 261 M 321 261 C 290.15 260.02 261.11 261.08 241 261 M 241 261 C 240.85 249.54 242.79 240.78 241 231 M 241 261 C 241.19 249.4 240.31 237.33 241 231" fill="none" stroke="#324ab2" stroke-width="2" stroke-linejoin="round" stroke-linecap="round" stroke-miterlimit="10" pointer-events="all"/><rect x="241" y="261" width="80" height="30" fill="none" stroke="none" pointer-events="all"/><path d="M 241 261 C 259.64 261.58 281.64 258.64 321 261 M 241 261 C 269.77 260.29 296.35 260.67 321 261 M 321 261 C 319.39 267.96 320.25 274.77 321 291 M 321 261 C 321.22 272.39 320.89 283.65 321 291 M 321 291 C 303.45 290.44 285.78 291.76 241 291 M 321 291 C 304.12 290.32 286.83 290.26 241 291 M 241 291 C 238.96 281.3 241.43 272.13 241 261 M 241 291 C 241.55 280.78 240.84 272 241 261" fill="none" stroke="#324ab2" stroke-width="2" stroke-linejoin="round" stroke-linecap="round" stroke-miterlimit="10" pointer-events="all"/><rect x="181" y="236" width="50" height="20" fill="none" stroke="none" pointer-events="all"/><g fill="#324AB2" font-family="Ink Free" font-weight="bold" text-anchor="end" font-size="17px"><text x="218.5" y="250.5">[0]</text></g><rect x="181" y="266" width="50" height="20" fill="none" stroke="none" pointer-events="all"/><g fill="#324AB2" font-family="Ink Free" font-weight="bold" text-anchor="end" font-size="17px"><text x="218.5" y="280.5">[1]</text></g><rect x="181" y="331" width="50" height="20" fill="none" stroke="none" pointer-events="all"/><g fill="#324AB2" font-family="Ink Free" font-weight="bold" text-anchor="end" font-size="17px"><text x="218.5" y="345.5">[p]</text></g><path d="M 156 161 L 156 357 L 228.26 357" fill="none" stroke="none" pointer-events="stroke"/><path d="M 238.76 357 L 224.76 364 L 228.26 357 L 224.76 350 Z" fill="none" stroke="none" pointer-events="all"/><path d="M 156 161 M 156 161 C 157.48 210.58 157.39 258.15 156 357 M 156 161 C 156.68 220.85 155.1 282.14 156 357 M 156 357 C 184.62 356.84 211.97 358.55 228.26 357 M 156 357 C 174.36 356.83 192.32 357.9 228.26 357" fill="none" stroke="#324ab2" stroke-width="2" stroke-linejoin="round" stroke-linecap="round" stroke-miterlimit="10" pointer-events="stroke"/><path d="M 224.92 349.81 C 224.92 349.81 224.92 349.81 224.92 349.81 M 224.92 349.81 C 224.92 349.81 224.92 349.81 224.92 349.81 M 228.99 357.32 C 230.36 355.72 231.43 354.68 232.27 353.55 M 228.99 357.32 C 229.93 356.21 230.78 355.54 232.27 353.55" fill="none" stroke="#324ab2" stroke-linejoin="round" stroke-linecap="round" stroke-miterlimit="10" pointer-events="all"/><path d="M 238.76 357 M 238.76 357 C 236.51 359.9 231.8 359.02 224.76 364 M 238.76 357 C 236.28 358.82 232.55 360.67 224.76 364 M 224.76 364 C 225.05 362.3 226.23 361.25 228.26 357 M 224.76 364 C 225.63 361.68 226.69 359.8 228.26 357 M 228.26 357 C 227.5 354.95 225.74 352.5 224.76 350 M 228.26 357 C 227.06 354.57 225.6 352.09 224.76 350 M 224.76 350 C 228.22 353.07 231 354.14 238.76 357 M 224.76 350 C 228.35 352.43 233.79 353.96 238.76 357" fill="none" stroke="#324ab2" stroke-width="2" stroke-linejoin="round" stroke-linecap="round" stroke-miterlimit="10" pointer-events="all"/><path d="M 321 357 L 356 357 L 356 173.74" fill="none" stroke="none" pointer-events="stroke"/><path d="M 356 163.24 L 363 177.24 L 356 173.74 L 349 177.24 Z" fill="none" stroke="none" pointer-events="all"/><path d="M 321 357 M 321 357 C 329.42 358.52 340.28 356.97 356 357 M 321 357 C 330.34 357.03 341.72 358.3 356 357 M 356 357 C 355.46 289.68 353.56 223.56 356 173.74 M 356 357 C 355.4 301.57 355.29 246.37 356 173.74" fill="none" stroke="#324ab2" stroke-width="2" stroke-linejoin="round" stroke-linecap="round" stroke-miterlimit="10" pointer-events="stroke"/><path d="M 356.13 163.09 C 356.13 163.09 356.13 163.09 356.13 163.09 M 356.13 163.09 C 356.13 163.09 356.13 163.09 356.13 163.09 M 356.92 174.37 C 357.91 173.14 358.48 172.12 359.55 171.36 M 356.92 174.37 C 357.63 173.45 358.4 172.58 359.55 171.36" fill="none" stroke="#324ab2" stroke-linejoin="round" stroke-linecap="round" stroke-miterlimit="10" pointer-events="all"/><path d="M 356 163.24 M 356 163.24 C 358.51 167.4 362.47 174.19 363 177.24 M 356 163.24 C 358.21 167.24 360.25 171.67 363 177.24 M 363 177.24 C 360.21 175.68 358.38 174.94 356 173.74 M 363 177.24 C 361.31 176.27 359.67 175.82 356 173.74 M 356 173.74 C 353.89 175.09 352.49 175.48 349 177.24 M 356 173.74 C 353.38 174.97 351.4 176.15 349 177.24 M 349 177.24 C 352.86 174.14 354.14 167.01 356 163.24 M 349 177.24 C 351.04 173.19 352.87 167.91 356 163.24" fill="none" stroke="#324ab2" stroke-width="2" stroke-linejoin="round" stroke-linecap="round" stroke-miterlimit="10" pointer-events="all"/><path d="M 81 146 L 128.26 146" fill="none" stroke="none" pointer-events="stroke"/><path d="M 138.76 146 L 124.76 153 L 128.26 146 L 124.76 139 Z" fill="none" stroke="none" pointer-events="all"/><path d="M 81 146 M 81 146 C 93.09 143.73 103.52 146.78 128.26 146 M 81 146 C 96.29 145.92 110.76 144.85 128.26 146" fill="none" stroke="#324ab2" stroke-width="2" stroke-linejoin="round" stroke-linecap="round" stroke-miterlimit="10" pointer-events="stroke"/><path d="M 124.51 139.29 C 124.51 139.29 124.51 139.29 124.51 139.29 M 124.51 139.29 C 124.51 139.29 124.51 139.29 124.51 139.29 M 128.58 146.8 C 129.23 146.24 130.78 144.32 131.86 143.03 M 128.58 146.8 C 129.12 145.76 130.01 145.3 131.86 143.03" fill="none" stroke="#324ab2" stroke-linejoin="round" stroke-linecap="round" stroke-miterlimit="10" pointer-events="all"/><path d="M 138.76 146 M 138.76 146 C 133.55 149.44 132.56 149.98 124.76 153 M 138.76 146 C 135.11 147.44 132.31 149.6 124.76 153 M 124.76 153 C 126.67 150.28 127.18 148.87 128.26 146 M 124.76 153 C 125.61 150.75 126.69 148.96 128.26 146 M 128.26 146 C 127.37 143.72 126.08 141.99 124.76 139 M 128.26 146 C 127.33 144.07 126.96 142.76 124.76 139 M 124.76 139 C 128.95 141.94 135.83 145.11 138.76 146 M 124.76 139 C 127.25 140.63 130.54 141.97 138.76 146" fill="none" stroke="#324ab2" stroke-width="2" stroke-linejoin="round" stroke-linecap="round" stroke-miterlimit="10" pointer-events="all"/><ellipse cx="41" cy="146" rx="40" ry="40" fill="none" stroke="none" pointer-events="all"/><path d="M 44.07 104.56 C 51.32 104.6 59.65 109.49 65.42 114.78 C 71.18 120.07 76.54 128.57 78.64 136.32 C 80.74 144.07 80.7 153.93 77.99 161.25 C 75.28 168.58 68.78 175.92 62.38 180.26 C 55.99 184.59 47.08 187.58 39.61 187.26 C 32.14 186.94 23.61 183.25 17.57 178.36 C 11.53 173.47 5.72 165.39 3.37 157.93 C 1.02 150.47 1.01 141.16 3.49 133.59 C 5.97 126.01 11.96 117.09 18.22 112.46 C 24.49 107.84 36.65 106.92 41.08 105.86 C 45.51 104.8 43.76 105.97 44.8 106.1 C 45.84 106.23 47.35 106.11 47.31 106.62 M 51.95 106.5 C 58.77 108.49 67.93 115.62 72.48 122.24 C 77.03 128.86 79.34 138.28 79.24 146.21 C 79.13 154.15 76.2 163.75 71.84 169.86 C 67.49 175.98 59.87 180.19 53.09 182.88 C 46.31 185.58 38.39 187.97 31.15 186.05 C 23.91 184.13 14.42 177.94 9.64 171.38 C 4.86 164.82 2.61 154.64 2.48 146.71 C 2.35 138.77 4.72 129.99 8.83 123.76 C 12.95 117.54 19.99 112.15 27.18 109.37 C 34.37 106.59 47.76 107.19 51.96 107.09 C 56.16 107 52.25 108.77 52.36 108.78 C 52.48 108.78 52.55 106.79 52.65 107.14" fill="none" stroke="#324ab2" stroke-width="2" stroke-linejoin="round" stroke-linecap="round" stroke-miterlimit="10" pointer-events="all"/><g fill="#324ab2" font-family="Ink Free" font-weight="bold" text-anchor="middle" font-size="17px"><text x="40.5" y="150.5">CPU</text></g><rect x="101" y="71" width="80" height="50" fill="none" stroke="none" transform="translate(141,0)scale(-1,1)translate(-141,0)" pointer-events="all"/><g fill="#324AB2" font-family="Ink Free" font-weight="bold" text-anchor="middle" font-size="17px"><text x="140.5" y="90.5">Dirección</text><text x="140.5" y="110.5">virtual</text></g><rect x="321" y="50" width="80" height="50" fill="none" stroke="none" transform="translate(361,0)scale(-1,1)translate(-361,0)" pointer-events="all"/><g fill="#324AB2" font-family="Ink Free" font-weight="bold" text-anchor="middle" font-size="17px"><text x="360.5" y="69.5">Dirección</text><text x="360.5" y="89.5">física</text></g></g></svg>