<?xml version="1.0" encoding="UTF-8"?>
<!DOCTYPE svg PUBLIC "-//W3C//DTD SVG 1.1//EN" "http://www.w3.org/Graphics/SVG/1.1/DTD/svg11.dtd">
<svg xmlns="http://www.w3.org/2000/svg" xmlns:xlink="http://www.w3.org/1999/xlink" version="1.1" width="672px" height="652px" viewBox="-0.5 -0.5 672 652"><defs><style type="text/css">@font-face {&#xa;font-family: "Ink Free";&#xa;src: url("https://ull-esit-sistemas-operativos.github.io/ssoo-apuntes/fonts/InkFree.woff");&#xa;}&#xa;</style></defs><g><path d="M 163.5 161 L 164 246 L 208.26 246" fill="none" stroke="none" pointer-events="stroke"/><path d="M 218.76 246 L 204.76 253 L 208.26 246 L 204.76 239 Z" fill="none" stroke="none" pointer-events="all"/><path d="M 163.5 161 M 163.5 161 C 164.67 182.54 164.71 202.07 164 246 M 163.5 161 C 164.36 186.4 162.94 213.25 164 246 M 164 246 C 181.7 245.66 198.13 247.38 208.26 246 M 164 246 C 175.46 245.56 186.52 246.63 208.26 246" fill="none" stroke="#b85450" stroke-width="2" stroke-linejoin="round" stroke-linecap="round" stroke-miterlimit="10" pointer-events="stroke"/><path d="M 204.96 238.77 C 204.96 238.77 204.96 238.77 204.96 238.77 M 204.96 238.77 C 204.96 238.77 204.96 238.77 204.96 238.77 M 209.03 246.29 C 210.39 244.68 211.46 243.64 212.31 242.51 M 209.03 246.29 C 209.96 245.17 210.81 244.51 212.31 242.51" fill="none" stroke="#b85450" stroke-linejoin="round" stroke-linecap="round" stroke-miterlimit="10" pointer-events="all"/><path d="M 218.76 246 M 218.76 246 C 216.51 248.9 211.8 248.02 204.76 253 M 218.76 246 C 216.28 247.82 212.55 249.67 204.76 253 M 204.76 253 C 205.05 251.3 206.23 250.25 208.26 246 M 204.76 253 C 205.63 250.68 206.69 248.8 208.26 246 M 208.26 246 C 207.5 243.95 205.74 241.5 204.76 239 M 208.26 246 C 207.06 243.57 205.6 241.09 204.76 239 M 204.76 239 C 208.22 242.07 211 243.14 218.76 246 M 204.76 239 C 208.35 241.43 213.79 242.96 218.76 246" fill="none" stroke="#b85450" stroke-width="2" stroke-linejoin="round" stroke-linecap="round" stroke-miterlimit="10" pointer-events="all"/><path d="M 148.5 161 L 149 497 L 258.26 497" fill="none" stroke="none" pointer-events="stroke"/><path d="M 268.76 497 L 254.76 504 L 258.26 497 L 254.76 490 Z" fill="none" stroke="none" pointer-events="all"/><path d="M 148.5 161 M 148.5 161 C 148.51 275.91 149.36 393.25 149 497 M 148.5 161 C 147.72 228.96 146.76 296.57 149 497 M 149 497 C 180.38 498.79 209.82 495.68 258.26 497 M 149 497 C 181.37 497.28 212.49 497.34 258.26 497" fill="none" stroke="#324ab2" stroke-width="2" stroke-linejoin="round" stroke-linecap="round" stroke-miterlimit="10" pointer-events="stroke"/><path d="M 254.71 490.05 C 254.71 490.05 254.71 490.05 254.71 490.05 M 254.71 490.05 C 254.71 490.05 254.71 490.05 254.71 490.05 M 258.78 497.57 C 259.88 496.99 260.52 495.15 262.06 493.79 M 258.78 497.57 C 259.91 496.6 260.71 495.51 262.06 493.79" fill="none" stroke="#324ab2" stroke-linejoin="round" stroke-linecap="round" stroke-miterlimit="10" pointer-events="all"/><path d="M 268.76 497 M 268.76 497 C 263.16 498.12 261.05 502.18 254.76 504 M 268.76 497 C 263.88 499.47 259.52 501.31 254.76 504 M 254.76 504 C 255.93 501.15 257.51 499.06 258.26 497 M 254.76 504 C 255.6 502.52 256.62 500.41 258.26 497 M 258.26 497 C 256.99 495.04 256.9 494.16 254.76 490 M 258.26 497 C 256.74 494.27 255.78 491.88 254.76 490 M 254.76 490 C 257.41 490.93 262.1 494.75 268.76 497 M 254.76 490 C 259.51 492.73 262.45 494.2 268.76 497" fill="none" stroke="#324ab2" stroke-width="2" stroke-linejoin="round" stroke-linecap="round" stroke-miterlimit="10" pointer-events="all"/><rect x="501" y="1" width="170" height="340" fill="none" stroke="none" pointer-events="all"/><path d="M 501 1 C 549.47 1.11 600.48 2.46 671 1 M 501 1 C 545.87 0.47 591.08 0.57 671 1 M 671 1 C 672.07 99.9 672.15 200.01 671 341 M 671 1 C 672.32 114.5 672.04 229.16 671 341 M 671 341 C 635.82 339.21 598.96 339.42 501 341 M 671 341 C 620.29 341.58 568.2 339.87 501 341 M 501 341 C 499.38 220.01 498.89 97.52 501 1 M 501 341 C 500 265.28 500.22 189.62 501 1" fill="none" stroke="#324ab2" stroke-width="2" stroke-linejoin="round" stroke-linecap="round" stroke-miterlimit="10" pointer-events="all"/><rect x="511" y="11" width="150" height="320" fill="none" stroke="none" pointer-events="all"/><path d="M 511.21 10.76 C 511.21 10.76 511.21 10.76 511.21 10.76 M 511.21 10.76 C 511.21 10.76 511.21 10.76 511.21 10.76 M 510.68 23.56 C 515.4 19.39 520.93 15.06 521.84 10.73 M 510.68 23.56 C 513.94 20.11 515.83 18.47 521.84 10.73 M 510.82 35.6 C 518.5 27.91 524.38 18.58 532.47 10.69 M 510.82 35.6 C 516.86 28.48 523.11 19.81 532.47 10.69 M 510.95 47.64 C 522.87 34.19 536.1 19.86 543.1 10.66 M 510.95 47.64 C 521.97 35.87 532 23.51 543.1 10.66 M 511.08 59.68 C 526.84 39.05 546.03 23.53 553.73 10.62 M 511.08 59.68 C 522.33 47.7 531.57 36.98 553.73 10.62 M 511.22 71.72 C 529.83 48.32 549.33 28.6 563.7 11.34 M 511.22 71.72 C 527.72 52.41 543.71 34.89 563.7 11.34 M 510.69 84.52 C 532.28 56.29 558.27 31.79 574.33 11.31 M 510.69 84.52 C 524.89 67.88 538.9 52.93 574.33 11.31 M 510.83 96.56 C 525.36 80.27 543.97 60.97 584.96 11.28 M 510.83 96.56 C 536.36 67.94 561.32 37.99 584.96 11.28 M 510.96 108.6 C 534.62 82.86 556.04 57.72 595.59 11.24 M 510.96 108.6 C 543.58 71.31 576.38 32.71 595.59 11.24 M 511.09 120.64 C 538.47 89.95 563.24 60.74 606.22 11.21 M 511.09 120.64 C 544.68 82.85 576.79 43.96 606.22 11.21 M 511.23 132.68 C 543.59 93.78 575.84 55.96 616.85 11.17 M 511.23 132.68 C 543.36 96.43 576.01 58.26 616.85 11.17 M 510.7 145.48 C 558.5 91.48 601.4 38.58 627.48 11.14 M 510.7 145.48 C 553.88 94.8 599.28 43.26 627.48 11.14 M 510.84 157.52 C 541.88 123.22 566.18 92.9 638.11 11.1 M 510.84 157.52 C 554.55 107.71 596.11 58.64 638.11 11.1 M 510.97 169.56 C 540.38 133.99 573.14 96.48 648.74 11.07 M 510.97 169.56 C 561.55 108.6 613.73 49.44 648.74 11.07 M 511.1 181.6 C 552.47 135.02 592.28 86.64 659.37 11.03 M 511.1 181.6 C 549.54 135.52 589.98 90.19 659.37 11.03 M 511.24 193.64 C 562.4 134.1 614.64 76 666.07 15.53 M 511.24 193.64 C 573.35 122.97 635.79 51.64 666.07 15.53 M 510.71 206.44 C 547.21 167.2 582.05 125.15 666.2 27.57 M 510.71 206.44 C 557.07 153.71 603.24 100.23 666.2 27.57 M 510.85 218.48 C 568.42 150.63 628.44 82.39 666.33 39.61 M 510.85 218.48 C 548.58 175.55 586.34 132.72 666.33 39.61 M 510.98 230.52 C 553.42 182.99 593.49 134.74 665.81 52.41 M 510.98 230.52 C 546.46 189.92 583.93 147.77 665.81 52.41 M 511.11 242.56 C 545.03 203.86 577.97 167.33 665.94 64.45 M 511.11 242.56 C 574.24 170.72 634.3 100.31 665.94 64.45 M 511.25 254.6 C 543.5 218.54 576.3 179.5 666.08 76.49 M 511.25 254.6 C 562.58 196.69 611.05 139.8 666.08 76.49 M 510.72 267.39 C 570.75 200.03 625.13 135.06 666.21 88.53 M 510.72 267.39 C 553.14 217.72 595.52 166.89 666.21 88.53 M 510.86 279.43 C 559.85 223.91 606.84 167.61 666.34 100.57 M 510.86 279.43 C 572.16 209.1 632.85 137.83 666.34 100.57 M 510.99 291.48 C 564.09 227.67 619.95 162.49 665.82 113.36 M 510.99 291.48 C 543.43 252.53 577.35 212.69 665.82 113.36 M 511.12 303.52 C 547.43 261.8 584.14 216.35 665.95 125.41 M 511.12 303.52 C 559.71 248.22 609.43 190.06 665.95 125.41 M 511.25 315.56 C 543.8 278.12 575.36 243.97 666.08 137.45 M 511.25 315.56 C 552.09 268.55 592.41 222.09 666.08 137.45 M 510.73 328.35 C 565.44 267.57 616.16 209.38 666.22 149.49 M 510.73 328.35 C 569.6 261.6 627.68 194.23 666.22 149.49 M 515.46 335.11 C 556.29 287.98 596.72 240.06 666.35 161.53 M 515.46 335.11 C 570.76 272.23 625.23 209.12 666.35 161.53 M 526.09 335.08 C 572.97 280.76 621.42 224.6 665.83 174.32 M 526.09 335.08 C 564.34 293.49 598.73 253.21 665.83 174.32 M 536.72 335.04 C 568.98 296.35 600.38 259.83 665.96 186.36 M 536.72 335.04 C 562.43 304.1 589 272.76 665.96 186.36 M 547.35 335.01 C 575.59 303.69 606.21 267.21 666.09 198.41 M 547.35 335.01 C 580.63 298.21 613.56 260.59 666.09 198.41 M 557.98 334.97 C 599.01 291.02 639.08 244.94 666.23 210.45 M 557.98 334.97 C 597.82 287.13 640.97 238.03 666.23 210.45 M 568.61 334.94 C 594.46 306.8 620.84 275.85 666.36 222.49 M 568.61 334.94 C 602.37 295.94 636.1 257.97 666.36 222.49 M 579.24 334.9 C 596.99 313.19 615.05 293.36 665.84 235.28 M 579.24 334.9 C 596.66 314.97 614.8 296.14 665.84 235.28 M 589.87 334.87 C 610.78 309.52 629.91 286.8 665.97 247.32 M 589.87 334.87 C 605.37 316.41 622.37 297.58 665.97 247.32 M 600.5 334.83 C 617.65 317.17 631.76 296.41 666.1 259.36 M 600.5 334.83 C 618.33 313.47 636.81 293.55 666.1 259.36 M 611.13 334.8 C 629.26 313.13 648.89 291.07 666.24 271.4 M 611.13 334.8 C 625.24 318.26 637.98 302.41 666.24 271.4 M 621.76 334.77 C 636.14 317.25 650.61 298.73 666.37 283.45 M 621.76 334.77 C 638.01 317.13 653.44 297.03 666.37 283.45 M 632.39 334.73 C 640.26 325.29 648.08 316.01 665.85 296.24 M 632.39 334.73 C 639.27 327.16 646.52 319.76 665.85 296.24 M 643.02 334.7 C 646.56 327.48 654.53 324.33 665.98 308.28 M 643.02 334.7 C 649.21 327.54 657.19 319.01 665.98 308.28 M 653.65 334.66 C 657.56 331.79 659.19 328.4 666.11 320.32 M 653.65 334.66 C 656.86 331.38 659.9 327.56 666.11 320.32" fill="none" stroke="#c2bee6" stroke-linejoin="round" stroke-linecap="round" stroke-miterlimit="10" pointer-events="all"/><path d="M 511 11 C 565.68 11.41 620.51 10.12 661 11 M 511 11 C 555.95 10.85 599.98 11.2 661 11 M 661 11 C 658.53 118.38 657.65 223.7 661 331 M 661 11 C 662.02 101.95 661.7 192.76 661 331 M 661 331 C 626.04 331.1 589.86 333.71 511 331 M 661 331 C 611.55 332.24 562.13 331.5 511 331 M 511 331 C 511.21 213.77 508.97 97.28 511 11 M 511 331 C 509.01 251.23 509.32 171.02 511 11" fill="none" stroke="#324ab2" stroke-width="2" stroke-linejoin="round" stroke-linecap="round" stroke-miterlimit="10" pointer-events="all"/><rect x="511" y="111" width="150" height="80" fill="none" stroke="none" pointer-events="all"/><path d="M 509.33 112.25 L 660.58 110.3 L 662.03 191.29 L 512.88 190.14" fill="#ffffff" stroke="none" pointer-events="all"/><path d="M 511 111 C 554.25 109.39 596.18 109.94 661 111 M 511 111 C 566.64 110.32 623.09 111.55 661 111 M 661 111 C 661.7 137.57 662.39 167.98 661 191 M 661 111 C 660.74 129.91 660.74 148.51 661 191 M 661 191 C 605.43 191.62 549.83 189.83 511 191 M 661 191 C 609.88 189.84 560.25 190.58 511 191 M 511 191 C 509.69 159.78 510.83 126.98 511 111 M 511 191 C 509.95 174.24 509.61 155.86 511 111" fill="none" stroke="#324ab2" stroke-width="2" stroke-linejoin="round" stroke-linecap="round" stroke-miterlimit="10" pointer-events="all"/><g fill="#324AB2" font-family="Ink Free" font-weight="bold" text-anchor="middle" font-size="17px"><text x="585.5" y="145.5">Datos de</text><text x="585.5" y="165.5">la página p</text></g><rect x="421" y="321" width="75" height="20" fill="none" stroke="none" pointer-events="all"/><g fill="#324AB2" font-family="Ink Free" font-weight="bold" text-anchor="end" font-size="17px"><text x="483.5" y="335.5">0x0000</text></g><rect x="511" y="351" width="150" height="50" fill="none" stroke="none" transform="translate(586,0)scale(-1,1)translate(-586,0)" pointer-events="all"/><g fill="#324AB2" font-family="Ink Free" font-weight="bold" text-anchor="middle" font-size="17px"><text x="585.5" y="380.5">Memoria física</text></g><rect x="261" y="361" width="100" height="231" fill="none" stroke="none" pointer-events="all"/><path d="M 261 361 C 286.86 361.21 316.39 363.9 361 361 M 261 361 C 296.05 361.81 330.77 361.34 361 361 M 361 361 C 360.48 414.83 359.33 470.9 361 592 M 361 361 C 361.11 412.44 361.38 463.66 361 592 M 361 592 C 328.1 590.88 292.58 592.54 261 592 M 361 592 C 330.26 591.47 300.05 591.79 261 592 M 261 592 C 261.44 545.27 262.83 500.03 261 361 M 261 592 C 258.92 537.45 258.98 482.78 261 361" fill="none" stroke="#324ab2" stroke-width="2" stroke-linejoin="round" stroke-linecap="round" stroke-miterlimit="10" pointer-events="all"/><rect x="271" y="371" width="80" height="211" fill="none" stroke="none" pointer-events="all"/><path d="M 271.3 370.65 C 271.3 370.65 271.3 370.65 271.3 370.65 M 271.3 370.65 C 271.3 370.65 271.3 370.65 271.3 370.65 M 270.78 383.45 C 272.32 379.08 275.48 378.3 281.28 371.37 M 270.78 383.45 C 273.11 380.11 275.62 378.38 281.28 371.37 M 270.91 395.49 C 274.66 392.19 278.57 384.08 291.91 371.34 M 270.91 395.49 C 275.1 391.31 279.02 384.77 291.91 371.34 M 271.05 407.53 C 280.07 398.41 290.41 387.26 302.54 371.3 M 271.05 407.53 C 279.53 397.79 287.94 389.45 302.54 371.3 M 271.18 419.57 C 282.54 406.8 295.48 391.85 313.17 371.27 M 271.18 419.57 C 279.36 408.78 288.88 397.99 313.17 371.27 M 271.31 431.61 C 281.76 416.85 296.68 402.77 323.8 371.23 M 271.31 431.61 C 283.41 416.33 295.75 401.57 323.8 371.23 M 270.79 444.4 C 291.88 419.13 312.7 396.13 334.43 371.2 M 270.79 444.4 C 288.98 424.22 307.05 403.79 334.43 371.2 M 270.92 456.44 C 288.25 434.11 309.73 412.76 345.06 371.16 M 270.92 456.44 C 299.19 425.2 327.54 392.15 345.06 371.16 M 271.06 468.49 C 301.61 432.83 335.24 395.27 353.72 373.39 M 271.06 468.49 C 302.12 432.96 332.11 396.4 353.72 373.39 M 271.19 480.53 C 293.98 452.25 317.32 423.75 353.85 385.43 M 271.19 480.53 C 302.25 446.32 330.64 412.31 353.85 385.43 M 271.32 492.57 C 299.91 461.35 324.29 429.05 353.99 397.47 M 271.32 492.57 C 303.73 455.44 336.51 418.59 353.99 397.47 M 270.8 505.36 C 294.18 480.2 317.31 451.66 353.46 410.27 M 270.8 505.36 C 301.57 469.61 333.65 433.84 353.46 410.27 M 270.93 517.4 C 294.5 488.65 318.7 461.1 353.6 422.31 M 270.93 517.4 C 297.7 485.13 325.61 455.3 353.6 422.31 M 271.07 529.44 C 304.43 495.06 334.63 459 353.73 434.35 M 271.07 529.44 C 295.29 501.32 320.54 471.64 353.73 434.35 M 271.2 541.49 C 299.84 508.76 330.24 475.86 353.86 446.39 M 271.2 541.49 C 292.23 516.02 313.43 491.13 353.86 446.39 M 270.68 554.28 C 298.29 524.07 325.68 490.13 354 458.43 M 270.68 554.28 C 300.04 520.64 326.99 489.09 354 458.43 M 270.81 566.32 C 292.22 542.61 311.91 522.09 353.47 471.23 M 270.81 566.32 C 300.7 533.99 328.99 499.69 353.47 471.23 M 270.94 578.36 C 297.39 549.89 323.64 515.22 353.61 483.27 M 270.94 578.36 C 299.21 546.7 325.32 515.6 353.61 483.27 M 275.01 585.88 C 298.57 560.9 316.44 537.93 353.74 495.31 M 275.01 585.88 C 297.9 558.08 321.67 531.24 353.74 495.31 M 285.64 585.84 C 307.79 560 326.77 535.51 353.87 507.35 M 285.64 585.84 C 303.57 565.21 320.57 545 353.87 507.35 M 296.27 585.81 C 318.72 561.18 339.96 535.45 354.01 519.39 M 296.27 585.81 C 311.09 569.93 322.99 554.99 354.01 519.39 M 306.9 585.77 C 319.86 568.15 333.12 553.88 353.48 532.19 M 306.9 585.77 C 323.69 566.08 342.25 544.95 353.48 532.19 M 317.53 585.74 C 325.35 575.25 337.63 562.49 353.62 544.23 M 317.53 585.74 C 326.16 577.18 334.07 567.62 353.62 544.23 M 328.16 585.7 C 333.37 577.39 340.43 571.93 353.75 556.27 M 328.16 585.7 C 333.27 578.86 339.3 572.42 353.75 556.27 M 338.79 585.67 C 343.89 580.49 345.92 575.63 353.88 568.31 M 338.79 585.67 C 341.33 581.26 346.42 577.4 353.88 568.31" fill="none" stroke="#c2bee6" stroke-linejoin="round" stroke-linecap="round" stroke-miterlimit="10" pointer-events="all"/><path d="M 271 371 C 294.4 372.88 314.47 372.65 351 371 M 271 371 C 301.07 371.53 331.65 370.67 351 371 M 351 371 C 350.86 441.34 351.43 511.53 351 582 M 351 371 C 351.01 424.12 350.32 476.84 351 582 M 351 582 C 331.53 582.43 308.22 583.61 271 582 M 351 582 C 323.96 581.91 294.73 581.16 271 582 M 271 582 C 270.5 527.2 271.43 474.88 271 371 M 271 582 C 271.83 534.57 271.19 485.95 271 371" fill="none" stroke="#324ab2" stroke-width="2" stroke-linejoin="round" stroke-linecap="round" stroke-miterlimit="10" pointer-events="all"/><rect x="271" y="482" width="80" height="30" fill="none" stroke="none" pointer-events="all"/><path d="M 269.38 481.27 L 350.58 483.03 L 349.53 511.42 L 271.32 510.33" fill="#ffffff" stroke="none" pointer-events="all"/><path d="M 271 482 C 293.26 483.48 316.15 483.45 351 482 M 271 482 C 292.03 482.26 311.94 482.62 351 482 M 351 482 C 349.55 491.58 349.05 505.48 351 512 M 351 482 C 350.73 488.38 350.85 496.32 351 512 M 351 512 C 334 512.1 315.75 510.78 271 512 M 351 512 C 319.93 512.21 288.45 512.35 271 512 M 271 512 C 271.73 498.86 269.33 486.37 271 482 M 271 512 C 271.46 500.98 270.9 488.53 271 482" fill="none" stroke="#324ab2" stroke-width="2" stroke-linejoin="round" stroke-linecap="round" stroke-miterlimit="10" pointer-events="all"/><g fill="#324AB2" font-family="Ink Free" font-weight="bold" text-anchor="middle" font-size="17px"><text x="310.5" y="501.5">f</text></g><rect x="231" y="601" width="160" height="50" fill="none" stroke="none" transform="translate(311,0)scale(-1,1)translate(-311,0)" pointer-events="all"/><g fill="#324AB2" font-family="Ink Free" font-weight="bold" text-anchor="middle" font-size="17px"><text x="310.5" y="630.5">Tabla de páginas</text></g><path d="M 186 131 L 186 101 L 416 101 L 416 118.26" fill="none" stroke="none" pointer-events="stroke"/><path d="M 416 128.76 L 409 114.76 L 416 118.26 L 423 114.76 Z" fill="none" stroke="none" pointer-events="all"/><path d="M 186 131 M 186 131 C 187.21 124.34 184.47 114.57 186 101 M 186 131 C 187.12 119.73 186.56 109.5 186 101 M 186 101 C 244.92 101.74 301.49 103.76 416 101 M 186 101 C 247.54 100.25 308.1 100.95 416 101 M 416 101 C 416.31 103.16 416.91 107.83 416 118.26 M 416 101 C 415.44 108.13 416.24 114.19 416 118.26" fill="none" stroke="#324ab2" stroke-width="2" stroke-linejoin="round" stroke-linecap="round" stroke-miterlimit="10" pointer-events="stroke"/><path d="M 408.7 115.11 C 408.7 115.11 408.7 115.11 408.7 115.11 M 408.7 115.11 C 408.7 115.11 408.7 115.11 408.7 115.11 M 412.77 122.62 C 413.91 121.53 414.38 121.17 416.05 118.85 M 412.77 122.62 C 413.73 121.57 414.4 120.77 416.05 118.85" fill="none" stroke="#324ab2" stroke-linejoin="round" stroke-linecap="round" stroke-miterlimit="10" pointer-events="all"/><path d="M 416 128.76 M 416 128.76 C 414.87 124.62 413.96 122.71 409 114.76 M 416 128.76 C 412.62 123.87 410.67 117.99 409 114.76 M 409 114.76 C 410.23 114.83 412.67 116.86 416 118.26 M 409 114.76 C 411.41 115.6 413.69 116.61 416 118.26 M 416 118.26 C 417.37 117.82 419.8 116.37 423 114.76 M 416 118.26 C 418.35 117.09 420.32 115.6 423 114.76 M 423 114.76 C 422.41 120.08 418.45 123.85 416 128.76 M 423 114.76 C 420.43 118.5 419.26 122.75 416 128.76" fill="none" stroke="#324ab2" stroke-width="2" stroke-linejoin="round" stroke-linecap="round" stroke-miterlimit="10" pointer-events="all"/><rect x="411" y="179" width="85" height="21" fill="none" stroke="none" transform="translate(453.5,0)scale(-1,1)translate(-453.5,0)" pointer-events="all"/><g fill="#B85450" font-family="Ink Free" font-weight="bold" text-anchor="middle" font-size="14px"><text x="453" y="192.5">f | 000...00b</text></g><path d="M 431 146 L 487.24 145.87" fill="none" stroke="none" pointer-events="stroke"/><path d="M 497.74 145.85 L 483.76 152.88 L 487.24 145.87 L 483.73 138.88 Z" fill="none" stroke="none" pointer-events="all"/><path d="M 431 146 M 431 146 C 446.31 146.13 461.74 145.89 487.24 145.87 M 431 146 C 449.55 146.75 466.59 147.22 487.24 145.87" fill="none" stroke="#324ab2" stroke-width="2" stroke-linejoin="round" stroke-linecap="round" stroke-miterlimit="10" pointer-events="stroke"/><path d="M 483.54 139.09 C 483.54 139.09 483.54 139.09 483.54 139.09 M 483.54 139.09 C 483.54 139.09 483.54 139.09 483.54 139.09 M 487.61 146.61 C 488.2 145.28 489.17 145.35 490.89 142.83 M 487.61 146.61 C 488.83 145.53 489.87 144.16 490.89 142.83" fill="none" stroke="#324ab2" stroke-linejoin="round" stroke-linecap="round" stroke-miterlimit="10" pointer-events="all"/><path d="M 497.74 145.85 M 497.74 145.85 C 495.74 147.3 491.62 149.41 483.76 152.88 M 497.74 145.85 C 491.81 147.92 486.42 150.48 483.76 152.88 M 483.76 152.88 C 484.9 150 486.42 147.92 487.24 145.87 M 483.76 152.88 C 484.63 151.34 486 149.06 487.24 145.87 M 487.24 145.87 C 485.81 143.36 485.22 141.33 483.73 138.88 M 487.24 145.87 C 486.7 144.58 485.74 142.9 483.73 138.88 M 483.73 138.88 C 489.63 141.42 493.44 144.12 497.74 145.85 M 483.73 138.88 C 487.41 140.76 491.69 142.95 497.74 145.85" fill="none" stroke="#324ab2" stroke-width="2" stroke-linejoin="round" stroke-linecap="round" stroke-miterlimit="10" pointer-events="all"/><rect x="141" y="131" width="30" height="30" fill="none" stroke="none" pointer-events="all"/><path d="M 141.14 132.55 L 171.01 130.88 L 171.05 160.31 L 142.14 161.39" fill="#ffffff" stroke="none" pointer-events="all"/><path d="M 141 131 C 149.39 132.44 157.8 128.83 171 131 M 141 131 C 151.36 130.33 161.33 130.5 171 131 M 171 131 C 169.52 141.69 170.99 151.37 171 161 M 171 131 C 170.99 139.09 171.36 146.21 171 161 M 171 161 C 161.53 160.41 153.06 161.67 141 161 M 171 161 C 160.83 160.68 152.63 161.13 141 161 M 141 161 C 140.76 149.03 139.42 140.64 141 131 M 141 161 C 140.52 151.99 140.13 140.8 141 131" fill="none" stroke="#324ab2" stroke-width="2" stroke-linejoin="round" stroke-linecap="round" stroke-miterlimit="10" pointer-events="all"/><g fill="#324AB2" font-family="Ink Free" font-weight="bold" text-anchor="middle" font-size="17px"><text x="155.5" y="150.5">p</text></g><rect x="171" y="131" width="30" height="30" fill="none" stroke="none" pointer-events="all"/><path d="M 170.32 129.41 L 202.71 132.67 L 201.72 161.98 L 171.86 160.14" fill="#ffffff" stroke="none" pointer-events="all"/><path d="M 171 131 C 177.58 132.39 187.66 132.66 201 131 M 171 131 C 178.83 129.98 186.95 131.48 201 131 M 201 131 C 200.56 139.05 201.98 148.98 201 161 M 201 131 C 200.7 138.28 200.78 147.39 201 161 M 201 161 C 188.45 160.61 177.44 159.93 171 161 M 201 161 C 192.92 162.23 185.31 160.63 171 161 M 171 161 C 171.3 150.27 171.64 140.75 171 131 M 171 161 C 170.91 151.28 171.53 141.32 171 131" fill="none" stroke="#324ab2" stroke-width="2" stroke-linejoin="round" stroke-linecap="round" stroke-miterlimit="10" pointer-events="all"/><g fill="#324AB2" font-family="Ink Free" font-weight="bold" text-anchor="middle" font-size="17px"><text x="185.5" y="150.5">d</text></g><rect x="401" y="131" width="30" height="30" fill="none" stroke="none" pointer-events="all"/><path d="M 399.9 129.27 L 431.74 131.84 L 432.25 159.3 L 402.32 162.81" fill="#ffffff" stroke="none" pointer-events="all"/><path d="M 401 131 C 410 132.11 418.75 130.4 431 131 M 401 131 C 407.15 130.77 412.22 131.87 431 131 M 431 131 C 429.25 140.76 430.17 152.17 431 161 M 431 131 C 431.75 139.39 430.27 147.49 431 161 M 431 161 C 422.94 161.68 419.09 160.34 401 161 M 431 161 C 423.66 160.17 417.28 160.71 401 161 M 401 161 C 400.47 151.26 401.04 143.62 401 131 M 401 161 C 401.73 151.63 401.47 140.27 401 131" fill="none" stroke="#324ab2" stroke-width="2" stroke-linejoin="round" stroke-linecap="round" stroke-miterlimit="10" pointer-events="all"/><g fill="#324AB2" font-family="Ink Free" font-weight="bold" text-anchor="middle" font-size="17px"><text x="415.5" y="150.5">d</text></g><rect x="371" y="131" width="30" height="30" fill="none" stroke="none" pointer-events="all"/><path d="M 372.46 132.95 L 400.22 130.89 L 400.28 162.61 L 370.99 159.5" fill="#ffffff" stroke="none" pointer-events="all"/><path d="M 371 131 C 379.39 131.82 388.04 130.81 401 131 M 371 131 C 377.86 130.3 383.69 129.94 401 131 M 401 131 C 401.87 141.1 399.32 146.74 401 161 M 401 131 C 400.62 137.9 400.71 145.75 401 161 M 401 161 C 389.72 160.72 377.32 159.49 371 161 M 401 161 C 394.73 161.88 387.95 162.11 371 161 M 371 161 C 372.94 148.72 371.89 139.22 371 131 M 371 161 C 370.2 152.39 370.64 146.13 371 131" fill="none" stroke="#324ab2" stroke-width="2" stroke-linejoin="round" stroke-linecap="round" stroke-miterlimit="10" pointer-events="all"/><g fill="#324AB2" font-family="Ink Free" font-weight="bold" text-anchor="middle" font-size="17px"><text x="385.5" y="150.5">f</text></g><rect x="421" y="100" width="75" height="21" fill="none" stroke="none" transform="translate(458.5,0)scale(-1,1)translate(-458.5,0)" pointer-events="all"/><g fill="#B85450" font-family="Ink Free" font-weight="bold" text-anchor="middle" font-size="14px"><text x="458" y="113.5">f | 111...11b</text></g><rect x="271" y="401" width="80" height="30" fill="none" stroke="none" pointer-events="all"/><path d="M 271 401 C 289.64 401.58 311.64 398.64 351 401 M 271 401 C 299.77 400.29 326.35 400.67 351 401 M 351 401 C 349.39 407.96 350.25 414.77 351 431 M 351 401 C 351.22 412.39 350.89 423.65 351 431 M 351 431 C 333.45 430.44 315.78 431.76 271 431 M 351 431 C 334.12 430.32 316.83 430.26 271 431 M 271 431 C 268.96 421.3 271.43 412.13 271 401 M 271 431 C 271.55 420.78 270.84 412 271 401" fill="none" stroke="#324ab2" stroke-width="2" stroke-linejoin="round" stroke-linecap="round" stroke-miterlimit="10" pointer-events="all"/><rect x="211" y="376" width="50" height="20" fill="none" stroke="none" pointer-events="all"/><g fill="#324AB2" font-family="Ink Free" font-weight="bold" text-anchor="end" font-size="17px"><text x="248.5" y="390.5">[0]</text></g><rect x="211" y="406" width="50" height="20" fill="none" stroke="none" pointer-events="all"/><g fill="#324AB2" font-family="Ink Free" font-weight="bold" text-anchor="end" font-size="17px"><text x="248.5" y="420.5">[1]</text></g><rect x="211" y="471" width="50" height="20" fill="none" stroke="none" pointer-events="all"/><g fill="#324AB2" font-family="Ink Free" font-weight="bold" text-anchor="end" font-size="17px"><text x="248.5" y="485.5">[p]</text></g><path d="M 281 246 L 379 246 L 378.57 173.74" fill="none" stroke="none" pointer-events="stroke"/><path d="M 378.51 163.24 L 385.6 177.19 L 378.57 173.74 L 371.6 177.28 Z" fill="none" stroke="none" pointer-events="all"/><path d="M 281 246 M 281 246 C 305.34 247.95 332.12 246.39 379 246 M 281 246 C 308.87 246.58 338.79 247.86 379 246 M 379 246 C 378.78 218.96 376.72 193.12 378.57 173.74 M 379 246 C 378.37 224.17 378.14 202.55 378.57 173.74" fill="none" stroke="#b85450" stroke-width="2" stroke-linejoin="round" stroke-linecap="round" stroke-miterlimit="10" pointer-events="stroke"/><path d="M 378.6 163.14 C 378.6 163.14 378.6 163.14 378.6 163.14 M 378.6 163.14 C 378.6 163.14 378.6 163.14 378.6 163.14 M 379.39 174.43 C 380.62 172.89 381.34 171.61 382.67 170.65 M 379.39 174.43 C 380.27 173.26 381.23 172.18 382.67 170.65" fill="none" stroke="#b85450" stroke-linejoin="round" stroke-linecap="round" stroke-miterlimit="10" pointer-events="all"/><path d="M 378.51 163.24 M 378.51 163.24 C 381.05 167.38 385.05 174.15 385.6 177.19 M 378.51 163.24 C 380.75 167.22 382.82 171.64 385.6 177.19 M 385.6 177.19 C 382.8 175.65 380.97 174.92 378.57 173.74 M 385.6 177.19 C 383.9 176.23 382.26 175.8 378.57 173.74 M 378.57 173.74 C 376.46 175.1 375.08 175.5 371.6 177.28 M 378.57 173.74 C 375.96 174.99 373.99 176.18 371.6 177.28 M 371.6 177.28 C 375.43 174.16 376.68 167.02 378.51 163.24 M 371.6 177.28 C 373.61 173.21 375.42 167.92 378.51 163.24" fill="none" stroke="#b85450" stroke-width="2" stroke-linejoin="round" stroke-linecap="round" stroke-miterlimit="10" pointer-events="all"/><path d="M 81 146 L 128.26 146" fill="none" stroke="none" pointer-events="stroke"/><path d="M 138.76 146 L 124.76 153 L 128.26 146 L 124.76 139 Z" fill="none" stroke="none" pointer-events="all"/><path d="M 81 146 M 81 146 C 93.09 143.73 103.52 146.78 128.26 146 M 81 146 C 96.29 145.92 110.76 144.85 128.26 146" fill="none" stroke="#324ab2" stroke-width="2" stroke-linejoin="round" stroke-linecap="round" stroke-miterlimit="10" pointer-events="stroke"/><path d="M 124.97 138.76 C 124.97 138.76 124.97 138.76 124.97 138.76 M 124.97 138.76 C 124.97 138.76 124.97 138.76 124.97 138.76 M 129.04 146.28 C 129.69 145.71 131.24 143.79 132.32 142.5 M 129.04 146.28 C 129.58 145.23 130.47 144.77 132.32 142.5" fill="none" stroke="#324ab2" stroke-linejoin="round" stroke-linecap="round" stroke-miterlimit="10" pointer-events="all"/><path d="M 138.76 146 M 138.76 146 C 133.55 149.44 132.56 149.98 124.76 153 M 138.76 146 C 135.11 147.44 132.31 149.6 124.76 153 M 124.76 153 C 126.67 150.28 127.18 148.87 128.26 146 M 124.76 153 C 125.61 150.75 126.69 148.96 128.26 146 M 128.26 146 C 127.37 143.72 126.08 141.99 124.76 139 M 128.26 146 C 127.33 144.07 126.96 142.76 124.76 139 M 124.76 139 C 128.95 141.94 135.83 145.11 138.76 146 M 124.76 139 C 127.25 140.63 130.54 141.97 138.76 146" fill="none" stroke="#324ab2" stroke-width="2" stroke-linejoin="round" stroke-linecap="round" stroke-miterlimit="10" pointer-events="all"/><ellipse cx="41" cy="146" rx="40" ry="40" fill="none" stroke="none" pointer-events="all"/><path d="M 44.07 104.56 C 51.32 104.6 59.65 109.49 65.42 114.78 C 71.18 120.07 76.54 128.57 78.64 136.32 C 80.74 144.07 80.7 153.93 77.99 161.25 C 75.28 168.58 68.78 175.92 62.38 180.26 C 55.99 184.59 47.08 187.58 39.61 187.26 C 32.14 186.94 23.61 183.25 17.57 178.36 C 11.53 173.47 5.72 165.39 3.37 157.93 C 1.02 150.47 1.01 141.16 3.49 133.59 C 5.97 126.01 11.96 117.09 18.22 112.46 C 24.49 107.84 36.65 106.92 41.08 105.86 C 45.51 104.8 43.76 105.97 44.8 106.1 C 45.84 106.23 47.35 106.11 47.31 106.62 M 51.95 106.5 C 58.77 108.49 67.93 115.62 72.48 122.24 C 77.03 128.86 79.34 138.28 79.24 146.21 C 79.13 154.15 76.2 163.75 71.84 169.86 C 67.49 175.98 59.87 180.19 53.09 182.88 C 46.31 185.58 38.39 187.97 31.15 186.05 C 23.91 184.13 14.42 177.94 9.64 171.38 C 4.86 164.82 2.61 154.64 2.48 146.71 C 2.35 138.77 4.72 129.99 8.83 123.76 C 12.95 117.54 19.99 112.15 27.18 109.37 C 34.37 106.59 47.76 107.19 51.96 107.09 C 56.16 107 52.25 108.77 52.36 108.78 C 52.48 108.78 52.55 106.79 52.65 107.14" fill="none" stroke="#324ab2" stroke-width="2" stroke-linejoin="round" stroke-linecap="round" stroke-miterlimit="10" pointer-events="all"/><g fill="#324ab2" font-family="Ink Free" font-weight="bold" text-anchor="middle" font-size="17px"><text x="40.5" y="150.5">CPU</text></g><rect x="101" y="71" width="80" height="50" fill="none" stroke="none" transform="translate(141,0)scale(-1,1)translate(-141,0)" pointer-events="all"/><g fill="#324AB2" font-family="Ink Free" font-weight="bold" text-anchor="middle" font-size="17px"><text x="140.5" y="90.5">Dirección</text><text x="140.5" y="110.5">virtual</text></g><rect x="351" y="50" width="80" height="50" fill="none" stroke="none" transform="translate(391,0)scale(-1,1)translate(-391,0)" pointer-events="all"/><g fill="#324AB2" font-family="Ink Free" font-weight="bold" text-anchor="middle" font-size="17px"><text x="390.5" y="69.5">Dirección</text><text x="390.5" y="89.5">física</text></g><rect x="211" y="191" width="80" height="110" fill="none" stroke="none" pointer-events="all"/><path d="M 211 191 C 236.17 191.75 260.73 190.16 291 191 M 211 191 C 237.05 192.11 261.72 191.4 291 191 M 291 191 C 289.36 225.06 289.78 259.75 291 301 M 291 191 C 290.94 232.34 291.67 271.83 291 301 M 291 301 C 272.66 300.67 252.13 302.87 211 301 M 291 301 C 260.6 301.78 228.01 302.47 211 301 M 211 301 C 210.27 263.39 210.75 229.96 211 191 M 211 301 C 211.01 266.09 209.11 231.72 211 191" fill="none" stroke="#b85450" stroke-width="2" stroke-linejoin="round" stroke-linecap="round" stroke-miterlimit="10" pointer-events="all"/><rect x="221" y="200" width="60" height="90" fill="none" stroke="none" pointer-events="all"/><path d="M 221.14 199.84 C 221.14 199.84 221.14 199.84 221.14 199.84 M 221.14 199.84 C 221.14 199.84 221.14 199.84 221.14 199.84 M 221.27 211.88 C 224.77 206.98 229.47 203.71 231.77 199.81 M 221.27 211.88 C 224.99 208.31 228.06 204.72 231.77 199.81 M 220.75 224.68 C 226.34 218.1 236.29 206.55 242.4 199.77 M 220.75 224.68 C 225.26 218.52 229.95 214.15 242.4 199.77 M 220.88 236.72 C 230.81 223.61 242.93 213.16 253.03 199.74 M 220.88 236.72 C 226.97 228.32 234.09 221.1 253.03 199.74 M 221.02 248.76 C 230.46 236.87 243.64 222.15 263.66 199.7 M 221.02 248.76 C 233.94 233.78 245.53 219.66 263.66 199.7 M 221.15 260.8 C 236.52 242.3 251.73 225.43 274.29 199.67 M 221.15 260.8 C 236.67 242.68 251.08 226.08 274.29 199.67 M 221.28 272.84 C 235.78 253.77 253.57 236.54 282.95 201.9 M 221.28 272.84 C 237.47 253.91 253.68 236.43 282.95 201.9 M 220.76 285.64 C 241.97 261.85 264.84 233.31 283.08 213.94 M 220.76 285.64 C 242.52 261.88 263.15 238.19 283.08 213.94 M 224.83 293.15 C 244.41 269.1 264.78 244.73 283.22 225.98 M 224.83 293.15 C 238.51 276.78 253.07 261 283.22 225.98 M 235.46 293.11 C 254.8 273.74 272.24 251.11 283.35 238.02 M 235.46 293.11 C 250.74 275.22 265.54 259.59 283.35 238.02 M 246.09 293.08 C 257.12 280.16 266.59 272.59 282.83 250.82 M 246.09 293.08 C 259.37 277.94 272.08 262.6 282.83 250.82 M 256.72 293.04 C 265.61 283.62 271.06 276.06 282.96 262.86 M 256.72 293.04 C 265.29 282.14 274.63 271.95 282.96 262.86 M 267.35 293.01 C 271.77 288.37 276.24 286.06 283.09 274.9 M 267.35 293.01 C 270.77 288.4 274.97 284.36 283.09 274.9 M 277.98 292.98 C 279.98 290.56 280.67 288.44 283.23 286.94 M 277.98 292.98 C 279.88 290.39 281.37 288.58 283.23 286.94" fill="none" stroke="#f8cecc" stroke-linejoin="round" stroke-linecap="round" stroke-miterlimit="10" pointer-events="all"/><path d="M 221 200 C 237.72 199.81 257.78 198.62 281 200 M 221 200 C 235.81 198.7 252.01 200.42 281 200 M 281 200 C 279.22 234.33 281.35 270.3 281 290 M 281 200 C 281.64 229.05 282.16 258.27 281 290 M 281 290 C 259.05 292.11 236.09 289.31 221 290 M 281 290 C 263.98 289.95 248.33 290.41 221 290 M 221 290 C 222.62 269.52 220.15 252.87 221 200 M 221 290 C 220.62 270.03 221.06 250.44 221 200" fill="none" stroke="#b85450" stroke-width="2" stroke-linejoin="round" stroke-linecap="round" stroke-miterlimit="10" pointer-events="all"/><rect x="221" y="231" width="30" height="30" fill="none" stroke="none" pointer-events="all"/><path d="M 221.25 230.9 L 252.89 230.87 L 250.66 260.06 L 220.59 261.73" fill="#ffffff" stroke="none" pointer-events="all"/><path d="M 221 231 C 230.2 232.39 238.67 231.6 251 231 M 221 231 C 226.8 230.55 232.76 230.71 251 231 M 251 231 C 252.68 238.4 252.54 248.43 251 261 M 251 231 C 251.17 238.92 251.48 247.03 251 261 M 251 261 C 241.32 261.32 231.79 261.52 221 261 M 251 261 C 240.18 261.6 230.28 261.84 221 261 M 221 261 C 219.07 250.39 221.67 243.28 221 231 M 221 261 C 220.35 251.09 221.12 241.41 221 231" fill="none" stroke="#b85450" stroke-width="2" stroke-linejoin="round" stroke-linecap="round" stroke-miterlimit="10" pointer-events="all"/><g fill="#B85450" font-family="Ink Free" font-weight="bold" text-anchor="middle" font-size="17px"><text x="235.5" y="250.5">p</text></g><rect x="251" y="231" width="30" height="30" fill="none" stroke="none" pointer-events="all"/><path d="M 252.77 229.12 L 279 232.59 L 282.48 262.58 L 250.18 259.71" fill="#ffffff" stroke="none" pointer-events="all"/><path d="M 251 231 C 259.06 231 270.35 230.4 281 231 M 251 231 C 260.16 230.58 267.85 229.96 281 231 M 281 231 C 282.09 241.63 280.81 247.37 281 261 M 281 231 C 280.45 237.95 281.66 245.1 281 261 M 281 261 C 271.86 261.91 265.47 259.6 251 261 M 281 261 C 268.19 261.8 258.09 260.92 251 261 M 251 261 C 251.79 256.15 250.92 248.63 251 231 M 251 261 C 251.31 252.47 250.25 244.08 251 231" fill="none" stroke="#b85450" stroke-width="2" stroke-linejoin="round" stroke-linecap="round" stroke-miterlimit="10" pointer-events="all"/><g fill="#B85450" font-family="Ink Free" font-weight="bold" text-anchor="middle" font-size="17px"><text x="265.5" y="250.5">f</text></g><rect x="211" y="301" width="80" height="50" fill="none" stroke="none" transform="translate(251,0)scale(-1,1)translate(-251,0)" pointer-events="all"/><g fill="#B85450" font-family="Ink Free" font-weight="bold" text-anchor="middle" font-size="17px"><text x="250.5" y="330.5">TLB</text></g><rect x="291" y="246.5" width="100" height="59" fill="none" stroke="none" transform="translate(341,0)scale(-1,1)translate(-341,0)" pointer-events="all"/><g fill="#B85450" font-family="Ink Free" font-weight="bold" text-anchor="middle" font-size="17px"><text x="340.5" y="270.5">Si acierto</text><text x="340.5" y="290.5">de TLB</text></g><rect x="146" y="432" width="85" height="50" fill="none" stroke="none" transform="translate(188.5,0)scale(-1,1)translate(-188.5,0)" pointer-events="all"/><g fill="#B85450" font-family="Ink Free" font-weight="bold" text-anchor="middle" font-size="17px"><text x="188" y="451.5">Si fallo</text><text x="188" y="471.5">de TLB</text></g><path d="M 181 251 L 181 276 L 208.26 276" fill="none" stroke="none" pointer-events="stroke"/><path d="M 218.76 276 L 204.76 283 L 208.26 276 L 204.76 269 Z" fill="none" stroke="none" pointer-events="all"/><path d="M 181 251 M 181 251 C 179.98 260.32 182.42 266.39 181 276 M 181 251 C 181.98 255.45 181.01 260.24 181 276 M 181 276 C 184.64 275.56 193.5 277.79 208.26 276 M 181 276 C 189.32 276.12 198.66 275.64 208.26 276" fill="none" stroke="#b85450" stroke-width="2" stroke-linejoin="round" stroke-linecap="round" stroke-miterlimit="10" pointer-events="stroke"/><path d="M 204.72 269.04 C 204.72 269.04 204.72 269.04 204.72 269.04 M 204.72 269.04 C 204.72 269.04 204.72 269.04 204.72 269.04 M 208.79 276.56 C 209.02 275.69 210.52 275.49 212.07 272.78 M 208.79 276.56 C 209.74 275.45 210.99 274.17 212.07 272.78" fill="none" stroke="#b85450" stroke-linejoin="round" stroke-linecap="round" stroke-miterlimit="10" pointer-events="all"/><path d="M 218.76 276 M 218.76 276 C 216.26 276.58 210.43 279.22 204.76 283 M 218.76 276 C 214.91 278.85 209.62 280.38 204.76 283 M 204.76 283 C 205.88 281.18 206.56 279.44 208.26 276 M 204.76 283 C 205.76 281.45 206.76 279.25 208.26 276 M 208.26 276 C 207.13 274.28 206.56 271.11 204.76 269 M 208.26 276 C 207.18 274.17 206.6 272.01 204.76 269 M 204.76 269 C 209.49 271.45 212.88 274.58 218.76 276 M 204.76 269 C 210.76 272.53 215.84 274.2 218.76 276" fill="none" stroke="#b85450" stroke-width="2" stroke-linejoin="round" stroke-linecap="round" stroke-miterlimit="10" pointer-events="all"/><rect x="221" y="201" width="60" height="30" fill="none" stroke="none" pointer-events="all"/><path d="M 221 201 C 243.46 200.18 261.37 201.84 281 201 M 221 201 C 237.55 200.04 254.53 201.03 281 201 M 281 201 C 282.91 209.86 281.15 213.84 281 231 M 281 201 C 279.85 209.62 281.68 217.44 281 231 M 281 231 C 268.7 230.28 254.73 228.85 221 231 M 281 231 C 259.98 232.36 238.86 230.45 221 231 M 221 231 C 220.27 224.89 220.21 220.87 221 201 M 221 231 C 221.54 225.2 219.88 217.64 221 201" fill="none" stroke="#b85450" stroke-width="2" stroke-linejoin="round" stroke-linecap="round" stroke-miterlimit="10" pointer-events="all"/><rect x="221" y="261" width="60" height="30" fill="none" stroke="none" pointer-events="all"/><path d="M 221 261 C 242.31 259.62 263.05 261.48 281 261 M 221 261 C 241.07 261.09 261.94 261.3 281 261 M 281 261 C 282.32 269.09 279.41 276.79 281 291 M 281 261 C 281.13 268.64 279.86 277.51 281 291 M 281 291 C 258.4 291.51 236.72 291.59 221 291 M 281 291 C 256.77 290.62 234.21 291.6 221 291 M 221 291 C 222.39 280.65 218.86 270.21 221 261 M 221 291 C 220.5 280.57 221.01 268.31 221 261" fill="none" stroke="#b85450" stroke-width="2" stroke-linejoin="round" stroke-linecap="round" stroke-miterlimit="10" pointer-events="all"/><path d="M 181 251 L 181 216 L 208.26 216" fill="none" stroke="none" pointer-events="stroke"/><path d="M 218.76 216 L 204.76 223 L 208.26 216 L 204.76 209 Z" fill="none" stroke="none" pointer-events="all"/><path d="M 181 251 M 181 251 C 180.28 240.56 179.18 226.57 181 216 M 181 251 C 181.44 243.47 181.19 235.31 181 216 M 181 216 C 190.4 213.99 198.71 216.22 208.26 216 M 181 216 C 186.98 215.53 192.99 216.4 208.26 216" fill="none" stroke="#b85450" stroke-width="2" stroke-linejoin="round" stroke-linecap="round" stroke-miterlimit="10" pointer-events="stroke"/><path d="M 204.54 209.26 C 204.54 209.26 204.54 209.26 204.54 209.26 M 204.54 209.26 C 204.54 209.26 204.54 209.26 204.54 209.26 M 208.61 216.77 C 209.83 215.13 210.83 214.53 211.89 213 M 208.61 216.77 C 209.29 215.78 209.97 215.11 211.89 213" fill="none" stroke="#b85450" stroke-linejoin="round" stroke-linecap="round" stroke-miterlimit="10" pointer-events="all"/><path d="M 218.76 216 M 218.76 216 C 213.63 216.77 208.12 220.39 204.76 223 M 218.76 216 C 215.77 216.87 212.4 218.38 204.76 223 M 204.76 223 C 205.78 220.99 207.16 219.64 208.26 216 M 204.76 223 C 205.86 220.95 207.25 218.19 208.26 216 M 208.26 216 C 207.52 213.09 206.24 210.24 204.76 209 M 208.26 216 C 207.08 213.2 205.46 210.65 204.76 209 M 204.76 209 C 210.82 210.62 214.38 214.02 218.76 216 M 204.76 209 C 208.88 211.63 213.24 213.35 218.76 216" fill="none" stroke="#b85450" stroke-width="2" stroke-linejoin="round" stroke-linecap="round" stroke-miterlimit="10" pointer-events="all"/><path d="M 351 497 L 394 497 L 393.52 173.74" fill="none" stroke="none" pointer-events="stroke"/><path d="M 393.5 163.24 L 400.52 177.23 L 393.52 173.74 L 386.52 177.25 Z" fill="none" stroke="none" pointer-events="all"/><path d="M 351 497 M 351 497 C 367.04 498.39 381.68 497.03 394 497 M 351 497 C 362.81 497.94 374.53 497.39 394 497 M 394 497 C 394.06 395.33 392.35 293.29 393.52 173.74 M 394 497 C 394.98 411.23 395.03 325.14 393.52 173.74" fill="none" stroke="#324ab2" stroke-width="2" stroke-linejoin="round" stroke-linecap="round" stroke-miterlimit="10" pointer-events="stroke"/><path d="M 393.7 163.01 C 393.7 163.01 393.7 163.01 393.7 163.01 M 393.7 163.01 C 393.7 163.01 393.7 163.01 393.7 163.01 M 394.49 174.3 C 395.4 173.38 395.78 172.34 397.11 171.28 M 394.49 174.3 C 395.17 173.54 395.92 172.7 397.11 171.28" fill="none" stroke="#324ab2" stroke-linejoin="round" stroke-linecap="round" stroke-miterlimit="10" pointer-events="all"/><path d="M 393.5 163.24 M 393.5 163.24 C 396.41 166.86 395.51 170.48 400.52 177.23 M 393.5 163.24 C 396.71 168.79 398.81 174.2 400.52 177.23 M 400.52 177.23 C 397.5 175.82 395.75 174.4 393.52 173.74 M 400.52 177.23 C 399.32 176.82 397.28 175.72 393.52 173.74 M 393.52 173.74 C 391.51 175.42 388.76 176.56 386.52 177.25 M 393.52 173.74 C 391.86 174.44 389.57 175.9 386.52 177.25 M 386.52 177.25 C 389.24 173.34 390.48 166.48 393.5 163.24 M 386.52 177.25 C 388.3 174.36 389.75 170.54 393.5 163.24" fill="none" stroke="#324ab2" stroke-width="2" stroke-linejoin="round" stroke-linecap="round" stroke-miterlimit="10" pointer-events="all"/></g></svg>