<?xml version="1.0" encoding="UTF-8"?>
<!DOCTYPE svg PUBLIC "-//W3C//DTD SVG 1.1//EN" "http://www.w3.org/Graphics/SVG/1.1/DTD/svg11.dtd">
<svg xmlns="http://www.w3.org/2000/svg" xmlns:xlink="http://www.w3.org/1999/xlink" version="1.1" width="562px" height="372px" viewBox="-0.5 -0.5 562 372"><defs><style type="text/css">@font-face {&#xa;font-family: "Ink Free";&#xa;src: url("https://ull-esit-sistemas-operativos.github.io/ssoo-apuntes/fonts/InkFree.woff");&#xa;}&#xa;</style></defs><g><rect x="1" y="321" width="560" height="50" fill="none" stroke="none" pointer-events="all"/><path d="M 1 321 C 136.21 318.9 271.89 318.27 561 321 M 1 321 C 212.16 321.51 423.86 321.73 561 321 M 561 321 C 562.56 335.58 559.84 352.28 561 371 M 561 321 C 561.07 340.94 561.21 360.13 561 371 M 561 371 C 343.45 372.83 125.5 372.29 1 371 M 561 371 C 426.74 368.98 292.46 368.93 1 371 M 1 371 C 1.36 358.62 1.04 342.94 1 321 M 1 371 C 1.04 357.77 0.91 344.28 1 321" fill="none" stroke="#324ab2" stroke-width="2" stroke-linejoin="round" stroke-linecap="round" stroke-miterlimit="10" pointer-events="all"/><g fill="#324AB2" font-family="Ink Free" font-weight="bold" text-anchor="middle" font-size="17px"><text x="280.5" y="350.5">Hardware</text></g><rect x="1" y="1" width="560" height="50" fill="none" stroke="none" pointer-events="all"/><path d="M 1 1 C 136.51 0.46 272.08 0.7 561 1 M 1 1 C 118.41 0.19 235.46 0.32 561 1 M 561 1 C 562.61 19.39 560.57 39.21 561 51 M 561 1 C 560.86 11.44 560.8 23.53 561 51 M 561 51 C 340.03 51.48 118.73 51.93 1 51 M 561 51 C 388.75 49.61 216.18 49.37 1 51 M 1 51 C -0.41 39.89 -0.28 30.19 1 1 M 1 51 C 0.62 32.38 1.65 15.1 1 1" fill="none" stroke="#324ab2" stroke-width="2" stroke-linejoin="round" stroke-linecap="round" stroke-miterlimit="10" pointer-events="all"/><g fill="#324AB2" font-family="Ink Free" font-weight="bold" text-anchor="middle" font-size="17px"><text x="280.5" y="30.5">Aplicaciones</text></g><rect x="121" y="81" width="440" height="50" fill="none" stroke="none" pointer-events="all"/><path d="M 121 81 C 285.52 81.61 447.88 81.03 561 81 M 121 81 C 230.22 81.47 339.01 81.02 561 81 M 561 81 C 559.98 94.8 559.84 107.63 561 131 M 561 81 C 561.59 96.51 560.51 113.18 561 131 M 561 131 C 410.92 132.33 259.27 131.76 121 131 M 561 131 C 449.25 132.14 338.03 132.66 121 131 M 121 131 C 121.22 112.4 121.37 92.92 121 81 M 121 131 C 120.58 117.43 120.88 104.88 121 81" fill="none" stroke="#324ab2" stroke-width="2" stroke-linejoin="round" stroke-linecap="round" stroke-miterlimit="10" pointer-events="all"/><g fill="#324AB2" font-family="Ink Free" font-weight="bold" text-anchor="middle" font-size="17px"><text x="340.5" y="110.5">Programa residente del sistema (Núcleo)</text></g><rect x="81" y="161" width="400" height="50" fill="none" stroke="none" pointer-events="all"/><path d="M 81 161 C 230.12 162.86 379.05 162.32 481 161 M 81 161 C 208.68 160.27 337.22 159.32 481 161 M 481 161 C 480.24 178.72 482.96 191.98 481 211 M 481 161 C 480.91 175.05 480.72 190.26 481 211 M 481 211 C 359.69 213.46 238.06 211.4 81 211 M 481 211 C 363.67 212.69 245.68 212.64 81 211 M 81 211 C 80.06 195.35 80.75 176.64 81 161 M 81 211 C 81.76 199.77 82.23 189.49 81 161" fill="none" stroke="#324ab2" stroke-width="2" stroke-linejoin="round" stroke-linecap="round" stroke-miterlimit="10" pointer-events="all"/><g fill="#324AB2" font-family="Ink Free" font-weight="bold" text-anchor="middle" font-size="17px"><text x="280.5" y="190.5">Controladores de dispositivos de MSDOS</text></g><rect x="41" y="241" width="480" height="50" fill="none" stroke="none" pointer-events="all"/><path d="M 41 241 C 219.28 239.82 397.4 241.22 521 241 M 41 241 C 229.39 242.39 416.87 243.05 521 241 M 521 241 C 519.5 258.65 521.08 276.33 521 291 M 521 241 C 522.23 255.58 520.93 269.34 521 291 M 521 291 C 393.63 292.22 267.13 293.02 41 291 M 521 291 C 360.11 288.89 199.49 289.24 41 291 M 41 291 C 42.91 278.29 40.12 264.36 41 241 M 41 291 C 39.94 272.12 40.58 254.1 41 241" fill="none" stroke="#324ab2" stroke-width="2" stroke-linejoin="round" stroke-linecap="round" stroke-miterlimit="10" pointer-events="all"/><g fill="#324AB2" font-family="Ink Free" font-weight="bold" text-anchor="middle" font-size="17px"><text x="280.5" y="270.5">Controladores de dispositivos de la BIOS</text></g><path d="M 541 131 L 541 308.26" fill="none" stroke="none" pointer-events="stroke"/><path d="M 541 318.76 L 534 304.76 L 541 308.26 L 548 304.76 Z" fill="none" stroke="none" pointer-events="all"/><path d="M 541 131 M 541 131 C 540.08 198.15 542.1 263.5 541 308.26 M 541 131 C 542.75 177.1 543.01 224.6 541 308.26" fill="none" stroke="#324ab2" stroke-width="2" stroke-linejoin="round" stroke-linecap="round" stroke-miterlimit="10" pointer-events="stroke"/><path d="M 534.3 304.42 C 534.3 304.42 534.3 304.42 534.3 304.42 M 534.3 304.42 C 534.3 304.42 534.3 304.42 534.3 304.42 M 537.71 312.69 C 538.56 310.84 539.94 310.1 540.99 308.91 M 537.71 312.69 C 538.52 311.9 539.23 310.92 540.99 308.91" fill="none" stroke="#324ab2" stroke-linejoin="round" stroke-linecap="round" stroke-miterlimit="10" pointer-events="all"/><path d="M 541 318.76 M 541 318.76 C 538.37 315.83 536.34 312.15 534 304.76 M 541 318.76 C 537.68 313.45 536.14 307.95 534 304.76 M 534 304.76 C 535.5 305.95 537.69 305.77 541 308.26 M 534 304.76 C 536.01 305.49 538.52 306.55 541 308.26 M 541 308.26 C 543.25 306.59 545.45 305.09 548 304.76 M 541 308.26 C 543.44 307.34 545.42 306.46 548 304.76 M 548 304.76 C 543.77 311 543.87 316.48 541 318.76 M 548 304.76 C 546.3 308.9 544.15 313.08 541 318.76" fill="none" stroke="#324ab2" stroke-width="2" stroke-linejoin="round" stroke-linecap="round" stroke-miterlimit="10" pointer-events="all"/><path d="M 503 131 L 502.79 228.26" fill="none" stroke="none" pointer-events="stroke"/><path d="M 502.76 238.76 L 495.8 224.75 L 502.79 228.26 L 509.8 224.78 Z" fill="none" stroke="none" pointer-events="all"/><path d="M 503 131 M 503 131 C 504.73 167.37 501.49 203.17 502.79 228.26 M 503 131 C 501.26 163.21 501.03 195.84 502.79 228.26" fill="none" stroke="#324ab2" stroke-width="2" stroke-linejoin="round" stroke-linecap="round" stroke-miterlimit="10" pointer-events="stroke"/><path d="M 495.88 224.65 C 495.88 224.65 495.88 224.65 495.88 224.65 M 495.88 224.65 C 495.88 224.65 495.88 224.65 495.88 224.65 M 499.95 232.16 C 501.13 231.43 501.67 229.98 503.23 228.39 M 499.95 232.16 C 500.55 231.39 501.42 230.46 503.23 228.39" fill="none" stroke="#324ab2" stroke-linejoin="round" stroke-linecap="round" stroke-miterlimit="10" pointer-events="all"/><path d="M 502.76 238.76 M 502.76 238.76 C 498.55 234.32 496.96 226.42 495.8 224.75 M 502.76 238.76 C 501.35 235.8 500.17 233.22 495.8 224.75 M 495.8 224.75 C 497.68 226.42 501.06 227.44 502.79 228.26 M 495.8 224.75 C 497.75 225.27 499.2 226.88 502.79 228.26 M 502.79 228.26 C 504.88 227.74 506.53 225.81 509.8 224.78 M 502.79 228.26 C 504.08 227.52 505.39 226.57 509.8 224.78 M 509.8 224.78 C 507.5 228.01 506.09 233.93 502.76 238.76 M 509.8 224.78 C 507.95 228.42 506.84 232.37 502.76 238.76" fill="none" stroke="#324ab2" stroke-width="2" stroke-linejoin="round" stroke-linecap="round" stroke-miterlimit="10" pointer-events="all"/><path d="M 21.16 51 L 22.68 308.26" fill="none" stroke="none" pointer-events="stroke"/><path d="M 22.75 318.76 L 15.66 304.81 L 22.68 308.26 L 29.66 304.72 Z" fill="none" stroke="none" pointer-events="all"/><path d="M 21.16 51 M 21.16 51 C 23.31 145.99 23.6 241.52 22.68 308.26 M 21.16 51 C 20.26 104.25 20.1 158.65 22.68 308.26" fill="none" stroke="#324ab2" stroke-width="2" stroke-linejoin="round" stroke-linecap="round" stroke-miterlimit="10" pointer-events="stroke"/><path d="M 15.37 305.15 C 15.37 305.15 15.37 305.15 15.37 305.15 M 15.37 305.15 C 15.37 305.15 15.37 305.15 15.37 305.15 M 19.44 312.66 C 20.66 311.36 21.04 310.44 22.72 308.89 M 19.44 312.66 C 20.91 311.22 22.07 309.57 22.72 308.89" fill="none" stroke="#324ab2" stroke-linejoin="round" stroke-linecap="round" stroke-miterlimit="10" pointer-events="all"/><path d="M 22.75 318.76 M 22.75 318.76 C 21.43 312.65 18.48 309.61 15.66 304.81 M 22.75 318.76 C 20.53 315.36 19.83 311.36 15.66 304.81 M 15.66 304.81 C 18.1 306.23 19.72 306.17 22.68 308.26 M 15.66 304.81 C 17.56 305.89 18.74 306.47 22.68 308.26 M 22.68 308.26 C 24.36 306.6 26.86 306.64 29.66 304.72 M 22.68 308.26 C 25 307.11 27.02 306.16 29.66 304.72 M 29.66 304.72 C 27.95 310.9 23.68 313.82 22.75 318.76 M 29.66 304.72 C 27.43 307.89 25.82 311.62 22.75 318.76" fill="none" stroke="#324ab2" stroke-width="2" stroke-linejoin="round" stroke-linecap="round" stroke-miterlimit="10" pointer-events="all"/><path d="M 61 51 L 62.64 228.26" fill="none" stroke="none" pointer-events="stroke"/><path d="M 62.74 238.76 L 55.61 224.83 L 62.64 228.26 L 69.61 224.7 Z" fill="none" stroke="none" pointer-events="all"/><path d="M 61 51 M 61 51 C 62.17 115.06 65.26 181.01 62.64 228.26 M 61 51 C 59.97 100.58 61.42 150.57 62.64 228.26" fill="none" stroke="#324ab2" stroke-width="2" stroke-linejoin="round" stroke-linecap="round" stroke-miterlimit="10" pointer-events="stroke"/><path d="M 55.6 224.84 C 55.6 224.84 55.6 224.84 55.6 224.84 M 55.6 224.84 C 55.6 224.84 55.6 224.84 55.6 224.84 M 59.67 232.36 C 60.86 231.48 61.07 230.1 62.95 228.58 M 59.67 232.36 C 60.86 230.93 62.17 229.32 62.95 228.58" fill="none" stroke="#324ab2" stroke-linejoin="round" stroke-linecap="round" stroke-miterlimit="10" pointer-events="all"/><path d="M 62.74 238.76 M 62.74 238.76 C 61.22 234.09 56.94 229.64 55.61 224.83 M 62.74 238.76 C 61.29 234.92 57.96 231.05 55.61 224.83 M 55.61 224.83 C 57.1 226.02 58.51 226.46 62.64 228.26 M 55.61 224.83 C 58 226.38 61.1 227.41 62.64 228.26 M 62.64 228.26 C 65.55 227.03 68.89 225.92 69.61 224.7 M 62.64 228.26 C 63.82 227.29 65.16 227.04 69.61 224.7 M 69.61 224.7 C 66.71 227.87 67.21 231.25 62.74 238.76 M 69.61 224.7 C 67.17 230.2 63.66 234.94 62.74 238.76" fill="none" stroke="#324ab2" stroke-width="2" stroke-linejoin="round" stroke-linecap="round" stroke-miterlimit="10" pointer-events="all"/><path d="M 103 51 L 102.79 148.26" fill="none" stroke="none" pointer-events="stroke"/><path d="M 102.76 158.76 L 95.8 144.75 L 102.79 148.26 L 109.8 144.78 Z" fill="none" stroke="none" pointer-events="all"/><path d="M 103 51 M 103 51 C 103.85 88.26 101.08 124.66 102.79 148.26 M 103 51 C 103.24 85.41 101.74 119.24 102.79 148.26" fill="none" stroke="#324ab2" stroke-width="2" stroke-linejoin="round" stroke-linecap="round" stroke-miterlimit="10" pointer-events="stroke"/><path d="M 95.92 144.62 C 95.92 144.62 95.92 144.62 95.92 144.62 M 95.92 144.62 C 95.92 144.62 95.92 144.62 95.92 144.62 M 99.33 152.88 C 100.83 151.15 102.07 150.13 103.27 148.36 M 99.33 152.88 C 100.43 151.2 102.16 149.91 103.27 148.36" fill="none" stroke="#324ab2" stroke-linejoin="round" stroke-linecap="round" stroke-miterlimit="10" pointer-events="all"/><path d="M 102.76 158.76 M 102.76 158.76 C 101.1 155.5 98.69 149.61 95.8 144.75 M 102.76 158.76 C 100.3 154.45 97.54 149.11 95.8 144.75 M 95.8 144.75 C 97.67 146.44 101.82 148.09 102.79 148.26 M 95.8 144.75 C 98.12 146.12 100.14 146.95 102.79 148.26 M 102.79 148.26 C 103.98 146.64 106.8 146.68 109.8 144.78 M 102.79 148.26 C 105.01 146.92 107.08 145.92 109.8 144.78 M 109.8 144.78 C 107.68 150.86 105.23 154.33 102.76 158.76 M 109.8 144.78 C 106.88 149.63 104.35 154.1 102.76 158.76" fill="none" stroke="#324ab2" stroke-width="2" stroke-linejoin="round" stroke-linecap="round" stroke-miterlimit="10" pointer-events="all"/><path d="M 461.24 211 L 461.03 308.26" fill="none" stroke="none" pointer-events="stroke"/><path d="M 461 318.76 L 454.04 304.75 L 461.03 308.26 L 468.04 304.78 Z" fill="none" stroke="none" pointer-events="all"/><path d="M 461.24 211 M 461.24 211 C 461.11 247.22 461.17 283.83 461.03 308.26 M 461.24 211 C 460.83 233.17 460.93 253.77 461.03 308.26" fill="none" stroke="#324ab2" stroke-width="2" stroke-linejoin="round" stroke-linecap="round" stroke-miterlimit="10" pointer-events="stroke"/><path d="M 453.98 304.82 C 453.98 304.82 453.98 304.82 453.98 304.82 M 453.98 304.82 C 453.98 304.82 453.98 304.82 453.98 304.82 M 458.05 312.34 C 459.34 311.25 460.21 309.94 461.33 308.56 M 458.05 312.34 C 459.18 311.01 460.27 309.98 461.33 308.56" fill="none" stroke="#324ab2" stroke-linejoin="round" stroke-linecap="round" stroke-miterlimit="10" pointer-events="all"/><path d="M 461 318.76 M 461 318.76 C 459.14 316.94 458.55 312.76 454.04 304.75 M 461 318.76 C 457.76 314 455.52 308.78 454.04 304.75 M 454.04 304.75 C 456.45 306.21 458.84 306.8 461.03 308.26 M 454.04 304.75 C 456.23 305.9 457.98 306.5 461.03 308.26 M 461.03 308.26 C 463.39 307.09 465.49 305.98 468.04 304.78 M 461.03 308.26 C 462.1 307.23 464.28 306.94 468.04 304.78 M 468.04 304.78 C 467.87 307.86 463.92 311.78 461 318.76 M 468.04 304.78 C 466.27 309.14 463.23 313.38 461 318.76" fill="none" stroke="#324ab2" stroke-width="2" stroke-linejoin="round" stroke-linecap="round" stroke-miterlimit="10" pointer-events="all"/><path d="M 141.24 51 L 141.1 68.26" fill="none" stroke="none" pointer-events="stroke"/><path d="M 141.02 78.76 L 134.13 64.71 L 141.1 68.26 L 148.13 64.82 Z" fill="none" stroke="none" pointer-events="all"/><path d="M 141.24 51 M 141.24 51 C 139.76 57.48 142.75 61.2 141.1 68.26 M 141.24 51 C 141.01 56.78 140.42 62.98 141.1 68.26" fill="none" stroke="#82b366" stroke-width="2" stroke-linejoin="round" stroke-linecap="round" stroke-miterlimit="10" pointer-events="stroke"/><path d="M 133.88 64.99 C 133.88 64.99 133.88 64.99 133.88 64.99 M 133.88 64.99 C 133.88 64.99 133.88 64.99 133.88 64.99 M 137.95 72.51 C 139.55 70.89 139.93 69.71 141.23 68.73 M 137.95 72.51 C 138.61 71.41 139.69 70.93 141.23 68.73" fill="none" stroke="#82b366" stroke-linejoin="round" stroke-linecap="round" stroke-miterlimit="10" pointer-events="all"/><path d="M 141.02 78.76 M 141.02 78.76 C 137.7 73.71 136.45 69.13 134.13 64.71 M 141.02 78.76 C 139.03 75.79 138.57 73.46 134.13 64.71 M 134.13 64.71 C 136.83 66.11 138.61 67.65 141.1 68.26 M 134.13 64.71 C 136.16 65.79 137.95 66.8 141.1 68.26 M 141.1 68.26 C 143.39 67.99 143.6 67.24 148.13 64.82 M 141.1 68.26 C 143.46 67.3 145.15 66.53 148.13 64.82 M 148.13 64.82 C 147.09 69.51 143.92 72.05 141.02 78.76 M 148.13 64.82 C 145.94 67.87 144.29 70.69 141.02 78.76" fill="none" stroke="#82b366" stroke-width="2" stroke-linejoin="round" stroke-linecap="round" stroke-miterlimit="10" pointer-events="all"/><path d="M 141.24 131 L 141.1 148.26" fill="none" stroke="none" pointer-events="stroke"/><path d="M 141.02 158.76 L 134.13 144.71 L 141.1 148.26 L 148.13 144.82 Z" fill="none" stroke="none" pointer-events="all"/><path d="M 141.24 131 M 141.24 131 C 142.25 136.59 140.77 143.93 141.1 148.26 M 141.24 131 C 142.08 134.75 141.14 138.08 141.1 148.26" fill="none" stroke="#82b366" stroke-width="2" stroke-linejoin="round" stroke-linecap="round" stroke-miterlimit="10" pointer-events="stroke"/><path d="M 134.13 144.71 C 134.13 144.71 134.13 144.71 134.13 144.71 M 134.13 144.71 C 134.13 144.71 134.13 144.71 134.13 144.71 M 138.2 152.22 C 139.85 151.03 141.05 149.38 141.48 148.45 M 138.2 152.22 C 139.07 151.65 139.3 150.7 141.48 148.45" fill="none" stroke="#82b366" stroke-linejoin="round" stroke-linecap="round" stroke-miterlimit="10" pointer-events="all"/><path d="M 141.02 158.76 M 141.02 158.76 C 137.5 155.15 138.06 149.15 134.13 144.71 M 141.02 158.76 C 139.54 155.34 138.03 151.56 134.13 144.71 M 134.13 144.71 C 135.82 145.88 138.96 146.36 141.1 148.26 M 134.13 144.71 C 136.1 145.58 137.62 146.35 141.1 148.26 M 141.1 148.26 C 143.06 146.87 145.69 146.55 148.13 144.82 M 141.1 148.26 C 143.71 146.92 146.91 145.39 148.13 144.82 M 148.13 144.82 C 144.5 149.31 141.55 155.08 141.02 158.76 M 148.13 144.82 C 145.67 150.04 142.08 155.41 141.02 158.76" fill="none" stroke="#82b366" stroke-width="2" stroke-linejoin="round" stroke-linecap="round" stroke-miterlimit="10" pointer-events="all"/><path d="M 141.24 211 L 141.1 228.26" fill="none" stroke="none" pointer-events="stroke"/><path d="M 141.02 238.76 L 134.13 224.71 L 141.1 228.26 L 148.13 224.82 Z" fill="none" stroke="none" pointer-events="all"/><path d="M 141.24 211 M 141.24 211 C 141.29 215.69 142.25 223.21 141.1 228.26 M 141.24 211 C 141.05 216.18 141.47 220.07 141.1 228.26" fill="none" stroke="#82b366" stroke-width="2" stroke-linejoin="round" stroke-linecap="round" stroke-miterlimit="10" pointer-events="stroke"/><path d="M 134.38 224.43 C 134.38 224.43 134.38 224.43 134.38 224.43 M 134.38 224.43 C 134.38 224.43 134.38 224.43 134.38 224.43 M 137.79 232.69 C 138.95 231.4 139.41 230.97 141.73 228.17 M 137.79 232.69 C 139.29 231.2 140.52 229.2 141.73 228.17" fill="none" stroke="#82b366" stroke-linejoin="round" stroke-linecap="round" stroke-miterlimit="10" pointer-events="all"/><path d="M 141.02 238.76 M 141.02 238.76 C 140.43 233.46 136.55 232.3 134.13 224.71 M 141.02 238.76 C 138.76 234.89 137.77 231.23 134.13 224.71 M 134.13 224.71 C 136.37 225.65 137.74 226.62 141.1 228.26 M 134.13 224.71 C 136.59 226.07 139.22 227.32 141.1 228.26 M 141.1 228.26 C 144.23 227.32 146.15 225.86 148.13 224.82 M 141.1 228.26 C 143.35 227.09 145.08 226.26 148.13 224.82 M 148.13 224.82 C 146.45 229.44 145.15 232.54 141.02 238.76 M 148.13 224.82 C 145.27 229.55 142.72 234.69 141.02 238.76" fill="none" stroke="#82b366" stroke-width="2" stroke-linejoin="round" stroke-linecap="round" stroke-miterlimit="10" pointer-events="all"/><path d="M 141.24 291 L 141.1 308.26" fill="none" stroke="none" pointer-events="stroke"/><path d="M 141.02 318.76 L 134.13 304.71 L 141.1 308.26 L 148.13 304.82 Z" fill="none" stroke="none" pointer-events="all"/><path d="M 141.24 291 M 141.24 291 C 140.34 298.25 140.28 302.48 141.1 308.26 M 141.24 291 C 140.37 297.61 140.41 303.79 141.1 308.26" fill="none" stroke="#82b366" stroke-width="2" stroke-linejoin="round" stroke-linecap="round" stroke-miterlimit="10" pointer-events="stroke"/><path d="M 133.97 304.9 C 133.97 304.9 133.97 304.9 133.97 304.9 M 133.97 304.9 C 133.97 304.9 133.97 304.9 133.97 304.9 M 138.04 312.41 C 139.06 311.76 139.26 310.94 141.32 308.64 M 138.04 312.41 C 139 311.18 140.18 309.56 141.32 308.64" fill="none" stroke="#82b366" stroke-linejoin="round" stroke-linecap="round" stroke-miterlimit="10" pointer-events="all"/><path d="M 141.02 318.76 M 141.02 318.76 C 140.24 314.89 138.16 312.32 134.13 304.71 M 141.02 318.76 C 139.55 314.3 135.95 309.2 134.13 304.71 M 134.13 304.71 C 136.82 306.13 139.38 306.75 141.1 308.26 M 134.13 304.71 C 136.53 305.86 138.89 306.87 141.1 308.26 M 141.1 308.26 C 142.49 306.89 145.43 306.55 148.13 304.82 M 141.1 308.26 C 143.6 306.71 146.84 305.89 148.13 304.82 M 148.13 304.82 C 147.26 309.23 143.05 315.57 141.02 318.76 M 148.13 304.82 C 145.14 309.07 143.63 313.98 141.02 318.76" fill="none" stroke="#82b366" stroke-width="2" stroke-linejoin="round" stroke-linecap="round" stroke-miterlimit="10" pointer-events="all"/></g></svg>