<?xml version="1.0" encoding="UTF-8"?>
<!DOCTYPE svg PUBLIC "-//W3C//DTD SVG 1.1//EN" "http://www.w3.org/Graphics/SVG/1.1/DTD/svg11.dtd">
<svg xmlns="http://www.w3.org/2000/svg" xmlns:xlink="http://www.w3.org/1999/xlink" version="1.1" width="702px" height="562px" viewBox="-0.5 -0.5 702 562"><defs><style type="text/css">@font-face {&#xa;font-family: "Ink Free";&#xa;src: url("https://ull-esit-sistemas-operativos.github.io/ssoo-apuntes/fonts/InkFree.woff");&#xa;}&#xa;</style></defs><g><rect x="140" y="1" width="558" height="70" fill="none" stroke="none" pointer-events="all"/><path d="M 139.68 0.38 C 274.96 -0.63 409.23 -0.49 697.47 1.17 M 140.16 1.21 C 315.41 0.53 491.37 0 697.87 1.38 M 699.84 0.18 C 697.09 23.19 696.8 40.71 697.02 71.87 M 698.04 0.07 C 698.66 24.05 697.46 48.2 698.72 71.17 M 697.66 71.73 C 497.28 70.93 295.34 70.39 140.77 71.15 M 697.9 71.18 C 546.31 70.99 395.38 71.04 139.82 70.78 M 138.5 71.64 C 139.94 54.42 141.06 38.76 140.72 1.55 M 139 71.15 C 140.6 47.69 138.86 23.27 139.97 1.13" fill="none" stroke="#324ab2" stroke-width="2" stroke-linejoin="round" stroke-linecap="round" stroke-miterlimit="10" pointer-events="all"/><rect x="140" y="91" width="560" height="400" fill="none" stroke="none" pointer-events="all"/><path d="M 140.13 90.79 C 274.77 92.39 411.21 92.09 700.59 90.21 M 140.02 90.7 C 304.31 89.32 468.28 89.03 699.7 90.68 M 699.04 90.39 C 699.32 199.56 698.77 308.92 699.79 490.85 M 700.42 91.49 C 697.31 198.22 698.32 306.78 699.61 491.46 M 700.04 491.01 C 506.12 490.23 313.32 489.91 139.24 490.51 M 699.88 490.83 C 534.71 493.27 369.4 493.42 139.85 491.17 M 140.69 490.39 C 142.83 348.95 142.18 206.72 138.94 90.86 M 139.88 491.09 C 138.8 338.88 138.66 186.48 140.3 91.08" fill="none" stroke="#324ab2" stroke-width="2" stroke-linejoin="round" stroke-linecap="round" stroke-miterlimit="10" pointer-events="all"/><rect x="150" y="11" width="130" height="50" fill="none" stroke="none" pointer-events="all"/><path d="M 149.77 9.95 C 188.57 10.07 232.81 11.8 279.35 12.69 M 149.47 11.93 C 196.8 11.39 243.16 12.72 280.75 10.91 M 279.22 10.05 C 278.87 27.38 279.35 45.42 279.64 62.3 M 279.73 11.92 C 279.54 24.56 279.44 39.92 280.56 61.62 M 278.22 61.49 C 240.36 60.37 199.94 60.47 148.43 62.47 M 279.58 60.17 C 233.56 61.01 188.8 60.51 150.92 60.29 M 149.79 60.22 C 149.95 46.79 148.25 30.11 149.1 9.05 M 150.81 61.46 C 150.63 45.47 150.2 29.09 149.22 10.71" fill="none" stroke="#324ab2" stroke-width="2" stroke-linejoin="round" stroke-linecap="round" stroke-miterlimit="10" pointer-events="all"/><g fill="#324AB2" font-family="Ink Free" font-weight="bold" text-anchor="middle" font-size="17px"><text x="214.5" y="40.5">Aplicación</text></g><rect x="430" y="11" width="130" height="50" fill="none" stroke="none" pointer-events="all"/><g fill="#5980d4" font-family="Ink Free" font-weight="bold" text-anchor="middle" font-size="17px"><text x="494.5" y="40.5">· · ·</text></g><rect x="150" y="101" width="350" height="60" fill="none" stroke="none" pointer-events="all"/><path d="M 149.48 100.22 C 259.42 102.24 367.53 101.04 500.11 100.52 M 150.57 100.99 C 235.77 99.2 321.79 98.59 500.28 101.6 M 501.37 101.05 C 499.41 114.13 498.66 128.52 501.21 162.82 M 500.92 100.73 C 501.18 122.42 501.18 144.62 500.19 161.03 M 498.98 160.77 C 369.5 160.39 236.57 161.64 151.15 160.9 M 499.88 161.39 C 411.71 160.45 323.15 160.72 150.44 160.65 M 150.91 159.09 C 151.58 144.71 150.95 130.89 151.47 102.22 M 149.68 161.45 C 149.23 138.35 148.83 116.48 150.98 100.67" fill="none" stroke="#324ab2" stroke-width="2" stroke-linejoin="round" stroke-linecap="round" stroke-miterlimit="10" pointer-events="all"/><g fill="#324AB2" font-family="Ink Free" font-weight="bold" text-anchor="middle" font-size="17px"><text x="324.5" y="125.5">Interfaz de programación de aplicaciones</text><text x="324.5" y="145.5">(API)</text></g><rect x="500" y="101" width="190" height="60" fill="none" stroke="none" pointer-events="all"/><path d="M 498.06 102.77 C 557.64 99.32 619.34 98.59 691.38 102.65 M 499.23 100.25 C 549.89 100.7 602.37 101.19 690.85 101.67 M 690.9 101.31 C 687.63 114.41 687.57 130.98 690.6 159.95 M 690.22 100.93 C 690.02 114.66 689.03 127.86 689.59 160.38 M 691.48 162.43 C 615.9 161.46 540.3 162.85 501.61 162.45 M 689.87 160.45 C 646.01 161.91 603.56 162.04 500.62 161.5 M 498.19 160.81 C 501.01 139.97 498.64 118.65 500.06 99.02 M 500.9 161.45 C 499.69 140.87 499.79 120.93 500.42 100.65" fill="none" stroke="#324ab2" stroke-width="2" stroke-linejoin="round" stroke-linecap="round" stroke-miterlimit="10" pointer-events="all"/><g fill="#324AB2" font-family="Ink Free" font-weight="bold" text-anchor="middle" font-size="17px"><text x="594.5" y="135.5">Extensiones del API</text></g><rect x="150" y="181" width="140" height="50" fill="none" stroke="none" pointer-events="all"/><path d="M 149.77 180.7 C 195.45 180.34 237.12 181.82 289.79 179.43 M 149.93 180.78 C 193.4 182.13 235.81 181.48 289.69 181.18 M 289.98 181.81 C 290.44 196.12 291.77 210.19 289.38 232.21 M 290.81 181.33 C 290.84 199.48 289.9 216.99 290.41 231.09 M 289.59 232 C 257.09 230.94 227.2 231.24 151.29 231.64 M 289.98 230.16 C 236.05 229.51 183.59 229.11 150.49 231.58 M 150.75 230.25 C 148.74 215.71 150.9 198.61 151.25 180.6 M 149.34 231.45 C 150.55 218.58 149.66 205.15 149.31 180.63" fill="none" stroke="#324ab2" stroke-width="2" stroke-linejoin="round" stroke-linecap="round" stroke-miterlimit="10" pointer-events="all"/><g fill="#324AB2" font-family="Ink Free" font-weight="bold" text-anchor="middle" font-size="17px"><text x="219.5" y="210.5">Subsistema</text></g><rect x="450" y="181" width="100" height="50" fill="none" stroke="none" pointer-events="all"/><g fill="#5980d4" font-family="Ink Free" font-weight="bold" text-anchor="middle" font-size="17px"><text x="499.5" y="210.5">· · ·</text></g><rect x="150" y="251" width="540" height="150" fill="none" stroke="none" pointer-events="all"/><path d="M 149.68 250.78 C 280.92 248.47 410.26 249.02 690.36 251.58 M 150.23 250.64 C 320.78 250.43 492.19 250.69 689.97 250.95 M 688.82 251.16 C 688.95 280.51 689.3 312.17 690.08 402.21 M 689.7 250.45 C 688.93 283.87 689.06 316.9 689.33 401.31 M 690.67 400.92 C 516.4 400.56 341.92 401.31 149.4 400.87 M 690.06 401.19 C 503.17 402.95 316.63 402.84 149.71 401.11 M 148.68 401.52 C 150.49 368.47 148.12 338.24 150.15 249.32 M 150.9 401.2 C 151.93 346.24 152.02 292.97 149.63 251.46" fill="none" stroke="#324ab2" stroke-width="2" stroke-linejoin="round" stroke-linecap="round" stroke-miterlimit="10" pointer-events="all"/><g fill="#324AB2" font-family="Ink Free" font-weight="bold" text-anchor="middle" font-size="17px"><text x="419.5" y="320.5">Núcleo del sistema</text></g><rect x="150" y="418" width="140" height="60" fill="none" stroke="none" pointer-events="all"/><path d="M 148.05 416.42 C 182.51 419.45 217.16 417.93 288.11 417.83 M 150.92 418.38 C 197.97 418.23 243.72 418.31 290.34 417.63 M 288.35 418.41 C 289.07 429.71 290.11 445.48 289.47 476.34 M 291 417.65 C 291.4 435.1 290.55 453.11 290.73 477.66 M 290.73 479.58 C 242.38 478.54 194.82 479.85 148.34 479.27 M 290.22 477.32 C 245.53 477.55 199.75 476.99 149.2 477.33 M 149.95 476.24 C 150.33 459.73 150.23 441 148.74 417.11 M 150.12 478.2 C 150.34 458.09 148.94 439.08 149.07 418.45" fill="none" stroke="#324ab2" stroke-width="2" stroke-linejoin="round" stroke-linecap="round" stroke-miterlimit="10" pointer-events="all"/><g fill="#324AB2" font-family="Ink Free" font-weight="bold" text-anchor="middle" font-size="17px"><text x="219.5" y="442.5">Controladores</text><text x="219.5" y="462.5">de dispositivo</text></g><rect x="310" y="418" width="140" height="60" fill="none" stroke="none" pointer-events="all"/><path d="M 310.9 419.39 C 344.19 419.73 378.6 419.32 449.31 416.23 M 309.28 417.64 C 360.4 418.84 410.78 418.35 450.76 417.39 M 451.89 418.66 C 448.49 434 450.23 447.94 448.86 477.47 M 450.3 417.85 C 450.23 439.35 450.41 460.34 450.14 477.01 M 449.79 477.37 C 399.22 476.33 350.75 477.1 308.18 476.87 M 450.27 478.18 C 407.81 477.57 366.29 476.74 309.14 478.37 M 311.23 477.96 C 309.76 454.99 311.92 432.76 311.33 417.91 M 309.34 478.2 C 310.79 460.61 309.9 443.53 310.51 418.44" fill="none" stroke="#324ab2" stroke-width="2" stroke-linejoin="round" stroke-linecap="round" stroke-miterlimit="10" pointer-events="all"/><g fill="#324AB2" font-family="Ink Free" font-weight="bold" text-anchor="middle" font-size="17px"><text x="379.5" y="442.5">Controladores</text><text x="379.5" y="462.5">de dispositivo</text></g><rect x="548" y="418" width="140" height="60" fill="none" stroke="none" pointer-events="all"/><path d="M 547.76 418.35 C 579.87 417.21 614.05 417.91 688.52 418.62 M 547.63 418.91 C 600.83 416.65 653.85 417.59 687.18 417.14 M 689.43 418.91 C 689.91 434.28 688.34 446.4 686.25 478.6 M 687.59 418.05 C 687.06 431.59 688.26 445.58 687.55 478.36 M 686.84 479.16 C 638.05 478.12 584.68 478.35 546.02 478.46 M 688.33 477.03 C 650.09 478.4 610.83 477.29 547.08 477.41 M 546.51 479.68 C 547.18 462.26 547.61 444.53 547.93 418.7 M 548.55 478.2 C 547.25 463.13 548.86 447.98 547.95 418.43" fill="none" stroke="#324ab2" stroke-width="2" stroke-linejoin="round" stroke-linecap="round" stroke-miterlimit="10" pointer-events="all"/><g fill="#324AB2" font-family="Ink Free" font-weight="bold" text-anchor="middle" font-size="17px"><text x="617.5" y="442.5">Controladores</text><text x="617.5" y="462.5">de dispositivo</text></g><rect x="450" y="418" width="100" height="60" fill="none" stroke="none" pointer-events="all"/><g fill="#5980d4" font-family="Ink Free" font-weight="bold" text-anchor="middle" font-size="17px"><text x="499.5" y="452.5">· · ·</text></g><rect x="140" y="511" width="560" height="50" fill="none" stroke="none" pointer-events="all"/><path d="M 140.59 511.21 C 275.69 510.94 410.63 510.2 700.11 510.86 M 139.88 511 C 292.57 511.81 444.73 512.54 700.33 510.78 M 698.77 509.68 C 700.3 523.17 698.63 534.85 700.23 559.61 M 699.44 511.67 C 699.8 520.19 700.54 530.97 699.91 560.47 M 700.42 560.3 C 515.28 561.13 330.75 561.02 139.3 561.47 M 699.85 561.29 C 520.86 560.27 342.51 560.53 139.87 560.75 M 139.94 562.2 C 142.3 546.99 138.88 535.44 139.54 509.96 M 140.57 561.16 C 140.82 550.27 140.07 539.62 139.09 511.15" fill="none" stroke="#324ab2" stroke-width="2" stroke-linejoin="round" stroke-linecap="round" stroke-miterlimit="10" pointer-events="all"/><g fill="#324AB2" font-family="Ink Free" font-weight="bold" text-anchor="middle" font-size="17px"><text x="419.5" y="540.5">Hardware</text></g><path d="M 109.32 -0.48 L 126.17 0.7 L 127.57 69.39 L 109.6 72.86" fill="none" stroke="none" pointer-events="all"/><path d="M 126.84 2.3 M 127.73 1.58 C 125 0.96 121.38 1.56 119.52 1.01 M 128.16 1.18 C 126.24 0.89 124.24 1.12 119.12 0.72 M 120.08 1.29 C 117.5 25.52 121.12 49.77 118.49 72.92 M 119.91 0.71 C 119.2 15.24 118.97 30.34 119.92 71.75 M 118.79 71.4 C 121.69 70.24 124.61 70.74 127.31 70.31 M 118.55 71.12 C 121.89 70.91 124.63 70.78 127.62 71.1" fill="none" stroke="#324ab2" stroke-width="2" stroke-linejoin="round" stroke-linecap="round" stroke-miterlimit="10" pointer-events="all"/><path d="M 108.84 37.3 M 109.73 36.58 C 114.11 35.92 117.6 36.53 119.52 36.01 M 110.16 36.18 C 112.23 36.07 114.21 36.29 119.12 35.72" fill="none" stroke="#324ab2" stroke-width="2" stroke-linejoin="round" stroke-linecap="round" stroke-miterlimit="10" pointer-events="all"/><path d="M 109.72 90.94 L 129.22 90.52 L 129.82 489.62 L 108.52 492.39" fill="none" stroke="none" pointer-events="all"/><path d="M 126.84 92.64 M 128.49 91.2 C 124.57 91.03 121.56 90.79 119.71 91.7 M 127.91 91.09 C 124.54 90.67 121.86 91.13 119.2 90.96 M 119.1 90.73 C 120.63 201.99 120.19 313.06 119.48 491.31 M 119.09 90.92 C 118.85 188.14 119.37 286.49 118.48 491.01 M 118.35 490.42 C 121.82 490.91 124.52 491.56 128.89 490.99 M 118.96 490.79 C 121 491.46 123.01 491.35 128.01 490.98" fill="none" stroke="#324ab2" stroke-width="2" stroke-linejoin="round" stroke-linecap="round" stroke-miterlimit="10" pointer-events="all"/><path d="M 108.84 292.64 M 110.49 291.2 C 112.25 291.09 114.91 290.85 119.71 291.7 M 109.91 291.09 C 113.1 290.61 116.98 291.07 119.2 290.96" fill="none" stroke="#324ab2" stroke-width="2" stroke-linejoin="round" stroke-linecap="round" stroke-miterlimit="10" pointer-events="all"/><rect x="29" y="18.5" width="70" height="35" fill="none" stroke="none" pointer-events="all"/><g fill="#324AB2" font-family="Ink Free" font-weight="bold" text-anchor="end" font-size="17px"><text x="96.5" y="30.5">Modo</text><text x="96.5" y="50.5">usuario</text></g><rect x="0" y="271" width="99" height="40" fill="none" stroke="none" pointer-events="all"/><g fill="#324AB2" font-family="Ink Free" font-weight="bold" text-anchor="end" font-size="17px"><text x="96.5" y="285.5">Modo</text><text x="96.5" y="305.5">privilegiado</text></g><rect x="520" y="341" width="170" height="60" fill="none" stroke="none" pointer-events="all"/><g fill="#324AB2" font-family="Ink Free" font-weight="bold" font-size="14px"><text x="521.5" y="357">- Gestor de memoria</text><text x="521.5" y="374">- Planificador de la CPU</text><text x="521.5" y="391">- Gestión de dispositivos</text></g><rect x="310" y="181" width="140" height="50" fill="none" stroke="none" pointer-events="all"/><path d="M 311.48 181.26 C 343.37 180.02 379.63 180.9 448.49 180.37 M 310 181.25 C 341.69 182.19 371.61 182.08 449.52 181.8 M 448.56 180.45 C 451.18 194.85 449.71 206.68 448.9 229.18 M 450.86 180.7 C 449.28 200.77 449.85 220.31 449.15 231.79 M 449.9 231.78 C 412.56 231.05 370.51 231.76 310.53 232.06 M 449.61 231.7 C 410.59 231.59 372.17 232.74 309.54 230.84 M 310.72 232.35 C 310.22 215.58 310.17 201.9 308.25 179.75 M 309.2 231.1 C 310.4 213.79 309.37 195.92 309.51 180.73" fill="none" stroke="#324ab2" stroke-width="2" stroke-linejoin="round" stroke-linecap="round" stroke-miterlimit="10" pointer-events="all"/><g fill="#324AB2" font-family="Ink Free" font-weight="bold" text-anchor="middle" font-size="17px"><text x="379.5" y="210.5">Subsistema</text></g><rect x="550" y="181" width="140" height="50" fill="none" stroke="none" pointer-events="all"/><path d="M 550.34 180.22 C 585.05 180.3 617.07 182.29 689.7 182.77 M 550.36 180.52 C 584.12 182.8 616.68 182.12 689.94 181.56 M 688.09 180.7 C 690.55 194.96 689.77 208.79 688.29 230.31 M 690.16 180.9 C 690.18 194.33 689.77 208.17 690.55 231.15 M 688.95 229.56 C 649.39 228.85 606.44 229.01 550.37 229.66 M 689.67 230.55 C 654.87 231.62 618.71 230.49 549.48 231.88 M 552 230.07 C 549.62 211.71 551.84 191.4 550.84 180.54 M 550.41 231.09 C 550.82 215.95 550.29 199.64 550.95 180.72" fill="none" stroke="#324ab2" stroke-width="2" stroke-linejoin="round" stroke-linecap="round" stroke-miterlimit="10" pointer-events="all"/><g fill="#324AB2" font-family="Ink Free" font-weight="bold" text-anchor="middle" font-size="17px"><text x="619.5" y="210.5">Subsistema</text></g><rect x="300" y="11" width="130" height="50" fill="none" stroke="none" pointer-events="all"/><path d="M 299.2 9.19 C 330.31 11.84 363.67 10.94 430.91 11.16 M 300.71 11.78 C 333.93 10.65 368.5 9.41 430.36 11.31 M 431.63 10.95 C 428.91 25.06 428.83 40.9 431.68 61.44 M 429.45 11.1 C 430.08 27.89 430.69 44.04 429.96 60.5 M 428.01 61.35 C 389.32 60.7 348.55 60.32 300.21 61.25 M 429.72 61.41 C 399.44 59.74 369.82 60.34 299.42 60.92 M 299.28 61.79 C 299.02 47.84 299.51 34.9 299.43 11.34 M 299.63 61.09 C 300.24 48.1 300.21 33.36 300.39 10.71" fill="none" stroke="#324ab2" stroke-width="2" stroke-linejoin="round" stroke-linecap="round" stroke-miterlimit="10" pointer-events="all"/><g fill="#324AB2" font-family="Ink Free" font-weight="bold" text-anchor="middle" font-size="17px"><text x="364.5" y="40.5">Aplicación</text></g><rect x="560" y="11" width="130" height="50" fill="none" stroke="none" pointer-events="all"/><path d="M 558.63 11.28 C 592.33 10.84 623.7 9.6 689.07 10.97 M 559.49 11.4 C 611.31 10.26 662.45 10.78 690.85 11.13 M 688.05 9.21 C 691.11 27.7 688.32 45.64 688.45 61.71 M 689.9 10.11 C 690.56 22.89 688.77 34.71 689.13 60.31 M 688.33 62.02 C 650.15 61.53 610.59 59.56 560.12 61.16 M 689.14 60.82 C 660.53 61.75 631.28 61.57 559.89 60.97 M 559.26 60.75 C 559.97 49.12 561.14 36.38 560.23 11.18 M 560.08 61.05 C 560.65 42.05 561.28 24.43 560.41 10.41" fill="none" stroke="#324ab2" stroke-width="2" stroke-linejoin="round" stroke-linecap="round" stroke-miterlimit="10" pointer-events="all"/><g fill="#324AB2" font-family="Ink Free" font-weight="bold" text-anchor="middle" font-size="17px"><text x="624.5" y="40.5">Aplicación</text></g></g></svg>