<?xml version="1.0" encoding="UTF-8"?>
<!DOCTYPE svg PUBLIC "-//W3C//DTD SVG 1.1//EN" "http://www.w3.org/Graphics/SVG/1.1/DTD/svg11.dtd">
<svg xmlns="http://www.w3.org/2000/svg" xmlns:xlink="http://www.w3.org/1999/xlink" version="1.1" width="700px" height="382px" viewBox="-0.5 -0.5 700 382"><defs><style type="text/css">@font-face {&#xa;font-family: "Ink Free";&#xa;src: url("https://ull-esit-sistemas-operativos.github.io/ssoo-apuntes/fonts/InkFree.woff");&#xa;}&#xa;</style></defs><g><rect x="138" y="331" width="560" height="50" fill="none" stroke="none" pointer-events="all"/><path d="M 137.45 330.9 C 273.14 328.27 410.12 328.36 697.81 330.77 M 138.03 331.37 C 300.91 330.16 463.16 329.62 698.09 331.33 M 699.62 330.75 C 699.88 351.08 697.49 369.3 697.79 380.85 M 698.73 330.17 C 697.52 342.06 697.37 353.39 697.61 380.96 M 698.01 380.23 C 474.78 381.85 252.43 381.84 138.27 380.97 M 697.64 380.9 C 507.56 383.08 317.21 383.41 137.85 381.36 M 138.82 381.05 C 138.82 366.3 138.72 349.31 139.66 330.76 M 137.34 380.92 C 137.82 369.09 137.87 357.04 137.26 331.57" fill="none" stroke="#324ab2" stroke-width="2" stroke-linejoin="round" stroke-linecap="round" stroke-miterlimit="10" pointer-events="all"/><g fill="#324AB2" font-family="Ink Free" font-weight="bold" text-anchor="middle" font-size="17px"><text x="417.5" y="360.5">Hardware</text></g><rect x="138" y="1" width="560" height="220" fill="none" stroke="none" pointer-events="all"/><path d="M 138.6 1.38 C 273.58 2.36 410.1 2.59 697.22 1.02 M 137.93 1.3 C 339.83 1.25 541.23 1.29 697.78 0.76 M 697.5 2.1 C 699.87 78.99 697.12 156.91 696.6 221.63 M 697.38 0.64 C 697.67 75 697.99 147.88 698.49 220.75 M 697.67 221.55 C 505.16 221.22 313.85 221.23 138.43 220.62 M 698.14 221.24 C 580.34 219.68 462.53 220.02 138.11 220.93 M 138.84 222.61 C 139.83 168.93 141.39 117.66 136.85 2.06 M 138.12 220.9 C 139.14 168.31 138.43 116.34 138.83 1.27" fill="none" stroke="#324ab2" stroke-width="2" stroke-linejoin="round" stroke-linecap="round" stroke-miterlimit="10" pointer-events="all"/><path d="M 110.48 1.03 L 128.14 -0.21 L 128.39 219.2 L 109.21 219.33" fill="none" stroke="none" pointer-events="all"/><path d="M 126.85 2.34 M 128.22 1.56 C 125.13 1.6 121.63 0.74 118.32 1.07 M 128.27 0.95 C 125.39 1.18 122.44 1.34 118.57 0.88 M 118.32 -0.28 C 115.49 75.64 117.6 152.71 119.67 221.22 M 119.82 0.23 C 117.76 58.03 118.11 116.26 119.78 220.74 M 118.63 221.61 C 122.19 220.95 124.8 220.98 128.34 220.96 M 119.25 220.83 C 122.7 220.92 125.85 221.5 127.99 221.12" fill="none" stroke="#324ab2" stroke-width="2" stroke-linejoin="round" stroke-linecap="round" stroke-miterlimit="10" pointer-events="all"/><path d="M 108.85 112.34 M 110.22 111.56 C 114.26 111.43 117.88 110.57 118.32 111.07 M 110.27 110.95 C 113.27 111.08 116.2 111.24 118.57 110.88" fill="none" stroke="#324ab2" stroke-width="2" stroke-linejoin="round" stroke-linecap="round" stroke-miterlimit="10" pointer-events="all"/><rect x="29" y="93.5" width="70" height="35" fill="none" stroke="none" pointer-events="all"/><g fill="#324AB2" font-family="Ink Free" font-weight="bold" text-anchor="end" font-size="17px"><text x="96.5" y="105.5">Modo</text><text x="96.5" y="125.5">usuario</text></g><rect x="298" y="11" width="100" height="60" fill="none" stroke="none" pointer-events="all"/><path d="M 297.78 10.78 C 322.09 11.22 346.93 13.32 398.09 11.02 M 297.57 10.06 C 324.18 11.39 352.31 12.65 397.55 11.15 M 399.11 9.52 C 399.89 26.31 400.18 39.03 397.33 69.38 M 397.77 11.59 C 397.88 26.93 399.37 43.31 397.6 71.47 M 396.45 69.31 C 377.11 72.03 355.3 69.34 298.25 70.02 M 398.63 71.87 C 369.43 70.17 340.34 69.66 297.97 70.03 M 297.36 69.45 C 298.59 53.13 299.72 38.37 297.63 12.19 M 298.22 70.88 C 298.08 54.79 297.79 40.43 298.16 11.25" fill="none" stroke="#324ab2" stroke-width="2" stroke-linejoin="round" stroke-linecap="round" stroke-miterlimit="10" pointer-events="all"/><g fill="#324AB2" font-family="Ink Free" font-weight="bold" text-anchor="middle" font-size="17px"><text x="347.5" y="45.5">Aplicación</text></g><rect x="588" y="81" width="100" height="60" fill="none" stroke="none" pointer-events="all"/><path d="M 589.5 82.71 C 611.45 83.14 635.81 79.46 686.5 81.81 M 588.27 80.59 C 619.32 80.15 649.02 80.27 688.39 80.66 M 688.18 80.02 C 687.54 96.87 689.21 113.95 686.11 141.64 M 688.37 81.99 C 687.54 93.42 687.08 105.78 688.41 140.18 M 688.55 142.88 C 662.04 141.63 635.67 141.84 587.93 139.21 M 688.74 141.59 C 664.07 140.93 639.57 139.87 587.85 140.11 M 589.92 142.89 C 587.44 125.66 589.11 111.9 588.82 79.78 M 588.66 140.87 C 588.99 117.83 587.71 95.33 587.05 81.22" fill="none" stroke="#324ab2" stroke-width="2" stroke-linejoin="round" stroke-linecap="round" stroke-miterlimit="10" pointer-events="all"/><g fill="#324AB2" font-family="Ink Free" font-weight="bold" text-anchor="middle" font-size="17px"><text x="637.5" y="115.5">Reincar.</text></g><rect x="298" y="151" width="70" height="60" fill="none" stroke="none" pointer-events="all"/><path d="M 298.35 151.67 C 315.86 151.39 332.7 148.82 367.71 150.2 M 298.62 151.86 C 320.97 152.36 344.51 151.91 368.81 150.41 M 367.72 150.27 C 366.96 167.15 369.32 186.41 369.5 212.77 M 367.66 150.19 C 367.58 167.66 368.13 185.02 367.82 211.53 M 367.61 210.67 C 347.55 209.41 328.95 209.09 297.76 210.81 M 368.8 210.44 C 351.91 211.2 337.22 211.87 297.79 211.15 M 297.2 210.6 C 295.67 190.92 295.6 169.66 297.41 150.58 M 297.88 210.87 C 298.24 190.35 297.47 169.78 298.49 151.21" fill="none" stroke="#324ab2" stroke-width="2" stroke-linejoin="round" stroke-linecap="round" stroke-miterlimit="10" pointer-events="all"/><g fill="#324AB2" font-family="Ink Free" font-weight="bold" text-anchor="middle" font-size="17px"><text x="332.5" y="185.5">Disco</text></g><rect x="148" y="11" width="130" height="60" fill="none" stroke="none" pointer-events="all"/><path d="M 147.21 10.63 C 178.09 11.01 209.25 9.54 278.91 12.59 M 148.98 11.12 C 193.05 10.66 238.88 9.64 277.23 10.16 M 277.25 10.52 C 280.38 31.43 279.43 48.87 278.89 69.9 M 278.96 10.39 C 278.41 31.9 277.99 52.25 277.23 70.88 M 276.66 72.46 C 242.44 71.22 202.99 70.35 147.6 72.41 M 278.85 71.3 C 226.92 69.53 175.21 69.93 147.72 70.19 M 148.48 72.32 C 149.09 58.19 147.29 45.42 146 11.37 M 147.09 70.87 C 148.7 52.87 148.44 34.22 147.93 11.2" fill="none" stroke="#324ab2" stroke-width="2" stroke-linejoin="round" stroke-linecap="round" stroke-miterlimit="10" pointer-events="all"/><g fill="#324AB2" font-family="Ink Free" font-weight="bold" text-anchor="middle" font-size="17px"><text x="212.5" y="35.5">Procesos</text><text x="212.5" y="55.5">de usuario</text></g><rect x="148" y="81" width="130" height="60" fill="none" stroke="none" pointer-events="all"/><path d="M 146.07 81.84 C 179.07 82 212.95 80.88 277.45 79.22 M 148.7 80.94 C 177.78 81.22 204.91 79.66 278.46 80.72 M 279.06 82.03 C 280.46 99.6 278.73 116.98 277.49 140.78 M 277.51 80.8 C 278.29 95.26 278.39 111.42 278.18 140.63 M 279.82 141.76 C 248.29 140.67 220.3 139.84 148 141.53 M 278.1 140.14 C 243.87 140 210.5 140.43 148.38 141.12 M 148.63 140.13 C 148.85 119.97 148.94 102.21 147.02 82.84 M 147.89 140.83 C 147.91 122.31 148.78 104.07 147.62 80.94" fill="none" stroke="#324ab2" stroke-width="2" stroke-linejoin="round" stroke-linecap="round" stroke-miterlimit="10" pointer-events="all"/><g fill="#324AB2" font-family="Ink Free" font-weight="bold" text-anchor="middle" font-size="17px"><text x="212.5" y="105.5">Procesos</text><text x="212.5" y="125.5">de servicios</text></g><rect x="148" y="151" width="130" height="60" fill="none" stroke="none" pointer-events="all"/><path d="M 148.93 150.8 C 180.75 152.2 210.39 152.19 278.66 151.62 M 147.06 150.21 C 179.99 151.77 211.55 151.65 278.88 150.48 M 278.6 152.28 C 278.69 169.88 277.64 189.44 276.88 211.91 M 278.81 151 C 279.12 169.51 278.24 190.65 277.58 211.98 M 278.87 209.55 C 245.28 212.46 212.55 211.09 147.84 209.13 M 278.15 210.99 C 245.92 210.12 216.55 210.27 148.32 210.16 M 149.91 211.85 C 148.27 197.24 146.63 183.97 149.61 149.63 M 147.11 210.83 C 148.37 194.83 147.74 178.52 147.06 150.93" fill="none" stroke="#324ab2" stroke-width="2" stroke-linejoin="round" stroke-linecap="round" stroke-miterlimit="10" pointer-events="all"/><g fill="#324AB2" font-family="Ink Free" font-weight="bold" text-anchor="middle" font-size="17px"><text x="212.5" y="175.5">Procesos de </text><text x="212.5" y="195.5">dispositivos</text></g><rect x="418" y="11" width="100" height="60" fill="none" stroke="none" pointer-events="all"/><path d="M 417.79 9.77 C 441.15 12.11 467.27 13.21 519.87 10.01 M 417.41 11.47 C 444.27 12.09 470.3 11.39 517.3 10.23 M 518.13 12.53 C 518.11 30.16 517.75 51.9 516.27 69.04 M 518.11 11.21 C 517.95 33.75 518.09 57.89 518.99 71.34 M 517.93 71.34 C 490.08 70.33 464.4 72.42 417.67 70.72 M 518.21 71.85 C 496.41 70.76 475.52 70.65 418.26 71.2 M 417.19 69.57 C 417.7 52.5 418.32 35.73 418.2 10.42 M 418.33 70.83 C 418.82 57.35 418.7 42.97 418.5 10.91" fill="none" stroke="#324ab2" stroke-width="2" stroke-linejoin="round" stroke-linecap="round" stroke-miterlimit="10" pointer-events="all"/><g fill="#324AB2" font-family="Ink Free" font-weight="bold" text-anchor="middle" font-size="17px"><text x="467.5" y="45.5">Aplicación</text></g><rect x="588" y="11" width="100" height="60" fill="none" stroke="none" pointer-events="all"/><path d="M 586.64 12.73 C 612.83 10.07 634.71 12.27 687.07 12.4 M 587.76 10.74 C 615.84 10.47 645.65 11.21 687.72 11.98 M 687.67 12.78 C 687.53 30.44 687.87 54.35 689.66 70.17 M 687.4 11.41 C 687.98 25.99 689.15 41.12 688.4 70.69 M 686.98 69.12 C 661.54 72.12 631.58 69.67 587.51 72.32 M 688.27 70.71 C 649.74 71.14 610.13 70.76 588.2 70.24 M 588.47 71.29 C 587.12 47.76 590.01 23.49 586.8 11.22 M 587.54 70.82 C 588.08 57.87 588.46 45.41 587.95 10.9" fill="none" stroke="#324ab2" stroke-width="2" stroke-linejoin="round" stroke-linecap="round" stroke-miterlimit="10" pointer-events="all"/><g fill="#324AB2" font-family="Ink Free" font-weight="bold" text-anchor="middle" font-size="17px"><text x="637.5" y="45.5">Aplicación</text></g><rect x="518" y="11" width="70" height="60" fill="none" stroke="none" pointer-events="all"/><g fill="#5980d4" font-family="Ink Free" font-weight="bold" text-anchor="middle" font-size="17px"><text x="552.5" y="45.5">· · ·</text></g><rect x="298" y="81" width="100" height="60" fill="none" stroke="none" pointer-events="all"/><path d="M 298.36 80.66 C 322.19 81.99 347.59 78.41 399.49 79.19 M 298.46 81.27 C 330.99 81.23 364.37 80.83 398.56 81.49 M 396.74 79.29 C 399.17 105 396.89 125.27 398.44 142.43 M 398 81.81 C 397.64 104.48 396.86 127.59 397.21 141.39 M 399.09 142.69 C 366.47 141.72 335.94 142.17 297.18 141.51 M 398.38 140.42 C 364.38 139.9 329.36 140.97 298.08 140.32 M 297.02 140.72 C 299.98 120.29 299.4 97.02 297.98 82.81 M 297.98 140.82 C 298.99 120.91 298.39 100.31 298.83 80.88" fill="none" stroke="#324ab2" stroke-width="2" stroke-linejoin="round" stroke-linecap="round" stroke-miterlimit="10" pointer-events="all"/><g fill="#324AB2" font-family="Ink Free" font-weight="bold" text-anchor="middle" font-size="17px"><text x="347.5" y="115.5">Archivos</text></g><rect x="418" y="81" width="100" height="60" fill="none" stroke="none" pointer-events="all"/><path d="M 417.21 79.62 C 443.88 81.95 465.03 79.47 516.69 81.58 M 418.81 80.53 C 452.56 79.61 487.72 80.64 518.98 81.24 M 516.28 79.54 C 518.59 105.28 517.01 127.73 517.83 139.56 M 517.3 80.01 C 517.67 96.73 517.91 112.83 518.62 140.74 M 518.14 140.48 C 483.93 139.51 453.13 139.43 417.02 139.11 M 518.44 141.27 C 485.7 142.28 453.97 141.08 418.02 141.37 M 418.3 142.44 C 418.2 127.55 415.89 112.78 416.57 79.6 M 417.2 140.82 C 417.44 123.43 417.35 104.76 418.27 80.87" fill="none" stroke="#324ab2" stroke-width="2" stroke-linejoin="round" stroke-linecap="round" stroke-miterlimit="10" pointer-events="all"/><g fill="#324AB2" font-family="Ink Free" font-weight="bold" text-anchor="middle" font-size="17px"><text x="467.5" y="115.5">Procesos</text></g><rect x="518" y="81" width="70" height="60" fill="none" stroke="none" pointer-events="all"/><g fill="#5980d4" font-family="Ink Free" font-weight="bold" text-anchor="middle" font-size="17px"><text x="552.5" y="115.5">· · ·</text></g><rect x="388" y="151" width="70" height="60" fill="none" stroke="none" pointer-events="all"/><path d="M 388.93 151.55 C 405.96 149.95 423.35 149.68 459.1 152.36 M 387.52 151.06 C 415.92 150.32 442.86 150.21 457.82 150.75 M 459.35 150.04 C 456.24 163.84 456.03 178.65 456.61 211.82 M 457.89 150.41 C 457.33 163.21 457.62 175.3 457.43 211.45 M 456.24 210.05 C 433.48 209.2 408.74 212.03 386.69 212.3 M 458.55 210.99 C 438.46 210.76 419.43 211.02 387.89 211.45 M 386.86 211.88 C 387.05 196.08 389.28 186.31 387.76 151.19 M 387.63 210.81 C 387.15 198.47 388.07 183.65 387.15 150.84" fill="none" stroke="#324ab2" stroke-width="2" stroke-linejoin="round" stroke-linecap="round" stroke-miterlimit="10" pointer-events="all"/><g fill="#324AB2" font-family="Ink Free" font-weight="bold" text-anchor="middle" font-size="17px"><text x="422.5" y="185.5">TTY</text></g><rect x="478" y="151" width="70" height="60" fill="none" stroke="none" pointer-events="all"/><path d="M 479.5 150.68 C 496.29 150.66 511.93 152.96 546.06 149.78 M 477.95 151.41 C 500.34 151.6 520.68 151.81 547.89 150.81 M 546.24 152.05 C 549.16 166.57 549.56 181.68 547.98 210.96 M 547.04 151.23 C 546.88 165.06 547.73 180.93 547.2 211.9 M 547.51 212.93 C 525.89 212.38 501.68 210.17 476.77 210.62 M 547.91 211.54 C 526.81 210.22 507.47 209.96 478.43 210.45 M 479.57 209.12 C 479.66 194.39 476.31 172.62 479.96 150.24 M 478.86 210.77 C 477.27 188.95 478.34 168.39 477.73 150.55" fill="none" stroke="#324ab2" stroke-width="2" stroke-linejoin="round" stroke-linecap="round" stroke-miterlimit="10" pointer-events="all"/><g fill="#324AB2" font-family="Ink Free" font-weight="bold" text-anchor="middle" font-size="17px"><text x="512.5" y="185.5">Red</text></g><rect x="548" y="151" width="60" height="60" fill="none" stroke="none" pointer-events="all"/><g fill="#5980d4" font-family="Ink Free" font-weight="bold" text-anchor="middle" font-size="17px"><text x="577.5" y="185.5">· · ·</text></g><rect x="608" y="151" width="80" height="60" fill="none" stroke="none" pointer-events="all"/><path d="M 607.22 152.61 C 628.08 152.75 645.66 153.26 688.47 150.56 M 608.65 151.94 C 635.69 152.12 663.79 151.19 688.73 150.32 M 689.31 152.55 C 686.81 167.13 688.58 186.6 686.76 209.22 M 687.63 151.63 C 687.74 173.55 688.64 197.4 688.01 210.61 M 689.62 212.51 C 658.14 211.92 630.69 208.62 606.44 209.81 M 688.02 211.25 C 667.57 210.89 648.92 210.09 608.31 210.54 M 608.13 212.56 C 608.51 192.92 609.69 176.14 607.14 151.83 M 607.3 210.77 C 606.98 193.99 607.06 177.29 608.61 150.53" fill="none" stroke="#324ab2" stroke-width="2" stroke-linejoin="round" stroke-linecap="round" stroke-miterlimit="10" pointer-events="all"/><g fill="#324AB2" font-family="Ink Free" font-weight="bold" text-anchor="middle" font-size="17px"><text x="647.5" y="185.5">Otros</text></g><rect x="138" y="241" width="560" height="70" fill="none" stroke="none" pointer-events="all"/><path d="M 138.37 240.82 C 273.98 241.04 410.63 240.53 697.55 241.14 M 137.74 240.79 C 357.13 241.22 575.79 241.2 697.83 241.33 M 698.38 239.05 C 699.67 264.93 698.83 288 699.55 311.48 M 698.23 240.03 C 698.63 263.2 697.57 286.19 698.83 311.31 M 697.89 311.43 C 478.35 310.03 258.27 309.88 137.25 310.2 M 698.05 310.99 C 476.55 311.45 254.18 310.91 138.07 310.85 M 136.69 312 C 136.09 292.91 137.81 274.61 138.33 239.42 M 137.74 310.76 C 137.89 296.94 138.98 281.99 137.49 240.51" fill="none" stroke="#324ab2" stroke-width="2" stroke-linejoin="round" stroke-linecap="round" stroke-miterlimit="10" pointer-events="all"/><rect x="148" y="251" width="130" height="50" fill="none" stroke="none" pointer-events="all"/><path d="M 147.79 249.5 C 181.26 250.99 210.27 250.82 278.09 249.74 M 147.7 251.73 C 175.74 251.66 202.51 251.03 277.99 251.58 M 277.92 249.3 C 279 268.56 278.85 283.15 278.94 302.61 M 277.52 250.23 C 277.47 270.43 277.44 289.41 278.23 300.66 M 276.78 299.86 C 251.03 299.01 225.24 302.07 149.95 300.6 M 278.19 301.82 C 229.48 299.77 180.67 300.16 148.12 301.66 M 147.97 299.72 C 149.63 284.1 149.62 268.23 146.92 250.21 M 148.95 300.76 C 148.31 283.29 147.91 264.1 148.93 250.49" fill="none" stroke="#324ab2" stroke-width="2" stroke-linejoin="round" stroke-linecap="round" stroke-miterlimit="10" pointer-events="all"/><g fill="#324AB2" font-family="Ink Free" font-weight="bold" text-anchor="middle" font-size="17px"><text x="212.5" y="280.5">Núcleo</text></g><path d="M 109.26 240.28 L 128.2 239.13 L 127.38 312.89 L 109.22 310" fill="none" stroke="none" pointer-events="all"/><path d="M 126.86 241.13 M 128.47 241.53 C 124.82 240.67 122.76 240.81 118.59 240.81 M 127.57 240.73 C 124.91 240.77 122.63 240.97 119.34 240.91 M 117.84 239.95 C 118.72 265.83 118.36 293.07 119.43 311.43 M 119.16 241.49 C 119.26 255.25 118.13 269.84 118.4 311.2 M 118.2 310.29 C 120.28 311.25 123.97 310.53 128.21 310.16 M 118.85 311.14 C 121.65 311.02 123.42 311.29 128.06 310.95" fill="none" stroke="#324ab2" stroke-width="2" stroke-linejoin="round" stroke-linecap="round" stroke-miterlimit="10" pointer-events="all"/><path d="M 108.86 276.13 M 110.47 276.53 C 111.39 275.63 113.89 275.77 118.59 275.81 M 109.57 275.73 C 112.66 275.9 116.12 276.1 119.34 275.91" fill="none" stroke="#324ab2" stroke-width="2" stroke-linejoin="round" stroke-linecap="round" stroke-miterlimit="10" pointer-events="all"/><rect x="508" y="251" width="180" height="50" fill="none" stroke="none" pointer-events="all"/><path d="M 508.36 250.4 C 550.45 250.02 594.87 249.17 687.71 252.92 M 508.76 251.53 C 558.2 250.9 608.04 252.56 687.25 250.84 M 686.53 250.06 C 690.11 268.88 688.03 289.48 687.11 302 M 687.42 250.83 C 687.17 271.11 688.21 289.02 688.45 300.72 M 687.93 301.22 C 643.22 300.06 594.39 301.49 509.46 301.39 M 688.36 300.39 C 634.63 301.59 580.86 301.16 507.94 300.79 M 507.8 300.87 C 507.82 292.5 506.61 280.73 506.69 252.59 M 508.61 300.76 C 508.56 287.76 507.68 275.26 507.25 250.46" fill="none" stroke="#324ab2" stroke-width="2" stroke-linejoin="round" stroke-linecap="round" stroke-miterlimit="10" pointer-events="all"/><g fill="#324AB2" font-family="Ink Free" font-weight="bold" text-anchor="middle" font-size="17px"><text x="597.5" y="280.5">Temporizadores</text></g><rect x="298" y="251" width="190" height="50" fill="none" stroke="none" pointer-events="all"/><path d="M 298.55 249.26 C 352.45 254.46 409.72 252.36 489.48 249.56 M 297.29 250.95 C 350.44 249.23 402.93 249.93 487.63 251.41 M 487.24 249.47 C 487.73 260.67 487.15 271.17 486.6 302.5 M 487.65 250.27 C 487.68 263.45 488.57 275.59 488.98 301.94 M 486.82 300.19 C 447.59 300.41 403.94 301.05 298.32 302.57 M 487.16 301.24 C 443.16 301.88 396.69 302.28 297.58 300.09 M 296.37 299.97 C 296.57 282.82 298.18 265.41 297.01 249.34 M 297.85 301.57 C 297.14 283.34 298.2 267.7 297.62 251.01" fill="none" stroke="#324ab2" stroke-width="2" stroke-linejoin="round" stroke-linecap="round" stroke-miterlimit="10" pointer-events="all"/><g fill="#324AB2" font-family="Ink Free" font-weight="bold" text-anchor="middle" font-size="17px"><text x="392.5" y="280.5">Tareas del sistema</text></g><rect x="0" y="256" width="99" height="40" fill="none" stroke="none" pointer-events="all"/><g fill="#324AB2" font-family="Ink Free" font-weight="bold" text-anchor="end" font-size="17px"><text x="96.5" y="270.5">Modo</text><text x="96.5" y="290.5">privilegiado</text></g></g></svg>