<?xml version="1.0" encoding="UTF-8" standalone="no"?>
<svg
   version="1.2"
   width="550.27557"
   height="443.97638"
   viewBox="0 0 15530 12530"
   preserveAspectRatio="xMidYMid"
   clip-path="url(#presentation_clip_path)"
   xml:space="preserve"
   id="svg2"
   inkscape:version="1.2 (dc2aedaf03, 2022-05-15)"
   sodipodi:docname="componentes_sistema_informático.svg"
   style="fill-rule:evenodd;stroke-width:28.22200012;stroke-linejoin:round"
   xmlns:inkscape="http://www.inkscape.org/namespaces/inkscape"
   xmlns:sodipodi="http://sodipodi.sourceforge.net/DTD/sodipodi-0.dtd"
   xmlns="http://www.w3.org/2000/svg"
   xmlns:svg="http://www.w3.org/2000/svg"
   xmlns:rdf="http://www.w3.org/1999/02/22-rdf-syntax-ns#"
   xmlns:cc="http://creativecommons.org/ns#"
   xmlns:dc="http://purl.org/dc/elements/1.1/"
   xmlns:ooo="http://xml.openoffice.org/svg/export"><metadata
     id="metadata298"><rdf:RDF><cc:Work
         rdf:about=""><dc:format>image/svg+xml</dc:format><dc:type
           rdf:resource="http://purl.org/dc/dcmitype/StillImage" /></cc:Work></rdf:RDF></metadata><sodipodi:namedview
     pagecolor="#ffffff"
     bordercolor="#666666"
     borderopacity="1"
     objecttolerance="10"
     gridtolerance="10"
     guidetolerance="10"
     inkscape:pageopacity="0"
     inkscape:pageshadow="2"
     inkscape:window-width="1312"
     inkscape:window-height="747"
     id="namedview296"
     showgrid="false"
     fit-margin-top="0"
     fit-margin-left="0"
     fit-margin-right="0"
     fit-margin-bottom="0"
     inkscape:zoom="1.1774114"
     inkscape:cx="253.52227"
     inkscape:cy="173.26145"
     inkscape:window-x="815"
     inkscape:window-y="381"
     inkscape:window-maximized="0"
     inkscape:current-layer="svg2"
     inkscape:showpageshadow="0"
     inkscape:pagecheckerboard="0"
     inkscape:deskcolor="#d1d1d1" /><defs
     class="ClipPathGroup"
     id="defs4"><clipPath
       id="presentation_clip_path"
       clipPathUnits="userSpaceOnUse"><rect
         x="0"
         y="0"
         width="45000"
         height="32000"
         id="rect7" /></clipPath></defs><defs
     class="TextShapeIndex"
     id="defs9"><g
       ooo:slide="id1"
       ooo:id-list="id3 id4 id5 id6 id7 id8 id9 id10 id11 id12 id13 id14 id15 id16 id17 id18 id19 id20 id21 id22"
       id="g11" /></defs><defs
     class="EmbeddedBulletChars"
     id="defs13"><g
       id="bullet-char-template(57356)"
       transform="scale(4.8828125e-4,-4.8828125e-4)"><path
         d="M 580,1141 1163,571 580,0 -4,571 580,1141 z"
         id="path16"
         inkscape:connector-curvature="0" /></g><g
       id="bullet-char-template(57354)"
       transform="scale(4.8828125e-4,-4.8828125e-4)"><path
         d="m 8,1128 1129,0 L 1137,0 8,0 8,1128 z"
         id="path19"
         inkscape:connector-curvature="0" /></g><g
       id="bullet-char-template(10146)"
       transform="scale(4.8828125e-4,-4.8828125e-4)"><path
         d="M 174,0 602,739 174,1481 1456,739 174,0 z m 1184,739 -1049,607 350,-607 699,0 z"
         id="path22"
         inkscape:connector-curvature="0" /></g><g
       id="bullet-char-template(10132)"
       transform="scale(4.8828125e-4,-4.8828125e-4)"><path
         d="M 2015,739 1276,0 717,0 l 543,543 -1086,0 0,393 1086,0 -543,545 557,0 741,-742 z"
         id="path25"
         inkscape:connector-curvature="0" /></g><g
       id="bullet-char-template(10007)"
       transform="scale(4.8828125e-4,-4.8828125e-4)"><path
         d="m 0,-2 c -7,16 -16,29 -25,39 l 381,530 c -94,256 -141,385 -141,387 0,25 13,38 40,38 9,0 21,-2 34,-5 21,4 42,12 65,25 l 27,-13 111,-251 280,301 64,-25 24,25 c 21,-10 41,-24 62,-43 C 886,937 835,863 770,784 769,783 710,716 594,584 L 774,223 c 0,-27 -21,-55 -63,-84 l 16,-20 C 717,90 699,76 672,76 641,76 570,178 457,381 L 164,-76 c -22,-34 -53,-51 -92,-51 -42,0 -63,17 -64,51 -7,9 -10,24 -10,44 0,9 1,19 2,30 z"
         id="path28"
         inkscape:connector-curvature="0" /></g><g
       id="bullet-char-template(10004)"
       transform="scale(4.8828125e-4,-4.8828125e-4)"><path
         d="M 285,-33 C 182,-33 111,30 74,156 52,228 41,333 41,471 c 0,78 14,145 41,201 34,71 87,106 158,106 53,0 88,-31 106,-94 l 23,-176 c 8,-64 28,-97 59,-98 l 735,706 c 11,11 33,17 66,17 42,0 63,-15 63,-46 l 0,-122 c 0,-36 -10,-64 -30,-84 L 442,47 C 390,-6 338,-33 285,-33 z"
         id="path31"
         inkscape:connector-curvature="0" /></g><g
       id="bullet-char-template(9679)"
       transform="scale(4.8828125e-4,-4.8828125e-4)"><path
         d="M 813,0 C 632,0 489,54 383,161 276,268 223,411 223,592 c 0,181 53,324 160,431 106,107 249,161 430,161 179,0 323,-54 432,-161 108,-107 162,-251 162,-431 0,-180 -54,-324 -162,-431 C 1136,54 992,0 813,0 z"
         id="path34"
         inkscape:connector-curvature="0" /></g><g
       id="bullet-char-template(8226)"
       transform="scale(4.8828125e-4,-4.8828125e-4)"><path
         d="m 346,457 c -73,0 -137,26 -191,78 -54,51 -81,114 -81,188 0,73 27,136 81,188 54,52 118,78 191,78 73,0 134,-26 185,-79 51,-51 77,-114 77,-187 0,-75 -25,-137 -76,-188 -50,-52 -112,-78 -186,-78 z"
         id="path37"
         inkscape:connector-curvature="0" /></g><g
       id="bullet-char-template(8211)"
       transform="scale(4.8828125e-4,-4.8828125e-4)"><path
         d="m -4,459 1139,0 0,147 -1139,0 0,-147 z"
         id="path40"
         inkscape:connector-curvature="0" /></g></defs><defs
     class="TextEmbeddedBitmaps"
     id="defs42" /><g
     id="g44"
     transform="translate(-3120,-2120.0004)"><g
       id="id2"
       class="Master_Slide"><g
         id="bg-id2"
         class="Background" /><g
         id="bo-id2"
         class="BackgroundObjects" /></g></g><g
     class="SlideGroup"
     id="g49"
     transform="translate(-3120,-2120.0004)"><g
       id="g51"><g
         id="id1"
         class="Slide"
         clip-path="url(#presentation_clip_path)"><g
           class="Page"
           id="g54"><g
             class="com.sun.star.drawing.RectangleShape"
             id="g56"><g
               id="id3"><path
                 d="m 10885,14635 7450,0 c 166,0 300,-134 300,-300 l 0,-11900 c 0,-166 -134,-300 -300,-300 l -14900,0 c -166,0 -300,134 -300,300 l 0,11900 c 0,166 134,300 300,300 l 7450,0 z"
                 id="path59"
                 inkscape:connector-curvature="0"
                 style="fill:#ffffff;stroke:none" /></g></g><g
             class="com.sun.star.drawing.RectangleShape"
             id="g61"><g
               id="id4"><path
   d="m 4635,4135 1200,0 c 166,0 300,-134 300,-300 l 0,-1400 c 0,-166 -134,-300 -300,-300 l -2400,0 c -166,0 -300,134 -300,300 l 0,1400 c 0,166 134,300 300,300 l 1200,0 z"
   id="path64"
   inkscape:connector-curvature="0"
   style="fill:#ffcc99;stroke:none" /><path
   d="m 4635,4135 1200,0 c 166,0 300,-134 300,-300 l 0,-1400 c 0,-166 -134,-300 -300,-300 l -2400,0 c -166,0 -300,134 -300,300 l 0,1400 c 0,166 134,300 300,300 l 1200,0 z"
   id="path66"
   inkscape:connector-curvature="0"
   style="fill:none;stroke:#000000;stroke-width:30" /><text
   class="TextShape"
   id="text68"
   style="line-height:0%"><tspan
     class="TextParagraph"
     font-size="494px"
     font-weight="400"
     id="tspan70"
     style="font-weight:400;font-size:494px;font-family:'\'Liberation Sans', 'sans-serif\''"><tspan
       class="TextPosition"
       x="3822"
       y="3029"
       id="tspan72"><tspan
         id="tspan74"
         style="fill:#000000;stroke:none">usuario</tspan></tspan></tspan><tspan
     class="TextParagraph"
     font-size="494px"
     font-weight="400"
     id="tspan76"
     style="font-weight:400;font-size:494px;font-family:'\'Liberation Sans', 'sans-serif\''"><tspan
       class="TextPosition"
       x="4498"
       y="3584"
       id="tspan78"><tspan
         id="tspan80"
         style="fill:#000000;stroke:none">1</tspan></tspan></tspan></text>
</g></g><g
             class="com.sun.star.drawing.RectangleShape"
             id="g82"><g
               id="id5"><path
   d="m 8137,4135 1198,0 c 166,0 300,-134 300,-300 l 0,-1400 c 0,-166 -134,-300 -300,-300 l -2397,0 c -166,0 -300,134 -300,300 l 0,1400 c 0,166 134,300 300,300 l 1199,0 z"
   id="path85"
   inkscape:connector-curvature="0"
   style="fill:#ffcc99;stroke:none" /><path
   d="m 8137,4135 1198,0 c 166,0 300,-134 300,-300 l 0,-1400 c 0,-166 -134,-300 -300,-300 l -2397,0 c -166,0 -300,134 -300,300 l 0,1400 c 0,166 134,300 300,300 l 1199,0 z"
   id="path87"
   inkscape:connector-curvature="0"
   style="fill:none;stroke:#000000;stroke-width:30" /><text
   class="TextShape"
   id="text89"
   style="line-height:0%"><tspan
     class="TextParagraph"
     font-size="494px"
     font-weight="400"
     id="tspan91"
     style="font-weight:400;font-size:494px;font-family:'\'Liberation Sans', 'sans-serif\''"><tspan
       class="TextPosition"
       x="7323"
       y="3029"
       id="tspan93"><tspan
         id="tspan95"
         style="fill:#000000;stroke:none">usuario</tspan></tspan></tspan><tspan
     class="TextParagraph"
     font-size="494px"
     font-weight="400"
     id="tspan97"
     style="font-weight:400;font-size:494px;font-family:'\'Liberation Sans', 'sans-serif\''"><tspan
       class="TextPosition"
       x="7999"
       y="3584"
       id="tspan99"><tspan
         id="tspan101"
         style="fill:#000000;stroke:none">2</tspan></tspan></tspan></text>
</g></g><g
             class="com.sun.star.drawing.RectangleShape"
             id="g103"><g
               id="id6"><path
   d="m 11635,4135 1200,0 c 166,0 300,-134 300,-300 l 0,-1400 c 0,-166 -134,-300 -300,-300 l -2400,0 c -166,0 -300,134 -300,300 l 0,1400 c 0,166 134,300 300,300 l 1200,0 z"
   id="path106"
   inkscape:connector-curvature="0"
   style="fill:#ffcc99;stroke:none" /><path
   d="m 11635,4135 1200,0 c 166,0 300,-134 300,-300 l 0,-1400 c 0,-166 -134,-300 -300,-300 l -2400,0 c -166,0 -300,134 -300,300 l 0,1400 c 0,166 134,300 300,300 l 1200,0 z"
   id="path108"
   inkscape:connector-curvature="0"
   style="fill:none;stroke:#000000;stroke-width:30" /><text
   class="TextShape"
   id="text110"
   style="line-height:0%"><tspan
     class="TextParagraph"
     font-size="494px"
     font-weight="400"
     id="tspan112"
     style="font-weight:400;font-size:494px;font-family:'\'Liberation Sans', 'sans-serif\''"><tspan
       class="TextPosition"
       x="10822"
       y="3029"
       id="tspan114"><tspan
         id="tspan116"
         style="fill:#000000;stroke:none">usuario</tspan></tspan></tspan><tspan
     class="TextParagraph"
     font-size="494px"
     font-weight="400"
     id="tspan118"
     style="font-weight:400;font-size:494px;font-family:'\'Liberation Sans', 'sans-serif\''"><tspan
       class="TextPosition"
       x="11498"
       y="3584"
       id="tspan120"><tspan
         id="tspan122"
         style="fill:#000000;stroke:none">3</tspan></tspan></tspan></text>
</g></g><g
             class="com.sun.star.drawing.RectangleShape"
             id="g124"><g
               id="id7"><path
   d="m 17135,4135 1200,0 c 166,0 300,-134 300,-300 l 0,-1400 c 0,-166 -134,-300 -300,-300 l -2400,0 c -166,0 -300,134 -300,300 l 0,1400 c 0,166 134,300 300,300 l 1200,0 z"
   id="path127"
   inkscape:connector-curvature="0"
   style="fill:#ffcc99;stroke:none" /><path
   d="m 17135,4135 1200,0 c 166,0 300,-134 300,-300 l 0,-1400 c 0,-166 -134,-300 -300,-300 l -2400,0 c -166,0 -300,134 -300,300 l 0,1400 c 0,166 134,300 300,300 l 1200,0 z"
   id="path129"
   inkscape:connector-curvature="0"
   style="fill:none;stroke:#000000;stroke-width:30" /><text
   class="TextShape"
   id="text131"
   style="line-height:0%"><tspan
     class="TextParagraph"
     font-size="494px"
     font-weight="400"
     id="tspan133"
     style="font-weight:400;font-size:494px;font-family:'\'Liberation Sans', 'sans-serif\''"><tspan
       class="TextPosition"
       x="16322"
       y="3029"
       id="tspan135"><tspan
         id="tspan137"
         style="fill:#000000;stroke:none">usuario</tspan></tspan></tspan><tspan
     class="TextParagraph"
     font-size="494px"
     font-weight="400"
     id="tspan139"
     style="font-weight:400;font-size:494px;font-family:'\'Liberation Sans', 'sans-serif\''"><tspan
       class="TextPosition"
       x="16998"
       y="3584"
       id="tspan141"><tspan
         id="tspan143"
         style="fill:#000000;stroke:none">n</tspan></tspan></tspan></text>
</g></g><g
             class="com.sun.star.drawing.ConnectorShape"
             id="g145"><g
               id="id8"><path
                 d="m 4635,4135 1,2006"
                 id="path148"
                 inkscape:connector-curvature="0"
                 style="fill:none;stroke:#000000;stroke-width:30" /><path
                 d="m 4636,6635 172,-518 -345,1 173,517 z"
                 id="path150"
                 inkscape:connector-curvature="0"
                 style="fill:#000000;stroke:none" /></g></g><g
             class="com.sun.star.drawing.ConnectorShape"
             id="g152"><g
               id="id9"><path
                 d="m 8136,4135 0,2006"
                 id="path155"
                 inkscape:connector-curvature="0"
                 style="fill:none;stroke:#000000;stroke-width:30" /><path
                 d="m 8136,6635 173,-517 -345,0 172,517 z"
                 id="path157"
                 inkscape:connector-curvature="0"
                 style="fill:#000000;stroke:none" /></g></g><g
             class="com.sun.star.drawing.ConnectorShape"
             id="g159"><g
               id="id10"><path
                 d="m 11635,4135 -2,2006"
                 id="path162"
                 inkscape:connector-curvature="0"
                 style="fill:none;stroke:#000000;stroke-width:30" /><path
                 d="m 11633,6635 173,-517 -345,-1 172,518 z"
                 id="path164"
                 inkscape:connector-curvature="0"
                 style="fill:#000000;stroke:none" /></g></g><g
             class="com.sun.star.drawing.ConnectorShape"
             id="g166"><g
               id="id11"><path
                 d="m 17135,4135 -1,2006"
                 id="path169"
                 inkscape:connector-curvature="0"
                 style="fill:none;stroke:#000000;stroke-width:30" /><path
                 d="m 17134,6635 173,-517 -345,-1 172,518 z"
                 id="path171"
                 inkscape:connector-curvature="0"
                 style="fill:#000000;stroke:none" /></g></g><g
             class="com.sun.star.drawing.RectangleShape"
             id="g173"><g
               id="id12"><path
                 d="m 10885,11635 7450,0 c 166,0 300,-134 300,-300 l 0,-4400 c 0,-166 -134,-300 -300,-300 l -14900,0 c -166,0 -300,134 -300,300 l 0,4400 c 0,166 134,300 300,300 l 7450,0 z"
                 id="path176"
                 inkscape:connector-curvature="0"
                 style="fill:#94bd5e;stroke:none" /><path
                 d="m 10885,11635 7450,0 c 166,0 300,-134 300,-300 l 0,-4400 c 0,-166 -134,-300 -300,-300 l -14900,0 c -166,0 -300,134 -300,300 l 0,4400 c 0,166 134,300 300,300 l 7450,0 z"
                 id="path178"
                 inkscape:connector-curvature="0"
                 style="fill:none;stroke:#000000;stroke-width:30" /></g></g><g
             class="com.sun.star.drawing.RectangleShape"
             id="g180"><g
               id="id13"><path
                 d="m 10885,13135 4450,0 c 166,0 300,-134 300,-300 l 0,-2400 c 0,-166 -134,-300 -300,-300 l -8900,0 c -166,0 -300,134 -300,300 l 0,2400 c 0,166 134,300 300,300 l 4450,0 z"
                 id="path183"
                 inkscape:connector-curvature="0"
                 style="fill:#ffff99;stroke:none" /><path
                 d="m 10885,13135 4450,0 c 166,0 300,-134 300,-300 l 0,-2400 c 0,-166 -134,-300 -300,-300 l -8900,0 c -166,0 -300,134 -300,300 l 0,2400 c 0,166 134,300 300,300 l 4450,0 z"
                 id="path185"
                 inkscape:connector-curvature="0"
                 style="fill:none;stroke:#000000;stroke-width:30" /></g></g><g
             class="com.sun.star.drawing.RectangleShape"
             id="g187"><g
               id="id14"><path
   d="m 10885,14635 2450,0 c 166,0 300,-134 300,-300 l 0,-1900 c 0,-166 -134,-300 -300,-300 l -4900,0 c -166,0 -300,134 -300,300 l 0,1900 c 0,166 134,300 300,300 l 2450,0 z"
   id="path190"
   inkscape:connector-curvature="0"
   style="fill:#9999ff;stroke:none" /><path
   d="m 10885,14635 2450,0 c 166,0 300,-134 300,-300 l 0,-1900 c 0,-166 -134,-300 -300,-300 l -4900,0 c -166,0 -300,134 -300,300 l 0,1900 c 0,166 134,300 300,300 l 2450,0 z"
   id="path192"
   inkscape:connector-curvature="0"
   style="fill:none;stroke:#000000;stroke-width:30" /><text
   class="TextShape"
   id="text194"
   style="line-height:0%"><tspan
     class="TextParagraph"
     font-size="494px"
     font-weight="400"
     id="tspan196"
     style="font-weight:400;font-size:494px;font-family:'\'Liberation Sans', 'sans-serif\''"><tspan
       class="TextPosition"
       x="9852"
       y="13557"
       id="tspan198"><tspan
         id="tspan200"
         style="fill:#000000;stroke:none">hardware</tspan></tspan></tspan></text>
</g></g><g
             class="com.sun.star.drawing.TextShape"
             id="g202"><g
               id="id15"><text
   class="TextShape"
   id="text205"
   style="line-height:0%"><tspan
     class="TextParagraph"
     font-size="494px"
     font-weight="400"
     id="tspan207"
     style="font-weight:400;font-size:494px;font-family:'\'Liberation Sans', 'sans-serif\''"><tspan
       class="TextPosition"
       x="8940"
       y="11360"
       id="tspan209"><tspan
         id="tspan211"
         style="fill:#000000;stroke:none">sistema operativo</tspan></tspan></tspan></text>
</g></g><g
             class="com.sun.star.drawing.TextShape"
             id="g213"><g
               id="id16"><text
   class="TextShape"
   id="text216"
   style="line-height:0%"><tspan
     class="TextParagraph"
     font-size="494px"
     font-weight="400"
     id="tspan218"
     style="font-weight:400;font-size:494px;font-family:'\'Liberation Sans', 'sans-serif\''"><tspan
       class="TextPosition"
       x="6747"
       y="9061"
       id="tspan220"><tspan
         id="tspan222"
         style="fill:#000000;stroke:none">programas del sistema y aplicaciones</tspan></tspan></tspan></text>
</g></g><g
             class="com.sun.star.drawing.TextShape"
             id="g224"><g
               id="id17"><text
   class="TextShape"
   id="text227"
   style="line-height:0%"><tspan
     class="TextParagraph"
     font-size="494px"
     font-weight="400"
     id="tspan229"
     style="font-weight:400;font-size:494px;font-family:'\'Liberation Sans', 'sans-serif\''"><tspan
       class="TextPosition"
       x="4015"
       y="7208"
       id="tspan231"><tspan
         id="tspan233"
         style="fill:#000000;stroke:none">editor</tspan></tspan></tspan></text>
</g></g><g
             class="com.sun.star.drawing.TextShape"
             id="g235"><g
               id="id18"><text
   class="TextShape"
   id="text238"
   style="line-height:0%"><tspan
     class="TextParagraph"
     font-size="494px"
     font-weight="400"
     id="tspan240"
     style="font-weight:400;font-size:494px;font-family:'\'Liberation Sans', 'sans-serif\''"><tspan
       class="TextPosition"
       x="10385"
       y="7238"
       id="tspan242"><tspan
         id="tspan244"
         style="fill:#000000;stroke:none">compilador</tspan></tspan></tspan></text>
</g></g><g
             class="com.sun.star.drawing.TextShape"
             id="g246"><g
               id="id19"><text
   class="TextShape"
   id="text249"
   style="line-height:0%"><tspan
     class="TextParagraph"
     font-size="494px"
     font-weight="400"
     id="tspan251"
     style="font-weight:400;font-size:494px;font-family:'\'Liberation Sans', 'sans-serif\''"><tspan
       class="TextPosition"
       x="7529"
       y="7238"
       id="tspan253"><tspan
         id="tspan255"
         style="fill:#000000;stroke:none">juego</tspan></tspan></tspan></text>
</g></g><g
             class="com.sun.star.drawing.TextShape"
             id="g257"><g
               id="id20"><text
   class="TextShape"
   id="text260"
   style="line-height:0%"><tspan
     class="TextParagraph"
     font-size="494px"
     font-weight="400"
     id="tspan262"
     style="font-weight:400;font-size:494px;font-family:'\'Liberation Sans', 'sans-serif\''"><tspan
       class="TextPosition"
       x="16597"
       y="7206"
       id="tspan264"><tspan
         id="tspan266"
         style="fill:#000000;stroke:none">base</tspan></tspan></tspan><tspan
     class="TextParagraph"
     font-size="494px"
     font-weight="400"
     id="tspan268"
     style="font-weight:400;font-size:494px;font-family:'\'Liberation Sans', 'sans-serif\''"><tspan
       class="TextPosition"
       x="16182"
       y="7761"
       id="tspan270"><tspan
         id="tspan272"
         style="fill:#000000;stroke:none">de datos</tspan></tspan></tspan></text>
</g></g><g
             class="com.sun.star.drawing.TextShape"
             id="g274"><g
               id="id21"><text
   class="TextShape"
   id="text277"
   style="line-height:0%"><tspan
     class="TextParagraph"
     font-size="494px"
     font-weight="400"
     id="tspan279"
     style="font-weight:400;font-size:494px;font-family:'\'Liberation Sans', 'sans-serif\''"><tspan
       class="TextPosition"
       x="14175"
       y="3307"
       id="tspan281"><tspan
         id="tspan283"
         style="fill:#000000;stroke:none">...</tspan></tspan></tspan></text>
</g></g><g
             class="com.sun.star.drawing.TextShape"
             id="g285"><g
               id="id22"><text
   class="TextShape"
   id="text288"
   style="line-height:0%"><tspan
     class="TextParagraph"
     font-size="494px"
     font-weight="400"
     id="tspan290"
     style="font-weight:400;font-size:494px;font-family:'\'Liberation Sans', 'sans-serif\''"><tspan
       class="TextPosition"
       x="14175"
       y="7208"
       id="tspan292"><tspan
         id="tspan294"
         style="fill:#000000;stroke:none">...</tspan></tspan></tspan></text>
</g></g></g></g></g></g></svg>
